%TF.GenerationSoftware,KiCad,Pcbnew,10.0.3*%
%TF.CreationDate,2026-07-05T15:48:58+05:30*%
%TF.ProjectId,schema,73636865-6d61-42e6-9b69-6361645f7063,rev?*%
%TF.SameCoordinates,Original*%
%TF.FileFunction,Copper,L2,Bot*%
%TF.FilePolarity,Positive*%
%FSLAX46Y46*%
G04 Gerber Fmt 4.6, Leading zero omitted, Abs format (unit mm)*
G04 Created by KiCad (PCBNEW 10.0.3) date 2026-07-05 15:48:58*
%MOMM*%
%LPD*%
G01*
G04 APERTURE LIST*
G04 Aperture macros list*
%AMRoundRect*
0 Rectangle with rounded corners*
0 $1 Rounding radius*
0 $2 $3 $4 $5 $6 $7 $8 $9 X,Y pos of 4 corners*
0 Add a 4 corners polygon primitive as box body*
4,1,4,$2,$3,$4,$5,$6,$7,$8,$9,$2,$3,0*
0 Add four circle primitives for the rounded corners*
1,1,$1+$1,$2,$3*
1,1,$1+$1,$4,$5*
1,1,$1+$1,$6,$7*
1,1,$1+$1,$8,$9*
0 Add four rect primitives between the rounded corners*
20,1,$1+$1,$2,$3,$4,$5,0*
20,1,$1+$1,$4,$5,$6,$7,0*
20,1,$1+$1,$6,$7,$8,$9,0*
20,1,$1+$1,$8,$9,$2,$3,0*%
%AMRotRect*
0 Rectangle, with rotation*
0 The origin of the aperture is its center*
0 $1 length*
0 $2 width*
0 $3 Rotation angle, in degrees counterclockwise*
0 Add horizontal line*
21,1,$1,$2,0,0,$3*%
G04 Aperture macros list end*
%TA.AperFunction,ComponentPad*%
%ADD10C,1.600000*%
%TD*%
%TA.AperFunction,ComponentPad*%
%ADD11C,1.800000*%
%TD*%
%TA.AperFunction,ComponentPad*%
%ADD12RotRect,1.800000X1.800000X315.000000*%
%TD*%
%TA.AperFunction,ComponentPad*%
%ADD13R,1.800000X1.800000*%
%TD*%
%TA.AperFunction,ComponentPad*%
%ADD14RoundRect,0.250000X-0.350000X0.350000X-0.350000X-0.350000X0.350000X-0.350000X0.350000X0.350000X0*%
%TD*%
%TA.AperFunction,ComponentPad*%
%ADD15C,1.200000*%
%TD*%
%TA.AperFunction,ComponentPad*%
%ADD16R,1.700000X1.700000*%
%TD*%
%TA.AperFunction,ComponentPad*%
%ADD17C,1.700000*%
%TD*%
%TA.AperFunction,ComponentPad*%
%ADD18R,2.000000X2.000000*%
%TD*%
%TA.AperFunction,ComponentPad*%
%ADD19C,2.000000*%
%TD*%
%TA.AperFunction,ComponentPad*%
%ADD20R,2.540000X2.540000*%
%TD*%
%TA.AperFunction,ComponentPad*%
%ADD21C,2.540000*%
%TD*%
%TA.AperFunction,ComponentPad*%
%ADD22RoundRect,0.250001X-1.149999X-1.149999X1.149999X-1.149999X1.149999X1.149999X-1.149999X1.149999X0*%
%TD*%
%TA.AperFunction,ComponentPad*%
%ADD23C,2.800000*%
%TD*%
%TA.AperFunction,ComponentPad*%
%ADD24RotRect,1.800000X1.800000X45.000000*%
%TD*%
%TA.AperFunction,ComponentPad*%
%ADD25O,2.200000X3.500000*%
%TD*%
%TA.AperFunction,ComponentPad*%
%ADD26R,1.500000X2.500000*%
%TD*%
%TA.AperFunction,ComponentPad*%
%ADD27O,1.500000X2.500000*%
%TD*%
%TA.AperFunction,ViaPad*%
%ADD28C,0.600000*%
%TD*%
%TA.AperFunction,Conductor*%
%ADD29C,0.500000*%
%TD*%
%TA.AperFunction,Conductor*%
%ADD30C,0.800000*%
%TD*%
%TA.AperFunction,Conductor*%
%ADD31C,0.200000*%
%TD*%
%TA.AperFunction,Conductor*%
%ADD32C,1.200000*%
%TD*%
%TA.AperFunction,Conductor*%
%ADD33C,0.250000*%
%TD*%
%TA.AperFunction,Conductor*%
%ADD34C,1.000000*%
%TD*%
G04 APERTURE END LIST*
D10*
%TO.P,R1 120 ,2*%
%TO.N,Net-(D1-A)*%
X73152000Y-65024000D03*
%TO.P,R1 120 ,1*%
%TO.N,/BUCK +*%
X73152000Y-72644000D03*
%TD*%
D11*
%TO.P,D4,2,A_2*%
%TO.N,Net-(D4-A)*%
X131927600Y-53187600D03*
D12*
%TO.P,D4,1,K_1*%
%TO.N,Net-(D1-K)*%
X130131549Y-51391549D03*
%TD*%
D11*
%TO.P,Q4,2,E_2*%
%TO.N,/GND*%
X138125200Y-59385200D03*
D12*
%TO.P,Q4,1,C_1*%
%TO.N,/IR 4*%
X136329149Y-57589149D03*
%TD*%
D11*
%TO.P,D2,2,A_2*%
%TO.N,Net-(D2-A)*%
X84531200Y-38658800D03*
D13*
%TO.P,D2,1,K_1*%
%TO.N,Net-(D1-K)*%
X81991200Y-38658800D03*
%TD*%
D11*
%TO.P,Q2,2,E_2*%
%TO.N,/GND*%
X94940200Y-38658800D03*
D13*
%TO.P,Q2,1,C_1*%
%TO.N,/IR 2*%
X92400200Y-38658800D03*
%TD*%
D11*
%TO.P,D3,2,A_2*%
%TO.N,Net-(D3-A)*%
X112471200Y-38658800D03*
D13*
%TO.P,D3,1,K_1*%
%TO.N,Net-(D1-K)*%
X109931200Y-38658800D03*
%TD*%
D11*
%TO.P,Q3,2,E_2*%
%TO.N,/GND*%
X122885200Y-38658800D03*
D13*
%TO.P,Q3,1,C_1*%
%TO.N,/IR 3*%
X120345200Y-38658800D03*
%TD*%
D10*
%TO.P,R2 120,1*%
%TO.N,/BUCK +*%
X88392000Y-56388000D03*
%TO.P,R2 120,2*%
%TO.N,Net-(D2-A)*%
X88392000Y-48768000D03*
%TD*%
D14*
%TO.P,C2 47 \u00B5F,1*%
%TO.N,/GND*%
X81026000Y-106664600D03*
D15*
%TO.P,C2 47 \u00B5F,2*%
%TO.N,/BUCK +*%
X81026000Y-108164600D03*
%TD*%
D16*
%TO.P,J14,1,Pin_1_1*%
%TO.N,/AIN 1*%
X111252000Y-109220000D03*
D17*
%TO.P,J14,2,Pin_2_2*%
%TO.N,/AIN 2*%
X111252000Y-111760000D03*
%TO.P,J14,3,Pin_3_3*%
%TO.N,/BAT +*%
X111252000Y-114300000D03*
%TO.P,J14,4,Pin_4_4*%
%TO.N,/GND*%
X111252000Y-116840000D03*
%TO.P,J14,5,Pin_5_5*%
%TO.N,/BIN 1*%
X111252000Y-119380000D03*
%TO.P,J14,6,Pin_6_6*%
%TO.N,/BIN 2*%
X111252000Y-121920000D03*
%TD*%
D18*
%TO.P,J2,1,Pin_1_1*%
%TO.N,/BUCK +*%
X86339000Y-103124000D03*
D19*
%TO.P,J2,2,Pin_2_2*%
%TO.N,/GND*%
X88879000Y-103124000D03*
%TO.P,J2,3,Pin_3_3*%
%TO.N,unconnected-(J2-Pin_3-Pad3)*%
X91419000Y-103124000D03*
%TO.P,J2,4,Pin_4_4*%
%TO.N,unconnected-(J2-Pin_4-Pad4)*%
X93959000Y-103124000D03*
%TO.P,J2,5,Pin_5_5*%
%TO.N,/BIN 2*%
X96499000Y-103124000D03*
%TO.P,J2,6,Pin_6_6*%
%TO.N,/BIN 1*%
X99039000Y-103124000D03*
%TO.P,J2,7,Pin_7_7*%
%TO.N,/AIN 2*%
X101579000Y-103124000D03*
%TO.P,J2,8,Pin_8_8*%
%TO.N,/AIN 1*%
X104119000Y-103124000D03*
%TO.P,J2,9,Pin_9_9*%
%TO.N,/ENC B2*%
X106659000Y-103124000D03*
%TO.P,J2,10,Pin_10_10*%
%TO.N,/ENC B1*%
X109199000Y-103124000D03*
%TO.P,J2,11,Pin_11_11*%
%TO.N,/ENC A2*%
X111739000Y-103124000D03*
%TO.P,J2,12,Pin_12_12*%
%TO.N,/ENC A1*%
X114279000Y-103124000D03*
%TO.P,J2,13,Pin_13_13*%
%TO.N,unconnected-(J2-Pin_13-Pad13)*%
X116819000Y-103124000D03*
%TO.P,J2,14,Pin_14_14*%
%TO.N,unconnected-(J2-Pin_14-Pad14)*%
X119359000Y-103124000D03*
%TO.P,J2,15,Pin_15_15*%
%TO.N,unconnected-(J2-Pin_15-Pad15)*%
X121899000Y-103124000D03*
%TO.P,J2,16,Pin_16_16*%
%TO.N,unconnected-(J2-Pin_16-Pad16)*%
X121899000Y-77724000D03*
%TO.P,J2,17,Pin_17_17*%
%TO.N,unconnected-(J2-Pin_17-Pad17)*%
X119359000Y-77724000D03*
%TO.P,J2,18,Pin_18_18*%
%TO.N,/IR 1*%
X116819000Y-77724000D03*
%TO.P,J2,19,Pin_19_19*%
%TO.N,/IR 3*%
X114279000Y-77724000D03*
%TO.P,J2,20,Pin_20_20*%
%TO.N,unconnected-(J2-Pin_20-Pad20)*%
X111739000Y-77724000D03*
%TO.P,J2,21,Pin_21_21*%
%TO.N,unconnected-(J2-Pin_21-Pad21)*%
X109199000Y-77724000D03*
%TO.P,J2,22,Pin_22_22*%
%TO.N,unconnected-(J2-Pin_22-Pad22)*%
X106659000Y-77724000D03*
%TO.P,J2,23,Pin_23_23*%
%TO.N,unconnected-(J2-Pin_23-Pad23)*%
X104119000Y-77724000D03*
%TO.P,J2,24,Pin_24_24*%
%TO.N,unconnected-(J2-Pin_24-Pad24)*%
X101579000Y-77724000D03*
%TO.P,J2,25,Pin_25_25*%
%TO.N,unconnected-(J2-Pin_25-Pad25)*%
X99039000Y-77724000D03*
%TO.P,J2,26,Pin_26_26*%
%TO.N,/IR 4*%
X96499000Y-77724000D03*
%TO.P,J2,27,Pin_27_27*%
%TO.N,/IR 2*%
X93959000Y-77724000D03*
%TO.P,J2,28,Pin_28_28*%
%TO.N,/IR EM*%
X91419000Y-77724000D03*
%TO.P,J2,29,Pin_29_29*%
%TO.N,/GND*%
X88879000Y-77724000D03*
%TO.P,J2,30,Pin_30_30*%
%TO.N,/3V3*%
X86339000Y-77724000D03*
%TD*%
D20*
%TO.P,J6,1,Pin_1_1*%
%TO.N,/BAT +*%
X80518000Y-130556000D03*
D21*
%TO.P,J6,2,Pin_2_2*%
%TO.N,/GND*%
X80518000Y-148336000D03*
%TO.P,J6,3,Pin_3_3*%
%TO.N,/BUCK +*%
X121158000Y-148336000D03*
%TO.P,J6,4,Pin_4_4*%
%TO.N,/GND*%
X121158000Y-130556000D03*
%TD*%
D10*
%TO.P,R7 10k ,1*%
%TO.N,/3V3*%
X78232000Y-72644000D03*
%TO.P,R7 10k ,2*%
%TO.N,/IR 1*%
X78232000Y-65024000D03*
%TD*%
%TO.P,R8 10k,1*%
%TO.N,/3V3*%
X92710000Y-56642000D03*
%TO.P,R8 10k,2*%
%TO.N,/IR 2*%
X92710000Y-49022000D03*
%TD*%
%TO.P,C1 100nF,1*%
%TO.N,/BUCK +*%
X76708000Y-108701199D03*
%TO.P,C1 100nF,2*%
%TO.N,/GND*%
X76708000Y-106201199D03*
%TD*%
D22*
%TO.P,J5,1,Pin_1_1*%
%TO.N,/BAT R+*%
X67136000Y-144780000D03*
D23*
%TO.P,J5,2,Pin_2_2*%
%TO.N,/GND*%
X72136000Y-144780000D03*
%TD*%
D10*
%TO.P,C3 100nF,1*%
%TO.N,/GND*%
X114808000Y-116566000D03*
%TO.P,C3 100nF,2*%
%TO.N,/BAT +*%
X114808000Y-114066000D03*
%TD*%
%TO.P,R4 120,1*%
%TO.N,/BUCK +*%
X130048000Y-74422000D03*
%TO.P,R4 120,2*%
%TO.N,Net-(D4-A)*%
X130048000Y-66802000D03*
%TD*%
D16*
%TO.P,J3,1,Pin_1_1*%
%TO.N,/AOUT 1*%
X84836000Y-111506000D03*
D17*
%TO.P,J3,2,Pin_2_2*%
%TO.N,/BUCK +*%
X84836000Y-114046000D03*
%TO.P,J3,3,Pin_3_3*%
%TO.N,/ENC A1*%
X84836000Y-116586000D03*
%TO.P,J3,4,Pin_4_4*%
%TO.N,/ENC A2*%
X84836000Y-119126000D03*
%TO.P,J3,5,Pin_5_5*%
%TO.N,/GND*%
X84836000Y-121666000D03*
%TO.P,J3,6,Pin_6_6*%
%TO.N,/AOUT 2*%
X84836000Y-124206000D03*
%TD*%
D24*
%TO.P,Q1,1,C_1*%
%TO.N,/IR 1*%
X72879949Y-52596051D03*
D11*
%TO.P,Q1,2,E_2*%
%TO.N,/GND*%
X74676000Y-50800000D03*
%TD*%
D24*
%TO.P,D1,1,K_1*%
%TO.N,Net-(D1-K)*%
X66529949Y-59200051D03*
D11*
%TO.P,D1,2,A_2*%
%TO.N,Net-(D1-A)*%
X68326000Y-57404000D03*
%TD*%
D25*
%TO.P,J11,*%
%TO.N,*%
X65024000Y-134578000D03*
X73224000Y-134578000D03*
D26*
%TO.P,J11,1,Pin_1_1*%
%TO.N,/BAT R+*%
X67124000Y-134578000D03*
D27*
%TO.P,J11,2,Pin_2_2*%
%TO.N,/BAT +*%
X69124000Y-134578000D03*
%TO.P,J11,3*%
%TO.N,N/C*%
X71124000Y-134578000D03*
%TD*%
D10*
%TO.P,R5,1*%
%TO.N,/IR EM*%
X100076000Y-67818000D03*
%TO.P,R5,2*%
%TO.N,Net-(J15-Pin_1)*%
X107696000Y-67818000D03*
%TD*%
%TO.P,R9 10k,1*%
%TO.N,/3V3*%
X121412000Y-56388000D03*
%TO.P,R9 10k,2*%
%TO.N,/IR 3*%
X121412000Y-48768000D03*
%TD*%
D16*
%TO.P,J4,1,Pin_1_1*%
%TO.N,/BOUT 1*%
X119888000Y-111506000D03*
D17*
%TO.P,J4,2,Pin_2_2*%
%TO.N,/BUCK +*%
X119888000Y-114046000D03*
%TO.P,J4,3,Pin_3_3*%
%TO.N,/ENC B1*%
X119888000Y-116586000D03*
%TO.P,J4,4,Pin_4_4*%
%TO.N,/ENC B2*%
X119888000Y-119126000D03*
%TO.P,J4,5,Pin_5_5*%
%TO.N,/GND*%
X119888000Y-121666000D03*
%TO.P,J4,6,Pin_6_6*%
%TO.N,/BOUT 2*%
X119888000Y-124206000D03*
%TD*%
D10*
%TO.P,R6,1*%
%TO.N,/GND*%
X100076000Y-60960000D03*
%TO.P,R6,2*%
%TO.N,Net-(J15-Pin_1)*%
X107696000Y-60960000D03*
%TD*%
%TO.P,R10 10k,1*%
%TO.N,/3V3*%
X135636000Y-74168000D03*
%TO.P,R10 10k,2*%
%TO.N,/IR 4*%
X135636000Y-66548000D03*
%TD*%
D16*
%TO.P,J1,1,Pin_1_1*%
%TO.N,/3V3*%
X93218000Y-109220000D03*
D17*
%TO.P,J1,2,Pin_2_2*%
%TO.N,/AOUT 1*%
X93218000Y-111760000D03*
%TO.P,J1,3,Pin_3_3*%
%TO.N,/AOUT 2*%
X93218000Y-114300000D03*
%TO.P,J1,4,Pin_4_4*%
%TO.N,/BOUT 1*%
X93218000Y-116840000D03*
%TO.P,J1,5,Pin_5_5*%
%TO.N,/BOUT 2*%
X93218000Y-119380000D03*
%TO.P,J1,6,Pin_6_6*%
%TO.N,unconnected-(J1-Pin_6-Pad6)*%
X93218000Y-121920000D03*
%TD*%
D10*
%TO.P,R3 120,1*%
%TO.N,/BUCK +*%
X116332000Y-56642000D03*
%TO.P,R3 120,2*%
%TO.N,Net-(D3-A)*%
X116332000Y-49022000D03*
%TD*%
D28*
%TO.N,/BUCK +*%
X81737200Y-81635600D03*
X130505200Y-83159600D03*
X119176800Y-69138800D03*
X97891600Y-58470800D03*
X120446800Y-67818000D03*
X113919000Y-60883800D03*
%TO.N,/AIN 1*%
X100330000Y-107177500D03*
X104394000Y-108712000D03*
%TO.N,/AIN 2*%
X104394000Y-109512003D03*
X99770129Y-107748943D03*
%TO.N,/BIN 1*%
X104394000Y-110490000D03*
X99060000Y-108458000D03*
%TO.N,/BIN 2*%
X103632000Y-111252000D03*
X98494313Y-109023687D03*
%TO.N,/ENC A2*%
X91440000Y-113538000D03*
%TO.N,/IR 2*%
X88341200Y-70053200D03*
%TO.N,/IR 1*%
X88392000Y-71069200D03*
%TO.N,/IR 4*%
X127953135Y-60917420D03*
%TO.N,/IR 3*%
X129702542Y-61102258D03*
%TD*%
%TO.N,/BUCK +*%
D29*
X128168400Y-80822800D02*
X130505200Y-83159600D01*
X82651600Y-80822800D02*
X128168400Y-80822800D01*
X81930400Y-81544000D02*
X82651600Y-80822800D01*
D30*
X134823200Y-108356400D02*
X134823200Y-110794800D01*
X75082400Y-107075599D02*
X76708000Y-108701199D01*
X75082400Y-102260400D02*
X75082400Y-107075599D01*
X126492000Y-100025200D02*
X77317600Y-100025200D01*
X134823200Y-108356400D02*
X126492000Y-100025200D01*
X77317600Y-100025200D02*
X75082400Y-102260400D01*
D31*
X81838800Y-81635600D02*
X81930400Y-81544000D01*
X81737200Y-81635600D02*
X81838800Y-81635600D01*
D29*
X108508800Y-58470800D02*
X119176800Y-69138800D01*
X97891600Y-58470800D02*
X108508800Y-58470800D01*
X113995200Y-61366400D02*
X120446800Y-67818000D01*
D31*
X113995200Y-60960000D02*
X113995200Y-61366400D01*
X113919000Y-60883800D02*
X113995200Y-60960000D01*
D29*
X86339000Y-105664000D02*
X86339000Y-103124000D01*
X83838400Y-108164600D02*
X86339000Y-105664000D01*
X81026000Y-108164600D02*
X83838400Y-108164600D01*
X80489401Y-108701199D02*
X81026000Y-108164600D01*
X76708000Y-108701199D02*
X80489401Y-108701199D01*
D32*
X120345200Y-114046000D02*
X123596400Y-110794800D01*
X119888000Y-114046000D02*
X120345200Y-114046000D01*
X123596400Y-110794800D02*
X134823200Y-110794800D01*
%TO.N,/ENC A2*%
D33*
X91853000Y-113125000D02*
X91440000Y-113538000D01*
X97869313Y-108937487D02*
X93681800Y-113125000D01*
X97869313Y-108764803D02*
X97869313Y-108937487D01*
X98235429Y-108398687D02*
X97869313Y-108764803D01*
X98435000Y-108199116D02*
X98435000Y-108371800D01*
X98801116Y-107833000D02*
X98435000Y-108199116D01*
X98973800Y-107833000D02*
X98801116Y-107833000D01*
X98435000Y-108371800D02*
X98408113Y-108398687D01*
X99145129Y-107661671D02*
X98973800Y-107833000D01*
X99145129Y-107490059D02*
X99145129Y-107661671D01*
X99511245Y-107123943D02*
X99145129Y-107490059D01*
X99705000Y-107101800D02*
X99682857Y-107123943D01*
X99682857Y-107123943D02*
X99511245Y-107123943D01*
X98408113Y-108398687D02*
X98235429Y-108398687D01*
X100071116Y-106552500D02*
X99705000Y-106918616D01*
X100254300Y-106552500D02*
X100071116Y-106552500D01*
X101726627Y-105080173D02*
X100254300Y-106552500D01*
X99705000Y-106918616D02*
X99705000Y-107101800D01*
X109782827Y-105080173D02*
X101726627Y-105080173D01*
X93681800Y-113125000D02*
X91853000Y-113125000D01*
X111739000Y-103124000D02*
X109782827Y-105080173D01*
%TO.N,Net-(D4-A)*%
D29*
X131927600Y-64922400D02*
X130048000Y-66802000D01*
X131927600Y-53187600D02*
X131927600Y-64922400D01*
%TO.N,/GND*%
X77171401Y-106664600D02*
X76708000Y-106201199D01*
%TO.N,/BUCK +*%
D32*
X121158000Y-148336000D02*
X134823200Y-134670800D01*
X134823200Y-134670800D02*
X134823200Y-110794800D01*
%TO.N,/AIN 1*%
D31*
X101864500Y-108712000D02*
X104394000Y-108712000D01*
X100330000Y-107177500D02*
X101864500Y-108712000D01*
%TO.N,/AIN 2*%
X99770129Y-107748943D02*
X101533189Y-109512003D01*
X101533189Y-109512003D02*
X104394000Y-109512003D01*
%TO.N,/BAT +*%
D34*
X116789200Y-119176800D02*
X116789200Y-116047200D01*
D30*
X111252000Y-114300000D02*
X114574000Y-114300000D01*
D34*
X105410000Y-130556000D02*
X116789200Y-119176800D01*
X80518000Y-130556000D02*
X105410000Y-130556000D01*
X116789200Y-116047200D02*
X114808000Y-114066000D01*
D31*
X114574000Y-114300000D02*
X114808000Y-114066000D01*
%TO.N,/BIN 1*%
X99060000Y-108458000D02*
X101092000Y-110490000D01*
X101092000Y-110490000D02*
X104394000Y-110490000D01*
%TO.N,/BIN 2*%
X100722626Y-111252000D02*
X103632000Y-111252000D01*
X98494313Y-109023687D02*
X100722626Y-111252000D01*
%TO.N,/IR EM*%
D33*
X100076000Y-69067000D02*
X100076000Y-67818000D01*
X91419000Y-77724000D02*
X100076000Y-69067000D01*
%TO.N,/IR 2*%
X88341200Y-70053200D02*
X90525600Y-67868800D01*
X90525600Y-67868800D02*
X90525600Y-49682400D01*
X90525600Y-49682400D02*
X91186000Y-49022000D01*
X91186000Y-49022000D02*
X92710000Y-49022000D01*
%TO.N,/IR 1*%
X82346800Y-65024000D02*
X78232000Y-65024000D01*
X88392000Y-71069200D02*
X82346800Y-65024000D01*
%TO.N,/IR 4*%
X98226200Y-75996800D02*
X96499000Y-77724000D01*
X127953135Y-60917420D02*
X127953135Y-62191265D01*
X114147600Y-75996800D02*
X98226200Y-75996800D01*
X127953135Y-62191265D02*
X114147600Y-75996800D01*
%TO.N,/IR 3*%
D31*
X114279000Y-77724000D02*
X114300000Y-77724000D01*
D33*
X114300000Y-77724000D02*
X129702542Y-62321458D01*
X129702542Y-62321458D02*
X129702542Y-61102258D01*
%TO.N,Net-(J15-Pin_1)*%
D31*
X107696000Y-67818000D02*
X107696000Y-60960000D01*
%TD*%
%TA.AperFunction,Conductor*%
%TO.N,/GND*%
G36*
X103027757Y-29537496D02*
G01*
X104351322Y-29576912D01*
X104354979Y-29577076D01*
X105676768Y-29655873D01*
X105680427Y-29656146D01*
X106999320Y-29774257D01*
X107002964Y-29774638D01*
X108317766Y-29931959D01*
X108321352Y-29932443D01*
X109630908Y-30128834D01*
X109634493Y-30129427D01*
X110937599Y-30364710D01*
X110941196Y-30365415D01*
X112236711Y-30639382D01*
X112240224Y-30640179D01*
X113527057Y-30952599D01*
X113530631Y-30953524D01*
X114807481Y-31304082D01*
X114811026Y-31305112D01*
X115196327Y-31423336D01*
X116076929Y-31693537D01*
X116080389Y-31694655D01*
X117334243Y-32120618D01*
X117337646Y-32121831D01*
X118578173Y-32584895D01*
X118581606Y-32586234D01*
X119807827Y-33086032D01*
X119811197Y-33087465D01*
X120544636Y-33412192D01*
X121021987Y-33623537D01*
X121025336Y-33625080D01*
X122219622Y-34196952D01*
X122222842Y-34198553D01*
X123399649Y-34805760D01*
X123402902Y-34807501D01*
X124561027Y-35449423D01*
X124564214Y-35451252D01*
X125702715Y-36127362D01*
X125705861Y-36129294D01*
X126823767Y-36839016D01*
X126826806Y-36841010D01*
X127494394Y-37293273D01*
X127923088Y-37583695D01*
X127926113Y-37585811D01*
X128999766Y-38360774D01*
X129002727Y-38362979D01*
X130052839Y-39169563D01*
X130055733Y-39171855D01*
X131081379Y-40009346D01*
X131084203Y-40011723D01*
X132084459Y-40879369D01*
X132087211Y-40881829D01*
X133061192Y-41778863D01*
X133063870Y-41781404D01*
X134010714Y-42707029D01*
X134013315Y-42709648D01*
X134932203Y-43663066D01*
X134934725Y-43665762D01*
X135824833Y-44646120D01*
X135827230Y-44648839D01*
X136066170Y-44928287D01*
X136687767Y-45655265D01*
X136690124Y-45658106D01*
X137520306Y-46689684D01*
X137522577Y-46692594D01*
X138321675Y-47748415D01*
X138323857Y-47751390D01*
X138692897Y-48270402D01*
X139091173Y-48830532D01*
X139093267Y-48833572D01*
X139828114Y-49935068D01*
X139830117Y-49938169D01*
X140531865Y-51061077D01*
X140533774Y-51064236D01*
X140818318Y-51551232D01*
X141199488Y-52203604D01*
X141201768Y-52207505D01*
X141203575Y-52210707D01*
X141255206Y-52305438D01*
X141837258Y-53373386D01*
X141838976Y-53376653D01*
X142437762Y-54557666D01*
X142439382Y-54560983D01*
X143002738Y-55759282D01*
X143004259Y-55762646D01*
X143531705Y-56977202D01*
X143533125Y-56980610D01*
X144024175Y-58210311D01*
X144025492Y-58213757D01*
X144319120Y-59017774D01*
X144479734Y-59457568D01*
X144480948Y-59461054D01*
X144897941Y-60717771D01*
X144899052Y-60721292D01*
X145278468Y-61989919D01*
X145279473Y-61993471D01*
X145620958Y-63272835D01*
X145621856Y-63276415D01*
X145925096Y-64565331D01*
X145925888Y-64568937D01*
X146190632Y-65866335D01*
X146191316Y-65869963D01*
X146417320Y-67174662D01*
X146417896Y-67178308D01*
X146604964Y-68489162D01*
X146605431Y-68492824D01*
X146753394Y-69808654D01*
X146753752Y-69812328D01*
X146801448Y-70391211D01*
X146851337Y-70996725D01*
X146861081Y-71114982D01*
X146861500Y-71125164D01*
X146861500Y-141098601D01*
X146861460Y-141101742D01*
X146842969Y-141831405D01*
X146842651Y-141837680D01*
X146787345Y-142563929D01*
X146786709Y-142570179D01*
X146694694Y-143292667D01*
X146693743Y-143298877D01*
X146565248Y-144015805D01*
X146563983Y-144021959D01*
X146399347Y-144731426D01*
X146397773Y-144737508D01*
X146197404Y-145437765D01*
X146195523Y-145443759D01*
X145959954Y-146132940D01*
X145957772Y-146138832D01*
X145687590Y-146815219D01*
X145685112Y-146820992D01*
X145381036Y-147482786D01*
X145378270Y-147488427D01*
X145041042Y-148134016D01*
X145037993Y-148139509D01*
X144668510Y-148767172D01*
X144665186Y-148772503D01*
X144264382Y-149380652D01*
X144260793Y-149385809D01*
X143829717Y-149972855D01*
X143825872Y-149977823D01*
X143365602Y-150542300D01*
X143361510Y-150547067D01*
X142873229Y-151087519D01*
X142868900Y-151092072D01*
X142353908Y-151607064D01*
X142349355Y-151611393D01*
X141808903Y-152099674D01*
X141804136Y-152103766D01*
X141239659Y-152564036D01*
X141234691Y-152567881D01*
X140647645Y-152998957D01*
X140642488Y-153002546D01*
X140034339Y-153403350D01*
X140029008Y-153406674D01*
X139401345Y-153776157D01*
X139395852Y-153779206D01*
X138750263Y-154116434D01*
X138744622Y-154119200D01*
X138082828Y-154423276D01*
X138077055Y-154425754D01*
X137400668Y-154695936D01*
X137394776Y-154698118D01*
X136705595Y-154933687D01*
X136699601Y-154935568D01*
X135999344Y-155135937D01*
X135993262Y-155137511D01*
X135283795Y-155302147D01*
X135277641Y-155303412D01*
X134560713Y-155431907D01*
X134554503Y-155432858D01*
X133832015Y-155524873D01*
X133825765Y-155525509D01*
X133099516Y-155580815D01*
X133093241Y-155581133D01*
X132363578Y-155599624D01*
X132360437Y-155599664D01*
X72363564Y-155599664D01*
X72360423Y-155599624D01*
X72344771Y-155599227D01*
X71630759Y-155581132D01*
X71624485Y-155580814D01*
X70898235Y-155525507D01*
X70891985Y-155524871D01*
X70169498Y-155432854D01*
X70163288Y-155431903D01*
X69446361Y-155303407D01*
X69440207Y-155302142D01*
X68730740Y-155137506D01*
X68724658Y-155135932D01*
X68024402Y-154935563D01*
X68018408Y-154933682D01*
X67329227Y-154698112D01*
X67323335Y-154695930D01*
X66646949Y-154425747D01*
X66641176Y-154423269D01*
X65979382Y-154119193D01*
X65973741Y-154116427D01*
X65328152Y-153779199D01*
X65322659Y-153776150D01*
X64694983Y-153406658D01*
X64689652Y-153403334D01*
X64081532Y-153002548D01*
X64076375Y-152998959D01*
X63489315Y-152567873D01*
X63484347Y-152564028D01*
X62919871Y-152103758D01*
X62915104Y-152099666D01*
X62374651Y-151611386D01*
X62370098Y-151607057D01*
X61855106Y-151092065D01*
X61850777Y-151087512D01*
X61362497Y-150547059D01*
X61358405Y-150542292D01*
X60898135Y-149977816D01*
X60894305Y-149972869D01*
X60750711Y-149777320D01*
X60750711Y-149777319D01*
X60463204Y-149385788D01*
X60459615Y-149380631D01*
X60058829Y-148772511D01*
X60055505Y-148767180D01*
X60055500Y-148767172D01*
X59733395Y-148219994D01*
X78748000Y-148219994D01*
X78748000Y-148452005D01*
X78748001Y-148452022D01*
X78778283Y-148682040D01*
X78778286Y-148682053D01*
X78838336Y-148906167D01*
X78927124Y-149120521D01*
X78927132Y-149120538D01*
X79043136Y-149321461D01*
X79043142Y-149321469D01*
X79102117Y-149398327D01*
X80035037Y-148465408D01*
X80052075Y-148528993D01*
X80117901Y-148643007D01*
X80210993Y-148736099D01*
X80325007Y-148801925D01*
X80388591Y-148818962D01*
X79455671Y-149751881D01*
X79532530Y-149810857D01*
X79532538Y-149810863D01*
X79733461Y-149926867D01*
X79733478Y-149926875D01*
X79947832Y-150015663D01*
X80171946Y-150075713D01*
X80171959Y-150075716D01*
X80401977Y-150105998D01*
X80401995Y-150106000D01*
X80634005Y-150106000D01*
X80634022Y-150105998D01*
X80864040Y-150075716D01*
X80864053Y-150075713D01*
X81088167Y-150015663D01*
X81302521Y-149926875D01*
X81302538Y-149926867D01*
X81503475Y-149810855D01*
X81580327Y-149751883D01*
X81580327Y-149751880D01*
X80647408Y-148818962D01*
X80710993Y-148801925D01*
X80825007Y-148736099D01*
X80918099Y-148643007D01*
X80983925Y-148528993D01*
X81000962Y-148465408D01*
X81933880Y-149398327D01*
X81933883Y-149398327D01*
X81992855Y-149321475D01*
X82108867Y-149120538D01*
X82108875Y-149120521D01*
X82197663Y-148906167D01*
X82257713Y-148682053D01*
X82257716Y-148682040D01*
X82287998Y-148452022D01*
X82288000Y-148452005D01*
X82288000Y-148219994D01*
X82287998Y-148219977D01*
X82257716Y-147989959D01*
X82257713Y-147989946D01*
X82197663Y-147765832D01*
X82108875Y-147551478D01*
X82108867Y-147551461D01*
X81992863Y-147350538D01*
X81992857Y-147350530D01*
X81933881Y-147273671D01*
X81000962Y-148206590D01*
X80983925Y-148143007D01*
X80918099Y-148028993D01*
X80825007Y-147935901D01*
X80710993Y-147870075D01*
X80647409Y-147853037D01*
X81580327Y-146920117D01*
X81503469Y-146861142D01*
X81503461Y-146861136D01*
X81302538Y-146745132D01*
X81302521Y-146745124D01*
X81088167Y-146656336D01*
X80864053Y-146596286D01*
X80864040Y-146596283D01*
X80634022Y-146566001D01*
X80634005Y-146566000D01*
X80401995Y-146566000D01*
X80401977Y-146566001D01*
X80171959Y-146596283D01*
X80171946Y-146596286D01*
X79947832Y-146656336D01*
X79733478Y-146745124D01*
X79733461Y-146745132D01*
X79532541Y-146861134D01*
X79532533Y-146861140D01*
X79455671Y-146920116D01*
X79455671Y-146920117D01*
X80388591Y-147853037D01*
X80325007Y-147870075D01*
X80210993Y-147935901D01*
X80117901Y-148028993D01*
X80052075Y-148143007D01*
X80035037Y-148206590D01*
X79102117Y-147273671D01*
X79102116Y-147273671D01*
X79043140Y-147350533D01*
X79043134Y-147350541D01*
X78927132Y-147551461D01*
X78927124Y-147551478D01*
X78838336Y-147765832D01*
X78778286Y-147989946D01*
X78778283Y-147989959D01*
X78748001Y-148219977D01*
X78748000Y-148219994D01*
X59733395Y-148219994D01*
X59686013Y-148139504D01*
X59682964Y-148134011D01*
X59345736Y-147488422D01*
X59342970Y-147482781D01*
X59130262Y-147019841D01*
X59057344Y-146861142D01*
X59038888Y-146820974D01*
X59036416Y-146815214D01*
X59008422Y-146745132D01*
X58766227Y-146138814D01*
X58764056Y-146132950D01*
X58528478Y-145443745D01*
X58526600Y-145437761D01*
X58326227Y-144737489D01*
X58324657Y-144731423D01*
X58307031Y-144655466D01*
X58160017Y-144021937D01*
X58158757Y-144015805D01*
X58081029Y-143582136D01*
X65485500Y-143582136D01*
X65485500Y-145977863D01*
X65485501Y-145977882D01*
X65491908Y-146037481D01*
X65542202Y-146172327D01*
X65542203Y-146172328D01*
X65542204Y-146172330D01*
X65628454Y-146287546D01*
X65743670Y-146373796D01*
X65743671Y-146373796D01*
X65743672Y-146373797D01*
X65878518Y-146424091D01*
X65878517Y-146424091D01*
X65885445Y-146424835D01*
X65938128Y-146430500D01*
X65938137Y-146430500D01*
X68333863Y-146430500D01*
X68333872Y-146430500D01*
X68393482Y-146424091D01*
X68528330Y-146373796D01*
X68643546Y-146287546D01*
X68729796Y-146172330D01*
X68780091Y-146037482D01*
X68786500Y-145977872D01*
X68786500Y-144655466D01*
X70236000Y-144655466D01*
X70236000Y-144904533D01*
X70268508Y-145151463D01*
X70332973Y-145392049D01*
X70428283Y-145622148D01*
X70428288Y-145622159D01*
X70552813Y-145837841D01*
X70552819Y-145837849D01*
X70627400Y-145935045D01*
X71534958Y-145027487D01*
X71559978Y-145087890D01*
X71631112Y-145194351D01*
X71721649Y-145284888D01*
X71828110Y-145356022D01*
X71888511Y-145381041D01*
X70980953Y-146288598D01*
X71078150Y-146363180D01*
X71078158Y-146363186D01*
X71293840Y-146487711D01*
X71293851Y-146487716D01*
X71523950Y-146583026D01*
X71764536Y-146647491D01*
X72011466Y-146680000D01*
X72260534Y-146680000D01*
X72507463Y-146647491D01*
X72748049Y-146583026D01*
X72978148Y-146487716D01*
X72978159Y-146487711D01*
X73193855Y-146363178D01*
X73291045Y-146288600D01*
X73291045Y-146288597D01*
X72383488Y-145381041D01*
X72443890Y-145356022D01*
X72550351Y-145284888D01*
X72640888Y-145194351D01*
X72712022Y-145087890D01*
X72737041Y-145027489D01*
X73644597Y-145935045D01*
X73644600Y-145935045D01*
X73719178Y-145837855D01*
X73843711Y-145622159D01*
X73843716Y-145622148D01*
X73939026Y-145392049D01*
X74003491Y-145151463D01*
X74036000Y-144904533D01*
X74036000Y-144655466D01*
X74003491Y-144408536D01*
X73939026Y-144167950D01*
X73843716Y-143937851D01*
X73843711Y-143937840D01*
X73719186Y-143722158D01*
X73719180Y-143722150D01*
X73644598Y-143624953D01*
X72737041Y-144532510D01*
X72712022Y-144472110D01*
X72640888Y-144365649D01*
X72550351Y-144275112D01*
X72443890Y-144203978D01*
X72383487Y-144178957D01*
X73291045Y-143271400D01*
X73193849Y-143196819D01*
X73193841Y-143196813D01*
X72978159Y-143072288D01*
X72978148Y-143072283D01*
X72748049Y-142976973D01*
X72507463Y-142912508D01*
X72260534Y-142880000D01*
X72011466Y-142880000D01*
X71764536Y-142912508D01*
X71523950Y-142976973D01*
X71293851Y-143072283D01*
X71293847Y-143072285D01*
X71078143Y-143196823D01*
X70980953Y-143271399D01*
X70980953Y-143271400D01*
X71888511Y-144178958D01*
X71828110Y-144203978D01*
X71721649Y-144275112D01*
X71631112Y-144365649D01*
X71559978Y-144472110D01*
X71534958Y-144532511D01*
X70627400Y-143624953D01*
X70627399Y-143624953D01*
X70552823Y-143722143D01*
X70428285Y-143937847D01*
X70428283Y-143937851D01*
X70332973Y-144167950D01*
X70268508Y-144408536D01*
X70236000Y-144655466D01*
X68786500Y-144655466D01*
X68786500Y-143582128D01*
X68780091Y-143522518D01*
X68729796Y-143387670D01*
X68643546Y-143272454D01*
X68528330Y-143186204D01*
X68528328Y-143186203D01*
X68528327Y-143186202D01*
X68393481Y-143135908D01*
X68393482Y-143135908D01*
X68333882Y-143129501D01*
X68333880Y-143129500D01*
X68333872Y-143129500D01*
X65938128Y-143129500D01*
X65938120Y-143129500D01*
X65938117Y-143129501D01*
X65878518Y-143135908D01*
X65743672Y-143186202D01*
X65743670Y-143186204D01*
X65628454Y-143272454D01*
X65542204Y-143387670D01*
X65542202Y-143387672D01*
X65491908Y-143522518D01*
X65485501Y-143582117D01*
X65485500Y-143582136D01*
X58081029Y-143582136D01*
X58030259Y-143298870D01*
X58029309Y-143292665D01*
X58017102Y-143196823D01*
X57937291Y-142570177D01*
X57936656Y-142563928D01*
X57881349Y-141837678D01*
X57881031Y-141831403D01*
X57862540Y-141101741D01*
X57862500Y-141098600D01*
X57862500Y-133821713D01*
X63673500Y-133821713D01*
X63673500Y-135334286D01*
X63699049Y-135495600D01*
X63706754Y-135544243D01*
X63765275Y-135724352D01*
X63772444Y-135746414D01*
X63868951Y-135935820D01*
X63993890Y-136107786D01*
X64144213Y-136258109D01*
X64316179Y-136383048D01*
X64316181Y-136383049D01*
X64316184Y-136383051D01*
X64505588Y-136479557D01*
X64707757Y-136545246D01*
X64917713Y-136578500D01*
X64917714Y-136578500D01*
X65130286Y-136578500D01*
X65130287Y-136578500D01*
X65340243Y-136545246D01*
X65542412Y-136479557D01*
X65731816Y-136383051D01*
X65753789Y-136367086D01*
X65903786Y-136258109D01*
X65903788Y-136258106D01*
X65903792Y-136258104D01*
X66054104Y-136107792D01*
X66078063Y-136074814D01*
X66133390Y-136032149D01*
X66203004Y-136026168D01*
X66247271Y-136044597D01*
X66276256Y-136063964D01*
X66276258Y-136063964D01*
X66276260Y-136063966D01*
X66276262Y-136063966D01*
X66276264Y-136063967D01*
X66349321Y-136078499D01*
X66349324Y-136078500D01*
X66349326Y-136078500D01*
X67898676Y-136078500D01*
X67898677Y-136078499D01*
X67971740Y-136063966D01*
X68054601Y-136008601D01*
X68109966Y-135925740D01*
X68124500Y-135852674D01*
X68124500Y-135791391D01*
X68144185Y-135724352D01*
X68196989Y-135678597D01*
X68266147Y-135668653D01*
X68329703Y-135697678D01*
X68344357Y-135712730D01*
X68346859Y-135715779D01*
X68346860Y-135715781D01*
X68346868Y-135715790D01*
X68486214Y-135855136D01*
X68486218Y-135855139D01*
X68650079Y-135964628D01*
X68650092Y-135964635D01*
X68832160Y-136040049D01*
X68832165Y-136040051D01*
X68832169Y-136040051D01*
X68832170Y-136040052D01*
X69025456Y-136078500D01*
X69025459Y-136078500D01*
X69222543Y-136078500D01*
X69352582Y-136052632D01*
X69415835Y-136040051D01*
X69597914Y-135964632D01*
X69761782Y-135855139D01*
X69901139Y-135715782D01*
X70010632Y-135551914D01*
X70010634Y-135551907D01*
X70013502Y-135546544D01*
X70015310Y-135547510D01*
X70053272Y-135500397D01*
X70119564Y-135478326D01*
X70187265Y-135495600D01*
X70234879Y-135546734D01*
X70236522Y-135550331D01*
X70237371Y-135551920D01*
X70346860Y-135715781D01*
X70346863Y-135715785D01*
X70486214Y-135855136D01*
X70486218Y-135855139D01*
X70650079Y-135964628D01*
X70650092Y-135964635D01*
X70832160Y-136040049D01*
X70832165Y-136040051D01*
X70832169Y-136040051D01*
X70832170Y-136040052D01*
X71025456Y-136078500D01*
X71025459Y-136078500D01*
X71222543Y-136078500D01*
X71352582Y-136052632D01*
X71415835Y-136040051D01*
X71597914Y-135964632D01*
X71761782Y-135855139D01*
X71817354Y-135799566D01*
X71878675Y-135766083D01*
X71948367Y-135771067D01*
X72004300Y-135812938D01*
X72015519Y-135830954D01*
X72027842Y-135855139D01*
X72063812Y-135925735D01*
X72068951Y-135935819D01*
X72193890Y-136107786D01*
X72344213Y-136258109D01*
X72516179Y-136383048D01*
X72516181Y-136383049D01*
X72516184Y-136383051D01*
X72705588Y-136479557D01*
X72907757Y-136545246D01*
X73117713Y-136578500D01*
X73117714Y-136578500D01*
X73330286Y-136578500D01*
X73330287Y-136578500D01*
X73540243Y-136545246D01*
X73742412Y-136479557D01*
X73931816Y-136383051D01*
X73953789Y-136367086D01*
X74103786Y-136258109D01*
X74103788Y-136258106D01*
X74103792Y-136258104D01*
X74254104Y-136107792D01*
X74254106Y-136107788D01*
X74254109Y-136107786D01*
X74379048Y-135935820D01*
X74379049Y-135935819D01*
X74379051Y-135935816D01*
X74475557Y-135746412D01*
X74541246Y-135544243D01*
X74574500Y-135334287D01*
X74574500Y-133821713D01*
X74541246Y-133611757D01*
X74475557Y-133409588D01*
X74379051Y-133220184D01*
X74379049Y-133220181D01*
X74379048Y-133220179D01*
X74254109Y-133048213D01*
X74103786Y-132897890D01*
X73931820Y-132772951D01*
X73742414Y-132676444D01*
X73742413Y-132676443D01*
X73742412Y-132676443D01*
X73540243Y-132610754D01*
X73540241Y-132610753D01*
X73540240Y-132610753D01*
X73378957Y-132585208D01*
X73330287Y-132577500D01*
X73117713Y-132577500D01*
X73069042Y-132585208D01*
X72907760Y-132610753D01*
X72705585Y-132676444D01*
X72516179Y-132772951D01*
X72344213Y-132897890D01*
X72193890Y-133048213D01*
X72068948Y-133220184D01*
X72068947Y-133220185D01*
X72015518Y-133325045D01*
X71967544Y-133375841D01*
X71899723Y-133392636D01*
X71833588Y-133370098D01*
X71817353Y-133356431D01*
X71761785Y-133300863D01*
X71761781Y-133300860D01*
X71597920Y-133191371D01*
X71597907Y-133191364D01*
X71415839Y-133115950D01*
X71415829Y-133115947D01*
X71222543Y-133077500D01*
X71222541Y-133077500D01*
X71025459Y-133077500D01*
X71025457Y-133077500D01*
X70832170Y-133115947D01*
X70832160Y-133115950D01*
X70650092Y-133191364D01*
X70650079Y-133191371D01*
X70486218Y-133300860D01*
X70486214Y-133300863D01*
X70346863Y-133440214D01*
X70346860Y-133440218D01*
X70237371Y-133604079D01*
X70234498Y-133609456D01*
X70232691Y-133608490D01*
X70194715Y-133655612D01*
X70128420Y-133677673D01*
X70060721Y-133660391D01*
X70013113Y-133609251D01*
X70011473Y-133605660D01*
X70010628Y-133604079D01*
X69901139Y-133440218D01*
X69901136Y-133440214D01*
X69761785Y-133300863D01*
X69761781Y-133300860D01*
X69597920Y-133191371D01*
X69597907Y-133191364D01*
X69415839Y-133115950D01*
X69415829Y-133115947D01*
X69222543Y-133077500D01*
X69222541Y-133077500D01*
X69025459Y-133077500D01*
X69025457Y-133077500D01*
X68832170Y-133115947D01*
X68832160Y-133115950D01*
X68650092Y-133191364D01*
X68650079Y-133191371D01*
X68486218Y-133300860D01*
X68486214Y-133300863D01*
X68346865Y-133440212D01*
X68344352Y-133443275D01*
X68342630Y-133444447D01*
X68342553Y-133444525D01*
X68342538Y-133444510D01*
X68286605Y-133482608D01*
X68216761Y-133484477D01*
X68156993Y-133448289D01*
X68126278Y-133385532D01*
X68124500Y-133364608D01*
X68124500Y-133303323D01*
X68124499Y-133303321D01*
X68109967Y-133230264D01*
X68109966Y-133230260D01*
X68103234Y-133220185D01*
X68054601Y-133147399D01*
X67971740Y-133092034D01*
X67971739Y-133092033D01*
X67971735Y-133092032D01*
X67898677Y-133077500D01*
X67898674Y-133077500D01*
X66349326Y-133077500D01*
X66349323Y-133077500D01*
X66276264Y-133092032D01*
X66276261Y-133092033D01*
X66247270Y-133111404D01*
X66180592Y-133132280D01*
X66113212Y-133113794D01*
X66078062Y-133081184D01*
X66054104Y-133048208D01*
X65903792Y-132897896D01*
X65903786Y-132897890D01*
X65731820Y-132772951D01*
X65542414Y-132676444D01*
X65542413Y-132676443D01*
X65542412Y-132676443D01*
X65340243Y-132610754D01*
X65340241Y-132610753D01*
X65340240Y-132610753D01*
X65178957Y-132585208D01*
X65130287Y-132577500D01*
X64917713Y-132577500D01*
X64869042Y-132585208D01*
X64707760Y-132610753D01*
X64505585Y-132676444D01*
X64316179Y-132772951D01*
X64144213Y-132897890D01*
X63993890Y-133048213D01*
X63868951Y-133220179D01*
X63772444Y-133409585D01*
X63706753Y-133611760D01*
X63673500Y-133821713D01*
X57862500Y-133821713D01*
X57862500Y-129261321D01*
X78997500Y-129261321D01*
X78997500Y-131850678D01*
X79012032Y-131923735D01*
X79012033Y-131923739D01*
X79012034Y-131923740D01*
X79067399Y-132006601D01*
X79150260Y-132061966D01*
X79150264Y-132061967D01*
X79223321Y-132076499D01*
X79223324Y-132076500D01*
X79223326Y-132076500D01*
X81812676Y-132076500D01*
X81812677Y-132076499D01*
X81885740Y-132061966D01*
X81968601Y-132006601D01*
X82023966Y-131923740D01*
X82023967Y-131923735D01*
X82028741Y-131899738D01*
X82028741Y-131899737D01*
X82038500Y-131850676D01*
X82038500Y-131430500D01*
X82058185Y-131363461D01*
X82110989Y-131317706D01*
X82162500Y-131306500D01*
X105483920Y-131306500D01*
X105581462Y-131287096D01*
X105628913Y-131277658D01*
X105765495Y-131221084D01*
X105814729Y-131188186D01*
X105888416Y-131138952D01*
X106587374Y-130439994D01*
X119388000Y-130439994D01*
X119388000Y-130672005D01*
X119388001Y-130672022D01*
X119418283Y-130902040D01*
X119418286Y-130902053D01*
X119478336Y-131126167D01*
X119567124Y-131340521D01*
X119567132Y-131340538D01*
X119683136Y-131541461D01*
X119683142Y-131541469D01*
X119742117Y-131618327D01*
X120675037Y-130685408D01*
X120692075Y-130748993D01*
X120757901Y-130863007D01*
X120850993Y-130956099D01*
X120965007Y-131021925D01*
X121028591Y-131038962D01*
X120095671Y-131971881D01*
X120172530Y-132030857D01*
X120172538Y-132030863D01*
X120373461Y-132146867D01*
X120373478Y-132146875D01*
X120587832Y-132235663D01*
X120811946Y-132295713D01*
X120811959Y-132295716D01*
X121041977Y-132325998D01*
X121041995Y-132326000D01*
X121274005Y-132326000D01*
X121274022Y-132325998D01*
X121504040Y-132295716D01*
X121504053Y-132295713D01*
X121728167Y-132235663D01*
X121942521Y-132146875D01*
X121942538Y-132146867D01*
X122143475Y-132030855D01*
X122220327Y-131971883D01*
X122220327Y-131971880D01*
X121287408Y-131038962D01*
X121350993Y-131021925D01*
X121465007Y-130956099D01*
X121558099Y-130863007D01*
X121623925Y-130748993D01*
X121640962Y-130685408D01*
X122573880Y-131618327D01*
X122573883Y-131618327D01*
X122632855Y-131541475D01*
X122748867Y-131340538D01*
X122748875Y-131340521D01*
X122837663Y-131126167D01*
X122897713Y-130902053D01*
X122897716Y-130902040D01*
X122927998Y-130672022D01*
X122928000Y-130672005D01*
X122928000Y-130439994D01*
X122927998Y-130439977D01*
X122897716Y-130209959D01*
X122897713Y-130209946D01*
X122837663Y-129985832D01*
X122748875Y-129771478D01*
X122748867Y-129771461D01*
X122632863Y-129570538D01*
X122632857Y-129570530D01*
X122573881Y-129493671D01*
X121640962Y-130426590D01*
X121623925Y-130363007D01*
X121558099Y-130248993D01*
X121465007Y-130155901D01*
X121350993Y-130090075D01*
X121287409Y-130073037D01*
X122220327Y-129140117D01*
X122143469Y-129081142D01*
X122143461Y-129081136D01*
X121942538Y-128965132D01*
X121942521Y-128965124D01*
X121728167Y-128876336D01*
X121504053Y-128816286D01*
X121504040Y-128816283D01*
X121274022Y-128786001D01*
X121274005Y-128786000D01*
X121041995Y-128786000D01*
X121041977Y-128786001D01*
X120811959Y-128816283D01*
X120811946Y-128816286D01*
X120587832Y-128876336D01*
X120373478Y-128965124D01*
X120373461Y-128965132D01*
X120172541Y-129081134D01*
X120172533Y-129081140D01*
X120095671Y-129140116D01*
X120095671Y-129140117D01*
X121028591Y-130073037D01*
X120965007Y-130090075D01*
X120850993Y-130155901D01*
X120757901Y-130248993D01*
X120692075Y-130363007D01*
X120675037Y-130426590D01*
X119742117Y-129493671D01*
X119742116Y-129493671D01*
X119683140Y-129570533D01*
X119683134Y-129570541D01*
X119567132Y-129771461D01*
X119567124Y-129771478D01*
X119478336Y-129985832D01*
X119418286Y-130209946D01*
X119418283Y-130209959D01*
X119388001Y-130439977D01*
X119388000Y-130439994D01*
X106587374Y-130439994D01*
X115467615Y-121559753D01*
X118538000Y-121559753D01*
X118538000Y-121772246D01*
X118571242Y-121982127D01*
X118571242Y-121982130D01*
X118636904Y-122184217D01*
X118733375Y-122373550D01*
X118772728Y-122427716D01*
X119405037Y-121795408D01*
X119422075Y-121858993D01*
X119487901Y-121973007D01*
X119580993Y-122066099D01*
X119695007Y-122131925D01*
X119758590Y-122148962D01*
X119126282Y-122781269D01*
X119126282Y-122781270D01*
X119180449Y-122820624D01*
X119369784Y-122917096D01*
X119468711Y-122949239D01*
X119526387Y-122988676D01*
X119553586Y-123053034D01*
X119541672Y-123121881D01*
X119494428Y-123173357D01*
X119468722Y-123185097D01*
X119467522Y-123185487D01*
X119465550Y-123186128D01*
X119311211Y-123264768D01*
X119231256Y-123322859D01*
X119171072Y-123366586D01*
X119171070Y-123366588D01*
X119171069Y-123366588D01*
X119048588Y-123489069D01*
X119048588Y-123489070D01*
X119048586Y-123489072D01*
X119004859Y-123549256D01*
X118946768Y-123629211D01*
X118868128Y-123783552D01*
X118814597Y-123948302D01*
X118787500Y-124119389D01*
X118787500Y-124292611D01*
X118814598Y-124463701D01*
X118868127Y-124628445D01*
X118946768Y-124782788D01*
X119048586Y-124922928D01*
X119171072Y-125045414D01*
X119311212Y-125147232D01*
X119465555Y-125225873D01*
X119630299Y-125279402D01*
X119801389Y-125306500D01*
X119801390Y-125306500D01*
X119974610Y-125306500D01*
X119974611Y-125306500D01*
X120145701Y-125279402D01*
X120310445Y-125225873D01*
X120464788Y-125147232D01*
X120604928Y-125045414D01*
X120727414Y-124922928D01*
X120829232Y-124782788D01*
X120907873Y-124628445D01*
X120961402Y-124463701D01*
X120988500Y-124292611D01*
X120988500Y-124119389D01*
X120961402Y-123948299D01*
X120907873Y-123783555D01*
X120829232Y-123629212D01*
X120727414Y-123489072D01*
X120604928Y-123366586D01*
X120464788Y-123264768D01*
X120310446Y-123186127D01*
X120307284Y-123185100D01*
X120306236Y-123184383D01*
X120305952Y-123184266D01*
X120305976Y-123184206D01*
X120249609Y-123145661D01*
X120222413Y-123081302D01*
X120234329Y-123012456D01*
X120281574Y-122960981D01*
X120307288Y-122949239D01*
X120406215Y-122917096D01*
X120595554Y-122820622D01*
X120649716Y-122781270D01*
X120649717Y-122781270D01*
X120017408Y-122148962D01*
X120080993Y-122131925D01*
X120195007Y-122066099D01*
X120288099Y-121973007D01*
X120353925Y-121858993D01*
X120370962Y-121795409D01*
X121003270Y-122427717D01*
X121003270Y-122427716D01*
X121042622Y-122373554D01*
X121139095Y-122184217D01*
X121204757Y-121982130D01*
X121204757Y-121982127D01*
X121238000Y-121772246D01*
X121238000Y-121559753D01*
X121204757Y-121349872D01*
X121204757Y-121349869D01*
X121139095Y-121147782D01*
X121042624Y-120958449D01*
X121003270Y-120904282D01*
X121003269Y-120904282D01*
X120370962Y-121536590D01*
X120353925Y-121473007D01*
X120288099Y-121358993D01*
X120195007Y-121265901D01*
X120080993Y-121200075D01*
X120017409Y-121183037D01*
X120649716Y-120550728D01*
X120595550Y-120511375D01*
X120406217Y-120414904D01*
X120307287Y-120382760D01*
X120249611Y-120343323D01*
X120222413Y-120278964D01*
X120234328Y-120210118D01*
X120281572Y-120158642D01*
X120307290Y-120146897D01*
X120310445Y-120145873D01*
X120464788Y-120067232D01*
X120604928Y-119965414D01*
X120727414Y-119842928D01*
X120829232Y-119702788D01*
X120907873Y-119548445D01*
X120961402Y-119383701D01*
X120988500Y-119212611D01*
X120988500Y-119039389D01*
X120961402Y-118868299D01*
X120907873Y-118703555D01*
X120829232Y-118549212D01*
X120727414Y-118409072D01*
X120604928Y-118286586D01*
X120464788Y-118184768D01*
X120367075Y-118134981D01*
X120310447Y-118106128D01*
X120310446Y-118106127D01*
X120310445Y-118106127D01*
X120145701Y-118052598D01*
X120145699Y-118052597D01*
X120145698Y-118052597D01*
X120014271Y-118031781D01*
X119974611Y-118025500D01*
X119801389Y-118025500D01*
X119761728Y-118031781D01*
X119630302Y-118052597D01*
X119465552Y-118106128D01*
X119311211Y-118184768D01*
X119253038Y-118227034D01*
X119171072Y-118286586D01*
X119171070Y-118286588D01*
X119171069Y-118286588D01*
X119048588Y-118409069D01*
X119048588Y-118409070D01*
X119048586Y-118409072D01*
X119027011Y-118438768D01*
X118946768Y-118549211D01*
X118868128Y-118703552D01*
X118814597Y-118868302D01*
X118800461Y-118957555D01*
X118787500Y-119039389D01*
X118787500Y-119212611D01*
X118814598Y-119383701D01*
X118868127Y-119548445D01*
X118946768Y-119702788D01*
X119048586Y-119842928D01*
X119171072Y-119965414D01*
X119311212Y-120067232D01*
X119465555Y-120145873D01*
X119468708Y-120146897D01*
X119469752Y-120147611D01*
X119470048Y-120147734D01*
X119470022Y-120147795D01*
X119526383Y-120186330D01*
X119553585Y-120250688D01*
X119541674Y-120319535D01*
X119494433Y-120371013D01*
X119468712Y-120382760D01*
X119369783Y-120414904D01*
X119180439Y-120511380D01*
X119126282Y-120550727D01*
X119126282Y-120550728D01*
X119758591Y-121183037D01*
X119695007Y-121200075D01*
X119580993Y-121265901D01*
X119487901Y-121358993D01*
X119422075Y-121473007D01*
X119405037Y-121536591D01*
X118772728Y-120904282D01*
X118772727Y-120904282D01*
X118733380Y-120958439D01*
X118636904Y-121147782D01*
X118571242Y-121349869D01*
X118571242Y-121349872D01*
X118538000Y-121559753D01*
X115467615Y-121559753D01*
X117372152Y-119655216D01*
X117421386Y-119581529D01*
X117454284Y-119532295D01*
X117510858Y-119395713D01*
X117539700Y-119250718D01*
X117539700Y-116499389D01*
X118787500Y-116499389D01*
X118787500Y-116672610D01*
X118814011Y-116840000D01*
X118814598Y-116843701D01*
X118868127Y-117008445D01*
X118946768Y-117162788D01*
X119048586Y-117302928D01*
X119171072Y-117425414D01*
X119311212Y-117527232D01*
X119465555Y-117605873D01*
X119630299Y-117659402D01*
X119801389Y-117686500D01*
X119801390Y-117686500D01*
X119974610Y-117686500D01*
X119974611Y-117686500D01*
X120145701Y-117659402D01*
X120310445Y-117605873D01*
X120464788Y-117527232D01*
X120604928Y-117425414D01*
X120727414Y-117302928D01*
X120829232Y-117162788D01*
X120907873Y-117008445D01*
X120961402Y-116843701D01*
X120988500Y-116672611D01*
X120988500Y-116499389D01*
X120961402Y-116328299D01*
X120907873Y-116163555D01*
X120829232Y-116009212D01*
X120727414Y-115869072D01*
X120604928Y-115746586D01*
X120464788Y-115644768D01*
X120310445Y-115566127D01*
X120145701Y-115512598D01*
X120145699Y-115512597D01*
X120145698Y-115512597D01*
X120014271Y-115491781D01*
X119974611Y-115485500D01*
X119801389Y-115485500D01*
X119761728Y-115491781D01*
X119630302Y-115512597D01*
X119465552Y-115566128D01*
X119311211Y-115644768D01*
X119246609Y-115691705D01*
X119171072Y-115746586D01*
X119171070Y-115746588D01*
X119171069Y-115746588D01*
X119048588Y-115869069D01*
X119048588Y-115869070D01*
X119048586Y-115869072D01*
X119027011Y-115898768D01*
X118946768Y-116009211D01*
X118868128Y-116163552D01*
X118814597Y-116328302D01*
X118787500Y-116499389D01*
X117539700Y-116499389D01*
X117539700Y-115973282D01*
X117539700Y-115973279D01*
X117510859Y-115828292D01*
X117510858Y-115828291D01*
X117510858Y-115828287D01*
X117510856Y-115828282D01*
X117454286Y-115691709D01*
X117454285Y-115691707D01*
X117450057Y-115685380D01*
X117421386Y-115642470D01*
X117421385Y-115642468D01*
X117372156Y-115568789D01*
X117372152Y-115568784D01*
X115894819Y-114091451D01*
X115861334Y-114030128D01*
X115858500Y-114003770D01*
X115858500Y-113962534D01*
X115858499Y-113962530D01*
X115857874Y-113959389D01*
X115818130Y-113759580D01*
X115738941Y-113568402D01*
X115623977Y-113396345D01*
X115623975Y-113396342D01*
X115477657Y-113250024D01*
X115391626Y-113192541D01*
X115305598Y-113135059D01*
X115232469Y-113104768D01*
X115114420Y-113055870D01*
X115114412Y-113055868D01*
X114911469Y-113015500D01*
X114911465Y-113015500D01*
X114704535Y-113015500D01*
X114704530Y-113015500D01*
X114501587Y-113055868D01*
X114501579Y-113055870D01*
X114310403Y-113135058D01*
X114138342Y-113250024D01*
X113992024Y-113396342D01*
X113877057Y-113568404D01*
X113875175Y-113572950D01*
X113831335Y-113627355D01*
X113765042Y-113649421D01*
X113760613Y-113649500D01*
X112202858Y-113649500D01*
X112135819Y-113629815D01*
X112102541Y-113598387D01*
X112091414Y-113583072D01*
X111968930Y-113460588D01*
X111968928Y-113460586D01*
X111828788Y-113358768D01*
X111674445Y-113280127D01*
X111509701Y-113226598D01*
X111509699Y-113226597D01*
X111509698Y-113226597D01*
X111378271Y-113205781D01*
X111338611Y-113199500D01*
X111165389Y-113199500D01*
X111125728Y-113205781D01*
X110994302Y-113226597D01*
X110829552Y-113280128D01*
X110675211Y-113358768D01*
X110623496Y-113396342D01*
X110535072Y-113460586D01*
X110535070Y-113460588D01*
X110535069Y-113460588D01*
X110412588Y-113583069D01*
X110412588Y-113583070D01*
X110412586Y-113583072D01*
X110378625Y-113629815D01*
X110310768Y-113723211D01*
X110232128Y-113877552D01*
X110178597Y-114042302D01*
X110151500Y-114213389D01*
X110151500Y-114386610D01*
X110164461Y-114468447D01*
X110178598Y-114557701D01*
X110232127Y-114722445D01*
X110310768Y-114876788D01*
X110412586Y-115016928D01*
X110535072Y-115139414D01*
X110675212Y-115241232D01*
X110829555Y-115319873D01*
X110832708Y-115320897D01*
X110833752Y-115321611D01*
X110834048Y-115321734D01*
X110834022Y-115321795D01*
X110890383Y-115360330D01*
X110917585Y-115424688D01*
X110905674Y-115493535D01*
X110858433Y-115545013D01*
X110832712Y-115556760D01*
X110733783Y-115588904D01*
X110544439Y-115685380D01*
X110490282Y-115724727D01*
X110490282Y-115724728D01*
X111122591Y-116357037D01*
X111059007Y-116374075D01*
X110944993Y-116439901D01*
X110851901Y-116532993D01*
X110786075Y-116647007D01*
X110769037Y-116710591D01*
X110136728Y-116078282D01*
X110136727Y-116078282D01*
X110097380Y-116132439D01*
X110000904Y-116321782D01*
X109935242Y-116523869D01*
X109935242Y-116523872D01*
X109902000Y-116733753D01*
X109902000Y-116946246D01*
X109935242Y-117156127D01*
X109935242Y-117156130D01*
X110000904Y-117358217D01*
X110097375Y-117547550D01*
X110136728Y-117601716D01*
X110769037Y-116969408D01*
X110786075Y-117032993D01*
X110851901Y-117147007D01*
X110944993Y-117240099D01*
X111059007Y-117305925D01*
X111122590Y-117322962D01*
X110490282Y-117955269D01*
X110490282Y-117955270D01*
X110544449Y-117994624D01*
X110733784Y-118091096D01*
X110832711Y-118123239D01*
X110890387Y-118162676D01*
X110917586Y-118227034D01*
X110905672Y-118295881D01*
X110858428Y-118347357D01*
X110832722Y-118359097D01*
X110831522Y-118359487D01*
X110829550Y-118360128D01*
X110675211Y-118438768D01*
X110595256Y-118496859D01*
X110535072Y-118540586D01*
X110535070Y-118540588D01*
X110535069Y-118540588D01*
X110412588Y-118663069D01*
X110412588Y-118663070D01*
X110412586Y-118663072D01*
X110383173Y-118703555D01*
X110310768Y-118803211D01*
X110232128Y-118957552D01*
X110178597Y-119122302D01*
X110151500Y-119293389D01*
X110151500Y-119466610D01*
X110164461Y-119548447D01*
X110178598Y-119637701D01*
X110232127Y-119802445D01*
X110310768Y-119956788D01*
X110412586Y-120096928D01*
X110535072Y-120219414D01*
X110675212Y-120321232D01*
X110829555Y-120399873D01*
X110994299Y-120453402D01*
X111165389Y-120480500D01*
X111165390Y-120480500D01*
X111338610Y-120480500D01*
X111338611Y-120480500D01*
X111509701Y-120453402D01*
X111674445Y-120399873D01*
X111828788Y-120321232D01*
X111968928Y-120219414D01*
X112091414Y-120096928D01*
X112193232Y-119956788D01*
X112271873Y-119802445D01*
X112325402Y-119637701D01*
X112352500Y-119466611D01*
X112352500Y-119293389D01*
X112325402Y-119122299D01*
X112271873Y-118957555D01*
X112193232Y-118803212D01*
X112091414Y-118663072D01*
X111968928Y-118540586D01*
X111828788Y-118438768D01*
X111770500Y-118409069D01*
X111674446Y-118360127D01*
X111671284Y-118359100D01*
X111670236Y-118358383D01*
X111669952Y-118358266D01*
X111669976Y-118358206D01*
X111613609Y-118319661D01*
X111586413Y-118255302D01*
X111598329Y-118186456D01*
X111645574Y-118134981D01*
X111671288Y-118123239D01*
X111770215Y-118091096D01*
X111959554Y-117994622D01*
X112013716Y-117955270D01*
X112013717Y-117955270D01*
X111381408Y-117322962D01*
X111444993Y-117305925D01*
X111559007Y-117240099D01*
X111652099Y-117147007D01*
X111717925Y-117032993D01*
X111734962Y-116969408D01*
X112367270Y-117601717D01*
X112367270Y-117601716D01*
X112406623Y-117547553D01*
X112409496Y-117541916D01*
X112409496Y-117541915D01*
X112503095Y-117358217D01*
X112568757Y-117156130D01*
X112568757Y-117156127D01*
X112602000Y-116946246D01*
X112602000Y-116733753D01*
X112568758Y-116523873D01*
X112560070Y-116497135D01*
X112560069Y-116497133D01*
X112503095Y-116321782D01*
X112406624Y-116132449D01*
X112367270Y-116078282D01*
X112367269Y-116078282D01*
X111734962Y-116710590D01*
X111717925Y-116647007D01*
X111652099Y-116532993D01*
X111559007Y-116439901D01*
X111444993Y-116374075D01*
X111381409Y-116357037D01*
X112013716Y-115724728D01*
X111959550Y-115685375D01*
X111770217Y-115588904D01*
X111671287Y-115556760D01*
X111613611Y-115517323D01*
X111586413Y-115452964D01*
X111598328Y-115384118D01*
X111645572Y-115332642D01*
X111671290Y-115320897D01*
X111674445Y-115319873D01*
X111828788Y-115241232D01*
X111968928Y-115139414D01*
X112091414Y-115016928D01*
X112102541Y-115001612D01*
X112157872Y-114958948D01*
X112202858Y-114950500D01*
X114203283Y-114950500D01*
X114270322Y-114970185D01*
X114272131Y-114971369D01*
X114310402Y-114996941D01*
X114492119Y-115072211D01*
X114546521Y-115116051D01*
X114568586Y-115182345D01*
X114551307Y-115250044D01*
X114500170Y-115297655D01*
X114482984Y-115304702D01*
X114308968Y-115361244D01*
X114126644Y-115454143D01*
X114082077Y-115486523D01*
X114082077Y-115486524D01*
X114761554Y-116166000D01*
X114755339Y-116166000D01*
X114653606Y-116193259D01*
X114562394Y-116245920D01*
X114487920Y-116320394D01*
X114435259Y-116411606D01*
X114408000Y-116513339D01*
X114408000Y-116519553D01*
X113728524Y-115840077D01*
X113728523Y-115840077D01*
X113696143Y-115884644D01*
X113603244Y-116066968D01*
X113540009Y-116261582D01*
X113508000Y-116463682D01*
X113508000Y-116668317D01*
X113540009Y-116870417D01*
X113603244Y-117065031D01*
X113696141Y-117247350D01*
X113696147Y-117247359D01*
X113728523Y-117291921D01*
X113728524Y-117291922D01*
X114408000Y-116612446D01*
X114408000Y-116618661D01*
X114435259Y-116720394D01*
X114487920Y-116811606D01*
X114562394Y-116886080D01*
X114653606Y-116938741D01*
X114755339Y-116966000D01*
X114761553Y-116966000D01*
X114082076Y-117645474D01*
X114126650Y-117677859D01*
X114308968Y-117770755D01*
X114503582Y-117833990D01*
X114705683Y-117866000D01*
X114910317Y-117866000D01*
X115112417Y-117833990D01*
X115307031Y-117770755D01*
X115489349Y-117677859D01*
X115533921Y-117645474D01*
X114854447Y-116966000D01*
X114860661Y-116966000D01*
X114962394Y-116938741D01*
X115053606Y-116886080D01*
X115128080Y-116811606D01*
X115180741Y-116720394D01*
X115208000Y-116618661D01*
X115208000Y-116612446D01*
X115887473Y-117291921D01*
X115904970Y-117290544D01*
X115973347Y-117304908D01*
X116023104Y-117353958D01*
X116038700Y-117414162D01*
X116038700Y-118814570D01*
X116019015Y-118881609D01*
X116002381Y-118902251D01*
X112497361Y-122407270D01*
X112436038Y-122440755D01*
X112366346Y-122435771D01*
X112310413Y-122393899D01*
X112285996Y-122328435D01*
X112291748Y-122281275D01*
X112325402Y-122177701D01*
X112352500Y-122006611D01*
X112352500Y-121833389D01*
X112325402Y-121662299D01*
X112271873Y-121497555D01*
X112193232Y-121343212D01*
X112091414Y-121203072D01*
X111968928Y-121080586D01*
X111828788Y-120978768D01*
X111674445Y-120900127D01*
X111509701Y-120846598D01*
X111509699Y-120846597D01*
X111509698Y-120846597D01*
X111378271Y-120825781D01*
X111338611Y-120819500D01*
X111165389Y-120819500D01*
X111125728Y-120825781D01*
X110994302Y-120846597D01*
X110829552Y-120900128D01*
X110675211Y-120978768D01*
X110595256Y-121036859D01*
X110535072Y-121080586D01*
X110535070Y-121080588D01*
X110535069Y-121080588D01*
X110412588Y-121203069D01*
X110412588Y-121203070D01*
X110412586Y-121203072D01*
X110368859Y-121263256D01*
X110310768Y-121343211D01*
X110232128Y-121497552D01*
X110178597Y-121662302D01*
X110151500Y-121833389D01*
X110151500Y-122006610D01*
X110176744Y-122166000D01*
X110178598Y-122177701D01*
X110232127Y-122342445D01*
X110310768Y-122496788D01*
X110412586Y-122636928D01*
X110535072Y-122759414D01*
X110675212Y-122861232D01*
X110829555Y-122939873D01*
X110994299Y-122993402D01*
X111165389Y-123020500D01*
X111165390Y-123020500D01*
X111338610Y-123020500D01*
X111338611Y-123020500D01*
X111509701Y-122993402D01*
X111613273Y-122959748D01*
X111683111Y-122957754D01*
X111742944Y-122993834D01*
X111773773Y-123056535D01*
X111765809Y-123125949D01*
X111739270Y-123165361D01*
X105135451Y-129769181D01*
X105074128Y-129802666D01*
X105047770Y-129805500D01*
X82162500Y-129805500D01*
X82095461Y-129785815D01*
X82049706Y-129733011D01*
X82038500Y-129681500D01*
X82038500Y-129261323D01*
X82038499Y-129261321D01*
X82023967Y-129188264D01*
X82023966Y-129188260D01*
X81991798Y-129140117D01*
X81968601Y-129105399D01*
X81885740Y-129050034D01*
X81885739Y-129050033D01*
X81885735Y-129050032D01*
X81812677Y-129035500D01*
X81812674Y-129035500D01*
X79223326Y-129035500D01*
X79223323Y-129035500D01*
X79150264Y-129050032D01*
X79150260Y-129050033D01*
X79067399Y-129105399D01*
X79012033Y-129188260D01*
X79012032Y-129188264D01*
X78997500Y-129261321D01*
X57862500Y-129261321D01*
X57862500Y-121559753D01*
X83486000Y-121559753D01*
X83486000Y-121772246D01*
X83519242Y-121982127D01*
X83519242Y-121982130D01*
X83584904Y-122184217D01*
X83681375Y-122373550D01*
X83720728Y-122427716D01*
X84353037Y-121795408D01*
X84370075Y-121858993D01*
X84435901Y-121973007D01*
X84528993Y-122066099D01*
X84643007Y-122131925D01*
X84706590Y-122148962D01*
X84074282Y-122781269D01*
X84074282Y-122781270D01*
X84128449Y-122820624D01*
X84317784Y-122917096D01*
X84416711Y-122949239D01*
X84474387Y-122988676D01*
X84501586Y-123053034D01*
X84489672Y-123121881D01*
X84442428Y-123173357D01*
X84416722Y-123185097D01*
X84415522Y-123185487D01*
X84413550Y-123186128D01*
X84259211Y-123264768D01*
X84179256Y-123322859D01*
X84119072Y-123366586D01*
X84119070Y-123366588D01*
X84119069Y-123366588D01*
X83996588Y-123489069D01*
X83996588Y-123489070D01*
X83996586Y-123489072D01*
X83952859Y-123549256D01*
X83894768Y-123629211D01*
X83816128Y-123783552D01*
X83762597Y-123948302D01*
X83735500Y-124119389D01*
X83735500Y-124292611D01*
X83762598Y-124463701D01*
X83816127Y-124628445D01*
X83894768Y-124782788D01*
X83996586Y-124922928D01*
X84119072Y-125045414D01*
X84259212Y-125147232D01*
X84413555Y-125225873D01*
X84578299Y-125279402D01*
X84749389Y-125306500D01*
X84749390Y-125306500D01*
X84922610Y-125306500D01*
X84922611Y-125306500D01*
X85093701Y-125279402D01*
X85258445Y-125225873D01*
X85412788Y-125147232D01*
X85552928Y-125045414D01*
X85675414Y-124922928D01*
X85777232Y-124782788D01*
X85855873Y-124628445D01*
X85909402Y-124463701D01*
X85936500Y-124292611D01*
X85936500Y-124119389D01*
X85909402Y-123948299D01*
X85855873Y-123783555D01*
X85777232Y-123629212D01*
X85675414Y-123489072D01*
X85552928Y-123366586D01*
X85412788Y-123264768D01*
X85258446Y-123186127D01*
X85255284Y-123185100D01*
X85254236Y-123184383D01*
X85253952Y-123184266D01*
X85253976Y-123184206D01*
X85197609Y-123145661D01*
X85170413Y-123081302D01*
X85182329Y-123012456D01*
X85229574Y-122960981D01*
X85255288Y-122949239D01*
X85354215Y-122917096D01*
X85543554Y-122820622D01*
X85597716Y-122781270D01*
X85597717Y-122781270D01*
X84965408Y-122148962D01*
X85028993Y-122131925D01*
X85143007Y-122066099D01*
X85236099Y-121973007D01*
X85301925Y-121858993D01*
X85318962Y-121795408D01*
X85951270Y-122427717D01*
X85951270Y-122427716D01*
X85990622Y-122373554D01*
X86087095Y-122184217D01*
X86152757Y-121982130D01*
X86152757Y-121982127D01*
X86176316Y-121833389D01*
X92117500Y-121833389D01*
X92117500Y-122006610D01*
X92142744Y-122166000D01*
X92144598Y-122177701D01*
X92198127Y-122342445D01*
X92276768Y-122496788D01*
X92378586Y-122636928D01*
X92501072Y-122759414D01*
X92641212Y-122861232D01*
X92795555Y-122939873D01*
X92960299Y-122993402D01*
X93131389Y-123020500D01*
X93131390Y-123020500D01*
X93304610Y-123020500D01*
X93304611Y-123020500D01*
X93475701Y-122993402D01*
X93640445Y-122939873D01*
X93794788Y-122861232D01*
X93934928Y-122759414D01*
X94057414Y-122636928D01*
X94159232Y-122496788D01*
X94237873Y-122342445D01*
X94291402Y-122177701D01*
X94318500Y-122006611D01*
X94318500Y-121833389D01*
X94291402Y-121662299D01*
X94237873Y-121497555D01*
X94159232Y-121343212D01*
X94057414Y-121203072D01*
X93934928Y-121080586D01*
X93794788Y-120978768D01*
X93640445Y-120900127D01*
X93475701Y-120846598D01*
X93475699Y-120846597D01*
X93475698Y-120846597D01*
X93344271Y-120825781D01*
X93304611Y-120819500D01*
X93131389Y-120819500D01*
X93091728Y-120825781D01*
X92960302Y-120846597D01*
X92795552Y-120900128D01*
X92641211Y-120978768D01*
X92561256Y-121036859D01*
X92501072Y-121080586D01*
X92501070Y-121080588D01*
X92501069Y-121080588D01*
X92378588Y-121203069D01*
X92378588Y-121203070D01*
X92378586Y-121203072D01*
X92334859Y-121263256D01*
X92276768Y-121343211D01*
X92198128Y-121497552D01*
X92144597Y-121662302D01*
X92117500Y-121833389D01*
X86176316Y-121833389D01*
X86180160Y-121809119D01*
X86186000Y-121772246D01*
X86186000Y-121559753D01*
X86152757Y-121349872D01*
X86152757Y-121349869D01*
X86087095Y-121147782D01*
X85990624Y-120958449D01*
X85951270Y-120904282D01*
X85951269Y-120904282D01*
X85318962Y-121536590D01*
X85301925Y-121473007D01*
X85236099Y-121358993D01*
X85143007Y-121265901D01*
X85028993Y-121200075D01*
X84965409Y-121183037D01*
X85597716Y-120550728D01*
X85543550Y-120511375D01*
X85354217Y-120414904D01*
X85255287Y-120382760D01*
X85197611Y-120343323D01*
X85170413Y-120278964D01*
X85182328Y-120210118D01*
X85229572Y-120158642D01*
X85255290Y-120146897D01*
X85258445Y-120145873D01*
X85412788Y-120067232D01*
X85552928Y-119965414D01*
X85675414Y-119842928D01*
X85777232Y-119702788D01*
X85855873Y-119548445D01*
X85909402Y-119383701D01*
X85923706Y-119293389D01*
X92117500Y-119293389D01*
X92117500Y-119466610D01*
X92130461Y-119548447D01*
X92144598Y-119637701D01*
X92198127Y-119802445D01*
X92276768Y-119956788D01*
X92378586Y-120096928D01*
X92501072Y-120219414D01*
X92641212Y-120321232D01*
X92795555Y-120399873D01*
X92960299Y-120453402D01*
X93131389Y-120480500D01*
X93131390Y-120480500D01*
X93304610Y-120480500D01*
X93304611Y-120480500D01*
X93475701Y-120453402D01*
X93640445Y-120399873D01*
X93794788Y-120321232D01*
X93934928Y-120219414D01*
X94057414Y-120096928D01*
X94159232Y-119956788D01*
X94237873Y-119802445D01*
X94291402Y-119637701D01*
X94318500Y-119466611D01*
X94318500Y-119293389D01*
X94291402Y-119122299D01*
X94237873Y-118957555D01*
X94159232Y-118803212D01*
X94057414Y-118663072D01*
X93934928Y-118540586D01*
X93794788Y-118438768D01*
X93640445Y-118360127D01*
X93475701Y-118306598D01*
X93475699Y-118306597D01*
X93475698Y-118306597D01*
X93344271Y-118285781D01*
X93304611Y-118279500D01*
X93131389Y-118279500D01*
X93091728Y-118285781D01*
X92960302Y-118306597D01*
X92960299Y-118306598D01*
X92800923Y-118358383D01*
X92795552Y-118360128D01*
X92641211Y-118438768D01*
X92561256Y-118496859D01*
X92501072Y-118540586D01*
X92501070Y-118540588D01*
X92501069Y-118540588D01*
X92378588Y-118663069D01*
X92378588Y-118663070D01*
X92378586Y-118663072D01*
X92349173Y-118703555D01*
X92276768Y-118803211D01*
X92198128Y-118957552D01*
X92144597Y-119122302D01*
X92117500Y-119293389D01*
X85923706Y-119293389D01*
X85936500Y-119212611D01*
X85936500Y-119039389D01*
X85909402Y-118868299D01*
X85855873Y-118703555D01*
X85777232Y-118549212D01*
X85675414Y-118409072D01*
X85552928Y-118286586D01*
X85412788Y-118184768D01*
X85315075Y-118134981D01*
X85258447Y-118106128D01*
X85258446Y-118106127D01*
X85258445Y-118106127D01*
X85093701Y-118052598D01*
X85093699Y-118052597D01*
X85093698Y-118052597D01*
X84962271Y-118031781D01*
X84922611Y-118025500D01*
X84749389Y-118025500D01*
X84709728Y-118031781D01*
X84578302Y-118052597D01*
X84413552Y-118106128D01*
X84259211Y-118184768D01*
X84201038Y-118227034D01*
X84119072Y-118286586D01*
X84119070Y-118286588D01*
X84119069Y-118286588D01*
X83996588Y-118409069D01*
X83996588Y-118409070D01*
X83996586Y-118409072D01*
X83975011Y-118438768D01*
X83894768Y-118549211D01*
X83816128Y-118703552D01*
X83762597Y-118868302D01*
X83748461Y-118957555D01*
X83735500Y-119039389D01*
X83735500Y-119212611D01*
X83762598Y-119383701D01*
X83816127Y-119548445D01*
X83894768Y-119702788D01*
X83996586Y-119842928D01*
X84119072Y-119965414D01*
X84259212Y-120067232D01*
X84413555Y-120145873D01*
X84416708Y-120146897D01*
X84417752Y-120147611D01*
X84418048Y-120147734D01*
X84418022Y-120147795D01*
X84474383Y-120186330D01*
X84501585Y-120250688D01*
X84489674Y-120319535D01*
X84442433Y-120371013D01*
X84416712Y-120382760D01*
X84317783Y-120414904D01*
X84128439Y-120511380D01*
X84074282Y-120550727D01*
X84074282Y-120550728D01*
X84706591Y-121183037D01*
X84643007Y-121200075D01*
X84528993Y-121265901D01*
X84435901Y-121358993D01*
X84370075Y-121473007D01*
X84353037Y-121536591D01*
X83720728Y-120904282D01*
X83720727Y-120904282D01*
X83681380Y-120958439D01*
X83584904Y-121147782D01*
X83519242Y-121349869D01*
X83519242Y-121349872D01*
X83486000Y-121559753D01*
X57862500Y-121559753D01*
X57862500Y-116499389D01*
X83735500Y-116499389D01*
X83735500Y-116672610D01*
X83762011Y-116840000D01*
X83762598Y-116843701D01*
X83816127Y-117008445D01*
X83894768Y-117162788D01*
X83996586Y-117302928D01*
X84119072Y-117425414D01*
X84259212Y-117527232D01*
X84413555Y-117605873D01*
X84578299Y-117659402D01*
X84749389Y-117686500D01*
X84749390Y-117686500D01*
X84922610Y-117686500D01*
X84922611Y-117686500D01*
X85093701Y-117659402D01*
X85258445Y-117605873D01*
X85412788Y-117527232D01*
X85552928Y-117425414D01*
X85675414Y-117302928D01*
X85777232Y-117162788D01*
X85855873Y-117008445D01*
X85909402Y-116843701D01*
X85923706Y-116753389D01*
X92117500Y-116753389D01*
X92117500Y-116926610D01*
X92139423Y-117065031D01*
X92144598Y-117097701D01*
X92198127Y-117262445D01*
X92276768Y-117416788D01*
X92378586Y-117556928D01*
X92501072Y-117679414D01*
X92641212Y-117781232D01*
X92795555Y-117859873D01*
X92960299Y-117913402D01*
X93131389Y-117940500D01*
X93131390Y-117940500D01*
X93304610Y-117940500D01*
X93304611Y-117940500D01*
X93475701Y-117913402D01*
X93640445Y-117859873D01*
X93794788Y-117781232D01*
X93934928Y-117679414D01*
X94057414Y-117556928D01*
X94159232Y-117416788D01*
X94237873Y-117262445D01*
X94291402Y-117097701D01*
X94318500Y-116926611D01*
X94318500Y-116753389D01*
X94291402Y-116582299D01*
X94237873Y-116417555D01*
X94159232Y-116263212D01*
X94057414Y-116123072D01*
X93934928Y-116000586D01*
X93794788Y-115898768D01*
X93640445Y-115820127D01*
X93475701Y-115766598D01*
X93475699Y-115766597D01*
X93475698Y-115766597D01*
X93344271Y-115745781D01*
X93304611Y-115739500D01*
X93131389Y-115739500D01*
X93091728Y-115745781D01*
X92960302Y-115766597D01*
X92795552Y-115820128D01*
X92641211Y-115898768D01*
X92561256Y-115956859D01*
X92501072Y-116000586D01*
X92501070Y-116000588D01*
X92501069Y-116000588D01*
X92378588Y-116123069D01*
X92378588Y-116123070D01*
X92378586Y-116123072D01*
X92349173Y-116163555D01*
X92276768Y-116263211D01*
X92198128Y-116417552D01*
X92144597Y-116582302D01*
X92117500Y-116753389D01*
X85923706Y-116753389D01*
X85936500Y-116672611D01*
X85936500Y-116499389D01*
X85909402Y-116328299D01*
X85855873Y-116163555D01*
X85777232Y-116009212D01*
X85675414Y-115869072D01*
X85552928Y-115746586D01*
X85412788Y-115644768D01*
X85258445Y-115566127D01*
X85093701Y-115512598D01*
X85093699Y-115512597D01*
X85093698Y-115512597D01*
X84962271Y-115491781D01*
X84922611Y-115485500D01*
X84749389Y-115485500D01*
X84709728Y-115491781D01*
X84578302Y-115512597D01*
X84413552Y-115566128D01*
X84259211Y-115644768D01*
X84194609Y-115691705D01*
X84119072Y-115746586D01*
X84119070Y-115746588D01*
X84119069Y-115746588D01*
X83996588Y-115869069D01*
X83996588Y-115869070D01*
X83996586Y-115869072D01*
X83975011Y-115898768D01*
X83894768Y-116009211D01*
X83816128Y-116163552D01*
X83762597Y-116328302D01*
X83735500Y-116499389D01*
X57862500Y-116499389D01*
X57862500Y-113959389D01*
X83735500Y-113959389D01*
X83735500Y-114132611D01*
X83762598Y-114303701D01*
X83816127Y-114468445D01*
X83894768Y-114622788D01*
X83996586Y-114762928D01*
X84119072Y-114885414D01*
X84259212Y-114987232D01*
X84413555Y-115065873D01*
X84578299Y-115119402D01*
X84749389Y-115146500D01*
X84749390Y-115146500D01*
X84922610Y-115146500D01*
X84922611Y-115146500D01*
X85093701Y-115119402D01*
X85258445Y-115065873D01*
X85412788Y-114987232D01*
X85552928Y-114885414D01*
X85675414Y-114762928D01*
X85777232Y-114622788D01*
X85855873Y-114468445D01*
X85909402Y-114303701D01*
X85936500Y-114132611D01*
X85936500Y-113959389D01*
X85909402Y-113788299D01*
X85855873Y-113623555D01*
X85777232Y-113469212D01*
X85675414Y-113329072D01*
X85552928Y-113206586D01*
X85412788Y-113104768D01*
X85258445Y-113026127D01*
X85093701Y-112972598D01*
X85093699Y-112972597D01*
X85093698Y-112972597D01*
X84958479Y-112951181D01*
X84922611Y-112945500D01*
X84749389Y-112945500D01*
X84713521Y-112951181D01*
X84578302Y-112972597D01*
X84413552Y-113026128D01*
X84259211Y-113104768D01*
X84217520Y-113135059D01*
X84119072Y-113206586D01*
X84119070Y-113206588D01*
X84119069Y-113206588D01*
X83996588Y-113329069D01*
X83996588Y-113329070D01*
X83996586Y-113329072D01*
X83977340Y-113355562D01*
X83894768Y-113469211D01*
X83816128Y-113623552D01*
X83762597Y-113788302D01*
X83748461Y-113877555D01*
X83735500Y-113959389D01*
X57862500Y-113959389D01*
X57862500Y-110631321D01*
X83735500Y-110631321D01*
X83735500Y-112380678D01*
X83750032Y-112453735D01*
X83750033Y-112453739D01*
X83750034Y-112453740D01*
X83805399Y-112536601D01*
X83888260Y-112591966D01*
X83888264Y-112591967D01*
X83961321Y-112606499D01*
X83961324Y-112606500D01*
X83961326Y-112606500D01*
X85710676Y-112606500D01*
X85710677Y-112606499D01*
X85783740Y-112591966D01*
X85866601Y-112536601D01*
X85921966Y-112453740D01*
X85936500Y-112380674D01*
X85936500Y-110631326D01*
X85936500Y-110631323D01*
X85936499Y-110631321D01*
X85921967Y-110558264D01*
X85921966Y-110558260D01*
X85914253Y-110546717D01*
X85866601Y-110475399D01*
X85783740Y-110420034D01*
X85783739Y-110420033D01*
X85783735Y-110420032D01*
X85710677Y-110405500D01*
X85710674Y-110405500D01*
X83961326Y-110405500D01*
X83961323Y-110405500D01*
X83888264Y-110420032D01*
X83888260Y-110420033D01*
X83805399Y-110475399D01*
X83750033Y-110558260D01*
X83750032Y-110558264D01*
X83735500Y-110631321D01*
X57862500Y-110631321D01*
X57862500Y-102196328D01*
X74431900Y-102196328D01*
X74431900Y-107139669D01*
X74437396Y-107167297D01*
X74449914Y-107230227D01*
X74456899Y-107265343D01*
X74505935Y-107383726D01*
X74572327Y-107483090D01*
X74577126Y-107490272D01*
X74577127Y-107490273D01*
X75621181Y-108534326D01*
X75654666Y-108595649D01*
X75657500Y-108622007D01*
X75657500Y-108804668D01*
X75697868Y-109007611D01*
X75697870Y-109007619D01*
X75766788Y-109174002D01*
X75777059Y-109198797D01*
X75778998Y-109201699D01*
X75892024Y-109370856D01*
X76038342Y-109517174D01*
X76038345Y-109517176D01*
X76210402Y-109632140D01*
X76401580Y-109711329D01*
X76604530Y-109751698D01*
X76604534Y-109751699D01*
X76604535Y-109751699D01*
X76811466Y-109751699D01*
X76811467Y-109751698D01*
X77014420Y-109711329D01*
X77205598Y-109632140D01*
X77377655Y-109517176D01*
X77523977Y-109370854D01*
X77600180Y-109256807D01*
X77653790Y-109212004D01*
X77703281Y-109201699D01*
X80555291Y-109201699D01*
X80555293Y-109201699D01*
X80682587Y-109167591D01*
X80796715Y-109101699D01*
X80847127Y-109051286D01*
X80908447Y-109017802D01*
X80936141Y-109016200D01*
X80936141Y-109015100D01*
X81109768Y-109015100D01*
X81109769Y-109015099D01*
X81274082Y-108982416D01*
X81428863Y-108918303D01*
X81568162Y-108825226D01*
X81611439Y-108781949D01*
X81690934Y-108702455D01*
X81692716Y-108704237D01*
X81741342Y-108671106D01*
X81779465Y-108665100D01*
X83904290Y-108665100D01*
X83904292Y-108665100D01*
X84031586Y-108630992D01*
X84145714Y-108565100D01*
X84365493Y-108345321D01*
X92117500Y-108345321D01*
X92117500Y-110094678D01*
X92132032Y-110167735D01*
X92132033Y-110167739D01*
X92132034Y-110167740D01*
X92187399Y-110250601D01*
X92270260Y-110305966D01*
X92270264Y-110305967D01*
X92343321Y-110320499D01*
X92343324Y-110320500D01*
X92343326Y-110320500D01*
X94092676Y-110320500D01*
X94092677Y-110320499D01*
X94165740Y-110305966D01*
X94248601Y-110250601D01*
X94303966Y-110167740D01*
X94318500Y-110094674D01*
X94318500Y-108345326D01*
X94318500Y-108345323D01*
X94318499Y-108345321D01*
X94303967Y-108272264D01*
X94303966Y-108272260D01*
X94290130Y-108251553D01*
X94248601Y-108189399D01*
X94183034Y-108145589D01*
X94165739Y-108134033D01*
X94165735Y-108134032D01*
X94092677Y-108119500D01*
X94092674Y-108119500D01*
X92343326Y-108119500D01*
X92343323Y-108119500D01*
X92270264Y-108134032D01*
X92270260Y-108134033D01*
X92187399Y-108189399D01*
X92132033Y-108272260D01*
X92132032Y-108272264D01*
X92117500Y-108345321D01*
X84365493Y-108345321D01*
X86739499Y-105971315D01*
X86805392Y-105857186D01*
X86839500Y-105729893D01*
X86839500Y-105598108D01*
X86839500Y-104498500D01*
X86859185Y-104431461D01*
X86911989Y-104385706D01*
X86963500Y-104374500D01*
X87363676Y-104374500D01*
X87363677Y-104374499D01*
X87436740Y-104359966D01*
X87519601Y-104304601D01*
X87574966Y-104221740D01*
X87589500Y-104148674D01*
X87589500Y-104097857D01*
X87592384Y-104084720D01*
X87602979Y-104065403D01*
X87609185Y-104044269D01*
X87625819Y-104023627D01*
X88387871Y-103261574D01*
X88403755Y-103320853D01*
X88470898Y-103437147D01*
X88565853Y-103532102D01*
X88682147Y-103599245D01*
X88741425Y-103615128D01*
X88009893Y-104346658D01*
X88092828Y-104406914D01*
X88303197Y-104514102D01*
X88527752Y-104587065D01*
X88527751Y-104587065D01*
X88760948Y-104624000D01*
X88997052Y-104624000D01*
X89230247Y-104587065D01*
X89454802Y-104514102D01*
X89665163Y-104406918D01*
X89665169Y-104406914D01*
X89748104Y-104346658D01*
X89748105Y-104346658D01*
X89016574Y-103615128D01*
X89075853Y-103599245D01*
X89192147Y-103532102D01*
X89287102Y-103437147D01*
X89354245Y-103320853D01*
X89370128Y-103261575D01*
X90101658Y-103993105D01*
X90101658Y-103993104D01*
X90161914Y-103910169D01*
X90161918Y-103910164D01*
X90186527Y-103861865D01*
X90234501Y-103811068D01*
X90302322Y-103794272D01*
X90368457Y-103816808D01*
X90397330Y-103845272D01*
X90444482Y-103910169D01*
X90465172Y-103938646D01*
X90604354Y-104077828D01*
X90763595Y-104193524D01*
X90841048Y-104232988D01*
X90938970Y-104282882D01*
X90938972Y-104282882D01*
X90938975Y-104282884D01*
X91005810Y-104304600D01*
X91126173Y-104343709D01*
X91320578Y-104374500D01*
X91320583Y-104374500D01*
X91517422Y-104374500D01*
X91711826Y-104343709D01*
X91899025Y-104282884D01*
X92074405Y-104193524D01*
X92233646Y-104077828D01*
X92372828Y-103938646D01*
X92488524Y-103779405D01*
X92577884Y-103604025D01*
X92578515Y-103602787D01*
X92626489Y-103551990D01*
X92694310Y-103535195D01*
X92760445Y-103557732D01*
X92799485Y-103602787D01*
X92889474Y-103779403D01*
X92916651Y-103816808D01*
X93005172Y-103938646D01*
X93144354Y-104077828D01*
X93303595Y-104193524D01*
X93381048Y-104232988D01*
X93478970Y-104282882D01*
X93478972Y-104282882D01*
X93478975Y-104282884D01*
X93545810Y-104304600D01*
X93666173Y-104343709D01*
X93860578Y-104374500D01*
X93860583Y-104374500D01*
X94057422Y-104374500D01*
X94251826Y-104343709D01*
X94439025Y-104282884D01*
X94614405Y-104193524D01*
X94773646Y-104077828D01*
X94912828Y-103938646D01*
X95028524Y-103779405D01*
X95117884Y-103604025D01*
X95118515Y-103602787D01*
X95166489Y-103551990D01*
X95234310Y-103535195D01*
X95300445Y-103557732D01*
X95339485Y-103602787D01*
X95429474Y-103779403D01*
X95456651Y-103816808D01*
X95545172Y-103938646D01*
X95684354Y-104077828D01*
X95843595Y-104193524D01*
X95921048Y-104232988D01*
X96018970Y-104282882D01*
X96018972Y-104282882D01*
X96018975Y-104282884D01*
X96085810Y-104304600D01*
X96206173Y-104343709D01*
X96400578Y-104374500D01*
X96400583Y-104374500D01*
X96597422Y-104374500D01*
X96791826Y-104343709D01*
X96979025Y-104282884D01*
X97154405Y-104193524D01*
X97313646Y-104077828D01*
X97452828Y-103938646D01*
X97568524Y-103779405D01*
X97657884Y-103604025D01*
X97658515Y-103602787D01*
X97706489Y-103551990D01*
X97774310Y-103535195D01*
X97840445Y-103557732D01*
X97879485Y-103602787D01*
X97969474Y-103779403D01*
X97996651Y-103816808D01*
X98085172Y-103938646D01*
X98224354Y-104077828D01*
X98383595Y-104193524D01*
X98461048Y-104232988D01*
X98558970Y-104282882D01*
X98558972Y-104282882D01*
X98558975Y-104282884D01*
X98625810Y-104304600D01*
X98746173Y-104343709D01*
X98940578Y-104374500D01*
X98940583Y-104374500D01*
X99137422Y-104374500D01*
X99331826Y-104343709D01*
X99519025Y-104282884D01*
X99694405Y-104193524D01*
X99853646Y-104077828D01*
X99992828Y-103938646D01*
X100108524Y-103779405D01*
X100197884Y-103604025D01*
X100198515Y-103602787D01*
X100246489Y-103551990D01*
X100314310Y-103535195D01*
X100380445Y-103557732D01*
X100419485Y-103602787D01*
X100509474Y-103779403D01*
X100536651Y-103816808D01*
X100625172Y-103938646D01*
X100764354Y-104077828D01*
X100923595Y-104193524D01*
X101001048Y-104232988D01*
X101098970Y-104282882D01*
X101098972Y-104282882D01*
X101098975Y-104282884D01*
X101165810Y-104304600D01*
X101286173Y-104343709D01*
X101480578Y-104374500D01*
X101480583Y-104374500D01*
X101677422Y-104374500D01*
X101871826Y-104343709D01*
X102059025Y-104282884D01*
X102234405Y-104193524D01*
X102393646Y-104077828D01*
X102532828Y-103938646D01*
X102648524Y-103779405D01*
X102737884Y-103604025D01*
X102738515Y-103602787D01*
X102786489Y-103551990D01*
X102854310Y-103535195D01*
X102920445Y-103557732D01*
X102959485Y-103602787D01*
X103049474Y-103779403D01*
X103076651Y-103816808D01*
X103165172Y-103938646D01*
X103304354Y-104077828D01*
X103463595Y-104193524D01*
X103541048Y-104232988D01*
X103638970Y-104282882D01*
X103638972Y-104282882D01*
X103638975Y-104282884D01*
X103705810Y-104304600D01*
X103826173Y-104343709D01*
X104020578Y-104374500D01*
X104020583Y-104374500D01*
X104217422Y-104374500D01*
X104411826Y-104343709D01*
X104599025Y-104282884D01*
X104774405Y-104193524D01*
X104933646Y-104077828D01*
X105072828Y-103938646D01*
X105188524Y-103779405D01*
X105277884Y-103604025D01*
X105278515Y-103602787D01*
X105326489Y-103551990D01*
X105394310Y-103535195D01*
X105460445Y-103557732D01*
X105499485Y-103602787D01*
X105589474Y-103779403D01*
X105616651Y-103816808D01*
X105705172Y-103938646D01*
X105844354Y-104077828D01*
X106003595Y-104193524D01*
X106081048Y-104232988D01*
X106178970Y-104282882D01*
X106178972Y-104282882D01*
X106178975Y-104282884D01*
X106245810Y-104304600D01*
X106366173Y-104343709D01*
X106560578Y-104374500D01*
X106560583Y-104374500D01*
X106757422Y-104374500D01*
X106951826Y-104343709D01*
X107139025Y-104282884D01*
X107314405Y-104193524D01*
X107473646Y-104077828D01*
X107612828Y-103938646D01*
X107728524Y-103779405D01*
X107817884Y-103604025D01*
X107818515Y-103602787D01*
X107866489Y-103551990D01*
X107934310Y-103535195D01*
X108000445Y-103557732D01*
X108039485Y-103602787D01*
X108129474Y-103779403D01*
X108156651Y-103816808D01*
X108245172Y-103938646D01*
X108384354Y-104077828D01*
X108543595Y-104193524D01*
X108621048Y-104232988D01*
X108718970Y-104282882D01*
X108718972Y-104282882D01*
X108718975Y-104282884D01*
X108785810Y-104304600D01*
X108906173Y-104343709D01*
X109100578Y-104374500D01*
X109100583Y-104374500D01*
X109297422Y-104374500D01*
X109491826Y-104343709D01*
X109679025Y-104282884D01*
X109735931Y-104253888D01*
X109804600Y-104240992D01*
X109869341Y-104267268D01*
X109909599Y-104324374D01*
X109912591Y-104394179D01*
X109879908Y-104452054D01*
X109663609Y-104668354D01*
X109602286Y-104701839D01*
X109575928Y-104704673D01*
X101677191Y-104704673D01*
X101581690Y-104730262D01*
X101581687Y-104730263D01*
X101496067Y-104779695D01*
X101496062Y-104779699D01*
X100135082Y-106140681D01*
X100073759Y-106174166D01*
X100047401Y-106177000D01*
X100021680Y-106177000D01*
X99973928Y-106189795D01*
X99973927Y-106189794D01*
X99926179Y-106202589D01*
X99926178Y-106202589D01*
X99840551Y-106252027D01*
X99404526Y-106688052D01*
X99365785Y-106755151D01*
X99320402Y-106800534D01*
X99280689Y-106823463D01*
X99280680Y-106823470D01*
X98844655Y-107259495D01*
X98795219Y-107345120D01*
X98790913Y-107361193D01*
X98790911Y-107361199D01*
X98784674Y-107384474D01*
X98748308Y-107444134D01*
X98696996Y-107472152D01*
X98656180Y-107483089D01*
X98656175Y-107483091D01*
X98570552Y-107532526D01*
X98209071Y-107894007D01*
X98209066Y-107894012D01*
X98204438Y-107898641D01*
X98134525Y-107968554D01*
X98098826Y-108030384D01*
X98092724Y-108037933D01*
X98076491Y-108049166D01*
X98058293Y-108067365D01*
X98004869Y-108098210D01*
X98004866Y-108098213D01*
X97568839Y-108534239D01*
X97519402Y-108619866D01*
X97514799Y-108637045D01*
X97514799Y-108637049D01*
X97496076Y-108706924D01*
X97496074Y-108706931D01*
X97493813Y-108715367D01*
X97493813Y-108730587D01*
X97474128Y-108797626D01*
X97457494Y-108818268D01*
X94529397Y-111746364D01*
X94468074Y-111779849D01*
X94398382Y-111774865D01*
X94342449Y-111732993D01*
X94319243Y-111678081D01*
X94314051Y-111645300D01*
X94291402Y-111502299D01*
X94237873Y-111337555D01*
X94159232Y-111183212D01*
X94057414Y-111043072D01*
X93934928Y-110920586D01*
X93794788Y-110818768D01*
X93640445Y-110740127D01*
X93475701Y-110686598D01*
X93475699Y-110686597D01*
X93475698Y-110686597D01*
X93344271Y-110665781D01*
X93304611Y-110659500D01*
X93131389Y-110659500D01*
X93091728Y-110665781D01*
X92960302Y-110686597D01*
X92795552Y-110740128D01*
X92641211Y-110818768D01*
X92561256Y-110876859D01*
X92501072Y-110920586D01*
X92501070Y-110920588D01*
X92501069Y-110920588D01*
X92378588Y-111043069D01*
X92378588Y-111043070D01*
X92378586Y-111043072D01*
X92367487Y-111058349D01*
X92276768Y-111183211D01*
X92198128Y-111337552D01*
X92144597Y-111502302D01*
X92117500Y-111673389D01*
X92117500Y-111846610D01*
X92138323Y-111978086D01*
X92144598Y-112017701D01*
X92198127Y-112182445D01*
X92276768Y-112336788D01*
X92378586Y-112476928D01*
X92378588Y-112476930D01*
X92439477Y-112537819D01*
X92472962Y-112599142D01*
X92467978Y-112668834D01*
X92426106Y-112724767D01*
X92360642Y-112749184D01*
X92351796Y-112749500D01*
X91803564Y-112749500D01*
X91755812Y-112762295D01*
X91755811Y-112762294D01*
X91708063Y-112775089D01*
X91708062Y-112775089D01*
X91644646Y-112811703D01*
X91633425Y-112818182D01*
X91622435Y-112824527D01*
X91495782Y-112951181D01*
X91434459Y-112984666D01*
X91408101Y-112987500D01*
X91367525Y-112987500D01*
X91263029Y-113015500D01*
X91227511Y-113025017D01*
X91101988Y-113097488D01*
X91101982Y-113097493D01*
X90999493Y-113199982D01*
X90999488Y-113199988D01*
X90927017Y-113325511D01*
X90927016Y-113325515D01*
X90889500Y-113465525D01*
X90889500Y-113610475D01*
X90897987Y-113642147D01*
X90927017Y-113750488D01*
X90999488Y-113876011D01*
X90999490Y-113876013D01*
X90999491Y-113876015D01*
X91101985Y-113978509D01*
X91101986Y-113978510D01*
X91101988Y-113978511D01*
X91227511Y-114050982D01*
X91227512Y-114050982D01*
X91227515Y-114050984D01*
X91367525Y-114088500D01*
X91367528Y-114088500D01*
X91512472Y-114088500D01*
X91512475Y-114088500D01*
X91652485Y-114050984D01*
X91778015Y-113978509D01*
X91880509Y-113876015D01*
X91952984Y-113750485D01*
X91990500Y-113610475D01*
X91990500Y-113610461D01*
X91990783Y-113608317D01*
X91991094Y-113607613D01*
X91990985Y-113606853D01*
X91992158Y-113604284D01*
X91992603Y-113602624D01*
X91992882Y-113602698D01*
X92005200Y-113575724D01*
X92019049Y-113544420D01*
X92019690Y-113543996D01*
X92020010Y-113543297D01*
X92048811Y-113524787D01*
X92077372Y-113505948D01*
X92078356Y-113505800D01*
X92078788Y-113505523D01*
X92113723Y-113500500D01*
X92195214Y-113500500D01*
X92262253Y-113520185D01*
X92308008Y-113572989D01*
X92317952Y-113642147D01*
X92295532Y-113697386D01*
X92276768Y-113723211D01*
X92198128Y-113877552D01*
X92144597Y-114042302D01*
X92117500Y-114213389D01*
X92117500Y-114386610D01*
X92130461Y-114468447D01*
X92144598Y-114557701D01*
X92198127Y-114722445D01*
X92276768Y-114876788D01*
X92378586Y-115016928D01*
X92501072Y-115139414D01*
X92641212Y-115241232D01*
X92795555Y-115319873D01*
X92960299Y-115373402D01*
X93131389Y-115400500D01*
X93131390Y-115400500D01*
X93304610Y-115400500D01*
X93304611Y-115400500D01*
X93475701Y-115373402D01*
X93640445Y-115319873D01*
X93794788Y-115241232D01*
X93934928Y-115139414D01*
X94057414Y-115016928D01*
X94159232Y-114876788D01*
X94237873Y-114722445D01*
X94291402Y-114557701D01*
X94318500Y-114386611D01*
X94318500Y-114213389D01*
X94291402Y-114042299D01*
X94237873Y-113877555D01*
X94159232Y-113723212D01*
X94057414Y-113583072D01*
X93993771Y-113519429D01*
X93989434Y-113511486D01*
X93982187Y-113506062D01*
X93972949Y-113481297D01*
X93960286Y-113458106D01*
X93960931Y-113449079D01*
X93957768Y-113440598D01*
X93963384Y-113414774D01*
X93965270Y-113388414D01*
X93971087Y-113379361D01*
X93972618Y-113372325D01*
X93993763Y-113344077D01*
X93993768Y-113344070D01*
X94024995Y-113312840D01*
X97927290Y-109410546D01*
X97988611Y-109377063D01*
X98058303Y-109382047D01*
X98102650Y-109410548D01*
X98156298Y-109464196D01*
X98156299Y-109464197D01*
X98156301Y-109464198D01*
X98281824Y-109536669D01*
X98281825Y-109536669D01*
X98281828Y-109536671D01*
X98421838Y-109574187D01*
X98497769Y-109574187D01*
X98564808Y-109593872D01*
X98585450Y-109610506D01*
X100507413Y-111532469D01*
X100507414Y-111532470D01*
X100507416Y-111532471D01*
X100535182Y-111548501D01*
X100535184Y-111548503D01*
X100535185Y-111548503D01*
X100587338Y-111578614D01*
X100676482Y-111602500D01*
X103152614Y-111602500D01*
X103219653Y-111622185D01*
X103240295Y-111638819D01*
X103293985Y-111692509D01*
X103293986Y-111692510D01*
X103293988Y-111692511D01*
X103419511Y-111764982D01*
X103419512Y-111764982D01*
X103419515Y-111764984D01*
X103559525Y-111802500D01*
X103559528Y-111802500D01*
X103704472Y-111802500D01*
X103704475Y-111802500D01*
X103844485Y-111764984D01*
X103970015Y-111692509D01*
X103989135Y-111673389D01*
X110151500Y-111673389D01*
X110151500Y-111846610D01*
X110172323Y-111978086D01*
X110178598Y-112017701D01*
X110232127Y-112182445D01*
X110310768Y-112336788D01*
X110412586Y-112476928D01*
X110535072Y-112599414D01*
X110675212Y-112701232D01*
X110829555Y-112779873D01*
X110994299Y-112833402D01*
X111165389Y-112860500D01*
X111165390Y-112860500D01*
X111338610Y-112860500D01*
X111338611Y-112860500D01*
X111509701Y-112833402D01*
X111674445Y-112779873D01*
X111828788Y-112701232D01*
X111968928Y-112599414D01*
X112091414Y-112476928D01*
X112193232Y-112336788D01*
X112271873Y-112182445D01*
X112325402Y-112017701D01*
X112352500Y-111846611D01*
X112352500Y-111673389D01*
X112325402Y-111502299D01*
X112271873Y-111337555D01*
X112193232Y-111183212D01*
X112091414Y-111043072D01*
X111968928Y-110920586D01*
X111828788Y-110818768D01*
X111674445Y-110740127D01*
X111509701Y-110686598D01*
X111509699Y-110686597D01*
X111509698Y-110686597D01*
X111378271Y-110665781D01*
X111338611Y-110659500D01*
X111165389Y-110659500D01*
X111125728Y-110665781D01*
X110994302Y-110686597D01*
X110829552Y-110740128D01*
X110675211Y-110818768D01*
X110595256Y-110876859D01*
X110535072Y-110920586D01*
X110535070Y-110920588D01*
X110535069Y-110920588D01*
X110412588Y-111043069D01*
X110412588Y-111043070D01*
X110412586Y-111043072D01*
X110401487Y-111058349D01*
X110310768Y-111183211D01*
X110232128Y-111337552D01*
X110178597Y-111502302D01*
X110151500Y-111673389D01*
X103989135Y-111673389D01*
X104072509Y-111590015D01*
X104144984Y-111464485D01*
X104182500Y-111324475D01*
X104182500Y-111179525D01*
X104182500Y-111171398D01*
X104183801Y-111171398D01*
X104193280Y-111110606D01*
X104239659Y-111058349D01*
X104306927Y-111039463D01*
X104321432Y-111040500D01*
X104321525Y-111040500D01*
X104466472Y-111040500D01*
X104466475Y-111040500D01*
X104606485Y-111002984D01*
X104732015Y-110930509D01*
X104834509Y-110828015D01*
X104906984Y-110702485D01*
X104944500Y-110562475D01*
X104944500Y-110417525D01*
X104906984Y-110277515D01*
X104892621Y-110252638D01*
X104834511Y-110151988D01*
X104834506Y-110151982D01*
X104771206Y-110088682D01*
X104737721Y-110027359D01*
X104742705Y-109957667D01*
X104771202Y-109913324D01*
X104834509Y-109850018D01*
X104906984Y-109724488D01*
X104944500Y-109584478D01*
X104944500Y-109439528D01*
X104906984Y-109299518D01*
X104834515Y-109173998D01*
X104818043Y-109106102D01*
X104834516Y-109050002D01*
X104906984Y-108924485D01*
X104944500Y-108784475D01*
X104944500Y-108639525D01*
X104906984Y-108499515D01*
X104834509Y-108373985D01*
X104805845Y-108345321D01*
X110151500Y-108345321D01*
X110151500Y-110094678D01*
X110166032Y-110167735D01*
X110166033Y-110167739D01*
X110166034Y-110167740D01*
X110221399Y-110250601D01*
X110304260Y-110305966D01*
X110304264Y-110305967D01*
X110377321Y-110320499D01*
X110377324Y-110320500D01*
X110377326Y-110320500D01*
X112126676Y-110320500D01*
X112126677Y-110320499D01*
X112199740Y-110305966D01*
X112282601Y-110250601D01*
X112337966Y-110167740D01*
X112352500Y-110094674D01*
X112352500Y-108345326D01*
X112352500Y-108345323D01*
X112352499Y-108345321D01*
X112337967Y-108272264D01*
X112337966Y-108272260D01*
X112324130Y-108251553D01*
X112282601Y-108189399D01*
X112217034Y-108145589D01*
X112199739Y-108134033D01*
X112199735Y-108134032D01*
X112126677Y-108119500D01*
X112126674Y-108119500D01*
X110377326Y-108119500D01*
X110377323Y-108119500D01*
X110304264Y-108134032D01*
X110304260Y-108134033D01*
X110221399Y-108189399D01*
X110166033Y-108272260D01*
X110166032Y-108272264D01*
X110151500Y-108345321D01*
X104805845Y-108345321D01*
X104732015Y-108271491D01*
X104732013Y-108271490D01*
X104732011Y-108271488D01*
X104606488Y-108199017D01*
X104606489Y-108199017D01*
X104570594Y-108189399D01*
X104466475Y-108161500D01*
X104321525Y-108161500D01*
X104217406Y-108189399D01*
X104181511Y-108199017D01*
X104055988Y-108271488D01*
X104055982Y-108271493D01*
X104002295Y-108325181D01*
X103940972Y-108358666D01*
X103914614Y-108361500D01*
X102061044Y-108361500D01*
X101994005Y-108341815D01*
X101973363Y-108325181D01*
X100916819Y-107268637D01*
X100883334Y-107207314D01*
X100880500Y-107180956D01*
X100880500Y-107105027D01*
X100880500Y-107105025D01*
X100842984Y-106965015D01*
X100842744Y-106964600D01*
X100770511Y-106839488D01*
X100770506Y-106839482D01*
X100722111Y-106791087D01*
X100688626Y-106729764D01*
X100693610Y-106660072D01*
X100722111Y-106615725D01*
X100952793Y-106385044D01*
X101845846Y-105491992D01*
X101907169Y-105458507D01*
X101933527Y-105455673D01*
X109832262Y-105455673D01*
X109832263Y-105455673D01*
X109880013Y-105442878D01*
X109927765Y-105430083D01*
X110013389Y-105380648D01*
X110083302Y-105310735D01*
X111097345Y-104296690D01*
X111158666Y-104263207D01*
X111228357Y-104268191D01*
X111241319Y-104273888D01*
X111258970Y-104282882D01*
X111258972Y-104282882D01*
X111258975Y-104282884D01*
X111325810Y-104304600D01*
X111446173Y-104343709D01*
X111640578Y-104374500D01*
X111640583Y-104374500D01*
X111837422Y-104374500D01*
X112031826Y-104343709D01*
X112219025Y-104282884D01*
X112394405Y-104193524D01*
X112553646Y-104077828D01*
X112692828Y-103938646D01*
X112808524Y-103779405D01*
X112897884Y-103604025D01*
X112898515Y-103602787D01*
X112946489Y-103551990D01*
X113014310Y-103535195D01*
X113080445Y-103557732D01*
X113119485Y-103602787D01*
X113209474Y-103779403D01*
X113236651Y-103816808D01*
X113325172Y-103938646D01*
X113464354Y-104077828D01*
X113623595Y-104193524D01*
X113701048Y-104232988D01*
X113798970Y-104282882D01*
X113798972Y-104282882D01*
X113798975Y-104282884D01*
X113865810Y-104304600D01*
X113986173Y-104343709D01*
X114180578Y-104374500D01*
X114180583Y-104374500D01*
X114377422Y-104374500D01*
X114571826Y-104343709D01*
X114759025Y-104282884D01*
X114934405Y-104193524D01*
X115093646Y-104077828D01*
X115232828Y-103938646D01*
X115348524Y-103779405D01*
X115437884Y-103604025D01*
X115438515Y-103602787D01*
X115486489Y-103551990D01*
X115554310Y-103535195D01*
X115620445Y-103557732D01*
X115659485Y-103602787D01*
X115749474Y-103779403D01*
X115776651Y-103816808D01*
X115865172Y-103938646D01*
X116004354Y-104077828D01*
X116163595Y-104193524D01*
X116241048Y-104232988D01*
X116338970Y-104282882D01*
X116338972Y-104282882D01*
X116338975Y-104282884D01*
X116405810Y-104304600D01*
X116526173Y-104343709D01*
X116720578Y-104374500D01*
X116720583Y-104374500D01*
X116917422Y-104374500D01*
X117111826Y-104343709D01*
X117299025Y-104282884D01*
X117474405Y-104193524D01*
X117633646Y-104077828D01*
X117772828Y-103938646D01*
X117888524Y-103779405D01*
X117977884Y-103604025D01*
X117978515Y-103602787D01*
X118026489Y-103551990D01*
X118094310Y-103535195D01*
X118160445Y-103557732D01*
X118199485Y-103602787D01*
X118289474Y-103779403D01*
X118316651Y-103816808D01*
X118405172Y-103938646D01*
X118544354Y-104077828D01*
X118703595Y-104193524D01*
X118781048Y-104232988D01*
X118878970Y-104282882D01*
X118878972Y-104282882D01*
X118878975Y-104282884D01*
X118945810Y-104304600D01*
X119066173Y-104343709D01*
X119260578Y-104374500D01*
X119260583Y-104374500D01*
X119457422Y-104374500D01*
X119651826Y-104343709D01*
X119839025Y-104282884D01*
X120014405Y-104193524D01*
X120173646Y-104077828D01*
X120312828Y-103938646D01*
X120428524Y-103779405D01*
X120517884Y-103604025D01*
X120518515Y-103602787D01*
X120566489Y-103551990D01*
X120634310Y-103535195D01*
X120700445Y-103557732D01*
X120739485Y-103602787D01*
X120829474Y-103779403D01*
X120856651Y-103816808D01*
X120945172Y-103938646D01*
X121084354Y-104077828D01*
X121243595Y-104193524D01*
X121321048Y-104232988D01*
X121418970Y-104282882D01*
X121418972Y-104282882D01*
X121418975Y-104282884D01*
X121485810Y-104304600D01*
X121606173Y-104343709D01*
X121800578Y-104374500D01*
X121800583Y-104374500D01*
X121997422Y-104374500D01*
X122191826Y-104343709D01*
X122379025Y-104282884D01*
X122554405Y-104193524D01*
X122713646Y-104077828D01*
X122852828Y-103938646D01*
X122968524Y-103779405D01*
X123057884Y-103604025D01*
X123118709Y-103416826D01*
X123149500Y-103222422D01*
X123149500Y-103025577D01*
X123118709Y-102831173D01*
X123072925Y-102690267D01*
X123057884Y-102643975D01*
X123057881Y-102643971D01*
X123057881Y-102643968D01*
X123056625Y-102641503D01*
X123056624Y-102641502D01*
X123042611Y-102614000D01*
X123030004Y-102589258D01*
X123578500Y-102589258D01*
X123578500Y-102818741D01*
X123592773Y-102927147D01*
X123608452Y-103046238D01*
X123655660Y-103222422D01*
X123667842Y-103267887D01*
X123755650Y-103479876D01*
X123755657Y-103479890D01*
X123870392Y-103678617D01*
X124010081Y-103860661D01*
X124010089Y-103860670D01*
X124172330Y-104022911D01*
X124172338Y-104022918D01*
X124354382Y-104162607D01*
X124354385Y-104162608D01*
X124354388Y-104162611D01*
X124553112Y-104277344D01*
X124553117Y-104277346D01*
X124553123Y-104277349D01*
X124618916Y-104304601D01*
X124765113Y-104365158D01*
X124986762Y-104424548D01*
X125214266Y-104454500D01*
X125214273Y-104454500D01*
X125443727Y-104454500D01*
X125443734Y-104454500D01*
X125671238Y-104424548D01*
X125892887Y-104365158D01*
X126104888Y-104277344D01*
X126303612Y-104162611D01*
X126485661Y-104022919D01*
X126485665Y-104022914D01*
X126485670Y-104022911D01*
X126647911Y-103860670D01*
X126647914Y-103860665D01*
X126647919Y-103860661D01*
X126787611Y-103678612D01*
X126902344Y-103479888D01*
X126990158Y-103267887D01*
X127049548Y-103046238D01*
X127079500Y-102818734D01*
X127079500Y-102589266D01*
X127049548Y-102361762D01*
X126990158Y-102140113D01*
X126902344Y-101928112D01*
X126787611Y-101729388D01*
X126787608Y-101729385D01*
X126787607Y-101729382D01*
X126647918Y-101547338D01*
X126647911Y-101547330D01*
X126485670Y-101385089D01*
X126485661Y-101385081D01*
X126303617Y-101245392D01*
X126104890Y-101130657D01*
X126104876Y-101130650D01*
X125892887Y-101042842D01*
X125671238Y-100983452D01*
X125633215Y-100978446D01*
X125443741Y-100953500D01*
X125443734Y-100953500D01*
X125214266Y-100953500D01*
X125214258Y-100953500D01*
X124997715Y-100982009D01*
X124986762Y-100983452D01*
X124893076Y-101008554D01*
X124765112Y-101042842D01*
X124553123Y-101130650D01*
X124553109Y-101130657D01*
X124354382Y-101245392D01*
X124172338Y-101385081D01*
X124010081Y-101547338D01*
X123870392Y-101729382D01*
X123755657Y-101928109D01*
X123755650Y-101928123D01*
X123667842Y-102140112D01*
X123645265Y-102224373D01*
X123614865Y-102337830D01*
X123608453Y-102361759D01*
X123608451Y-102361770D01*
X123578500Y-102589258D01*
X123030004Y-102589258D01*
X122968524Y-102468595D01*
X122852828Y-102309354D01*
X122713646Y-102170172D01*
X122554405Y-102054476D01*
X122379029Y-101965117D01*
X122191826Y-101904290D01*
X121997422Y-101873500D01*
X121997417Y-101873500D01*
X121800583Y-101873500D01*
X121800578Y-101873500D01*
X121606173Y-101904290D01*
X121418970Y-101965117D01*
X121243594Y-102054476D01*
X121152741Y-102120485D01*
X121084354Y-102170172D01*
X121084352Y-102170174D01*
X121084351Y-102170174D01*
X120945174Y-102309351D01*
X120945174Y-102309352D01*
X120945172Y-102309354D01*
X120924483Y-102337830D01*
X120829476Y-102468594D01*
X120739485Y-102645213D01*
X120691511Y-102696009D01*
X120623690Y-102712804D01*
X120557555Y-102690267D01*
X120518515Y-102645213D01*
X120428523Y-102468594D01*
X120416010Y-102451371D01*
X120312828Y-102309354D01*
X120173646Y-102170172D01*
X120014405Y-102054476D01*
X119839029Y-101965117D01*
X119651826Y-101904290D01*
X119457422Y-101873500D01*
X119457417Y-101873500D01*
X119260583Y-101873500D01*
X119260578Y-101873500D01*
X119066173Y-101904290D01*
X118878970Y-101965117D01*
X118703594Y-102054476D01*
X118612741Y-102120485D01*
X118544354Y-102170172D01*
X118544352Y-102170174D01*
X118544351Y-102170174D01*
X118405174Y-102309351D01*
X118405174Y-102309352D01*
X118405172Y-102309354D01*
X118384483Y-102337830D01*
X118289476Y-102468594D01*
X118199485Y-102645213D01*
X118151511Y-102696009D01*
X118083690Y-102712804D01*
X118017555Y-102690267D01*
X117978515Y-102645213D01*
X117888523Y-102468594D01*
X117876010Y-102451371D01*
X117772828Y-102309354D01*
X117633646Y-102170172D01*
X117474405Y-102054476D01*
X117299029Y-101965117D01*
X117111826Y-101904290D01*
X116917422Y-101873500D01*
X116917417Y-101873500D01*
X116720583Y-101873500D01*
X116720578Y-101873500D01*
X116526173Y-101904290D01*
X116338970Y-101965117D01*
X116163594Y-102054476D01*
X116072741Y-102120485D01*
X116004354Y-102170172D01*
X116004352Y-102170174D01*
X116004351Y-102170174D01*
X115865174Y-102309351D01*
X115865174Y-102309352D01*
X115865172Y-102309354D01*
X115844483Y-102337830D01*
X115749476Y-102468594D01*
X115659485Y-102645213D01*
X115611511Y-102696009D01*
X115543690Y-102712804D01*
X115477555Y-102690267D01*
X115438515Y-102645213D01*
X115348523Y-102468594D01*
X115336010Y-102451371D01*
X115232828Y-102309354D01*
X115093646Y-102170172D01*
X114934405Y-102054476D01*
X114759029Y-101965117D01*
X114571826Y-101904290D01*
X114377422Y-101873500D01*
X114377417Y-101873500D01*
X114180583Y-101873500D01*
X114180578Y-101873500D01*
X113986173Y-101904290D01*
X113798970Y-101965117D01*
X113623594Y-102054476D01*
X113532741Y-102120485D01*
X113464354Y-102170172D01*
X113464352Y-102170174D01*
X113464351Y-102170174D01*
X113325174Y-102309351D01*
X113325174Y-102309352D01*
X113325172Y-102309354D01*
X113304483Y-102337830D01*
X113209476Y-102468594D01*
X113119485Y-102645213D01*
X113071511Y-102696009D01*
X113003690Y-102712804D01*
X112937555Y-102690267D01*
X112898515Y-102645213D01*
X112808523Y-102468594D01*
X112796010Y-102451371D01*
X112692828Y-102309354D01*
X112553646Y-102170172D01*
X112394405Y-102054476D01*
X112219029Y-101965117D01*
X112031826Y-101904290D01*
X111837422Y-101873500D01*
X111837417Y-101873500D01*
X111640583Y-101873500D01*
X111640578Y-101873500D01*
X111446173Y-101904290D01*
X111258970Y-101965117D01*
X111083594Y-102054476D01*
X110992741Y-102120485D01*
X110924354Y-102170172D01*
X110924352Y-102170174D01*
X110924351Y-102170174D01*
X110785174Y-102309351D01*
X110785174Y-102309352D01*
X110785172Y-102309354D01*
X110764483Y-102337830D01*
X110669476Y-102468594D01*
X110579485Y-102645213D01*
X110531511Y-102696009D01*
X110463690Y-102712804D01*
X110397555Y-102690267D01*
X110358515Y-102645213D01*
X110268523Y-102468594D01*
X110256010Y-102451371D01*
X110152828Y-102309354D01*
X110013646Y-102170172D01*
X109854405Y-102054476D01*
X109679029Y-101965117D01*
X109491826Y-101904290D01*
X109297422Y-101873500D01*
X109297417Y-101873500D01*
X109100583Y-101873500D01*
X109100578Y-101873500D01*
X108906173Y-101904290D01*
X108718970Y-101965117D01*
X108543594Y-102054476D01*
X108452741Y-102120485D01*
X108384354Y-102170172D01*
X108384352Y-102170174D01*
X108384351Y-102170174D01*
X108245174Y-102309351D01*
X108245174Y-102309352D01*
X108245172Y-102309354D01*
X108224483Y-102337830D01*
X108129476Y-102468594D01*
X108039485Y-102645213D01*
X107991511Y-102696009D01*
X107923690Y-102712804D01*
X107857555Y-102690267D01*
X107818515Y-102645213D01*
X107728523Y-102468594D01*
X107716010Y-102451371D01*
X107612828Y-102309354D01*
X107473646Y-102170172D01*
X107314405Y-102054476D01*
X107139029Y-101965117D01*
X106951826Y-101904290D01*
X106757422Y-101873500D01*
X106757417Y-101873500D01*
X106560583Y-101873500D01*
X106560578Y-101873500D01*
X106366173Y-101904290D01*
X106178970Y-101965117D01*
X106003594Y-102054476D01*
X105912741Y-102120485D01*
X105844354Y-102170172D01*
X105844352Y-102170174D01*
X105844351Y-102170174D01*
X105705174Y-102309351D01*
X105705174Y-102309352D01*
X105705172Y-102309354D01*
X105684483Y-102337830D01*
X105589476Y-102468594D01*
X105499485Y-102645213D01*
X105451511Y-102696009D01*
X105383690Y-102712804D01*
X105317555Y-102690267D01*
X105278515Y-102645213D01*
X105188523Y-102468594D01*
X105176010Y-102451371D01*
X105072828Y-102309354D01*
X104933646Y-102170172D01*
X104774405Y-102054476D01*
X104599029Y-101965117D01*
X104411826Y-101904290D01*
X104217422Y-101873500D01*
X104217417Y-101873500D01*
X104020583Y-101873500D01*
X104020578Y-101873500D01*
X103826173Y-101904290D01*
X103638970Y-101965117D01*
X103463594Y-102054476D01*
X103372741Y-102120485D01*
X103304354Y-102170172D01*
X103304352Y-102170174D01*
X103304351Y-102170174D01*
X103165174Y-102309351D01*
X103165174Y-102309352D01*
X103165172Y-102309354D01*
X103144483Y-102337830D01*
X103049476Y-102468594D01*
X102959485Y-102645213D01*
X102911511Y-102696009D01*
X102843690Y-102712804D01*
X102777555Y-102690267D01*
X102738515Y-102645213D01*
X102648523Y-102468594D01*
X102636010Y-102451371D01*
X102532828Y-102309354D01*
X102393646Y-102170172D01*
X102234405Y-102054476D01*
X102059029Y-101965117D01*
X101871826Y-101904290D01*
X101677422Y-101873500D01*
X101677417Y-101873500D01*
X101480583Y-101873500D01*
X101480578Y-101873500D01*
X101286173Y-101904290D01*
X101098970Y-101965117D01*
X100923594Y-102054476D01*
X100832741Y-102120485D01*
X100764354Y-102170172D01*
X100764352Y-102170174D01*
X100764351Y-102170174D01*
X100625174Y-102309351D01*
X100625174Y-102309352D01*
X100625172Y-102309354D01*
X100604483Y-102337830D01*
X100509476Y-102468594D01*
X100419485Y-102645213D01*
X100371511Y-102696009D01*
X100303690Y-102712804D01*
X100237555Y-102690267D01*
X100198515Y-102645213D01*
X100108523Y-102468594D01*
X100096010Y-102451371D01*
X99992828Y-102309354D01*
X99853646Y-102170172D01*
X99694405Y-102054476D01*
X99519029Y-101965117D01*
X99331826Y-101904290D01*
X99137422Y-101873500D01*
X99137417Y-101873500D01*
X98940583Y-101873500D01*
X98940578Y-101873500D01*
X98746173Y-101904290D01*
X98558970Y-101965117D01*
X98383594Y-102054476D01*
X98292741Y-102120485D01*
X98224354Y-102170172D01*
X98224352Y-102170174D01*
X98224351Y-102170174D01*
X98085174Y-102309351D01*
X98085174Y-102309352D01*
X98085172Y-102309354D01*
X98064483Y-102337830D01*
X97969476Y-102468594D01*
X97879485Y-102645213D01*
X97831511Y-102696009D01*
X97763690Y-102712804D01*
X97697555Y-102690267D01*
X97658515Y-102645213D01*
X97568523Y-102468594D01*
X97556010Y-102451371D01*
X97452828Y-102309354D01*
X97313646Y-102170172D01*
X97154405Y-102054476D01*
X96979029Y-101965117D01*
X96791826Y-101904290D01*
X96597422Y-101873500D01*
X96597417Y-101873500D01*
X96400583Y-101873500D01*
X96400578Y-101873500D01*
X96206173Y-101904290D01*
X96018970Y-101965117D01*
X95843594Y-102054476D01*
X95752741Y-102120485D01*
X95684354Y-102170172D01*
X95684352Y-102170174D01*
X95684351Y-102170174D01*
X95545174Y-102309351D01*
X95545174Y-102309352D01*
X95545172Y-102309354D01*
X95524483Y-102337830D01*
X95429476Y-102468594D01*
X95339485Y-102645213D01*
X95291511Y-102696009D01*
X95223690Y-102712804D01*
X95157555Y-102690267D01*
X95118515Y-102645213D01*
X95028523Y-102468594D01*
X95016010Y-102451371D01*
X94912828Y-102309354D01*
X94773646Y-102170172D01*
X94614405Y-102054476D01*
X94439029Y-101965117D01*
X94251826Y-101904290D01*
X94057422Y-101873500D01*
X94057417Y-101873500D01*
X93860583Y-101873500D01*
X93860578Y-101873500D01*
X93666173Y-101904290D01*
X93478970Y-101965117D01*
X93303594Y-102054476D01*
X93212741Y-102120485D01*
X93144354Y-102170172D01*
X93144352Y-102170174D01*
X93144351Y-102170174D01*
X93005174Y-102309351D01*
X93005174Y-102309352D01*
X93005172Y-102309354D01*
X92984483Y-102337830D01*
X92889476Y-102468594D01*
X92799485Y-102645213D01*
X92751511Y-102696009D01*
X92683690Y-102712804D01*
X92617555Y-102690267D01*
X92578515Y-102645213D01*
X92488523Y-102468594D01*
X92476010Y-102451371D01*
X92372828Y-102309354D01*
X92233646Y-102170172D01*
X92074405Y-102054476D01*
X91899029Y-101965117D01*
X91711826Y-101904290D01*
X91517422Y-101873500D01*
X91517417Y-101873500D01*
X91320583Y-101873500D01*
X91320578Y-101873500D01*
X91126173Y-101904290D01*
X90938970Y-101965117D01*
X90763594Y-102054476D01*
X90672741Y-102120485D01*
X90604354Y-102170172D01*
X90604352Y-102170174D01*
X90604351Y-102170174D01*
X90465171Y-102309354D01*
X90397330Y-102402728D01*
X90341999Y-102445393D01*
X90272386Y-102451371D01*
X90210591Y-102418764D01*
X90186528Y-102386135D01*
X90161916Y-102337830D01*
X90101658Y-102254894D01*
X90101658Y-102254893D01*
X89370128Y-102986424D01*
X89354245Y-102927147D01*
X89287102Y-102810853D01*
X89192147Y-102715898D01*
X89075853Y-102648755D01*
X89016574Y-102632871D01*
X89748105Y-101901340D01*
X89748104Y-101901338D01*
X89665174Y-101841087D01*
X89454802Y-101733897D01*
X89230247Y-101660934D01*
X89230248Y-101660934D01*
X88997052Y-101624000D01*
X88760948Y-101624000D01*
X88527752Y-101660934D01*
X88303197Y-101733897D01*
X88092830Y-101841084D01*
X88009894Y-101901340D01*
X88741425Y-102632871D01*
X88682147Y-102648755D01*
X88565853Y-102715898D01*
X88470898Y-102810853D01*
X88403755Y-102927147D01*
X88387871Y-102986425D01*
X87625819Y-102224373D01*
X87592384Y-102163281D01*
X87589500Y-102150143D01*
X87589500Y-102099326D01*
X87574966Y-102026260D01*
X87519601Y-101943399D01*
X87436740Y-101888034D01*
X87436739Y-101888033D01*
X87436735Y-101888032D01*
X87363677Y-101873500D01*
X87363674Y-101873500D01*
X85314326Y-101873500D01*
X85314323Y-101873500D01*
X85241264Y-101888032D01*
X85241260Y-101888033D01*
X85158399Y-101943399D01*
X85103033Y-102026260D01*
X85103032Y-102026264D01*
X85088500Y-102099321D01*
X85088500Y-104148678D01*
X85103032Y-104221735D01*
X85103033Y-104221739D01*
X85121405Y-104249235D01*
X85158399Y-104304601D01*
X85221343Y-104346658D01*
X85241260Y-104359966D01*
X85241264Y-104359967D01*
X85314321Y-104374499D01*
X85314324Y-104374500D01*
X85314326Y-104374500D01*
X85714500Y-104374500D01*
X85781539Y-104394185D01*
X85827294Y-104446989D01*
X85838500Y-104498500D01*
X85838500Y-105405324D01*
X85818815Y-105472363D01*
X85802181Y-105493005D01*
X83667405Y-107627781D01*
X83606082Y-107661266D01*
X83579724Y-107664100D01*
X82078754Y-107664100D01*
X82011715Y-107644415D01*
X81965960Y-107591611D01*
X81956016Y-107522453D01*
X81973215Y-107475003D01*
X82060356Y-107333724D01*
X82060358Y-107333719D01*
X82115505Y-107167297D01*
X82115506Y-107167290D01*
X82125999Y-107064586D01*
X82126000Y-107064573D01*
X82126000Y-106914600D01*
X81192988Y-106914600D01*
X81210205Y-106904660D01*
X81266060Y-106848805D01*
X81305556Y-106780396D01*
X81326000Y-106704096D01*
X81326000Y-106625104D01*
X81305556Y-106548804D01*
X81266060Y-106480395D01*
X81210205Y-106424540D01*
X81192988Y-106414600D01*
X81276000Y-106414600D01*
X82125999Y-106414600D01*
X82125999Y-106264628D01*
X82125998Y-106264613D01*
X82115505Y-106161902D01*
X82060358Y-105995480D01*
X82060356Y-105995475D01*
X81968315Y-105846254D01*
X81844345Y-105722284D01*
X81695124Y-105630243D01*
X81695119Y-105630241D01*
X81528697Y-105575094D01*
X81528690Y-105575093D01*
X81425986Y-105564600D01*
X81276000Y-105564600D01*
X81276000Y-106414600D01*
X81192988Y-106414600D01*
X81141796Y-106385044D01*
X81065496Y-106364600D01*
X80986504Y-106364600D01*
X80910204Y-106385044D01*
X80841795Y-106424540D01*
X80785940Y-106480395D01*
X80746444Y-106548804D01*
X80726000Y-106625104D01*
X80726000Y-106704096D01*
X80746444Y-106780396D01*
X80785940Y-106848805D01*
X80841795Y-106904660D01*
X80859012Y-106914600D01*
X79926001Y-106914600D01*
X79926001Y-107064586D01*
X79936494Y-107167297D01*
X79991641Y-107333719D01*
X79991643Y-107333724D01*
X80083684Y-107482945D01*
X80207654Y-107606915D01*
X80220345Y-107614743D01*
X80267071Y-107666691D01*
X80278294Y-107735653D01*
X80269811Y-107767735D01*
X80208185Y-107916513D01*
X80208182Y-107916525D01*
X80175500Y-108080828D01*
X80174903Y-108086894D01*
X80172573Y-108086664D01*
X80155815Y-108143738D01*
X80103011Y-108189493D01*
X80051500Y-108200699D01*
X77703281Y-108200699D01*
X77636242Y-108181014D01*
X77600180Y-108145591D01*
X77523977Y-108031544D01*
X77523975Y-108031541D01*
X77377657Y-107885223D01*
X77205596Y-107770256D01*
X77023881Y-107694988D01*
X76969478Y-107651147D01*
X76947413Y-107584853D01*
X76964692Y-107517153D01*
X77015830Y-107469543D01*
X77033015Y-107462496D01*
X77207031Y-107405953D01*
X77389349Y-107313058D01*
X77433921Y-107280673D01*
X76754447Y-106601199D01*
X76760661Y-106601199D01*
X76862394Y-106573940D01*
X76953606Y-106521279D01*
X77028080Y-106446805D01*
X77080741Y-106355593D01*
X77108000Y-106253860D01*
X77108000Y-106247646D01*
X77787474Y-106927120D01*
X77819859Y-106882548D01*
X77912755Y-106700230D01*
X77975990Y-106505616D01*
X78008000Y-106303516D01*
X78008000Y-106264613D01*
X79926000Y-106264613D01*
X79926000Y-106414600D01*
X80776000Y-106414600D01*
X80776000Y-105564600D01*
X80626027Y-105564600D01*
X80626012Y-105564601D01*
X80523302Y-105575094D01*
X80356880Y-105630241D01*
X80356875Y-105630243D01*
X80207654Y-105722284D01*
X80083684Y-105846254D01*
X79991643Y-105995475D01*
X79991641Y-105995480D01*
X79936494Y-106161902D01*
X79936493Y-106161909D01*
X79926000Y-106264613D01*
X78008000Y-106264613D01*
X78008000Y-106098881D01*
X77975990Y-105896781D01*
X77912755Y-105702167D01*
X77819859Y-105519849D01*
X77787474Y-105475276D01*
X77787474Y-105475275D01*
X77108000Y-106154750D01*
X77108000Y-106148538D01*
X77080741Y-106046805D01*
X77028080Y-105955593D01*
X76953606Y-105881119D01*
X76862394Y-105828458D01*
X76760661Y-105801199D01*
X76754446Y-105801199D01*
X77433922Y-105121723D01*
X77433921Y-105121722D01*
X77389359Y-105089346D01*
X77389350Y-105089340D01*
X77207031Y-104996443D01*
X77012417Y-104933208D01*
X76810317Y-104901199D01*
X76605683Y-104901199D01*
X76403582Y-104933208D01*
X76208968Y-104996443D01*
X76026650Y-105089339D01*
X75929786Y-105159716D01*
X75863979Y-105183196D01*
X75795925Y-105167371D01*
X75747230Y-105117265D01*
X75732900Y-105059398D01*
X75732900Y-102581207D01*
X75752585Y-102514168D01*
X75769219Y-102493526D01*
X76310472Y-101952273D01*
X76859025Y-101403719D01*
X76920346Y-101370236D01*
X76990038Y-101375220D01*
X77045971Y-101417092D01*
X77070388Y-101482556D01*
X77055536Y-101550829D01*
X77045080Y-101566889D01*
X76920389Y-101729387D01*
X76805657Y-101928109D01*
X76805650Y-101928123D01*
X76717842Y-102140112D01*
X76695265Y-102224373D01*
X76664865Y-102337830D01*
X76658453Y-102361759D01*
X76658451Y-102361770D01*
X76628500Y-102589258D01*
X76628500Y-102818741D01*
X76642773Y-102927147D01*
X76658452Y-103046238D01*
X76705660Y-103222422D01*
X76717842Y-103267887D01*
X76805650Y-103479876D01*
X76805657Y-103479890D01*
X76920392Y-103678617D01*
X77060081Y-103860661D01*
X77060089Y-103860670D01*
X77222330Y-104022911D01*
X77222338Y-104022918D01*
X77404382Y-104162607D01*
X77404385Y-104162608D01*
X77404388Y-104162611D01*
X77603112Y-104277344D01*
X77603117Y-104277346D01*
X77603123Y-104277349D01*
X77668916Y-104304601D01*
X77815113Y-104365158D01*
X78036762Y-104424548D01*
X78264266Y-104454500D01*
X78264273Y-104454500D01*
X78493727Y-104454500D01*
X78493734Y-104454500D01*
X78721238Y-104424548D01*
X78942887Y-104365158D01*
X79154888Y-104277344D01*
X79353612Y-104162611D01*
X79535661Y-104022919D01*
X79535665Y-104022914D01*
X79535670Y-104022911D01*
X79697911Y-103860670D01*
X79697914Y-103860665D01*
X79697919Y-103860661D01*
X79837611Y-103678612D01*
X79952344Y-103479888D01*
X80040158Y-103267887D01*
X80099548Y-103046238D01*
X80129500Y-102818734D01*
X80129500Y-102589266D01*
X80099548Y-102361762D01*
X80040158Y-102140113D01*
X79952344Y-101928112D01*
X79837611Y-101729388D01*
X79837608Y-101729385D01*
X79837607Y-101729382D01*
X79697918Y-101547338D01*
X79697911Y-101547330D01*
X79535670Y-101385089D01*
X79535661Y-101385081D01*
X79353617Y-101245392D01*
X79154890Y-101130657D01*
X79154876Y-101130650D01*
X78942887Y-101042842D01*
X78721238Y-100983452D01*
X78683215Y-100978446D01*
X78493741Y-100953500D01*
X78493734Y-100953500D01*
X78264266Y-100953500D01*
X78264258Y-100953500D01*
X78047715Y-100982009D01*
X78036762Y-100983452D01*
X77943076Y-101008554D01*
X77815112Y-101042842D01*
X77603123Y-101130650D01*
X77603109Y-101130657D01*
X77404387Y-101245389D01*
X77241889Y-101370080D01*
X77176720Y-101395274D01*
X77108275Y-101381236D01*
X77058285Y-101332422D01*
X77042621Y-101264331D01*
X77066257Y-101198580D01*
X77078715Y-101184029D01*
X77550726Y-100712019D01*
X77612049Y-100678534D01*
X77638407Y-100675700D01*
X126171192Y-100675700D01*
X126238231Y-100695385D01*
X126258873Y-100712019D01*
X134136381Y-108589527D01*
X134169866Y-108650850D01*
X134172700Y-108677208D01*
X134172700Y-109820300D01*
X134153015Y-109887339D01*
X134100211Y-109933094D01*
X134048700Y-109944300D01*
X123512628Y-109944300D01*
X123348325Y-109976982D01*
X123348313Y-109976985D01*
X123302983Y-109995762D01*
X123193543Y-110041092D01*
X123193537Y-110041095D01*
X123193537Y-110041096D01*
X123075728Y-110119815D01*
X123054231Y-110134179D01*
X123054231Y-110134180D01*
X121200181Y-111988230D01*
X121138858Y-112021715D01*
X121069166Y-112016731D01*
X121013233Y-111974859D01*
X120988816Y-111909395D01*
X120988500Y-111900549D01*
X120988500Y-110631323D01*
X120988499Y-110631321D01*
X120973967Y-110558264D01*
X120973966Y-110558260D01*
X120966253Y-110546717D01*
X120918601Y-110475399D01*
X120835740Y-110420034D01*
X120835739Y-110420033D01*
X120835735Y-110420032D01*
X120762677Y-110405500D01*
X120762674Y-110405500D01*
X119013326Y-110405500D01*
X119013323Y-110405500D01*
X118940264Y-110420032D01*
X118940260Y-110420033D01*
X118857399Y-110475399D01*
X118802033Y-110558260D01*
X118802032Y-110558264D01*
X118787500Y-110631321D01*
X118787500Y-112380678D01*
X118802032Y-112453735D01*
X118802033Y-112453739D01*
X118802034Y-112453740D01*
X118857399Y-112536601D01*
X118940260Y-112591966D01*
X118940264Y-112591967D01*
X119013321Y-112606499D01*
X119013324Y-112606500D01*
X119013326Y-112606500D01*
X120282548Y-112606500D01*
X120349587Y-112626185D01*
X120395342Y-112678989D01*
X120405286Y-112748147D01*
X120376261Y-112811703D01*
X120370236Y-112818173D01*
X120274536Y-112913874D01*
X120250901Y-112937509D01*
X120189578Y-112970993D01*
X120143822Y-112972300D01*
X120010479Y-112951181D01*
X119974611Y-112945500D01*
X119801389Y-112945500D01*
X119765521Y-112951181D01*
X119630302Y-112972597D01*
X119465552Y-113026128D01*
X119311211Y-113104768D01*
X119269520Y-113135059D01*
X119171072Y-113206586D01*
X119171070Y-113206588D01*
X119171069Y-113206588D01*
X119048588Y-113329069D01*
X119048588Y-113329070D01*
X119048586Y-113329072D01*
X119029340Y-113355562D01*
X118946768Y-113469211D01*
X118868128Y-113623552D01*
X118814597Y-113788302D01*
X118800461Y-113877555D01*
X118787500Y-113959389D01*
X118787500Y-114132611D01*
X118814598Y-114303701D01*
X118868127Y-114468445D01*
X118946768Y-114622788D01*
X119048586Y-114762928D01*
X119171072Y-114885414D01*
X119311212Y-114987232D01*
X119465555Y-115065873D01*
X119630299Y-115119402D01*
X119801389Y-115146500D01*
X119801390Y-115146500D01*
X119974610Y-115146500D01*
X119974611Y-115146500D01*
X120145701Y-115119402D01*
X120310445Y-115065873D01*
X120464788Y-114987232D01*
X120604928Y-114885414D01*
X120632590Y-114857751D01*
X120672818Y-114830870D01*
X120748063Y-114799704D01*
X120887362Y-114706627D01*
X123912369Y-111681618D01*
X123973692Y-111648134D01*
X124000050Y-111645300D01*
X133848700Y-111645300D01*
X133915739Y-111664985D01*
X133961494Y-111717789D01*
X133972700Y-111769300D01*
X133972700Y-134267149D01*
X133953015Y-134334188D01*
X133936381Y-134354830D01*
X121493308Y-146797902D01*
X121431985Y-146831387D01*
X121386229Y-146832694D01*
X121277671Y-146815500D01*
X121277666Y-146815500D01*
X121038334Y-146815500D01*
X121038329Y-146815500D01*
X120801948Y-146852939D01*
X120574325Y-146926898D01*
X120361080Y-147035554D01*
X120167467Y-147176221D01*
X120167462Y-147176225D01*
X119998225Y-147345462D01*
X119998221Y-147345467D01*
X119857554Y-147539080D01*
X119748898Y-147752325D01*
X119674939Y-147979948D01*
X119637500Y-148216328D01*
X119637500Y-148455671D01*
X119674939Y-148692051D01*
X119748898Y-148919674D01*
X119823621Y-149066324D01*
X119851236Y-149120521D01*
X119857554Y-149132919D01*
X119998221Y-149326532D01*
X119998225Y-149326537D01*
X120167462Y-149495774D01*
X120167467Y-149495778D01*
X120336347Y-149618476D01*
X120361084Y-149636448D01*
X120496961Y-149705681D01*
X120574325Y-149745101D01*
X120574327Y-149745101D01*
X120574330Y-149745103D01*
X120801949Y-149819061D01*
X120923735Y-149838349D01*
X121038329Y-149856500D01*
X121038334Y-149856500D01*
X121277671Y-149856500D01*
X121382135Y-149839953D01*
X121514051Y-149819061D01*
X121741670Y-149745103D01*
X121954916Y-149636448D01*
X122148539Y-149495773D01*
X122317773Y-149326539D01*
X122458448Y-149132916D01*
X122567103Y-148919670D01*
X122641061Y-148692051D01*
X122661953Y-148560135D01*
X122678500Y-148455671D01*
X122678500Y-148216336D01*
X122678499Y-148216328D01*
X122661304Y-148107766D01*
X122670258Y-148038476D01*
X122696093Y-148000693D01*
X135483826Y-135212962D01*
X135576904Y-135073663D01*
X135641016Y-134918881D01*
X135650772Y-134869835D01*
X135673700Y-134754567D01*
X135673700Y-110711033D01*
X135641016Y-110546718D01*
X135576903Y-110391937D01*
X135529169Y-110320499D01*
X135494598Y-110268759D01*
X135473720Y-110202081D01*
X135473700Y-110199868D01*
X135473700Y-108292328D01*
X135448702Y-108166661D01*
X135448701Y-108166660D01*
X135448701Y-108166656D01*
X135399665Y-108048273D01*
X135382903Y-108023187D01*
X135328477Y-107941731D01*
X135328475Y-107941729D01*
X135328473Y-107941726D01*
X126932428Y-99545681D01*
X126898943Y-99484358D01*
X126903927Y-99414666D01*
X126945799Y-99358733D01*
X127011263Y-99334316D01*
X127020109Y-99334000D01*
X127329000Y-99334000D01*
X127329000Y-81644000D01*
X120839000Y-81644000D01*
X120839000Y-99250700D01*
X120819315Y-99317739D01*
X120766511Y-99363494D01*
X120715000Y-99374700D01*
X77253529Y-99374700D01*
X77127861Y-99399697D01*
X77127855Y-99399699D01*
X77009475Y-99448733D01*
X77009466Y-99448738D01*
X76902931Y-99519923D01*
X76902927Y-99519926D01*
X74577127Y-101845725D01*
X74577126Y-101845726D01*
X74577123Y-101845731D01*
X74522079Y-101928112D01*
X74505935Y-101952273D01*
X74505933Y-101952276D01*
X74456899Y-102070655D01*
X74456897Y-102070661D01*
X74431900Y-102196328D01*
X57862500Y-102196328D01*
X57862500Y-81563125D01*
X81186700Y-81563125D01*
X81186700Y-81708075D01*
X81224216Y-81848085D01*
X81224217Y-81848088D01*
X81296688Y-81973611D01*
X81296690Y-81973613D01*
X81296691Y-81973615D01*
X81399185Y-82076109D01*
X81399186Y-82076110D01*
X81399188Y-82076111D01*
X81524711Y-82148582D01*
X81524712Y-82148582D01*
X81524715Y-82148584D01*
X81664725Y-82186100D01*
X81664728Y-82186100D01*
X81809672Y-82186100D01*
X81809675Y-82186100D01*
X81949685Y-82148584D01*
X82075215Y-82076109D01*
X82153083Y-81998239D01*
X82178764Y-81978533D01*
X82237714Y-81944500D01*
X82822595Y-81359619D01*
X82883918Y-81326134D01*
X82910276Y-81323300D01*
X127909724Y-81323300D01*
X127976763Y-81342985D01*
X127997405Y-81359619D01*
X129962289Y-83324502D01*
X129989169Y-83364729D01*
X129992217Y-83372088D01*
X130064688Y-83497611D01*
X130064690Y-83497613D01*
X130064691Y-83497615D01*
X130167185Y-83600109D01*
X130167186Y-83600110D01*
X130167188Y-83600111D01*
X130292711Y-83672582D01*
X130292712Y-83672582D01*
X130292715Y-83672584D01*
X130432725Y-83710100D01*
X130432728Y-83710100D01*
X130577672Y-83710100D01*
X130577675Y-83710100D01*
X130717685Y-83672584D01*
X130843215Y-83600109D01*
X130945709Y-83497615D01*
X131018184Y-83372085D01*
X131055700Y-83232075D01*
X131055700Y-83087125D01*
X131018184Y-82947115D01*
X130945709Y-82821585D01*
X130843215Y-82719091D01*
X130843213Y-82719090D01*
X130843211Y-82719088D01*
X130717688Y-82646617D01*
X130710329Y-82643569D01*
X130670102Y-82616689D01*
X128475716Y-80422302D01*
X128475715Y-80422301D01*
X128475714Y-80422300D01*
X128418650Y-80389354D01*
X128361587Y-80356408D01*
X128297939Y-80339354D01*
X128234292Y-80322300D01*
X82717493Y-80322300D01*
X82585708Y-80322300D01*
X82458412Y-80356408D01*
X82344286Y-80422300D01*
X82344283Y-80422302D01*
X81711114Y-81055471D01*
X81655528Y-81087564D01*
X81545742Y-81116981D01*
X81524711Y-81122617D01*
X81399188Y-81195088D01*
X81399182Y-81195093D01*
X81296693Y-81297582D01*
X81296688Y-81297588D01*
X81224217Y-81423111D01*
X81224216Y-81423115D01*
X81186700Y-81563125D01*
X57862500Y-81563125D01*
X57862500Y-78079258D01*
X76628500Y-78079258D01*
X76628500Y-78308741D01*
X76642728Y-78416808D01*
X76658452Y-78536238D01*
X76717842Y-78757887D01*
X76805650Y-78969876D01*
X76805657Y-78969890D01*
X76920392Y-79168617D01*
X77060081Y-79350661D01*
X77060089Y-79350670D01*
X77222330Y-79512911D01*
X77222338Y-79512918D01*
X77404382Y-79652607D01*
X77404385Y-79652608D01*
X77404388Y-79652611D01*
X77603112Y-79767344D01*
X77603117Y-79767346D01*
X77603123Y-79767349D01*
X77694480Y-79805190D01*
X77815113Y-79855158D01*
X78036762Y-79914548D01*
X78264266Y-79944500D01*
X78264273Y-79944500D01*
X78493727Y-79944500D01*
X78493734Y-79944500D01*
X78721238Y-79914548D01*
X78942887Y-79855158D01*
X79154888Y-79767344D01*
X79353612Y-79652611D01*
X79535661Y-79512919D01*
X79535665Y-79512914D01*
X79535670Y-79512911D01*
X79697911Y-79350670D01*
X79697914Y-79350665D01*
X79697919Y-79350661D01*
X79837611Y-79168612D01*
X79952344Y-78969888D01*
X80040158Y-78757887D01*
X80099548Y-78536238D01*
X80129500Y-78308734D01*
X80129500Y-78079266D01*
X80099548Y-77851762D01*
X80046238Y-77652804D01*
X80046238Y-77652802D01*
X80040160Y-77630119D01*
X80040158Y-77630116D01*
X80040158Y-77630113D01*
X80038279Y-77625577D01*
X85088500Y-77625577D01*
X85088500Y-77822422D01*
X85119290Y-78016826D01*
X85180117Y-78204029D01*
X85233471Y-78308741D01*
X85269476Y-78379405D01*
X85385172Y-78538646D01*
X85524354Y-78677828D01*
X85683595Y-78793524D01*
X85766455Y-78835743D01*
X85858970Y-78882882D01*
X85858972Y-78882882D01*
X85858975Y-78882884D01*
X85959317Y-78915487D01*
X86046173Y-78943709D01*
X86240578Y-78974500D01*
X86240583Y-78974500D01*
X86437422Y-78974500D01*
X86631826Y-78943709D01*
X86819025Y-78882884D01*
X86994405Y-78793524D01*
X87153646Y-78677828D01*
X87292828Y-78538646D01*
X87360669Y-78445271D01*
X87415998Y-78402606D01*
X87485611Y-78396627D01*
X87547406Y-78429233D01*
X87571471Y-78461863D01*
X87596085Y-78510172D01*
X87656338Y-78593104D01*
X87656340Y-78593105D01*
X88387871Y-77861574D01*
X88403755Y-77920853D01*
X88470898Y-78037147D01*
X88565853Y-78132102D01*
X88682147Y-78199245D01*
X88741425Y-78215128D01*
X88009893Y-78946658D01*
X88092828Y-79006914D01*
X88303197Y-79114102D01*
X88527752Y-79187065D01*
X88527751Y-79187065D01*
X88760948Y-79224000D01*
X88997052Y-79224000D01*
X89230247Y-79187065D01*
X89454802Y-79114102D01*
X89665163Y-79006918D01*
X89665169Y-79006914D01*
X89748104Y-78946658D01*
X89748105Y-78946658D01*
X89016574Y-78215128D01*
X89075853Y-78199245D01*
X89192147Y-78132102D01*
X89287102Y-78037147D01*
X89354245Y-77920853D01*
X89370128Y-77861575D01*
X90101658Y-78593105D01*
X90101658Y-78593104D01*
X90161914Y-78510169D01*
X90161918Y-78510164D01*
X90186527Y-78461865D01*
X90234501Y-78411068D01*
X90302322Y-78394272D01*
X90368457Y-78416808D01*
X90397330Y-78445272D01*
X90444482Y-78510169D01*
X90465172Y-78538646D01*
X90604354Y-78677828D01*
X90763595Y-78793524D01*
X90846455Y-78835743D01*
X90938970Y-78882882D01*
X90938972Y-78882882D01*
X90938975Y-78882884D01*
X91039317Y-78915487D01*
X91126173Y-78943709D01*
X91320578Y-78974500D01*
X91320583Y-78974500D01*
X91517422Y-78974500D01*
X91711826Y-78943709D01*
X91899025Y-78882884D01*
X92074405Y-78793524D01*
X92233646Y-78677828D01*
X92372828Y-78538646D01*
X92488524Y-78379405D01*
X92524529Y-78308741D01*
X92578515Y-78202787D01*
X92626489Y-78151990D01*
X92694310Y-78135195D01*
X92760445Y-78157732D01*
X92799485Y-78202787D01*
X92889474Y-78379403D01*
X92916651Y-78416808D01*
X93005172Y-78538646D01*
X93144354Y-78677828D01*
X93303595Y-78793524D01*
X93386455Y-78835743D01*
X93478970Y-78882882D01*
X93478972Y-78882882D01*
X93478975Y-78882884D01*
X93579317Y-78915487D01*
X93666173Y-78943709D01*
X93860578Y-78974500D01*
X93860583Y-78974500D01*
X94057422Y-78974500D01*
X94251826Y-78943709D01*
X94439025Y-78882884D01*
X94614405Y-78793524D01*
X94773646Y-78677828D01*
X94912828Y-78538646D01*
X95028524Y-78379405D01*
X95064529Y-78308741D01*
X95118515Y-78202787D01*
X95166489Y-78151990D01*
X95234310Y-78135195D01*
X95300445Y-78157732D01*
X95339485Y-78202787D01*
X95429474Y-78379403D01*
X95456651Y-78416808D01*
X95545172Y-78538646D01*
X95684354Y-78677828D01*
X95843595Y-78793524D01*
X95926455Y-78835743D01*
X96018970Y-78882882D01*
X96018972Y-78882882D01*
X96018975Y-78882884D01*
X96119317Y-78915487D01*
X96206173Y-78943709D01*
X96400578Y-78974500D01*
X96400583Y-78974500D01*
X96597422Y-78974500D01*
X96791826Y-78943709D01*
X96979025Y-78882884D01*
X97154405Y-78793524D01*
X97313646Y-78677828D01*
X97452828Y-78538646D01*
X97568524Y-78379405D01*
X97604529Y-78308741D01*
X97658515Y-78202787D01*
X97706489Y-78151990D01*
X97774310Y-78135195D01*
X97840445Y-78157732D01*
X97879485Y-78202787D01*
X97969474Y-78379403D01*
X97996651Y-78416808D01*
X98085172Y-78538646D01*
X98224354Y-78677828D01*
X98383595Y-78793524D01*
X98466455Y-78835743D01*
X98558970Y-78882882D01*
X98558972Y-78882882D01*
X98558975Y-78882884D01*
X98659317Y-78915487D01*
X98746173Y-78943709D01*
X98940578Y-78974500D01*
X98940583Y-78974500D01*
X99137422Y-78974500D01*
X99331826Y-78943709D01*
X99519025Y-78882884D01*
X99694405Y-78793524D01*
X99853646Y-78677828D01*
X99992828Y-78538646D01*
X100108524Y-78379405D01*
X100144529Y-78308741D01*
X100198515Y-78202787D01*
X100246489Y-78151990D01*
X100314310Y-78135195D01*
X100380445Y-78157732D01*
X100419485Y-78202787D01*
X100509474Y-78379403D01*
X100536651Y-78416808D01*
X100625172Y-78538646D01*
X100764354Y-78677828D01*
X100923595Y-78793524D01*
X101006455Y-78835743D01*
X101098970Y-78882882D01*
X101098972Y-78882882D01*
X101098975Y-78882884D01*
X101199317Y-78915487D01*
X101286173Y-78943709D01*
X101480578Y-78974500D01*
X101480583Y-78974500D01*
X101677422Y-78974500D01*
X101871826Y-78943709D01*
X102059025Y-78882884D01*
X102234405Y-78793524D01*
X102393646Y-78677828D01*
X102532828Y-78538646D01*
X102648524Y-78379405D01*
X102684529Y-78308741D01*
X102738515Y-78202787D01*
X102786489Y-78151990D01*
X102854310Y-78135195D01*
X102920445Y-78157732D01*
X102959485Y-78202787D01*
X103049474Y-78379403D01*
X103076651Y-78416808D01*
X103165172Y-78538646D01*
X103304354Y-78677828D01*
X103463595Y-78793524D01*
X103546455Y-78835743D01*
X103638970Y-78882882D01*
X103638972Y-78882882D01*
X103638975Y-78882884D01*
X103739317Y-78915487D01*
X103826173Y-78943709D01*
X104020578Y-78974500D01*
X104020583Y-78974500D01*
X104217422Y-78974500D01*
X104411826Y-78943709D01*
X104599025Y-78882884D01*
X104774405Y-78793524D01*
X104933646Y-78677828D01*
X105072828Y-78538646D01*
X105188524Y-78379405D01*
X105224529Y-78308741D01*
X105278515Y-78202787D01*
X105326489Y-78151990D01*
X105394310Y-78135195D01*
X105460445Y-78157732D01*
X105499485Y-78202787D01*
X105589474Y-78379403D01*
X105616651Y-78416808D01*
X105705172Y-78538646D01*
X105844354Y-78677828D01*
X106003595Y-78793524D01*
X106086455Y-78835743D01*
X106178970Y-78882882D01*
X106178972Y-78882882D01*
X106178975Y-78882884D01*
X106279317Y-78915487D01*
X106366173Y-78943709D01*
X106560578Y-78974500D01*
X106560583Y-78974500D01*
X106757422Y-78974500D01*
X106951826Y-78943709D01*
X107139025Y-78882884D01*
X107314405Y-78793524D01*
X107473646Y-78677828D01*
X107612828Y-78538646D01*
X107728524Y-78379405D01*
X107764529Y-78308741D01*
X107818515Y-78202787D01*
X107866489Y-78151990D01*
X107934310Y-78135195D01*
X108000445Y-78157732D01*
X108039485Y-78202787D01*
X108129474Y-78379403D01*
X108156651Y-78416808D01*
X108245172Y-78538646D01*
X108384354Y-78677828D01*
X108543595Y-78793524D01*
X108626455Y-78835743D01*
X108718970Y-78882882D01*
X108718972Y-78882882D01*
X108718975Y-78882884D01*
X108819317Y-78915487D01*
X108906173Y-78943709D01*
X109100578Y-78974500D01*
X109100583Y-78974500D01*
X109297422Y-78974500D01*
X109491826Y-78943709D01*
X109679025Y-78882884D01*
X109854405Y-78793524D01*
X110013646Y-78677828D01*
X110152828Y-78538646D01*
X110268524Y-78379405D01*
X110304529Y-78308741D01*
X110358515Y-78202787D01*
X110406489Y-78151990D01*
X110474310Y-78135195D01*
X110540445Y-78157732D01*
X110579485Y-78202787D01*
X110669474Y-78379403D01*
X110696651Y-78416808D01*
X110785172Y-78538646D01*
X110924354Y-78677828D01*
X111083595Y-78793524D01*
X111166455Y-78835743D01*
X111258970Y-78882882D01*
X111258972Y-78882882D01*
X111258975Y-78882884D01*
X111359317Y-78915487D01*
X111446173Y-78943709D01*
X111640578Y-78974500D01*
X111640583Y-78974500D01*
X111837422Y-78974500D01*
X112031826Y-78943709D01*
X112219025Y-78882884D01*
X112394405Y-78793524D01*
X112553646Y-78677828D01*
X112692828Y-78538646D01*
X112808524Y-78379405D01*
X112844529Y-78308741D01*
X112898515Y-78202787D01*
X112946489Y-78151990D01*
X113014310Y-78135195D01*
X113080445Y-78157732D01*
X113119485Y-78202787D01*
X113209474Y-78379403D01*
X113236651Y-78416808D01*
X113325172Y-78538646D01*
X113464354Y-78677828D01*
X113623595Y-78793524D01*
X113706455Y-78835743D01*
X113798970Y-78882882D01*
X113798972Y-78882882D01*
X113798975Y-78882884D01*
X113899317Y-78915487D01*
X113986173Y-78943709D01*
X114180578Y-78974500D01*
X114180583Y-78974500D01*
X114377422Y-78974500D01*
X114571826Y-78943709D01*
X114759025Y-78882884D01*
X114934405Y-78793524D01*
X115093646Y-78677828D01*
X115232828Y-78538646D01*
X115348524Y-78379405D01*
X115384529Y-78308741D01*
X115438515Y-78202787D01*
X115486489Y-78151990D01*
X115554310Y-78135195D01*
X115620445Y-78157732D01*
X115659485Y-78202787D01*
X115749474Y-78379403D01*
X115776651Y-78416808D01*
X115865172Y-78538646D01*
X116004354Y-78677828D01*
X116163595Y-78793524D01*
X116246455Y-78835743D01*
X116338970Y-78882882D01*
X116338972Y-78882882D01*
X116338975Y-78882884D01*
X116439317Y-78915487D01*
X116526173Y-78943709D01*
X116720578Y-78974500D01*
X116720583Y-78974500D01*
X116917422Y-78974500D01*
X117111826Y-78943709D01*
X117299025Y-78882884D01*
X117474405Y-78793524D01*
X117633646Y-78677828D01*
X117772828Y-78538646D01*
X117888524Y-78379405D01*
X117924529Y-78308741D01*
X117978515Y-78202787D01*
X118026489Y-78151990D01*
X118094310Y-78135195D01*
X118160445Y-78157732D01*
X118199485Y-78202787D01*
X118289474Y-78379403D01*
X118316651Y-78416808D01*
X118405172Y-78538646D01*
X118544354Y-78677828D01*
X118703595Y-78793524D01*
X118786455Y-78835743D01*
X118878970Y-78882882D01*
X118878972Y-78882882D01*
X118878975Y-78882884D01*
X118979317Y-78915487D01*
X119066173Y-78943709D01*
X119260578Y-78974500D01*
X119260583Y-78974500D01*
X119457422Y-78974500D01*
X119651826Y-78943709D01*
X119839025Y-78882884D01*
X120014405Y-78793524D01*
X120173646Y-78677828D01*
X120312828Y-78538646D01*
X120428524Y-78379405D01*
X120464529Y-78308741D01*
X120518515Y-78202787D01*
X120566489Y-78151990D01*
X120634310Y-78135195D01*
X120700445Y-78157732D01*
X120739485Y-78202787D01*
X120829474Y-78379403D01*
X120856651Y-78416808D01*
X120945172Y-78538646D01*
X121084354Y-78677828D01*
X121243595Y-78793524D01*
X121326455Y-78835743D01*
X121418970Y-78882882D01*
X121418972Y-78882882D01*
X121418975Y-78882884D01*
X121519317Y-78915487D01*
X121606173Y-78943709D01*
X121800578Y-78974500D01*
X121800583Y-78974500D01*
X121997422Y-78974500D01*
X122191826Y-78943709D01*
X122379025Y-78882884D01*
X122554405Y-78793524D01*
X122713646Y-78677828D01*
X122852828Y-78538646D01*
X122968524Y-78379405D01*
X123057884Y-78204025D01*
X123098421Y-78079266D01*
X123098424Y-78079258D01*
X123578500Y-78079258D01*
X123578500Y-78308741D01*
X123592728Y-78416808D01*
X123608452Y-78536238D01*
X123667842Y-78757887D01*
X123755650Y-78969876D01*
X123755657Y-78969890D01*
X123870392Y-79168617D01*
X124010081Y-79350661D01*
X124010089Y-79350670D01*
X124172330Y-79512911D01*
X124172338Y-79512918D01*
X124354382Y-79652607D01*
X124354385Y-79652608D01*
X124354388Y-79652611D01*
X124553112Y-79767344D01*
X124553117Y-79767346D01*
X124553123Y-79767349D01*
X124644480Y-79805190D01*
X124765113Y-79855158D01*
X124986762Y-79914548D01*
X125214266Y-79944500D01*
X125214273Y-79944500D01*
X125443727Y-79944500D01*
X125443734Y-79944500D01*
X125671238Y-79914548D01*
X125892887Y-79855158D01*
X126104888Y-79767344D01*
X126303612Y-79652611D01*
X126485661Y-79512919D01*
X126485665Y-79512914D01*
X126485670Y-79512911D01*
X126647911Y-79350670D01*
X126647914Y-79350665D01*
X126647919Y-79350661D01*
X126787611Y-79168612D01*
X126902344Y-78969888D01*
X126990158Y-78757887D01*
X127049548Y-78536238D01*
X127079500Y-78308734D01*
X127079500Y-78079266D01*
X127049548Y-77851762D01*
X126990158Y-77630113D01*
X126940190Y-77509480D01*
X126902349Y-77418123D01*
X126902346Y-77418117D01*
X126902344Y-77418112D01*
X126787611Y-77219388D01*
X126787608Y-77219385D01*
X126787607Y-77219382D01*
X126647918Y-77037338D01*
X126647911Y-77037330D01*
X126485670Y-76875089D01*
X126485661Y-76875081D01*
X126303617Y-76735392D01*
X126104890Y-76620657D01*
X126104876Y-76620650D01*
X125892887Y-76532842D01*
X125867751Y-76526107D01*
X125671238Y-76473452D01*
X125626014Y-76467498D01*
X125443741Y-76443500D01*
X125443734Y-76443500D01*
X125214266Y-76443500D01*
X125214258Y-76443500D01*
X124997715Y-76472009D01*
X124986762Y-76473452D01*
X124893076Y-76498554D01*
X124765112Y-76532842D01*
X124553123Y-76620650D01*
X124553109Y-76620657D01*
X124354382Y-76735392D01*
X124172338Y-76875081D01*
X124010081Y-77037338D01*
X123870392Y-77219382D01*
X123755657Y-77418109D01*
X123755650Y-77418123D01*
X123667842Y-77630112D01*
X123608453Y-77851759D01*
X123608451Y-77851770D01*
X123578500Y-78079258D01*
X123098424Y-78079258D01*
X123112191Y-78036888D01*
X123112192Y-78036886D01*
X123118707Y-78016834D01*
X123118707Y-78016830D01*
X123118709Y-78016826D01*
X123134572Y-77916666D01*
X123149500Y-77822422D01*
X123149500Y-77625577D01*
X123118709Y-77431173D01*
X123057882Y-77243970D01*
X122968523Y-77068594D01*
X122956010Y-77051371D01*
X122852828Y-76909354D01*
X122713646Y-76770172D01*
X122554405Y-76654476D01*
X122379029Y-76565117D01*
X122191826Y-76504290D01*
X121997422Y-76473500D01*
X121997417Y-76473500D01*
X121800583Y-76473500D01*
X121800578Y-76473500D01*
X121606173Y-76504290D01*
X121418970Y-76565117D01*
X121243594Y-76654476D01*
X121152741Y-76720485D01*
X121084354Y-76770172D01*
X121084352Y-76770174D01*
X121084351Y-76770174D01*
X120945174Y-76909351D01*
X120945174Y-76909352D01*
X120945172Y-76909354D01*
X120895485Y-76977741D01*
X120829476Y-77068594D01*
X120739485Y-77245213D01*
X120691511Y-77296009D01*
X120623690Y-77312804D01*
X120557555Y-77290267D01*
X120518515Y-77245213D01*
X120428523Y-77068594D01*
X120416010Y-77051371D01*
X120312828Y-76909354D01*
X120173646Y-76770172D01*
X120014405Y-76654476D01*
X119839029Y-76565117D01*
X119651826Y-76504290D01*
X119457422Y-76473500D01*
X119457417Y-76473500D01*
X119260583Y-76473500D01*
X119260578Y-76473500D01*
X119066173Y-76504290D01*
X118878970Y-76565117D01*
X118703594Y-76654476D01*
X118612741Y-76720485D01*
X118544354Y-76770172D01*
X118544352Y-76770174D01*
X118544351Y-76770174D01*
X118405174Y-76909351D01*
X118405174Y-76909352D01*
X118405172Y-76909354D01*
X118355485Y-76977741D01*
X118289476Y-77068594D01*
X118199485Y-77245213D01*
X118151511Y-77296009D01*
X118083690Y-77312804D01*
X118017555Y-77290267D01*
X117978515Y-77245213D01*
X117888523Y-77068594D01*
X117876010Y-77051371D01*
X117772828Y-76909354D01*
X117633646Y-76770172D01*
X117474405Y-76654476D01*
X117299029Y-76565117D01*
X117111826Y-76504290D01*
X116917422Y-76473500D01*
X116917417Y-76473500D01*
X116720583Y-76473500D01*
X116720578Y-76473500D01*
X116526173Y-76504290D01*
X116338967Y-76565118D01*
X116324880Y-76572297D01*
X116256211Y-76585193D01*
X116191471Y-76558916D01*
X116151214Y-76501810D01*
X116148222Y-76432004D01*
X116180905Y-76374131D01*
X118236506Y-74318530D01*
X128997500Y-74318530D01*
X128997500Y-74525469D01*
X129037868Y-74728412D01*
X129037870Y-74728420D01*
X129117058Y-74919596D01*
X129232024Y-75091657D01*
X129378342Y-75237975D01*
X129378345Y-75237977D01*
X129550402Y-75352941D01*
X129741580Y-75432130D01*
X129944530Y-75472499D01*
X129944534Y-75472500D01*
X129944535Y-75472500D01*
X130151466Y-75472500D01*
X130151467Y-75472499D01*
X130354420Y-75432130D01*
X130545598Y-75352941D01*
X130717655Y-75237977D01*
X130863977Y-75091655D01*
X130978941Y-74919598D01*
X131058130Y-74728420D01*
X131098500Y-74525465D01*
X131098500Y-74318535D01*
X131058130Y-74115580D01*
X131058128Y-74115575D01*
X131054118Y-74105893D01*
X131036985Y-74064530D01*
X134585500Y-74064530D01*
X134585500Y-74271469D01*
X134625868Y-74474412D01*
X134625870Y-74474420D01*
X134705058Y-74665596D01*
X134820024Y-74837657D01*
X134966342Y-74983975D01*
X134966345Y-74983977D01*
X135138402Y-75098941D01*
X135329580Y-75178130D01*
X135532530Y-75218499D01*
X135532534Y-75218500D01*
X135532535Y-75218500D01*
X135739466Y-75218500D01*
X135739467Y-75218499D01*
X135942420Y-75178130D01*
X136133598Y-75098941D01*
X136305655Y-74983977D01*
X136451977Y-74837655D01*
X136566941Y-74665598D01*
X136646130Y-74474420D01*
X136686500Y-74271465D01*
X136686500Y-74064535D01*
X136646130Y-73861580D01*
X136566941Y-73670402D01*
X136451977Y-73498345D01*
X136451975Y-73498342D01*
X136305657Y-73352024D01*
X136219626Y-73294541D01*
X136133598Y-73237059D01*
X135942420Y-73157870D01*
X135942412Y-73157868D01*
X135739469Y-73117500D01*
X135739465Y-73117500D01*
X135532535Y-73117500D01*
X135532530Y-73117500D01*
X135329587Y-73157868D01*
X135329579Y-73157870D01*
X135138403Y-73237058D01*
X134966342Y-73352024D01*
X134820024Y-73498342D01*
X134705058Y-73670403D01*
X134625870Y-73861579D01*
X134625868Y-73861587D01*
X134585500Y-74064530D01*
X131036985Y-74064530D01*
X130978942Y-73924403D01*
X130863975Y-73752342D01*
X130717657Y-73606024D01*
X130556502Y-73498345D01*
X130545598Y-73491059D01*
X130354420Y-73411870D01*
X130354412Y-73411868D01*
X130151469Y-73371500D01*
X130151465Y-73371500D01*
X129944535Y-73371500D01*
X129944530Y-73371500D01*
X129741587Y-73411868D01*
X129741579Y-73411870D01*
X129550403Y-73491058D01*
X129378342Y-73606024D01*
X129232024Y-73752342D01*
X129117058Y-73924403D01*
X129037870Y-74115579D01*
X129037868Y-74115587D01*
X128997500Y-74318530D01*
X118236506Y-74318530D01*
X118330274Y-74224762D01*
X118980095Y-73574941D01*
X130003017Y-62552021D01*
X130052453Y-62466395D01*
X130078042Y-62370894D01*
X130078042Y-62272022D01*
X130078042Y-61556644D01*
X130097727Y-61489605D01*
X130114361Y-61468963D01*
X130125728Y-61457596D01*
X130143051Y-61440273D01*
X130215526Y-61314743D01*
X130253042Y-61174733D01*
X130253042Y-61029783D01*
X130215526Y-60889773D01*
X130196335Y-60856534D01*
X130143053Y-60764246D01*
X130143048Y-60764240D01*
X130040559Y-60661751D01*
X130040553Y-60661746D01*
X129915030Y-60589275D01*
X129915031Y-60589275D01*
X129890067Y-60582586D01*
X129775017Y-60551758D01*
X129630067Y-60551758D01*
X129515017Y-60582586D01*
X129490053Y-60589275D01*
X129364530Y-60661746D01*
X129364524Y-60661751D01*
X129262035Y-60764240D01*
X129262030Y-60764246D01*
X129189559Y-60889769D01*
X129189558Y-60889773D01*
X129152042Y-61029783D01*
X129152042Y-61174733D01*
X129185679Y-61300267D01*
X129189559Y-61314746D01*
X129262030Y-61440269D01*
X129262035Y-61440275D01*
X129290723Y-61468963D01*
X129324208Y-61530286D01*
X129327042Y-61556644D01*
X129327042Y-62114558D01*
X129307357Y-62181597D01*
X129290723Y-62202239D01*
X114934566Y-76558395D01*
X114873243Y-76591880D01*
X114803551Y-76586896D01*
X114790591Y-76581199D01*
X114759022Y-76565114D01*
X114571829Y-76504291D01*
X114466296Y-76487576D01*
X114454920Y-76482183D01*
X114442362Y-76481285D01*
X114423945Y-76467498D01*
X114403162Y-76457646D01*
X114396507Y-76446959D01*
X114386428Y-76439414D01*
X114378388Y-76417860D01*
X114366231Y-76398335D01*
X114366410Y-76385746D01*
X114362011Y-76373950D01*
X114366900Y-76351473D01*
X114367229Y-76328472D01*
X114374542Y-76316343D01*
X114376863Y-76305677D01*
X114398007Y-76277430D01*
X114448075Y-76227362D01*
X114448074Y-76227362D01*
X128253610Y-62421828D01*
X128283017Y-62370893D01*
X128303045Y-62336203D01*
X128328635Y-62240700D01*
X128328635Y-61371806D01*
X128348320Y-61304767D01*
X128364954Y-61284125D01*
X128368999Y-61280080D01*
X128393644Y-61255435D01*
X128466119Y-61129905D01*
X128503635Y-60989895D01*
X128503635Y-60844945D01*
X128466119Y-60704935D01*
X128453242Y-60682632D01*
X128393646Y-60579408D01*
X128393641Y-60579402D01*
X128291152Y-60476913D01*
X128291146Y-60476908D01*
X128165623Y-60404437D01*
X128165624Y-60404437D01*
X128154141Y-60401360D01*
X128025610Y-60366920D01*
X127880660Y-60366920D01*
X127752128Y-60401360D01*
X127740646Y-60404437D01*
X127615123Y-60476908D01*
X127615117Y-60476913D01*
X127512628Y-60579402D01*
X127512623Y-60579408D01*
X127440152Y-60704931D01*
X127440151Y-60704935D01*
X127402635Y-60844945D01*
X127402635Y-60989895D01*
X127435995Y-61114394D01*
X127440152Y-61129908D01*
X127512623Y-61255431D01*
X127512628Y-61255437D01*
X127541316Y-61284125D01*
X127574801Y-61345448D01*
X127577635Y-61371806D01*
X127577635Y-61984365D01*
X127557950Y-62051404D01*
X127541316Y-62072046D01*
X114028382Y-75584981D01*
X113967059Y-75618466D01*
X113940701Y-75621300D01*
X98176764Y-75621300D01*
X98081263Y-75646889D01*
X98081260Y-75646890D01*
X97995640Y-75696322D01*
X97995635Y-75696326D01*
X97140654Y-76551307D01*
X97079331Y-76584792D01*
X97009639Y-76579808D01*
X96996684Y-76574114D01*
X96979025Y-76565116D01*
X96979019Y-76565114D01*
X96791826Y-76504290D01*
X96597422Y-76473500D01*
X96597417Y-76473500D01*
X96400583Y-76473500D01*
X96400578Y-76473500D01*
X96206173Y-76504290D01*
X96018970Y-76565117D01*
X95843594Y-76654476D01*
X95752741Y-76720485D01*
X95684354Y-76770172D01*
X95684352Y-76770174D01*
X95684351Y-76770174D01*
X95545174Y-76909351D01*
X95545174Y-76909352D01*
X95545172Y-76909354D01*
X95495485Y-76977741D01*
X95429476Y-77068594D01*
X95339485Y-77245213D01*
X95291511Y-77296009D01*
X95223690Y-77312804D01*
X95157555Y-77290267D01*
X95118515Y-77245213D01*
X95028523Y-77068594D01*
X95016010Y-77051371D01*
X94912828Y-76909354D01*
X94773646Y-76770172D01*
X94614405Y-76654476D01*
X94439029Y-76565117D01*
X94251826Y-76504290D01*
X94057422Y-76473500D01*
X94057417Y-76473500D01*
X93860583Y-76473500D01*
X93860578Y-76473500D01*
X93666173Y-76504290D01*
X93478964Y-76565119D01*
X93422063Y-76594112D01*
X93353394Y-76607008D01*
X93288654Y-76580731D01*
X93248398Y-76523624D01*
X93245406Y-76453818D01*
X93278087Y-76395948D01*
X100376475Y-69297563D01*
X100425911Y-69211937D01*
X100451500Y-69116436D01*
X100451500Y-69017564D01*
X100451500Y-68882369D01*
X100471185Y-68815330D01*
X100523989Y-68769575D01*
X100527992Y-68767831D01*
X100573598Y-68748941D01*
X100745655Y-68633977D01*
X100891977Y-68487655D01*
X101006941Y-68315598D01*
X101086130Y-68124420D01*
X101126500Y-67921465D01*
X101126500Y-67714535D01*
X101086130Y-67511580D01*
X101006941Y-67320402D01*
X100891977Y-67148345D01*
X100891975Y-67148342D01*
X100745657Y-67002024D01*
X100659626Y-66944541D01*
X100573598Y-66887059D01*
X100503045Y-66857835D01*
X100382420Y-66807870D01*
X100382412Y-66807868D01*
X100179469Y-66767500D01*
X100179465Y-66767500D01*
X99972535Y-66767500D01*
X99972530Y-66767500D01*
X99769587Y-66807868D01*
X99769579Y-66807870D01*
X99578403Y-66887058D01*
X99406342Y-67002024D01*
X99260024Y-67148342D01*
X99145058Y-67320403D01*
X99065870Y-67511579D01*
X99065868Y-67511587D01*
X99025500Y-67714530D01*
X99025500Y-67921469D01*
X99065868Y-68124412D01*
X99065870Y-68124420D01*
X99145058Y-68315596D01*
X99260024Y-68487657D01*
X99406342Y-68633975D01*
X99406345Y-68633977D01*
X99578402Y-68748941D01*
X99608205Y-68761285D01*
X99662607Y-68805124D01*
X99684674Y-68871417D01*
X99667396Y-68939117D01*
X99648434Y-68963527D01*
X92060654Y-76551307D01*
X91999331Y-76584792D01*
X91929639Y-76579808D01*
X91916684Y-76574114D01*
X91899025Y-76565116D01*
X91899019Y-76565114D01*
X91711826Y-76504290D01*
X91517422Y-76473500D01*
X91517417Y-76473500D01*
X91320583Y-76473500D01*
X91320578Y-76473500D01*
X91126173Y-76504290D01*
X90938970Y-76565117D01*
X90763594Y-76654476D01*
X90672741Y-76720485D01*
X90604354Y-76770172D01*
X90604352Y-76770174D01*
X90604351Y-76770174D01*
X90465171Y-76909354D01*
X90397330Y-77002728D01*
X90341999Y-77045393D01*
X90272386Y-77051371D01*
X90210591Y-77018764D01*
X90186528Y-76986135D01*
X90161916Y-76937830D01*
X90101658Y-76854894D01*
X90101658Y-76854893D01*
X89370128Y-77586424D01*
X89354245Y-77527147D01*
X89287102Y-77410853D01*
X89192147Y-77315898D01*
X89075853Y-77248755D01*
X89016574Y-77232871D01*
X89748105Y-76501340D01*
X89748104Y-76501338D01*
X89665174Y-76441087D01*
X89454802Y-76333897D01*
X89230247Y-76260934D01*
X89230248Y-76260934D01*
X88997052Y-76224000D01*
X88760948Y-76224000D01*
X88527752Y-76260934D01*
X88303197Y-76333897D01*
X88092830Y-76441084D01*
X88009894Y-76501340D01*
X88741425Y-77232871D01*
X88682147Y-77248755D01*
X88565853Y-77315898D01*
X88470898Y-77410853D01*
X88403755Y-77527147D01*
X88387871Y-77586425D01*
X87656340Y-76854894D01*
X87596083Y-76937832D01*
X87571470Y-76986138D01*
X87523496Y-77036933D01*
X87455675Y-77053728D01*
X87389540Y-77031190D01*
X87360669Y-77002729D01*
X87292828Y-76909354D01*
X87153646Y-76770172D01*
X86994405Y-76654476D01*
X86819029Y-76565117D01*
X86631826Y-76504290D01*
X86437422Y-76473500D01*
X86437417Y-76473500D01*
X86240583Y-76473500D01*
X86240578Y-76473500D01*
X86046173Y-76504290D01*
X85858970Y-76565117D01*
X85683594Y-76654476D01*
X85592741Y-76720485D01*
X85524354Y-76770172D01*
X85524352Y-76770174D01*
X85524351Y-76770174D01*
X85385174Y-76909351D01*
X85385174Y-76909352D01*
X85385172Y-76909354D01*
X85335485Y-76977741D01*
X85269476Y-77068594D01*
X85180117Y-77243970D01*
X85119290Y-77431173D01*
X85088500Y-77625577D01*
X80038279Y-77625577D01*
X79990190Y-77509480D01*
X79952349Y-77418123D01*
X79952346Y-77418117D01*
X79952344Y-77418112D01*
X79837611Y-77219388D01*
X79837608Y-77219385D01*
X79837607Y-77219382D01*
X79697918Y-77037338D01*
X79697911Y-77037330D01*
X79535670Y-76875089D01*
X79535661Y-76875081D01*
X79353617Y-76735392D01*
X79154890Y-76620657D01*
X79154876Y-76620650D01*
X78942887Y-76532842D01*
X78917751Y-76526107D01*
X78721238Y-76473452D01*
X78676014Y-76467498D01*
X78493741Y-76443500D01*
X78493734Y-76443500D01*
X78264266Y-76443500D01*
X78264258Y-76443500D01*
X78047715Y-76472009D01*
X78036762Y-76473452D01*
X77943076Y-76498554D01*
X77815112Y-76532842D01*
X77603123Y-76620650D01*
X77603109Y-76620657D01*
X77404382Y-76735392D01*
X77222338Y-76875081D01*
X77060081Y-77037338D01*
X76920392Y-77219382D01*
X76805657Y-77418109D01*
X76805650Y-77418123D01*
X76717842Y-77630112D01*
X76658453Y-77851759D01*
X76658451Y-77851770D01*
X76628500Y-78079258D01*
X57862500Y-78079258D01*
X57862500Y-72540530D01*
X72101500Y-72540530D01*
X72101500Y-72747469D01*
X72141868Y-72950412D01*
X72141870Y-72950420D01*
X72221058Y-73141596D01*
X72336024Y-73313657D01*
X72482342Y-73459975D01*
X72482345Y-73459977D01*
X72654402Y-73574941D01*
X72845580Y-73654130D01*
X73048530Y-73694499D01*
X73048534Y-73694500D01*
X73048535Y-73694500D01*
X73255466Y-73694500D01*
X73255467Y-73694499D01*
X73458420Y-73654130D01*
X73649598Y-73574941D01*
X73821655Y-73459977D01*
X73967977Y-73313655D01*
X74082941Y-73141598D01*
X74162130Y-72950420D01*
X74202500Y-72747465D01*
X74202500Y-72540535D01*
X74202499Y-72540530D01*
X77181500Y-72540530D01*
X77181500Y-72747469D01*
X77221868Y-72950412D01*
X77221870Y-72950420D01*
X77301058Y-73141596D01*
X77416024Y-73313657D01*
X77562342Y-73459975D01*
X77562345Y-73459977D01*
X77734402Y-73574941D01*
X77925580Y-73654130D01*
X78128530Y-73694499D01*
X78128534Y-73694500D01*
X78128535Y-73694500D01*
X78335466Y-73694500D01*
X78335467Y-73694499D01*
X78538420Y-73654130D01*
X78729598Y-73574941D01*
X78901655Y-73459977D01*
X79047977Y-73313655D01*
X79162941Y-73141598D01*
X79242130Y-72950420D01*
X79282500Y-72747465D01*
X79282500Y-72540535D01*
X79242130Y-72337580D01*
X79162941Y-72146402D01*
X79047977Y-71974345D01*
X79047975Y-71974342D01*
X78901657Y-71828024D01*
X78815626Y-71770541D01*
X78729598Y-71713059D01*
X78538420Y-71633870D01*
X78538412Y-71633868D01*
X78335469Y-71593500D01*
X78335465Y-71593500D01*
X78128535Y-71593500D01*
X78128530Y-71593500D01*
X77925587Y-71633868D01*
X77925579Y-71633870D01*
X77734403Y-71713058D01*
X77562342Y-71828024D01*
X77416024Y-71974342D01*
X77301058Y-72146403D01*
X77221870Y-72337579D01*
X77221868Y-72337587D01*
X77181500Y-72540530D01*
X74202499Y-72540530D01*
X74162130Y-72337580D01*
X74082941Y-72146402D01*
X73967977Y-71974345D01*
X73967975Y-71974342D01*
X73821657Y-71828024D01*
X73735626Y-71770541D01*
X73649598Y-71713059D01*
X73458420Y-71633870D01*
X73458412Y-71633868D01*
X73255469Y-71593500D01*
X73255465Y-71593500D01*
X73048535Y-71593500D01*
X73048530Y-71593500D01*
X72845587Y-71633868D01*
X72845579Y-71633870D01*
X72654403Y-71713058D01*
X72482342Y-71828024D01*
X72336024Y-71974342D01*
X72221058Y-72146403D01*
X72141870Y-72337579D01*
X72141868Y-72337587D01*
X72101500Y-72540530D01*
X57862500Y-72540530D01*
X57862500Y-71125164D01*
X57862919Y-71114982D01*
X57872662Y-70996727D01*
X57970252Y-69812268D01*
X57970599Y-69808714D01*
X58118571Y-68492795D01*
X58119035Y-68489162D01*
X58136255Y-68368500D01*
X58306107Y-67178280D01*
X58306679Y-67174662D01*
X58311238Y-67148345D01*
X58532692Y-65869915D01*
X58533355Y-65866395D01*
X58726366Y-64920530D01*
X72101500Y-64920530D01*
X72101500Y-65127469D01*
X72141868Y-65330412D01*
X72141870Y-65330420D01*
X72221058Y-65521596D01*
X72336024Y-65693657D01*
X72482342Y-65839975D01*
X72482345Y-65839977D01*
X72654402Y-65954941D01*
X72845580Y-66034130D01*
X73048530Y-66074499D01*
X73048534Y-66074500D01*
X73048535Y-66074500D01*
X73255466Y-66074500D01*
X73255467Y-66074499D01*
X73458420Y-66034130D01*
X73649598Y-65954941D01*
X73821655Y-65839977D01*
X73967977Y-65693655D01*
X74082941Y-65521598D01*
X74162130Y-65330420D01*
X74202500Y-65127465D01*
X74202500Y-64920535D01*
X74202499Y-64920530D01*
X77181500Y-64920530D01*
X77181500Y-65127469D01*
X77221868Y-65330412D01*
X77221870Y-65330420D01*
X77301058Y-65521596D01*
X77416024Y-65693657D01*
X77562342Y-65839975D01*
X77562345Y-65839977D01*
X77734402Y-65954941D01*
X77925580Y-66034130D01*
X78128530Y-66074499D01*
X78128534Y-66074500D01*
X78128535Y-66074500D01*
X78335466Y-66074500D01*
X78335467Y-66074499D01*
X78538420Y-66034130D01*
X78729598Y-65954941D01*
X78901655Y-65839977D01*
X79047977Y-65693655D01*
X79162941Y-65521598D01*
X79181809Y-65476047D01*
X79225650Y-65421644D01*
X79291944Y-65399579D01*
X79296370Y-65399500D01*
X82139901Y-65399500D01*
X82206940Y-65419185D01*
X82227582Y-65435819D01*
X87805181Y-71013418D01*
X87838666Y-71074741D01*
X87841500Y-71101099D01*
X87841500Y-71141675D01*
X87879016Y-71281685D01*
X87879017Y-71281688D01*
X87951488Y-71407211D01*
X87951490Y-71407213D01*
X87951491Y-71407215D01*
X88053985Y-71509709D01*
X88053986Y-71509710D01*
X88053988Y-71509711D01*
X88179511Y-71582182D01*
X88179512Y-71582182D01*
X88179515Y-71582184D01*
X88319525Y-71619700D01*
X88319528Y-71619700D01*
X88464472Y-71619700D01*
X88464475Y-71619700D01*
X88604485Y-71582184D01*
X88730015Y-71509709D01*
X88832509Y-71407215D01*
X88904984Y-71281685D01*
X88942500Y-71141675D01*
X88942500Y-70996725D01*
X88904984Y-70856715D01*
X88832509Y-70731185D01*
X88730015Y-70628691D01*
X88724805Y-70623481D01*
X88691320Y-70562158D01*
X88696304Y-70492466D01*
X88724805Y-70448119D01*
X88781709Y-70391215D01*
X88854184Y-70265685D01*
X88891700Y-70125675D01*
X88891700Y-70085099D01*
X88911385Y-70018060D01*
X88928019Y-69997418D01*
X89859112Y-69066325D01*
X90826074Y-68099363D01*
X90826075Y-68099362D01*
X90875510Y-68013738D01*
X90901100Y-67918235D01*
X90901100Y-60857682D01*
X98776000Y-60857682D01*
X98776000Y-61062317D01*
X98808009Y-61264417D01*
X98871244Y-61459031D01*
X98964141Y-61641350D01*
X98964147Y-61641359D01*
X98996523Y-61685921D01*
X98996524Y-61685922D01*
X99676000Y-61006446D01*
X99676000Y-61012661D01*
X99703259Y-61114394D01*
X99755920Y-61205606D01*
X99830394Y-61280080D01*
X99921606Y-61332741D01*
X100023339Y-61360000D01*
X100029553Y-61360000D01*
X99350076Y-62039474D01*
X99394650Y-62071859D01*
X99576968Y-62164755D01*
X99771582Y-62227990D01*
X99973683Y-62260000D01*
X100178317Y-62260000D01*
X100380417Y-62227990D01*
X100575031Y-62164755D01*
X100757349Y-62071859D01*
X100801921Y-62039474D01*
X100122447Y-61360000D01*
X100128661Y-61360000D01*
X100230394Y-61332741D01*
X100321606Y-61280080D01*
X100396080Y-61205606D01*
X100448741Y-61114394D01*
X100476000Y-61012661D01*
X100476000Y-61006447D01*
X101155474Y-61685921D01*
X101187859Y-61641349D01*
X101280755Y-61459031D01*
X101343990Y-61264417D01*
X101376000Y-61062317D01*
X101376000Y-60857690D01*
X101375998Y-60857674D01*
X101375817Y-60856530D01*
X106645500Y-60856530D01*
X106645500Y-61063469D01*
X106685868Y-61266412D01*
X106685870Y-61266420D01*
X106757883Y-61440275D01*
X106765059Y-61457598D01*
X106772653Y-61468963D01*
X106880024Y-61629657D01*
X107026342Y-61775975D01*
X107198405Y-61890943D01*
X107268952Y-61920164D01*
X107323356Y-61964005D01*
X107345421Y-62030299D01*
X107345500Y-62034725D01*
X107345500Y-66743274D01*
X107325815Y-66810313D01*
X107273011Y-66856068D01*
X107268954Y-66857835D01*
X107198401Y-66887059D01*
X107198395Y-66887062D01*
X107026344Y-67002022D01*
X106880024Y-67148342D01*
X106765058Y-67320403D01*
X106685870Y-67511579D01*
X106685868Y-67511587D01*
X106645500Y-67714530D01*
X106645500Y-67921469D01*
X106685868Y-68124412D01*
X106685870Y-68124420D01*
X106765058Y-68315596D01*
X106880024Y-68487657D01*
X107026342Y-68633975D01*
X107026345Y-68633977D01*
X107198402Y-68748941D01*
X107389580Y-68828130D01*
X107592530Y-68868499D01*
X107592534Y-68868500D01*
X107592535Y-68868500D01*
X107799466Y-68868500D01*
X107799467Y-68868499D01*
X108002420Y-68828130D01*
X108193598Y-68748941D01*
X108365655Y-68633977D01*
X108511977Y-68487655D01*
X108626941Y-68315598D01*
X108706130Y-68124420D01*
X108746500Y-67921465D01*
X108746500Y-67714535D01*
X108706130Y-67511580D01*
X108626941Y-67320402D01*
X108511977Y-67148345D01*
X108511975Y-67148342D01*
X108365655Y-67002022D01*
X108193604Y-66887062D01*
X108193598Y-66887059D01*
X108123046Y-66857835D01*
X108068643Y-66813993D01*
X108046579Y-66747699D01*
X108046500Y-66743274D01*
X108046500Y-62034725D01*
X108066185Y-61967686D01*
X108118989Y-61921931D01*
X108123048Y-61920164D01*
X108193594Y-61890943D01*
X108193595Y-61890942D01*
X108193598Y-61890941D01*
X108365655Y-61775977D01*
X108511977Y-61629655D01*
X108626941Y-61457598D01*
X108706130Y-61266420D01*
X108746500Y-61063465D01*
X108746500Y-60856535D01*
X108706130Y-60653580D01*
X108626941Y-60462402D01*
X108511977Y-60290345D01*
X108511975Y-60290342D01*
X108365657Y-60144024D01*
X108279626Y-60086541D01*
X108193598Y-60029059D01*
X108084710Y-59983956D01*
X108002420Y-59949870D01*
X108002412Y-59949868D01*
X107799469Y-59909500D01*
X107799465Y-59909500D01*
X107592535Y-59909500D01*
X107592530Y-59909500D01*
X107389587Y-59949868D01*
X107389579Y-59949870D01*
X107198403Y-60029058D01*
X107026342Y-60144024D01*
X106880024Y-60290342D01*
X106765058Y-60462403D01*
X106685870Y-60653579D01*
X106685868Y-60653587D01*
X106645500Y-60856530D01*
X101375817Y-60856530D01*
X101343990Y-60655582D01*
X101280755Y-60460968D01*
X101187859Y-60278650D01*
X101155474Y-60234077D01*
X101155474Y-60234076D01*
X100476000Y-60913551D01*
X100476000Y-60907339D01*
X100448741Y-60805606D01*
X100396080Y-60714394D01*
X100321606Y-60639920D01*
X100230394Y-60587259D01*
X100128661Y-60560000D01*
X100122446Y-60560000D01*
X100801922Y-59880524D01*
X100801921Y-59880523D01*
X100757359Y-59848147D01*
X100757350Y-59848141D01*
X100575031Y-59755244D01*
X100380417Y-59692009D01*
X100178317Y-59660000D01*
X99973683Y-59660000D01*
X99771582Y-59692009D01*
X99576968Y-59755244D01*
X99394644Y-59848143D01*
X99350077Y-59880523D01*
X99350077Y-59880524D01*
X100029554Y-60560000D01*
X100023339Y-60560000D01*
X99921606Y-60587259D01*
X99830394Y-60639920D01*
X99755920Y-60714394D01*
X99703259Y-60805606D01*
X99676000Y-60907339D01*
X99676000Y-60913553D01*
X98996524Y-60234077D01*
X98996523Y-60234077D01*
X98964143Y-60278644D01*
X98871244Y-60460968D01*
X98808009Y-60655582D01*
X98776000Y-60857682D01*
X90901100Y-60857682D01*
X90901100Y-58398325D01*
X97341100Y-58398325D01*
X97341100Y-58543275D01*
X97370083Y-58651439D01*
X97378617Y-58683288D01*
X97451088Y-58808811D01*
X97451090Y-58808813D01*
X97451091Y-58808815D01*
X97553585Y-58911309D01*
X97553586Y-58911310D01*
X97553588Y-58911311D01*
X97679111Y-58983782D01*
X97679112Y-58983782D01*
X97679115Y-58983784D01*
X97819125Y-59021300D01*
X97819128Y-59021300D01*
X97964072Y-59021300D01*
X97964075Y-59021300D01*
X98104085Y-58983784D01*
X98104088Y-58983781D01*
X98111438Y-58980738D01*
X98158889Y-58971300D01*
X108250124Y-58971300D01*
X108317163Y-58990985D01*
X108337805Y-59007619D01*
X118633889Y-69303702D01*
X118660769Y-69343929D01*
X118663817Y-69351288D01*
X118736288Y-69476811D01*
X118736290Y-69476813D01*
X118736291Y-69476815D01*
X118838785Y-69579309D01*
X118838786Y-69579310D01*
X118838788Y-69579311D01*
X118964311Y-69651782D01*
X118964312Y-69651782D01*
X118964315Y-69651784D01*
X119104325Y-69689300D01*
X119104328Y-69689300D01*
X119249272Y-69689300D01*
X119249275Y-69689300D01*
X119389285Y-69651784D01*
X119514815Y-69579309D01*
X119617309Y-69476815D01*
X119689784Y-69351285D01*
X119727300Y-69211275D01*
X119727300Y-69066325D01*
X119689784Y-68926315D01*
X119656404Y-68868500D01*
X119617311Y-68800788D01*
X119617306Y-68800782D01*
X119514817Y-68698293D01*
X119514811Y-68698288D01*
X119389288Y-68625817D01*
X119381929Y-68622769D01*
X119341702Y-68595889D01*
X111636693Y-60890879D01*
X111557139Y-60811325D01*
X113368500Y-60811325D01*
X113368500Y-60956275D01*
X113405823Y-61095563D01*
X113406017Y-61096288D01*
X113479080Y-61222836D01*
X113495553Y-61290736D01*
X113494700Y-61300267D01*
X113494700Y-61300508D01*
X113494700Y-61432292D01*
X113496839Y-61440275D01*
X113528808Y-61559587D01*
X113561754Y-61616650D01*
X113594700Y-61673714D01*
X113594701Y-61673715D01*
X113594702Y-61673716D01*
X119903889Y-67982902D01*
X119930769Y-68023129D01*
X119933817Y-68030488D01*
X120006288Y-68156011D01*
X120006290Y-68156013D01*
X120006291Y-68156015D01*
X120108785Y-68258509D01*
X120108786Y-68258510D01*
X120108788Y-68258511D01*
X120234311Y-68330982D01*
X120234312Y-68330982D01*
X120234315Y-68330984D01*
X120374325Y-68368500D01*
X120374328Y-68368500D01*
X120519272Y-68368500D01*
X120519275Y-68368500D01*
X120659285Y-68330984D01*
X120784815Y-68258509D01*
X120887309Y-68156015D01*
X120959784Y-68030485D01*
X120997300Y-67890475D01*
X120997300Y-67745525D01*
X120959784Y-67605515D01*
X120955733Y-67598499D01*
X120887311Y-67479988D01*
X120887306Y-67479982D01*
X120784817Y-67377493D01*
X120784811Y-67377488D01*
X120659288Y-67305017D01*
X120651929Y-67301969D01*
X120611702Y-67275089D01*
X114482800Y-61146186D01*
X114449315Y-61084863D01*
X114450705Y-61026413D01*
X114469500Y-60956275D01*
X114469500Y-60811325D01*
X114431984Y-60671315D01*
X114426462Y-60661751D01*
X114359511Y-60545788D01*
X114359506Y-60545782D01*
X114257017Y-60443293D01*
X114257011Y-60443288D01*
X114131488Y-60370817D01*
X114131489Y-60370817D01*
X114116945Y-60366920D01*
X113991475Y-60333300D01*
X113846525Y-60333300D01*
X113721055Y-60366920D01*
X113706511Y-60370817D01*
X113580988Y-60443288D01*
X113580982Y-60443293D01*
X113478493Y-60545782D01*
X113478488Y-60545788D01*
X113406017Y-60671311D01*
X113406016Y-60671315D01*
X113368500Y-60811325D01*
X111557139Y-60811325D01*
X108816116Y-58070302D01*
X108816115Y-58070301D01*
X108816114Y-58070300D01*
X108746817Y-58030291D01*
X108701987Y-58004408D01*
X108618342Y-57981996D01*
X108574692Y-57970300D01*
X108574691Y-57970300D01*
X98158889Y-57970300D01*
X98111438Y-57960862D01*
X98104086Y-57957816D01*
X98069082Y-57948437D01*
X97964075Y-57920300D01*
X97819125Y-57920300D01*
X97690593Y-57954740D01*
X97679111Y-57957817D01*
X97553588Y-58030288D01*
X97553582Y-58030293D01*
X97451093Y-58132782D01*
X97451088Y-58132788D01*
X97378617Y-58258311D01*
X97378616Y-58258315D01*
X97341100Y-58398325D01*
X90901100Y-58398325D01*
X90901100Y-56538530D01*
X91659500Y-56538530D01*
X91659500Y-56745469D01*
X91699868Y-56948412D01*
X91699870Y-56948420D01*
X91779058Y-57139596D01*
X91894024Y-57311657D01*
X92040342Y-57457975D01*
X92040345Y-57457977D01*
X92212402Y-57572941D01*
X92403580Y-57652130D01*
X92600467Y-57691293D01*
X92606530Y-57692499D01*
X92606534Y-57692500D01*
X92606535Y-57692500D01*
X92813466Y-57692500D01*
X92813467Y-57692499D01*
X93016420Y-57652130D01*
X93207598Y-57572941D01*
X93379655Y-57457977D01*
X93525977Y-57311655D01*
X93640941Y-57139598D01*
X93720130Y-56948420D01*
X93760500Y-56745465D01*
X93760500Y-56538535D01*
X93760499Y-56538530D01*
X115281500Y-56538530D01*
X115281500Y-56745469D01*
X115321868Y-56948412D01*
X115321870Y-56948420D01*
X115401058Y-57139596D01*
X115516024Y-57311657D01*
X115662342Y-57457975D01*
X115662345Y-57457977D01*
X115834402Y-57572941D01*
X116025580Y-57652130D01*
X116222467Y-57691293D01*
X116228530Y-57692499D01*
X116228534Y-57692500D01*
X116228535Y-57692500D01*
X116435466Y-57692500D01*
X116435467Y-57692499D01*
X116638420Y-57652130D01*
X116829598Y-57572941D01*
X117001655Y-57457977D01*
X117147977Y-57311655D01*
X117262941Y-57139598D01*
X117342130Y-56948420D01*
X117382500Y-56745465D01*
X117382500Y-56538535D01*
X117342130Y-56335580D01*
X117342128Y-56335575D01*
X117338118Y-56325893D01*
X117320985Y-56284530D01*
X120361500Y-56284530D01*
X120361500Y-56491469D01*
X120401868Y-56694412D01*
X120401870Y-56694420D01*
X120481058Y-56885596D01*
X120596024Y-57057657D01*
X120742342Y-57203975D01*
X120742345Y-57203977D01*
X120914402Y-57318941D01*
X121105580Y-57398130D01*
X121263103Y-57429463D01*
X121308530Y-57438499D01*
X121308534Y-57438500D01*
X121308535Y-57438500D01*
X121515466Y-57438500D01*
X121515467Y-57438499D01*
X121718420Y-57398130D01*
X121909598Y-57318941D01*
X122081655Y-57203977D01*
X122227977Y-57057655D01*
X122342941Y-56885598D01*
X122422130Y-56694420D01*
X122462500Y-56491465D01*
X122462500Y-56284535D01*
X122422130Y-56081580D01*
X122342941Y-55890402D01*
X122227977Y-55718345D01*
X122227975Y-55718342D01*
X122081657Y-55572024D01*
X121995626Y-55514541D01*
X121909598Y-55457059D01*
X121718420Y-55377870D01*
X121718412Y-55377868D01*
X121515469Y-55337500D01*
X121515465Y-55337500D01*
X121308535Y-55337500D01*
X121308530Y-55337500D01*
X121105587Y-55377868D01*
X121105579Y-55377870D01*
X120914403Y-55457058D01*
X120742342Y-55572024D01*
X120596024Y-55718342D01*
X120481058Y-55890403D01*
X120401870Y-56081579D01*
X120401868Y-56081587D01*
X120361500Y-56284530D01*
X117320985Y-56284530D01*
X117262942Y-56144403D01*
X117147975Y-55972342D01*
X117001657Y-55826024D01*
X116840502Y-55718345D01*
X116829598Y-55711059D01*
X116638420Y-55631870D01*
X116638412Y-55631868D01*
X116435469Y-55591500D01*
X116435465Y-55591500D01*
X116228535Y-55591500D01*
X116228530Y-55591500D01*
X116025587Y-55631868D01*
X116025579Y-55631870D01*
X115834403Y-55711058D01*
X115662342Y-55826024D01*
X115516024Y-55972342D01*
X115401058Y-56144403D01*
X115321871Y-56335577D01*
X115321868Y-56335587D01*
X115281500Y-56538530D01*
X93760499Y-56538530D01*
X93720130Y-56335580D01*
X93716117Y-56325893D01*
X93640941Y-56144403D01*
X93640941Y-56144402D01*
X93525977Y-55972345D01*
X93525975Y-55972342D01*
X93379657Y-55826024D01*
X93218502Y-55718345D01*
X93207598Y-55711059D01*
X93016420Y-55631870D01*
X93016412Y-55631868D01*
X92813469Y-55591500D01*
X92813465Y-55591500D01*
X92606535Y-55591500D01*
X92606530Y-55591500D01*
X92403587Y-55631868D01*
X92403579Y-55631870D01*
X92212403Y-55711058D01*
X92040342Y-55826024D01*
X91894024Y-55972342D01*
X91779058Y-56144403D01*
X91699871Y-56335577D01*
X91699868Y-56335587D01*
X91659500Y-56538530D01*
X90901100Y-56538530D01*
X90901100Y-51391549D01*
X128603348Y-51391549D01*
X128622791Y-51489290D01*
X128650321Y-51530492D01*
X128664180Y-51551234D01*
X129971863Y-52858917D01*
X129971866Y-52858919D01*
X130033808Y-52900307D01*
X130131549Y-52919750D01*
X130229290Y-52900307D01*
X130291232Y-52858919D01*
X130833959Y-52316192D01*
X130895282Y-52282707D01*
X130964973Y-52287691D01*
X131020907Y-52329562D01*
X131045324Y-52395027D01*
X131030472Y-52463300D01*
X131021959Y-52476758D01*
X130943603Y-52584606D01*
X130861388Y-52745960D01*
X130861387Y-52745963D01*
X130805429Y-52918189D01*
X130777100Y-53097048D01*
X130777100Y-53278151D01*
X130805429Y-53457010D01*
X130861387Y-53629236D01*
X130861388Y-53629239D01*
X130943606Y-53790597D01*
X131050041Y-53937094D01*
X131050045Y-53937099D01*
X131178100Y-54065154D01*
X131178105Y-54065158D01*
X131324601Y-54171593D01*
X131324603Y-54171594D01*
X131324606Y-54171596D01*
X131359394Y-54189321D01*
X131410190Y-54237294D01*
X131427100Y-54299806D01*
X131427100Y-64663723D01*
X131407415Y-64730762D01*
X131390781Y-64751404D01*
X130397862Y-65744322D01*
X130336539Y-65777807D01*
X130285990Y-65778258D01*
X130151469Y-65751500D01*
X130151465Y-65751500D01*
X129944535Y-65751500D01*
X129944530Y-65751500D01*
X129741587Y-65791868D01*
X129741579Y-65791870D01*
X129550403Y-65871058D01*
X129378342Y-65986024D01*
X129232024Y-66132342D01*
X129117058Y-66304403D01*
X129037870Y-66495579D01*
X129037868Y-66495587D01*
X128997500Y-66698530D01*
X128997500Y-66905469D01*
X129037868Y-67108412D01*
X129037870Y-67108420D01*
X129065308Y-67174662D01*
X129117059Y-67299598D01*
X129160074Y-67363975D01*
X129232024Y-67471657D01*
X129378342Y-67617975D01*
X129378345Y-67617977D01*
X129550402Y-67732941D01*
X129741580Y-67812130D01*
X129944530Y-67852499D01*
X129944534Y-67852500D01*
X129944535Y-67852500D01*
X130151466Y-67852500D01*
X130151467Y-67852499D01*
X130354420Y-67812130D01*
X130545598Y-67732941D01*
X130717655Y-67617977D01*
X130863977Y-67471655D01*
X130978941Y-67299598D01*
X131058130Y-67108420D01*
X131098500Y-66905465D01*
X131098500Y-66698535D01*
X131071740Y-66564006D01*
X131072447Y-66556101D01*
X131069673Y-66548663D01*
X131075517Y-66521798D01*
X131077967Y-66494418D01*
X131083215Y-66486408D01*
X131084525Y-66480390D01*
X131105672Y-66452140D01*
X131113282Y-66444530D01*
X134585500Y-66444530D01*
X134585500Y-66651469D01*
X134625868Y-66854412D01*
X134625870Y-66854420D01*
X134705058Y-67045596D01*
X134820024Y-67217657D01*
X134966342Y-67363975D01*
X134966345Y-67363977D01*
X135138402Y-67478941D01*
X135329580Y-67558130D01*
X135532530Y-67598499D01*
X135532534Y-67598500D01*
X135532535Y-67598500D01*
X135739466Y-67598500D01*
X135739467Y-67598499D01*
X135942420Y-67558130D01*
X136133598Y-67478941D01*
X136305655Y-67363977D01*
X136451977Y-67217655D01*
X136566941Y-67045598D01*
X136646130Y-66854420D01*
X136686500Y-66651465D01*
X136686500Y-66444535D01*
X136646130Y-66241580D01*
X136566941Y-66050402D01*
X136451977Y-65878345D01*
X136451975Y-65878342D01*
X136305657Y-65732024D01*
X136219626Y-65674541D01*
X136133598Y-65617059D01*
X135942420Y-65537870D01*
X135942412Y-65537868D01*
X135739469Y-65497500D01*
X135739465Y-65497500D01*
X135532535Y-65497500D01*
X135532530Y-65497500D01*
X135329587Y-65537868D01*
X135329579Y-65537870D01*
X135138403Y-65617058D01*
X134966342Y-65732024D01*
X134820024Y-65878342D01*
X134705058Y-66050403D01*
X134625870Y-66241579D01*
X134625868Y-66241587D01*
X134585500Y-66444530D01*
X131113282Y-66444530D01*
X132328100Y-65229714D01*
X132393992Y-65115586D01*
X132428100Y-64988292D01*
X132428100Y-64856507D01*
X132428100Y-57589149D01*
X134800948Y-57589149D01*
X134820391Y-57686890D01*
X134847921Y-57728092D01*
X134861780Y-57748834D01*
X136169463Y-59056517D01*
X136169466Y-59056519D01*
X136231408Y-59097907D01*
X136329149Y-59117350D01*
X136426890Y-59097907D01*
X136488832Y-59056519D01*
X136540946Y-59004405D01*
X136602269Y-58970919D01*
X136671961Y-58975903D01*
X136727894Y-59017774D01*
X136752312Y-59083238D01*
X136751101Y-59111483D01*
X136747345Y-59135200D01*
X137749922Y-59135200D01*
X137705867Y-59211506D01*
X137675200Y-59325956D01*
X137675200Y-59444444D01*
X137705867Y-59558894D01*
X137749922Y-59635200D01*
X136747345Y-59635200D01*
X136759673Y-59713035D01*
X136759673Y-59713038D01*
X136827767Y-59922610D01*
X136927813Y-60118960D01*
X137057342Y-60297241D01*
X137213158Y-60453057D01*
X137391439Y-60582586D01*
X137587789Y-60682632D01*
X137797363Y-60750726D01*
X137875199Y-60763054D01*
X137875200Y-60763054D01*
X137875200Y-59760477D01*
X137951506Y-59804533D01*
X138065956Y-59835200D01*
X138184444Y-59835200D01*
X138298894Y-59804533D01*
X138375200Y-59760477D01*
X138375200Y-60763054D01*
X138453034Y-60750726D01*
X138453037Y-60750726D01*
X138662610Y-60682632D01*
X138858960Y-60582586D01*
X139037241Y-60453057D01*
X139193057Y-60297241D01*
X139322586Y-60118960D01*
X139422632Y-59922610D01*
X139490726Y-59713038D01*
X139490726Y-59713035D01*
X139503055Y-59635200D01*
X138500478Y-59635200D01*
X138544533Y-59558894D01*
X138575200Y-59444444D01*
X138575200Y-59325956D01*
X138544533Y-59211506D01*
X138500478Y-59135200D01*
X139503055Y-59135200D01*
X139490726Y-59057364D01*
X139490726Y-59057361D01*
X139422632Y-58847789D01*
X139322586Y-58651439D01*
X139193057Y-58473158D01*
X139037241Y-58317342D01*
X138858960Y-58187813D01*
X138662610Y-58087767D01*
X138453036Y-58019673D01*
X138375200Y-58007344D01*
X138375200Y-59009922D01*
X138298894Y-58965867D01*
X138184444Y-58935200D01*
X138065956Y-58935200D01*
X137951506Y-58965867D01*
X137875200Y-59009922D01*
X137875200Y-58036651D01*
X137789228Y-58004986D01*
X137786078Y-58002648D01*
X137782190Y-58002146D01*
X137758253Y-57981996D01*
X137733123Y-57963344D01*
X137731737Y-57959674D01*
X137728738Y-57957150D01*
X137719496Y-57927263D01*
X137708438Y-57897981D01*
X137709256Y-57894144D01*
X137708098Y-57890399D01*
X137716481Y-57860260D01*
X137723010Y-57829647D01*
X137725772Y-57826861D01*
X137726823Y-57823085D01*
X137744405Y-57800946D01*
X137796517Y-57748834D01*
X137796519Y-57748832D01*
X137837907Y-57686890D01*
X137857350Y-57589149D01*
X137837907Y-57491408D01*
X137796519Y-57429466D01*
X137796517Y-57429463D01*
X136488834Y-56121780D01*
X136468092Y-56107921D01*
X136426890Y-56080391D01*
X136329149Y-56060948D01*
X136231408Y-56080391D01*
X136169463Y-56121780D01*
X134861780Y-57429463D01*
X134820391Y-57491408D01*
X134800948Y-57589149D01*
X132428100Y-57589149D01*
X132428100Y-54299806D01*
X132447785Y-54232767D01*
X132495805Y-54189321D01*
X132530594Y-54171596D01*
X132677101Y-54065153D01*
X132805153Y-53937101D01*
X132911596Y-53790594D01*
X132993811Y-53629239D01*
X133049771Y-53457009D01*
X133064365Y-53364859D01*
X133078100Y-53278151D01*
X133078100Y-53097048D01*
X133061619Y-52992997D01*
X133049771Y-52918191D01*
X132996987Y-52755736D01*
X132993812Y-52745963D01*
X132993811Y-52745960D01*
X132942249Y-52644766D01*
X132911596Y-52584606D01*
X132848899Y-52498310D01*
X132805158Y-52438105D01*
X132805154Y-52438100D01*
X132677099Y-52310045D01*
X132677094Y-52310041D01*
X132530597Y-52203606D01*
X132530596Y-52203605D01*
X132530594Y-52203604D01*
X132470309Y-52172887D01*
X132369239Y-52121388D01*
X132369236Y-52121387D01*
X132197010Y-52065429D01*
X132018151Y-52037100D01*
X132018146Y-52037100D01*
X131837054Y-52037100D01*
X131837049Y-52037100D01*
X131658189Y-52065429D01*
X131485963Y-52121387D01*
X131485960Y-52121388D01*
X131324606Y-52203603D01*
X131216758Y-52281959D01*
X131150951Y-52305438D01*
X131082897Y-52289612D01*
X131034203Y-52239506D01*
X131020328Y-52171028D01*
X131045678Y-52105919D01*
X131056192Y-52093959D01*
X131598917Y-51551234D01*
X131598919Y-51551232D01*
X131640307Y-51489290D01*
X131659750Y-51391549D01*
X131640307Y-51293808D01*
X131598919Y-51231866D01*
X131598917Y-51231863D01*
X130291234Y-49924180D01*
X130270492Y-49910321D01*
X130229290Y-49882791D01*
X130131549Y-49863348D01*
X130033808Y-49882791D01*
X129971863Y-49924180D01*
X128664180Y-51231863D01*
X128622791Y-51293808D01*
X128614118Y-51337410D01*
X128603348Y-51391549D01*
X90901100Y-51391549D01*
X90901100Y-49889299D01*
X90920785Y-49822260D01*
X90937419Y-49801618D01*
X91305219Y-49433819D01*
X91366542Y-49400334D01*
X91392900Y-49397500D01*
X91645630Y-49397500D01*
X91712669Y-49417185D01*
X91758424Y-49469989D01*
X91760191Y-49474047D01*
X91779059Y-49519598D01*
X91822074Y-49583975D01*
X91894024Y-49691657D01*
X92040342Y-49837975D01*
X92040345Y-49837977D01*
X92212402Y-49952941D01*
X92403580Y-50032130D01*
X92575059Y-50066239D01*
X92606530Y-50072499D01*
X92606534Y-50072500D01*
X92606535Y-50072500D01*
X92813466Y-50072500D01*
X92813467Y-50072499D01*
X93016420Y-50032130D01*
X93207598Y-49952941D01*
X93379655Y-49837977D01*
X93525977Y-49691655D01*
X93640941Y-49519598D01*
X93720130Y-49328420D01*
X93760500Y-49125465D01*
X93760500Y-48918535D01*
X93760499Y-48918530D01*
X115281500Y-48918530D01*
X115281500Y-49125469D01*
X115321868Y-49328412D01*
X115321870Y-49328420D01*
X115401059Y-49519598D01*
X115444074Y-49583975D01*
X115516024Y-49691657D01*
X115662342Y-49837975D01*
X115662345Y-49837977D01*
X115834402Y-49952941D01*
X116025580Y-50032130D01*
X116197059Y-50066239D01*
X116228530Y-50072499D01*
X116228534Y-50072500D01*
X116228535Y-50072500D01*
X116435466Y-50072500D01*
X116435467Y-50072499D01*
X116638420Y-50032130D01*
X116829598Y-49952941D01*
X117001655Y-49837977D01*
X117147977Y-49691655D01*
X117262941Y-49519598D01*
X117342130Y-49328420D01*
X117382500Y-49125465D01*
X117382500Y-48918535D01*
X117342130Y-48715580D01*
X117342128Y-48715575D01*
X117338118Y-48705893D01*
X117320985Y-48664530D01*
X120361500Y-48664530D01*
X120361500Y-48871469D01*
X120401868Y-49074412D01*
X120401870Y-49074420D01*
X120481058Y-49265596D01*
X120596024Y-49437657D01*
X120742342Y-49583975D01*
X120742345Y-49583977D01*
X120914402Y-49698941D01*
X121105580Y-49778130D01*
X121308530Y-49818499D01*
X121308534Y-49818500D01*
X121308535Y-49818500D01*
X121515466Y-49818500D01*
X121515467Y-49818499D01*
X121718420Y-49778130D01*
X121909598Y-49698941D01*
X122081655Y-49583977D01*
X122227977Y-49437655D01*
X122342941Y-49265598D01*
X122422130Y-49074420D01*
X122462500Y-48871465D01*
X122462500Y-48664535D01*
X122422130Y-48461580D01*
X122342941Y-48270402D01*
X122227977Y-48098345D01*
X122227975Y-48098342D01*
X122081657Y-47952024D01*
X121995626Y-47894541D01*
X121909598Y-47837059D01*
X121718420Y-47757870D01*
X121718412Y-47757868D01*
X121515469Y-47717500D01*
X121515465Y-47717500D01*
X121308535Y-47717500D01*
X121308530Y-47717500D01*
X121105587Y-47757868D01*
X121105579Y-47757870D01*
X120914403Y-47837058D01*
X120742342Y-47952024D01*
X120596024Y-48098342D01*
X120481058Y-48270403D01*
X120401870Y-48461579D01*
X120401868Y-48461587D01*
X120361500Y-48664530D01*
X117320985Y-48664530D01*
X117262942Y-48524403D01*
X117147975Y-48352342D01*
X117001657Y-48206024D01*
X116840502Y-48098345D01*
X116829598Y-48091059D01*
X116638420Y-48011870D01*
X116638412Y-48011868D01*
X116435469Y-47971500D01*
X116435465Y-47971500D01*
X116228535Y-47971500D01*
X116228530Y-47971500D01*
X116025587Y-48011868D01*
X116025579Y-48011870D01*
X115834403Y-48091058D01*
X115662342Y-48206024D01*
X115516024Y-48352342D01*
X115401058Y-48524403D01*
X115321870Y-48715579D01*
X115321868Y-48715587D01*
X115281500Y-48918530D01*
X93760499Y-48918530D01*
X93720130Y-48715580D01*
X93640941Y-48524402D01*
X93525977Y-48352345D01*
X93525975Y-48352342D01*
X93379657Y-48206024D01*
X93218502Y-48098345D01*
X93207598Y-48091059D01*
X93016420Y-48011870D01*
X93016412Y-48011868D01*
X92813469Y-47971500D01*
X92813465Y-47971500D01*
X92606535Y-47971500D01*
X92606530Y-47971500D01*
X92403587Y-48011868D01*
X92403579Y-48011870D01*
X92212403Y-48091058D01*
X92040342Y-48206024D01*
X91894024Y-48352342D01*
X91779058Y-48524403D01*
X91760191Y-48569953D01*
X91716350Y-48624356D01*
X91650056Y-48646421D01*
X91645630Y-48646500D01*
X91136564Y-48646500D01*
X91041063Y-48672089D01*
X91041060Y-48672090D01*
X90955440Y-48721522D01*
X90955435Y-48721526D01*
X90295038Y-49381925D01*
X90225126Y-49451836D01*
X90175691Y-49537459D01*
X90175691Y-49537460D01*
X90175690Y-49537462D01*
X90150100Y-49632965D01*
X90150100Y-49632967D01*
X90150100Y-67661901D01*
X90130415Y-67728940D01*
X90113781Y-67749582D01*
X88396982Y-69466381D01*
X88335659Y-69499866D01*
X88309301Y-69502700D01*
X88268725Y-69502700D01*
X88140193Y-69537140D01*
X88128711Y-69540217D01*
X88003188Y-69612688D01*
X88003182Y-69612693D01*
X87900693Y-69715182D01*
X87900686Y-69715191D01*
X87860090Y-69785505D01*
X87809523Y-69833720D01*
X87740915Y-69846942D01*
X87676051Y-69820974D01*
X87665023Y-69811185D01*
X82591622Y-64737785D01*
X82577363Y-64723526D01*
X82577362Y-64723525D01*
X82491738Y-64674090D01*
X82443986Y-64661295D01*
X82431899Y-64658056D01*
X82431895Y-64658054D01*
X82396236Y-64648500D01*
X82396235Y-64648500D01*
X79296370Y-64648500D01*
X79229331Y-64628815D01*
X79183576Y-64576011D01*
X79181809Y-64571953D01*
X79162941Y-64526403D01*
X79162941Y-64526402D01*
X79047977Y-64354345D01*
X79047975Y-64354342D01*
X78901657Y-64208024D01*
X78815626Y-64150541D01*
X78729598Y-64093059D01*
X78538420Y-64013870D01*
X78538412Y-64013868D01*
X78335469Y-63973500D01*
X78335465Y-63973500D01*
X78128535Y-63973500D01*
X78128530Y-63973500D01*
X77925587Y-64013868D01*
X77925579Y-64013870D01*
X77734403Y-64093058D01*
X77562342Y-64208024D01*
X77416024Y-64354342D01*
X77301058Y-64526403D01*
X77221870Y-64717579D01*
X77221868Y-64717587D01*
X77181500Y-64920530D01*
X74202499Y-64920530D01*
X74162130Y-64717580D01*
X74082941Y-64526402D01*
X73967977Y-64354345D01*
X73967975Y-64354342D01*
X73821657Y-64208024D01*
X73735626Y-64150541D01*
X73649598Y-64093059D01*
X73458420Y-64013870D01*
X73458412Y-64013868D01*
X73255469Y-63973500D01*
X73255465Y-63973500D01*
X73048535Y-63973500D01*
X73048530Y-63973500D01*
X72845587Y-64013868D01*
X72845579Y-64013870D01*
X72654403Y-64093058D01*
X72482342Y-64208024D01*
X72336024Y-64354342D01*
X72221058Y-64526403D01*
X72141870Y-64717579D01*
X72141868Y-64717587D01*
X72101500Y-64920530D01*
X58726366Y-64920530D01*
X58798117Y-64568906D01*
X58798903Y-64565331D01*
X58808062Y-64526403D01*
X59102147Y-63276396D01*
X59103041Y-63272835D01*
X59318294Y-62466397D01*
X59444532Y-61993449D01*
X59445531Y-61989919D01*
X59447192Y-61984365D01*
X59824958Y-60721254D01*
X59826045Y-60717810D01*
X60243072Y-59460991D01*
X60244243Y-59457630D01*
X60338311Y-59200051D01*
X65001748Y-59200051D01*
X65021191Y-59297792D01*
X65048721Y-59338994D01*
X65062580Y-59359736D01*
X66370263Y-60667419D01*
X66370266Y-60667421D01*
X66432208Y-60708809D01*
X66529949Y-60728252D01*
X66627690Y-60708809D01*
X66689632Y-60667421D01*
X67997319Y-59359734D01*
X68038707Y-59297792D01*
X68058150Y-59200051D01*
X68038707Y-59102310D01*
X67997319Y-59040368D01*
X67997317Y-59040365D01*
X67454592Y-58497640D01*
X67421107Y-58436317D01*
X67426091Y-58366625D01*
X67467963Y-58310692D01*
X67533427Y-58286275D01*
X67601700Y-58301127D01*
X67615158Y-58309641D01*
X67693591Y-58366625D01*
X67723006Y-58387996D01*
X67817841Y-58436317D01*
X67884360Y-58470211D01*
X67884363Y-58470212D01*
X67968780Y-58497640D01*
X68056591Y-58526171D01*
X68139429Y-58539291D01*
X68235449Y-58554500D01*
X68235454Y-58554500D01*
X68416551Y-58554500D01*
X68503259Y-58540765D01*
X68595409Y-58526171D01*
X68767639Y-58470211D01*
X68928994Y-58387996D01*
X69075501Y-58281553D01*
X69203553Y-58153501D01*
X69309996Y-58006994D01*
X69392211Y-57845639D01*
X69448171Y-57673409D01*
X69464084Y-57572941D01*
X69476500Y-57494551D01*
X69476500Y-57313448D01*
X69459160Y-57203975D01*
X69448171Y-57134591D01*
X69420191Y-57048476D01*
X69392212Y-56962363D01*
X69392211Y-56962360D01*
X69353097Y-56885596D01*
X69309996Y-56801006D01*
X69269644Y-56745466D01*
X69203558Y-56654505D01*
X69203554Y-56654500D01*
X69075499Y-56526445D01*
X69075494Y-56526441D01*
X68928997Y-56420006D01*
X68928996Y-56420005D01*
X68928994Y-56420004D01*
X68854600Y-56382098D01*
X68767639Y-56337788D01*
X68767636Y-56337787D01*
X68603723Y-56284530D01*
X87341500Y-56284530D01*
X87341500Y-56491469D01*
X87381868Y-56694412D01*
X87381870Y-56694420D01*
X87461058Y-56885596D01*
X87576024Y-57057657D01*
X87722342Y-57203975D01*
X87722345Y-57203977D01*
X87894402Y-57318941D01*
X88085580Y-57398130D01*
X88243103Y-57429463D01*
X88288530Y-57438499D01*
X88288534Y-57438500D01*
X88288535Y-57438500D01*
X88495466Y-57438500D01*
X88495467Y-57438499D01*
X88698420Y-57398130D01*
X88889598Y-57318941D01*
X89061655Y-57203977D01*
X89207977Y-57057655D01*
X89322941Y-56885598D01*
X89402130Y-56694420D01*
X89442500Y-56491465D01*
X89442500Y-56284535D01*
X89402130Y-56081580D01*
X89322941Y-55890402D01*
X89207977Y-55718345D01*
X89207975Y-55718342D01*
X89061657Y-55572024D01*
X88975626Y-55514541D01*
X88889598Y-55457059D01*
X88698420Y-55377870D01*
X88698412Y-55377868D01*
X88495469Y-55337500D01*
X88495465Y-55337500D01*
X88288535Y-55337500D01*
X88288530Y-55337500D01*
X88085587Y-55377868D01*
X88085579Y-55377870D01*
X87894403Y-55457058D01*
X87722342Y-55572024D01*
X87576024Y-55718342D01*
X87461058Y-55890403D01*
X87381870Y-56081579D01*
X87381868Y-56081587D01*
X87341500Y-56284530D01*
X68603723Y-56284530D01*
X68595410Y-56281829D01*
X68416551Y-56253500D01*
X68416546Y-56253500D01*
X68235454Y-56253500D01*
X68235449Y-56253500D01*
X68056589Y-56281829D01*
X67884363Y-56337787D01*
X67884360Y-56337788D01*
X67723002Y-56420006D01*
X67576505Y-56526441D01*
X67576500Y-56526445D01*
X67448445Y-56654500D01*
X67448441Y-56654505D01*
X67342006Y-56801002D01*
X67259788Y-56962360D01*
X67259787Y-56962363D01*
X67203829Y-57134589D01*
X67175500Y-57313448D01*
X67175500Y-57494551D01*
X67203829Y-57673410D01*
X67259787Y-57845636D01*
X67259788Y-57845639D01*
X67297831Y-57920300D01*
X67340686Y-58004408D01*
X67342006Y-58006997D01*
X67420358Y-58114841D01*
X67443838Y-58180648D01*
X67428012Y-58248701D01*
X67377906Y-58297396D01*
X67309428Y-58311271D01*
X67244319Y-58285922D01*
X67232359Y-58275407D01*
X66689634Y-57732682D01*
X66668892Y-57718823D01*
X66627690Y-57691293D01*
X66529949Y-57671850D01*
X66432208Y-57691293D01*
X66370263Y-57732682D01*
X65062580Y-59040365D01*
X65033934Y-59083238D01*
X65021191Y-59102310D01*
X65001748Y-59200051D01*
X60338311Y-59200051D01*
X60698529Y-58213698D01*
X60699800Y-58210371D01*
X61190892Y-56980566D01*
X61192275Y-56977246D01*
X61719749Y-55762624D01*
X61721261Y-55759282D01*
X61740507Y-55718345D01*
X62284643Y-54560928D01*
X62286210Y-54557720D01*
X62885035Y-53376628D01*
X62886741Y-53373386D01*
X62938649Y-53278146D01*
X63310404Y-52596051D01*
X71351748Y-52596051D01*
X71371191Y-52693792D01*
X71398721Y-52734994D01*
X71412580Y-52755736D01*
X72720263Y-54063419D01*
X72720266Y-54063421D01*
X72782208Y-54104809D01*
X72879949Y-54124252D01*
X72977690Y-54104809D01*
X73039632Y-54063421D01*
X74347319Y-52755734D01*
X74388707Y-52693792D01*
X74408150Y-52596051D01*
X74388707Y-52498310D01*
X74347319Y-52436368D01*
X74347317Y-52436365D01*
X74295204Y-52384252D01*
X74261719Y-52322929D01*
X74266703Y-52253237D01*
X74308575Y-52197304D01*
X74374039Y-52172887D01*
X74402283Y-52174098D01*
X74425999Y-52177854D01*
X74426000Y-52177854D01*
X74426000Y-51175277D01*
X74502306Y-51219333D01*
X74616756Y-51250000D01*
X74735244Y-51250000D01*
X74849694Y-51219333D01*
X74926000Y-51175277D01*
X74926000Y-52177854D01*
X75003834Y-52165526D01*
X75003837Y-52165526D01*
X75213410Y-52097432D01*
X75409760Y-51997386D01*
X75588041Y-51867857D01*
X75743857Y-51712041D01*
X75873386Y-51533760D01*
X75973432Y-51337410D01*
X76041526Y-51127838D01*
X76041526Y-51127835D01*
X76053855Y-51050000D01*
X75051278Y-51050000D01*
X75095333Y-50973694D01*
X75126000Y-50859244D01*
X75126000Y-50740756D01*
X75095333Y-50626306D01*
X75051278Y-50550000D01*
X76053855Y-50550000D01*
X76041526Y-50472164D01*
X76041526Y-50472161D01*
X75973432Y-50262589D01*
X75873386Y-50066239D01*
X75743857Y-49887958D01*
X75588041Y-49732142D01*
X75409760Y-49602613D01*
X75213410Y-49502567D01*
X75003836Y-49434473D01*
X74926000Y-49422144D01*
X74926000Y-50424722D01*
X74849694Y-50380667D01*
X74735244Y-50350000D01*
X74616756Y-50350000D01*
X74502306Y-50380667D01*
X74426000Y-50424722D01*
X74426000Y-49422144D01*
X74348164Y-49434473D01*
X74348161Y-49434473D01*
X74138589Y-49502567D01*
X73942239Y-49602613D01*
X73763958Y-49732142D01*
X73608142Y-49887958D01*
X73478613Y-50066239D01*
X73378567Y-50262589D01*
X73310473Y-50472161D01*
X73310473Y-50472164D01*
X73298145Y-50550000D01*
X74300722Y-50550000D01*
X74256667Y-50626306D01*
X74226000Y-50740756D01*
X74226000Y-50859244D01*
X74256667Y-50973694D01*
X74300722Y-51050000D01*
X73298145Y-51050000D01*
X73301901Y-51073716D01*
X73292947Y-51143009D01*
X73247950Y-51196461D01*
X73181199Y-51217101D01*
X73113885Y-51198376D01*
X73091747Y-51180795D01*
X73039634Y-51128682D01*
X73018892Y-51114823D01*
X72977690Y-51087293D01*
X72879949Y-51067850D01*
X72782208Y-51087293D01*
X72720263Y-51128682D01*
X71412580Y-52436365D01*
X71385591Y-52476758D01*
X71371191Y-52498310D01*
X71351748Y-52596051D01*
X63310404Y-52596051D01*
X63520452Y-52210656D01*
X63522194Y-52207569D01*
X64190236Y-51064216D01*
X64192134Y-51061077D01*
X64893904Y-49938134D01*
X64895862Y-49935102D01*
X65630762Y-48833528D01*
X65632795Y-48830576D01*
X65750861Y-48664530D01*
X87341500Y-48664530D01*
X87341500Y-48871469D01*
X87381868Y-49074412D01*
X87381870Y-49074420D01*
X87461058Y-49265596D01*
X87576024Y-49437657D01*
X87722342Y-49583975D01*
X87722345Y-49583977D01*
X87894402Y-49698941D01*
X88085580Y-49778130D01*
X88288530Y-49818499D01*
X88288534Y-49818500D01*
X88288535Y-49818500D01*
X88495466Y-49818500D01*
X88495467Y-49818499D01*
X88698420Y-49778130D01*
X88889598Y-49698941D01*
X89061655Y-49583977D01*
X89207977Y-49437655D01*
X89322941Y-49265598D01*
X89402130Y-49074420D01*
X89442500Y-48871465D01*
X89442500Y-48664535D01*
X89402130Y-48461580D01*
X89322941Y-48270402D01*
X89207977Y-48098345D01*
X89207975Y-48098342D01*
X89061657Y-47952024D01*
X88975626Y-47894541D01*
X88889598Y-47837059D01*
X88698420Y-47757870D01*
X88698412Y-47757868D01*
X88495469Y-47717500D01*
X88495465Y-47717500D01*
X88288535Y-47717500D01*
X88288530Y-47717500D01*
X88085587Y-47757868D01*
X88085579Y-47757870D01*
X87894403Y-47837058D01*
X87722342Y-47952024D01*
X87576024Y-48098342D01*
X87461058Y-48270403D01*
X87381870Y-48461579D01*
X87381868Y-48461587D01*
X87341500Y-48664530D01*
X65750861Y-48664530D01*
X66400173Y-47751346D01*
X66402290Y-47748460D01*
X67201442Y-46692567D01*
X67203672Y-46689709D01*
X68033913Y-45658059D01*
X68036193Y-45655311D01*
X68896802Y-44648800D01*
X68899132Y-44646157D01*
X69789302Y-43665731D01*
X69791767Y-43663096D01*
X70710710Y-42709621D01*
X70713258Y-42707055D01*
X71660145Y-41781388D01*
X71662807Y-41778863D01*
X72636808Y-40881810D01*
X72639519Y-40879387D01*
X73639826Y-40011697D01*
X73642588Y-40009372D01*
X74668274Y-39171847D01*
X74671160Y-39169563D01*
X74750269Y-39108800D01*
X75721292Y-38362963D01*
X75724212Y-38360789D01*
X76592413Y-37734121D01*
X80840700Y-37734121D01*
X80840700Y-39583478D01*
X80855232Y-39656535D01*
X80855233Y-39656539D01*
X80855234Y-39656540D01*
X80910599Y-39739401D01*
X80972814Y-39780971D01*
X80993460Y-39794766D01*
X80993464Y-39794767D01*
X81066521Y-39809299D01*
X81066524Y-39809300D01*
X81066526Y-39809300D01*
X82915876Y-39809300D01*
X82915877Y-39809299D01*
X82988940Y-39794766D01*
X83071801Y-39739401D01*
X83127166Y-39656540D01*
X83141700Y-39583474D01*
X83141700Y-38815931D01*
X83161385Y-38748892D01*
X83214189Y-38703137D01*
X83283347Y-38693193D01*
X83346903Y-38722218D01*
X83384677Y-38780996D01*
X83388173Y-38796533D01*
X83409029Y-38928210D01*
X83464987Y-39100436D01*
X83464988Y-39100439D01*
X83547206Y-39261797D01*
X83653641Y-39408294D01*
X83653645Y-39408299D01*
X83781700Y-39536354D01*
X83781705Y-39536358D01*
X83846561Y-39583478D01*
X83928206Y-39642796D01*
X84033684Y-39696540D01*
X84089560Y-39725011D01*
X84089563Y-39725012D01*
X84175676Y-39752991D01*
X84261791Y-39780971D01*
X84344629Y-39794091D01*
X84440649Y-39809300D01*
X84440654Y-39809300D01*
X84621751Y-39809300D01*
X84713510Y-39794766D01*
X84800609Y-39780971D01*
X84972839Y-39725011D01*
X85134194Y-39642796D01*
X85280701Y-39536353D01*
X85408753Y-39408301D01*
X85515196Y-39261794D01*
X85597411Y-39100439D01*
X85653371Y-38928209D01*
X85671154Y-38815931D01*
X85681700Y-38749351D01*
X85681700Y-38568248D01*
X85665219Y-38464197D01*
X85653371Y-38389391D01*
X85597411Y-38217161D01*
X85597411Y-38217160D01*
X85548612Y-38121389D01*
X85515196Y-38055806D01*
X85420192Y-37925043D01*
X85408758Y-37909305D01*
X85408754Y-37909300D01*
X85280699Y-37781245D01*
X85280694Y-37781241D01*
X85215838Y-37734121D01*
X91249700Y-37734121D01*
X91249700Y-39583478D01*
X91264232Y-39656535D01*
X91264233Y-39656539D01*
X91264234Y-39656540D01*
X91319599Y-39739401D01*
X91381814Y-39780971D01*
X91402460Y-39794766D01*
X91402464Y-39794767D01*
X91475521Y-39809299D01*
X91475524Y-39809300D01*
X91475526Y-39809300D01*
X93324876Y-39809300D01*
X93324877Y-39809299D01*
X93397940Y-39794766D01*
X93480801Y-39739401D01*
X93536166Y-39656540D01*
X93550700Y-39583474D01*
X93550700Y-39509772D01*
X93570385Y-39442733D01*
X93623189Y-39396978D01*
X93692347Y-39387034D01*
X93755903Y-39416059D01*
X93775019Y-39436888D01*
X93789132Y-39456313D01*
X94498061Y-38747384D01*
X94520867Y-38832494D01*
X94580110Y-38935106D01*
X94663894Y-39018890D01*
X94766506Y-39078133D01*
X94851614Y-39100937D01*
X94142685Y-39809865D01*
X94142685Y-39809866D01*
X94206443Y-39856188D01*
X94402789Y-39956232D01*
X94612364Y-40024326D01*
X94830019Y-40058800D01*
X95050381Y-40058800D01*
X95268035Y-40024326D01*
X95477610Y-39956232D01*
X95673960Y-39856186D01*
X95737713Y-39809866D01*
X95737714Y-39809866D01*
X95028785Y-39100938D01*
X95113894Y-39078133D01*
X95216506Y-39018890D01*
X95300290Y-38935106D01*
X95359533Y-38832494D01*
X95382337Y-38747385D01*
X96091266Y-39456314D01*
X96091266Y-39456313D01*
X96137586Y-39392560D01*
X96237632Y-39196210D01*
X96305726Y-38986635D01*
X96340200Y-38768981D01*
X96340200Y-38548618D01*
X96305726Y-38330964D01*
X96237632Y-38121389D01*
X96137588Y-37925043D01*
X96091266Y-37861285D01*
X96091265Y-37861285D01*
X95382337Y-38570213D01*
X95359533Y-38485106D01*
X95300290Y-38382494D01*
X95216506Y-38298710D01*
X95113894Y-38239467D01*
X95028783Y-38216661D01*
X95511325Y-37734121D01*
X108780700Y-37734121D01*
X108780700Y-39583478D01*
X108795232Y-39656535D01*
X108795233Y-39656539D01*
X108795234Y-39656540D01*
X108850599Y-39739401D01*
X108912814Y-39780971D01*
X108933460Y-39794766D01*
X108933464Y-39794767D01*
X109006521Y-39809299D01*
X109006524Y-39809300D01*
X109006526Y-39809300D01*
X110855876Y-39809300D01*
X110855877Y-39809299D01*
X110928940Y-39794766D01*
X111011801Y-39739401D01*
X111067166Y-39656540D01*
X111081700Y-39583474D01*
X111081700Y-38815931D01*
X111101385Y-38748892D01*
X111154189Y-38703137D01*
X111223347Y-38693193D01*
X111286903Y-38722218D01*
X111324677Y-38780996D01*
X111328173Y-38796533D01*
X111349029Y-38928210D01*
X111404987Y-39100436D01*
X111404988Y-39100439D01*
X111487206Y-39261797D01*
X111593641Y-39408294D01*
X111593645Y-39408299D01*
X111721700Y-39536354D01*
X111721705Y-39536358D01*
X111786561Y-39583478D01*
X111868206Y-39642796D01*
X111973684Y-39696540D01*
X112029560Y-39725011D01*
X112029563Y-39725012D01*
X112115676Y-39752991D01*
X112201791Y-39780971D01*
X112284629Y-39794091D01*
X112380649Y-39809300D01*
X112380654Y-39809300D01*
X112561751Y-39809300D01*
X112653510Y-39794766D01*
X112740609Y-39780971D01*
X112912839Y-39725011D01*
X113074194Y-39642796D01*
X113220701Y-39536353D01*
X113348753Y-39408301D01*
X113455196Y-39261794D01*
X113537411Y-39100439D01*
X113593371Y-38928209D01*
X113611154Y-38815931D01*
X113621700Y-38749351D01*
X113621700Y-38568248D01*
X113605219Y-38464197D01*
X113593371Y-38389391D01*
X113537411Y-38217161D01*
X113537411Y-38217160D01*
X113488612Y-38121389D01*
X113455196Y-38055806D01*
X113360192Y-37925043D01*
X113348758Y-37909305D01*
X113348754Y-37909300D01*
X113220699Y-37781245D01*
X113220694Y-37781241D01*
X113155838Y-37734121D01*
X119194700Y-37734121D01*
X119194700Y-39583478D01*
X119209232Y-39656535D01*
X119209233Y-39656539D01*
X119209234Y-39656540D01*
X119264599Y-39739401D01*
X119326814Y-39780971D01*
X119347460Y-39794766D01*
X119347464Y-39794767D01*
X119420521Y-39809299D01*
X119420524Y-39809300D01*
X119420526Y-39809300D01*
X121269876Y-39809300D01*
X121269877Y-39809299D01*
X121342940Y-39794766D01*
X121425801Y-39739401D01*
X121481166Y-39656540D01*
X121495700Y-39583474D01*
X121495700Y-39509772D01*
X121515385Y-39442733D01*
X121568189Y-39396978D01*
X121637347Y-39387034D01*
X121700903Y-39416059D01*
X121720019Y-39436888D01*
X121734132Y-39456313D01*
X122443061Y-38747384D01*
X122465867Y-38832494D01*
X122525110Y-38935106D01*
X122608894Y-39018890D01*
X122711506Y-39078133D01*
X122796614Y-39100937D01*
X122087685Y-39809865D01*
X122087685Y-39809866D01*
X122151443Y-39856188D01*
X122347789Y-39956232D01*
X122557364Y-40024326D01*
X122775019Y-40058800D01*
X122995381Y-40058800D01*
X123213035Y-40024326D01*
X123422610Y-39956232D01*
X123618960Y-39856186D01*
X123682713Y-39809866D01*
X123682714Y-39809866D01*
X122973785Y-39100938D01*
X123058894Y-39078133D01*
X123161506Y-39018890D01*
X123245290Y-38935106D01*
X123304533Y-38832494D01*
X123327337Y-38747385D01*
X124036266Y-39456314D01*
X124036266Y-39456313D01*
X124082586Y-39392560D01*
X124182632Y-39196210D01*
X124250726Y-38986635D01*
X124285200Y-38768981D01*
X124285200Y-38548618D01*
X124250726Y-38330964D01*
X124182632Y-38121389D01*
X124082588Y-37925043D01*
X124036266Y-37861285D01*
X124036265Y-37861285D01*
X123327337Y-38570213D01*
X123304533Y-38485106D01*
X123245290Y-38382494D01*
X123161506Y-38298710D01*
X123058894Y-38239467D01*
X122973783Y-38216661D01*
X123682713Y-37507732D01*
X123618956Y-37461411D01*
X123422610Y-37361367D01*
X123213035Y-37293273D01*
X122995381Y-37258800D01*
X122775019Y-37258800D01*
X122557364Y-37293273D01*
X122347789Y-37361367D01*
X122151433Y-37461416D01*
X122087685Y-37507731D01*
X122087685Y-37507732D01*
X122796614Y-38216661D01*
X122711506Y-38239467D01*
X122608894Y-38298710D01*
X122525110Y-38382494D01*
X122465867Y-38485106D01*
X122443061Y-38570214D01*
X121734132Y-37861285D01*
X121734131Y-37861285D01*
X121720019Y-37880710D01*
X121664690Y-37923377D01*
X121595076Y-37929357D01*
X121533281Y-37896751D01*
X121498923Y-37835913D01*
X121495700Y-37807826D01*
X121495700Y-37734123D01*
X121495699Y-37734121D01*
X121481167Y-37661064D01*
X121481166Y-37661060D01*
X121467330Y-37640353D01*
X121425801Y-37578199D01*
X121342940Y-37522834D01*
X121342939Y-37522833D01*
X121342935Y-37522832D01*
X121269877Y-37508300D01*
X121269874Y-37508300D01*
X119420526Y-37508300D01*
X119420523Y-37508300D01*
X119347464Y-37522832D01*
X119347460Y-37522833D01*
X119264599Y-37578199D01*
X119209233Y-37661060D01*
X119209232Y-37661064D01*
X119194700Y-37734121D01*
X113155838Y-37734121D01*
X113074197Y-37674806D01*
X113074196Y-37674805D01*
X113074194Y-37674804D01*
X112974253Y-37623881D01*
X112912839Y-37592588D01*
X112912836Y-37592587D01*
X112740610Y-37536629D01*
X112561751Y-37508300D01*
X112561746Y-37508300D01*
X112380654Y-37508300D01*
X112380649Y-37508300D01*
X112201789Y-37536629D01*
X112029563Y-37592587D01*
X112029560Y-37592588D01*
X111868202Y-37674806D01*
X111721705Y-37781241D01*
X111721700Y-37781245D01*
X111593645Y-37909300D01*
X111593641Y-37909305D01*
X111487206Y-38055802D01*
X111404988Y-38217160D01*
X111404987Y-38217163D01*
X111349029Y-38389389D01*
X111328173Y-38521066D01*
X111298244Y-38584201D01*
X111238932Y-38621132D01*
X111169069Y-38620134D01*
X111110837Y-38581524D01*
X111082723Y-38517560D01*
X111081700Y-38501668D01*
X111081700Y-37734123D01*
X111081699Y-37734121D01*
X111067167Y-37661064D01*
X111067166Y-37661060D01*
X111053330Y-37640353D01*
X111011801Y-37578199D01*
X110928940Y-37522834D01*
X110928939Y-37522833D01*
X110928935Y-37522832D01*
X110855877Y-37508300D01*
X110855874Y-37508300D01*
X109006526Y-37508300D01*
X109006523Y-37508300D01*
X108933464Y-37522832D01*
X108933460Y-37522833D01*
X108850599Y-37578199D01*
X108795233Y-37661060D01*
X108795232Y-37661064D01*
X108780700Y-37734121D01*
X95511325Y-37734121D01*
X95605093Y-37640353D01*
X95737713Y-37507732D01*
X95673956Y-37461411D01*
X95477610Y-37361367D01*
X95268035Y-37293273D01*
X95050381Y-37258800D01*
X94830019Y-37258800D01*
X94612364Y-37293273D01*
X94402789Y-37361367D01*
X94206433Y-37461416D01*
X94142685Y-37507731D01*
X94142685Y-37507732D01*
X94851614Y-38216661D01*
X94766506Y-38239467D01*
X94663894Y-38298710D01*
X94580110Y-38382494D01*
X94520867Y-38485106D01*
X94498061Y-38570214D01*
X93789132Y-37861285D01*
X93789131Y-37861285D01*
X93775019Y-37880710D01*
X93719690Y-37923377D01*
X93650076Y-37929357D01*
X93588281Y-37896751D01*
X93553923Y-37835913D01*
X93550700Y-37807826D01*
X93550700Y-37734123D01*
X93550699Y-37734121D01*
X93536167Y-37661064D01*
X93536166Y-37661060D01*
X93522330Y-37640353D01*
X93480801Y-37578199D01*
X93397940Y-37522834D01*
X93397939Y-37522833D01*
X93397935Y-37522832D01*
X93324877Y-37508300D01*
X93324874Y-37508300D01*
X91475526Y-37508300D01*
X91475523Y-37508300D01*
X91402464Y-37522832D01*
X91402460Y-37522833D01*
X91319599Y-37578199D01*
X91264233Y-37661060D01*
X91264232Y-37661064D01*
X91249700Y-37734121D01*
X85215838Y-37734121D01*
X85134197Y-37674806D01*
X85134196Y-37674805D01*
X85134194Y-37674804D01*
X85034253Y-37623881D01*
X84972839Y-37592588D01*
X84972836Y-37592587D01*
X84800610Y-37536629D01*
X84621751Y-37508300D01*
X84621746Y-37508300D01*
X84440654Y-37508300D01*
X84440649Y-37508300D01*
X84261789Y-37536629D01*
X84089563Y-37592587D01*
X84089560Y-37592588D01*
X83928202Y-37674806D01*
X83781705Y-37781241D01*
X83781700Y-37781245D01*
X83653645Y-37909300D01*
X83653641Y-37909305D01*
X83547206Y-38055802D01*
X83464988Y-38217160D01*
X83464987Y-38217163D01*
X83409029Y-38389389D01*
X83388173Y-38521066D01*
X83358244Y-38584201D01*
X83298932Y-38621132D01*
X83229069Y-38620134D01*
X83170837Y-38581524D01*
X83142723Y-38517560D01*
X83141700Y-38501668D01*
X83141700Y-37734123D01*
X83141699Y-37734121D01*
X83127167Y-37661064D01*
X83127166Y-37661060D01*
X83113330Y-37640353D01*
X83071801Y-37578199D01*
X82988940Y-37522834D01*
X82988939Y-37522833D01*
X82988935Y-37522832D01*
X82915877Y-37508300D01*
X82915874Y-37508300D01*
X81066526Y-37508300D01*
X81066523Y-37508300D01*
X80993464Y-37522832D01*
X80993460Y-37522833D01*
X80910599Y-37578199D01*
X80855233Y-37661060D01*
X80855232Y-37661064D01*
X80840700Y-37734121D01*
X76592413Y-37734121D01*
X76797912Y-37585792D01*
X76800884Y-37583713D01*
X77897224Y-36840989D01*
X77900201Y-36839036D01*
X79018166Y-36129276D01*
X79021255Y-36127379D01*
X80159828Y-35451227D01*
X80162943Y-35449439D01*
X81321125Y-34807485D01*
X81324320Y-34805775D01*
X82501183Y-34198539D01*
X82504350Y-34196966D01*
X83698688Y-33625068D01*
X83701983Y-33623550D01*
X84912826Y-33087454D01*
X84916147Y-33086042D01*
X86142415Y-32586225D01*
X86145796Y-32584906D01*
X87386375Y-32121823D01*
X87389735Y-32120625D01*
X88643629Y-31694649D01*
X88647050Y-31693543D01*
X89912979Y-31305109D01*
X89916518Y-31304082D01*
X91193386Y-30953519D01*
X91196924Y-30952603D01*
X92483789Y-30640175D01*
X92487273Y-30639385D01*
X93782815Y-30365412D01*
X93786387Y-30364712D01*
X95089516Y-30129425D01*
X95093080Y-30128836D01*
X96402656Y-29932441D01*
X96406224Y-29931961D01*
X97721042Y-29774637D01*
X97724672Y-29774258D01*
X99043577Y-29656145D01*
X99047226Y-29655874D01*
X100369023Y-29577076D01*
X100372674Y-29576912D01*
X101696242Y-29537496D01*
X101699933Y-29537442D01*
X103024067Y-29537442D01*
X103027757Y-29537496D01*
G37*
%TD.AperFunction*%
%TD*%
M02*
