%TF.GenerationSoftware,KiCad,Pcbnew,10.0.3*%
%TF.CreationDate,2026-06-30T21:44:05+05:30*%
%TF.ProjectId,schema,73636865-6d61-42e6-9b69-6361645f7063,rev?*%
%TF.SameCoordinates,Original*%
%TF.FileFunction,Legend,Top*%
%TF.FilePolarity,Positive*%
%FSLAX46Y46*%
G04 Gerber Fmt 4.6, Leading zero omitted, Abs format (unit mm)*
G04 Created by KiCad (PCBNEW 10.0.3) date 2026-06-30 21:44:05*
%MOMM*%
%LPD*%
G01*
G04 APERTURE LIST*
%ADD10C,0.150000*%
%ADD11C,0.120000*%
%ADD12C,0.127000*%
%ADD13C,0.200000*%
G04 APERTURE END LIST*
D10*
X121824761Y-35198057D02*
X121729523Y-35150438D01*
X121729523Y-35150438D02*
X121634285Y-35055200D01*
X121634285Y-35055200D02*
X121491428Y-34912342D01*
X121491428Y-34912342D02*
X121396190Y-34864723D01*
X121396190Y-34864723D02*
X121300952Y-34864723D01*
X121348571Y-35102819D02*
X121253333Y-35055200D01*
X121253333Y-35055200D02*
X121158095Y-34959961D01*
X121158095Y-34959961D02*
X121110476Y-34769485D01*
X121110476Y-34769485D02*
X121110476Y-34436152D01*
X121110476Y-34436152D02*
X121158095Y-34245676D01*
X121158095Y-34245676D02*
X121253333Y-34150438D01*
X121253333Y-34150438D02*
X121348571Y-34102819D01*
X121348571Y-34102819D02*
X121539047Y-34102819D01*
X121539047Y-34102819D02*
X121634285Y-34150438D01*
X121634285Y-34150438D02*
X121729523Y-34245676D01*
X121729523Y-34245676D02*
X121777142Y-34436152D01*
X121777142Y-34436152D02*
X121777142Y-34769485D01*
X121777142Y-34769485D02*
X121729523Y-34959961D01*
X121729523Y-34959961D02*
X121634285Y-35055200D01*
X121634285Y-35055200D02*
X121539047Y-35102819D01*
X121539047Y-35102819D02*
X121348571Y-35102819D01*
X122110476Y-34102819D02*
X122729523Y-34102819D01*
X122729523Y-34102819D02*
X122396190Y-34483771D01*
X122396190Y-34483771D02*
X122539047Y-34483771D01*
X122539047Y-34483771D02*
X122634285Y-34531390D01*
X122634285Y-34531390D02*
X122681904Y-34579009D01*
X122681904Y-34579009D02*
X122729523Y-34674247D01*
X122729523Y-34674247D02*
X122729523Y-34912342D01*
X122729523Y-34912342D02*
X122681904Y-35007580D01*
X122681904Y-35007580D02*
X122634285Y-35055200D01*
X122634285Y-35055200D02*
X122539047Y-35102819D01*
X122539047Y-35102819D02*
X122253333Y-35102819D01*
X122253333Y-35102819D02*
X122158095Y-35055200D01*
X122158095Y-35055200D02*
X122110476Y-35007580D01*
X64427525Y-56345400D02*
X63720419Y-55638293D01*
X63720419Y-55638293D02*
X63888777Y-55469934D01*
X63888777Y-55469934D02*
X64023464Y-55402591D01*
X64023464Y-55402591D02*
X64158151Y-55402591D01*
X64158151Y-55402591D02*
X64259167Y-55436263D01*
X64259167Y-55436263D02*
X64427525Y-55537278D01*
X64427525Y-55537278D02*
X64528541Y-55638293D01*
X64528541Y-55638293D02*
X64629556Y-55806652D01*
X64629556Y-55806652D02*
X64663228Y-55907667D01*
X64663228Y-55907667D02*
X64663228Y-56042354D01*
X64663228Y-56042354D02*
X64595884Y-56177041D01*
X64595884Y-56177041D02*
X64427525Y-56345400D01*
X65505021Y-55267904D02*
X65100960Y-55671965D01*
X65302991Y-55469934D02*
X64595884Y-54762828D01*
X64595884Y-54762828D02*
X64629556Y-54931186D01*
X64629556Y-54931186D02*
X64629556Y-55065873D01*
X64629556Y-55065873D02*
X64595884Y-55166889D01*
X114641580Y-74608666D02*
X114689200Y-74656285D01*
X114689200Y-74656285D02*
X114736819Y-74799142D01*
X114736819Y-74799142D02*
X114736819Y-74894380D01*
X114736819Y-74894380D02*
X114689200Y-75037237D01*
X114689200Y-75037237D02*
X114593961Y-75132475D01*
X114593961Y-75132475D02*
X114498723Y-75180094D01*
X114498723Y-75180094D02*
X114308247Y-75227713D01*
X114308247Y-75227713D02*
X114165390Y-75227713D01*
X114165390Y-75227713D02*
X113974914Y-75180094D01*
X113974914Y-75180094D02*
X113879676Y-75132475D01*
X113879676Y-75132475D02*
X113784438Y-75037237D01*
X113784438Y-75037237D02*
X113736819Y-74894380D01*
X113736819Y-74894380D02*
X113736819Y-74799142D01*
X113736819Y-74799142D02*
X113784438Y-74656285D01*
X113784438Y-74656285D02*
X113832057Y-74608666D01*
X113736819Y-74275332D02*
X113736819Y-73656285D01*
X113736819Y-73656285D02*
X114117771Y-73989618D01*
X114117771Y-73989618D02*
X114117771Y-73846761D01*
X114117771Y-73846761D02*
X114165390Y-73751523D01*
X114165390Y-73751523D02*
X114213009Y-73703904D01*
X114213009Y-73703904D02*
X114308247Y-73656285D01*
X114308247Y-73656285D02*
X114546342Y-73656285D01*
X114546342Y-73656285D02*
X114641580Y-73703904D01*
X114641580Y-73703904D02*
X114689200Y-73751523D01*
X114689200Y-73751523D02*
X114736819Y-73846761D01*
X114736819Y-73846761D02*
X114736819Y-74132475D01*
X114736819Y-74132475D02*
X114689200Y-74227713D01*
X114689200Y-74227713D02*
X114641580Y-74275332D01*
X110613580Y-104306666D02*
X110661200Y-104354285D01*
X110661200Y-104354285D02*
X110708819Y-104497142D01*
X110708819Y-104497142D02*
X110708819Y-104592380D01*
X110708819Y-104592380D02*
X110661200Y-104735237D01*
X110661200Y-104735237D02*
X110565961Y-104830475D01*
X110565961Y-104830475D02*
X110470723Y-104878094D01*
X110470723Y-104878094D02*
X110280247Y-104925713D01*
X110280247Y-104925713D02*
X110137390Y-104925713D01*
X110137390Y-104925713D02*
X109946914Y-104878094D01*
X109946914Y-104878094D02*
X109851676Y-104830475D01*
X109851676Y-104830475D02*
X109756438Y-104735237D01*
X109756438Y-104735237D02*
X109708819Y-104592380D01*
X109708819Y-104592380D02*
X109708819Y-104497142D01*
X109708819Y-104497142D02*
X109756438Y-104354285D01*
X109756438Y-104354285D02*
X109804057Y-104306666D01*
X110708819Y-103354285D02*
X110708819Y-103925713D01*
X110708819Y-103639999D02*
X109708819Y-103639999D01*
X109708819Y-103639999D02*
X109851676Y-103735237D01*
X109851676Y-103735237D02*
X109946914Y-103830475D01*
X109946914Y-103830475D02*
X109994533Y-103925713D01*
X98403580Y-106144067D02*
X98451200Y-106191686D01*
X98451200Y-106191686D02*
X98498819Y-106334543D01*
X98498819Y-106334543D02*
X98498819Y-106429781D01*
X98498819Y-106429781D02*
X98451200Y-106572638D01*
X98451200Y-106572638D02*
X98355961Y-106667876D01*
X98355961Y-106667876D02*
X98260723Y-106715495D01*
X98260723Y-106715495D02*
X98070247Y-106763114D01*
X98070247Y-106763114D02*
X97927390Y-106763114D01*
X97927390Y-106763114D02*
X97736914Y-106715495D01*
X97736914Y-106715495D02*
X97641676Y-106667876D01*
X97641676Y-106667876D02*
X97546438Y-106572638D01*
X97546438Y-106572638D02*
X97498819Y-106429781D01*
X97498819Y-106429781D02*
X97498819Y-106334543D01*
X97498819Y-106334543D02*
X97546438Y-106191686D01*
X97546438Y-106191686D02*
X97594057Y-106144067D01*
X97594057Y-105763114D02*
X97546438Y-105715495D01*
X97546438Y-105715495D02*
X97498819Y-105620257D01*
X97498819Y-105620257D02*
X97498819Y-105382162D01*
X97498819Y-105382162D02*
X97546438Y-105286924D01*
X97546438Y-105286924D02*
X97594057Y-105239305D01*
X97594057Y-105239305D02*
X97689295Y-105191686D01*
X97689295Y-105191686D02*
X97784533Y-105191686D01*
X97784533Y-105191686D02*
X97927390Y-105239305D01*
X97927390Y-105239305D02*
X98498819Y-105810733D01*
X98498819Y-105810733D02*
X98498819Y-105191686D01*
X96694666Y-65146819D02*
X96694666Y-65861104D01*
X96694666Y-65861104D02*
X96647047Y-66003961D01*
X96647047Y-66003961D02*
X96551809Y-66099200D01*
X96551809Y-66099200D02*
X96408952Y-66146819D01*
X96408952Y-66146819D02*
X96313714Y-66146819D01*
X97694666Y-66146819D02*
X97123238Y-66146819D01*
X97408952Y-66146819D02*
X97408952Y-65146819D01*
X97408952Y-65146819D02*
X97313714Y-65289676D01*
X97313714Y-65289676D02*
X97218476Y-65384914D01*
X97218476Y-65384914D02*
X97123238Y-65432533D01*
X83688819Y-98345523D02*
X84403104Y-98345523D01*
X84403104Y-98345523D02*
X84545961Y-98393142D01*
X84545961Y-98393142D02*
X84641200Y-98488380D01*
X84641200Y-98488380D02*
X84688819Y-98631237D01*
X84688819Y-98631237D02*
X84688819Y-98726475D01*
X84688819Y-97345523D02*
X84688819Y-97916951D01*
X84688819Y-97631237D02*
X83688819Y-97631237D01*
X83688819Y-97631237D02*
X83831676Y-97726475D01*
X83831676Y-97726475D02*
X83926914Y-97821713D01*
X83926914Y-97821713D02*
X83974533Y-97916951D01*
X83784057Y-96964570D02*
X83736438Y-96916951D01*
X83736438Y-96916951D02*
X83688819Y-96821713D01*
X83688819Y-96821713D02*
X83688819Y-96583618D01*
X83688819Y-96583618D02*
X83736438Y-96488380D01*
X83736438Y-96488380D02*
X83784057Y-96440761D01*
X83784057Y-96440761D02*
X83879295Y-96393142D01*
X83879295Y-96393142D02*
X83974533Y-96393142D01*
X83974533Y-96393142D02*
X84117390Y-96440761D01*
X84117390Y-96440761D02*
X84688819Y-97012189D01*
X84688819Y-97012189D02*
X84688819Y-96393142D01*
X83688819Y-93755523D02*
X84403104Y-93755523D01*
X84403104Y-93755523D02*
X84545961Y-93803142D01*
X84545961Y-93803142D02*
X84641200Y-93898380D01*
X84641200Y-93898380D02*
X84688819Y-94041237D01*
X84688819Y-94041237D02*
X84688819Y-94136475D01*
X84688819Y-92755523D02*
X84688819Y-93326951D01*
X84688819Y-93041237D02*
X83688819Y-93041237D01*
X83688819Y-93041237D02*
X83831676Y-93136475D01*
X83831676Y-93136475D02*
X83926914Y-93231713D01*
X83926914Y-93231713D02*
X83974533Y-93326951D01*
X83688819Y-92422189D02*
X83688819Y-91803142D01*
X83688819Y-91803142D02*
X84069771Y-92136475D01*
X84069771Y-92136475D02*
X84069771Y-91993618D01*
X84069771Y-91993618D02*
X84117390Y-91898380D01*
X84117390Y-91898380D02*
X84165009Y-91850761D01*
X84165009Y-91850761D02*
X84260247Y-91803142D01*
X84260247Y-91803142D02*
X84498342Y-91803142D01*
X84498342Y-91803142D02*
X84593580Y-91850761D01*
X84593580Y-91850761D02*
X84641200Y-91898380D01*
X84641200Y-91898380D02*
X84688819Y-91993618D01*
X84688819Y-91993618D02*
X84688819Y-92279332D01*
X84688819Y-92279332D02*
X84641200Y-92374570D01*
X84641200Y-92374570D02*
X84593580Y-92422189D01*
X87746819Y-52744666D02*
X87270628Y-53077999D01*
X87746819Y-53316094D02*
X86746819Y-53316094D01*
X86746819Y-53316094D02*
X86746819Y-52935142D01*
X86746819Y-52935142D02*
X86794438Y-52839904D01*
X86794438Y-52839904D02*
X86842057Y-52792285D01*
X86842057Y-52792285D02*
X86937295Y-52744666D01*
X86937295Y-52744666D02*
X87080152Y-52744666D01*
X87080152Y-52744666D02*
X87175390Y-52792285D01*
X87175390Y-52792285D02*
X87223009Y-52839904D01*
X87223009Y-52839904D02*
X87270628Y-52935142D01*
X87270628Y-52935142D02*
X87270628Y-53316094D01*
X86842057Y-52363713D02*
X86794438Y-52316094D01*
X86794438Y-52316094D02*
X86746819Y-52220856D01*
X86746819Y-52220856D02*
X86746819Y-51982761D01*
X86746819Y-51982761D02*
X86794438Y-51887523D01*
X86794438Y-51887523D02*
X86842057Y-51839904D01*
X86842057Y-51839904D02*
X86937295Y-51792285D01*
X86937295Y-51792285D02*
X87032533Y-51792285D01*
X87032533Y-51792285D02*
X87175390Y-51839904D01*
X87175390Y-51839904D02*
X87746819Y-52411332D01*
X87746819Y-52411332D02*
X87746819Y-51792285D01*
X119242819Y-50966666D02*
X118766628Y-51299999D01*
X119242819Y-51538094D02*
X118242819Y-51538094D01*
X118242819Y-51538094D02*
X118242819Y-51157142D01*
X118242819Y-51157142D02*
X118290438Y-51061904D01*
X118290438Y-51061904D02*
X118338057Y-51014285D01*
X118338057Y-51014285D02*
X118433295Y-50966666D01*
X118433295Y-50966666D02*
X118576152Y-50966666D01*
X118576152Y-50966666D02*
X118671390Y-51014285D01*
X118671390Y-51014285D02*
X118719009Y-51061904D01*
X118719009Y-51061904D02*
X118766628Y-51157142D01*
X118766628Y-51157142D02*
X118766628Y-51538094D01*
X119242819Y-50490475D02*
X119242819Y-50299999D01*
X119242819Y-50299999D02*
X119195200Y-50204761D01*
X119195200Y-50204761D02*
X119147580Y-50157142D01*
X119147580Y-50157142D02*
X119004723Y-50061904D01*
X119004723Y-50061904D02*
X118814247Y-50014285D01*
X118814247Y-50014285D02*
X118433295Y-50014285D01*
X118433295Y-50014285D02*
X118338057Y-50061904D01*
X118338057Y-50061904D02*
X118290438Y-50109523D01*
X118290438Y-50109523D02*
X118242819Y-50204761D01*
X118242819Y-50204761D02*
X118242819Y-50395237D01*
X118242819Y-50395237D02*
X118290438Y-50490475D01*
X118290438Y-50490475D02*
X118338057Y-50538094D01*
X118338057Y-50538094D02*
X118433295Y-50585713D01*
X118433295Y-50585713D02*
X118671390Y-50585713D01*
X118671390Y-50585713D02*
X118766628Y-50538094D01*
X118766628Y-50538094D02*
X118814247Y-50490475D01*
X118814247Y-50490475D02*
X118861866Y-50395237D01*
X118861866Y-50395237D02*
X118861866Y-50204761D01*
X118861866Y-50204761D02*
X118814247Y-50109523D01*
X118814247Y-50109523D02*
X118766628Y-50061904D01*
X118766628Y-50061904D02*
X118671390Y-50014285D01*
X133720819Y-71000857D02*
X133244628Y-71334190D01*
X133720819Y-71572285D02*
X132720819Y-71572285D01*
X132720819Y-71572285D02*
X132720819Y-71191333D01*
X132720819Y-71191333D02*
X132768438Y-71096095D01*
X132768438Y-71096095D02*
X132816057Y-71048476D01*
X132816057Y-71048476D02*
X132911295Y-71000857D01*
X132911295Y-71000857D02*
X133054152Y-71000857D01*
X133054152Y-71000857D02*
X133149390Y-71048476D01*
X133149390Y-71048476D02*
X133197009Y-71096095D01*
X133197009Y-71096095D02*
X133244628Y-71191333D01*
X133244628Y-71191333D02*
X133244628Y-71572285D01*
X133720819Y-70048476D02*
X133720819Y-70619904D01*
X133720819Y-70334190D02*
X132720819Y-70334190D01*
X132720819Y-70334190D02*
X132863676Y-70429428D01*
X132863676Y-70429428D02*
X132958914Y-70524666D01*
X132958914Y-70524666D02*
X133006533Y-70619904D01*
X132720819Y-69429428D02*
X132720819Y-69334190D01*
X132720819Y-69334190D02*
X132768438Y-69238952D01*
X132768438Y-69238952D02*
X132816057Y-69191333D01*
X132816057Y-69191333D02*
X132911295Y-69143714D01*
X132911295Y-69143714D02*
X133101771Y-69096095D01*
X133101771Y-69096095D02*
X133339866Y-69096095D01*
X133339866Y-69096095D02*
X133530342Y-69143714D01*
X133530342Y-69143714D02*
X133625580Y-69191333D01*
X133625580Y-69191333D02*
X133673200Y-69238952D01*
X133673200Y-69238952D02*
X133720819Y-69334190D01*
X133720819Y-69334190D02*
X133720819Y-69429428D01*
X133720819Y-69429428D02*
X133673200Y-69524666D01*
X133673200Y-69524666D02*
X133625580Y-69572285D01*
X133625580Y-69572285D02*
X133530342Y-69619904D01*
X133530342Y-69619904D02*
X133339866Y-69667523D01*
X133339866Y-69667523D02*
X133101771Y-69667523D01*
X133101771Y-69667523D02*
X132911295Y-69619904D01*
X132911295Y-69619904D02*
X132816057Y-69572285D01*
X132816057Y-69572285D02*
X132768438Y-69524666D01*
X132768438Y-69524666D02*
X132720819Y-69429428D01*
X128132819Y-70778666D02*
X127656628Y-71111999D01*
X128132819Y-71350094D02*
X127132819Y-71350094D01*
X127132819Y-71350094D02*
X127132819Y-70969142D01*
X127132819Y-70969142D02*
X127180438Y-70873904D01*
X127180438Y-70873904D02*
X127228057Y-70826285D01*
X127228057Y-70826285D02*
X127323295Y-70778666D01*
X127323295Y-70778666D02*
X127466152Y-70778666D01*
X127466152Y-70778666D02*
X127561390Y-70826285D01*
X127561390Y-70826285D02*
X127609009Y-70873904D01*
X127609009Y-70873904D02*
X127656628Y-70969142D01*
X127656628Y-70969142D02*
X127656628Y-71350094D01*
X127466152Y-69921523D02*
X128132819Y-69921523D01*
X127085200Y-70159618D02*
X127799485Y-70397713D01*
X127799485Y-70397713D02*
X127799485Y-69778666D01*
X92064819Y-52998666D02*
X91588628Y-53331999D01*
X92064819Y-53570094D02*
X91064819Y-53570094D01*
X91064819Y-53570094D02*
X91064819Y-53189142D01*
X91064819Y-53189142D02*
X91112438Y-53093904D01*
X91112438Y-53093904D02*
X91160057Y-53046285D01*
X91160057Y-53046285D02*
X91255295Y-52998666D01*
X91255295Y-52998666D02*
X91398152Y-52998666D01*
X91398152Y-52998666D02*
X91493390Y-53046285D01*
X91493390Y-53046285D02*
X91541009Y-53093904D01*
X91541009Y-53093904D02*
X91588628Y-53189142D01*
X91588628Y-53189142D02*
X91588628Y-53570094D01*
X91493390Y-52427237D02*
X91445771Y-52522475D01*
X91445771Y-52522475D02*
X91398152Y-52570094D01*
X91398152Y-52570094D02*
X91302914Y-52617713D01*
X91302914Y-52617713D02*
X91255295Y-52617713D01*
X91255295Y-52617713D02*
X91160057Y-52570094D01*
X91160057Y-52570094D02*
X91112438Y-52522475D01*
X91112438Y-52522475D02*
X91064819Y-52427237D01*
X91064819Y-52427237D02*
X91064819Y-52236761D01*
X91064819Y-52236761D02*
X91112438Y-52141523D01*
X91112438Y-52141523D02*
X91160057Y-52093904D01*
X91160057Y-52093904D02*
X91255295Y-52046285D01*
X91255295Y-52046285D02*
X91302914Y-52046285D01*
X91302914Y-52046285D02*
X91398152Y-52093904D01*
X91398152Y-52093904D02*
X91445771Y-52141523D01*
X91445771Y-52141523D02*
X91493390Y-52236761D01*
X91493390Y-52236761D02*
X91493390Y-52427237D01*
X91493390Y-52427237D02*
X91541009Y-52522475D01*
X91541009Y-52522475D02*
X91588628Y-52570094D01*
X91588628Y-52570094D02*
X91683866Y-52617713D01*
X91683866Y-52617713D02*
X91874342Y-52617713D01*
X91874342Y-52617713D02*
X91969580Y-52570094D01*
X91969580Y-52570094D02*
X92017200Y-52522475D01*
X92017200Y-52522475D02*
X92064819Y-52427237D01*
X92064819Y-52427237D02*
X92064819Y-52236761D01*
X92064819Y-52236761D02*
X92017200Y-52141523D01*
X92017200Y-52141523D02*
X91969580Y-52093904D01*
X91969580Y-52093904D02*
X91874342Y-52046285D01*
X91874342Y-52046285D02*
X91683866Y-52046285D01*
X91683866Y-52046285D02*
X91588628Y-52093904D01*
X91588628Y-52093904D02*
X91541009Y-52141523D01*
X91541009Y-52141523D02*
X91493390Y-52236761D01*
X76316819Y-69000666D02*
X75840628Y-69333999D01*
X76316819Y-69572094D02*
X75316819Y-69572094D01*
X75316819Y-69572094D02*
X75316819Y-69191142D01*
X75316819Y-69191142D02*
X75364438Y-69095904D01*
X75364438Y-69095904D02*
X75412057Y-69048285D01*
X75412057Y-69048285D02*
X75507295Y-69000666D01*
X75507295Y-69000666D02*
X75650152Y-69000666D01*
X75650152Y-69000666D02*
X75745390Y-69048285D01*
X75745390Y-69048285D02*
X75793009Y-69095904D01*
X75793009Y-69095904D02*
X75840628Y-69191142D01*
X75840628Y-69191142D02*
X75840628Y-69572094D01*
X75316819Y-68667332D02*
X75316819Y-68000666D01*
X75316819Y-68000666D02*
X76316819Y-68429237D01*
X117689333Y-84190819D02*
X117356000Y-83714628D01*
X117117905Y-84190819D02*
X117117905Y-83190819D01*
X117117905Y-83190819D02*
X117498857Y-83190819D01*
X117498857Y-83190819D02*
X117594095Y-83238438D01*
X117594095Y-83238438D02*
X117641714Y-83286057D01*
X117641714Y-83286057D02*
X117689333Y-83381295D01*
X117689333Y-83381295D02*
X117689333Y-83524152D01*
X117689333Y-83524152D02*
X117641714Y-83619390D01*
X117641714Y-83619390D02*
X117594095Y-83667009D01*
X117594095Y-83667009D02*
X117498857Y-83714628D01*
X117498857Y-83714628D02*
X117117905Y-83714628D01*
X118594095Y-83190819D02*
X118117905Y-83190819D01*
X118117905Y-83190819D02*
X118070286Y-83667009D01*
X118070286Y-83667009D02*
X118117905Y-83619390D01*
X118117905Y-83619390D02*
X118213143Y-83571771D01*
X118213143Y-83571771D02*
X118451238Y-83571771D01*
X118451238Y-83571771D02*
X118546476Y-83619390D01*
X118546476Y-83619390D02*
X118594095Y-83667009D01*
X118594095Y-83667009D02*
X118641714Y-83762247D01*
X118641714Y-83762247D02*
X118641714Y-84000342D01*
X118641714Y-84000342D02*
X118594095Y-84095580D01*
X118594095Y-84095580D02*
X118546476Y-84143200D01*
X118546476Y-84143200D02*
X118451238Y-84190819D01*
X118451238Y-84190819D02*
X118213143Y-84190819D01*
X118213143Y-84190819D02*
X118117905Y-84143200D01*
X118117905Y-84143200D02*
X118070286Y-84095580D01*
X71236819Y-69000666D02*
X70760628Y-69333999D01*
X71236819Y-69572094D02*
X70236819Y-69572094D01*
X70236819Y-69572094D02*
X70236819Y-69191142D01*
X70236819Y-69191142D02*
X70284438Y-69095904D01*
X70284438Y-69095904D02*
X70332057Y-69048285D01*
X70332057Y-69048285D02*
X70427295Y-69000666D01*
X70427295Y-69000666D02*
X70570152Y-69000666D01*
X70570152Y-69000666D02*
X70665390Y-69048285D01*
X70665390Y-69048285D02*
X70713009Y-69095904D01*
X70713009Y-69095904D02*
X70760628Y-69191142D01*
X70760628Y-69191142D02*
X70760628Y-69572094D01*
X71236819Y-68048285D02*
X71236819Y-68619713D01*
X71236819Y-68333999D02*
X70236819Y-68333999D01*
X70236819Y-68333999D02*
X70379676Y-68429237D01*
X70379676Y-68429237D02*
X70474914Y-68524475D01*
X70474914Y-68524475D02*
X70522533Y-68619713D01*
X132167333Y-85460819D02*
X131834000Y-84984628D01*
X131595905Y-85460819D02*
X131595905Y-84460819D01*
X131595905Y-84460819D02*
X131976857Y-84460819D01*
X131976857Y-84460819D02*
X132072095Y-84508438D01*
X132072095Y-84508438D02*
X132119714Y-84556057D01*
X132119714Y-84556057D02*
X132167333Y-84651295D01*
X132167333Y-84651295D02*
X132167333Y-84794152D01*
X132167333Y-84794152D02*
X132119714Y-84889390D01*
X132119714Y-84889390D02*
X132072095Y-84937009D01*
X132072095Y-84937009D02*
X131976857Y-84984628D01*
X131976857Y-84984628D02*
X131595905Y-84984628D01*
X133024476Y-84460819D02*
X132834000Y-84460819D01*
X132834000Y-84460819D02*
X132738762Y-84508438D01*
X132738762Y-84508438D02*
X132691143Y-84556057D01*
X132691143Y-84556057D02*
X132595905Y-84698914D01*
X132595905Y-84698914D02*
X132548286Y-84889390D01*
X132548286Y-84889390D02*
X132548286Y-85270342D01*
X132548286Y-85270342D02*
X132595905Y-85365580D01*
X132595905Y-85365580D02*
X132643524Y-85413200D01*
X132643524Y-85413200D02*
X132738762Y-85460819D01*
X132738762Y-85460819D02*
X132929238Y-85460819D01*
X132929238Y-85460819D02*
X133024476Y-85413200D01*
X133024476Y-85413200D02*
X133072095Y-85365580D01*
X133072095Y-85365580D02*
X133119714Y-85270342D01*
X133119714Y-85270342D02*
X133119714Y-85032247D01*
X133119714Y-85032247D02*
X133072095Y-84937009D01*
X133072095Y-84937009D02*
X133024476Y-84889390D01*
X133024476Y-84889390D02*
X132929238Y-84841771D01*
X132929238Y-84841771D02*
X132738762Y-84841771D01*
X132738762Y-84841771D02*
X132643524Y-84889390D01*
X132643524Y-84889390D02*
X132595905Y-84937009D01*
X132595905Y-84937009D02*
X132548286Y-85032247D01*
X114162819Y-51220666D02*
X113686628Y-51553999D01*
X114162819Y-51792094D02*
X113162819Y-51792094D01*
X113162819Y-51792094D02*
X113162819Y-51411142D01*
X113162819Y-51411142D02*
X113210438Y-51315904D01*
X113210438Y-51315904D02*
X113258057Y-51268285D01*
X113258057Y-51268285D02*
X113353295Y-51220666D01*
X113353295Y-51220666D02*
X113496152Y-51220666D01*
X113496152Y-51220666D02*
X113591390Y-51268285D01*
X113591390Y-51268285D02*
X113639009Y-51315904D01*
X113639009Y-51315904D02*
X113686628Y-51411142D01*
X113686628Y-51411142D02*
X113686628Y-51792094D01*
X113162819Y-50887332D02*
X113162819Y-50268285D01*
X113162819Y-50268285D02*
X113543771Y-50601618D01*
X113543771Y-50601618D02*
X113543771Y-50458761D01*
X113543771Y-50458761D02*
X113591390Y-50363523D01*
X113591390Y-50363523D02*
X113639009Y-50315904D01*
X113639009Y-50315904D02*
X113734247Y-50268285D01*
X113734247Y-50268285D02*
X113972342Y-50268285D01*
X113972342Y-50268285D02*
X114067580Y-50315904D01*
X114067580Y-50315904D02*
X114115200Y-50363523D01*
X114115200Y-50363523D02*
X114162819Y-50458761D01*
X114162819Y-50458761D02*
X114162819Y-50744475D01*
X114162819Y-50744475D02*
X114115200Y-50839713D01*
X114115200Y-50839713D02*
X114067580Y-50887332D01*
X102282666Y-122898819D02*
X102282666Y-123613104D01*
X102282666Y-123613104D02*
X102235047Y-123755961D01*
X102235047Y-123755961D02*
X102139809Y-123851200D01*
X102139809Y-123851200D02*
X101996952Y-123898819D01*
X101996952Y-123898819D02*
X101901714Y-123898819D01*
X103187428Y-122898819D02*
X102996952Y-122898819D01*
X102996952Y-122898819D02*
X102901714Y-122946438D01*
X102901714Y-122946438D02*
X102854095Y-122994057D01*
X102854095Y-122994057D02*
X102758857Y-123136914D01*
X102758857Y-123136914D02*
X102711238Y-123327390D01*
X102711238Y-123327390D02*
X102711238Y-123708342D01*
X102711238Y-123708342D02*
X102758857Y-123803580D01*
X102758857Y-123803580D02*
X102806476Y-123851200D01*
X102806476Y-123851200D02*
X102901714Y-123898819D01*
X102901714Y-123898819D02*
X103092190Y-123898819D01*
X103092190Y-123898819D02*
X103187428Y-123851200D01*
X103187428Y-123851200D02*
X103235047Y-123803580D01*
X103235047Y-123803580D02*
X103282666Y-123708342D01*
X103282666Y-123708342D02*
X103282666Y-123470247D01*
X103282666Y-123470247D02*
X103235047Y-123375009D01*
X103235047Y-123375009D02*
X103187428Y-123327390D01*
X103187428Y-123327390D02*
X103092190Y-123279771D01*
X103092190Y-123279771D02*
X102901714Y-123279771D01*
X102901714Y-123279771D02*
X102806476Y-123327390D01*
X102806476Y-123327390D02*
X102758857Y-123375009D01*
X102758857Y-123375009D02*
X102711238Y-123470247D01*
X140150476Y-75204819D02*
X140150476Y-75919104D01*
X140150476Y-75919104D02*
X140102857Y-76061961D01*
X140102857Y-76061961D02*
X140007619Y-76157200D01*
X140007619Y-76157200D02*
X139864762Y-76204819D01*
X139864762Y-76204819D02*
X139769524Y-76204819D01*
X141150476Y-76204819D02*
X140579048Y-76204819D01*
X140864762Y-76204819D02*
X140864762Y-75204819D01*
X140864762Y-75204819D02*
X140769524Y-75347676D01*
X140769524Y-75347676D02*
X140674286Y-75442914D01*
X140674286Y-75442914D02*
X140579048Y-75490533D01*
X142102857Y-76204819D02*
X141531429Y-76204819D01*
X141817143Y-76204819D02*
X141817143Y-75204819D01*
X141817143Y-75204819D02*
X141721905Y-75347676D01*
X141721905Y-75347676D02*
X141626667Y-75442914D01*
X141626667Y-75442914D02*
X141531429Y-75490533D01*
X83081905Y-35356819D02*
X83081905Y-34356819D01*
X83081905Y-34356819D02*
X83320000Y-34356819D01*
X83320000Y-34356819D02*
X83462857Y-34404438D01*
X83462857Y-34404438D02*
X83558095Y-34499676D01*
X83558095Y-34499676D02*
X83605714Y-34594914D01*
X83605714Y-34594914D02*
X83653333Y-34785390D01*
X83653333Y-34785390D02*
X83653333Y-34928247D01*
X83653333Y-34928247D02*
X83605714Y-35118723D01*
X83605714Y-35118723D02*
X83558095Y-35213961D01*
X83558095Y-35213961D02*
X83462857Y-35309200D01*
X83462857Y-35309200D02*
X83320000Y-35356819D01*
X83320000Y-35356819D02*
X83081905Y-35356819D01*
X84034286Y-34452057D02*
X84081905Y-34404438D01*
X84081905Y-34404438D02*
X84177143Y-34356819D01*
X84177143Y-34356819D02*
X84415238Y-34356819D01*
X84415238Y-34356819D02*
X84510476Y-34404438D01*
X84510476Y-34404438D02*
X84558095Y-34452057D01*
X84558095Y-34452057D02*
X84605714Y-34547295D01*
X84605714Y-34547295D02*
X84605714Y-34642533D01*
X84605714Y-34642533D02*
X84558095Y-34785390D01*
X84558095Y-34785390D02*
X83986667Y-35356819D01*
X83986667Y-35356819D02*
X84605714Y-35356819D01*
X140891824Y-57583437D02*
X140858152Y-57482422D01*
X140858152Y-57482422D02*
X140858152Y-57347735D01*
X140858152Y-57347735D02*
X140858152Y-57145704D01*
X140858152Y-57145704D02*
X140824480Y-57044689D01*
X140824480Y-57044689D02*
X140757137Y-56977346D01*
X140622450Y-57179376D02*
X140588778Y-57078361D01*
X140588778Y-57078361D02*
X140588778Y-56943674D01*
X140588778Y-56943674D02*
X140689793Y-56775315D01*
X140689793Y-56775315D02*
X140925496Y-56539613D01*
X140925496Y-56539613D02*
X141093854Y-56438598D01*
X141093854Y-56438598D02*
X141228541Y-56438598D01*
X141228541Y-56438598D02*
X141329557Y-56472269D01*
X141329557Y-56472269D02*
X141464244Y-56606956D01*
X141464244Y-56606956D02*
X141497915Y-56707972D01*
X141497915Y-56707972D02*
X141497915Y-56842659D01*
X141497915Y-56842659D02*
X141396900Y-57011017D01*
X141396900Y-57011017D02*
X141161198Y-57246720D01*
X141161198Y-57246720D02*
X140992839Y-57347735D01*
X140992839Y-57347735D02*
X140858152Y-57347735D01*
X140858152Y-57347735D02*
X140757137Y-57314063D01*
X140757137Y-57314063D02*
X140622450Y-57179376D01*
X142002992Y-57617109D02*
X141531587Y-58088513D01*
X142104007Y-57179376D02*
X141430572Y-57516094D01*
X141430572Y-57516094D02*
X141868305Y-57953826D01*
X133900599Y-51219525D02*
X134607706Y-50512419D01*
X134607706Y-50512419D02*
X134776065Y-50680777D01*
X134776065Y-50680777D02*
X134843408Y-50815464D01*
X134843408Y-50815464D02*
X134843408Y-50950151D01*
X134843408Y-50950151D02*
X134809736Y-51051167D01*
X134809736Y-51051167D02*
X134708721Y-51219525D01*
X134708721Y-51219525D02*
X134607706Y-51320541D01*
X134607706Y-51320541D02*
X134439347Y-51421556D01*
X134439347Y-51421556D02*
X134338332Y-51455228D01*
X134338332Y-51455228D02*
X134203645Y-51455228D01*
X134203645Y-51455228D02*
X134068958Y-51387884D01*
X134068958Y-51387884D02*
X133900599Y-51219525D01*
X135382156Y-51758273D02*
X134910752Y-52229678D01*
X135483171Y-51320541D02*
X134809736Y-51657258D01*
X134809736Y-51657258D02*
X135247469Y-52094991D01*
X71299437Y-49354175D02*
X71198422Y-49387847D01*
X71198422Y-49387847D02*
X71063735Y-49387847D01*
X71063735Y-49387847D02*
X70861704Y-49387847D01*
X70861704Y-49387847D02*
X70760689Y-49421519D01*
X70760689Y-49421519D02*
X70693346Y-49488862D01*
X70895376Y-49623549D02*
X70794361Y-49657221D01*
X70794361Y-49657221D02*
X70659674Y-49657221D01*
X70659674Y-49657221D02*
X70491315Y-49556206D01*
X70491315Y-49556206D02*
X70255613Y-49320503D01*
X70255613Y-49320503D02*
X70154598Y-49152145D01*
X70154598Y-49152145D02*
X70154598Y-49017458D01*
X70154598Y-49017458D02*
X70188269Y-48916442D01*
X70188269Y-48916442D02*
X70322956Y-48781755D01*
X70322956Y-48781755D02*
X70423972Y-48748084D01*
X70423972Y-48748084D02*
X70558659Y-48748084D01*
X70558659Y-48748084D02*
X70727017Y-48849099D01*
X70727017Y-48849099D02*
X70962720Y-49084801D01*
X70962720Y-49084801D02*
X71063735Y-49253160D01*
X71063735Y-49253160D02*
X71063735Y-49387847D01*
X71063735Y-49387847D02*
X71030063Y-49488862D01*
X71030063Y-49488862D02*
X70895376Y-49623549D01*
X71871857Y-48647068D02*
X71467796Y-49051129D01*
X71669826Y-48849099D02*
X70962720Y-48141992D01*
X70962720Y-48141992D02*
X70996391Y-48310351D01*
X70996391Y-48310351D02*
X70996391Y-48445038D01*
X70996391Y-48445038D02*
X70962720Y-48546053D01*
X113307905Y-35102819D02*
X113307905Y-34102819D01*
X113307905Y-34102819D02*
X113546000Y-34102819D01*
X113546000Y-34102819D02*
X113688857Y-34150438D01*
X113688857Y-34150438D02*
X113784095Y-34245676D01*
X113784095Y-34245676D02*
X113831714Y-34340914D01*
X113831714Y-34340914D02*
X113879333Y-34531390D01*
X113879333Y-34531390D02*
X113879333Y-34674247D01*
X113879333Y-34674247D02*
X113831714Y-34864723D01*
X113831714Y-34864723D02*
X113784095Y-34959961D01*
X113784095Y-34959961D02*
X113688857Y-35055200D01*
X113688857Y-35055200D02*
X113546000Y-35102819D01*
X113546000Y-35102819D02*
X113307905Y-35102819D01*
X114212667Y-34102819D02*
X114831714Y-34102819D01*
X114831714Y-34102819D02*
X114498381Y-34483771D01*
X114498381Y-34483771D02*
X114641238Y-34483771D01*
X114641238Y-34483771D02*
X114736476Y-34531390D01*
X114736476Y-34531390D02*
X114784095Y-34579009D01*
X114784095Y-34579009D02*
X114831714Y-34674247D01*
X114831714Y-34674247D02*
X114831714Y-34912342D01*
X114831714Y-34912342D02*
X114784095Y-35007580D01*
X114784095Y-35007580D02*
X114736476Y-35055200D01*
X114736476Y-35055200D02*
X114641238Y-35102819D01*
X114641238Y-35102819D02*
X114355524Y-35102819D01*
X114355524Y-35102819D02*
X114260286Y-35055200D01*
X114260286Y-35055200D02*
X114212667Y-35007580D01*
X93376761Y-35198057D02*
X93281523Y-35150438D01*
X93281523Y-35150438D02*
X93186285Y-35055200D01*
X93186285Y-35055200D02*
X93043428Y-34912342D01*
X93043428Y-34912342D02*
X92948190Y-34864723D01*
X92948190Y-34864723D02*
X92852952Y-34864723D01*
X92900571Y-35102819D02*
X92805333Y-35055200D01*
X92805333Y-35055200D02*
X92710095Y-34959961D01*
X92710095Y-34959961D02*
X92662476Y-34769485D01*
X92662476Y-34769485D02*
X92662476Y-34436152D01*
X92662476Y-34436152D02*
X92710095Y-34245676D01*
X92710095Y-34245676D02*
X92805333Y-34150438D01*
X92805333Y-34150438D02*
X92900571Y-34102819D01*
X92900571Y-34102819D02*
X93091047Y-34102819D01*
X93091047Y-34102819D02*
X93186285Y-34150438D01*
X93186285Y-34150438D02*
X93281523Y-34245676D01*
X93281523Y-34245676D02*
X93329142Y-34436152D01*
X93329142Y-34436152D02*
X93329142Y-34769485D01*
X93329142Y-34769485D02*
X93281523Y-34959961D01*
X93281523Y-34959961D02*
X93186285Y-35055200D01*
X93186285Y-35055200D02*
X93091047Y-35102819D01*
X93091047Y-35102819D02*
X92900571Y-35102819D01*
X93710095Y-34198057D02*
X93757714Y-34150438D01*
X93757714Y-34150438D02*
X93852952Y-34102819D01*
X93852952Y-34102819D02*
X94091047Y-34102819D01*
X94091047Y-34102819D02*
X94186285Y-34150438D01*
X94186285Y-34150438D02*
X94233904Y-34198057D01*
X94233904Y-34198057D02*
X94281523Y-34293295D01*
X94281523Y-34293295D02*
X94281523Y-34388533D01*
X94281523Y-34388533D02*
X94233904Y-34531390D01*
X94233904Y-34531390D02*
X93662476Y-35102819D01*
X93662476Y-35102819D02*
X94281523Y-35102819D01*
X109988476Y-65146819D02*
X109988476Y-65861104D01*
X109988476Y-65861104D02*
X109940857Y-66003961D01*
X109940857Y-66003961D02*
X109845619Y-66099200D01*
X109845619Y-66099200D02*
X109702762Y-66146819D01*
X109702762Y-66146819D02*
X109607524Y-66146819D01*
X110988476Y-66146819D02*
X110417048Y-66146819D01*
X110702762Y-66146819D02*
X110702762Y-65146819D01*
X110702762Y-65146819D02*
X110607524Y-65289676D01*
X110607524Y-65289676D02*
X110512286Y-65384914D01*
X110512286Y-65384914D02*
X110417048Y-65432533D01*
X111845619Y-65480152D02*
X111845619Y-66146819D01*
X111607524Y-65099200D02*
X111369429Y-65813485D01*
X111369429Y-65813485D02*
X111988476Y-65813485D01*
X65960666Y-72458819D02*
X65960666Y-73173104D01*
X65960666Y-73173104D02*
X65913047Y-73315961D01*
X65913047Y-73315961D02*
X65817809Y-73411200D01*
X65817809Y-73411200D02*
X65674952Y-73458819D01*
X65674952Y-73458819D02*
X65579714Y-73458819D01*
X66913047Y-72458819D02*
X66436857Y-72458819D01*
X66436857Y-72458819D02*
X66389238Y-72935009D01*
X66389238Y-72935009D02*
X66436857Y-72887390D01*
X66436857Y-72887390D02*
X66532095Y-72839771D01*
X66532095Y-72839771D02*
X66770190Y-72839771D01*
X66770190Y-72839771D02*
X66865428Y-72887390D01*
X66865428Y-72887390D02*
X66913047Y-72935009D01*
X66913047Y-72935009D02*
X66960666Y-73030247D01*
X66960666Y-73030247D02*
X66960666Y-73268342D01*
X66960666Y-73268342D02*
X66913047Y-73363580D01*
X66913047Y-73363580D02*
X66865428Y-73411200D01*
X66865428Y-73411200D02*
X66770190Y-73458819D01*
X66770190Y-73458819D02*
X66532095Y-73458819D01*
X66532095Y-73458819D02*
X66436857Y-73411200D01*
X66436857Y-73411200D02*
X66389238Y-73363580D01*
X126110476Y-77591819D02*
X126110476Y-78306104D01*
X126110476Y-78306104D02*
X126062857Y-78448961D01*
X126062857Y-78448961D02*
X125967619Y-78544200D01*
X125967619Y-78544200D02*
X125824762Y-78591819D01*
X125824762Y-78591819D02*
X125729524Y-78591819D01*
X127110476Y-78591819D02*
X126539048Y-78591819D01*
X126824762Y-78591819D02*
X126824762Y-77591819D01*
X126824762Y-77591819D02*
X126729524Y-77734676D01*
X126729524Y-77734676D02*
X126634286Y-77829914D01*
X126634286Y-77829914D02*
X126539048Y-77877533D01*
X128015238Y-77591819D02*
X127539048Y-77591819D01*
X127539048Y-77591819D02*
X127491429Y-78068009D01*
X127491429Y-78068009D02*
X127539048Y-78020390D01*
X127539048Y-78020390D02*
X127634286Y-77972771D01*
X127634286Y-77972771D02*
X127872381Y-77972771D01*
X127872381Y-77972771D02*
X127967619Y-78020390D01*
X127967619Y-78020390D02*
X128015238Y-78068009D01*
X128015238Y-78068009D02*
X128062857Y-78163247D01*
X128062857Y-78163247D02*
X128062857Y-78401342D01*
X128062857Y-78401342D02*
X128015238Y-78496580D01*
X128015238Y-78496580D02*
X127967619Y-78544200D01*
X127967619Y-78544200D02*
X127872381Y-78591819D01*
X127872381Y-78591819D02*
X127634286Y-78591819D01*
X127634286Y-78591819D02*
X127539048Y-78544200D01*
X127539048Y-78544200D02*
X127491429Y-78496580D01*
X80184666Y-103754819D02*
X80184666Y-104469104D01*
X80184666Y-104469104D02*
X80137047Y-104611961D01*
X80137047Y-104611961D02*
X80041809Y-104707200D01*
X80041809Y-104707200D02*
X79898952Y-104754819D01*
X79898952Y-104754819D02*
X79803714Y-104754819D01*
X80565619Y-103754819D02*
X81184666Y-103754819D01*
X81184666Y-103754819D02*
X80851333Y-104135771D01*
X80851333Y-104135771D02*
X80994190Y-104135771D01*
X80994190Y-104135771D02*
X81089428Y-104183390D01*
X81089428Y-104183390D02*
X81137047Y-104231009D01*
X81137047Y-104231009D02*
X81184666Y-104326247D01*
X81184666Y-104326247D02*
X81184666Y-104564342D01*
X81184666Y-104564342D02*
X81137047Y-104659580D01*
X81137047Y-104659580D02*
X81089428Y-104707200D01*
X81089428Y-104707200D02*
X80994190Y-104754819D01*
X80994190Y-104754819D02*
X80708476Y-104754819D01*
X80708476Y-104754819D02*
X80613238Y-104707200D01*
X80613238Y-104707200D02*
X80565619Y-104659580D01*
X122094666Y-102992819D02*
X122094666Y-103707104D01*
X122094666Y-103707104D02*
X122047047Y-103849961D01*
X122047047Y-103849961D02*
X121951809Y-103945200D01*
X121951809Y-103945200D02*
X121808952Y-103992819D01*
X121808952Y-103992819D02*
X121713714Y-103992819D01*
X122999428Y-103326152D02*
X122999428Y-103992819D01*
X122761333Y-102945200D02*
X122523238Y-103659485D01*
X122523238Y-103659485D02*
X123142285Y-103659485D01*
%TO.C,Q3*%
D11*
X119360000Y-37063000D02*
X119360000Y-40153000D01*
X119360000Y-37063170D02*
G75*
G02*
X124910000Y-38608000I2560000J-1544830D01*
G01*
X124910000Y-38608000D02*
G75*
G02*
X119360000Y-40152830I-2990000J0D01*
G01*
X124420000Y-38608000D02*
G75*
G02*
X119420000Y-38608000I-2500000J0D01*
G01*
X119420000Y-38608000D02*
G75*
G02*
X124420000Y-38608000I2500000J0D01*
G01*
%TO.C,D1*%
X64525301Y-59019739D02*
X66710261Y-61204699D01*
X64525421Y-59019859D02*
G75*
G02*
X69542225Y-56187775I2902554J717834D01*
G01*
X69542224Y-56187776D02*
G75*
G02*
X66710141Y-61204578I-2114249J-2114249D01*
G01*
X69927975Y-58302025D02*
G75*
G02*
X64927975Y-58302025I-2500000J0D01*
G01*
X64927975Y-58302025D02*
G75*
G02*
X69927975Y-58302025I2500000J0D01*
G01*
%TO.C,C3*%
X115412000Y-75207000D02*
X115412000Y-73677000D01*
X117252000Y-73677000D02*
X117252000Y-75207000D01*
%TO.C,C1*%
X107284000Y-104905000D02*
X107284000Y-103375000D01*
X109124000Y-103375000D02*
X109124000Y-104905000D01*
%TO.C,C2*%
X102450000Y-103918000D02*
G75*
G02*
X98210000Y-103918000I-2120000J0D01*
G01*
X98210000Y-103918000D02*
G75*
G02*
X102450000Y-103918000I2120000J0D01*
G01*
X99960000Y-101838000D02*
X100700000Y-101838000D01*
X99793000Y-101878000D02*
X100867000Y-101878000D01*
X99667000Y-101918000D02*
X100993000Y-101918000D01*
X99562000Y-101958000D02*
X101098000Y-101958000D01*
X99471000Y-101998000D02*
X101189000Y-101998000D01*
X99390000Y-102038000D02*
X101270000Y-102038000D01*
X99317000Y-102078000D02*
X101343000Y-102078000D01*
X99250000Y-102118000D02*
X101410000Y-102118000D01*
X99188000Y-102158000D02*
X101472000Y-102158000D01*
X99131000Y-102198000D02*
X101529000Y-102198000D01*
X99077000Y-102238000D02*
X101583000Y-102238000D01*
X99027000Y-102278000D02*
X101633000Y-102278000D01*
X98979000Y-102318000D02*
X101681000Y-102318000D01*
X101170000Y-102358000D02*
X101726000Y-102358000D01*
X98934000Y-102358000D02*
X99490000Y-102358000D01*
X101170000Y-102398000D02*
X101768000Y-102398000D01*
X98892000Y-102398000D02*
X99490000Y-102398000D01*
X101170000Y-102438000D02*
X101808000Y-102438000D01*
X98852000Y-102438000D02*
X99490000Y-102438000D01*
X101170000Y-102478000D02*
X101846000Y-102478000D01*
X98814000Y-102478000D02*
X99490000Y-102478000D01*
X101170000Y-102518000D02*
X101882000Y-102518000D01*
X98778000Y-102518000D02*
X99490000Y-102518000D01*
X101170000Y-102558000D02*
X101916000Y-102558000D01*
X98744000Y-102558000D02*
X99490000Y-102558000D01*
X101170000Y-102598000D02*
X101949000Y-102598000D01*
X98711000Y-102598000D02*
X99490000Y-102598000D01*
X101170000Y-102638000D02*
X101980000Y-102638000D01*
X98680000Y-102638000D02*
X99490000Y-102638000D01*
X101170000Y-102678000D02*
X102010000Y-102678000D01*
X98650000Y-102678000D02*
X99490000Y-102678000D01*
X101170000Y-102718000D02*
X102038000Y-102718000D01*
X98622000Y-102718000D02*
X99490000Y-102718000D01*
X101170000Y-102758000D02*
X102064000Y-102758000D01*
X98596000Y-102758000D02*
X99490000Y-102758000D01*
X101170000Y-102798000D02*
X102090000Y-102798000D01*
X98570000Y-102798000D02*
X99490000Y-102798000D01*
X101170000Y-102838000D02*
X102114000Y-102838000D01*
X98546000Y-102838000D02*
X99490000Y-102838000D01*
X101170000Y-102878000D02*
X102137000Y-102878000D01*
X98523000Y-102878000D02*
X99490000Y-102878000D01*
X101170000Y-102918000D02*
X102159000Y-102918000D01*
X98501000Y-102918000D02*
X99490000Y-102918000D01*
X101170000Y-102958000D02*
X102180000Y-102958000D01*
X98480000Y-102958000D02*
X99490000Y-102958000D01*
X101170000Y-102998000D02*
X102200000Y-102998000D01*
X98460000Y-102998000D02*
X99490000Y-102998000D01*
X101170000Y-103038000D02*
X102219000Y-103038000D01*
X98441000Y-103038000D02*
X99490000Y-103038000D01*
X101170000Y-103078000D02*
X102236000Y-103078000D01*
X98424000Y-103078000D02*
X99490000Y-103078000D01*
X101170000Y-103118000D02*
X102253000Y-103118000D01*
X98407000Y-103118000D02*
X99490000Y-103118000D01*
X101170000Y-103158000D02*
X102269000Y-103158000D01*
X98391000Y-103158000D02*
X99490000Y-103158000D01*
X101170000Y-103198000D02*
X102284000Y-103198000D01*
X98376000Y-103198000D02*
X99490000Y-103198000D01*
X101170000Y-103238000D02*
X102298000Y-103238000D01*
X98362000Y-103238000D02*
X99490000Y-103238000D01*
X101170000Y-103278000D02*
X102311000Y-103278000D01*
X98349000Y-103278000D02*
X99490000Y-103278000D01*
X101170000Y-103318000D02*
X102323000Y-103318000D01*
X98337000Y-103318000D02*
X99490000Y-103318000D01*
X101170000Y-103358000D02*
X102335000Y-103358000D01*
X98325000Y-103358000D02*
X99490000Y-103358000D01*
X101170000Y-103398000D02*
X102345000Y-103398000D01*
X98315000Y-103398000D02*
X99490000Y-103398000D01*
X101170000Y-103438000D02*
X102355000Y-103438000D01*
X98305000Y-103438000D02*
X99490000Y-103438000D01*
X101170000Y-103478000D02*
X102364000Y-103478000D01*
X98296000Y-103478000D02*
X99490000Y-103478000D01*
X101170000Y-103518000D02*
X102372000Y-103518000D01*
X98288000Y-103518000D02*
X99490000Y-103518000D01*
X101170000Y-103558000D02*
X102379000Y-103558000D01*
X98281000Y-103558000D02*
X99490000Y-103558000D01*
X101170000Y-103598000D02*
X102386000Y-103598000D01*
X98274000Y-103598000D02*
X99490000Y-103598000D01*
X101170000Y-103638000D02*
X102391000Y-103638000D01*
X98269000Y-103638000D02*
X99490000Y-103638000D01*
X101170000Y-103678000D02*
X102396000Y-103678000D01*
X98264000Y-103678000D02*
X99490000Y-103678000D01*
X101170000Y-103718000D02*
X102401000Y-103718000D01*
X98259000Y-103718000D02*
X99490000Y-103718000D01*
X101170000Y-103758000D02*
X102404000Y-103758000D01*
X98256000Y-103758000D02*
X99490000Y-103758000D01*
X101170000Y-103798000D02*
X102407000Y-103798000D01*
X98253000Y-103798000D02*
X99490000Y-103798000D01*
X101170000Y-103838000D02*
X102408000Y-103838000D01*
X98252000Y-103838000D02*
X99490000Y-103838000D01*
X101170000Y-103878000D02*
X102410000Y-103878000D01*
X98250000Y-103878000D02*
X99490000Y-103878000D01*
X101170000Y-103918000D02*
X102410000Y-103918000D01*
X98250000Y-103918000D02*
X99490000Y-103918000D01*
X98935000Y-105987801D02*
X99335000Y-105987801D01*
X99135000Y-106187801D02*
X99135000Y-105787801D01*
%TO.C,J1*%
X95648000Y-66692000D02*
X97028000Y-66692000D01*
X95648000Y-68072000D02*
X95648000Y-66692000D01*
X95648000Y-69342000D02*
X95648000Y-82152000D01*
X95648000Y-69342000D02*
X98408000Y-69342000D01*
X95648000Y-82152000D02*
X98408000Y-82152000D01*
X98408000Y-69342000D02*
X98408000Y-82152000D01*
%TO.C,J12*%
X85234000Y-98916000D02*
X85234000Y-97536000D01*
X86614000Y-98916000D02*
X85234000Y-98916000D01*
X87884000Y-98916000D02*
X123554000Y-98916000D01*
X87884000Y-98916000D02*
X87884000Y-96156000D01*
X123554000Y-98916000D02*
X123554000Y-96156000D01*
X87884000Y-96156000D02*
X123554000Y-96156000D01*
%TO.C,J13*%
X85234000Y-94326000D02*
X85234000Y-92946000D01*
X86614000Y-94326000D02*
X85234000Y-94326000D01*
X87884000Y-94326000D02*
X123554000Y-94326000D01*
X87884000Y-94326000D02*
X87884000Y-91566000D01*
X123554000Y-94326000D02*
X123554000Y-91566000D01*
X87884000Y-91566000D02*
X123554000Y-91566000D01*
%TO.C,R2*%
X88292000Y-55848000D02*
X88292000Y-49308000D01*
X88622000Y-55848000D02*
X88292000Y-55848000D01*
X90702000Y-55848000D02*
X91032000Y-55848000D01*
X91032000Y-55848000D02*
X91032000Y-49308000D01*
X88292000Y-49308000D02*
X88622000Y-49308000D01*
X91032000Y-49308000D02*
X90702000Y-49308000D01*
%TO.C,R9*%
X119788000Y-54070000D02*
X119788000Y-47530000D01*
X120118000Y-54070000D02*
X119788000Y-54070000D01*
X122198000Y-54070000D02*
X122528000Y-54070000D01*
X122528000Y-54070000D02*
X122528000Y-47530000D01*
X119788000Y-47530000D02*
X120118000Y-47530000D01*
X122528000Y-47530000D02*
X122198000Y-47530000D01*
%TO.C,R10*%
X134266000Y-73628000D02*
X134266000Y-67088000D01*
X134596000Y-73628000D02*
X134266000Y-73628000D01*
X136676000Y-73628000D02*
X137006000Y-73628000D01*
X137006000Y-73628000D02*
X137006000Y-67088000D01*
X134266000Y-67088000D02*
X134596000Y-67088000D01*
X137006000Y-67088000D02*
X136676000Y-67088000D01*
%TO.C,R4*%
X128678000Y-73882000D02*
X128678000Y-67342000D01*
X129008000Y-73882000D02*
X128678000Y-73882000D01*
X131088000Y-73882000D02*
X131418000Y-73882000D01*
X131418000Y-73882000D02*
X131418000Y-67342000D01*
X128678000Y-67342000D02*
X129008000Y-67342000D01*
X131418000Y-67342000D02*
X131088000Y-67342000D01*
%TO.C,R8*%
X92610000Y-56102000D02*
X92610000Y-49562000D01*
X92940000Y-56102000D02*
X92610000Y-56102000D01*
X95020000Y-56102000D02*
X95350000Y-56102000D01*
X95350000Y-56102000D02*
X95350000Y-49562000D01*
X92610000Y-49562000D02*
X92940000Y-49562000D01*
X95350000Y-49562000D02*
X95020000Y-49562000D01*
%TO.C,R7*%
X76862000Y-72104000D02*
X76862000Y-65564000D01*
X77192000Y-72104000D02*
X76862000Y-72104000D01*
X79272000Y-72104000D02*
X79602000Y-72104000D01*
X79602000Y-72104000D02*
X79602000Y-65564000D01*
X76862000Y-65564000D02*
X77192000Y-65564000D01*
X79602000Y-65564000D02*
X79272000Y-65564000D01*
%TO.C,R5*%
X114586000Y-84736000D02*
X121126000Y-84736000D01*
X114586000Y-85066000D02*
X114586000Y-84736000D01*
X114586000Y-87146000D02*
X114586000Y-87476000D01*
X114586000Y-87476000D02*
X121126000Y-87476000D01*
X121126000Y-84736000D02*
X121126000Y-85066000D01*
X121126000Y-87476000D02*
X121126000Y-87146000D01*
%TO.C,R1*%
X71782000Y-72104000D02*
X71782000Y-65564000D01*
X72112000Y-72104000D02*
X71782000Y-72104000D01*
X74192000Y-72104000D02*
X74522000Y-72104000D01*
X74522000Y-72104000D02*
X74522000Y-65564000D01*
X71782000Y-65564000D02*
X72112000Y-65564000D01*
X74522000Y-65564000D02*
X74192000Y-65564000D01*
%TO.C,R6*%
X129064000Y-86006000D02*
X135604000Y-86006000D01*
X129064000Y-86336000D02*
X129064000Y-86006000D01*
X129064000Y-88416000D02*
X129064000Y-88746000D01*
X129064000Y-88746000D02*
X135604000Y-88746000D01*
X135604000Y-86006000D02*
X135604000Y-86336000D01*
X135604000Y-88746000D02*
X135604000Y-88416000D01*
%TO.C,R3*%
X114708000Y-54324000D02*
X114708000Y-47784000D01*
X115038000Y-54324000D02*
X114708000Y-54324000D01*
X117118000Y-54324000D02*
X117448000Y-54324000D01*
X117448000Y-54324000D02*
X117448000Y-47784000D01*
X114708000Y-47784000D02*
X115038000Y-47784000D01*
X117448000Y-47784000D02*
X117118000Y-47784000D01*
%TO.C,J6*%
X123055307Y-136709206D02*
G75*
G02*
X115055307Y-136709206I-4000000J0D01*
G01*
X115055307Y-136709206D02*
G75*
G02*
X123055307Y-136709206I4000000J0D01*
G01*
X118185000Y-144399000D02*
G75*
G02*
X114987000Y-144399000I-1599000J0D01*
G01*
X114987000Y-144399000D02*
G75*
G02*
X118185000Y-144399000I1599000J0D01*
G01*
X113093397Y-139689796D02*
G75*
G02*
X102593397Y-139689796I-5250000J0D01*
G01*
X102593397Y-139689796D02*
G75*
G02*
X113093397Y-139689796I5250000J0D01*
G01*
X91074179Y-135408594D02*
G75*
G02*
X90324179Y-135408594I-375000J0D01*
G01*
X90324179Y-135408594D02*
G75*
G02*
X91074179Y-135408594I375000J0D01*
G01*
X87704999Y-127889000D02*
G75*
G02*
X84507001Y-127889000I-1598999J0D01*
G01*
X84507001Y-127889000D02*
G75*
G02*
X87704999Y-127889000I1598999J0D01*
G01*
X87672666Y-136211418D02*
G75*
G02*
X79672666Y-136211418I-4000000J0D01*
G01*
X79672666Y-136211418D02*
G75*
G02*
X87672666Y-136211418I4000000J0D01*
G01*
X114325783Y-130836294D02*
G75*
G02*
X114275783Y-130886283I-49983J-6D01*
G01*
X114275783Y-125886295D02*
G75*
G02*
X114325805Y-125936295I17J-50005D01*
G01*
X114193397Y-144539796D02*
G75*
G02*
X112693397Y-146039797I-1499997J-4D01*
G01*
X112879663Y-142659583D02*
G75*
G02*
X112845555Y-142525398I52937J84883D01*
G01*
X112879662Y-142659582D02*
G75*
G02*
X110813182Y-144726062I-793622J-1272858D01*
G01*
X112845577Y-136854184D02*
G75*
G02*
X112879680Y-136720039I87023J49284D01*
G01*
X112845576Y-136854183D02*
G75*
G02*
X112845579Y-142525412I-5002176J-2835617D01*
G01*
X112693397Y-133339796D02*
G75*
G02*
X114193404Y-134839796I3J-1500004D01*
G01*
X110813183Y-134653531D02*
G75*
G02*
X112879667Y-136720018I1272817J-793669D01*
G01*
X110813183Y-134653531D02*
G75*
G02*
X110678998Y-134687641I-84883J52931D01*
G01*
X110679011Y-144691976D02*
G75*
G02*
X110813162Y-144726075I49289J-87024D01*
G01*
X110679011Y-144691976D02*
G75*
G02*
X105007783Y-144691976I-2835614J5002180D01*
G01*
X105350148Y-127716527D02*
G75*
G02*
X105362385Y-127767690I1075652J230227D01*
G01*
X105007784Y-134687617D02*
G75*
G02*
X110679011Y-134687617I2835614J-5002178D01*
G01*
X105007783Y-134687617D02*
G75*
G02*
X104873641Y-134653512I-49283J87017D01*
G01*
X104873611Y-144726062D02*
G75*
G02*
X105007799Y-144691947I84889J-52938D01*
G01*
X104873611Y-144726062D02*
G75*
G02*
X102807137Y-142659590I-1272811J793662D01*
G01*
X104375783Y-130886294D02*
G75*
G02*
X104325806Y-130836294I17J49994D01*
G01*
X104325783Y-125936295D02*
G75*
G02*
X104375783Y-125886283I50017J-5D01*
G01*
X102993397Y-146039796D02*
G75*
G02*
X101493404Y-144539796I3J1499996D01*
G01*
X102841218Y-142525410D02*
G75*
G02*
X102841221Y-136854185I5002182J2835610D01*
G01*
X102841217Y-142525409D02*
G75*
G02*
X102807118Y-142659560I-87017J-49291D01*
G01*
X102807132Y-136720011D02*
G75*
G02*
X104873611Y-134653531I793628J1272851D01*
G01*
X102807131Y-136720010D02*
G75*
G02*
X102841249Y-136854200I-52931J-84890D01*
G01*
X101493397Y-134839796D02*
G75*
G02*
X102993397Y-133339797I1500003J-4D01*
G01*
X94307636Y-145837217D02*
G75*
G02*
X94207636Y-145937236I-100036J17D01*
G01*
X94207636Y-143437217D02*
G75*
G02*
X94307583Y-143537217I-36J-99983D01*
G01*
X90607636Y-145937217D02*
G75*
G02*
X90507583Y-145837217I-36J100017D01*
G01*
X90507636Y-143537217D02*
G75*
G02*
X90607636Y-143437236I99964J17D01*
G01*
X123221000Y-146869000D02*
X123221000Y-125419000D01*
X123221000Y-125419000D02*
X79471000Y-125419000D01*
X120086000Y-146614000D02*
X123201000Y-146614000D01*
X120086000Y-146614000D02*
X120086000Y-143454000D01*
X120086000Y-143454000D02*
X123201000Y-143454000D01*
X120086000Y-128834000D02*
X123246000Y-128834000D01*
X120086000Y-128834000D02*
X120086000Y-125674000D01*
X120086000Y-125674000D02*
X123201000Y-125674000D01*
X118474681Y-128234295D02*
X117674681Y-128234295D01*
X118474681Y-127914295D02*
X117674681Y-127914295D01*
X118474681Y-126634296D02*
X118474681Y-128234295D01*
X118474681Y-126634296D02*
X117674681Y-126634296D01*
X117674681Y-128234295D02*
X117674681Y-126634296D01*
X117674681Y-126954296D02*
X118474681Y-126954296D01*
X114325783Y-125936295D02*
X114325783Y-130836294D01*
X114275783Y-130886294D02*
X104375783Y-130886294D01*
X114193397Y-144539796D02*
X114193397Y-134839796D01*
X112968312Y-125885295D02*
X112934357Y-125885295D01*
X112884978Y-125885295D02*
X112840106Y-125885295D01*
X112693397Y-133339796D02*
X102993397Y-133339796D01*
X107465014Y-127236295D02*
X105386553Y-127236295D01*
X105386553Y-127736294D02*
X107465014Y-127736294D01*
X105374594Y-127261294D02*
X105386553Y-127236295D01*
X105374594Y-127261294D02*
X105381764Y-127230075D01*
X105374594Y-127261294D02*
X105350147Y-127256062D01*
X105362385Y-127204900D02*
X105386553Y-127236295D01*
X104375783Y-125886295D02*
X114275783Y-125886295D01*
X104325783Y-130836294D02*
X104325783Y-125936295D01*
X102993397Y-146039796D02*
X112693397Y-146039796D01*
X101493397Y-134839796D02*
X101493397Y-144539796D01*
X99936233Y-136243106D02*
X99936233Y-126891610D01*
X99936233Y-127680670D02*
X89776233Y-127680670D01*
X99858670Y-136320670D02*
X99936233Y-136243106D01*
X98676233Y-140950670D02*
X98676233Y-136320670D01*
X98286233Y-126600671D02*
X99936233Y-126891610D01*
X97836233Y-140950670D02*
X98676233Y-140950670D01*
X97836233Y-140950670D02*
X97836233Y-136320670D01*
X96976233Y-140950670D02*
X96976233Y-136320670D01*
X96136233Y-140950670D02*
X96976233Y-140950670D01*
X96136233Y-140950670D02*
X96136233Y-136320670D01*
X95276233Y-140950670D02*
X95276233Y-136320670D01*
X94757636Y-145562217D02*
X94307636Y-145562217D01*
X94757636Y-143812217D02*
X94757636Y-145562217D01*
X94436233Y-140950670D02*
X95276233Y-140950670D01*
X94436233Y-140950670D02*
X94436233Y-136320670D01*
X94308636Y-144048696D02*
X94308636Y-143954144D01*
X94307636Y-143812217D02*
X94757636Y-143812217D01*
X94307636Y-143537217D02*
X94307636Y-145837217D01*
X94207636Y-145937217D02*
X90607636Y-145937217D01*
X93576233Y-140950670D02*
X93576233Y-136320670D01*
X93437358Y-143537217D02*
X93437358Y-145837217D01*
X92736233Y-140950670D02*
X93576233Y-140950670D01*
X92736233Y-140950670D02*
X92736233Y-136320670D01*
X91876233Y-140950670D02*
X91876233Y-136320670D01*
X91426233Y-126600671D02*
X98286233Y-126600671D01*
X91036233Y-140950670D02*
X91876233Y-140950670D01*
X91036233Y-140950670D02*
X91036233Y-136320670D01*
X90607636Y-143437217D02*
X94207636Y-143437217D01*
X90507636Y-145837217D02*
X90507636Y-143537217D01*
X90507636Y-145562217D02*
X90057636Y-145562217D01*
X90057636Y-145562217D02*
X90057636Y-143812217D01*
X90057636Y-143812217D02*
X90507636Y-143812217D01*
X89853797Y-136320670D02*
X99858670Y-136320670D01*
X89776233Y-136243106D02*
X89853797Y-136320670D01*
X89776233Y-136243106D02*
X89776233Y-126891610D01*
X89776233Y-126891610D02*
X91426233Y-126600671D01*
X89775233Y-128258149D02*
X89775233Y-128419687D01*
X82606000Y-143454000D02*
X82606000Y-146614000D01*
X82606000Y-128524000D02*
X82606000Y-128834000D01*
X79476000Y-146614000D02*
X82606000Y-146614000D01*
X79476000Y-143454000D02*
X82606000Y-143454000D01*
X79476000Y-128829000D02*
X82606000Y-128834000D01*
X79476000Y-125674000D02*
X80776000Y-125674000D01*
X79471000Y-146869000D02*
X123221000Y-146869000D01*
X79471000Y-125419000D02*
X79471000Y-146869000D01*
%TO.C,J11*%
X143380000Y-81000000D02*
X143380000Y-80690000D01*
X143380000Y-81000000D02*
X134560000Y-81000000D01*
X143380000Y-76480000D02*
X143380000Y-76790000D01*
X137470000Y-75780000D02*
X136470000Y-75780000D01*
X136970000Y-76280000D02*
X137470000Y-75780000D01*
X136470000Y-75780000D02*
X136970000Y-76280000D01*
X134560000Y-81000000D02*
X134560000Y-80690000D01*
X134560000Y-76790000D02*
X134560000Y-76480000D01*
X134560000Y-76480000D02*
X143380000Y-76480000D01*
%TO.C,D2*%
X86320000Y-38862000D02*
G75*
G02*
X81320000Y-38862000I-2500000J0D01*
G01*
X81320000Y-38862000D02*
G75*
G02*
X86320000Y-38862000I2500000J0D01*
G01*
X86810000Y-38862000D02*
G75*
G02*
X81260000Y-40406830I-2990000J0D01*
G01*
X81260000Y-37317170D02*
G75*
G02*
X86810000Y-38862000I2560000J-1544830D01*
G01*
X81260000Y-37317000D02*
X81260000Y-40407000D01*
%TO.C,Q4*%
X141047975Y-60061975D02*
G75*
G02*
X136047975Y-60061975I-2500000J0D01*
G01*
X136047975Y-60061975D02*
G75*
G02*
X141047975Y-60061975I2500000J0D01*
G01*
X140662224Y-62176224D02*
G75*
G02*
X135645422Y-59344141I-2114249J2114249D01*
G01*
X137830141Y-57159421D02*
G75*
G02*
X140662225Y-62176225I717834J-2902554D01*
G01*
X137830261Y-57159301D02*
X135645301Y-59344261D01*
%TO.C,D4*%
X134443975Y-54219975D02*
G75*
G02*
X129443975Y-54219975I-2500000J0D01*
G01*
X129443975Y-54219975D02*
G75*
G02*
X134443975Y-54219975I2500000J0D01*
G01*
X134058224Y-56334224D02*
G75*
G02*
X129041422Y-53502141I-2114249J2114249D01*
G01*
X131226141Y-51317421D02*
G75*
G02*
X134058225Y-56334225I717834J-2902554D01*
G01*
X131226261Y-51317301D02*
X129041301Y-53502261D01*
%TO.C,Q1*%
X76277975Y-51698025D02*
G75*
G02*
X71277975Y-51698025I-2500000J0D01*
G01*
X71277975Y-51698025D02*
G75*
G02*
X76277975Y-51698025I2500000J0D01*
G01*
X75892224Y-49583776D02*
G75*
G02*
X73060141Y-54600578I-2114249J-2114249D01*
G01*
X70875421Y-52415859D02*
G75*
G02*
X75892225Y-49583775I2902554J717834D01*
G01*
X70875301Y-52415739D02*
X73060261Y-54600699D01*
%TO.C,D3*%
X116546000Y-38608000D02*
G75*
G02*
X111546000Y-38608000I-2500000J0D01*
G01*
X111546000Y-38608000D02*
G75*
G02*
X116546000Y-38608000I2500000J0D01*
G01*
X117036000Y-38608000D02*
G75*
G02*
X111486000Y-40152830I-2990000J0D01*
G01*
X111486000Y-37063170D02*
G75*
G02*
X117036000Y-38608000I2560000J-1544830D01*
G01*
X111486000Y-37063000D02*
X111486000Y-40153000D01*
%TO.C,Q2*%
X95972000Y-38608000D02*
G75*
G02*
X90972000Y-38608000I-2500000J0D01*
G01*
X90972000Y-38608000D02*
G75*
G02*
X95972000Y-38608000I2500000J0D01*
G01*
X96462000Y-38608000D02*
G75*
G02*
X90912000Y-40152830I-2990000J0D01*
G01*
X90912000Y-37063170D02*
G75*
G02*
X96462000Y-38608000I2560000J-1544830D01*
G01*
X90912000Y-37063000D02*
X90912000Y-40153000D01*
%TO.C,J14*%
X109418000Y-66692000D02*
X110798000Y-66692000D01*
X109418000Y-68072000D02*
X109418000Y-66692000D01*
X109418000Y-69342000D02*
X109418000Y-82152000D01*
X109418000Y-69342000D02*
X112178000Y-69342000D01*
X109418000Y-82152000D02*
X112178000Y-82152000D01*
X112178000Y-69342000D02*
X112178000Y-82152000D01*
%TO.C,J5*%
X62934000Y-73794000D02*
X62934000Y-75044000D01*
X63234000Y-75404000D02*
X63844000Y-75404000D01*
X63234000Y-76704000D02*
X63844000Y-76704000D01*
X63844000Y-74704000D02*
X63844000Y-78204000D01*
X63844000Y-78204000D02*
X68744000Y-78204000D01*
X64184000Y-73794000D02*
X62934000Y-73794000D01*
X64694000Y-73894000D02*
X64694000Y-74094000D01*
X64994000Y-73894000D02*
X64694000Y-73894000D01*
X64994000Y-73994000D02*
X64694000Y-73994000D01*
X64994000Y-74094000D02*
X64994000Y-73894000D01*
X65794000Y-74094000D02*
X65794000Y-74704000D01*
X65794000Y-74704000D02*
X63844000Y-74704000D01*
X66194000Y-77704000D02*
X66394000Y-77704000D01*
X66194000Y-78204000D02*
X66194000Y-77704000D01*
X66294000Y-78204000D02*
X66294000Y-77704000D01*
X66394000Y-77704000D02*
X66394000Y-78204000D01*
X66794000Y-74704000D02*
X66794000Y-74094000D01*
X68744000Y-74704000D02*
X66794000Y-74704000D01*
X68744000Y-78204000D02*
X68744000Y-74704000D01*
X69354000Y-75404000D02*
X68744000Y-75404000D01*
X69354000Y-76704000D02*
X68744000Y-76704000D01*
X63234000Y-74094000D02*
X69354000Y-74094000D01*
X69354000Y-78814000D01*
X63234000Y-78814000D01*
X63234000Y-74094000D01*
%TO.C,J15*%
D12*
X124845000Y-82322000D02*
X126645000Y-82322000D01*
X126645000Y-79222000D02*
X124845000Y-79222000D01*
D13*
X123535000Y-79822000D02*
G75*
G02*
X123335000Y-79822000I-100000J0D01*
G01*
X123335000Y-79822000D02*
G75*
G02*
X123535000Y-79822000I100000J0D01*
G01*
%TO.C,J3*%
D11*
X79138000Y-105300000D02*
X80518000Y-105300000D01*
X79138000Y-106680000D02*
X79138000Y-105300000D01*
X79138000Y-107950000D02*
X79138000Y-120760000D01*
X79138000Y-107950000D02*
X81898000Y-107950000D01*
X79138000Y-120760000D02*
X81898000Y-120760000D01*
X81898000Y-107950000D02*
X81898000Y-120760000D01*
%TO.C,J4*%
X121048000Y-104538000D02*
X122428000Y-104538000D01*
X121048000Y-105918000D02*
X121048000Y-104538000D01*
X121048000Y-107188000D02*
X121048000Y-119998000D01*
X121048000Y-107188000D02*
X123808000Y-107188000D01*
X121048000Y-119998000D02*
X123808000Y-119998000D01*
X123808000Y-107188000D02*
X123808000Y-119998000D01*
%TD*%
M02*
