%TF.GenerationSoftware,KiCad,Pcbnew,10.0.3*%
%TF.CreationDate,2026-06-30T21:44:05+05:30*%
%TF.ProjectId,schema,73636865-6d61-42e6-9b69-6361645f7063,rev?*%
%TF.SameCoordinates,Original*%
%TF.FileFunction,Soldermask,Bot*%
%TF.FilePolarity,Negative*%
%FSLAX46Y46*%
G04 Gerber Fmt 4.6, Leading zero omitted, Abs format (unit mm)*
G04 Created by KiCad (PCBNEW 10.0.3) date 2026-06-30 21:44:05*
%MOMM*%
%LPD*%
G01*
G04 APERTURE LIST*
G04 Aperture macros list*
%AMRoundRect*
0 Rectangle with rounded corners*
0 $1 Rounding radius*
0 $2 $3 $4 $5 $6 $7 $8 $9 X,Y pos of 4 corners*
0 Add a 4 corners polygon primitive as box body*
4,1,4,$2,$3,$4,$5,$6,$7,$8,$9,$2,$3,0*
0 Add four circle primitives for the rounded corners*
1,1,$1+$1,$2,$3*
1,1,$1+$1,$4,$5*
1,1,$1+$1,$6,$7*
1,1,$1+$1,$8,$9*
0 Add four rect primitives between the rounded corners*
20,1,$1+$1,$2,$3,$4,$5,0*
20,1,$1+$1,$4,$5,$6,$7,0*
20,1,$1+$1,$6,$7,$8,$9,0*
20,1,$1+$1,$8,$9,$2,$3,0*%
%AMRotRect*
0 Rectangle, with rotation*
0 The origin of the aperture is its center*
0 $1 length*
0 $2 width*
0 $3 Rotation angle, in degrees counterclockwise*
0 Add horizontal line*
21,1,$1,$2,0,0,$3*%
G04 Aperture macros list end*
%ADD10R,1.800000X1.800000*%
%ADD11C,1.800000*%
%ADD12RotRect,1.800000X1.800000X45.000000*%
%ADD13C,1.600000*%
%ADD14C,1.200000*%
%ADD15RoundRect,0.250000X0.350000X-0.350000X0.350000X0.350000X-0.350000X0.350000X-0.350000X-0.350000X0*%
%ADD16R,1.700000X1.700000*%
%ADD17C,1.700000*%
%ADD18C,2.540000*%
%ADD19R,2.540000X2.540000*%
%ADD20O,1.500000X2.500000*%
%ADD21R,1.500000X2.500000*%
%ADD22O,2.200000X3.500000*%
%ADD23RotRect,1.800000X1.800000X315.000000*%
%ADD24RoundRect,0.250000X-0.350000X-0.625000X0.350000X-0.625000X0.350000X0.625000X-0.350000X0.625000X0*%
%ADD25O,1.200000X1.750000*%
G04 APERTURE END LIST*
D10*
%TO.C,Q3*%
X120650000Y-38608000D03*
D11*
X123190000Y-38608000D03*
%TD*%
D12*
%TO.C,D1*%
X66529949Y-59200051D03*
D11*
X68326000Y-57404000D03*
%TD*%
D13*
%TO.C,C3*%
X116332000Y-75692000D03*
X116332000Y-73192000D03*
%TD*%
%TO.C,C1*%
X108204000Y-105390000D03*
X108204000Y-102890000D03*
%TD*%
D14*
%TO.C,C2*%
X100330000Y-103168000D03*
D15*
X100330000Y-104668000D03*
%TD*%
D16*
%TO.C,J1*%
X97028000Y-68072000D03*
D17*
X97028000Y-70612000D03*
X97028000Y-73152000D03*
X97028000Y-75692000D03*
X97028000Y-78232000D03*
X97028000Y-80772000D03*
%TD*%
D16*
%TO.C,J12*%
X86614000Y-97536000D03*
D17*
X89154000Y-97536000D03*
X91694000Y-97536000D03*
X94234000Y-97536000D03*
X96774000Y-97536000D03*
X99314000Y-97536000D03*
X101854000Y-97536000D03*
X104394000Y-97536000D03*
X106934000Y-97536000D03*
X109474000Y-97536000D03*
X112014000Y-97536000D03*
X114554000Y-97536000D03*
X117094000Y-97536000D03*
X119634000Y-97536000D03*
X122174000Y-97536000D03*
%TD*%
D16*
%TO.C,J13*%
X86614000Y-92946000D03*
D17*
X89154000Y-92946000D03*
X91694000Y-92946000D03*
X94234000Y-92946000D03*
X96774000Y-92946000D03*
X99314000Y-92946000D03*
X101854000Y-92946000D03*
X104394000Y-92946000D03*
X106934000Y-92946000D03*
X109474000Y-92946000D03*
X112014000Y-92946000D03*
X114554000Y-92946000D03*
X117094000Y-92946000D03*
X119634000Y-92946000D03*
X122174000Y-92946000D03*
%TD*%
D13*
%TO.C,R2*%
X89662000Y-56388000D03*
X89662000Y-48768000D03*
%TD*%
%TO.C,R9*%
X121158000Y-54610000D03*
X121158000Y-46990000D03*
%TD*%
%TO.C,R10*%
X135636000Y-74168000D03*
X135636000Y-66548000D03*
%TD*%
%TO.C,R4*%
X130048000Y-74422000D03*
X130048000Y-66802000D03*
%TD*%
%TO.C,R8*%
X93980000Y-56642000D03*
X93980000Y-49022000D03*
%TD*%
%TO.C,R7*%
X78232000Y-72644000D03*
X78232000Y-65024000D03*
%TD*%
%TO.C,R5*%
X114046000Y-86106000D03*
X121666000Y-86106000D03*
%TD*%
%TO.C,R1*%
X73152000Y-72644000D03*
X73152000Y-65024000D03*
%TD*%
%TO.C,R6*%
X128524000Y-87376000D03*
X136144000Y-87376000D03*
%TD*%
%TO.C,R3*%
X116078000Y-54864000D03*
X116078000Y-47244000D03*
%TD*%
D18*
%TO.C,J6*%
X121666000Y-127254000D03*
X121666000Y-145034000D03*
X81026000Y-145034000D03*
D19*
X81026000Y-127254000D03*
%TD*%
D20*
%TO.C,J11*%
X140970000Y-78740000D03*
X138970000Y-78740000D03*
D21*
X136970000Y-78740000D03*
D22*
X143070000Y-78740000D03*
X134870000Y-78740000D03*
%TD*%
D11*
%TO.C,D2*%
X85090000Y-38862000D03*
D10*
X82550000Y-38862000D03*
%TD*%
D11*
%TO.C,Q4*%
X139446000Y-60960000D03*
D23*
X137649949Y-59163949D03*
%TD*%
D11*
%TO.C,D4*%
X132842000Y-55118000D03*
D23*
X131045949Y-53321949D03*
%TD*%
D11*
%TO.C,Q1*%
X74676000Y-50800000D03*
D12*
X72879949Y-52596051D03*
%TD*%
D11*
%TO.C,D3*%
X115316000Y-38608000D03*
D10*
X112776000Y-38608000D03*
%TD*%
D11*
%TO.C,Q2*%
X94742000Y-38608000D03*
D10*
X92202000Y-38608000D03*
%TD*%
D16*
%TO.C,J14*%
X110798000Y-68072000D03*
D17*
X110798000Y-70612000D03*
X110798000Y-73152000D03*
X110798000Y-75692000D03*
X110798000Y-78232000D03*
X110798000Y-80772000D03*
%TD*%
D24*
%TO.C,J5*%
X65294000Y-75904000D03*
D25*
X67294000Y-75904000D03*
%TD*%
D16*
%TO.C,J3*%
X80518000Y-106680000D03*
D17*
X80518000Y-109220000D03*
X80518000Y-111760000D03*
X80518000Y-114300000D03*
X80518000Y-116840000D03*
X80518000Y-119380000D03*
%TD*%
D16*
%TO.C,J4*%
X122428000Y-105918000D03*
D17*
X122428000Y-108458000D03*
X122428000Y-110998000D03*
X122428000Y-113538000D03*
X122428000Y-116078000D03*
X122428000Y-118618000D03*
%TD*%
M02*
