%TF.GenerationSoftware,KiCad,Pcbnew,10.0.3*%
%TF.CreationDate,2026-07-05T15:48:58+05:30*%
%TF.ProjectId,schema,73636865-6d61-42e6-9b69-6361645f7063,rev?*%
%TF.SameCoordinates,Original*%
%TF.FileFunction,Soldermask,Bot*%
%TF.FilePolarity,Negative*%
%FSLAX46Y46*%
G04 Gerber Fmt 4.6, Leading zero omitted, Abs format (unit mm)*
G04 Created by KiCad (PCBNEW 10.0.3) date 2026-07-05 15:48:58*
%MOMM*%
%LPD*%
G01*
G04 APERTURE LIST*
G04 Aperture macros list*
%AMRoundRect*
0 Rectangle with rounded corners*
0 $1 Rounding radius*
0 $2 $3 $4 $5 $6 $7 $8 $9 X,Y pos of 4 corners*
0 Add a 4 corners polygon primitive as box body*
4,1,4,$2,$3,$4,$5,$6,$7,$8,$9,$2,$3,0*
0 Add four circle primitives for the rounded corners*
1,1,$1+$1,$2,$3*
1,1,$1+$1,$4,$5*
1,1,$1+$1,$6,$7*
1,1,$1+$1,$8,$9*
0 Add four rect primitives between the rounded corners*
20,1,$1+$1,$2,$3,$4,$5,0*
20,1,$1+$1,$4,$5,$6,$7,0*
20,1,$1+$1,$6,$7,$8,$9,0*
20,1,$1+$1,$8,$9,$2,$3,0*%
%AMRotRect*
0 Rectangle, with rotation*
0 The origin of the aperture is its center*
0 $1 length*
0 $2 width*
0 $3 Rotation angle, in degrees counterclockwise*
0 Add horizontal line*
21,1,$1,$2,0,0,$3*%
G04 Aperture macros list end*
%ADD10C,1.600000*%
%ADD11C,1.800000*%
%ADD12RotRect,1.800000X1.800000X315.000000*%
%ADD13R,1.800000X1.800000*%
%ADD14RoundRect,0.250000X-0.350000X0.350000X-0.350000X-0.350000X0.350000X-0.350000X0.350000X0.350000X0*%
%ADD15C,1.200000*%
%ADD16R,1.700000X1.700000*%
%ADD17C,1.700000*%
%ADD18C,3.000000*%
%ADD19RoundRect,0.102000X1.000000X-1.000000X1.000000X1.000000X-1.000000X1.000000X-1.000000X-1.000000X0*%
%ADD20C,2.204000*%
%ADD21R,2.540000X2.540000*%
%ADD22C,2.540000*%
%ADD23RoundRect,0.250001X-1.149999X-1.149999X1.149999X-1.149999X1.149999X1.149999X-1.149999X1.149999X0*%
%ADD24C,2.800000*%
%ADD25RotRect,1.800000X1.800000X45.000000*%
%ADD26O,2.200000X3.500000*%
%ADD27R,1.500000X2.500000*%
%ADD28O,1.500000X2.500000*%
G04 APERTURE END LIST*
D10*
%TO.C,R1 120 *%
X73152000Y-65024000D03*
X73152000Y-72644000D03*
%TD*%
D11*
%TO.C,D4*%
X131927600Y-53187600D03*
D12*
X130131549Y-51391549D03*
%TD*%
D11*
%TO.C,Q4*%
X138125200Y-59385200D03*
D12*
X136329149Y-57589149D03*
%TD*%
D11*
%TO.C,D2*%
X84531200Y-38658800D03*
D13*
X81991200Y-38658800D03*
%TD*%
D11*
%TO.C,Q2*%
X94940200Y-38658800D03*
D13*
X92400200Y-38658800D03*
%TD*%
D11*
%TO.C,D3*%
X112471200Y-38658800D03*
D13*
X109931200Y-38658800D03*
%TD*%
D11*
%TO.C,Q3*%
X122885200Y-38658800D03*
D13*
X120345200Y-38658800D03*
%TD*%
D10*
%TO.C,R2 120*%
X88392000Y-56388000D03*
X88392000Y-48768000D03*
%TD*%
D14*
%TO.C,C2 47 \u00B5F*%
X81026000Y-106664600D03*
D15*
X81026000Y-108164600D03*
%TD*%
D16*
%TO.C,J14*%
X111252000Y-109220000D03*
D17*
X111252000Y-111760000D03*
X111252000Y-114300000D03*
X111252000Y-116840000D03*
X111252000Y-119380000D03*
X111252000Y-121920000D03*
%TD*%
D18*
%TO.C,J2*%
X78379000Y-102704000D03*
X125329000Y-102704000D03*
X78379000Y-78194000D03*
X125329000Y-78194000D03*
D19*
X86339000Y-103124000D03*
D20*
X88879000Y-103124000D03*
X91419000Y-103124000D03*
X93959000Y-103124000D03*
X96499000Y-103124000D03*
X99039000Y-103124000D03*
X101579000Y-103124000D03*
X104119000Y-103124000D03*
X106659000Y-103124000D03*
X109199000Y-103124000D03*
X111739000Y-103124000D03*
X114279000Y-103124000D03*
X116819000Y-103124000D03*
X119359000Y-103124000D03*
X121899000Y-103124000D03*
X121899000Y-77724000D03*
X119359000Y-77724000D03*
X116819000Y-77724000D03*
X114279000Y-77724000D03*
X111739000Y-77724000D03*
X109199000Y-77724000D03*
X106659000Y-77724000D03*
X104119000Y-77724000D03*
X101579000Y-77724000D03*
X99039000Y-77724000D03*
X96499000Y-77724000D03*
X93959000Y-77724000D03*
X91419000Y-77724000D03*
X88879000Y-77724000D03*
X86339000Y-77724000D03*
%TD*%
D21*
%TO.C,J6*%
X80518000Y-130556000D03*
D22*
X80518000Y-148336000D03*
X121158000Y-148336000D03*
X121158000Y-130556000D03*
%TD*%
D10*
%TO.C,R7 10k *%
X78232000Y-72644000D03*
X78232000Y-65024000D03*
%TD*%
%TO.C,R8 10k*%
X92710000Y-56642000D03*
X92710000Y-49022000D03*
%TD*%
%TO.C,C1 100nF*%
X76708000Y-108701199D03*
X76708000Y-106201199D03*
%TD*%
D23*
%TO.C,J5*%
X67136000Y-144780000D03*
D24*
X72136000Y-144780000D03*
%TD*%
D10*
%TO.C,C3 100nF*%
X114808000Y-116566000D03*
X114808000Y-114066000D03*
%TD*%
%TO.C,R4 120*%
X130048000Y-74422000D03*
X130048000Y-66802000D03*
%TD*%
D16*
%TO.C,J3*%
X84836000Y-111506000D03*
D17*
X84836000Y-114046000D03*
X84836000Y-116586000D03*
X84836000Y-119126000D03*
X84836000Y-121666000D03*
X84836000Y-124206000D03*
%TD*%
D25*
%TO.C,Q1*%
X72879949Y-52596051D03*
D11*
X74676000Y-50800000D03*
%TD*%
D25*
%TO.C,D1*%
X66529949Y-59200051D03*
D11*
X68326000Y-57404000D03*
%TD*%
D26*
%TO.C,J11*%
X65024000Y-134578000D03*
X73224000Y-134578000D03*
D27*
X67124000Y-134578000D03*
D28*
X69124000Y-134578000D03*
X71124000Y-134578000D03*
%TD*%
D10*
%TO.C,R5*%
X100076000Y-67818000D03*
X107696000Y-67818000D03*
%TD*%
%TO.C,R9 10k*%
X121412000Y-56388000D03*
X121412000Y-48768000D03*
%TD*%
D16*
%TO.C,J4*%
X119888000Y-111506000D03*
D17*
X119888000Y-114046000D03*
X119888000Y-116586000D03*
X119888000Y-119126000D03*
X119888000Y-121666000D03*
X119888000Y-124206000D03*
%TD*%
D10*
%TO.C,R6*%
X100076000Y-60960000D03*
X107696000Y-60960000D03*
%TD*%
%TO.C,R10 10k*%
X135636000Y-74168000D03*
X135636000Y-66548000D03*
%TD*%
D16*
%TO.C,J1*%
X93218000Y-109220000D03*
D17*
X93218000Y-111760000D03*
X93218000Y-114300000D03*
X93218000Y-116840000D03*
X93218000Y-119380000D03*
X93218000Y-121920000D03*
%TD*%
D10*
%TO.C,R3 120*%
X116332000Y-56642000D03*
X116332000Y-49022000D03*
%TD*%
M02*
