%TF.GenerationSoftware,KiCad,Pcbnew,10.0.3*%
%TF.CreationDate,2026-07-05T15:48:58+05:30*%
%TF.ProjectId,schema,73636865-6d61-42e6-9b69-6361645f7063,rev?*%
%TF.SameCoordinates,Original*%
%TF.FileFunction,Legend,Top*%
%TF.FilePolarity,Positive*%
%FSLAX46Y46*%
G04 Gerber Fmt 4.6, Leading zero omitted, Abs format (unit mm)*
G04 Created by KiCad (PCBNEW 10.0.3) date 2026-07-05 15:48:58*
%MOMM*%
%LPD*%
G01*
G04 APERTURE LIST*
%ADD10C,0.100000*%
%ADD11C,0.200000*%
%ADD12C,0.150000*%
%ADD13C,0.120000*%
%ADD14C,0.127000*%
G04 APERTURE END LIST*
D10*
X59385200Y-80619600D02*
X65481200Y-80619600D01*
X65481200Y-101142800D01*
X59385200Y-101142800D01*
X59385200Y-80619600D01*
D11*
G36*
X63061268Y-83102795D02*
G01*
X64189303Y-83337268D01*
X64253902Y-83356274D01*
X64300729Y-83380974D01*
X64333651Y-83410541D01*
X64357149Y-83447986D01*
X64372328Y-83496527D01*
X64377889Y-83559285D01*
X64377889Y-84035284D01*
X64374228Y-84137010D01*
X64364425Y-84215718D01*
X64344362Y-84286472D01*
X64312768Y-84344312D01*
X64276605Y-84386322D01*
X64231710Y-84420699D01*
X64180382Y-84445609D01*
X64123358Y-84459900D01*
X64063329Y-84463162D01*
X63998153Y-84455046D01*
X63913002Y-84428808D01*
X63838937Y-84388374D01*
X63774253Y-84333269D01*
X63718020Y-84261861D01*
X63670165Y-84171480D01*
X63631953Y-84254772D01*
X63585809Y-84314846D01*
X63531846Y-84356170D01*
X63468621Y-84381131D01*
X63393345Y-84389732D01*
X63302244Y-84379575D01*
X63220634Y-84355555D01*
X63144830Y-84318756D01*
X63073907Y-84268566D01*
X63011650Y-84207986D01*
X62961923Y-84140728D01*
X62923881Y-84066058D01*
X62899694Y-83989919D01*
X62883215Y-83902660D01*
X62874550Y-83809474D01*
X62872389Y-83731843D01*
X63105873Y-83731843D01*
X63113522Y-83834519D01*
X63134285Y-83914028D01*
X63165905Y-83975146D01*
X63207646Y-84021517D01*
X63260392Y-84055330D01*
X63326516Y-84077049D01*
X63398837Y-84082278D01*
X63450889Y-84067132D01*
X63489181Y-84034001D01*
X63514783Y-83986594D01*
X63532687Y-83915739D01*
X63539107Y-83821144D01*
X63762397Y-83821144D01*
X63768398Y-83926014D01*
X63783555Y-83996358D01*
X63813922Y-84055097D01*
X63864338Y-84104985D01*
X63909299Y-84132879D01*
X63959135Y-84149406D01*
X64014961Y-84155039D01*
X64055511Y-84147844D01*
X64085215Y-84130395D01*
X64106780Y-84102328D01*
X64125053Y-84053556D01*
X64138233Y-83979210D01*
X64143416Y-83870603D01*
X64143416Y-83631367D01*
X63762397Y-83552141D01*
X63762397Y-83821144D01*
X63539107Y-83821144D01*
X63539648Y-83813175D01*
X63539648Y-83505887D01*
X63105873Y-83415670D01*
X63105873Y-83731843D01*
X62872389Y-83731843D01*
X62871400Y-83696305D01*
X62871400Y-83247326D01*
X62877654Y-83183238D01*
X62893609Y-83141502D01*
X62917012Y-83115435D01*
X62949290Y-83100344D01*
X62995506Y-83094960D01*
X63061268Y-83102795D01*
G37*
G36*
X63007779Y-85294569D02*
G01*
X63033882Y-85299973D01*
X62980246Y-85242248D01*
X62933681Y-85180996D01*
X62895653Y-85115733D01*
X62869201Y-85048739D01*
X62853446Y-84977713D01*
X62847952Y-84897247D01*
X62853023Y-84831660D01*
X62867446Y-84775247D01*
X62890542Y-84726430D01*
X62922866Y-84683687D01*
X62961780Y-84651095D01*
X63008145Y-84627695D01*
X63069212Y-84614069D01*
X63152965Y-84613188D01*
X63266340Y-84629710D01*
X63821474Y-84745115D01*
X63898522Y-84771422D01*
X63948785Y-84809320D01*
X63980480Y-84859835D01*
X63991009Y-84918038D01*
X63985782Y-84958304D01*
X63971308Y-84988788D01*
X63947778Y-85011919D01*
X63917454Y-85025897D01*
X63876276Y-85030947D01*
X63820191Y-85024467D01*
X63371853Y-84931319D01*
X63278250Y-84916283D01*
X63209279Y-84913367D01*
X63149204Y-84923988D01*
X63107246Y-84948630D01*
X63087855Y-84973055D01*
X63075342Y-85006371D01*
X63070702Y-85051487D01*
X63080688Y-85118579D01*
X63112376Y-85188965D01*
X63160553Y-85251524D01*
X63221186Y-85300156D01*
X63298652Y-85331701D01*
X63480846Y-85376910D01*
X63821474Y-85447710D01*
X63897554Y-85473961D01*
X63948236Y-85512739D01*
X63980390Y-85564223D01*
X63991009Y-85622649D01*
X63985831Y-85662238D01*
X63971511Y-85692045D01*
X63948236Y-85714514D01*
X63918315Y-85727943D01*
X63877058Y-85732677D01*
X63820191Y-85725963D01*
X63008328Y-85557253D01*
X62934961Y-85532179D01*
X62886604Y-85495703D01*
X62855966Y-85447593D01*
X62845937Y-85393854D01*
X62850974Y-85357659D01*
X62865158Y-85329499D01*
X62888710Y-85307392D01*
X62918545Y-85293869D01*
X62957201Y-85288930D01*
X63007779Y-85294569D01*
G37*
G36*
X63828709Y-86301979D02*
G01*
X63020327Y-86133910D01*
X62965842Y-86117685D01*
X62923714Y-86095362D01*
X62891641Y-86067415D01*
X62858689Y-86015012D01*
X62847952Y-85957322D01*
X62853330Y-85918622D01*
X62868364Y-85889064D01*
X62893198Y-85866372D01*
X62924694Y-85852829D01*
X62966312Y-85848109D01*
X63021609Y-85854557D01*
X63821748Y-86020886D01*
X63897776Y-86046966D01*
X63948327Y-86085367D01*
X63980437Y-86136245D01*
X63991009Y-86193719D01*
X63985876Y-86232615D01*
X63971496Y-86262836D01*
X63947869Y-86286501D01*
X63917615Y-86301458D01*
X63878912Y-86307237D01*
X63828709Y-86301979D01*
G37*
G36*
X64114107Y-86223578D02*
G01*
X64123745Y-86170336D01*
X64151201Y-86131071D01*
X64177859Y-86114345D01*
X64211772Y-86107241D01*
X64255890Y-86111195D01*
X64311215Y-86133111D01*
X64356091Y-86174210D01*
X64385954Y-86226983D01*
X64395475Y-86280822D01*
X64386261Y-86330799D01*
X64359388Y-86370032D01*
X64333318Y-86387133D01*
X64299499Y-86394495D01*
X64254699Y-86390548D01*
X64195213Y-86367721D01*
X64151385Y-86328266D01*
X64123225Y-86277252D01*
X64114107Y-86223578D01*
G37*
G36*
X63021609Y-86423154D02*
G01*
X64234824Y-86675396D01*
X64311923Y-86701431D01*
X64363418Y-86739235D01*
X64396274Y-86789868D01*
X64407199Y-86848870D01*
X64401926Y-86889092D01*
X64387312Y-86919545D01*
X64363510Y-86942659D01*
X64332884Y-86956523D01*
X64290971Y-86961461D01*
X64233542Y-86954749D01*
X63020327Y-86702507D01*
X62965124Y-86686162D01*
X62922904Y-86663941D01*
X62891183Y-86636378D01*
X62858654Y-86584404D01*
X62847952Y-86525920D01*
X62853330Y-86487219D01*
X62868364Y-86457662D01*
X62893198Y-86434970D01*
X62924694Y-86421426D01*
X62966312Y-86416706D01*
X63021609Y-86423154D01*
G37*
G36*
X63429464Y-87013459D02*
G01*
X63558986Y-87049022D01*
X63668596Y-87096431D01*
X63761023Y-87154886D01*
X63838418Y-87224302D01*
X63903541Y-87307023D01*
X63948860Y-87394014D01*
X63975962Y-87486546D01*
X63985147Y-87586361D01*
X63979942Y-87664907D01*
X63965635Y-87728047D01*
X63943656Y-87778611D01*
X63893595Y-87846343D01*
X63821840Y-87907846D01*
X64229970Y-87992751D01*
X64309716Y-88018643D01*
X64362227Y-88054300D01*
X64387279Y-88085584D01*
X64402115Y-88120773D01*
X64407199Y-88161187D01*
X64402013Y-88201495D01*
X64387966Y-88230381D01*
X64365525Y-88250854D01*
X64336555Y-88262651D01*
X64297214Y-88266522D01*
X64243800Y-88260013D01*
X63010068Y-88003558D01*
X62936921Y-87978389D01*
X62888619Y-87941551D01*
X62858012Y-87892920D01*
X62847952Y-87838236D01*
X62852987Y-87802103D01*
X62867167Y-87773971D01*
X62890725Y-87751866D01*
X62920583Y-87738437D01*
X62959857Y-87733591D01*
X63011900Y-87739501D01*
X63030493Y-87743348D01*
X62975532Y-87680179D01*
X62931117Y-87618967D01*
X62895061Y-87554918D01*
X62869201Y-87489183D01*
X62866242Y-87476360D01*
X63070702Y-87476360D01*
X63080008Y-87546045D01*
X63108620Y-87614754D01*
X63155235Y-87676445D01*
X63225033Y-87733365D01*
X63310336Y-87777029D01*
X63421495Y-87809568D01*
X63528322Y-87822142D01*
X63611364Y-87813782D01*
X63661838Y-87796929D01*
X63701542Y-87773596D01*
X63732356Y-87743989D01*
X63763477Y-87688527D01*
X63774121Y-87621807D01*
X63763576Y-87549797D01*
X63731165Y-87479932D01*
X63680053Y-87418243D01*
X63607517Y-87363337D01*
X63522065Y-87321616D01*
X63420213Y-87292079D01*
X63311611Y-87278851D01*
X63228788Y-87286492D01*
X63178752Y-87302904D01*
X63139959Y-87325908D01*
X63110361Y-87355277D01*
X63080826Y-87410373D01*
X63070702Y-87476360D01*
X62866242Y-87476360D01*
X62853335Y-87420432D01*
X62847952Y-87347125D01*
X62852926Y-87282310D01*
X62867289Y-87224545D01*
X62890634Y-87172644D01*
X62922997Y-87125879D01*
X62963385Y-87085765D01*
X63012633Y-87051836D01*
X63096942Y-87016138D01*
X63198654Y-86997156D01*
X63307328Y-86996301D01*
X63429464Y-87013459D01*
G37*
G36*
X63011351Y-88819818D02*
G01*
X64232809Y-89073708D01*
X64311148Y-89099353D01*
X64362868Y-89134983D01*
X64387655Y-89166175D01*
X64402236Y-89200668D01*
X64407199Y-89239671D01*
X64401882Y-89280501D01*
X64387454Y-89309808D01*
X64364334Y-89330621D01*
X64334605Y-89342706D01*
X64295284Y-89346712D01*
X64243067Y-89340422D01*
X63822481Y-89253044D01*
X63891353Y-89342970D01*
X63941733Y-89430456D01*
X63965316Y-89491655D01*
X63980015Y-89560716D01*
X63985147Y-89639008D01*
X63977171Y-89728457D01*
X63954661Y-89803223D01*
X63918652Y-89866154D01*
X63868959Y-89918517D01*
X63805753Y-89958692D01*
X63726311Y-89986780D01*
X63642026Y-89999637D01*
X63543586Y-89998774D01*
X63428182Y-89981834D01*
X63305144Y-89948111D01*
X63195082Y-89901600D01*
X63095161Y-89841472D01*
X63011076Y-89771266D01*
X62941627Y-89689649D01*
X62890542Y-89599716D01*
X62858594Y-89502488D01*
X62847952Y-89400872D01*
X62849518Y-89376783D01*
X63070702Y-89376783D01*
X63080050Y-89441353D01*
X63109066Y-89505666D01*
X63161285Y-89571689D01*
X63226878Y-89624972D01*
X63312159Y-89668055D01*
X63421495Y-89699916D01*
X63527541Y-89713497D01*
X63609990Y-89708160D01*
X63681576Y-89684638D01*
X63731440Y-89646519D01*
X63754713Y-89612792D01*
X63769060Y-89572618D01*
X63774121Y-89524245D01*
X63763526Y-89449314D01*
X63731165Y-89377333D01*
X63679835Y-89313518D01*
X63606509Y-89255975D01*
X63519235Y-89212066D01*
X63412062Y-89180687D01*
X63302056Y-89167563D01*
X63220075Y-89176169D01*
X63158812Y-89201661D01*
X63110468Y-89244959D01*
X63081193Y-89301823D01*
X63070702Y-89376783D01*
X62849518Y-89376783D01*
X62851985Y-89338854D01*
X62863523Y-89284276D01*
X62882249Y-89234662D01*
X62904555Y-89197265D01*
X62956854Y-89140845D01*
X63031318Y-89088546D01*
X63010618Y-89084241D01*
X62938109Y-89059024D01*
X62889260Y-89021227D01*
X62858115Y-88971556D01*
X62847952Y-88916721D01*
X62852991Y-88879156D01*
X62866918Y-88851072D01*
X62889626Y-88830076D01*
X62918679Y-88817690D01*
X62958016Y-88813457D01*
X63011351Y-88819818D01*
G37*
G36*
X62815621Y-90336291D02*
G01*
X62877170Y-90373660D01*
X63744262Y-90217681D01*
X63815002Y-90207445D01*
X63854172Y-90209346D01*
X63889203Y-90221053D01*
X63922132Y-90241678D01*
X63950282Y-90269293D01*
X63972233Y-90302494D01*
X63986490Y-90338883D01*
X63991009Y-90373386D01*
X63986036Y-90411788D01*
X63972702Y-90438544D01*
X63951533Y-90456825D01*
X63907296Y-90474856D01*
X63839700Y-90487600D01*
X63159087Y-90574611D01*
X63792439Y-90923115D01*
X63915080Y-90995930D01*
X63954445Y-91027687D01*
X63975255Y-91053724D01*
X63986725Y-91083732D01*
X63991009Y-91125074D01*
X63986606Y-91155578D01*
X63973515Y-91182776D01*
X63953069Y-91204596D01*
X63926529Y-91218405D01*
X63896495Y-91224115D01*
X63864247Y-91221519D01*
X63808376Y-91196789D01*
X63735378Y-91159603D01*
X62779808Y-90604104D01*
X62661439Y-90531059D01*
X62581422Y-90472212D01*
X62517368Y-90407201D01*
X62470505Y-90331712D01*
X62449912Y-90276189D01*
X62436575Y-90208595D01*
X62431762Y-90126548D01*
X62439815Y-90014210D01*
X62458965Y-89949685D01*
X62481626Y-89920637D01*
X62513321Y-89906985D01*
X62558708Y-89908836D01*
X62602682Y-89925539D01*
X62634270Y-89953807D01*
X62653799Y-89992620D01*
X62660923Y-90045673D01*
X62654695Y-90088354D01*
X62648650Y-90131402D01*
X62652505Y-90175254D01*
X62662755Y-90207239D01*
X62681069Y-90235291D01*
X62711939Y-90265400D01*
X62815621Y-90336291D01*
G37*
G36*
X60806058Y-87882305D02*
G01*
X60718063Y-87856377D01*
X60636490Y-87816573D01*
X60560319Y-87762229D01*
X60493864Y-87696276D01*
X60437005Y-87617701D01*
X60389593Y-87524916D01*
X60355941Y-87426013D01*
X60335141Y-87317317D01*
X60327952Y-87197295D01*
X60334087Y-87086300D01*
X60351146Y-86993994D01*
X60377541Y-86917459D01*
X60412308Y-86854195D01*
X60457334Y-86800476D01*
X60511132Y-86757220D01*
X60574790Y-86723769D01*
X60643434Y-86702319D01*
X60708924Y-86695269D01*
X60772627Y-86701696D01*
X60824346Y-86721800D01*
X60868889Y-86759856D01*
X60899071Y-86809886D01*
X60909006Y-86865736D01*
X60900781Y-86909572D01*
X60877407Y-86941115D01*
X60840924Y-86962978D01*
X60784717Y-86978759D01*
X60716775Y-86994833D01*
X60665740Y-87014022D01*
X60623002Y-87043038D01*
X60587338Y-87088119D01*
X60565218Y-87146501D01*
X60556563Y-87235489D01*
X60563880Y-87321179D01*
X60584876Y-87395921D01*
X60618937Y-87461719D01*
X60665765Y-87518332D01*
X60717242Y-87555512D01*
X60774550Y-87576116D01*
X60822784Y-87580746D01*
X60861661Y-87573991D01*
X60893710Y-87557157D01*
X60933283Y-87516423D01*
X60963869Y-87457872D01*
X61015984Y-87280368D01*
X61059331Y-87137301D01*
X61105011Y-87032798D01*
X61144080Y-86973039D01*
X61190449Y-86926352D01*
X61244687Y-86891198D01*
X61305228Y-86869985D01*
X61377370Y-86863378D01*
X61464506Y-86873704D01*
X61544568Y-86897667D01*
X61618133Y-86934957D01*
X61686248Y-86986269D01*
X61744921Y-87048454D01*
X61794548Y-87122394D01*
X61835175Y-87209660D01*
X61863527Y-87302130D01*
X61881112Y-87403876D01*
X61887199Y-87516215D01*
X61877794Y-87645981D01*
X61852577Y-87744186D01*
X61810952Y-87828736D01*
X61760528Y-87890090D01*
X61700250Y-87935597D01*
X61639811Y-87961165D01*
X61576888Y-87970960D01*
X61516438Y-87965836D01*
X61464740Y-87945902D01*
X61416787Y-87906943D01*
X61383190Y-87856263D01*
X61372457Y-87802254D01*
X61379852Y-87755393D01*
X61398927Y-87727974D01*
X61430359Y-87708407D01*
X61484839Y-87687033D01*
X61562949Y-87657816D01*
X61617188Y-87619438D01*
X61641138Y-87585478D01*
X61657865Y-87531974D01*
X61664449Y-87451003D01*
X61658373Y-87376205D01*
X61641064Y-87311855D01*
X61613250Y-87256097D01*
X61574816Y-87207661D01*
X61534196Y-87176875D01*
X61490518Y-87160567D01*
X61448478Y-87158069D01*
X61414497Y-87168261D01*
X61385355Y-87189390D01*
X61359268Y-87221750D01*
X61322814Y-87298687D01*
X61283980Y-87432684D01*
X61251856Y-87547415D01*
X61218217Y-87644443D01*
X61177003Y-87732062D01*
X61130565Y-87798591D01*
X61072319Y-87849663D01*
X60999681Y-87882580D01*
X60946496Y-87892693D01*
X60882742Y-87893235D01*
X60806058Y-87882305D01*
G37*
G36*
X60901129Y-88108993D02*
G01*
X61021397Y-88143156D01*
X61131481Y-88193073D01*
X61230820Y-88258593D01*
X61313747Y-88336597D01*
X61380794Y-88427839D01*
X61430434Y-88532052D01*
X61460732Y-88644815D01*
X61471009Y-88765975D01*
X61462468Y-88871524D01*
X61438679Y-88957761D01*
X61401308Y-89028384D01*
X61349584Y-89089194D01*
X61289959Y-89133957D01*
X61221240Y-89164213D01*
X61147160Y-89180858D01*
X61072560Y-89184497D01*
X60996384Y-89175113D01*
X60929291Y-89153417D01*
X60885055Y-89123611D01*
X60857898Y-89086269D01*
X60834942Y-89013691D01*
X60826208Y-88911788D01*
X60826208Y-88903087D01*
X60990339Y-88903087D01*
X61083494Y-88908017D01*
X61151652Y-88896586D01*
X61201273Y-88872496D01*
X61239540Y-88834216D01*
X61263162Y-88783665D01*
X61271707Y-88716791D01*
X61263796Y-88652017D01*
X61240204Y-88592149D01*
X61199716Y-88535532D01*
X61147416Y-88488547D01*
X61078743Y-88447666D01*
X60990339Y-88413441D01*
X60990339Y-88903087D01*
X60826208Y-88903087D01*
X60826208Y-88379003D01*
X60736078Y-88370533D01*
X60660977Y-88381751D01*
X60596452Y-88411486D01*
X60552076Y-88455024D01*
X60524958Y-88511173D01*
X60515531Y-88579313D01*
X60518534Y-88627135D01*
X60527254Y-88670721D01*
X60542116Y-88712879D01*
X60564166Y-88756542D01*
X60618021Y-88837600D01*
X60696331Y-88937068D01*
X60710483Y-88965455D01*
X60715566Y-89002830D01*
X60709000Y-89042115D01*
X60691111Y-89068409D01*
X60663178Y-89082433D01*
X60622509Y-89081324D01*
X60583960Y-89066991D01*
X60533208Y-89033513D01*
X60485027Y-88988140D01*
X60435846Y-88924886D01*
X60394219Y-88851562D01*
X60358635Y-88760846D01*
X60335901Y-88662219D01*
X60327952Y-88549637D01*
X60335241Y-88441597D01*
X60355527Y-88352472D01*
X60387119Y-88279011D01*
X60429317Y-88218587D01*
X60482466Y-88169351D01*
X60561592Y-88124370D01*
X60655052Y-88098045D01*
X60766664Y-88091737D01*
X60901129Y-88108993D01*
G37*
G36*
X60734067Y-89649921D02*
G01*
X60500418Y-89601378D01*
X60445195Y-89584989D01*
X60402944Y-89562619D01*
X60371183Y-89534791D01*
X60338588Y-89482511D01*
X60327952Y-89424882D01*
X60333180Y-89386731D01*
X60347850Y-89357216D01*
X60372099Y-89334206D01*
X60403042Y-89320385D01*
X60444878Y-89315491D01*
X60501609Y-89322116D01*
X61280225Y-89483958D01*
X61356536Y-89506712D01*
X61409156Y-89535912D01*
X61443773Y-89570463D01*
X61464031Y-89610890D01*
X61471009Y-89659263D01*
X61465189Y-89703265D01*
X61449872Y-89732323D01*
X61425763Y-89750763D01*
X61376405Y-89763388D01*
X61305229Y-89759281D01*
X61376101Y-89821690D01*
X61426587Y-89880639D01*
X61450873Y-89923486D01*
X61465802Y-89972483D01*
X61471009Y-90029108D01*
X61459775Y-90112815D01*
X61426221Y-90189392D01*
X61391693Y-90229514D01*
X61352956Y-90247753D01*
X61306786Y-90247186D01*
X61259335Y-90228545D01*
X61220782Y-90193972D01*
X61194770Y-90150462D01*
X61186893Y-90110532D01*
X61205853Y-90041381D01*
X61220392Y-89988629D01*
X61224812Y-89944203D01*
X61216670Y-89888094D01*
X61192938Y-89840705D01*
X61155010Y-89800544D01*
X61098050Y-89762578D01*
X61031247Y-89731438D01*
X60947474Y-89702311D01*
X60734067Y-89649921D01*
G37*
G36*
X61293230Y-90583783D02*
G01*
X60675998Y-90630770D01*
X61250091Y-90909756D01*
X61375571Y-90974602D01*
X61407459Y-90998638D01*
X61440143Y-91035694D01*
X61462956Y-91081026D01*
X61471009Y-91138459D01*
X61462405Y-91194792D01*
X61439868Y-91229775D01*
X61406863Y-91253553D01*
X61372640Y-91265496D01*
X61248992Y-91279143D01*
X60675998Y-91319351D01*
X61294330Y-91625540D01*
X61393065Y-91675274D01*
X61421631Y-91695999D01*
X61447378Y-91724275D01*
X61464730Y-91759175D01*
X61471009Y-91805883D01*
X61461838Y-91851654D01*
X61435105Y-91886117D01*
X61396390Y-91905773D01*
X61350658Y-91905717D01*
X61302924Y-91889526D01*
X61219774Y-91847374D01*
X60549786Y-91484490D01*
X60426413Y-91413690D01*
X60390823Y-91385793D01*
X60358086Y-91348202D01*
X60335824Y-91303038D01*
X60327952Y-91245804D01*
X60336892Y-91188508D01*
X60360467Y-91152564D01*
X60396150Y-91128588D01*
X60439510Y-91115378D01*
X60559952Y-91103105D01*
X61093654Y-91060790D01*
X60558853Y-90800946D01*
X60453145Y-90745267D01*
X60386479Y-90699463D01*
X60354558Y-90663981D01*
X60334956Y-90619212D01*
X60327952Y-90562259D01*
X60332915Y-90519251D01*
X60346362Y-90487704D01*
X60368316Y-90462821D01*
X60398569Y-90444657D01*
X60478345Y-90423682D01*
X60550793Y-90413699D01*
X61220782Y-90331450D01*
X61308551Y-90322948D01*
X61351849Y-90325497D01*
X61394554Y-90342847D01*
X61434464Y-90378345D01*
X61462058Y-90424400D01*
X61471009Y-90473966D01*
X61465481Y-90518240D01*
X61451467Y-90545171D01*
X61430159Y-90560336D01*
X61382298Y-90573146D01*
X61293230Y-90583783D01*
G37*
G36*
X61308709Y-92397653D02*
G01*
X60500327Y-92229583D01*
X60445842Y-92213359D01*
X60403714Y-92191035D01*
X60371641Y-92163088D01*
X60338689Y-92110686D01*
X60327952Y-92052996D01*
X60333330Y-92014295D01*
X60348364Y-91984738D01*
X60373198Y-91962046D01*
X60404694Y-91948502D01*
X60446312Y-91943782D01*
X60501609Y-91950231D01*
X61301748Y-92116560D01*
X61377776Y-92142640D01*
X61428327Y-92181040D01*
X61460437Y-92231919D01*
X61471009Y-92289392D01*
X61465876Y-92328288D01*
X61451496Y-92358510D01*
X61427869Y-92382174D01*
X61397615Y-92397131D01*
X61358912Y-92402911D01*
X61308709Y-92397653D01*
G37*
G36*
X61594107Y-92319251D02*
G01*
X61603745Y-92266010D01*
X61631201Y-92226744D01*
X61657859Y-92210018D01*
X61691772Y-92202915D01*
X61735890Y-92206869D01*
X61791215Y-92228784D01*
X61836091Y-92269883D01*
X61865954Y-92322657D01*
X61875475Y-92376495D01*
X61866261Y-92426473D01*
X61839388Y-92465705D01*
X61813318Y-92482806D01*
X61779499Y-92490169D01*
X61734699Y-92486221D01*
X61675213Y-92463395D01*
X61631385Y-92423940D01*
X61603225Y-92372926D01*
X61594107Y-92319251D01*
G37*
G36*
X61312190Y-92941887D02*
G01*
X61288468Y-92936941D01*
X61369189Y-93026909D01*
X61424938Y-93118291D01*
X61450398Y-93183509D01*
X61465785Y-93252471D01*
X61471009Y-93326020D01*
X61465191Y-93397333D01*
X61448646Y-93458425D01*
X61422099Y-93511125D01*
X61385007Y-93556062D01*
X61339437Y-93589112D01*
X61283888Y-93611143D01*
X61230881Y-93622333D01*
X61172422Y-93623233D01*
X61020289Y-93599694D01*
X60500235Y-93491617D01*
X60423169Y-93465280D01*
X60371641Y-93426679D01*
X60338744Y-93375636D01*
X60327952Y-93318143D01*
X60333341Y-93278740D01*
X60348372Y-93248713D01*
X60373107Y-93225728D01*
X60404644Y-93211876D01*
X60446233Y-93206950D01*
X60501426Y-93213271D01*
X60967258Y-93310175D01*
X61060211Y-93324423D01*
X61127982Y-93325369D01*
X61176452Y-93316769D01*
X61214465Y-93294289D01*
X61238757Y-93253168D01*
X61248259Y-93184787D01*
X61237554Y-93114412D01*
X61204112Y-93043736D01*
X61152414Y-92981829D01*
X61082937Y-92931171D01*
X61006605Y-92901525D01*
X60850296Y-92862844D01*
X60500143Y-92790029D01*
X60444995Y-92773749D01*
X60402804Y-92751589D01*
X60371092Y-92724083D01*
X60338638Y-92672103D01*
X60327952Y-92613533D01*
X60333283Y-92575544D01*
X60348281Y-92546117D01*
X60373198Y-92523133D01*
X60404735Y-92509292D01*
X60446350Y-92504392D01*
X60501609Y-92510768D01*
X61309900Y-92678837D01*
X61383157Y-92703499D01*
X61430800Y-92738646D01*
X61460898Y-92785848D01*
X61471009Y-92841961D01*
X61466318Y-92876929D01*
X61452965Y-92905159D01*
X61431028Y-92927062D01*
X61399110Y-92941887D01*
X61361357Y-92947189D01*
X61312190Y-92941887D01*
G37*
G36*
X60327952Y-93935284D02*
G01*
X60332907Y-93894933D01*
X60347005Y-93861854D01*
X60370267Y-93834350D01*
X60400545Y-93815941D01*
X60438857Y-93808202D01*
X60488420Y-93812735D01*
X60547280Y-93835698D01*
X60598329Y-93879322D01*
X60633221Y-93936068D01*
X60644491Y-93996925D01*
X60639120Y-94037737D01*
X60623856Y-94070657D01*
X60598512Y-94097583D01*
X60566268Y-94115913D01*
X60529775Y-94123570D01*
X60487137Y-94120115D01*
X60440257Y-94105153D01*
X60401801Y-94082051D01*
X60370359Y-94050597D01*
X60338242Y-93993850D01*
X60327952Y-93935284D01*
G37*
G36*
X60909464Y-94464680D02*
G01*
X61038986Y-94500243D01*
X61148596Y-94547652D01*
X61241023Y-94606107D01*
X61318418Y-94675523D01*
X61383541Y-94758244D01*
X61428860Y-94845236D01*
X61455962Y-94937767D01*
X61465147Y-95037582D01*
X61459942Y-95116128D01*
X61445635Y-95179268D01*
X61423656Y-95229832D01*
X61373595Y-95297564D01*
X61301840Y-95359067D01*
X61709970Y-95443972D01*
X61789716Y-95469865D01*
X61842227Y-95505521D01*
X61867279Y-95536806D01*
X61882115Y-95571994D01*
X61887199Y-95612408D01*
X61882013Y-95652716D01*
X61867966Y-95681603D01*
X61845525Y-95702075D01*
X61816555Y-95713872D01*
X61777214Y-95717743D01*
X61723800Y-95711235D01*
X60490068Y-95454780D01*
X60416921Y-95429610D01*
X60368619Y-95392772D01*
X60338012Y-95344141D01*
X60327952Y-95289458D01*
X60332987Y-95253324D01*
X60347167Y-95225192D01*
X60370725Y-95203087D01*
X60400583Y-95189658D01*
X60439857Y-95184812D01*
X60491900Y-95190722D01*
X60510493Y-95194569D01*
X60455532Y-95131400D01*
X60411117Y-95070189D01*
X60375061Y-95006139D01*
X60349201Y-94940404D01*
X60346242Y-94927581D01*
X60550702Y-94927581D01*
X60560008Y-94997266D01*
X60588620Y-95065975D01*
X60635235Y-95127666D01*
X60705033Y-95184586D01*
X60790336Y-95228250D01*
X60901495Y-95260790D01*
X61008322Y-95273363D01*
X61091364Y-95265003D01*
X61141838Y-95248150D01*
X61181542Y-95224817D01*
X61212356Y-95195210D01*
X61243477Y-95139748D01*
X61254121Y-95073028D01*
X61243576Y-95001018D01*
X61211165Y-94931153D01*
X61160053Y-94869464D01*
X61087517Y-94814558D01*
X61002065Y-94772837D01*
X60900213Y-94743300D01*
X60791611Y-94730072D01*
X60708788Y-94737713D01*
X60658752Y-94754125D01*
X60619959Y-94777129D01*
X60590361Y-94806498D01*
X60560826Y-94861594D01*
X60550702Y-94927581D01*
X60346242Y-94927581D01*
X60333335Y-94871653D01*
X60327952Y-94798346D01*
X60332926Y-94733531D01*
X60347289Y-94675767D01*
X60370634Y-94623865D01*
X60402997Y-94577100D01*
X60443385Y-94536986D01*
X60492633Y-94503057D01*
X60576942Y-94467359D01*
X60678654Y-94448377D01*
X60787328Y-94447522D01*
X60909464Y-94464680D01*
G37*
G36*
X60901129Y-95786522D02*
G01*
X61021397Y-95820686D01*
X61131481Y-95870603D01*
X61230820Y-95936122D01*
X61313747Y-96014126D01*
X61380794Y-96105369D01*
X61430434Y-96209582D01*
X61460732Y-96322344D01*
X61471009Y-96443505D01*
X61462468Y-96549053D01*
X61438679Y-96635291D01*
X61401308Y-96705914D01*
X61349584Y-96766724D01*
X61289959Y-96811487D01*
X61221240Y-96841743D01*
X61147160Y-96858388D01*
X61072560Y-96862027D01*
X60996384Y-96852642D01*
X60929291Y-96830946D01*
X60885055Y-96801141D01*
X60857898Y-96763799D01*
X60834942Y-96691221D01*
X60826208Y-96589318D01*
X60826208Y-96580617D01*
X60990339Y-96580617D01*
X61083494Y-96585546D01*
X61151652Y-96574116D01*
X61201273Y-96550026D01*
X61239540Y-96511745D01*
X61263162Y-96461195D01*
X61271707Y-96394321D01*
X61263796Y-96329547D01*
X61240204Y-96269679D01*
X61199716Y-96213062D01*
X61147416Y-96166077D01*
X61078743Y-96125196D01*
X60990339Y-96090971D01*
X60990339Y-96580617D01*
X60826208Y-96580617D01*
X60826208Y-96056533D01*
X60736078Y-96048063D01*
X60660977Y-96059281D01*
X60596452Y-96089015D01*
X60552076Y-96132553D01*
X60524958Y-96188702D01*
X60515531Y-96256843D01*
X60518534Y-96304665D01*
X60527254Y-96348250D01*
X60542116Y-96390409D01*
X60564166Y-96434071D01*
X60618021Y-96515129D01*
X60696331Y-96614597D01*
X60710483Y-96642985D01*
X60715566Y-96680360D01*
X60709000Y-96719645D01*
X60691111Y-96745939D01*
X60663178Y-96759962D01*
X60622509Y-96758853D01*
X60583960Y-96744521D01*
X60533208Y-96711043D01*
X60485027Y-96665669D01*
X60435846Y-96602416D01*
X60394219Y-96529091D01*
X60358635Y-96438376D01*
X60335901Y-96339749D01*
X60327952Y-96227167D01*
X60335241Y-96119127D01*
X60355527Y-96030002D01*
X60387119Y-95956541D01*
X60429317Y-95896116D01*
X60482466Y-95846881D01*
X60561592Y-95801900D01*
X60655052Y-95775574D01*
X60766664Y-95769266D01*
X60901129Y-95786522D01*
G37*
G36*
X61294330Y-97339266D02*
G01*
X60668030Y-97427651D01*
X61323089Y-97799694D01*
X61396382Y-97845203D01*
X61437120Y-97879012D01*
X61462203Y-97918174D01*
X61471009Y-97969962D01*
X61461470Y-98018209D01*
X61434006Y-98053401D01*
X61394417Y-98073360D01*
X61348551Y-98073368D01*
X61305046Y-98057798D01*
X61258609Y-98032977D01*
X61209333Y-98003118D01*
X60543558Y-97602132D01*
X60470651Y-97558352D01*
X60394905Y-97503305D01*
X60366606Y-97472891D01*
X60345629Y-97439192D01*
X60332521Y-97401588D01*
X60327952Y-97357676D01*
X60335626Y-97303538D01*
X60355796Y-97268649D01*
X60385509Y-97243539D01*
X60416338Y-97229082D01*
X60544473Y-97199956D01*
X61203288Y-97076216D01*
X61252472Y-97067790D01*
X61303031Y-97062203D01*
X61347819Y-97065042D01*
X61376198Y-97075006D01*
X61405796Y-97094351D01*
X61431774Y-97120227D01*
X61452782Y-97152054D01*
X61466549Y-97187188D01*
X61471009Y-97222212D01*
X61465502Y-97266530D01*
X61451437Y-97294049D01*
X61429976Y-97310048D01*
X61381979Y-97324810D01*
X61294330Y-97339266D01*
G37*
G36*
X142723082Y-97633344D02*
G01*
X142844769Y-97667117D01*
X142951127Y-97713687D01*
X143044097Y-97772633D01*
X143125167Y-97844187D01*
X143196857Y-97934172D01*
X143247267Y-98031284D01*
X143277757Y-98137138D01*
X143288199Y-98253965D01*
X143282337Y-98373491D01*
X143276475Y-98493109D01*
X143281039Y-98518746D01*
X143293356Y-98534896D01*
X143314394Y-98544034D01*
X143454803Y-98564276D01*
X143594205Y-98584242D01*
X143612093Y-98593411D01*
X143617744Y-98610163D01*
X143614172Y-98792795D01*
X143610600Y-98975519D01*
X143603293Y-98995673D01*
X143580924Y-98998417D01*
X143239564Y-98923954D01*
X142898113Y-98849490D01*
X142572279Y-98788321D01*
X142222537Y-98736009D01*
X142208249Y-98734085D01*
X142193571Y-98725610D01*
X142184710Y-98699006D01*
X142177797Y-98595881D01*
X142174452Y-98352151D01*
X142176332Y-98214856D01*
X142502714Y-98214856D01*
X142509926Y-98357451D01*
X142521124Y-98387138D01*
X142557208Y-98398749D01*
X142757795Y-98443375D01*
X142851584Y-98460411D01*
X142945282Y-98477356D01*
X142952731Y-98471528D01*
X142961148Y-98431088D01*
X142965798Y-98301134D01*
X142956288Y-98218846D01*
X142929819Y-98154390D01*
X142887176Y-98103573D01*
X142826045Y-98064327D01*
X142741400Y-98037077D01*
X142661262Y-98028192D01*
X142603164Y-98036389D01*
X142560915Y-98057814D01*
X142530384Y-98092111D01*
X142510328Y-98142455D01*
X142502714Y-98214856D01*
X142176332Y-98214856D01*
X142178573Y-98051274D01*
X142192080Y-97934734D01*
X142222814Y-97839962D01*
X142269152Y-97762772D01*
X142331347Y-97700205D01*
X142408567Y-97653608D01*
X142497344Y-97626136D01*
X142600856Y-97618439D01*
X142723082Y-97633344D01*
G37*
G36*
X142971935Y-96859583D02*
G01*
X142994276Y-96869113D01*
X143007158Y-96885490D01*
X143011869Y-96910965D01*
X143009396Y-96966103D01*
X143006831Y-97020233D01*
X143014660Y-97096417D01*
X143033484Y-97139027D01*
X143069312Y-97167716D01*
X143141104Y-97191417D01*
X143274918Y-97217704D01*
X143408641Y-97243990D01*
X143497393Y-97258462D01*
X143584954Y-97272658D01*
X143603572Y-97284094D01*
X143612615Y-97311493D01*
X143616736Y-97459687D01*
X143610600Y-97610721D01*
X143599852Y-97633558D01*
X143576619Y-97636824D01*
X143330148Y-97584526D01*
X143083584Y-97532227D01*
X142920390Y-97503915D01*
X142789328Y-97491828D01*
X142685255Y-97492660D01*
X142669868Y-97491378D01*
X142657073Y-97485034D01*
X142649260Y-97472052D01*
X142627369Y-97306181D01*
X142596503Y-97136279D01*
X142606709Y-97126143D01*
X142661350Y-97126754D01*
X142717018Y-97128970D01*
X142726196Y-97122174D01*
X142721765Y-97120199D01*
X142673073Y-97029026D01*
X142642332Y-96955923D01*
X142625294Y-96890882D01*
X142619951Y-96832472D01*
X142623993Y-96797040D01*
X142632574Y-96783489D01*
X142644589Y-96781455D01*
X142728761Y-96804994D01*
X142812841Y-96829449D01*
X142891884Y-96844928D01*
X142971935Y-96859583D01*
G37*
G36*
X143107856Y-95789524D02*
G01*
X143221488Y-95822229D01*
X143321631Y-95869513D01*
X143410094Y-95931320D01*
X143488142Y-96008427D01*
X143552245Y-96097513D01*
X143597430Y-96192486D01*
X143624732Y-96294720D01*
X143634047Y-96406024D01*
X143624117Y-96514434D01*
X143596237Y-96603714D01*
X143551799Y-96677687D01*
X143490157Y-96738957D01*
X143415882Y-96783936D01*
X143331474Y-96810439D01*
X143234105Y-96818061D01*
X143120221Y-96804353D01*
X143004223Y-96771341D01*
X142902219Y-96724234D01*
X142812366Y-96663205D01*
X142733340Y-96587649D01*
X142668302Y-96499913D01*
X142622291Y-96405142D01*
X142594357Y-96301824D01*
X142590141Y-96251693D01*
X142901318Y-96251693D01*
X142908213Y-96301963D01*
X142929086Y-96349389D01*
X142965707Y-96395399D01*
X143008557Y-96431133D01*
X143055987Y-96456911D01*
X143108864Y-96473252D01*
X143164318Y-96479007D01*
X143211721Y-96472641D01*
X143253120Y-96455208D01*
X143288881Y-96425452D01*
X143310044Y-96387386D01*
X143317508Y-96338246D01*
X143310650Y-96288693D01*
X143289812Y-96241598D01*
X143253120Y-96195547D01*
X143210313Y-96160456D01*
X143162528Y-96134882D01*
X143108864Y-96118428D01*
X143054852Y-96112992D01*
X143007196Y-96119570D01*
X142964150Y-96137479D01*
X142929327Y-96166107D01*
X142908646Y-96203234D01*
X142901318Y-96251693D01*
X142590141Y-96251693D01*
X142584780Y-96187945D01*
X142594935Y-96076372D01*
X142623284Y-95985680D01*
X142668201Y-95911635D01*
X142730226Y-95851348D01*
X142804988Y-95807632D01*
X142890741Y-95781974D01*
X142990463Y-95775051D01*
X143107856Y-95789524D01*
G37*
G36*
X142365968Y-95087204D02*
G01*
X142428567Y-95108356D01*
X142475029Y-95140884D01*
X142508538Y-95185178D01*
X142530003Y-95243869D01*
X142537885Y-95321402D01*
X142532611Y-95376683D01*
X142518247Y-95418883D01*
X142495936Y-95451004D01*
X142462306Y-95475942D01*
X142420231Y-95487037D01*
X142365968Y-95483060D01*
X142317044Y-95466206D01*
X142274454Y-95437377D01*
X142237100Y-95395133D01*
X142203261Y-95325343D01*
X142192037Y-95249503D01*
X142197430Y-95198459D01*
X142212610Y-95156826D01*
X142237100Y-95122558D01*
X142272696Y-95095816D01*
X142314627Y-95083914D01*
X142365968Y-95087204D01*
G37*
G36*
X143394078Y-95308946D02*
G01*
X143533119Y-95347004D01*
X143637299Y-95393429D01*
X143713548Y-95446516D01*
X143765537Y-95501583D01*
X143809773Y-95569610D01*
X143846103Y-95652681D01*
X143873741Y-95753437D01*
X143882954Y-95815125D01*
X143886105Y-95881207D01*
X143876152Y-95895915D01*
X143831732Y-95902094D01*
X143708236Y-95884504D01*
X143648862Y-95867817D01*
X143620729Y-95852228D01*
X143610600Y-95838067D01*
X143583317Y-95761938D01*
X143562239Y-95727700D01*
X143524795Y-95701663D01*
X143448117Y-95675035D01*
X143164368Y-95612937D01*
X142898148Y-95567170D01*
X142671791Y-95546625D01*
X142657411Y-95544610D01*
X142638235Y-95533782D01*
X142631674Y-95511271D01*
X142625812Y-95354741D01*
X142608227Y-95175681D01*
X142614372Y-95160893D01*
X142634971Y-95157088D01*
X142718419Y-95170676D01*
X143036598Y-95234574D01*
X143394078Y-95308946D01*
G37*
G36*
X143052901Y-94131543D02*
G01*
X143116599Y-94153416D01*
X143153356Y-94183302D01*
X143170962Y-94221210D01*
X143192853Y-94433244D01*
X143223719Y-94792464D01*
X143266049Y-94785542D01*
X143300377Y-94765028D01*
X143328774Y-94729083D01*
X143350692Y-94673308D01*
X143358541Y-94603054D01*
X143347443Y-94513699D01*
X143311646Y-94413826D01*
X143264752Y-94328006D01*
X143286240Y-94310876D01*
X143367334Y-94278638D01*
X143452410Y-94255275D01*
X143485028Y-94253450D01*
X143508109Y-94273234D01*
X143563730Y-94351273D01*
X143604740Y-94443287D01*
X143630692Y-94551949D01*
X143639909Y-94680631D01*
X143629818Y-94798827D01*
X143601745Y-94894690D01*
X143557579Y-94972636D01*
X143497210Y-95035821D01*
X143422254Y-95083619D01*
X143335188Y-95112013D01*
X143232620Y-95120356D01*
X143110237Y-95105614D01*
X142995371Y-95073005D01*
X142893643Y-95026398D01*
X142803351Y-94965911D01*
X142723265Y-94890924D01*
X142654354Y-94800945D01*
X142606095Y-94705427D01*
X142577072Y-94602950D01*
X142575529Y-94585560D01*
X142830976Y-94585560D01*
X142836695Y-94625402D01*
X142854151Y-94663474D01*
X142885107Y-94700964D01*
X142939644Y-94740921D01*
X143002710Y-94763521D01*
X143023398Y-94760832D01*
X143030278Y-94741264D01*
X143025487Y-94656409D01*
X143006831Y-94505875D01*
X142998834Y-94476968D01*
X142990436Y-94469331D01*
X142949011Y-94465841D01*
X142912415Y-94472913D01*
X142879062Y-94490305D01*
X142852304Y-94516091D01*
X142836485Y-94547249D01*
X142830976Y-94585560D01*
X142575529Y-94585560D01*
X142567194Y-94491587D01*
X142576731Y-94398309D01*
X142603914Y-94319579D01*
X142648163Y-94252352D01*
X142710992Y-94194741D01*
X142785117Y-94152128D01*
X142865402Y-94127285D01*
X142953842Y-94119961D01*
X143052901Y-94131543D01*
G37*
G36*
X142936489Y-93311253D02*
G01*
X142918904Y-93368131D01*
X142905197Y-93422184D01*
X142901318Y-93461188D01*
X142907597Y-93518689D01*
X142925882Y-93569461D01*
X142956365Y-93615061D01*
X142996567Y-93652642D01*
X143044922Y-93680457D01*
X143103002Y-93698683D01*
X143164969Y-93704280D01*
X143213255Y-93694576D01*
X143251746Y-93671481D01*
X143280813Y-93636656D01*
X143299122Y-93591071D01*
X143305784Y-93531346D01*
X143301126Y-93485867D01*
X143285268Y-93427849D01*
X143264752Y-93371428D01*
X143281167Y-93361334D01*
X143392521Y-93353843D01*
X143499561Y-93357438D01*
X143547493Y-93363094D01*
X143566727Y-93375569D01*
X143588575Y-93414417D01*
X143612889Y-93500938D01*
X143629479Y-93596750D01*
X143634047Y-93660673D01*
X143623687Y-93768485D01*
X143594516Y-93857460D01*
X143547754Y-93931447D01*
X143482372Y-93992965D01*
X143404275Y-94037862D01*
X143317015Y-94064100D01*
X143218020Y-94071405D01*
X143104101Y-94057629D01*
X142995913Y-94026117D01*
X142897741Y-93978972D01*
X142808177Y-93915789D01*
X142726288Y-93835337D01*
X142658130Y-93742901D01*
X142610774Y-93647124D01*
X142582565Y-93546750D01*
X142573056Y-93440122D01*
X142581011Y-93342437D01*
X142603434Y-93260445D01*
X142639093Y-93191269D01*
X142654706Y-93173693D01*
X142667028Y-93170936D01*
X142788844Y-93226440D01*
X142914874Y-93289180D01*
X142932519Y-93302757D01*
X142936489Y-93311253D01*
G37*
G36*
X143310639Y-92508549D02*
G01*
X143403512Y-92535477D01*
X143494920Y-92562038D01*
X143532198Y-92575777D01*
X143555645Y-92613604D01*
X143596148Y-92711957D01*
X143620164Y-92812176D01*
X143628185Y-92915396D01*
X143619826Y-93014185D01*
X143598269Y-93081350D01*
X143566852Y-93125561D01*
X143525850Y-93152565D01*
X143472402Y-93164200D01*
X143401222Y-93157930D01*
X143197341Y-93110485D01*
X142993367Y-93063041D01*
X142968006Y-93063579D01*
X142953866Y-93076127D01*
X142948213Y-93104715D01*
X142948213Y-93117721D01*
X142949220Y-93131002D01*
X142941534Y-93158955D01*
X142921468Y-93163334D01*
X142871185Y-93150419D01*
X142820901Y-93137322D01*
X142755139Y-93126239D01*
X142689468Y-93115065D01*
X142675504Y-93100987D01*
X142666845Y-93046280D01*
X142660364Y-93015510D01*
X142646420Y-93002866D01*
X142523963Y-92973374D01*
X142398392Y-92951300D01*
X142316748Y-92930052D01*
X142286372Y-92915083D01*
X142279964Y-92904680D01*
X142292238Y-92829942D01*
X142307533Y-92754013D01*
X142326859Y-92603621D01*
X142332906Y-92585233D01*
X142344261Y-92582280D01*
X142468276Y-92614520D01*
X142593206Y-92647035D01*
X142624645Y-92649187D01*
X142638827Y-92642370D01*
X142643398Y-92628442D01*
X142640375Y-92521646D01*
X142637261Y-92413661D01*
X142641563Y-92397404D01*
X142652557Y-92394793D01*
X142722899Y-92414485D01*
X142793149Y-92433994D01*
X142864499Y-92447916D01*
X142935757Y-92461654D01*
X142951282Y-92471574D01*
X142957097Y-92495268D01*
X142955632Y-92562130D01*
X142954075Y-92628900D01*
X142954075Y-92704096D01*
X142961966Y-92715625D01*
X142999687Y-92728551D01*
X143073235Y-92743846D01*
X143146874Y-92758135D01*
X143227539Y-92768941D01*
X143267041Y-92764088D01*
X143290174Y-92747407D01*
X143305540Y-92717262D01*
X143311646Y-92667093D01*
X143299923Y-92593088D01*
X143288107Y-92524944D01*
X143293564Y-92510443D01*
X143310639Y-92508549D01*
G37*
G36*
X143622323Y-91016439D02*
G01*
X143617927Y-91192935D01*
X143613530Y-91369339D01*
X143612065Y-91620665D01*
X143610600Y-91871899D01*
X143603884Y-91900216D01*
X143587152Y-91908078D01*
X143393712Y-91888019D01*
X143337658Y-91888294D01*
X142940702Y-91560307D01*
X142583284Y-91269934D01*
X142519109Y-91227007D01*
X142507476Y-91230132D01*
X142502714Y-91249630D01*
X142505645Y-91462304D01*
X142508576Y-91675895D01*
X142502870Y-91691080D01*
X142485037Y-91693022D01*
X142337484Y-91639808D01*
X142234683Y-91600333D01*
X142178573Y-91584120D01*
X142166897Y-91575902D01*
X142162178Y-91553712D01*
X142168315Y-91139537D01*
X142174452Y-90725271D01*
X142180162Y-90709495D01*
X142198265Y-90703197D01*
X142289292Y-90709374D01*
X142435120Y-90734430D01*
X142453903Y-90742093D01*
X142481282Y-90762090D01*
X142894083Y-91113525D01*
X143226627Y-91388048D01*
X143276017Y-91423470D01*
X143280193Y-91421348D01*
X143282337Y-91407716D01*
X143274552Y-91093375D01*
X143262828Y-90994823D01*
X143253028Y-90899569D01*
X143257536Y-90890478D01*
X143274094Y-90889860D01*
X143436588Y-90930828D01*
X143600250Y-90986763D01*
X143616990Y-90998739D01*
X143622323Y-91016439D01*
G37*
G36*
X143599928Y-89465561D02*
G01*
X143610600Y-89487234D01*
X143615953Y-89533902D01*
X143618843Y-89675454D01*
X143616108Y-89806081D01*
X143610600Y-89858178D01*
X143595980Y-89882343D01*
X143564071Y-89891517D01*
X143431336Y-89900757D01*
X143404336Y-89911393D01*
X143401581Y-89951173D01*
X143399574Y-90179022D01*
X143404414Y-90331874D01*
X143411664Y-90362937D01*
X143438147Y-90383332D01*
X143519650Y-90423570D01*
X143590847Y-90462946D01*
X143610600Y-90488508D01*
X143615902Y-90543076D01*
X143618843Y-90718768D01*
X143612742Y-90824889D01*
X143601194Y-90860287D01*
X143589076Y-90865863D01*
X143504963Y-90823444D01*
X142933284Y-90503163D01*
X142185076Y-90080928D01*
X142153711Y-90059434D01*
X142146608Y-90044932D01*
X142151055Y-89973217D01*
X142650450Y-89973217D01*
X142847188Y-90085233D01*
X142989555Y-90160657D01*
X143030553Y-90177465D01*
X143044660Y-90170128D01*
X143053726Y-90122235D01*
X143055832Y-90020386D01*
X143050218Y-89962139D01*
X143039346Y-89943724D01*
X143025058Y-89938778D01*
X142977574Y-89936707D01*
X142839952Y-89946472D01*
X142704957Y-89962233D01*
X142650450Y-89973217D01*
X142151055Y-89973217D01*
X142151737Y-89962226D01*
X142156866Y-89878603D01*
X142153294Y-89798186D01*
X142149722Y-89718777D01*
X142156664Y-89703505D01*
X142183244Y-89690658D01*
X142352026Y-89656782D01*
X142922109Y-89557576D01*
X143497351Y-89465685D01*
X143584954Y-89456826D01*
X143599928Y-89465561D01*
G37*
G36*
X143377500Y-88108422D02*
G01*
X143394238Y-88116079D01*
X143420640Y-88138464D01*
X143503335Y-88236177D01*
X143565943Y-88337701D01*
X143610132Y-88443892D01*
X143636749Y-88555953D01*
X143645770Y-88675371D01*
X143636050Y-88800092D01*
X143608581Y-88905705D01*
X143564874Y-88995564D01*
X143505003Y-89072227D01*
X143427601Y-89137265D01*
X143342359Y-89185364D01*
X143248429Y-89217878D01*
X143144051Y-89234694D01*
X143027080Y-89234702D01*
X142895090Y-89215850D01*
X142773383Y-89183000D01*
X142660569Y-89137267D01*
X142555655Y-89078625D01*
X142457855Y-89006656D01*
X142366610Y-88920560D01*
X142282417Y-88818679D01*
X142219084Y-88714757D01*
X142174714Y-88607981D01*
X142148202Y-88497240D01*
X142139281Y-88381181D01*
X142148805Y-88249896D01*
X142175411Y-88141130D01*
X142217123Y-88050922D01*
X142273363Y-87976161D01*
X142344994Y-87914799D01*
X142367559Y-87903930D01*
X142385294Y-87903167D01*
X142415643Y-87919505D01*
X142531107Y-88003093D01*
X142643172Y-88091767D01*
X142672707Y-88120238D01*
X142680950Y-88142036D01*
X142639551Y-88183436D01*
X142594191Y-88229029D01*
X142561790Y-88273561D01*
X142530775Y-88347364D01*
X142520299Y-88429266D01*
X142527259Y-88500389D01*
X142547849Y-88566424D01*
X142582468Y-88628711D01*
X142632590Y-88688194D01*
X142706877Y-88748450D01*
X142792035Y-88793232D01*
X142889961Y-88822833D01*
X142992690Y-88834234D01*
X143078109Y-88824366D01*
X143150354Y-88795813D01*
X143200186Y-88758614D01*
X143235239Y-88712306D01*
X143256991Y-88655159D01*
X143264752Y-88584055D01*
X143255045Y-88497983D01*
X143225093Y-88410490D01*
X143194875Y-88354123D01*
X143152003Y-88290963D01*
X143112344Y-88233627D01*
X143123610Y-88215950D01*
X143252112Y-88155409D01*
X143355749Y-88113519D01*
X143377500Y-88108422D01*
G37*
G36*
X143377500Y-86801235D02*
G01*
X143394238Y-86808891D01*
X143420640Y-86831277D01*
X143503335Y-86928990D01*
X143565943Y-87030513D01*
X143610132Y-87136704D01*
X143636749Y-87248766D01*
X143645770Y-87368183D01*
X143636050Y-87492904D01*
X143608581Y-87598517D01*
X143564874Y-87688376D01*
X143505003Y-87765039D01*
X143427601Y-87830077D01*
X143342359Y-87878176D01*
X143248429Y-87910690D01*
X143144051Y-87927506D01*
X143027080Y-87927514D01*
X142895090Y-87908662D01*
X142773383Y-87875812D01*
X142660569Y-87830079D01*
X142555655Y-87771437D01*
X142457855Y-87699469D01*
X142366610Y-87613373D01*
X142282417Y-87511491D01*
X142219084Y-87407570D01*
X142174714Y-87300794D01*
X142148202Y-87190053D01*
X142139281Y-87073993D01*
X142148805Y-86942709D01*
X142175411Y-86833942D01*
X142217123Y-86743734D01*
X142273363Y-86668974D01*
X142344994Y-86607611D01*
X142367559Y-86596742D01*
X142385294Y-86595979D01*
X142415643Y-86612317D01*
X142531107Y-86695905D01*
X142643172Y-86784579D01*
X142672707Y-86813050D01*
X142680950Y-86834849D01*
X142639551Y-86876248D01*
X142594191Y-86921842D01*
X142561790Y-86966373D01*
X142530775Y-87040176D01*
X142520299Y-87122078D01*
X142527259Y-87193201D01*
X142547849Y-87259236D01*
X142582468Y-87321523D01*
X142632590Y-87381006D01*
X142706877Y-87441263D01*
X142792035Y-87486044D01*
X142889961Y-87515645D01*
X142992690Y-87527046D01*
X143078109Y-87517178D01*
X143150354Y-87488626D01*
X143200186Y-87451427D01*
X143235239Y-87405119D01*
X143256991Y-87347971D01*
X143264752Y-87276867D01*
X143255045Y-87190795D01*
X143225093Y-87103302D01*
X143194875Y-87046935D01*
X143152003Y-86983776D01*
X143112344Y-86926440D01*
X143123610Y-86908763D01*
X143252112Y-86848221D01*
X143355749Y-86806331D01*
X143377500Y-86801235D01*
G37*
G36*
X143578817Y-85361515D02*
G01*
X143597428Y-85368077D01*
X143605470Y-85376078D01*
X143610600Y-85405204D01*
X143616736Y-85578860D01*
X143614510Y-85720865D01*
X143610600Y-85762500D01*
X143600151Y-85781448D01*
X143582939Y-85784299D01*
X143339582Y-85726139D01*
X143096316Y-85668070D01*
X143062593Y-85667710D01*
X143050154Y-85680526D01*
X143044995Y-85733428D01*
X143042002Y-85921411D01*
X143044934Y-86110567D01*
X143050154Y-86167699D01*
X143062420Y-86185834D01*
X143096316Y-86199390D01*
X143335552Y-86244086D01*
X143574787Y-86288783D01*
X143599308Y-86300795D01*
X143610600Y-86323313D01*
X143616736Y-86512998D01*
X143610600Y-86684181D01*
X143599985Y-86703763D01*
X143578817Y-86706530D01*
X143245151Y-86626662D01*
X142910294Y-86546520D01*
X142553547Y-86482406D01*
X142196708Y-86418293D01*
X142179658Y-86409278D01*
X142174177Y-86392464D01*
X142177291Y-86299407D01*
X142180313Y-86206351D01*
X142177291Y-86108898D01*
X142174177Y-86011537D01*
X142178618Y-85999839D01*
X142192587Y-85998347D01*
X142422297Y-86057149D01*
X142651916Y-86115950D01*
X142682389Y-86116445D01*
X142693865Y-86105509D01*
X142698836Y-86058273D01*
X142702016Y-85850794D01*
X142699058Y-85657209D01*
X142693865Y-85600476D01*
X142681296Y-85580389D01*
X142651916Y-85567686D01*
X142429441Y-85528485D01*
X142205867Y-85488918D01*
X142181497Y-85477077D01*
X142174177Y-85457227D01*
X142177291Y-85369208D01*
X142180313Y-85280182D01*
X142177291Y-85190789D01*
X142174177Y-85100389D01*
X142180638Y-85079589D01*
X142198723Y-85076483D01*
X142554005Y-85160014D01*
X142910294Y-85243545D01*
X143245060Y-85302713D01*
X143578817Y-85361515D01*
G37*
G36*
X142901135Y-83520260D02*
G01*
X143058425Y-83556779D01*
X143107673Y-83574115D01*
X143190377Y-83629102D01*
X143354053Y-83763800D01*
X143493822Y-83890876D01*
X143587061Y-83983619D01*
X143602005Y-84008672D01*
X143613807Y-84058615D01*
X143618843Y-84147475D01*
X143616124Y-84251734D01*
X143610600Y-84294112D01*
X143602817Y-84311935D01*
X143590175Y-84324979D01*
X143510435Y-84372890D01*
X143359182Y-84448260D01*
X143194484Y-84518379D01*
X143116924Y-84540218D01*
X143038332Y-84541504D01*
X142905348Y-84521350D01*
X142785272Y-84495430D01*
X142664097Y-84469235D01*
X142644705Y-84457057D01*
X142637536Y-84428568D01*
X142640650Y-84275336D01*
X142643673Y-84122104D01*
X142650662Y-84107036D01*
X142675363Y-84105710D01*
X142761733Y-84127692D01*
X142849111Y-84149857D01*
X143022860Y-84179898D01*
X143063857Y-84176119D01*
X143152644Y-84148666D01*
X143219811Y-84119766D01*
X143246761Y-84100109D01*
X143253028Y-84086476D01*
X143237622Y-84058708D01*
X143154659Y-83985817D01*
X143068121Y-83923027D01*
X143028996Y-83902561D01*
X142853050Y-83857956D01*
X142763565Y-83845408D01*
X142675088Y-83832951D01*
X142650318Y-83821890D01*
X142643398Y-83805383D01*
X142644405Y-83734033D01*
X142645413Y-83662500D01*
X142641291Y-83588953D01*
X142637170Y-83515405D01*
X142643690Y-83496183D01*
X142663823Y-83487928D01*
X142736339Y-83491486D01*
X142901135Y-83520260D01*
G37*
G36*
X143556286Y-83036109D02*
G01*
X143574378Y-83043809D01*
X143592190Y-83060564D01*
X143604764Y-83081596D01*
X143608584Y-83101047D01*
X143609592Y-83245578D01*
X143610600Y-83390109D01*
X143606499Y-83410754D01*
X143596299Y-83419543D01*
X143577901Y-83419418D01*
X143566727Y-83416121D01*
X143094026Y-83303738D01*
X142790768Y-83240724D01*
X142767480Y-83240095D01*
X142762191Y-83247776D01*
X142774465Y-83310974D01*
X142786646Y-83375179D01*
X142782561Y-83391398D01*
X142771314Y-83398946D01*
X142748911Y-83398352D01*
X142643947Y-83377652D01*
X142537885Y-83356586D01*
X142520460Y-83347238D01*
X142506836Y-83325079D01*
X142458629Y-83221850D01*
X142401959Y-83133462D01*
X142336934Y-83058274D01*
X142319295Y-83036950D01*
X142315135Y-83024569D01*
X142317242Y-83013028D01*
X142343254Y-82905134D01*
X142362030Y-82791836D01*
X142369194Y-82783072D01*
X142384561Y-82782402D01*
X142406085Y-82788905D01*
X142528374Y-82821672D01*
X142847554Y-82891762D01*
X143201920Y-82963935D01*
X143556286Y-83036109D01*
G37*
D10*
X139598400Y-80619600D02*
X145694400Y-80619600D01*
X145694400Y-101142800D01*
X139598400Y-101142800D01*
X139598400Y-80619600D01*
D12*
X71236819Y-71191143D02*
X70760628Y-71524476D01*
X71236819Y-71762571D02*
X70236819Y-71762571D01*
X70236819Y-71762571D02*
X70236819Y-71381619D01*
X70236819Y-71381619D02*
X70284438Y-71286381D01*
X70284438Y-71286381D02*
X70332057Y-71238762D01*
X70332057Y-71238762D02*
X70427295Y-71191143D01*
X70427295Y-71191143D02*
X70570152Y-71191143D01*
X70570152Y-71191143D02*
X70665390Y-71238762D01*
X70665390Y-71238762D02*
X70713009Y-71286381D01*
X70713009Y-71286381D02*
X70760628Y-71381619D01*
X70760628Y-71381619D02*
X70760628Y-71762571D01*
X71236819Y-70238762D02*
X71236819Y-70810190D01*
X71236819Y-70524476D02*
X70236819Y-70524476D01*
X70236819Y-70524476D02*
X70379676Y-70619714D01*
X70379676Y-70619714D02*
X70474914Y-70714952D01*
X70474914Y-70714952D02*
X70522533Y-70810190D01*
X71236819Y-68524476D02*
X71236819Y-69095904D01*
X71236819Y-68810190D02*
X70236819Y-68810190D01*
X70236819Y-68810190D02*
X70379676Y-68905428D01*
X70379676Y-68905428D02*
X70474914Y-69000666D01*
X70474914Y-69000666D02*
X70522533Y-69095904D01*
X70332057Y-68143523D02*
X70284438Y-68095904D01*
X70284438Y-68095904D02*
X70236819Y-68000666D01*
X70236819Y-68000666D02*
X70236819Y-67762571D01*
X70236819Y-67762571D02*
X70284438Y-67667333D01*
X70284438Y-67667333D02*
X70332057Y-67619714D01*
X70332057Y-67619714D02*
X70427295Y-67572095D01*
X70427295Y-67572095D02*
X70522533Y-67572095D01*
X70522533Y-67572095D02*
X70665390Y-67619714D01*
X70665390Y-67619714D02*
X71236819Y-68191142D01*
X71236819Y-68191142D02*
X71236819Y-67572095D01*
X70236819Y-66953047D02*
X70236819Y-66857809D01*
X70236819Y-66857809D02*
X70284438Y-66762571D01*
X70284438Y-66762571D02*
X70332057Y-66714952D01*
X70332057Y-66714952D02*
X70427295Y-66667333D01*
X70427295Y-66667333D02*
X70617771Y-66619714D01*
X70617771Y-66619714D02*
X70855866Y-66619714D01*
X70855866Y-66619714D02*
X71046342Y-66667333D01*
X71046342Y-66667333D02*
X71141580Y-66714952D01*
X71141580Y-66714952D02*
X71189200Y-66762571D01*
X71189200Y-66762571D02*
X71236819Y-66857809D01*
X71236819Y-66857809D02*
X71236819Y-66953047D01*
X71236819Y-66953047D02*
X71189200Y-67048285D01*
X71189200Y-67048285D02*
X71141580Y-67095904D01*
X71141580Y-67095904D02*
X71046342Y-67143523D01*
X71046342Y-67143523D02*
X70855866Y-67191142D01*
X70855866Y-67191142D02*
X70617771Y-67191142D01*
X70617771Y-67191142D02*
X70427295Y-67143523D01*
X70427295Y-67143523D02*
X70332057Y-67095904D01*
X70332057Y-67095904D02*
X70284438Y-67048285D01*
X70284438Y-67048285D02*
X70236819Y-66953047D01*
X132986199Y-49289125D02*
X133693306Y-48582019D01*
X133693306Y-48582019D02*
X133861665Y-48750377D01*
X133861665Y-48750377D02*
X133929008Y-48885064D01*
X133929008Y-48885064D02*
X133929008Y-49019751D01*
X133929008Y-49019751D02*
X133895336Y-49120767D01*
X133895336Y-49120767D02*
X133794321Y-49289125D01*
X133794321Y-49289125D02*
X133693306Y-49390141D01*
X133693306Y-49390141D02*
X133524947Y-49491156D01*
X133524947Y-49491156D02*
X133423932Y-49524828D01*
X133423932Y-49524828D02*
X133289245Y-49524828D01*
X133289245Y-49524828D02*
X133154558Y-49457484D01*
X133154558Y-49457484D02*
X132986199Y-49289125D01*
X134467756Y-49827873D02*
X133996352Y-50299278D01*
X134568771Y-49390141D02*
X133895336Y-49726858D01*
X133895336Y-49726858D02*
X134333069Y-50164591D01*
X139571024Y-56008637D02*
X139537352Y-55907622D01*
X139537352Y-55907622D02*
X139537352Y-55772935D01*
X139537352Y-55772935D02*
X139537352Y-55570904D01*
X139537352Y-55570904D02*
X139503680Y-55469889D01*
X139503680Y-55469889D02*
X139436337Y-55402546D01*
X139301650Y-55604576D02*
X139267978Y-55503561D01*
X139267978Y-55503561D02*
X139267978Y-55368874D01*
X139267978Y-55368874D02*
X139368993Y-55200515D01*
X139368993Y-55200515D02*
X139604696Y-54964813D01*
X139604696Y-54964813D02*
X139773054Y-54863798D01*
X139773054Y-54863798D02*
X139907741Y-54863798D01*
X139907741Y-54863798D02*
X140008757Y-54897469D01*
X140008757Y-54897469D02*
X140143444Y-55032156D01*
X140143444Y-55032156D02*
X140177115Y-55133172D01*
X140177115Y-55133172D02*
X140177115Y-55267859D01*
X140177115Y-55267859D02*
X140076100Y-55436217D01*
X140076100Y-55436217D02*
X139840398Y-55671920D01*
X139840398Y-55671920D02*
X139672039Y-55772935D01*
X139672039Y-55772935D02*
X139537352Y-55772935D01*
X139537352Y-55772935D02*
X139436337Y-55739263D01*
X139436337Y-55739263D02*
X139301650Y-55604576D01*
X140682192Y-56042309D02*
X140210787Y-56513713D01*
X140783207Y-55604576D02*
X140109772Y-55941294D01*
X140109772Y-55941294D02*
X140547505Y-56379026D01*
X82523105Y-35153619D02*
X82523105Y-34153619D01*
X82523105Y-34153619D02*
X82761200Y-34153619D01*
X82761200Y-34153619D02*
X82904057Y-34201238D01*
X82904057Y-34201238D02*
X82999295Y-34296476D01*
X82999295Y-34296476D02*
X83046914Y-34391714D01*
X83046914Y-34391714D02*
X83094533Y-34582190D01*
X83094533Y-34582190D02*
X83094533Y-34725047D01*
X83094533Y-34725047D02*
X83046914Y-34915523D01*
X83046914Y-34915523D02*
X82999295Y-35010761D01*
X82999295Y-35010761D02*
X82904057Y-35106000D01*
X82904057Y-35106000D02*
X82761200Y-35153619D01*
X82761200Y-35153619D02*
X82523105Y-35153619D01*
X83475486Y-34248857D02*
X83523105Y-34201238D01*
X83523105Y-34201238D02*
X83618343Y-34153619D01*
X83618343Y-34153619D02*
X83856438Y-34153619D01*
X83856438Y-34153619D02*
X83951676Y-34201238D01*
X83951676Y-34201238D02*
X83999295Y-34248857D01*
X83999295Y-34248857D02*
X84046914Y-34344095D01*
X84046914Y-34344095D02*
X84046914Y-34439333D01*
X84046914Y-34439333D02*
X83999295Y-34582190D01*
X83999295Y-34582190D02*
X83427867Y-35153619D01*
X83427867Y-35153619D02*
X84046914Y-35153619D01*
X93574961Y-35248857D02*
X93479723Y-35201238D01*
X93479723Y-35201238D02*
X93384485Y-35106000D01*
X93384485Y-35106000D02*
X93241628Y-34963142D01*
X93241628Y-34963142D02*
X93146390Y-34915523D01*
X93146390Y-34915523D02*
X93051152Y-34915523D01*
X93098771Y-35153619D02*
X93003533Y-35106000D01*
X93003533Y-35106000D02*
X92908295Y-35010761D01*
X92908295Y-35010761D02*
X92860676Y-34820285D01*
X92860676Y-34820285D02*
X92860676Y-34486952D01*
X92860676Y-34486952D02*
X92908295Y-34296476D01*
X92908295Y-34296476D02*
X93003533Y-34201238D01*
X93003533Y-34201238D02*
X93098771Y-34153619D01*
X93098771Y-34153619D02*
X93289247Y-34153619D01*
X93289247Y-34153619D02*
X93384485Y-34201238D01*
X93384485Y-34201238D02*
X93479723Y-34296476D01*
X93479723Y-34296476D02*
X93527342Y-34486952D01*
X93527342Y-34486952D02*
X93527342Y-34820285D01*
X93527342Y-34820285D02*
X93479723Y-35010761D01*
X93479723Y-35010761D02*
X93384485Y-35106000D01*
X93384485Y-35106000D02*
X93289247Y-35153619D01*
X93289247Y-35153619D02*
X93098771Y-35153619D01*
X93908295Y-34248857D02*
X93955914Y-34201238D01*
X93955914Y-34201238D02*
X94051152Y-34153619D01*
X94051152Y-34153619D02*
X94289247Y-34153619D01*
X94289247Y-34153619D02*
X94384485Y-34201238D01*
X94384485Y-34201238D02*
X94432104Y-34248857D01*
X94432104Y-34248857D02*
X94479723Y-34344095D01*
X94479723Y-34344095D02*
X94479723Y-34439333D01*
X94479723Y-34439333D02*
X94432104Y-34582190D01*
X94432104Y-34582190D02*
X93860676Y-35153619D01*
X93860676Y-35153619D02*
X94479723Y-35153619D01*
X110463105Y-35153619D02*
X110463105Y-34153619D01*
X110463105Y-34153619D02*
X110701200Y-34153619D01*
X110701200Y-34153619D02*
X110844057Y-34201238D01*
X110844057Y-34201238D02*
X110939295Y-34296476D01*
X110939295Y-34296476D02*
X110986914Y-34391714D01*
X110986914Y-34391714D02*
X111034533Y-34582190D01*
X111034533Y-34582190D02*
X111034533Y-34725047D01*
X111034533Y-34725047D02*
X110986914Y-34915523D01*
X110986914Y-34915523D02*
X110939295Y-35010761D01*
X110939295Y-35010761D02*
X110844057Y-35106000D01*
X110844057Y-35106000D02*
X110701200Y-35153619D01*
X110701200Y-35153619D02*
X110463105Y-35153619D01*
X111367867Y-34153619D02*
X111986914Y-34153619D01*
X111986914Y-34153619D02*
X111653581Y-34534571D01*
X111653581Y-34534571D02*
X111796438Y-34534571D01*
X111796438Y-34534571D02*
X111891676Y-34582190D01*
X111891676Y-34582190D02*
X111939295Y-34629809D01*
X111939295Y-34629809D02*
X111986914Y-34725047D01*
X111986914Y-34725047D02*
X111986914Y-34963142D01*
X111986914Y-34963142D02*
X111939295Y-35058380D01*
X111939295Y-35058380D02*
X111891676Y-35106000D01*
X111891676Y-35106000D02*
X111796438Y-35153619D01*
X111796438Y-35153619D02*
X111510724Y-35153619D01*
X111510724Y-35153619D02*
X111415486Y-35106000D01*
X111415486Y-35106000D02*
X111367867Y-35058380D01*
X121519961Y-35248857D02*
X121424723Y-35201238D01*
X121424723Y-35201238D02*
X121329485Y-35106000D01*
X121329485Y-35106000D02*
X121186628Y-34963142D01*
X121186628Y-34963142D02*
X121091390Y-34915523D01*
X121091390Y-34915523D02*
X120996152Y-34915523D01*
X121043771Y-35153619D02*
X120948533Y-35106000D01*
X120948533Y-35106000D02*
X120853295Y-35010761D01*
X120853295Y-35010761D02*
X120805676Y-34820285D01*
X120805676Y-34820285D02*
X120805676Y-34486952D01*
X120805676Y-34486952D02*
X120853295Y-34296476D01*
X120853295Y-34296476D02*
X120948533Y-34201238D01*
X120948533Y-34201238D02*
X121043771Y-34153619D01*
X121043771Y-34153619D02*
X121234247Y-34153619D01*
X121234247Y-34153619D02*
X121329485Y-34201238D01*
X121329485Y-34201238D02*
X121424723Y-34296476D01*
X121424723Y-34296476D02*
X121472342Y-34486952D01*
X121472342Y-34486952D02*
X121472342Y-34820285D01*
X121472342Y-34820285D02*
X121424723Y-35010761D01*
X121424723Y-35010761D02*
X121329485Y-35106000D01*
X121329485Y-35106000D02*
X121234247Y-35153619D01*
X121234247Y-35153619D02*
X121043771Y-35153619D01*
X121805676Y-34153619D02*
X122424723Y-34153619D01*
X122424723Y-34153619D02*
X122091390Y-34534571D01*
X122091390Y-34534571D02*
X122234247Y-34534571D01*
X122234247Y-34534571D02*
X122329485Y-34582190D01*
X122329485Y-34582190D02*
X122377104Y-34629809D01*
X122377104Y-34629809D02*
X122424723Y-34725047D01*
X122424723Y-34725047D02*
X122424723Y-34963142D01*
X122424723Y-34963142D02*
X122377104Y-35058380D01*
X122377104Y-35058380D02*
X122329485Y-35106000D01*
X122329485Y-35106000D02*
X122234247Y-35153619D01*
X122234247Y-35153619D02*
X121948533Y-35153619D01*
X121948533Y-35153619D02*
X121853295Y-35106000D01*
X121853295Y-35106000D02*
X121805676Y-35058380D01*
X86476819Y-54554190D02*
X86000628Y-54887523D01*
X86476819Y-55125618D02*
X85476819Y-55125618D01*
X85476819Y-55125618D02*
X85476819Y-54744666D01*
X85476819Y-54744666D02*
X85524438Y-54649428D01*
X85524438Y-54649428D02*
X85572057Y-54601809D01*
X85572057Y-54601809D02*
X85667295Y-54554190D01*
X85667295Y-54554190D02*
X85810152Y-54554190D01*
X85810152Y-54554190D02*
X85905390Y-54601809D01*
X85905390Y-54601809D02*
X85953009Y-54649428D01*
X85953009Y-54649428D02*
X86000628Y-54744666D01*
X86000628Y-54744666D02*
X86000628Y-55125618D01*
X85572057Y-54173237D02*
X85524438Y-54125618D01*
X85524438Y-54125618D02*
X85476819Y-54030380D01*
X85476819Y-54030380D02*
X85476819Y-53792285D01*
X85476819Y-53792285D02*
X85524438Y-53697047D01*
X85524438Y-53697047D02*
X85572057Y-53649428D01*
X85572057Y-53649428D02*
X85667295Y-53601809D01*
X85667295Y-53601809D02*
X85762533Y-53601809D01*
X85762533Y-53601809D02*
X85905390Y-53649428D01*
X85905390Y-53649428D02*
X86476819Y-54220856D01*
X86476819Y-54220856D02*
X86476819Y-53601809D01*
X86476819Y-51887523D02*
X86476819Y-52458951D01*
X86476819Y-52173237D02*
X85476819Y-52173237D01*
X85476819Y-52173237D02*
X85619676Y-52268475D01*
X85619676Y-52268475D02*
X85714914Y-52363713D01*
X85714914Y-52363713D02*
X85762533Y-52458951D01*
X85572057Y-51506570D02*
X85524438Y-51458951D01*
X85524438Y-51458951D02*
X85476819Y-51363713D01*
X85476819Y-51363713D02*
X85476819Y-51125618D01*
X85476819Y-51125618D02*
X85524438Y-51030380D01*
X85524438Y-51030380D02*
X85572057Y-50982761D01*
X85572057Y-50982761D02*
X85667295Y-50935142D01*
X85667295Y-50935142D02*
X85762533Y-50935142D01*
X85762533Y-50935142D02*
X85905390Y-50982761D01*
X85905390Y-50982761D02*
X86476819Y-51554189D01*
X86476819Y-51554189D02*
X86476819Y-50935142D01*
X85476819Y-50316094D02*
X85476819Y-50220856D01*
X85476819Y-50220856D02*
X85524438Y-50125618D01*
X85524438Y-50125618D02*
X85572057Y-50077999D01*
X85572057Y-50077999D02*
X85667295Y-50030380D01*
X85667295Y-50030380D02*
X85857771Y-49982761D01*
X85857771Y-49982761D02*
X86095866Y-49982761D01*
X86095866Y-49982761D02*
X86286342Y-50030380D01*
X86286342Y-50030380D02*
X86381580Y-50077999D01*
X86381580Y-50077999D02*
X86429200Y-50125618D01*
X86429200Y-50125618D02*
X86476819Y-50220856D01*
X86476819Y-50220856D02*
X86476819Y-50316094D01*
X86476819Y-50316094D02*
X86429200Y-50411332D01*
X86429200Y-50411332D02*
X86381580Y-50458951D01*
X86381580Y-50458951D02*
X86286342Y-50506570D01*
X86286342Y-50506570D02*
X86095866Y-50554189D01*
X86095866Y-50554189D02*
X85857771Y-50554189D01*
X85857771Y-50554189D02*
X85667295Y-50506570D01*
X85667295Y-50506570D02*
X85572057Y-50458951D01*
X85572057Y-50458951D02*
X85524438Y-50411332D01*
X85524438Y-50411332D02*
X85476819Y-50316094D01*
X80979180Y-116168133D02*
X81026800Y-116215752D01*
X81026800Y-116215752D02*
X81074419Y-116358609D01*
X81074419Y-116358609D02*
X81074419Y-116453847D01*
X81074419Y-116453847D02*
X81026800Y-116596704D01*
X81026800Y-116596704D02*
X80931561Y-116691942D01*
X80931561Y-116691942D02*
X80836323Y-116739561D01*
X80836323Y-116739561D02*
X80645847Y-116787180D01*
X80645847Y-116787180D02*
X80502990Y-116787180D01*
X80502990Y-116787180D02*
X80312514Y-116739561D01*
X80312514Y-116739561D02*
X80217276Y-116691942D01*
X80217276Y-116691942D02*
X80122038Y-116596704D01*
X80122038Y-116596704D02*
X80074419Y-116453847D01*
X80074419Y-116453847D02*
X80074419Y-116358609D01*
X80074419Y-116358609D02*
X80122038Y-116215752D01*
X80122038Y-116215752D02*
X80169657Y-116168133D01*
X80169657Y-115787180D02*
X80122038Y-115739561D01*
X80122038Y-115739561D02*
X80074419Y-115644323D01*
X80074419Y-115644323D02*
X80074419Y-115406228D01*
X80074419Y-115406228D02*
X80122038Y-115310990D01*
X80122038Y-115310990D02*
X80169657Y-115263371D01*
X80169657Y-115263371D02*
X80264895Y-115215752D01*
X80264895Y-115215752D02*
X80360133Y-115215752D01*
X80360133Y-115215752D02*
X80502990Y-115263371D01*
X80502990Y-115263371D02*
X81074419Y-115834799D01*
X81074419Y-115834799D02*
X81074419Y-115215752D01*
X80407752Y-113596704D02*
X81074419Y-113596704D01*
X80026800Y-113834799D02*
X80741085Y-114072894D01*
X80741085Y-114072894D02*
X80741085Y-113453847D01*
X80074419Y-113168132D02*
X80074419Y-112501466D01*
X80074419Y-112501466D02*
X81074419Y-112930037D01*
X80407752Y-111358608D02*
X81407752Y-111358608D01*
X80931561Y-110882418D02*
X81026800Y-110834799D01*
X81026800Y-110834799D02*
X81074419Y-110739561D01*
X80931561Y-111358608D02*
X81026800Y-111310989D01*
X81026800Y-111310989D02*
X81074419Y-111215751D01*
X81074419Y-111215751D02*
X81074419Y-111025275D01*
X81074419Y-111025275D02*
X81026800Y-110930037D01*
X81026800Y-110930037D02*
X80931561Y-110882418D01*
X80931561Y-110882418D02*
X80407752Y-110882418D01*
X80550609Y-109977656D02*
X80550609Y-110310989D01*
X81074419Y-110310989D02*
X80074419Y-110310989D01*
X80074419Y-110310989D02*
X80074419Y-109834799D01*
X110442476Y-106294819D02*
X110442476Y-107009104D01*
X110442476Y-107009104D02*
X110394857Y-107151961D01*
X110394857Y-107151961D02*
X110299619Y-107247200D01*
X110299619Y-107247200D02*
X110156762Y-107294819D01*
X110156762Y-107294819D02*
X110061524Y-107294819D01*
X111442476Y-107294819D02*
X110871048Y-107294819D01*
X111156762Y-107294819D02*
X111156762Y-106294819D01*
X111156762Y-106294819D02*
X111061524Y-106437676D01*
X111061524Y-106437676D02*
X110966286Y-106532914D01*
X110966286Y-106532914D02*
X110871048Y-106580533D01*
X112299619Y-106628152D02*
X112299619Y-107294819D01*
X112061524Y-106247200D02*
X111823429Y-106961485D01*
X111823429Y-106961485D02*
X112442476Y-106961485D01*
X74537219Y-91366933D02*
X75251504Y-91366933D01*
X75251504Y-91366933D02*
X75394361Y-91414552D01*
X75394361Y-91414552D02*
X75489600Y-91509790D01*
X75489600Y-91509790D02*
X75537219Y-91652647D01*
X75537219Y-91652647D02*
X75537219Y-91747885D01*
X74632457Y-90938361D02*
X74584838Y-90890742D01*
X74584838Y-90890742D02*
X74537219Y-90795504D01*
X74537219Y-90795504D02*
X74537219Y-90557409D01*
X74537219Y-90557409D02*
X74584838Y-90462171D01*
X74584838Y-90462171D02*
X74632457Y-90414552D01*
X74632457Y-90414552D02*
X74727695Y-90366933D01*
X74727695Y-90366933D02*
X74822933Y-90366933D01*
X74822933Y-90366933D02*
X74965790Y-90414552D01*
X74965790Y-90414552D02*
X75537219Y-90985980D01*
X75537219Y-90985980D02*
X75537219Y-90366933D01*
X101774666Y-126200819D02*
X101774666Y-126915104D01*
X101774666Y-126915104D02*
X101727047Y-127057961D01*
X101727047Y-127057961D02*
X101631809Y-127153200D01*
X101631809Y-127153200D02*
X101488952Y-127200819D01*
X101488952Y-127200819D02*
X101393714Y-127200819D01*
X102679428Y-126200819D02*
X102488952Y-126200819D01*
X102488952Y-126200819D02*
X102393714Y-126248438D01*
X102393714Y-126248438D02*
X102346095Y-126296057D01*
X102346095Y-126296057D02*
X102250857Y-126438914D01*
X102250857Y-126438914D02*
X102203238Y-126629390D01*
X102203238Y-126629390D02*
X102203238Y-127010342D01*
X102203238Y-127010342D02*
X102250857Y-127105580D01*
X102250857Y-127105580D02*
X102298476Y-127153200D01*
X102298476Y-127153200D02*
X102393714Y-127200819D01*
X102393714Y-127200819D02*
X102584190Y-127200819D01*
X102584190Y-127200819D02*
X102679428Y-127153200D01*
X102679428Y-127153200D02*
X102727047Y-127105580D01*
X102727047Y-127105580D02*
X102774666Y-127010342D01*
X102774666Y-127010342D02*
X102774666Y-126772247D01*
X102774666Y-126772247D02*
X102727047Y-126677009D01*
X102727047Y-126677009D02*
X102679428Y-126629390D01*
X102679428Y-126629390D02*
X102584190Y-126581771D01*
X102584190Y-126581771D02*
X102393714Y-126581771D01*
X102393714Y-126581771D02*
X102298476Y-126629390D01*
X102298476Y-126629390D02*
X102250857Y-126677009D01*
X102250857Y-126677009D02*
X102203238Y-126772247D01*
X76316819Y-71119714D02*
X75840628Y-71453047D01*
X76316819Y-71691142D02*
X75316819Y-71691142D01*
X75316819Y-71691142D02*
X75316819Y-71310190D01*
X75316819Y-71310190D02*
X75364438Y-71214952D01*
X75364438Y-71214952D02*
X75412057Y-71167333D01*
X75412057Y-71167333D02*
X75507295Y-71119714D01*
X75507295Y-71119714D02*
X75650152Y-71119714D01*
X75650152Y-71119714D02*
X75745390Y-71167333D01*
X75745390Y-71167333D02*
X75793009Y-71214952D01*
X75793009Y-71214952D02*
X75840628Y-71310190D01*
X75840628Y-71310190D02*
X75840628Y-71691142D01*
X75316819Y-70786380D02*
X75316819Y-70119714D01*
X75316819Y-70119714D02*
X76316819Y-70548285D01*
X76316819Y-68453047D02*
X76316819Y-69024475D01*
X76316819Y-68738761D02*
X75316819Y-68738761D01*
X75316819Y-68738761D02*
X75459676Y-68833999D01*
X75459676Y-68833999D02*
X75554914Y-68929237D01*
X75554914Y-68929237D02*
X75602533Y-69024475D01*
X75316819Y-67833999D02*
X75316819Y-67738761D01*
X75316819Y-67738761D02*
X75364438Y-67643523D01*
X75364438Y-67643523D02*
X75412057Y-67595904D01*
X75412057Y-67595904D02*
X75507295Y-67548285D01*
X75507295Y-67548285D02*
X75697771Y-67500666D01*
X75697771Y-67500666D02*
X75935866Y-67500666D01*
X75935866Y-67500666D02*
X76126342Y-67548285D01*
X76126342Y-67548285D02*
X76221580Y-67595904D01*
X76221580Y-67595904D02*
X76269200Y-67643523D01*
X76269200Y-67643523D02*
X76316819Y-67738761D01*
X76316819Y-67738761D02*
X76316819Y-67833999D01*
X76316819Y-67833999D02*
X76269200Y-67929237D01*
X76269200Y-67929237D02*
X76221580Y-67976856D01*
X76221580Y-67976856D02*
X76126342Y-68024475D01*
X76126342Y-68024475D02*
X75935866Y-68072094D01*
X75935866Y-68072094D02*
X75697771Y-68072094D01*
X75697771Y-68072094D02*
X75507295Y-68024475D01*
X75507295Y-68024475D02*
X75412057Y-67976856D01*
X75412057Y-67976856D02*
X75364438Y-67929237D01*
X75364438Y-67929237D02*
X75316819Y-67833999D01*
X76316819Y-67072094D02*
X75316819Y-67072094D01*
X75935866Y-66976856D02*
X76316819Y-66691142D01*
X75650152Y-66691142D02*
X76031104Y-67072094D01*
X91082019Y-53314362D02*
X90605828Y-53647695D01*
X91082019Y-53885790D02*
X90082019Y-53885790D01*
X90082019Y-53885790D02*
X90082019Y-53504838D01*
X90082019Y-53504838D02*
X90129638Y-53409600D01*
X90129638Y-53409600D02*
X90177257Y-53361981D01*
X90177257Y-53361981D02*
X90272495Y-53314362D01*
X90272495Y-53314362D02*
X90415352Y-53314362D01*
X90415352Y-53314362D02*
X90510590Y-53361981D01*
X90510590Y-53361981D02*
X90558209Y-53409600D01*
X90558209Y-53409600D02*
X90605828Y-53504838D01*
X90605828Y-53504838D02*
X90605828Y-53885790D01*
X90510590Y-52742933D02*
X90462971Y-52838171D01*
X90462971Y-52838171D02*
X90415352Y-52885790D01*
X90415352Y-52885790D02*
X90320114Y-52933409D01*
X90320114Y-52933409D02*
X90272495Y-52933409D01*
X90272495Y-52933409D02*
X90177257Y-52885790D01*
X90177257Y-52885790D02*
X90129638Y-52838171D01*
X90129638Y-52838171D02*
X90082019Y-52742933D01*
X90082019Y-52742933D02*
X90082019Y-52552457D01*
X90082019Y-52552457D02*
X90129638Y-52457219D01*
X90129638Y-52457219D02*
X90177257Y-52409600D01*
X90177257Y-52409600D02*
X90272495Y-52361981D01*
X90272495Y-52361981D02*
X90320114Y-52361981D01*
X90320114Y-52361981D02*
X90415352Y-52409600D01*
X90415352Y-52409600D02*
X90462971Y-52457219D01*
X90462971Y-52457219D02*
X90510590Y-52552457D01*
X90510590Y-52552457D02*
X90510590Y-52742933D01*
X90510590Y-52742933D02*
X90558209Y-52838171D01*
X90558209Y-52838171D02*
X90605828Y-52885790D01*
X90605828Y-52885790D02*
X90701066Y-52933409D01*
X90701066Y-52933409D02*
X90891542Y-52933409D01*
X90891542Y-52933409D02*
X90986780Y-52885790D01*
X90986780Y-52885790D02*
X91034400Y-52838171D01*
X91034400Y-52838171D02*
X91082019Y-52742933D01*
X91082019Y-52742933D02*
X91082019Y-52552457D01*
X91082019Y-52552457D02*
X91034400Y-52457219D01*
X91034400Y-52457219D02*
X90986780Y-52409600D01*
X90986780Y-52409600D02*
X90891542Y-52361981D01*
X90891542Y-52361981D02*
X90701066Y-52361981D01*
X90701066Y-52361981D02*
X90605828Y-52409600D01*
X90605828Y-52409600D02*
X90558209Y-52457219D01*
X90558209Y-52457219D02*
X90510590Y-52552457D01*
X91082019Y-50647695D02*
X91082019Y-51219123D01*
X91082019Y-50933409D02*
X90082019Y-50933409D01*
X90082019Y-50933409D02*
X90224876Y-51028647D01*
X90224876Y-51028647D02*
X90320114Y-51123885D01*
X90320114Y-51123885D02*
X90367733Y-51219123D01*
X90082019Y-50028647D02*
X90082019Y-49933409D01*
X90082019Y-49933409D02*
X90129638Y-49838171D01*
X90129638Y-49838171D02*
X90177257Y-49790552D01*
X90177257Y-49790552D02*
X90272495Y-49742933D01*
X90272495Y-49742933D02*
X90462971Y-49695314D01*
X90462971Y-49695314D02*
X90701066Y-49695314D01*
X90701066Y-49695314D02*
X90891542Y-49742933D01*
X90891542Y-49742933D02*
X90986780Y-49790552D01*
X90986780Y-49790552D02*
X91034400Y-49838171D01*
X91034400Y-49838171D02*
X91082019Y-49933409D01*
X91082019Y-49933409D02*
X91082019Y-50028647D01*
X91082019Y-50028647D02*
X91034400Y-50123885D01*
X91034400Y-50123885D02*
X90986780Y-50171504D01*
X90986780Y-50171504D02*
X90891542Y-50219123D01*
X90891542Y-50219123D02*
X90701066Y-50266742D01*
X90701066Y-50266742D02*
X90462971Y-50266742D01*
X90462971Y-50266742D02*
X90272495Y-50219123D01*
X90272495Y-50219123D02*
X90177257Y-50171504D01*
X90177257Y-50171504D02*
X90129638Y-50123885D01*
X90129638Y-50123885D02*
X90082019Y-50028647D01*
X91082019Y-49266742D02*
X90082019Y-49266742D01*
X90701066Y-49171504D02*
X91082019Y-48885790D01*
X90415352Y-48885790D02*
X90796304Y-49266742D01*
X77067580Y-116141143D02*
X77115200Y-116188762D01*
X77115200Y-116188762D02*
X77162819Y-116331619D01*
X77162819Y-116331619D02*
X77162819Y-116426857D01*
X77162819Y-116426857D02*
X77115200Y-116569714D01*
X77115200Y-116569714D02*
X77019961Y-116664952D01*
X77019961Y-116664952D02*
X76924723Y-116712571D01*
X76924723Y-116712571D02*
X76734247Y-116760190D01*
X76734247Y-116760190D02*
X76591390Y-116760190D01*
X76591390Y-116760190D02*
X76400914Y-116712571D01*
X76400914Y-116712571D02*
X76305676Y-116664952D01*
X76305676Y-116664952D02*
X76210438Y-116569714D01*
X76210438Y-116569714D02*
X76162819Y-116426857D01*
X76162819Y-116426857D02*
X76162819Y-116331619D01*
X76162819Y-116331619D02*
X76210438Y-116188762D01*
X76210438Y-116188762D02*
X76258057Y-116141143D01*
X77162819Y-115188762D02*
X77162819Y-115760190D01*
X77162819Y-115474476D02*
X76162819Y-115474476D01*
X76162819Y-115474476D02*
X76305676Y-115569714D01*
X76305676Y-115569714D02*
X76400914Y-115664952D01*
X76400914Y-115664952D02*
X76448533Y-115760190D01*
X77162819Y-113474476D02*
X77162819Y-114045904D01*
X77162819Y-113760190D02*
X76162819Y-113760190D01*
X76162819Y-113760190D02*
X76305676Y-113855428D01*
X76305676Y-113855428D02*
X76400914Y-113950666D01*
X76400914Y-113950666D02*
X76448533Y-114045904D01*
X76162819Y-112855428D02*
X76162819Y-112760190D01*
X76162819Y-112760190D02*
X76210438Y-112664952D01*
X76210438Y-112664952D02*
X76258057Y-112617333D01*
X76258057Y-112617333D02*
X76353295Y-112569714D01*
X76353295Y-112569714D02*
X76543771Y-112522095D01*
X76543771Y-112522095D02*
X76781866Y-112522095D01*
X76781866Y-112522095D02*
X76972342Y-112569714D01*
X76972342Y-112569714D02*
X77067580Y-112617333D01*
X77067580Y-112617333D02*
X77115200Y-112664952D01*
X77115200Y-112664952D02*
X77162819Y-112760190D01*
X77162819Y-112760190D02*
X77162819Y-112855428D01*
X77162819Y-112855428D02*
X77115200Y-112950666D01*
X77115200Y-112950666D02*
X77067580Y-112998285D01*
X77067580Y-112998285D02*
X76972342Y-113045904D01*
X76972342Y-113045904D02*
X76781866Y-113093523D01*
X76781866Y-113093523D02*
X76543771Y-113093523D01*
X76543771Y-113093523D02*
X76353295Y-113045904D01*
X76353295Y-113045904D02*
X76258057Y-112998285D01*
X76258057Y-112998285D02*
X76210438Y-112950666D01*
X76210438Y-112950666D02*
X76162819Y-112855428D01*
X76162819Y-111903047D02*
X76162819Y-111807809D01*
X76162819Y-111807809D02*
X76210438Y-111712571D01*
X76210438Y-111712571D02*
X76258057Y-111664952D01*
X76258057Y-111664952D02*
X76353295Y-111617333D01*
X76353295Y-111617333D02*
X76543771Y-111569714D01*
X76543771Y-111569714D02*
X76781866Y-111569714D01*
X76781866Y-111569714D02*
X76972342Y-111617333D01*
X76972342Y-111617333D02*
X77067580Y-111664952D01*
X77067580Y-111664952D02*
X77115200Y-111712571D01*
X77115200Y-111712571D02*
X77162819Y-111807809D01*
X77162819Y-111807809D02*
X77162819Y-111903047D01*
X77162819Y-111903047D02*
X77115200Y-111998285D01*
X77115200Y-111998285D02*
X77067580Y-112045904D01*
X77067580Y-112045904D02*
X76972342Y-112093523D01*
X76972342Y-112093523D02*
X76781866Y-112141142D01*
X76781866Y-112141142D02*
X76543771Y-112141142D01*
X76543771Y-112141142D02*
X76353295Y-112093523D01*
X76353295Y-112093523D02*
X76258057Y-112045904D01*
X76258057Y-112045904D02*
X76210438Y-111998285D01*
X76210438Y-111998285D02*
X76162819Y-111903047D01*
X76496152Y-111141142D02*
X77162819Y-111141142D01*
X76591390Y-111141142D02*
X76543771Y-111093523D01*
X76543771Y-111093523D02*
X76496152Y-110998285D01*
X76496152Y-110998285D02*
X76496152Y-110855428D01*
X76496152Y-110855428D02*
X76543771Y-110760190D01*
X76543771Y-110760190D02*
X76639009Y-110712571D01*
X76639009Y-110712571D02*
X77162819Y-110712571D01*
X76639009Y-109903047D02*
X76639009Y-110236380D01*
X77162819Y-110236380D02*
X76162819Y-110236380D01*
X76162819Y-110236380D02*
X76162819Y-109760190D01*
X102466876Y-49899219D02*
X102466876Y-50613504D01*
X102466876Y-50613504D02*
X102419257Y-50756361D01*
X102419257Y-50756361D02*
X102324019Y-50851600D01*
X102324019Y-50851600D02*
X102181162Y-50899219D01*
X102181162Y-50899219D02*
X102085924Y-50899219D01*
X103466876Y-50899219D02*
X102895448Y-50899219D01*
X103181162Y-50899219D02*
X103181162Y-49899219D01*
X103181162Y-49899219D02*
X103085924Y-50042076D01*
X103085924Y-50042076D02*
X102990686Y-50137314D01*
X102990686Y-50137314D02*
X102895448Y-50184933D01*
X104371638Y-49899219D02*
X103895448Y-49899219D01*
X103895448Y-49899219D02*
X103847829Y-50375409D01*
X103847829Y-50375409D02*
X103895448Y-50327790D01*
X103895448Y-50327790D02*
X103990686Y-50280171D01*
X103990686Y-50280171D02*
X104228781Y-50280171D01*
X104228781Y-50280171D02*
X104324019Y-50327790D01*
X104324019Y-50327790D02*
X104371638Y-50375409D01*
X104371638Y-50375409D02*
X104419257Y-50470647D01*
X104419257Y-50470647D02*
X104419257Y-50708742D01*
X104419257Y-50708742D02*
X104371638Y-50803980D01*
X104371638Y-50803980D02*
X104324019Y-50851600D01*
X104324019Y-50851600D02*
X104228781Y-50899219D01*
X104228781Y-50899219D02*
X103990686Y-50899219D01*
X103990686Y-50899219D02*
X103895448Y-50851600D01*
X103895448Y-50851600D02*
X103847829Y-50803980D01*
X69052666Y-139114819D02*
X69052666Y-139829104D01*
X69052666Y-139829104D02*
X69005047Y-139971961D01*
X69005047Y-139971961D02*
X68909809Y-140067200D01*
X68909809Y-140067200D02*
X68766952Y-140114819D01*
X68766952Y-140114819D02*
X68671714Y-140114819D01*
X70005047Y-139114819D02*
X69528857Y-139114819D01*
X69528857Y-139114819D02*
X69481238Y-139591009D01*
X69481238Y-139591009D02*
X69528857Y-139543390D01*
X69528857Y-139543390D02*
X69624095Y-139495771D01*
X69624095Y-139495771D02*
X69862190Y-139495771D01*
X69862190Y-139495771D02*
X69957428Y-139543390D01*
X69957428Y-139543390D02*
X70005047Y-139591009D01*
X70005047Y-139591009D02*
X70052666Y-139686247D01*
X70052666Y-139686247D02*
X70052666Y-139924342D01*
X70052666Y-139924342D02*
X70005047Y-140019580D01*
X70005047Y-140019580D02*
X69957428Y-140067200D01*
X69957428Y-140067200D02*
X69862190Y-140114819D01*
X69862190Y-140114819D02*
X69624095Y-140114819D01*
X69624095Y-140114819D02*
X69528857Y-140067200D01*
X69528857Y-140067200D02*
X69481238Y-140019580D01*
X117097980Y-118427143D02*
X117145600Y-118474762D01*
X117145600Y-118474762D02*
X117193219Y-118617619D01*
X117193219Y-118617619D02*
X117193219Y-118712857D01*
X117193219Y-118712857D02*
X117145600Y-118855714D01*
X117145600Y-118855714D02*
X117050361Y-118950952D01*
X117050361Y-118950952D02*
X116955123Y-118998571D01*
X116955123Y-118998571D02*
X116764647Y-119046190D01*
X116764647Y-119046190D02*
X116621790Y-119046190D01*
X116621790Y-119046190D02*
X116431314Y-118998571D01*
X116431314Y-118998571D02*
X116336076Y-118950952D01*
X116336076Y-118950952D02*
X116240838Y-118855714D01*
X116240838Y-118855714D02*
X116193219Y-118712857D01*
X116193219Y-118712857D02*
X116193219Y-118617619D01*
X116193219Y-118617619D02*
X116240838Y-118474762D01*
X116240838Y-118474762D02*
X116288457Y-118427143D01*
X116193219Y-118093809D02*
X116193219Y-117474762D01*
X116193219Y-117474762D02*
X116574171Y-117808095D01*
X116574171Y-117808095D02*
X116574171Y-117665238D01*
X116574171Y-117665238D02*
X116621790Y-117570000D01*
X116621790Y-117570000D02*
X116669409Y-117522381D01*
X116669409Y-117522381D02*
X116764647Y-117474762D01*
X116764647Y-117474762D02*
X117002742Y-117474762D01*
X117002742Y-117474762D02*
X117097980Y-117522381D01*
X117097980Y-117522381D02*
X117145600Y-117570000D01*
X117145600Y-117570000D02*
X117193219Y-117665238D01*
X117193219Y-117665238D02*
X117193219Y-117950952D01*
X117193219Y-117950952D02*
X117145600Y-118046190D01*
X117145600Y-118046190D02*
X117097980Y-118093809D01*
X117193219Y-115760476D02*
X117193219Y-116331904D01*
X117193219Y-116046190D02*
X116193219Y-116046190D01*
X116193219Y-116046190D02*
X116336076Y-116141428D01*
X116336076Y-116141428D02*
X116431314Y-116236666D01*
X116431314Y-116236666D02*
X116478933Y-116331904D01*
X116193219Y-115141428D02*
X116193219Y-115046190D01*
X116193219Y-115046190D02*
X116240838Y-114950952D01*
X116240838Y-114950952D02*
X116288457Y-114903333D01*
X116288457Y-114903333D02*
X116383695Y-114855714D01*
X116383695Y-114855714D02*
X116574171Y-114808095D01*
X116574171Y-114808095D02*
X116812266Y-114808095D01*
X116812266Y-114808095D02*
X117002742Y-114855714D01*
X117002742Y-114855714D02*
X117097980Y-114903333D01*
X117097980Y-114903333D02*
X117145600Y-114950952D01*
X117145600Y-114950952D02*
X117193219Y-115046190D01*
X117193219Y-115046190D02*
X117193219Y-115141428D01*
X117193219Y-115141428D02*
X117145600Y-115236666D01*
X117145600Y-115236666D02*
X117097980Y-115284285D01*
X117097980Y-115284285D02*
X117002742Y-115331904D01*
X117002742Y-115331904D02*
X116812266Y-115379523D01*
X116812266Y-115379523D02*
X116574171Y-115379523D01*
X116574171Y-115379523D02*
X116383695Y-115331904D01*
X116383695Y-115331904D02*
X116288457Y-115284285D01*
X116288457Y-115284285D02*
X116240838Y-115236666D01*
X116240838Y-115236666D02*
X116193219Y-115141428D01*
X116193219Y-114189047D02*
X116193219Y-114093809D01*
X116193219Y-114093809D02*
X116240838Y-113998571D01*
X116240838Y-113998571D02*
X116288457Y-113950952D01*
X116288457Y-113950952D02*
X116383695Y-113903333D01*
X116383695Y-113903333D02*
X116574171Y-113855714D01*
X116574171Y-113855714D02*
X116812266Y-113855714D01*
X116812266Y-113855714D02*
X117002742Y-113903333D01*
X117002742Y-113903333D02*
X117097980Y-113950952D01*
X117097980Y-113950952D02*
X117145600Y-113998571D01*
X117145600Y-113998571D02*
X117193219Y-114093809D01*
X117193219Y-114093809D02*
X117193219Y-114189047D01*
X117193219Y-114189047D02*
X117145600Y-114284285D01*
X117145600Y-114284285D02*
X117097980Y-114331904D01*
X117097980Y-114331904D02*
X117002742Y-114379523D01*
X117002742Y-114379523D02*
X116812266Y-114427142D01*
X116812266Y-114427142D02*
X116574171Y-114427142D01*
X116574171Y-114427142D02*
X116383695Y-114379523D01*
X116383695Y-114379523D02*
X116288457Y-114331904D01*
X116288457Y-114331904D02*
X116240838Y-114284285D01*
X116240838Y-114284285D02*
X116193219Y-114189047D01*
X116526552Y-113427142D02*
X117193219Y-113427142D01*
X116621790Y-113427142D02*
X116574171Y-113379523D01*
X116574171Y-113379523D02*
X116526552Y-113284285D01*
X116526552Y-113284285D02*
X116526552Y-113141428D01*
X116526552Y-113141428D02*
X116574171Y-113046190D01*
X116574171Y-113046190D02*
X116669409Y-112998571D01*
X116669409Y-112998571D02*
X117193219Y-112998571D01*
X116669409Y-112189047D02*
X116669409Y-112522380D01*
X117193219Y-112522380D02*
X116193219Y-112522380D01*
X116193219Y-112522380D02*
X116193219Y-112046190D01*
X128132819Y-72588190D02*
X127656628Y-72921523D01*
X128132819Y-73159618D02*
X127132819Y-73159618D01*
X127132819Y-73159618D02*
X127132819Y-72778666D01*
X127132819Y-72778666D02*
X127180438Y-72683428D01*
X127180438Y-72683428D02*
X127228057Y-72635809D01*
X127228057Y-72635809D02*
X127323295Y-72588190D01*
X127323295Y-72588190D02*
X127466152Y-72588190D01*
X127466152Y-72588190D02*
X127561390Y-72635809D01*
X127561390Y-72635809D02*
X127609009Y-72683428D01*
X127609009Y-72683428D02*
X127656628Y-72778666D01*
X127656628Y-72778666D02*
X127656628Y-73159618D01*
X127466152Y-71731047D02*
X128132819Y-71731047D01*
X127085200Y-71969142D02*
X127799485Y-72207237D01*
X127799485Y-72207237D02*
X127799485Y-71588190D01*
X128132819Y-69921523D02*
X128132819Y-70492951D01*
X128132819Y-70207237D02*
X127132819Y-70207237D01*
X127132819Y-70207237D02*
X127275676Y-70302475D01*
X127275676Y-70302475D02*
X127370914Y-70397713D01*
X127370914Y-70397713D02*
X127418533Y-70492951D01*
X127228057Y-69540570D02*
X127180438Y-69492951D01*
X127180438Y-69492951D02*
X127132819Y-69397713D01*
X127132819Y-69397713D02*
X127132819Y-69159618D01*
X127132819Y-69159618D02*
X127180438Y-69064380D01*
X127180438Y-69064380D02*
X127228057Y-69016761D01*
X127228057Y-69016761D02*
X127323295Y-68969142D01*
X127323295Y-68969142D02*
X127418533Y-68969142D01*
X127418533Y-68969142D02*
X127561390Y-69016761D01*
X127561390Y-69016761D02*
X128132819Y-69588189D01*
X128132819Y-69588189D02*
X128132819Y-68969142D01*
X127132819Y-68350094D02*
X127132819Y-68254856D01*
X127132819Y-68254856D02*
X127180438Y-68159618D01*
X127180438Y-68159618D02*
X127228057Y-68111999D01*
X127228057Y-68111999D02*
X127323295Y-68064380D01*
X127323295Y-68064380D02*
X127513771Y-68016761D01*
X127513771Y-68016761D02*
X127751866Y-68016761D01*
X127751866Y-68016761D02*
X127942342Y-68064380D01*
X127942342Y-68064380D02*
X128037580Y-68111999D01*
X128037580Y-68111999D02*
X128085200Y-68159618D01*
X128085200Y-68159618D02*
X128132819Y-68254856D01*
X128132819Y-68254856D02*
X128132819Y-68350094D01*
X128132819Y-68350094D02*
X128085200Y-68445332D01*
X128085200Y-68445332D02*
X128037580Y-68492951D01*
X128037580Y-68492951D02*
X127942342Y-68540570D01*
X127942342Y-68540570D02*
X127751866Y-68588189D01*
X127751866Y-68588189D02*
X127513771Y-68588189D01*
X127513771Y-68588189D02*
X127323295Y-68540570D01*
X127323295Y-68540570D02*
X127228057Y-68492951D01*
X127228057Y-68492951D02*
X127180438Y-68445332D01*
X127180438Y-68445332D02*
X127132819Y-68350094D01*
X84502666Y-108190819D02*
X84502666Y-108905104D01*
X84502666Y-108905104D02*
X84455047Y-109047961D01*
X84455047Y-109047961D02*
X84359809Y-109143200D01*
X84359809Y-109143200D02*
X84216952Y-109190819D01*
X84216952Y-109190819D02*
X84121714Y-109190819D01*
X84883619Y-108190819D02*
X85502666Y-108190819D01*
X85502666Y-108190819D02*
X85169333Y-108571771D01*
X85169333Y-108571771D02*
X85312190Y-108571771D01*
X85312190Y-108571771D02*
X85407428Y-108619390D01*
X85407428Y-108619390D02*
X85455047Y-108667009D01*
X85455047Y-108667009D02*
X85502666Y-108762247D01*
X85502666Y-108762247D02*
X85502666Y-109000342D01*
X85502666Y-109000342D02*
X85455047Y-109095580D01*
X85455047Y-109095580D02*
X85407428Y-109143200D01*
X85407428Y-109143200D02*
X85312190Y-109190819D01*
X85312190Y-109190819D02*
X85026476Y-109190819D01*
X85026476Y-109190819D02*
X84931238Y-109143200D01*
X84931238Y-109143200D02*
X84883619Y-109095580D01*
X71299437Y-49354175D02*
X71198422Y-49387847D01*
X71198422Y-49387847D02*
X71063735Y-49387847D01*
X71063735Y-49387847D02*
X70861704Y-49387847D01*
X70861704Y-49387847D02*
X70760689Y-49421519D01*
X70760689Y-49421519D02*
X70693346Y-49488862D01*
X70895376Y-49623549D02*
X70794361Y-49657221D01*
X70794361Y-49657221D02*
X70659674Y-49657221D01*
X70659674Y-49657221D02*
X70491315Y-49556206D01*
X70491315Y-49556206D02*
X70255613Y-49320503D01*
X70255613Y-49320503D02*
X70154598Y-49152145D01*
X70154598Y-49152145D02*
X70154598Y-49017458D01*
X70154598Y-49017458D02*
X70188269Y-48916442D01*
X70188269Y-48916442D02*
X70322956Y-48781755D01*
X70322956Y-48781755D02*
X70423972Y-48748084D01*
X70423972Y-48748084D02*
X70558659Y-48748084D01*
X70558659Y-48748084D02*
X70727017Y-48849099D01*
X70727017Y-48849099D02*
X70962720Y-49084801D01*
X70962720Y-49084801D02*
X71063735Y-49253160D01*
X71063735Y-49253160D02*
X71063735Y-49387847D01*
X71063735Y-49387847D02*
X71030063Y-49488862D01*
X71030063Y-49488862D02*
X70895376Y-49623549D01*
X71871857Y-48647068D02*
X71467796Y-49051129D01*
X71669826Y-48849099D02*
X70962720Y-48141992D01*
X70962720Y-48141992D02*
X70996391Y-48310351D01*
X70996391Y-48310351D02*
X70996391Y-48445038D01*
X70996391Y-48445038D02*
X70962720Y-48546053D01*
X64427525Y-56345400D02*
X63720419Y-55638293D01*
X63720419Y-55638293D02*
X63888777Y-55469934D01*
X63888777Y-55469934D02*
X64023464Y-55402591D01*
X64023464Y-55402591D02*
X64158151Y-55402591D01*
X64158151Y-55402591D02*
X64259167Y-55436263D01*
X64259167Y-55436263D02*
X64427525Y-55537278D01*
X64427525Y-55537278D02*
X64528541Y-55638293D01*
X64528541Y-55638293D02*
X64629556Y-55806652D01*
X64629556Y-55806652D02*
X64663228Y-55907667D01*
X64663228Y-55907667D02*
X64663228Y-56042354D01*
X64663228Y-56042354D02*
X64595884Y-56177041D01*
X64595884Y-56177041D02*
X64427525Y-56345400D01*
X65505021Y-55267904D02*
X65100960Y-55671965D01*
X65302991Y-55469934D02*
X64595884Y-54762828D01*
X64595884Y-54762828D02*
X64629556Y-54931186D01*
X64629556Y-54931186D02*
X64629556Y-55065873D01*
X64629556Y-55065873D02*
X64595884Y-55166889D01*
X70304476Y-131042819D02*
X70304476Y-131757104D01*
X70304476Y-131757104D02*
X70256857Y-131899961D01*
X70256857Y-131899961D02*
X70161619Y-131995200D01*
X70161619Y-131995200D02*
X70018762Y-132042819D01*
X70018762Y-132042819D02*
X69923524Y-132042819D01*
X71304476Y-132042819D02*
X70733048Y-132042819D01*
X71018762Y-132042819D02*
X71018762Y-131042819D01*
X71018762Y-131042819D02*
X70923524Y-131185676D01*
X70923524Y-131185676D02*
X70828286Y-131280914D01*
X70828286Y-131280914D02*
X70733048Y-131328533D01*
X72256857Y-132042819D02*
X71685429Y-132042819D01*
X71971143Y-132042819D02*
X71971143Y-131042819D01*
X71971143Y-131042819D02*
X71875905Y-131185676D01*
X71875905Y-131185676D02*
X71780667Y-131280914D01*
X71780667Y-131280914D02*
X71685429Y-131328533D01*
X103719333Y-65902819D02*
X103386000Y-65426628D01*
X103147905Y-65902819D02*
X103147905Y-64902819D01*
X103147905Y-64902819D02*
X103528857Y-64902819D01*
X103528857Y-64902819D02*
X103624095Y-64950438D01*
X103624095Y-64950438D02*
X103671714Y-64998057D01*
X103671714Y-64998057D02*
X103719333Y-65093295D01*
X103719333Y-65093295D02*
X103719333Y-65236152D01*
X103719333Y-65236152D02*
X103671714Y-65331390D01*
X103671714Y-65331390D02*
X103624095Y-65379009D01*
X103624095Y-65379009D02*
X103528857Y-65426628D01*
X103528857Y-65426628D02*
X103147905Y-65426628D01*
X104624095Y-64902819D02*
X104147905Y-64902819D01*
X104147905Y-64902819D02*
X104100286Y-65379009D01*
X104100286Y-65379009D02*
X104147905Y-65331390D01*
X104147905Y-65331390D02*
X104243143Y-65283771D01*
X104243143Y-65283771D02*
X104481238Y-65283771D01*
X104481238Y-65283771D02*
X104576476Y-65331390D01*
X104576476Y-65331390D02*
X104624095Y-65379009D01*
X104624095Y-65379009D02*
X104671714Y-65474247D01*
X104671714Y-65474247D02*
X104671714Y-65712342D01*
X104671714Y-65712342D02*
X104624095Y-65807580D01*
X104624095Y-65807580D02*
X104576476Y-65855200D01*
X104576476Y-65855200D02*
X104481238Y-65902819D01*
X104481238Y-65902819D02*
X104243143Y-65902819D01*
X104243143Y-65902819D02*
X104147905Y-65855200D01*
X104147905Y-65855200D02*
X104100286Y-65807580D01*
X119496819Y-54482762D02*
X119020628Y-54816095D01*
X119496819Y-55054190D02*
X118496819Y-55054190D01*
X118496819Y-55054190D02*
X118496819Y-54673238D01*
X118496819Y-54673238D02*
X118544438Y-54578000D01*
X118544438Y-54578000D02*
X118592057Y-54530381D01*
X118592057Y-54530381D02*
X118687295Y-54482762D01*
X118687295Y-54482762D02*
X118830152Y-54482762D01*
X118830152Y-54482762D02*
X118925390Y-54530381D01*
X118925390Y-54530381D02*
X118973009Y-54578000D01*
X118973009Y-54578000D02*
X119020628Y-54673238D01*
X119020628Y-54673238D02*
X119020628Y-55054190D01*
X119496819Y-54006571D02*
X119496819Y-53816095D01*
X119496819Y-53816095D02*
X119449200Y-53720857D01*
X119449200Y-53720857D02*
X119401580Y-53673238D01*
X119401580Y-53673238D02*
X119258723Y-53578000D01*
X119258723Y-53578000D02*
X119068247Y-53530381D01*
X119068247Y-53530381D02*
X118687295Y-53530381D01*
X118687295Y-53530381D02*
X118592057Y-53578000D01*
X118592057Y-53578000D02*
X118544438Y-53625619D01*
X118544438Y-53625619D02*
X118496819Y-53720857D01*
X118496819Y-53720857D02*
X118496819Y-53911333D01*
X118496819Y-53911333D02*
X118544438Y-54006571D01*
X118544438Y-54006571D02*
X118592057Y-54054190D01*
X118592057Y-54054190D02*
X118687295Y-54101809D01*
X118687295Y-54101809D02*
X118925390Y-54101809D01*
X118925390Y-54101809D02*
X119020628Y-54054190D01*
X119020628Y-54054190D02*
X119068247Y-54006571D01*
X119068247Y-54006571D02*
X119115866Y-53911333D01*
X119115866Y-53911333D02*
X119115866Y-53720857D01*
X119115866Y-53720857D02*
X119068247Y-53625619D01*
X119068247Y-53625619D02*
X119020628Y-53578000D01*
X119020628Y-53578000D02*
X118925390Y-53530381D01*
X119496819Y-51816095D02*
X119496819Y-52387523D01*
X119496819Y-52101809D02*
X118496819Y-52101809D01*
X118496819Y-52101809D02*
X118639676Y-52197047D01*
X118639676Y-52197047D02*
X118734914Y-52292285D01*
X118734914Y-52292285D02*
X118782533Y-52387523D01*
X118496819Y-51197047D02*
X118496819Y-51101809D01*
X118496819Y-51101809D02*
X118544438Y-51006571D01*
X118544438Y-51006571D02*
X118592057Y-50958952D01*
X118592057Y-50958952D02*
X118687295Y-50911333D01*
X118687295Y-50911333D02*
X118877771Y-50863714D01*
X118877771Y-50863714D02*
X119115866Y-50863714D01*
X119115866Y-50863714D02*
X119306342Y-50911333D01*
X119306342Y-50911333D02*
X119401580Y-50958952D01*
X119401580Y-50958952D02*
X119449200Y-51006571D01*
X119449200Y-51006571D02*
X119496819Y-51101809D01*
X119496819Y-51101809D02*
X119496819Y-51197047D01*
X119496819Y-51197047D02*
X119449200Y-51292285D01*
X119449200Y-51292285D02*
X119401580Y-51339904D01*
X119401580Y-51339904D02*
X119306342Y-51387523D01*
X119306342Y-51387523D02*
X119115866Y-51435142D01*
X119115866Y-51435142D02*
X118877771Y-51435142D01*
X118877771Y-51435142D02*
X118687295Y-51387523D01*
X118687295Y-51387523D02*
X118592057Y-51339904D01*
X118592057Y-51339904D02*
X118544438Y-51292285D01*
X118544438Y-51292285D02*
X118496819Y-51197047D01*
X119496819Y-50435142D02*
X118496819Y-50435142D01*
X119115866Y-50339904D02*
X119496819Y-50054190D01*
X118830152Y-50054190D02*
X119211104Y-50435142D01*
X119554666Y-108190819D02*
X119554666Y-108905104D01*
X119554666Y-108905104D02*
X119507047Y-109047961D01*
X119507047Y-109047961D02*
X119411809Y-109143200D01*
X119411809Y-109143200D02*
X119268952Y-109190819D01*
X119268952Y-109190819D02*
X119173714Y-109190819D01*
X120459428Y-108524152D02*
X120459428Y-109190819D01*
X120221333Y-108143200D02*
X119983238Y-108857485D01*
X119983238Y-108857485D02*
X120602285Y-108857485D01*
X109815333Y-61414819D02*
X109482000Y-60938628D01*
X109243905Y-61414819D02*
X109243905Y-60414819D01*
X109243905Y-60414819D02*
X109624857Y-60414819D01*
X109624857Y-60414819D02*
X109720095Y-60462438D01*
X109720095Y-60462438D02*
X109767714Y-60510057D01*
X109767714Y-60510057D02*
X109815333Y-60605295D01*
X109815333Y-60605295D02*
X109815333Y-60748152D01*
X109815333Y-60748152D02*
X109767714Y-60843390D01*
X109767714Y-60843390D02*
X109720095Y-60891009D01*
X109720095Y-60891009D02*
X109624857Y-60938628D01*
X109624857Y-60938628D02*
X109243905Y-60938628D01*
X110672476Y-60414819D02*
X110482000Y-60414819D01*
X110482000Y-60414819D02*
X110386762Y-60462438D01*
X110386762Y-60462438D02*
X110339143Y-60510057D01*
X110339143Y-60510057D02*
X110243905Y-60652914D01*
X110243905Y-60652914D02*
X110196286Y-60843390D01*
X110196286Y-60843390D02*
X110196286Y-61224342D01*
X110196286Y-61224342D02*
X110243905Y-61319580D01*
X110243905Y-61319580D02*
X110291524Y-61367200D01*
X110291524Y-61367200D02*
X110386762Y-61414819D01*
X110386762Y-61414819D02*
X110577238Y-61414819D01*
X110577238Y-61414819D02*
X110672476Y-61367200D01*
X110672476Y-61367200D02*
X110720095Y-61319580D01*
X110720095Y-61319580D02*
X110767714Y-61224342D01*
X110767714Y-61224342D02*
X110767714Y-60986247D01*
X110767714Y-60986247D02*
X110720095Y-60891009D01*
X110720095Y-60891009D02*
X110672476Y-60843390D01*
X110672476Y-60843390D02*
X110577238Y-60795771D01*
X110577238Y-60795771D02*
X110386762Y-60795771D01*
X110386762Y-60795771D02*
X110291524Y-60843390D01*
X110291524Y-60843390D02*
X110243905Y-60891009D01*
X110243905Y-60891009D02*
X110196286Y-60986247D01*
X133720819Y-72738952D02*
X133244628Y-73072285D01*
X133720819Y-73310380D02*
X132720819Y-73310380D01*
X132720819Y-73310380D02*
X132720819Y-72929428D01*
X132720819Y-72929428D02*
X132768438Y-72834190D01*
X132768438Y-72834190D02*
X132816057Y-72786571D01*
X132816057Y-72786571D02*
X132911295Y-72738952D01*
X132911295Y-72738952D02*
X133054152Y-72738952D01*
X133054152Y-72738952D02*
X133149390Y-72786571D01*
X133149390Y-72786571D02*
X133197009Y-72834190D01*
X133197009Y-72834190D02*
X133244628Y-72929428D01*
X133244628Y-72929428D02*
X133244628Y-73310380D01*
X133720819Y-71786571D02*
X133720819Y-72357999D01*
X133720819Y-72072285D02*
X132720819Y-72072285D01*
X132720819Y-72072285D02*
X132863676Y-72167523D01*
X132863676Y-72167523D02*
X132958914Y-72262761D01*
X132958914Y-72262761D02*
X133006533Y-72357999D01*
X132720819Y-71167523D02*
X132720819Y-71072285D01*
X132720819Y-71072285D02*
X132768438Y-70977047D01*
X132768438Y-70977047D02*
X132816057Y-70929428D01*
X132816057Y-70929428D02*
X132911295Y-70881809D01*
X132911295Y-70881809D02*
X133101771Y-70834190D01*
X133101771Y-70834190D02*
X133339866Y-70834190D01*
X133339866Y-70834190D02*
X133530342Y-70881809D01*
X133530342Y-70881809D02*
X133625580Y-70929428D01*
X133625580Y-70929428D02*
X133673200Y-70977047D01*
X133673200Y-70977047D02*
X133720819Y-71072285D01*
X133720819Y-71072285D02*
X133720819Y-71167523D01*
X133720819Y-71167523D02*
X133673200Y-71262761D01*
X133673200Y-71262761D02*
X133625580Y-71310380D01*
X133625580Y-71310380D02*
X133530342Y-71357999D01*
X133530342Y-71357999D02*
X133339866Y-71405618D01*
X133339866Y-71405618D02*
X133101771Y-71405618D01*
X133101771Y-71405618D02*
X132911295Y-71357999D01*
X132911295Y-71357999D02*
X132816057Y-71310380D01*
X132816057Y-71310380D02*
X132768438Y-71262761D01*
X132768438Y-71262761D02*
X132720819Y-71167523D01*
X133720819Y-69119904D02*
X133720819Y-69691332D01*
X133720819Y-69405618D02*
X132720819Y-69405618D01*
X132720819Y-69405618D02*
X132863676Y-69500856D01*
X132863676Y-69500856D02*
X132958914Y-69596094D01*
X132958914Y-69596094D02*
X133006533Y-69691332D01*
X132720819Y-68500856D02*
X132720819Y-68405618D01*
X132720819Y-68405618D02*
X132768438Y-68310380D01*
X132768438Y-68310380D02*
X132816057Y-68262761D01*
X132816057Y-68262761D02*
X132911295Y-68215142D01*
X132911295Y-68215142D02*
X133101771Y-68167523D01*
X133101771Y-68167523D02*
X133339866Y-68167523D01*
X133339866Y-68167523D02*
X133530342Y-68215142D01*
X133530342Y-68215142D02*
X133625580Y-68262761D01*
X133625580Y-68262761D02*
X133673200Y-68310380D01*
X133673200Y-68310380D02*
X133720819Y-68405618D01*
X133720819Y-68405618D02*
X133720819Y-68500856D01*
X133720819Y-68500856D02*
X133673200Y-68596094D01*
X133673200Y-68596094D02*
X133625580Y-68643713D01*
X133625580Y-68643713D02*
X133530342Y-68691332D01*
X133530342Y-68691332D02*
X133339866Y-68738951D01*
X133339866Y-68738951D02*
X133101771Y-68738951D01*
X133101771Y-68738951D02*
X132911295Y-68691332D01*
X132911295Y-68691332D02*
X132816057Y-68643713D01*
X132816057Y-68643713D02*
X132768438Y-68596094D01*
X132768438Y-68596094D02*
X132720819Y-68500856D01*
X133720819Y-67738951D02*
X132720819Y-67738951D01*
X133339866Y-67643713D02*
X133720819Y-67357999D01*
X133054152Y-67357999D02*
X133435104Y-67738951D01*
X92884666Y-106294819D02*
X92884666Y-107009104D01*
X92884666Y-107009104D02*
X92837047Y-107151961D01*
X92837047Y-107151961D02*
X92741809Y-107247200D01*
X92741809Y-107247200D02*
X92598952Y-107294819D01*
X92598952Y-107294819D02*
X92503714Y-107294819D01*
X93884666Y-107294819D02*
X93313238Y-107294819D01*
X93598952Y-107294819D02*
X93598952Y-106294819D01*
X93598952Y-106294819D02*
X93503714Y-106437676D01*
X93503714Y-106437676D02*
X93408476Y-106532914D01*
X93408476Y-106532914D02*
X93313238Y-106580533D01*
X114416819Y-54808190D02*
X113940628Y-55141523D01*
X114416819Y-55379618D02*
X113416819Y-55379618D01*
X113416819Y-55379618D02*
X113416819Y-54998666D01*
X113416819Y-54998666D02*
X113464438Y-54903428D01*
X113464438Y-54903428D02*
X113512057Y-54855809D01*
X113512057Y-54855809D02*
X113607295Y-54808190D01*
X113607295Y-54808190D02*
X113750152Y-54808190D01*
X113750152Y-54808190D02*
X113845390Y-54855809D01*
X113845390Y-54855809D02*
X113893009Y-54903428D01*
X113893009Y-54903428D02*
X113940628Y-54998666D01*
X113940628Y-54998666D02*
X113940628Y-55379618D01*
X113416819Y-54474856D02*
X113416819Y-53855809D01*
X113416819Y-53855809D02*
X113797771Y-54189142D01*
X113797771Y-54189142D02*
X113797771Y-54046285D01*
X113797771Y-54046285D02*
X113845390Y-53951047D01*
X113845390Y-53951047D02*
X113893009Y-53903428D01*
X113893009Y-53903428D02*
X113988247Y-53855809D01*
X113988247Y-53855809D02*
X114226342Y-53855809D01*
X114226342Y-53855809D02*
X114321580Y-53903428D01*
X114321580Y-53903428D02*
X114369200Y-53951047D01*
X114369200Y-53951047D02*
X114416819Y-54046285D01*
X114416819Y-54046285D02*
X114416819Y-54331999D01*
X114416819Y-54331999D02*
X114369200Y-54427237D01*
X114369200Y-54427237D02*
X114321580Y-54474856D01*
X114416819Y-52141523D02*
X114416819Y-52712951D01*
X114416819Y-52427237D02*
X113416819Y-52427237D01*
X113416819Y-52427237D02*
X113559676Y-52522475D01*
X113559676Y-52522475D02*
X113654914Y-52617713D01*
X113654914Y-52617713D02*
X113702533Y-52712951D01*
X113512057Y-51760570D02*
X113464438Y-51712951D01*
X113464438Y-51712951D02*
X113416819Y-51617713D01*
X113416819Y-51617713D02*
X113416819Y-51379618D01*
X113416819Y-51379618D02*
X113464438Y-51284380D01*
X113464438Y-51284380D02*
X113512057Y-51236761D01*
X113512057Y-51236761D02*
X113607295Y-51189142D01*
X113607295Y-51189142D02*
X113702533Y-51189142D01*
X113702533Y-51189142D02*
X113845390Y-51236761D01*
X113845390Y-51236761D02*
X114416819Y-51808189D01*
X114416819Y-51808189D02*
X114416819Y-51189142D01*
X113416819Y-50570094D02*
X113416819Y-50474856D01*
X113416819Y-50474856D02*
X113464438Y-50379618D01*
X113464438Y-50379618D02*
X113512057Y-50331999D01*
X113512057Y-50331999D02*
X113607295Y-50284380D01*
X113607295Y-50284380D02*
X113797771Y-50236761D01*
X113797771Y-50236761D02*
X114035866Y-50236761D01*
X114035866Y-50236761D02*
X114226342Y-50284380D01*
X114226342Y-50284380D02*
X114321580Y-50331999D01*
X114321580Y-50331999D02*
X114369200Y-50379618D01*
X114369200Y-50379618D02*
X114416819Y-50474856D01*
X114416819Y-50474856D02*
X114416819Y-50570094D01*
X114416819Y-50570094D02*
X114369200Y-50665332D01*
X114369200Y-50665332D02*
X114321580Y-50712951D01*
X114321580Y-50712951D02*
X114226342Y-50760570D01*
X114226342Y-50760570D02*
X114035866Y-50808189D01*
X114035866Y-50808189D02*
X113797771Y-50808189D01*
X113797771Y-50808189D02*
X113607295Y-50760570D01*
X113607295Y-50760570D02*
X113512057Y-50712951D01*
X113512057Y-50712951D02*
X113464438Y-50665332D01*
X113464438Y-50665332D02*
X113416819Y-50570094D01*
%TO.C,R1 120 *%
D13*
X74522000Y-72104000D02*
X74522000Y-65564000D01*
X74522000Y-65564000D02*
X74192000Y-65564000D01*
X74192000Y-72104000D02*
X74522000Y-72104000D01*
X72112000Y-72104000D02*
X71782000Y-72104000D01*
X71782000Y-72104000D02*
X71782000Y-65564000D01*
X71782000Y-65564000D02*
X72112000Y-65564000D01*
%TO.C,D4*%
X133529575Y-52289575D02*
G75*
G02*
X128529575Y-52289575I-2500000J0D01*
G01*
X128529575Y-52289575D02*
G75*
G02*
X133529575Y-52289575I2500000J0D01*
G01*
X133143824Y-54403824D02*
G75*
G02*
X128127020Y-51571741I-2114251J2114248D01*
G01*
X130311741Y-49387021D02*
G75*
G02*
X133143825Y-54403825I717834J-2902554D01*
G01*
X130311861Y-49386901D02*
X128126901Y-51571861D01*
%TO.C,Q4*%
X139727175Y-58487175D02*
G75*
G02*
X134727175Y-58487175I-2500000J0D01*
G01*
X134727175Y-58487175D02*
G75*
G02*
X139727175Y-58487175I2500000J0D01*
G01*
X139341424Y-60601424D02*
G75*
G02*
X134324620Y-57769341I-2114251J2114248D01*
G01*
X136509341Y-55584621D02*
G75*
G02*
X139341425Y-60601425I717834J-2902554D01*
G01*
X136509461Y-55584501D02*
X134324501Y-57769461D01*
%TO.C,D2*%
X85761200Y-38658800D02*
G75*
G02*
X80761200Y-38658800I-2500000J0D01*
G01*
X80761200Y-38658800D02*
G75*
G02*
X85761200Y-38658800I2500000J0D01*
G01*
X86251200Y-38658800D02*
G75*
G02*
X80701200Y-40203630I-2990000J0D01*
G01*
X80701200Y-37113970D02*
G75*
G02*
X86251200Y-38658800I2560000J-1544830D01*
G01*
X80701200Y-37113800D02*
X80701200Y-40203800D01*
%TO.C,Q2*%
X96170200Y-38658800D02*
G75*
G02*
X91170200Y-38658800I-2500000J0D01*
G01*
X91170200Y-38658800D02*
G75*
G02*
X96170200Y-38658800I2500000J0D01*
G01*
X96660200Y-38658800D02*
G75*
G02*
X91110200Y-40203630I-2990000J0D01*
G01*
X91110200Y-37113970D02*
G75*
G02*
X96660200Y-38658800I2560000J-1544830D01*
G01*
X91110200Y-37113800D02*
X91110200Y-40203800D01*
%TO.C,D3*%
X113701200Y-38658800D02*
G75*
G02*
X108701200Y-38658800I-2500000J0D01*
G01*
X108701200Y-38658800D02*
G75*
G02*
X113701200Y-38658800I2500000J0D01*
G01*
X114191200Y-38658800D02*
G75*
G02*
X108641200Y-40203630I-2990000J0D01*
G01*
X108641200Y-37113970D02*
G75*
G02*
X114191200Y-38658800I2560000J-1544830D01*
G01*
X108641200Y-37113800D02*
X108641200Y-40203800D01*
%TO.C,Q3*%
X124115200Y-38658800D02*
G75*
G02*
X119115200Y-38658800I-2500000J0D01*
G01*
X119115200Y-38658800D02*
G75*
G02*
X124115200Y-38658800I2500000J0D01*
G01*
X124605200Y-38658800D02*
G75*
G02*
X119055200Y-40203630I-2990000J0D01*
G01*
X119055200Y-37113970D02*
G75*
G02*
X124605200Y-38658800I2560000J-1544830D01*
G01*
X119055200Y-37113800D02*
X119055200Y-40203800D01*
%TO.C,R2 120*%
X87022000Y-49308000D02*
X87352000Y-49308000D01*
X87022000Y-55848000D02*
X87022000Y-49308000D01*
X87352000Y-55848000D02*
X87022000Y-55848000D01*
X89432000Y-55848000D02*
X89762000Y-55848000D01*
X89762000Y-49308000D02*
X89432000Y-49308000D01*
X89762000Y-55848000D02*
X89762000Y-49308000D01*
%TO.C,C2 47 \u00B5F*%
X80186000Y-107414600D02*
X78946000Y-107414600D01*
X80186000Y-107454600D02*
X78946000Y-107454600D01*
X80186000Y-107494600D02*
X78948000Y-107494600D01*
X80186000Y-107534600D02*
X78949000Y-107534600D01*
X80186000Y-107574600D02*
X78952000Y-107574600D01*
X80186000Y-107614600D02*
X78955000Y-107614600D01*
X80186000Y-107654600D02*
X78960000Y-107654600D01*
X80186000Y-107694600D02*
X78965000Y-107694600D01*
X80186000Y-107734600D02*
X78970000Y-107734600D01*
X80186000Y-107774600D02*
X78977000Y-107774600D01*
X80186000Y-107814600D02*
X78984000Y-107814600D01*
X80186000Y-107854600D02*
X78992000Y-107854600D01*
X80186000Y-107894600D02*
X79001000Y-107894600D01*
X80186000Y-107934600D02*
X79011000Y-107934600D01*
X80186000Y-107974600D02*
X79021000Y-107974600D01*
X80186000Y-108014600D02*
X79033000Y-108014600D01*
X80186000Y-108054600D02*
X79045000Y-108054600D01*
X80186000Y-108094600D02*
X79058000Y-108094600D01*
X80186000Y-108134600D02*
X79072000Y-108134600D01*
X80186000Y-108174600D02*
X79087000Y-108174600D01*
X80186000Y-108214600D02*
X79103000Y-108214600D01*
X80186000Y-108254600D02*
X79120000Y-108254600D01*
X80186000Y-108294600D02*
X79137000Y-108294600D01*
X80186000Y-108334600D02*
X79156000Y-108334600D01*
X80186000Y-108374600D02*
X79176000Y-108374600D01*
X80186000Y-108414600D02*
X79197000Y-108414600D01*
X80186000Y-108454600D02*
X79219000Y-108454600D01*
X80186000Y-108494600D02*
X79242000Y-108494600D01*
X80186000Y-108534600D02*
X79266000Y-108534600D01*
X80186000Y-108574600D02*
X79292000Y-108574600D01*
X80186000Y-108614600D02*
X79318000Y-108614600D01*
X80186000Y-108654600D02*
X79346000Y-108654600D01*
X80186000Y-108694600D02*
X79376000Y-108694600D01*
X80186000Y-108734600D02*
X79407000Y-108734600D01*
X80186000Y-108774600D02*
X79440000Y-108774600D01*
X80186000Y-108814600D02*
X79474000Y-108814600D01*
X80186000Y-108854600D02*
X79510000Y-108854600D01*
X80186000Y-108894600D02*
X79548000Y-108894600D01*
X80186000Y-108934600D02*
X79588000Y-108934600D01*
X80186000Y-108974600D02*
X79630000Y-108974600D01*
X81396000Y-109494600D02*
X80656000Y-109494600D01*
X81563000Y-109454600D02*
X80489000Y-109454600D01*
X81689000Y-109414600D02*
X80363000Y-109414600D01*
X81794000Y-109374600D02*
X80258000Y-109374600D01*
X81885000Y-109334600D02*
X80167000Y-109334600D01*
X81966000Y-109294600D02*
X80086000Y-109294600D01*
X82039000Y-109254600D02*
X80013000Y-109254600D01*
X82106000Y-109214600D02*
X79946000Y-109214600D01*
X82168000Y-109174600D02*
X79884000Y-109174600D01*
X82221000Y-105144799D02*
X82221000Y-105544799D01*
X82225000Y-109134600D02*
X79827000Y-109134600D01*
X82279000Y-109094600D02*
X79773000Y-109094600D01*
X82329000Y-109054600D02*
X79723000Y-109054600D01*
X82377000Y-109014600D02*
X79675000Y-109014600D01*
X82421000Y-105344799D02*
X82021000Y-105344799D01*
X82422000Y-108974600D02*
X81866000Y-108974600D01*
X82464000Y-108934600D02*
X81866000Y-108934600D01*
X82504000Y-108894600D02*
X81866000Y-108894600D01*
X82542000Y-108854600D02*
X81866000Y-108854600D01*
X82578000Y-108814600D02*
X81866000Y-108814600D01*
X82612000Y-108774600D02*
X81866000Y-108774600D01*
X82645000Y-108734600D02*
X81866000Y-108734600D01*
X82676000Y-108694600D02*
X81866000Y-108694600D01*
X82706000Y-108654600D02*
X81866000Y-108654600D01*
X82734000Y-108614600D02*
X81866000Y-108614600D01*
X82760000Y-108574600D02*
X81866000Y-108574600D01*
X82786000Y-108534600D02*
X81866000Y-108534600D01*
X82810000Y-108494600D02*
X81866000Y-108494600D01*
X82833000Y-108454600D02*
X81866000Y-108454600D01*
X82855000Y-108414600D02*
X81866000Y-108414600D01*
X82876000Y-108374600D02*
X81866000Y-108374600D01*
X82896000Y-108334600D02*
X81866000Y-108334600D01*
X82915000Y-108294600D02*
X81866000Y-108294600D01*
X82932000Y-108254600D02*
X81866000Y-108254600D01*
X82949000Y-108214600D02*
X81866000Y-108214600D01*
X82965000Y-108174600D02*
X81866000Y-108174600D01*
X82980000Y-108134600D02*
X81866000Y-108134600D01*
X82994000Y-108094600D02*
X81866000Y-108094600D01*
X83007000Y-108054600D02*
X81866000Y-108054600D01*
X83019000Y-108014600D02*
X81866000Y-108014600D01*
X83031000Y-107974600D02*
X81866000Y-107974600D01*
X83041000Y-107934600D02*
X81866000Y-107934600D01*
X83051000Y-107894600D02*
X81866000Y-107894600D01*
X83060000Y-107854600D02*
X81866000Y-107854600D01*
X83068000Y-107814600D02*
X81866000Y-107814600D01*
X83075000Y-107774600D02*
X81866000Y-107774600D01*
X83082000Y-107734600D02*
X81866000Y-107734600D01*
X83087000Y-107694600D02*
X81866000Y-107694600D01*
X83092000Y-107654600D02*
X81866000Y-107654600D01*
X83097000Y-107614600D02*
X81866000Y-107614600D01*
X83100000Y-107574600D02*
X81866000Y-107574600D01*
X83103000Y-107534600D02*
X81866000Y-107534600D01*
X83104000Y-107494600D02*
X81866000Y-107494600D01*
X83106000Y-107414600D02*
X81866000Y-107414600D01*
X83106000Y-107454600D02*
X81866000Y-107454600D01*
X83146000Y-107414600D02*
G75*
G02*
X78906000Y-107414600I-2120000J0D01*
G01*
X78906000Y-107414600D02*
G75*
G02*
X83146000Y-107414600I2120000J0D01*
G01*
%TO.C,J14*%
X109872000Y-107840000D02*
X111252000Y-107840000D01*
X109872000Y-109220000D02*
X109872000Y-107840000D01*
X109872000Y-110490000D02*
X109872000Y-123300000D01*
X109872000Y-110490000D02*
X112632000Y-110490000D01*
X109872000Y-123300000D02*
X112632000Y-123300000D01*
X112632000Y-110490000D02*
X112632000Y-123300000D01*
%TO.C,J2*%
D14*
X76379000Y-76194000D02*
X127329000Y-76194000D01*
X76379000Y-76194000D02*
X127329000Y-76194000D01*
X76379000Y-86924000D02*
X76379000Y-76194000D01*
X76379000Y-93635000D02*
X76379000Y-86924000D01*
X76379000Y-104704000D02*
X76379000Y-76194000D01*
X76379000Y-104704000D02*
X76379000Y-93635000D01*
X127329000Y-76194000D02*
X127329000Y-104704000D01*
X127329000Y-81644000D02*
X127329000Y-76194000D01*
X127329000Y-99334000D02*
X127329000Y-81644000D01*
X127329000Y-104704000D02*
X76379000Y-104704000D01*
X127329000Y-104704000D02*
X76379000Y-104704000D01*
X127329000Y-104704000D02*
X127329000Y-99334000D01*
D11*
X86439000Y-105274000D02*
G75*
G02*
X86239000Y-105274000I-100000J0D01*
G01*
X86239000Y-105274000D02*
G75*
G02*
X86439000Y-105274000I100000J0D01*
G01*
%TO.C,J6*%
D13*
X78963000Y-128721000D02*
X78963000Y-150171000D01*
X78963000Y-150171000D02*
X122713000Y-150171000D01*
X78968000Y-128976000D02*
X80268000Y-128976000D01*
X78968000Y-132131000D02*
X82098000Y-132136000D01*
X78968000Y-146756000D02*
X82098000Y-146756000D01*
X78968000Y-149916000D02*
X82098000Y-149916000D01*
X82098000Y-131826000D02*
X82098000Y-132136000D01*
X82098000Y-146756000D02*
X82098000Y-149916000D01*
X89267233Y-131560149D02*
X89267233Y-131721687D01*
X89268233Y-130193610D02*
X90918233Y-129902671D01*
X89268233Y-139545106D02*
X89268233Y-130193610D01*
X89268233Y-139545106D02*
X89345797Y-139622670D01*
X89345797Y-139622670D02*
X99350670Y-139622670D01*
X89549636Y-147114217D02*
X89999636Y-147114217D01*
X89549636Y-148864217D02*
X89549636Y-147114217D01*
X89999636Y-148864217D02*
X89549636Y-148864217D01*
X89999636Y-149139217D02*
X89999636Y-146839217D01*
X90099636Y-146739217D02*
X93699636Y-146739217D01*
X90528233Y-144252670D02*
X90528233Y-139622670D01*
X90528233Y-144252670D02*
X91368233Y-144252670D01*
X90918233Y-129902671D02*
X97778233Y-129902671D01*
X91368233Y-144252670D02*
X91368233Y-139622670D01*
X92228233Y-144252670D02*
X92228233Y-139622670D01*
X92228233Y-144252670D02*
X93068233Y-144252670D01*
X92929358Y-146839217D02*
X92929358Y-149139217D01*
X93068233Y-144252670D02*
X93068233Y-139622670D01*
X93699636Y-149239217D02*
X90099636Y-149239217D01*
X93799636Y-146839217D02*
X93799636Y-149139217D01*
X93799636Y-147114217D02*
X94249636Y-147114217D01*
X93800636Y-147350696D02*
X93800636Y-147256144D01*
X93928233Y-144252670D02*
X93928233Y-139622670D01*
X93928233Y-144252670D02*
X94768233Y-144252670D01*
X94249636Y-147114217D02*
X94249636Y-148864217D01*
X94249636Y-148864217D02*
X93799636Y-148864217D01*
X94768233Y-144252670D02*
X94768233Y-139622670D01*
X95628233Y-144252670D02*
X95628233Y-139622670D01*
X95628233Y-144252670D02*
X96468233Y-144252670D01*
X96468233Y-144252670D02*
X96468233Y-139622670D01*
X97328233Y-144252670D02*
X97328233Y-139622670D01*
X97328233Y-144252670D02*
X98168233Y-144252670D01*
X97778233Y-129902671D02*
X99428233Y-130193610D01*
X98168233Y-144252670D02*
X98168233Y-139622670D01*
X99350670Y-139622670D02*
X99428233Y-139545106D01*
X99428233Y-130982670D02*
X89268233Y-130982670D01*
X99428233Y-139545106D02*
X99428233Y-130193610D01*
X100985397Y-138141796D02*
X100985397Y-147841796D01*
X102485397Y-149341796D02*
X112185397Y-149341796D01*
X103817783Y-134138294D02*
X103817783Y-129238295D01*
X103867783Y-129188295D02*
X113767783Y-129188295D01*
X104854385Y-130506900D02*
X104878553Y-130538295D01*
X104866594Y-130563294D02*
X104842147Y-130558062D01*
X104866594Y-130563294D02*
X104873764Y-130532075D01*
X104866594Y-130563294D02*
X104878553Y-130538295D01*
X104878553Y-131038294D02*
X106957014Y-131038294D01*
X106957014Y-130538295D02*
X104878553Y-130538295D01*
X112185397Y-136641796D02*
X102485397Y-136641796D01*
X112376978Y-129187295D02*
X112332106Y-129187295D01*
X112460312Y-129187295D02*
X112426357Y-129187295D01*
X113685397Y-147841796D02*
X113685397Y-138141796D01*
X113767783Y-134188294D02*
X103867783Y-134188294D01*
X113817783Y-129238295D02*
X113817783Y-134138294D01*
X117166681Y-130256296D02*
X117966681Y-130256296D01*
X117166681Y-131536295D02*
X117166681Y-129936296D01*
X117966681Y-129936296D02*
X117166681Y-129936296D01*
X117966681Y-129936296D02*
X117966681Y-131536295D01*
X117966681Y-131216295D02*
X117166681Y-131216295D01*
X117966681Y-131536295D02*
X117166681Y-131536295D01*
X119578000Y-128976000D02*
X122693000Y-128976000D01*
X119578000Y-132136000D02*
X119578000Y-128976000D01*
X119578000Y-132136000D02*
X122738000Y-132136000D01*
X119578000Y-146756000D02*
X122693000Y-146756000D01*
X119578000Y-149916000D02*
X119578000Y-146756000D01*
X119578000Y-149916000D02*
X122693000Y-149916000D01*
X122713000Y-128721000D02*
X78963000Y-128721000D01*
X122713000Y-150171000D02*
X122713000Y-128721000D01*
X89999636Y-146839217D02*
G75*
G02*
X90099636Y-146739236I99964J17D01*
G01*
X90099636Y-149239217D02*
G75*
G02*
X89999583Y-149139217I64J100117D01*
G01*
X93699636Y-146739217D02*
G75*
G02*
X93799583Y-146839217I64J-99883D01*
G01*
X93799636Y-149139217D02*
G75*
G02*
X93699636Y-149239236I-100036J17D01*
G01*
X100985397Y-138141796D02*
G75*
G02*
X102485397Y-136641797I1500003J-4D01*
G01*
X102299131Y-140022010D02*
G75*
G02*
X102333219Y-140156184I-53031J-84890D01*
G01*
X102299132Y-140022011D02*
G75*
G02*
X104365611Y-137955531I793668J1272811D01*
G01*
X102333217Y-145827409D02*
G75*
G02*
X102299118Y-145961560I-87017J-49291D01*
G01*
X102333218Y-145827410D02*
G75*
G02*
X102333221Y-140156185I5002182J2835610D01*
G01*
X102485397Y-149341796D02*
G75*
G02*
X100985404Y-147841796I3J1499996D01*
G01*
X103817783Y-129238295D02*
G75*
G02*
X103867783Y-129188283I50017J-5D01*
G01*
X103867783Y-134188294D02*
G75*
G02*
X103817806Y-134138294I17J49994D01*
G01*
X104365611Y-148028062D02*
G75*
G02*
X102299137Y-145961590I-1272811J793662D01*
G01*
X104365611Y-148028062D02*
G75*
G02*
X104499782Y-147993977I84889J-53038D01*
G01*
X104499783Y-137989617D02*
G75*
G02*
X104365641Y-137955512I-49283J87017D01*
G01*
X104499784Y-137989617D02*
G75*
G02*
X110171011Y-137989617I2835614J-5002178D01*
G01*
X104842148Y-131018527D02*
G75*
G02*
X104854385Y-131069690I1075652J230227D01*
G01*
X110171011Y-147993976D02*
G75*
G02*
X104499783Y-147993976I-2835614J5002180D01*
G01*
X110171011Y-147993976D02*
G75*
G02*
X110305162Y-148028075I49289J-87024D01*
G01*
X110305183Y-137955531D02*
G75*
G02*
X110171014Y-137989611I-84883J53031D01*
G01*
X110305183Y-137955531D02*
G75*
G02*
X112371667Y-140022018I1272817J-793669D01*
G01*
X112185397Y-136641796D02*
G75*
G02*
X113685404Y-138141796I3J-1500004D01*
G01*
X112337576Y-140156183D02*
G75*
G02*
X112337579Y-145827412I-5002176J-2835617D01*
G01*
X112337577Y-140156184D02*
G75*
G02*
X112371680Y-140022039I87023J49284D01*
G01*
X112371662Y-145961582D02*
G75*
G02*
X110305182Y-148028062I-793662J-1272818D01*
G01*
X112371663Y-145961583D02*
G75*
G02*
X112337555Y-145827398I52937J84883D01*
G01*
X113685397Y-147841796D02*
G75*
G02*
X112185397Y-149341797I-1499997J-4D01*
G01*
X113767783Y-129188295D02*
G75*
G02*
X113817805Y-129238295I17J-50005D01*
G01*
X113817783Y-134138294D02*
G75*
G02*
X113767783Y-134188283I-49983J-6D01*
G01*
X87164666Y-139513418D02*
G75*
G02*
X79164666Y-139513418I-4000000J0D01*
G01*
X79164666Y-139513418D02*
G75*
G02*
X87164666Y-139513418I4000000J0D01*
G01*
X87196999Y-131191000D02*
G75*
G02*
X83999001Y-131191000I-1598999J0D01*
G01*
X83999001Y-131191000D02*
G75*
G02*
X87196999Y-131191000I1598999J0D01*
G01*
X90566179Y-138710594D02*
G75*
G02*
X89816179Y-138710594I-375000J0D01*
G01*
X89816179Y-138710594D02*
G75*
G02*
X90566179Y-138710594I375000J0D01*
G01*
X112585397Y-142991796D02*
G75*
G02*
X102085397Y-142991796I-5250000J0D01*
G01*
X102085397Y-142991796D02*
G75*
G02*
X112585397Y-142991796I5250000J0D01*
G01*
X117677000Y-147701000D02*
G75*
G02*
X114479000Y-147701000I-1599000J0D01*
G01*
X114479000Y-147701000D02*
G75*
G02*
X117677000Y-147701000I1599000J0D01*
G01*
X122547307Y-140011206D02*
G75*
G02*
X114547307Y-140011206I-4000000J0D01*
G01*
X114547307Y-140011206D02*
G75*
G02*
X122547307Y-140011206I4000000J0D01*
G01*
%TO.C,R7 10k *%
X76862000Y-65564000D02*
X77192000Y-65564000D01*
X76862000Y-72104000D02*
X76862000Y-65564000D01*
X77192000Y-72104000D02*
X76862000Y-72104000D01*
X79272000Y-72104000D02*
X79602000Y-72104000D01*
X79602000Y-65564000D02*
X79272000Y-65564000D01*
X79602000Y-72104000D02*
X79602000Y-65564000D01*
%TO.C,R8 10k*%
X91340000Y-49562000D02*
X91670000Y-49562000D01*
X91340000Y-56102000D02*
X91340000Y-49562000D01*
X91670000Y-56102000D02*
X91340000Y-56102000D01*
X93750000Y-56102000D02*
X94080000Y-56102000D01*
X94080000Y-49562000D02*
X93750000Y-49562000D01*
X94080000Y-56102000D02*
X94080000Y-49562000D01*
%TO.C,C1 100nF*%
X75788000Y-108216199D02*
X75788000Y-106686199D01*
X77628000Y-106686199D02*
X77628000Y-108216199D01*
%TO.C,J15*%
D14*
X102986000Y-54636000D02*
X104786000Y-54636000D01*
X104786000Y-51536000D02*
X102986000Y-51536000D01*
D11*
X101676000Y-52136000D02*
G75*
G02*
X101476000Y-52136000I-100000J0D01*
G01*
X101476000Y-52136000D02*
G75*
G02*
X101676000Y-52136000I100000J0D01*
G01*
%TO.C,J5*%
D13*
X64016000Y-140660000D02*
X74756000Y-140660000D01*
X64016000Y-144280000D02*
X65256000Y-144280000D01*
X64016000Y-145280000D02*
X65256000Y-145280000D01*
X64016000Y-146580000D02*
X65256000Y-146580000D01*
X64016000Y-148700000D02*
X64016000Y-140660000D01*
X66836000Y-148700000D02*
X64016000Y-148700000D01*
X69016000Y-144280000D02*
X70324000Y-144280000D01*
X69016000Y-145280000D02*
X70324000Y-145280000D01*
X69016000Y-146580000D02*
X71593000Y-146580000D01*
X72679000Y-146580000D02*
X74756000Y-146580000D01*
X73948000Y-144280000D02*
X74756000Y-144280000D01*
X73948000Y-145280000D02*
X74756000Y-145280000D01*
X74756000Y-140660000D02*
X74756000Y-148700000D01*
X74756000Y-148700000D02*
X67436000Y-148700000D01*
X67136000Y-148700000D02*
X67576000Y-149310000D01*
X66696000Y-149310000D01*
X67136000Y-148700000D01*
G36*
X67576000Y-149310000D02*
G01*
X66696000Y-149310000D01*
X67136000Y-148700000D01*
X67576000Y-149310000D01*
G37*
%TO.C,C3 100nF*%
X113888000Y-116081000D02*
X113888000Y-114551000D01*
X115728000Y-114551000D02*
X115728000Y-116081000D01*
%TO.C,R4 120*%
X128678000Y-67342000D02*
X129008000Y-67342000D01*
X128678000Y-73882000D02*
X128678000Y-67342000D01*
X129008000Y-73882000D02*
X128678000Y-73882000D01*
X131088000Y-73882000D02*
X131418000Y-73882000D01*
X131418000Y-67342000D02*
X131088000Y-67342000D01*
X131418000Y-73882000D02*
X131418000Y-67342000D01*
%TO.C,J3*%
X83506000Y-112776000D02*
X83506000Y-125536000D01*
X83506000Y-112776000D02*
X86166000Y-112776000D01*
X83506000Y-125536000D02*
X86166000Y-125536000D01*
X84836000Y-110176000D02*
X86166000Y-110176000D01*
X86166000Y-110176000D02*
X86166000Y-111506000D01*
X86166000Y-112776000D02*
X86166000Y-125536000D01*
%TO.C,Q1*%
X70875301Y-52415739D02*
X73060261Y-54600699D01*
X70875421Y-52415859D02*
G75*
G02*
X75892225Y-49583775I2902554J717834D01*
G01*
X75892224Y-49583776D02*
G75*
G02*
X73060141Y-54600580I-2114248J-2114251D01*
G01*
X76277975Y-51698025D02*
G75*
G02*
X71277975Y-51698025I-2500000J0D01*
G01*
X71277975Y-51698025D02*
G75*
G02*
X76277975Y-51698025I2500000J0D01*
G01*
%TO.C,D1*%
X64525301Y-59019739D02*
X66710261Y-61204699D01*
X64525421Y-59019859D02*
G75*
G02*
X69542225Y-56187775I2902554J717834D01*
G01*
X69542224Y-56187776D02*
G75*
G02*
X66710141Y-61204580I-2114248J-2114251D01*
G01*
X69927975Y-58302025D02*
G75*
G02*
X64927975Y-58302025I-2500000J0D01*
G01*
X64927975Y-58302025D02*
G75*
G02*
X69927975Y-58302025I2500000J0D01*
G01*
%TO.C,J11*%
X64714000Y-132318000D02*
X73534000Y-132318000D01*
X64714000Y-132628000D02*
X64714000Y-132318000D01*
X64714000Y-136838000D02*
X64714000Y-136528000D01*
X66624000Y-131618000D02*
X67124000Y-132118000D01*
X67124000Y-132118000D02*
X67624000Y-131618000D01*
X67624000Y-131618000D02*
X66624000Y-131618000D01*
X73534000Y-132318000D02*
X73534000Y-132628000D01*
X73534000Y-136838000D02*
X64714000Y-136838000D01*
X73534000Y-136838000D02*
X73534000Y-136528000D01*
%TO.C,R5*%
X100616000Y-66448000D02*
X107156000Y-66448000D01*
X100616000Y-66778000D02*
X100616000Y-66448000D01*
X100616000Y-68858000D02*
X100616000Y-69188000D01*
X100616000Y-69188000D02*
X107156000Y-69188000D01*
X107156000Y-66448000D02*
X107156000Y-66778000D01*
X107156000Y-69188000D02*
X107156000Y-68858000D01*
%TO.C,R9 10k*%
X120042000Y-49308000D02*
X120372000Y-49308000D01*
X120042000Y-55848000D02*
X120042000Y-49308000D01*
X120372000Y-55848000D02*
X120042000Y-55848000D01*
X122452000Y-55848000D02*
X122782000Y-55848000D01*
X122782000Y-49308000D02*
X122452000Y-49308000D01*
X122782000Y-55848000D02*
X122782000Y-49308000D01*
%TO.C,J4*%
X118558000Y-112776000D02*
X118558000Y-125536000D01*
X118558000Y-112776000D02*
X121218000Y-112776000D01*
X118558000Y-125536000D02*
X121218000Y-125536000D01*
X119888000Y-110176000D02*
X121218000Y-110176000D01*
X121218000Y-110176000D02*
X121218000Y-111506000D01*
X121218000Y-112776000D02*
X121218000Y-125536000D01*
%TO.C,R6*%
X100616000Y-59590000D02*
X107156000Y-59590000D01*
X100616000Y-59920000D02*
X100616000Y-59590000D01*
X100616000Y-62000000D02*
X100616000Y-62330000D01*
X100616000Y-62330000D02*
X107156000Y-62330000D01*
X107156000Y-59590000D02*
X107156000Y-59920000D01*
X107156000Y-62330000D02*
X107156000Y-62000000D01*
%TO.C,R10 10k*%
X134266000Y-67088000D02*
X134596000Y-67088000D01*
X134266000Y-73628000D02*
X134266000Y-67088000D01*
X134596000Y-73628000D02*
X134266000Y-73628000D01*
X136676000Y-73628000D02*
X137006000Y-73628000D01*
X137006000Y-67088000D02*
X136676000Y-67088000D01*
X137006000Y-73628000D02*
X137006000Y-67088000D01*
%TO.C,J1*%
X91838000Y-107840000D02*
X93218000Y-107840000D01*
X91838000Y-109220000D02*
X91838000Y-107840000D01*
X91838000Y-110490000D02*
X91838000Y-123300000D01*
X91838000Y-110490000D02*
X94598000Y-110490000D01*
X91838000Y-123300000D02*
X94598000Y-123300000D01*
X94598000Y-110490000D02*
X94598000Y-123300000D01*
%TO.C,R3 120*%
X114962000Y-49562000D02*
X115292000Y-49562000D01*
X114962000Y-56102000D02*
X114962000Y-49562000D01*
X115292000Y-56102000D02*
X114962000Y-56102000D01*
X117372000Y-56102000D02*
X117702000Y-56102000D01*
X117702000Y-49562000D02*
X117372000Y-49562000D01*
X117702000Y-56102000D02*
X117702000Y-49562000D01*
%TD*%
M02*
