%TF.GenerationSoftware,KiCad,Pcbnew,10.0.3*%
%TF.CreationDate,2026-06-30T21:44:04+05:30*%
%TF.ProjectId,schema,73636865-6d61-42e6-9b69-6361645f7063,rev?*%
%TF.SameCoordinates,Original*%
%TF.FileFunction,Copper,L1,Top*%
%TF.FilePolarity,Positive*%
%FSLAX46Y46*%
G04 Gerber Fmt 4.6, Leading zero omitted, Abs format (unit mm)*
G04 Created by KiCad (PCBNEW 10.0.3) date 2026-06-30 21:44:04*
%MOMM*%
%LPD*%
G01*
G04 APERTURE LIST*
G04 Aperture macros list*
%AMRoundRect*
0 Rectangle with rounded corners*
0 $1 Rounding radius*
0 $2 $3 $4 $5 $6 $7 $8 $9 X,Y pos of 4 corners*
0 Add a 4 corners polygon primitive as box body*
4,1,4,$2,$3,$4,$5,$6,$7,$8,$9,$2,$3,0*
0 Add four circle primitives for the rounded corners*
1,1,$1+$1,$2,$3*
1,1,$1+$1,$4,$5*
1,1,$1+$1,$6,$7*
1,1,$1+$1,$8,$9*
0 Add four rect primitives between the rounded corners*
20,1,$1+$1,$2,$3,$4,$5,0*
20,1,$1+$1,$4,$5,$6,$7,0*
20,1,$1+$1,$6,$7,$8,$9,0*
20,1,$1+$1,$8,$9,$2,$3,0*%
%AMRotRect*
0 Rectangle, with rotation*
0 The origin of the aperture is its center*
0 $1 length*
0 $2 width*
0 $3 Rotation angle, in degrees counterclockwise*
0 Add horizontal line*
21,1,$1,$2,0,0,$3*%
G04 Aperture macros list end*
%TA.AperFunction,ComponentPad*%
%ADD10R,1.800000X1.800000*%
%TD*%
%TA.AperFunction,ComponentPad*%
%ADD11C,1.800000*%
%TD*%
%TA.AperFunction,ComponentPad*%
%ADD12RotRect,1.800000X1.800000X45.000000*%
%TD*%
%TA.AperFunction,ComponentPad*%
%ADD13C,1.600000*%
%TD*%
%TA.AperFunction,ComponentPad*%
%ADD14C,1.200000*%
%TD*%
%TA.AperFunction,ComponentPad*%
%ADD15RoundRect,0.250000X0.350000X-0.350000X0.350000X0.350000X-0.350000X0.350000X-0.350000X-0.350000X0*%
%TD*%
%TA.AperFunction,ComponentPad*%
%ADD16R,1.700000X1.700000*%
%TD*%
%TA.AperFunction,ComponentPad*%
%ADD17C,1.700000*%
%TD*%
%TA.AperFunction,ComponentPad*%
%ADD18C,2.540000*%
%TD*%
%TA.AperFunction,ComponentPad*%
%ADD19R,2.540000X2.540000*%
%TD*%
%TA.AperFunction,ComponentPad*%
%ADD20O,1.500000X2.500000*%
%TD*%
%TA.AperFunction,ComponentPad*%
%ADD21R,1.500000X2.500000*%
%TD*%
%TA.AperFunction,ComponentPad*%
%ADD22O,2.200000X3.500000*%
%TD*%
%TA.AperFunction,ComponentPad*%
%ADD23RotRect,1.800000X1.800000X315.000000*%
%TD*%
%TA.AperFunction,ComponentPad*%
%ADD24RoundRect,0.250000X-0.350000X-0.625000X0.350000X-0.625000X0.350000X0.625000X-0.350000X0.625000X0*%
%TD*%
%TA.AperFunction,ComponentPad*%
%ADD25O,1.200000X1.750000*%
%TD*%
%TA.AperFunction,SMDPad,CuDef*%
%ADD26RoundRect,0.147500X-0.457500X-0.147500X0.457500X-0.147500X0.457500X0.147500X-0.457500X0.147500X0*%
%TD*%
G04 APERTURE END LIST*
D10*
%TO.P,Q3,1,C_1*%
%TO.N,/IR 3*%
X120650000Y-38608000D03*
D11*
%TO.P,Q3,2,E_2*%
%TO.N,/GND*%
X123190000Y-38608000D03*
%TD*%
D12*
%TO.P,D1,1,K_1*%
%TO.N,Net-(D1-K)*%
X66529949Y-59200051D03*
D11*
%TO.P,D1,2,A_2*%
%TO.N,Net-(D1-A)*%
X68326000Y-57404000D03*
%TD*%
D13*
%TO.P,C3,1*%
%TO.N,/GND*%
X116332000Y-75692000D03*
%TO.P,C3,2*%
%TO.N,/BAT +*%
X116332000Y-73192000D03*
%TD*%
%TO.P,C1,2*%
%TO.N,/BUCK +*%
X108204000Y-105390000D03*
%TO.P,C1,1*%
%TO.N,/GND*%
X108204000Y-102890000D03*
%TD*%
D14*
%TO.P,C2,2*%
%TO.N,/GND*%
X100330000Y-103168000D03*
D15*
%TO.P,C2,1*%
%TO.N,/BUCK +*%
X100330000Y-104668000D03*
%TD*%
D16*
%TO.P,J1,1,Pin_1_1*%
%TO.N,/BUCK +*%
X97028000Y-68072000D03*
D17*
%TO.P,J1,2,Pin_2_2*%
%TO.N,/AOUT 1*%
X97028000Y-70612000D03*
%TO.P,J1,3,Pin_3_3*%
%TO.N,/AOUT 2*%
X97028000Y-73152000D03*
%TO.P,J1,4,Pin_4_4*%
%TO.N,/BOUT 1*%
X97028000Y-75692000D03*
%TO.P,J1,5,Pin_5_5*%
%TO.N,/BOUT 2*%
X97028000Y-78232000D03*
%TO.P,J1,6,Pin_6_6*%
%TO.N,unconnected-(J1-Pin_6-Pad6)*%
X97028000Y-80772000D03*
%TD*%
D16*
%TO.P,J12,1,Pin_1_1*%
%TO.N,unconnected-(J12-Pin_1-Pad1)*%
X86614000Y-97536000D03*
D17*
%TO.P,J12,2,Pin_2_2*%
%TO.N,/IR 1*%
X89154000Y-97536000D03*
%TO.P,J12,3,Pin_3_3*%
%TO.N,/IR 2*%
X91694000Y-97536000D03*
%TO.P,J12,4,Pin_4_4*%
%TO.N,/ENC A1*%
X94234000Y-97536000D03*
%TO.P,J12,5,Pin_5_5*%
%TO.N,/ENC A2*%
X96774000Y-97536000D03*
%TO.P,J12,6,Pin_6_6*%
%TO.N,/ENC B1*%
X99314000Y-97536000D03*
%TO.P,J12,7,Pin_7_7*%
%TO.N,/ENC B2*%
X101854000Y-97536000D03*
%TO.P,J12,8,Pin_8_8*%
%TO.N,/AIN 1*%
X104394000Y-97536000D03*
%TO.P,J12,9,Pin_9_9*%
%TO.N,/AIN 2*%
X106934000Y-97536000D03*
%TO.P,J12,10,Pin_10_10*%
%TO.N,/BIN 1*%
X109474000Y-97536000D03*
%TO.P,J12,11,Pin_11_11*%
%TO.N,/BIN 2*%
X112014000Y-97536000D03*
%TO.P,J12,12,Pin_12_12*%
%TO.N,/IR EM*%
X114554000Y-97536000D03*
%TO.P,J12,13,Pin_13_13*%
%TO.N,unconnected-(J12-Pin_13-Pad13)*%
X117094000Y-97536000D03*
%TO.P,J12,14,Pin_14_14*%
%TO.N,/GND*%
X119634000Y-97536000D03*
%TO.P,J12,15,Pin_15_15*%
%TO.N,/BUCK +*%
X122174000Y-97536000D03*
%TD*%
D16*
%TO.P,J13,1,Pin_1_1*%
%TO.N,/3V3*%
X86614000Y-92946000D03*
D17*
%TO.P,J13,2,Pin_2_2*%
%TO.N,/GND*%
X89154000Y-92946000D03*
%TO.P,J13,3,Pin_3_3*%
%TO.N,unconnected-(J13-Pin_3-Pad3)*%
X91694000Y-92946000D03*
%TO.P,J13,4,Pin_4_4*%
%TO.N,unconnected-(J13-Pin_4-Pad4)*%
X94234000Y-92946000D03*
%TO.P,J13,5,Pin_5_5*%
%TO.N,/IR 3*%
X96774000Y-92946000D03*
%TO.P,J13,6,Pin_6_6*%
%TO.N,unconnected-(J13-Pin_6-Pad6)*%
X99314000Y-92946000D03*
%TO.P,J13,7,Pin_7_7*%
%TO.N,unconnected-(J13-Pin_7-Pad7)*%
X101854000Y-92946000D03*
%TO.P,J13,8,Pin_8_8*%
%TO.N,/IR 4*%
X104394000Y-92946000D03*
%TO.P,J13,9,Pin_9_9*%
%TO.N,unconnected-(J13-Pin_9-Pad9)*%
X106934000Y-92946000D03*
%TO.P,J13,10,Pin_10_10*%
%TO.N,unconnected-(J13-Pin_10-Pad10)*%
X109474000Y-92946000D03*
%TO.P,J13,11,Pin_11_11*%
%TO.N,unconnected-(J13-Pin_11-Pad11)*%
X112014000Y-92946000D03*
%TO.P,J13,12,Pin_12_12*%
%TO.N,unconnected-(J13-Pin_12-Pad12)*%
X114554000Y-92946000D03*
%TO.P,J13,13,Pin_13_13*%
%TO.N,unconnected-(J13-Pin_13-Pad13)*%
X117094000Y-92946000D03*
%TO.P,J13,14,Pin_14_14*%
%TO.N,unconnected-(J13-Pin_14-Pad14)*%
X119634000Y-92946000D03*
%TO.P,J13,15,Pin_15_15*%
%TO.N,unconnected-(J13-Pin_15-Pad15)*%
X122174000Y-92946000D03*
%TD*%
D13*
%TO.P,R2,1*%
%TO.N,/BUCK +*%
X89662000Y-56388000D03*
%TO.P,R2,2*%
%TO.N,Net-(D2-A)*%
X89662000Y-48768000D03*
%TD*%
%TO.P,R9,1*%
%TO.N,/3V3*%
X121158000Y-54610000D03*
%TO.P,R9,2*%
%TO.N,/IR 3*%
X121158000Y-46990000D03*
%TD*%
%TO.P,R10,1*%
%TO.N,/3V3*%
X135636000Y-74168000D03*
%TO.P,R10,2*%
%TO.N,/IR 4*%
X135636000Y-66548000D03*
%TD*%
%TO.P,R4,1*%
%TO.N,/BUCK +*%
X130048000Y-74422000D03*
%TO.P,R4,2*%
%TO.N,Net-(D4-A)*%
X130048000Y-66802000D03*
%TD*%
%TO.P,R8,1*%
%TO.N,/3V3*%
X93980000Y-56642000D03*
%TO.P,R8,2*%
%TO.N,/IR 2*%
X93980000Y-49022000D03*
%TD*%
%TO.P,R7,1*%
%TO.N,/3V3*%
X78232000Y-72644000D03*
%TO.P,R7,2*%
%TO.N,/IR 1*%
X78232000Y-65024000D03*
%TD*%
%TO.P,R5,1*%
%TO.N,/IR EM*%
X114046000Y-86106000D03*
%TO.P,R5,2*%
%TO.N,Net-(J15-Pin_1)*%
X121666000Y-86106000D03*
%TD*%
%TO.P,R1,1*%
%TO.N,/BUCK +*%
X73152000Y-72644000D03*
%TO.P,R1,2*%
%TO.N,Net-(D1-A)*%
X73152000Y-65024000D03*
%TD*%
%TO.P,R6,1*%
%TO.N,/GND*%
X128524000Y-87376000D03*
%TO.P,R6,2*%
%TO.N,Net-(J15-Pin_1)*%
X136144000Y-87376000D03*
%TD*%
%TO.P,R3,1*%
%TO.N,/BUCK +*%
X116078000Y-54864000D03*
%TO.P,R3,2*%
%TO.N,Net-(D3-A)*%
X116078000Y-47244000D03*
%TD*%
D18*
%TO.P,J6,4,Pin_4_4*%
%TO.N,/GND*%
X121666000Y-127254000D03*
%TO.P,J6,3,Pin_3_3*%
%TO.N,/BUCK +*%
X121666000Y-145034000D03*
%TO.P,J6,2,Pin_2_2*%
%TO.N,/GND*%
X81026000Y-145034000D03*
D19*
%TO.P,J6,1,Pin_1_1*%
%TO.N,/BAT +*%
X81026000Y-127254000D03*
%TD*%
D20*
%TO.P,J11,3*%
%TO.N,N/C*%
X140970000Y-78740000D03*
%TO.P,J11,2,Pin_2_2*%
%TO.N,/BAT +*%
X138970000Y-78740000D03*
D21*
%TO.P,J11,1,Pin_1_1*%
%TO.N,/BAT R+*%
X136970000Y-78740000D03*
D22*
%TO.P,J11,*%
%TO.N,*%
X143070000Y-78740000D03*
X134870000Y-78740000D03*
%TD*%
D11*
%TO.P,D2,2,A_2*%
%TO.N,Net-(D2-A)*%
X85090000Y-38862000D03*
D10*
%TO.P,D2,1,K_1*%
%TO.N,Net-(D1-K)*%
X82550000Y-38862000D03*
%TD*%
D11*
%TO.P,Q4,2,E_2*%
%TO.N,/GND*%
X139446000Y-60960000D03*
D23*
%TO.P,Q4,1,C_1*%
%TO.N,/IR 4*%
X137649949Y-59163949D03*
%TD*%
D11*
%TO.P,D4,2,A_2*%
%TO.N,Net-(D4-A)*%
X132842000Y-55118000D03*
D23*
%TO.P,D4,1,K_1*%
%TO.N,Net-(D1-K)*%
X131045949Y-53321949D03*
%TD*%
D11*
%TO.P,Q1,2,E_2*%
%TO.N,/GND*%
X74676000Y-50800000D03*
D12*
%TO.P,Q1,1,C_1*%
%TO.N,/IR 1*%
X72879949Y-52596051D03*
%TD*%
D11*
%TO.P,D3,2,A_2*%
%TO.N,Net-(D3-A)*%
X115316000Y-38608000D03*
D10*
%TO.P,D3,1,K_1*%
%TO.N,Net-(D1-K)*%
X112776000Y-38608000D03*
%TD*%
D11*
%TO.P,Q2,2,E_2*%
%TO.N,/GND*%
X94742000Y-38608000D03*
D10*
%TO.P,Q2,1,C_1*%
%TO.N,/IR 2*%
X92202000Y-38608000D03*
%TD*%
D16*
%TO.P,J14,1,Pin_1_1*%
%TO.N,/AIN 1*%
X110798000Y-68072000D03*
D17*
%TO.P,J14,2,Pin_2_2*%
%TO.N,/AIN 2*%
X110798000Y-70612000D03*
%TO.P,J14,3,Pin_3_3*%
%TO.N,/BAT +*%
X110798000Y-73152000D03*
%TO.P,J14,4,Pin_4_4*%
%TO.N,/GND*%
X110798000Y-75692000D03*
%TO.P,J14,5,Pin_5_5*%
%TO.N,/BIN 1*%
X110798000Y-78232000D03*
%TO.P,J14,6,Pin_6_6*%
%TO.N,/BIN 2*%
X110798000Y-80772000D03*
%TD*%
D24*
%TO.P,J5,1,Pin_1_1*%
%TO.N,/BAT R+*%
X65294000Y-75904000D03*
D25*
%TO.P,J5,2,Pin_2_2*%
%TO.N,/GND*%
X67294000Y-75904000D03*
%TD*%
D26*
%TO.P,J15,1,Pin_1_1*%
%TO.N,Net-(J15-Pin_1)*%
X124490000Y-79822000D03*
%TO.P,J15,2,Pin_2_2*%
%TO.N,/GND*%
X124490000Y-81722000D03*
%TO.P,J15,3,Pin_3_3*%
%TO.N,Net-(D1-K)*%
X127000000Y-80772000D03*
%TD*%
D16*
%TO.P,J3,1,Pin_1_1*%
%TO.N,/AOUT 1*%
X80518000Y-106680000D03*
D17*
%TO.P,J3,2,Pin_2_2*%
%TO.N,/BUCK +*%
X80518000Y-109220000D03*
%TO.P,J3,3,Pin_3_3*%
%TO.N,/ENC A1*%
X80518000Y-111760000D03*
%TO.P,J3,4,Pin_4_4*%
%TO.N,/ENC A2*%
X80518000Y-114300000D03*
%TO.P,J3,5,Pin_5_5*%
%TO.N,/GND*%
X80518000Y-116840000D03*
%TO.P,J3,6,Pin_6_6*%
%TO.N,/AOUT 2*%
X80518000Y-119380000D03*
%TD*%
D16*
%TO.P,J4,1,Pin_1_1*%
%TO.N,/BOUT 1*%
X122428000Y-105918000D03*
D17*
%TO.P,J4,2,Pin_2_2*%
%TO.N,/BUCK +*%
X122428000Y-108458000D03*
%TO.P,J4,3,Pin_3_3*%
%TO.N,/ENC B1*%
X122428000Y-110998000D03*
%TO.P,J4,4,Pin_4_4*%
%TO.N,/ENC B2*%
X122428000Y-113538000D03*
%TO.P,J4,5,Pin_5_5*%
%TO.N,/GND*%
X122428000Y-116078000D03*
%TO.P,J4,6,Pin_6_6*%
%TO.N,/BOUT 2*%
X122428000Y-118618000D03*
%TD*%
M02*
