%TF.GenerationSoftware,KiCad,Pcbnew,10.0.3*%
%TF.CreationDate,2026-08-23T20:33:25+05:30*%
%TF.ProjectId,schema,73636865-6d61-42e6-9b69-6361645f7063,rev?*%
%TF.SameCoordinates,Original*%
%TF.FileFunction,Copper,L2,Bot*%
%TF.FilePolarity,Positive*%
%FSLAX46Y46*%
G04 Gerber Fmt 4.6, Leading zero omitted, Abs format (unit mm)*
G04 Created by KiCad (PCBNEW 10.0.3) date 2026-08-23 20:33:25*
%MOMM*%
%LPD*%
G01*
G04 APERTURE LIST*
G04 Aperture macros list*
%AMRoundRect*
0 Rectangle with rounded corners*
0 $1 Rounding radius*
0 $2 $3 $4 $5 $6 $7 $8 $9 X,Y pos of 4 corners*
0 Add a 4 corners polygon primitive as box body*
4,1,4,$2,$3,$4,$5,$6,$7,$8,$9,$2,$3,0*
0 Add four circle primitives for the rounded corners*
1,1,$1+$1,$2,$3*
1,1,$1+$1,$4,$5*
1,1,$1+$1,$6,$7*
1,1,$1+$1,$8,$9*
0 Add four rect primitives between the rounded corners*
20,1,$1+$1,$2,$3,$4,$5,0*
20,1,$1+$1,$4,$5,$6,$7,0*
20,1,$1+$1,$6,$7,$8,$9,0*
20,1,$1+$1,$8,$9,$2,$3,0*%
%AMRotRect*
0 Rectangle, with rotation*
0 The origin of the aperture is its center*
0 $1 length*
0 $2 width*
0 $3 Rotation angle, in degrees counterclockwise*
0 Add horizontal line*
21,1,$1,$2,0,0,$3*%
G04 Aperture macros list end*
%TA.AperFunction,ComponentPad*%
%ADD10C,1.600000*%
%TD*%
%TA.AperFunction,ComponentPad*%
%ADD11RoundRect,0.250000X0.550000X-0.550000X0.550000X0.550000X-0.550000X0.550000X-0.550000X-0.550000X0*%
%TD*%
%TA.AperFunction,ComponentPad*%
%ADD12R,1.700000X1.700000*%
%TD*%
%TA.AperFunction,ComponentPad*%
%ADD13C,1.700000*%
%TD*%
%TA.AperFunction,ComponentPad*%
%ADD14R,2.000000X2.000000*%
%TD*%
%TA.AperFunction,ComponentPad*%
%ADD15C,2.000000*%
%TD*%
%TA.AperFunction,ComponentPad*%
%ADD16R,1.800000X1.800000*%
%TD*%
%TA.AperFunction,ComponentPad*%
%ADD17C,1.800000*%
%TD*%
%TA.AperFunction,ComponentPad*%
%ADD18RoundRect,0.250001X-1.149999X-1.149999X1.149999X-1.149999X1.149999X1.149999X-1.149999X1.149999X0*%
%TD*%
%TA.AperFunction,ComponentPad*%
%ADD19C,2.800000*%
%TD*%
%TA.AperFunction,ComponentPad*%
%ADD20RotRect,1.800000X1.800000X45.000000*%
%TD*%
%TA.AperFunction,ComponentPad*%
%ADD21RotRect,1.800000X1.800000X315.000000*%
%TD*%
%TA.AperFunction,ComponentPad*%
%ADD22O,3.500000X2.200000*%
%TD*%
%TA.AperFunction,ComponentPad*%
%ADD23R,2.500000X1.500000*%
%TD*%
%TA.AperFunction,ComponentPad*%
%ADD24O,2.500000X1.500000*%
%TD*%
%TA.AperFunction,ViaPad*%
%ADD25C,0.600000*%
%TD*%
%TA.AperFunction,Conductor*%
%ADD26C,0.800000*%
%TD*%
%TA.AperFunction,Conductor*%
%ADD27C,1.000000*%
%TD*%
%TA.AperFunction,Conductor*%
%ADD28C,1.200000*%
%TD*%
%TA.AperFunction,Conductor*%
%ADD29C,0.500000*%
%TD*%
%TA.AperFunction,Conductor*%
%ADD30C,0.200000*%
%TD*%
%TA.AperFunction,Conductor*%
%ADD31C,0.250000*%
%TD*%
G04 APERTURE END LIST*
D10*
%TO.P,R8,2*%
%TO.N,/IR 2*%
X92710000Y-49123600D03*
%TO.P,R8,1*%
%TO.N,/3V3*%
X92710000Y-56743600D03*
%TD*%
%TO.P,R2,1*%
%TO.N,/BOOST +*%
X88392000Y-56489600D03*
%TO.P,R2,2*%
%TO.N,Net-(D2-A)*%
X88392000Y-48869600D03*
%TD*%
D11*
%TO.P,C2,1*%
%TO.N,/GND*%
X128016000Y-109880400D03*
D10*
%TO.P,C2,2*%
%TO.N,/BOOST +*%
X128016000Y-107380400D03*
%TD*%
D12*
%TO.P,J14,1,Pin_1_1*%
%TO.N,/AIN 1*%
X111252000Y-109321600D03*
D13*
%TO.P,J14,2,Pin_2_2*%
%TO.N,/AIN 2*%
X111252000Y-111861600D03*
%TO.P,J14,3,Pin_3_3*%
%TO.N,/GND*%
X111252000Y-114401600D03*
%TO.P,J14,4,Pin_4_4*%
%TO.N,/BAT +*%
X111252000Y-116941600D03*
%TO.P,J14,5,Pin_5_5*%
%TO.N,/BIN 1*%
X111252000Y-119481600D03*
%TO.P,J14,6,Pin_6_6*%
%TO.N,/BIN 2*%
X111252000Y-122021600D03*
%TD*%
D14*
%TO.P,Esp32,1,Pin_1_1*%
%TO.N,/3V3*%
X117652800Y-77673200D03*
D15*
%TO.P,Esp32,2,Pin_2_2*%
%TO.N,/GND*%
X115112800Y-77673200D03*
%TO.P,Esp32,3,Pin_3_3*%
%TO.N,/IR EM*%
X112572800Y-77673200D03*
%TO.P,Esp32,4,Pin_4_4*%
%TO.N,/IR 2*%
X110032800Y-77673200D03*
%TO.P,Esp32,5,Pin_5_5*%
%TO.N,/IR 4*%
X107492800Y-77673200D03*
%TO.P,Esp32,6,Pin_6_6*%
%TO.N,unconnected-(J2-Pin_6-Pad6)*%
X104952800Y-77673200D03*
%TO.P,Esp32,7,Pin_7_7*%
%TO.N,unconnected-(J2-Pin_7-Pad7)*%
X102412800Y-77673200D03*
%TO.P,Esp32,8,Pin_8_8*%
%TO.N,unconnected-(J2-Pin_8-Pad8)*%
X99872800Y-77673200D03*
%TO.P,Esp32,9,Pin_9_9*%
%TO.N,unconnected-(J2-Pin_9-Pad9)*%
X97332800Y-77673200D03*
%TO.P,Esp32,10,Pin_10_10*%
%TO.N,unconnected-(J2-Pin_10-Pad10)*%
X94792800Y-77673200D03*
%TO.P,Esp32,11,Pin_11_11*%
%TO.N,unconnected-(J2-Pin_11-Pad11)*%
X92252800Y-77673200D03*
%TO.P,Esp32,12,Pin_12_12*%
%TO.N,/IR 3*%
X89712800Y-77673200D03*
%TO.P,Esp32,13,Pin_13_13*%
%TO.N,/IR 1*%
X87172800Y-77673200D03*
%TO.P,Esp32,14,Pin_14_14*%
%TO.N,unconnected-(J2-Pin_14-Pad14)*%
X84632800Y-77673200D03*
%TO.P,Esp32,15,Pin_15_15*%
%TO.N,unconnected-(J2-Pin_15-Pad15)*%
X82092800Y-77673200D03*
%TO.P,Esp32,16,Pin_16_16*%
%TO.N,unconnected-(J2-Pin_16-Pad16)*%
X82092800Y-103073200D03*
%TO.P,Esp32,17,Pin_17_17*%
%TO.N,unconnected-(J2-Pin_17-Pad17)*%
X84632800Y-103073200D03*
%TO.P,Esp32,18,Pin_18_18*%
%TO.N,unconnected-(J2-Pin_18-Pad18)*%
X87172800Y-103073200D03*
%TO.P,Esp32,19,Pin_19_19*%
%TO.N,/ENC A1*%
X89712800Y-103073200D03*
%TO.P,Esp32,20,Pin_20_20*%
%TO.N,/ENC A2*%
X92252800Y-103073200D03*
%TO.P,Esp32,21,Pin_21_21*%
%TO.N,/ENC B1*%
X94792800Y-103073200D03*
%TO.P,Esp32,22,Pin_22_22*%
%TO.N,/ENC B2*%
X97332800Y-103073200D03*
%TO.P,Esp32,23,Pin_23_23*%
%TO.N,/AIN 1*%
X99872800Y-103073200D03*
%TO.P,Esp32,24,Pin_24_24*%
%TO.N,/AIN 2*%
X102412800Y-103073200D03*
%TO.P,Esp32,25,Pin_25_25*%
%TO.N,/BIN 1*%
X104952800Y-103073200D03*
%TO.P,Esp32,26,Pin_26_26*%
%TO.N,/BIN 2*%
X107492800Y-103073200D03*
%TO.P,Esp32,27,Pin_27_27*%
%TO.N,unconnected-(J2-Pin_27-Pad27)*%
X110032800Y-103073200D03*
%TO.P,Esp32,28,Pin_28_28*%
%TO.N,/SW PIN*%
X112572800Y-103073200D03*
%TO.P,Esp32,29,Pin_29_29*%
%TO.N,/GND*%
X115112800Y-103073200D03*
%TO.P,Esp32,30,Pin_30_30*%
%TO.N,/BOOST +*%
X117652800Y-103073200D03*
%TD*%
D14*
%TO.P,Boost conv,1,Pin_1_1*%
%TO.N,/BAT +*%
X97891600Y-137566400D03*
D15*
%TO.P,Boost conv,2,Pin_2_2*%
%TO.N,/GND*%
X100431600Y-137566400D03*
%TO.P,Boost conv,3,Pin_3_3*%
X102971600Y-137566400D03*
%TO.P,Boost conv,4,Pin_4_4*%
%TO.N,/BOOST +*%
X105511600Y-137566400D03*
%TD*%
D10*
%TO.P,R7,1*%
%TO.N,/3V3*%
X78232000Y-72745600D03*
%TO.P,R7,2*%
%TO.N,/IR 1*%
X78232000Y-65125600D03*
%TD*%
D16*
%TO.P,D2,1,K_1*%
%TO.N,Net-(D1-K)*%
X81991200Y-38760400D03*
D17*
%TO.P,D2,2,A_2*%
%TO.N,Net-(D2-A)*%
X84531200Y-38760400D03*
%TD*%
D10*
%TO.P,C1,1*%
%TO.N,/BOOST +*%
X133000000Y-105350000D03*
%TO.P,C1,2*%
%TO.N,/GND*%
X133000000Y-107850000D03*
%TD*%
D18*
%TO.P,Battery,1,Pin_1_1*%
%TO.N,/BAT R+*%
X67136000Y-144881600D03*
D19*
%TO.P,Battery,2,Pin_2_2*%
%TO.N,/GND*%
X72136000Y-144881600D03*
%TD*%
D10*
%TO.P,C3,1*%
%TO.N,/BAT +*%
X114808000Y-116667600D03*
%TO.P,C3,2*%
%TO.N,/GND*%
X114808000Y-114167600D03*
%TD*%
%TO.P,R4,1*%
%TO.N,/BOOST +*%
X130048000Y-74523600D03*
%TO.P,R4,2*%
%TO.N,Net-(D4-A)*%
X130048000Y-66903600D03*
%TD*%
D12*
%TO.P,Motor B,1,Pin_1_1*%
%TO.N,/AOUT 1*%
X84836000Y-114650000D03*
D13*
%TO.P,Motor B,2,Pin_2_2*%
%TO.N,/BOOST +*%
X84836000Y-117190000D03*
%TO.P,Motor B,3,Pin_3_3*%
%TO.N,/ENC A1*%
X84836000Y-119730000D03*
%TO.P,Motor B,4,Pin_4_4*%
%TO.N,/ENC A2*%
X84836000Y-122270000D03*
%TO.P,Motor B,5,Pin_5_5*%
%TO.N,/GND*%
X84836000Y-124810000D03*
%TO.P,Motor B,6,Pin_6_6*%
%TO.N,/AOUT 2*%
X84836000Y-127350000D03*
%TD*%
D20*
%TO.P,Q1,1,C_1*%
%TO.N,/IR 1*%
X72879949Y-52697651D03*
D17*
%TO.P,Q1,2,E_2*%
%TO.N,/GND*%
X74676000Y-50901600D03*
%TD*%
D20*
%TO.P,D1,1,K_1*%
%TO.N,Net-(D1-K)*%
X66529949Y-59301651D03*
D17*
%TO.P,D1,2,A_2*%
%TO.N,Net-(D1-A)*%
X68326000Y-57505600D03*
%TD*%
D21*
%TO.P,D4,1,K_1*%
%TO.N,Net-(D1-K)*%
X130131549Y-51493149D03*
D17*
%TO.P,D4,2,A_2*%
%TO.N,Net-(D4-A)*%
X131927600Y-53289200D03*
%TD*%
D22*
%TO.P,Switch,*%
%TO.N,*%
X80000000Y-139500000D03*
X80000000Y-147700000D03*
D23*
%TO.P,Switch,1,Pin_1_1*%
%TO.N,/BAT R+*%
X80000000Y-141600000D03*
D24*
%TO.P,Switch,2,Pin_2_2*%
%TO.N,/BAT +*%
X80000000Y-143600000D03*
%TO.P,Switch,3*%
%TO.N,N/C*%
X80000000Y-145600000D03*
%TD*%
D16*
%TO.P,D3,1,K_1*%
%TO.N,Net-(D1-K)*%
X109931200Y-38760400D03*
D17*
%TO.P,D3,2,A_2*%
%TO.N,Net-(D3-A)*%
X112471200Y-38760400D03*
%TD*%
D16*
%TO.P,Q2,1,C_1*%
%TO.N,/IR 2*%
X92400200Y-38760400D03*
D17*
%TO.P,Q2,2,E_2*%
%TO.N,/GND*%
X94940200Y-38760400D03*
%TD*%
D10*
%TO.P,R5,1*%
%TO.N,/IR EM*%
X100076000Y-67919600D03*
%TO.P,R5,2*%
%TO.N,Net-(J15-Pin_1)*%
X107696000Y-67919600D03*
%TD*%
D21*
%TO.P,Q4,1,C_1*%
%TO.N,/IR 4*%
X136329149Y-57690749D03*
D17*
%TO.P,Q4,2,E_2*%
%TO.N,/GND*%
X138125200Y-59486800D03*
%TD*%
D15*
%TO.P,Tact Switch,1,Pin_1_1*%
%TO.N,/SW PIN*%
X133960800Y-137145200D03*
X140460800Y-137145200D03*
%TO.P,Tact Switch,2,Pin_2_2*%
%TO.N,/GND*%
X133960800Y-141645200D03*
X140460800Y-141645200D03*
%TD*%
D10*
%TO.P,R1,1*%
%TO.N,/BOOST +*%
X73152000Y-72745600D03*
%TO.P,R1,2*%
%TO.N,Net-(D1-A)*%
X73152000Y-65125600D03*
%TD*%
%TO.P,R9,1*%
%TO.N,/3V3*%
X121412000Y-56489600D03*
%TO.P,R9,2*%
%TO.N,/IR 3*%
X121412000Y-48869600D03*
%TD*%
D16*
%TO.P,Q3,1,C_1*%
%TO.N,/IR 3*%
X120345200Y-38760400D03*
D17*
%TO.P,Q3,2,E_2*%
%TO.N,/GND*%
X122885200Y-38760400D03*
%TD*%
D12*
%TO.P,Motor A,1,Pin_1_1*%
%TO.N,/BOUT 1*%
X119888000Y-114650000D03*
D13*
%TO.P,Motor A,2,Pin_2_2*%
%TO.N,/BOOST +*%
X119888000Y-117190000D03*
%TO.P,Motor A,3,Pin_3_3*%
%TO.N,/ENC B1*%
X119888000Y-119730000D03*
%TO.P,Motor A,4,Pin_4_4*%
%TO.N,/ENC B2*%
X119888000Y-122270000D03*
%TO.P,Motor A,5,Pin_5_5*%
%TO.N,/GND*%
X119888000Y-124810000D03*
%TO.P,Motor A,6,Pin_6_6*%
%TO.N,/BOUT 2*%
X119888000Y-127350000D03*
%TD*%
D10*
%TO.P,R6,1*%
%TO.N,/GND*%
X100076000Y-61061600D03*
%TO.P,R6,2*%
%TO.N,Net-(J15-Pin_1)*%
X107696000Y-61061600D03*
%TD*%
%TO.P,R10,1*%
%TO.N,/3V3*%
X135636000Y-74269600D03*
%TO.P,R10,2*%
%TO.N,/IR 4*%
X135636000Y-66649600D03*
%TD*%
D12*
%TO.P,J1,1,Pin_1_1*%
%TO.N,/3V3*%
X93218000Y-109321600D03*
D13*
%TO.P,J1,2,Pin_2_2*%
%TO.N,/AOUT 1*%
X93218000Y-111861600D03*
%TO.P,J1,3,Pin_3_3*%
%TO.N,/AOUT 2*%
X93218000Y-114401600D03*
%TO.P,J1,4,Pin_4_4*%
%TO.N,/BOUT 1*%
X93218000Y-116941600D03*
%TO.P,J1,5,Pin_5_5*%
%TO.N,/BOUT 2*%
X93218000Y-119481600D03*
%TO.P,J1,6,Pin_6_6*%
%TO.N,unconnected-(J1-Pin_6-Pad6)*%
X93218000Y-122021600D03*
%TD*%
D10*
%TO.P,R3,1*%
%TO.N,/BOOST +*%
X116332000Y-56743600D03*
%TO.P,R3,2*%
%TO.N,Net-(D3-A)*%
X116332000Y-49123600D03*
%TD*%
D25*
%TO.N,/BOOST +*%
X130505200Y-83261200D03*
X120446800Y-67919600D03*
X97891600Y-58572400D03*
X113919000Y-60985400D03*
X119430800Y-69240400D03*
%TO.N,/AIN 1*%
X104998984Y-107629522D03*
%TO.N,/AIN 2*%
X105054402Y-108427600D03*
%TO.N,/BIN 1*%
X105054400Y-109227606D03*
%TO.N,/BIN 2*%
X105081258Y-110027158D03*
%TO.N,/IR 2*%
X92659200Y-70104000D03*
%TO.N,/IR 4*%
X128168400Y-61214000D03*
%TO.N,/IR 3*%
X109778800Y-62585600D03*
%TO.N,/ENC A2*%
X91186000Y-113639600D03*
%TD*%
%TO.N,/BOOST +*%
D26*
X132950000Y-105400000D02*
X133000000Y-105350000D01*
X128016000Y-107380400D02*
X129996400Y-105400000D01*
X129996400Y-105400000D02*
X132950000Y-105400000D01*
X134772400Y-110845600D02*
X134823200Y-110896400D01*
X134772400Y-107372400D02*
X134772400Y-110845600D01*
X133000000Y-105600000D02*
X134772400Y-107372400D01*
X133096000Y-105446000D02*
X133000000Y-105350000D01*
X133000000Y-105350000D02*
X133000000Y-105600000D01*
%TO.N,/BAT +*%
D27*
X95033600Y-137566400D02*
X89000000Y-143600000D01*
X97891600Y-137566400D02*
X95033600Y-137566400D01*
X89000000Y-143600000D02*
X80000000Y-143600000D01*
%TO.N,/BOOST +*%
D28*
X119888000Y-117190000D02*
X122577600Y-117190000D01*
D29*
X76911200Y-79705200D02*
X73152000Y-75946000D01*
D28*
X126593600Y-137566400D02*
X105511600Y-137566400D01*
D29*
X119430800Y-69240400D02*
X119176800Y-69240400D01*
X130505200Y-83261200D02*
X126949200Y-79705200D01*
X126949200Y-79705200D02*
X76911200Y-79705200D01*
X73152000Y-75946000D02*
X73152000Y-72745600D01*
X119176800Y-69240400D02*
X108508800Y-58572400D01*
D26*
X128016000Y-107380400D02*
X121909200Y-107380400D01*
D28*
X134823200Y-129336800D02*
X126593600Y-137566400D01*
D29*
X113995200Y-61468000D02*
X120446800Y-67919600D01*
X108508800Y-58572400D02*
X97891600Y-58572400D01*
D26*
X121909200Y-107380400D02*
X117602000Y-103073200D01*
D30*
X113919000Y-60985400D02*
X113995200Y-61061600D01*
X113995200Y-61061600D02*
X113995200Y-61468000D01*
D28*
X124767600Y-115000000D02*
X134823200Y-115000000D01*
X122577600Y-117190000D02*
X124767600Y-115000000D01*
X134823200Y-110896400D02*
X134823200Y-129336800D01*
%TO.N,/GND*%
D30*
X114279000Y-77825600D02*
X114300000Y-77825600D01*
X114574000Y-114401600D02*
X114808000Y-114167600D01*
%TO.N,/AIN 1*%
X104998984Y-107629522D02*
X104997062Y-107627600D01*
X104579600Y-107645200D02*
X104394000Y-107645200D01*
X104597200Y-107627600D02*
X104579600Y-107645200D01*
X104394000Y-107645200D02*
X99822000Y-103073200D01*
X104997062Y-107627600D02*
X104597200Y-107627600D01*
%TO.N,/AIN 2*%
X105765600Y-107716402D02*
X105765600Y-106476800D01*
X105765600Y-106476800D02*
X102362000Y-103073200D01*
X105054402Y-108427600D02*
X105054405Y-108427603D01*
X105054402Y-108427600D02*
X105765600Y-107716402D01*
%TO.N,/BAT +*%
D27*
X97891600Y-135296400D02*
X102530400Y-130657600D01*
X111526000Y-116667600D02*
X111252000Y-116941600D01*
X114808000Y-123952000D02*
X114808000Y-116667600D01*
X114808000Y-116667600D02*
X111526000Y-116667600D01*
X97891600Y-137566400D02*
X97891600Y-135296400D01*
X108102400Y-130657600D02*
X114808000Y-123952000D01*
X102530400Y-130657600D02*
X108102400Y-130657600D01*
%TO.N,/BIN 1*%
D30*
X106527600Y-107802931D02*
X106527600Y-104698800D01*
X106527600Y-104698800D02*
X104902000Y-103073200D01*
X105054400Y-109227606D02*
X105102925Y-109227606D01*
X105102925Y-109227606D02*
X106527600Y-107802931D01*
%TO.N,/BIN 2*%
X105188500Y-110000300D02*
X107442000Y-107746800D01*
X107442000Y-107746800D02*
X107442000Y-103073200D01*
X105188500Y-110134400D02*
X105188500Y-110000300D01*
X105081258Y-110027158D02*
X105188500Y-110134400D01*
%TO.N,/IR 2*%
D31*
X91186000Y-49123600D02*
X92710000Y-49123600D01*
X92659200Y-70104000D02*
X90525600Y-67970400D01*
X90525600Y-49784000D02*
X91186000Y-49123600D01*
X90525600Y-67970400D02*
X90525600Y-49784000D01*
%TO.N,/IR 4*%
X128168400Y-61214000D02*
X127953135Y-61429265D01*
X127953135Y-61429265D02*
X127953135Y-61683265D01*
X127953135Y-61683265D02*
X113690400Y-75946000D01*
X109169200Y-75946000D02*
X107442000Y-77673200D01*
X113690400Y-75946000D02*
X109169200Y-75946000D01*
%TO.N,/IR 3*%
X91287600Y-76047600D02*
X89662000Y-77673200D01*
X109778800Y-62585600D02*
X109778800Y-68224400D01*
X109778800Y-68224400D02*
X101955600Y-76047600D01*
X101955600Y-76047600D02*
X91287600Y-76047600D01*
%TO.N,/IR 1*%
X82346800Y-65125600D02*
X78232000Y-65125600D01*
X87122000Y-76504800D02*
X87122000Y-77049604D01*
X87122000Y-69900800D02*
X87122000Y-76504800D01*
X82346800Y-65125600D02*
X87122000Y-69900800D01*
X87122000Y-76504800D02*
X87122000Y-77673200D01*
X87122000Y-77049604D02*
X86810202Y-77361402D01*
%TO.N,/ENC A2*%
D30*
X92202000Y-104140000D02*
X92202000Y-103073200D01*
X91592400Y-113233200D02*
X94691200Y-113233200D01*
X95859600Y-107797600D02*
X92202000Y-104140000D01*
X91186000Y-113639600D02*
X91592400Y-113233200D01*
X94691200Y-113233200D02*
X95859600Y-112064800D01*
X95859600Y-112064800D02*
X95859600Y-107797600D01*
%TO.N,/SW PIN*%
D31*
X133960800Y-133933000D02*
X133960800Y-137145200D01*
X136956800Y-130937000D02*
X133960800Y-133933000D01*
X136956800Y-107061000D02*
X136956800Y-130937000D01*
X112572800Y-103073200D02*
X114198400Y-101447600D01*
X131343400Y-101447600D02*
X136956800Y-107061000D01*
X114198400Y-101447600D02*
X131343400Y-101447600D01*
%TO.N,Net-(J15-Pin_1)*%
D30*
X107696000Y-67919600D02*
X107696000Y-61061600D01*
%TO.N,Net-(D4-A)*%
D29*
X131927600Y-65024000D02*
X130048000Y-66903600D01*
X131927600Y-53289200D02*
X131927600Y-65024000D01*
%TO.N,/BOUT 1*%
D28*
X119888000Y-114147600D02*
X120345200Y-114147600D01*
%TD*%
%TA.AperFunction,Conductor*%
%TO.N,/GND*%
G36*
X116931343Y-101842785D02*
G01*
X116977098Y-101895589D01*
X116987042Y-101964747D01*
X116958017Y-102028303D01*
X116937191Y-102047416D01*
X116838154Y-102119372D01*
X116838152Y-102119374D01*
X116838151Y-102119374D01*
X116698971Y-102258554D01*
X116631130Y-102351928D01*
X116575799Y-102394593D01*
X116506186Y-102400571D01*
X116444391Y-102367964D01*
X116420328Y-102335335D01*
X116395716Y-102287030D01*
X116335458Y-102204094D01*
X116335458Y-102204093D01*
X115603928Y-102935624D01*
X115588045Y-102876347D01*
X115520902Y-102760053D01*
X115425947Y-102665098D01*
X115309653Y-102597955D01*
X115250374Y-102582071D01*
X115973027Y-101859419D01*
X116034350Y-101825934D01*
X116060708Y-101823100D01*
X116864304Y-101823100D01*
X116931343Y-101842785D01*
G37*
%TD.AperFunction*%
%TA.AperFunction,Conductor*%
G36*
X103027757Y-29639096D02*
G01*
X104351322Y-29678512D01*
X104354979Y-29678676D01*
X105676768Y-29757473D01*
X105680427Y-29757746D01*
X106999320Y-29875857D01*
X107002964Y-29876238D01*
X108317766Y-30033559D01*
X108321352Y-30034043D01*
X109630908Y-30230434D01*
X109634493Y-30231027D01*
X110937599Y-30466310D01*
X110941196Y-30467015D01*
X112236711Y-30740982D01*
X112240224Y-30741779D01*
X113527057Y-31054199D01*
X113530631Y-31055124D01*
X114807481Y-31405682D01*
X114811026Y-31406712D01*
X115196327Y-31524936D01*
X116076929Y-31795137D01*
X116080389Y-31796255D01*
X117334243Y-32222218D01*
X117337646Y-32223431D01*
X118578173Y-32686495D01*
X118581606Y-32687834D01*
X119807827Y-33187632D01*
X119811197Y-33189065D01*
X120544636Y-33513792D01*
X121021987Y-33725137D01*
X121025336Y-33726680D01*
X122219622Y-34298552D01*
X122222842Y-34300153D01*
X123399649Y-34907360D01*
X123402902Y-34909101D01*
X124561027Y-35551023D01*
X124564214Y-35552852D01*
X125702715Y-36228962D01*
X125705861Y-36230894D01*
X126823767Y-36940616D01*
X126826806Y-36942610D01*
X127494394Y-37394873D01*
X127923088Y-37685295D01*
X127926113Y-37687411D01*
X128999766Y-38462374D01*
X129002727Y-38464579D01*
X130052839Y-39271163D01*
X130055733Y-39273455D01*
X131081379Y-40110946D01*
X131084203Y-40113323D01*
X132084459Y-40980969D01*
X132087211Y-40983429D01*
X133061192Y-41880463D01*
X133063870Y-41883004D01*
X134010714Y-42808629D01*
X134013315Y-42811248D01*
X134932203Y-43764666D01*
X134934725Y-43767362D01*
X135824833Y-44747720D01*
X135827230Y-44750439D01*
X136312602Y-45318097D01*
X136687767Y-45756865D01*
X136690124Y-45759706D01*
X137520306Y-46791284D01*
X137522577Y-46794194D01*
X138321675Y-47850015D01*
X138323857Y-47852990D01*
X138692897Y-48372002D01*
X139091173Y-48932132D01*
X139093267Y-48935172D01*
X139828114Y-50036668D01*
X139830117Y-50039769D01*
X140531865Y-51162677D01*
X140533774Y-51165836D01*
X140818318Y-51652832D01*
X141199488Y-52305204D01*
X141201768Y-52309105D01*
X141203575Y-52312307D01*
X141255206Y-52407038D01*
X141837258Y-53474986D01*
X141838976Y-53478253D01*
X142437762Y-54659266D01*
X142439382Y-54662583D01*
X143002738Y-55860882D01*
X143004259Y-55864246D01*
X143531705Y-57078802D01*
X143533125Y-57082210D01*
X144024175Y-58311911D01*
X144025492Y-58315357D01*
X144319120Y-59119374D01*
X144479734Y-59559168D01*
X144480948Y-59562654D01*
X144897941Y-60819371D01*
X144899052Y-60822892D01*
X145278468Y-62091519D01*
X145279473Y-62095071D01*
X145620958Y-63374435D01*
X145621856Y-63378015D01*
X145925096Y-64666931D01*
X145925888Y-64670537D01*
X146190632Y-65967935D01*
X146191316Y-65971563D01*
X146417320Y-67276262D01*
X146417896Y-67279908D01*
X146604964Y-68590762D01*
X146605431Y-68594424D01*
X146753394Y-69910254D01*
X146753752Y-69913928D01*
X146861081Y-71216582D01*
X146861500Y-71226764D01*
X146861500Y-141200201D01*
X146861460Y-141203342D01*
X146842969Y-141933005D01*
X146842651Y-141939280D01*
X146787345Y-142665529D01*
X146786709Y-142671779D01*
X146694694Y-143394267D01*
X146693743Y-143400477D01*
X146565248Y-144117404D01*
X146563983Y-144123558D01*
X146480659Y-144482626D01*
X146469607Y-144512333D01*
X143080433Y-150954007D01*
X143062705Y-150979398D01*
X142873229Y-151189119D01*
X142868900Y-151193672D01*
X142353908Y-151708664D01*
X142349355Y-151712993D01*
X141808903Y-152201274D01*
X141804136Y-152205366D01*
X141239659Y-152665636D01*
X141234691Y-152669481D01*
X140647645Y-153100557D01*
X140642488Y-153104146D01*
X140034339Y-153504950D01*
X140029008Y-153508274D01*
X139401345Y-153877757D01*
X139395852Y-153880806D01*
X138750263Y-154218034D01*
X138744622Y-154220800D01*
X138082828Y-154524876D01*
X138077055Y-154527354D01*
X137400668Y-154797536D01*
X137394776Y-154799718D01*
X136705595Y-155035287D01*
X136699601Y-155037168D01*
X135999344Y-155237537D01*
X135993262Y-155239111D01*
X135283795Y-155403747D01*
X135277641Y-155405012D01*
X134560713Y-155533507D01*
X134554503Y-155534458D01*
X133832015Y-155626473D01*
X133825765Y-155627109D01*
X133099516Y-155682415D01*
X133093241Y-155682733D01*
X132363578Y-155701224D01*
X132360437Y-155701264D01*
X72363564Y-155701264D01*
X72360423Y-155701224D01*
X72344771Y-155700827D01*
X71630759Y-155682732D01*
X71624485Y-155682414D01*
X70973712Y-155632855D01*
X70931463Y-155621937D01*
X62370639Y-151698225D01*
X62334623Y-151673182D01*
X61855106Y-151193665D01*
X61850777Y-151189112D01*
X61362497Y-150648659D01*
X61358405Y-150643892D01*
X60898135Y-150079416D01*
X60894290Y-150074448D01*
X60714659Y-149829824D01*
X60463206Y-149487391D01*
X60459621Y-149482241D01*
X60230136Y-149134039D01*
X60217027Y-149107864D01*
X58262138Y-143683736D01*
X65485500Y-143683736D01*
X65485500Y-146079463D01*
X65485501Y-146079482D01*
X65491908Y-146139081D01*
X65542202Y-146273927D01*
X65542203Y-146273928D01*
X65542204Y-146273930D01*
X65628454Y-146389146D01*
X65743670Y-146475396D01*
X65743671Y-146475396D01*
X65743672Y-146475397D01*
X65878518Y-146525691D01*
X65878517Y-146525691D01*
X65885445Y-146526435D01*
X65938128Y-146532100D01*
X65938137Y-146532100D01*
X68333863Y-146532100D01*
X68333872Y-146532100D01*
X68393482Y-146525691D01*
X68528330Y-146475396D01*
X68643546Y-146389146D01*
X68729796Y-146273930D01*
X68780091Y-146139082D01*
X68786500Y-146079472D01*
X68786500Y-144757066D01*
X70236000Y-144757066D01*
X70236000Y-145006133D01*
X70268508Y-145253063D01*
X70332973Y-145493649D01*
X70428283Y-145723748D01*
X70428288Y-145723759D01*
X70552813Y-145939441D01*
X70552819Y-145939449D01*
X70627400Y-146036645D01*
X71534958Y-145129087D01*
X71559978Y-145189490D01*
X71631112Y-145295951D01*
X71721649Y-145386488D01*
X71828110Y-145457622D01*
X71888511Y-145482641D01*
X70980953Y-146390198D01*
X71078150Y-146464780D01*
X71078158Y-146464786D01*
X71293840Y-146589311D01*
X71293851Y-146589316D01*
X71523950Y-146684626D01*
X71764536Y-146749091D01*
X72011466Y-146781600D01*
X72260534Y-146781600D01*
X72507463Y-146749091D01*
X72748049Y-146684626D01*
X72978148Y-146589316D01*
X72978159Y-146589311D01*
X73193855Y-146464778D01*
X73291045Y-146390200D01*
X73291045Y-146390197D01*
X72383488Y-145482641D01*
X72443890Y-145457622D01*
X72550351Y-145386488D01*
X72640888Y-145295951D01*
X72712022Y-145189490D01*
X72737041Y-145129089D01*
X73644597Y-146036645D01*
X73644600Y-146036645D01*
X73719178Y-145939455D01*
X73843711Y-145723759D01*
X73843716Y-145723748D01*
X73939026Y-145493649D01*
X74003491Y-145253063D01*
X74036000Y-145006133D01*
X74036000Y-144757066D01*
X74003491Y-144510136D01*
X73939026Y-144269550D01*
X73843716Y-144039451D01*
X73843711Y-144039440D01*
X73719186Y-143823758D01*
X73719180Y-143823750D01*
X73644598Y-143726553D01*
X72737041Y-144634110D01*
X72712022Y-144573710D01*
X72640888Y-144467249D01*
X72550351Y-144376712D01*
X72443890Y-144305578D01*
X72383487Y-144280557D01*
X73291045Y-143373000D01*
X73193849Y-143298419D01*
X73193841Y-143298413D01*
X72978159Y-143173888D01*
X72978148Y-143173883D01*
X72748049Y-143078573D01*
X72507463Y-143014108D01*
X72260534Y-142981600D01*
X72011466Y-142981600D01*
X71764536Y-143014108D01*
X71523950Y-143078573D01*
X71293851Y-143173883D01*
X71293847Y-143173885D01*
X71078143Y-143298423D01*
X70980953Y-143372999D01*
X70980953Y-143373000D01*
X71888511Y-144280558D01*
X71828110Y-144305578D01*
X71721649Y-144376712D01*
X71631112Y-144467249D01*
X71559978Y-144573710D01*
X71534958Y-144634111D01*
X70627400Y-143726553D01*
X70627399Y-143726553D01*
X70552823Y-143823743D01*
X70428285Y-144039447D01*
X70428283Y-144039451D01*
X70332973Y-144269550D01*
X70268508Y-144510136D01*
X70236000Y-144757066D01*
X68786500Y-144757066D01*
X68786500Y-143683728D01*
X68780091Y-143624118D01*
X68729796Y-143489270D01*
X68643546Y-143374054D01*
X68528330Y-143287804D01*
X68528328Y-143287803D01*
X68528327Y-143287802D01*
X68393481Y-143237508D01*
X68393482Y-143237508D01*
X68333882Y-143231101D01*
X68333880Y-143231100D01*
X68333872Y-143231100D01*
X65938128Y-143231100D01*
X65938120Y-143231100D01*
X65938117Y-143231101D01*
X65878518Y-143237508D01*
X65743672Y-143287802D01*
X65743670Y-143287804D01*
X65628454Y-143374054D01*
X65542204Y-143489270D01*
X65542202Y-143489272D01*
X65491908Y-143624118D01*
X65485501Y-143683717D01*
X65485500Y-143683736D01*
X58262138Y-143683736D01*
X57963707Y-142855694D01*
X57957356Y-142829317D01*
X57956534Y-142822865D01*
X57937291Y-142671777D01*
X57936656Y-142665528D01*
X57920071Y-142447740D01*
X57881348Y-141939269D01*
X57881031Y-141933003D01*
X57879117Y-141857492D01*
X57862540Y-141203341D01*
X57862500Y-141200200D01*
X57862500Y-139393713D01*
X77999500Y-139393713D01*
X77999500Y-139606286D01*
X78032753Y-139816239D01*
X78098444Y-140018414D01*
X78194951Y-140207820D01*
X78319890Y-140379786D01*
X78319896Y-140379792D01*
X78470208Y-140530104D01*
X78470209Y-140530105D01*
X78470208Y-140530105D01*
X78491987Y-140545927D01*
X78503183Y-140554062D01*
X78545850Y-140609390D01*
X78551831Y-140679004D01*
X78533404Y-140723270D01*
X78514033Y-140752261D01*
X78514032Y-140752264D01*
X78499500Y-140825321D01*
X78499500Y-142374678D01*
X78514032Y-142447735D01*
X78514033Y-142447739D01*
X78514034Y-142447740D01*
X78569399Y-142530601D01*
X78652260Y-142585966D01*
X78652264Y-142585967D01*
X78725321Y-142600499D01*
X78725324Y-142600500D01*
X78725326Y-142600500D01*
X78786608Y-142600500D01*
X78853647Y-142620185D01*
X78899402Y-142672989D01*
X78909346Y-142742147D01*
X78880321Y-142805703D01*
X78865275Y-142820352D01*
X78862212Y-142822865D01*
X78722863Y-142962214D01*
X78722860Y-142962218D01*
X78613371Y-143126079D01*
X78613364Y-143126092D01*
X78537950Y-143308160D01*
X78537947Y-143308170D01*
X78499500Y-143501456D01*
X78499500Y-143501459D01*
X78499500Y-143698541D01*
X78499500Y-143698543D01*
X78499499Y-143698543D01*
X78537947Y-143891829D01*
X78537950Y-143891839D01*
X78613364Y-144073907D01*
X78613371Y-144073920D01*
X78722860Y-144237781D01*
X78722863Y-144237785D01*
X78862214Y-144377136D01*
X78862218Y-144377139D01*
X79026079Y-144486628D01*
X79031456Y-144489502D01*
X79030490Y-144491308D01*
X79077612Y-144529285D01*
X79099673Y-144595580D01*
X79082391Y-144663279D01*
X79031251Y-144710887D01*
X79027660Y-144712526D01*
X79026079Y-144713371D01*
X78862218Y-144822860D01*
X78862214Y-144822863D01*
X78722863Y-144962214D01*
X78722860Y-144962218D01*
X78613371Y-145126079D01*
X78613364Y-145126092D01*
X78537950Y-145308160D01*
X78537947Y-145308170D01*
X78499500Y-145501456D01*
X78499500Y-145501459D01*
X78499500Y-145698541D01*
X78499500Y-145698543D01*
X78499499Y-145698543D01*
X78537947Y-145891829D01*
X78537950Y-145891839D01*
X78613364Y-146073907D01*
X78613371Y-146073920D01*
X78722860Y-146237781D01*
X78722863Y-146237785D01*
X78778431Y-146293353D01*
X78811916Y-146354676D01*
X78806932Y-146424368D01*
X78765060Y-146480301D01*
X78747045Y-146491518D01*
X78642185Y-146544947D01*
X78642184Y-146544948D01*
X78470213Y-146669890D01*
X78319890Y-146820213D01*
X78194951Y-146992179D01*
X78098444Y-147181585D01*
X78032753Y-147383760D01*
X78000523Y-147587254D01*
X77999500Y-147593713D01*
X77999500Y-147806287D01*
X78032754Y-148016243D01*
X78083708Y-148173064D01*
X78098444Y-148218414D01*
X78194951Y-148407820D01*
X78319890Y-148579786D01*
X78470213Y-148730109D01*
X78642179Y-148855048D01*
X78642181Y-148855049D01*
X78642184Y-148855051D01*
X78831588Y-148951557D01*
X79033757Y-149017246D01*
X79243713Y-149050500D01*
X79243714Y-149050500D01*
X80756286Y-149050500D01*
X80756287Y-149050500D01*
X80966243Y-149017246D01*
X81168412Y-148951557D01*
X81357816Y-148855051D01*
X81379789Y-148839086D01*
X81529786Y-148730109D01*
X81529788Y-148730106D01*
X81529792Y-148730104D01*
X81680104Y-148579792D01*
X81680106Y-148579788D01*
X81680109Y-148579786D01*
X81805048Y-148407820D01*
X81805047Y-148407820D01*
X81805051Y-148407816D01*
X81901557Y-148218412D01*
X81967246Y-148016243D01*
X82000500Y-147806287D01*
X82000500Y-147593713D01*
X81967246Y-147383757D01*
X81901557Y-147181588D01*
X81805051Y-146992184D01*
X81805049Y-146992181D01*
X81805048Y-146992179D01*
X81680109Y-146820213D01*
X81529786Y-146669890D01*
X81357819Y-146544951D01*
X81357818Y-146544950D01*
X81357816Y-146544949D01*
X81252954Y-146491519D01*
X81202158Y-146443544D01*
X81185363Y-146375723D01*
X81207901Y-146309588D01*
X81221562Y-146293358D01*
X81277139Y-146237782D01*
X81386632Y-146073914D01*
X81462051Y-145891835D01*
X81500500Y-145698541D01*
X81500500Y-145501459D01*
X81500500Y-145501456D01*
X81462052Y-145308170D01*
X81462051Y-145308169D01*
X81462051Y-145308165D01*
X81412895Y-145189490D01*
X81386635Y-145126092D01*
X81386628Y-145126079D01*
X81277139Y-144962218D01*
X81277136Y-144962214D01*
X81137785Y-144822863D01*
X81137781Y-144822860D01*
X80973920Y-144713371D01*
X80968544Y-144710498D01*
X80969510Y-144708689D01*
X80922397Y-144670728D01*
X80900326Y-144604436D01*
X80917600Y-144536735D01*
X80955995Y-144496474D01*
X80965869Y-144489964D01*
X80973914Y-144486632D01*
X81137782Y-144377139D01*
X81139282Y-144375638D01*
X81146358Y-144370974D01*
X81173821Y-144362560D01*
X81200255Y-144351334D01*
X81212857Y-144350601D01*
X81213164Y-144350508D01*
X81213388Y-144350570D01*
X81214610Y-144350500D01*
X89073920Y-144350500D01*
X89171462Y-144331096D01*
X89218913Y-144321658D01*
X89355495Y-144265084D01*
X89414735Y-144225501D01*
X89478416Y-144182952D01*
X92134221Y-141527147D01*
X132460800Y-141527147D01*
X132460800Y-141763252D01*
X132497734Y-141996447D01*
X132570697Y-142221002D01*
X132677887Y-142431374D01*
X132738138Y-142514304D01*
X132738140Y-142514305D01*
X133437012Y-141815433D01*
X133448282Y-141857492D01*
X133520690Y-141982908D01*
X133623092Y-142085310D01*
X133748508Y-142157718D01*
X133790565Y-142168987D01*
X133091693Y-142867858D01*
X133174628Y-142928114D01*
X133384997Y-143035302D01*
X133609552Y-143108265D01*
X133609551Y-143108265D01*
X133842748Y-143145200D01*
X134078852Y-143145200D01*
X134312047Y-143108265D01*
X134536602Y-143035302D01*
X134746963Y-142928118D01*
X134746969Y-142928114D01*
X134829904Y-142867858D01*
X134829905Y-142867858D01*
X134131033Y-142168987D01*
X134173092Y-142157718D01*
X134298508Y-142085310D01*
X134400910Y-141982908D01*
X134473318Y-141857492D01*
X134484587Y-141815434D01*
X135183458Y-142514305D01*
X135183458Y-142514304D01*
X135243714Y-142431369D01*
X135243718Y-142431363D01*
X135350902Y-142221002D01*
X135423865Y-141996447D01*
X135460800Y-141763252D01*
X135460800Y-141527147D01*
X138960800Y-141527147D01*
X138960800Y-141763252D01*
X138997734Y-141996447D01*
X139070697Y-142221002D01*
X139177887Y-142431374D01*
X139238138Y-142514304D01*
X139238140Y-142514305D01*
X139937012Y-141815433D01*
X139948282Y-141857492D01*
X140020690Y-141982908D01*
X140123092Y-142085310D01*
X140248508Y-142157718D01*
X140290565Y-142168987D01*
X139591693Y-142867858D01*
X139674628Y-142928114D01*
X139884997Y-143035302D01*
X140109552Y-143108265D01*
X140109551Y-143108265D01*
X140342748Y-143145200D01*
X140578852Y-143145200D01*
X140812047Y-143108265D01*
X141036602Y-143035302D01*
X141246963Y-142928118D01*
X141246969Y-142928114D01*
X141329904Y-142867858D01*
X141329905Y-142867858D01*
X140631033Y-142168987D01*
X140673092Y-142157718D01*
X140798508Y-142085310D01*
X140900910Y-141982908D01*
X140973318Y-141857492D01*
X140984587Y-141815434D01*
X141683458Y-142514305D01*
X141683458Y-142514304D01*
X141743714Y-142431369D01*
X141743718Y-142431363D01*
X141850902Y-142221002D01*
X141923865Y-141996447D01*
X141960800Y-141763252D01*
X141960800Y-141527147D01*
X141923865Y-141293952D01*
X141850902Y-141069397D01*
X141743714Y-140859028D01*
X141683458Y-140776094D01*
X141683458Y-140776093D01*
X140984587Y-141474965D01*
X140973318Y-141432908D01*
X140900910Y-141307492D01*
X140798508Y-141205090D01*
X140673092Y-141132682D01*
X140631034Y-141121412D01*
X141329905Y-140422540D01*
X141329904Y-140422538D01*
X141246974Y-140362287D01*
X141036602Y-140255097D01*
X140812047Y-140182134D01*
X140812048Y-140182134D01*
X140578852Y-140145200D01*
X140342748Y-140145200D01*
X140109552Y-140182134D01*
X139884997Y-140255097D01*
X139674630Y-140362284D01*
X139591694Y-140422540D01*
X140290566Y-141121412D01*
X140248508Y-141132682D01*
X140123092Y-141205090D01*
X140020690Y-141307492D01*
X139948282Y-141432908D01*
X139937012Y-141474965D01*
X139238140Y-140776094D01*
X139177884Y-140859030D01*
X139070697Y-141069397D01*
X138997734Y-141293952D01*
X138960800Y-141527147D01*
X135460800Y-141527147D01*
X135423865Y-141293952D01*
X135350902Y-141069397D01*
X135243714Y-140859028D01*
X135183458Y-140776094D01*
X135183458Y-140776093D01*
X134484587Y-141474965D01*
X134473318Y-141432908D01*
X134400910Y-141307492D01*
X134298508Y-141205090D01*
X134173092Y-141132682D01*
X134131034Y-141121412D01*
X134829905Y-140422540D01*
X134829904Y-140422539D01*
X134746974Y-140362287D01*
X134536602Y-140255097D01*
X134312047Y-140182134D01*
X134312048Y-140182134D01*
X134078852Y-140145200D01*
X133842748Y-140145200D01*
X133609552Y-140182134D01*
X133384997Y-140255097D01*
X133174630Y-140362284D01*
X133091694Y-140422540D01*
X133790566Y-141121412D01*
X133748508Y-141132682D01*
X133623092Y-141205090D01*
X133520690Y-141307492D01*
X133448282Y-141432908D01*
X133437012Y-141474966D01*
X132738140Y-140776094D01*
X132677884Y-140859030D01*
X132570697Y-141069397D01*
X132497734Y-141293952D01*
X132460800Y-141527147D01*
X92134221Y-141527147D01*
X95308149Y-138353219D01*
X95369472Y-138319734D01*
X95395830Y-138316900D01*
X96517100Y-138316900D01*
X96584139Y-138336585D01*
X96629894Y-138389389D01*
X96641100Y-138440900D01*
X96641100Y-138591078D01*
X96655632Y-138664135D01*
X96655633Y-138664139D01*
X96655634Y-138664140D01*
X96710999Y-138747001D01*
X96793860Y-138802366D01*
X96793864Y-138802367D01*
X96866921Y-138816899D01*
X96866924Y-138816900D01*
X96866926Y-138816900D01*
X98916276Y-138816900D01*
X98916277Y-138816899D01*
X98989340Y-138802366D01*
X99072201Y-138747001D01*
X99127566Y-138664140D01*
X99142100Y-138591074D01*
X99142100Y-138540257D01*
X99144984Y-138527120D01*
X99155579Y-138507803D01*
X99161785Y-138486669D01*
X99178419Y-138466027D01*
X99940471Y-137703974D01*
X99956355Y-137763253D01*
X100023498Y-137879547D01*
X100118453Y-137974502D01*
X100234747Y-138041645D01*
X100294025Y-138057528D01*
X99562493Y-138789058D01*
X99645428Y-138849314D01*
X99855797Y-138956502D01*
X100080352Y-139029465D01*
X100080351Y-139029465D01*
X100313548Y-139066400D01*
X100549652Y-139066400D01*
X100782847Y-139029465D01*
X101007402Y-138956502D01*
X101217763Y-138849318D01*
X101217769Y-138849314D01*
X101300704Y-138789058D01*
X101300705Y-138789058D01*
X100569174Y-138057528D01*
X100628453Y-138041645D01*
X100744747Y-137974502D01*
X100839702Y-137879547D01*
X100906845Y-137763253D01*
X100922728Y-137703975D01*
X101654257Y-138435504D01*
X101691875Y-138432544D01*
X101711335Y-138432544D01*
X101748940Y-138435504D01*
X102480471Y-137703974D01*
X102496355Y-137763253D01*
X102563498Y-137879547D01*
X102658453Y-137974502D01*
X102774747Y-138041645D01*
X102834025Y-138057528D01*
X102102493Y-138789058D01*
X102185428Y-138849314D01*
X102395797Y-138956502D01*
X102620352Y-139029465D01*
X102620351Y-139029465D01*
X102853548Y-139066400D01*
X103089652Y-139066400D01*
X103322847Y-139029465D01*
X103547402Y-138956502D01*
X103757763Y-138849318D01*
X103757769Y-138849314D01*
X103840704Y-138789058D01*
X103840705Y-138789058D01*
X103109174Y-138057528D01*
X103168453Y-138041645D01*
X103284747Y-137974502D01*
X103379702Y-137879547D01*
X103446845Y-137763253D01*
X103462728Y-137703975D01*
X104194258Y-138435505D01*
X104194258Y-138435504D01*
X104254514Y-138352569D01*
X104254518Y-138352564D01*
X104279127Y-138304265D01*
X104327101Y-138253468D01*
X104394922Y-138236672D01*
X104461057Y-138259208D01*
X104489930Y-138287672D01*
X104537082Y-138352569D01*
X104557772Y-138381046D01*
X104696954Y-138520228D01*
X104856195Y-138635924D01*
X104939055Y-138678143D01*
X105031570Y-138725282D01*
X105031572Y-138725282D01*
X105031575Y-138725284D01*
X105098410Y-138747000D01*
X105218773Y-138786109D01*
X105413178Y-138816900D01*
X105413183Y-138816900D01*
X105610022Y-138816900D01*
X105804426Y-138786109D01*
X105991625Y-138725284D01*
X106167005Y-138635924D01*
X106326246Y-138520228D01*
X106393255Y-138453219D01*
X106454578Y-138419734D01*
X106480936Y-138416900D01*
X126677368Y-138416900D01*
X126677369Y-138416899D01*
X126841682Y-138384216D01*
X126888293Y-138364909D01*
X126996463Y-138320104D01*
X127135762Y-138227027D01*
X133233488Y-132129299D01*
X133294809Y-132095816D01*
X133364501Y-132100800D01*
X133420434Y-132142672D01*
X133440942Y-132184888D01*
X133443947Y-132196104D01*
X133536773Y-132420205D01*
X133536776Y-132420212D01*
X133658064Y-132630289D01*
X133658066Y-132630292D01*
X133658067Y-132630293D01*
X133805733Y-132822736D01*
X133805739Y-132822743D01*
X133977256Y-132994260D01*
X133977263Y-132994266D01*
X134086457Y-133078053D01*
X134127660Y-133134480D01*
X134131815Y-133204227D01*
X134098652Y-133264110D01*
X133730238Y-133632525D01*
X133660326Y-133702436D01*
X133610891Y-133788059D01*
X133610891Y-133788060D01*
X133610890Y-133788062D01*
X133585300Y-133883565D01*
X133585300Y-133883567D01*
X133585300Y-135862262D01*
X133565615Y-135929301D01*
X133512811Y-135975056D01*
X133499622Y-135980192D01*
X133480771Y-135986317D01*
X133305394Y-136075676D01*
X133267327Y-136103334D01*
X133146154Y-136191372D01*
X133146152Y-136191374D01*
X133146151Y-136191374D01*
X133006974Y-136330551D01*
X133006974Y-136330552D01*
X133006972Y-136330554D01*
X132995248Y-136346691D01*
X132891276Y-136489794D01*
X132801917Y-136665170D01*
X132741090Y-136852373D01*
X132710300Y-137046777D01*
X132710300Y-137243622D01*
X132741090Y-137438026D01*
X132801917Y-137625229D01*
X132872244Y-137763253D01*
X132891276Y-137800605D01*
X133006972Y-137959846D01*
X133146154Y-138099028D01*
X133305395Y-138214724D01*
X133348471Y-138236672D01*
X133480770Y-138304082D01*
X133480772Y-138304082D01*
X133480775Y-138304084D01*
X133580802Y-138336585D01*
X133667973Y-138364909D01*
X133862378Y-138395700D01*
X133862383Y-138395700D01*
X134059222Y-138395700D01*
X134253626Y-138364909D01*
X134253632Y-138364907D01*
X134440825Y-138304084D01*
X134616205Y-138214724D01*
X134775446Y-138099028D01*
X134914628Y-137959846D01*
X135030324Y-137800605D01*
X135119684Y-137625225D01*
X135180509Y-137438026D01*
X135191355Y-137369547D01*
X135211300Y-137243622D01*
X135211300Y-137046777D01*
X139210300Y-137046777D01*
X139210300Y-137243622D01*
X139241090Y-137438026D01*
X139301917Y-137625229D01*
X139372244Y-137763253D01*
X139391276Y-137800605D01*
X139506972Y-137959846D01*
X139646154Y-138099028D01*
X139805395Y-138214724D01*
X139848471Y-138236672D01*
X139980770Y-138304082D01*
X139980772Y-138304082D01*
X139980775Y-138304084D01*
X140080802Y-138336585D01*
X140167973Y-138364909D01*
X140362378Y-138395700D01*
X140362383Y-138395700D01*
X140559222Y-138395700D01*
X140753626Y-138364909D01*
X140753632Y-138364907D01*
X140940825Y-138304084D01*
X141116205Y-138214724D01*
X141275446Y-138099028D01*
X141414628Y-137959846D01*
X141530324Y-137800605D01*
X141619684Y-137625225D01*
X141680509Y-137438026D01*
X141691355Y-137369547D01*
X141711300Y-137243622D01*
X141711300Y-137046777D01*
X141680509Y-136852373D01*
X141647815Y-136751754D01*
X141619684Y-136665175D01*
X141619682Y-136665172D01*
X141619682Y-136665170D01*
X141556781Y-136541721D01*
X141530324Y-136489795D01*
X141414628Y-136330554D01*
X141275446Y-136191372D01*
X141116205Y-136075676D01*
X141098000Y-136066400D01*
X140940829Y-135986317D01*
X140753626Y-135925490D01*
X140559222Y-135894700D01*
X140559217Y-135894700D01*
X140362383Y-135894700D01*
X140362378Y-135894700D01*
X140167973Y-135925490D01*
X139980770Y-135986317D01*
X139805394Y-136075676D01*
X139767327Y-136103334D01*
X139646154Y-136191372D01*
X139646152Y-136191374D01*
X139646151Y-136191374D01*
X139506974Y-136330551D01*
X139506974Y-136330552D01*
X139506972Y-136330554D01*
X139495248Y-136346691D01*
X139391276Y-136489794D01*
X139301917Y-136665170D01*
X139241090Y-136852373D01*
X139210300Y-137046777D01*
X135211300Y-137046777D01*
X135180509Y-136852373D01*
X135147815Y-136751754D01*
X135119684Y-136665175D01*
X135119682Y-136665172D01*
X135119682Y-136665170D01*
X135056781Y-136541721D01*
X135030324Y-136489795D01*
X134914628Y-136330554D01*
X134775446Y-136191372D01*
X134616205Y-136075676D01*
X134598000Y-136066400D01*
X134440828Y-135986317D01*
X134421978Y-135980192D01*
X134364304Y-135940752D01*
X134337108Y-135876393D01*
X134336300Y-135862262D01*
X134336300Y-134139898D01*
X134355985Y-134072859D01*
X134372615Y-134052221D01*
X134943241Y-133481594D01*
X135004562Y-133448111D01*
X135047101Y-133446338D01*
X135078712Y-133450500D01*
X135078719Y-133450500D01*
X135321289Y-133450500D01*
X135369388Y-133444167D01*
X135561789Y-133418838D01*
X135796100Y-133356054D01*
X136020212Y-133263224D01*
X136230289Y-133141936D01*
X136422738Y-132994265D01*
X136594265Y-132822738D01*
X136741936Y-132630289D01*
X136863224Y-132420212D01*
X136956054Y-132196100D01*
X137018838Y-131961789D01*
X137050500Y-131721288D01*
X137050500Y-131478712D01*
X137046339Y-131447107D01*
X137057104Y-131378072D01*
X137081597Y-131343240D01*
X137137928Y-131286909D01*
X137257275Y-131167563D01*
X137281992Y-131124750D01*
X137306710Y-131081938D01*
X137319505Y-131034186D01*
X137332300Y-130986436D01*
X137332300Y-130887564D01*
X137332300Y-107011565D01*
X137306710Y-106916062D01*
X137257275Y-106830438D01*
X137187362Y-106760525D01*
X131573963Y-101147126D01*
X131573962Y-101147125D01*
X131488338Y-101097690D01*
X131440586Y-101084895D01*
X131440584Y-101084894D01*
X131440582Y-101084893D01*
X131392836Y-101072100D01*
X131392835Y-101072100D01*
X114247836Y-101072100D01*
X114148964Y-101072100D01*
X114053461Y-101097689D01*
X113967838Y-101147125D01*
X113967835Y-101147127D01*
X113214454Y-101900507D01*
X113153131Y-101933992D01*
X113083439Y-101929008D01*
X113070484Y-101923314D01*
X113052825Y-101914316D01*
X113010326Y-101900507D01*
X112865626Y-101853490D01*
X112671222Y-101822700D01*
X112671217Y-101822700D01*
X112474383Y-101822700D01*
X112474378Y-101822700D01*
X112279973Y-101853490D01*
X112092770Y-101914317D01*
X111917394Y-102003676D01*
X111826541Y-102069685D01*
X111758154Y-102119372D01*
X111758152Y-102119374D01*
X111758151Y-102119374D01*
X111618974Y-102258551D01*
X111618974Y-102258552D01*
X111618972Y-102258554D01*
X111598283Y-102287030D01*
X111503276Y-102417794D01*
X111413285Y-102594413D01*
X111365311Y-102645209D01*
X111297490Y-102662004D01*
X111231355Y-102639467D01*
X111192315Y-102594413D01*
X111102323Y-102417794D01*
X111089810Y-102400571D01*
X110986628Y-102258554D01*
X110847446Y-102119372D01*
X110688205Y-102003676D01*
X110665462Y-101992088D01*
X110512829Y-101914317D01*
X110325626Y-101853490D01*
X110131222Y-101822700D01*
X110131217Y-101822700D01*
X109934383Y-101822700D01*
X109934378Y-101822700D01*
X109739973Y-101853490D01*
X109552770Y-101914317D01*
X109377394Y-102003676D01*
X109286541Y-102069685D01*
X109218154Y-102119372D01*
X109218152Y-102119374D01*
X109218151Y-102119374D01*
X109078974Y-102258551D01*
X109078974Y-102258552D01*
X109078972Y-102258554D01*
X109058283Y-102287030D01*
X108963276Y-102417794D01*
X108873285Y-102594413D01*
X108825311Y-102645209D01*
X108757490Y-102662004D01*
X108691355Y-102639467D01*
X108652315Y-102594413D01*
X108562323Y-102417794D01*
X108549810Y-102400571D01*
X108446628Y-102258554D01*
X108307446Y-102119372D01*
X108148205Y-102003676D01*
X108125462Y-101992088D01*
X107972829Y-101914317D01*
X107785626Y-101853490D01*
X107591222Y-101822700D01*
X107591217Y-101822700D01*
X107394383Y-101822700D01*
X107394378Y-101822700D01*
X107199973Y-101853490D01*
X107012770Y-101914317D01*
X106837394Y-102003676D01*
X106746541Y-102069685D01*
X106678154Y-102119372D01*
X106678152Y-102119374D01*
X106678151Y-102119374D01*
X106538974Y-102258551D01*
X106538974Y-102258552D01*
X106538972Y-102258554D01*
X106518283Y-102287030D01*
X106423276Y-102417794D01*
X106333285Y-102594413D01*
X106285311Y-102645209D01*
X106217490Y-102662004D01*
X106151355Y-102639467D01*
X106112315Y-102594413D01*
X106022323Y-102417794D01*
X106009810Y-102400571D01*
X105906628Y-102258554D01*
X105767446Y-102119372D01*
X105608205Y-102003676D01*
X105585462Y-101992088D01*
X105432829Y-101914317D01*
X105245626Y-101853490D01*
X105051222Y-101822700D01*
X105051217Y-101822700D01*
X104854383Y-101822700D01*
X104854378Y-101822700D01*
X104659973Y-101853490D01*
X104472770Y-101914317D01*
X104297394Y-102003676D01*
X104206541Y-102069685D01*
X104138154Y-102119372D01*
X104138152Y-102119374D01*
X104138151Y-102119374D01*
X103998974Y-102258551D01*
X103998974Y-102258552D01*
X103998972Y-102258554D01*
X103978283Y-102287030D01*
X103883276Y-102417794D01*
X103793285Y-102594413D01*
X103745311Y-102645209D01*
X103677490Y-102662004D01*
X103611355Y-102639467D01*
X103572315Y-102594413D01*
X103482323Y-102417794D01*
X103469810Y-102400571D01*
X103366628Y-102258554D01*
X103227446Y-102119372D01*
X103068205Y-102003676D01*
X103045462Y-101992088D01*
X102892829Y-101914317D01*
X102705626Y-101853490D01*
X102511222Y-101822700D01*
X102511217Y-101822700D01*
X102314383Y-101822700D01*
X102314378Y-101822700D01*
X102119973Y-101853490D01*
X101932770Y-101914317D01*
X101757394Y-102003676D01*
X101666541Y-102069685D01*
X101598154Y-102119372D01*
X101598152Y-102119374D01*
X101598151Y-102119374D01*
X101458974Y-102258551D01*
X101458974Y-102258552D01*
X101458972Y-102258554D01*
X101438283Y-102287030D01*
X101343276Y-102417794D01*
X101253285Y-102594413D01*
X101205311Y-102645209D01*
X101137490Y-102662004D01*
X101071355Y-102639467D01*
X101032315Y-102594413D01*
X100942323Y-102417794D01*
X100929810Y-102400571D01*
X100826628Y-102258554D01*
X100687446Y-102119372D01*
X100528205Y-102003676D01*
X100505462Y-101992088D01*
X100352829Y-101914317D01*
X100165626Y-101853490D01*
X99971222Y-101822700D01*
X99971217Y-101822700D01*
X99774383Y-101822700D01*
X99774378Y-101822700D01*
X99579973Y-101853490D01*
X99392770Y-101914317D01*
X99217394Y-102003676D01*
X99126541Y-102069685D01*
X99058154Y-102119372D01*
X99058152Y-102119374D01*
X99058151Y-102119374D01*
X98918974Y-102258551D01*
X98918974Y-102258552D01*
X98918972Y-102258554D01*
X98898283Y-102287030D01*
X98803276Y-102417794D01*
X98713285Y-102594413D01*
X98665311Y-102645209D01*
X98597490Y-102662004D01*
X98531355Y-102639467D01*
X98492315Y-102594413D01*
X98402323Y-102417794D01*
X98389810Y-102400571D01*
X98286628Y-102258554D01*
X98147446Y-102119372D01*
X97988205Y-102003676D01*
X97965462Y-101992088D01*
X97812829Y-101914317D01*
X97625626Y-101853490D01*
X97431222Y-101822700D01*
X97431217Y-101822700D01*
X97234383Y-101822700D01*
X97234378Y-101822700D01*
X97039973Y-101853490D01*
X96852770Y-101914317D01*
X96677394Y-102003676D01*
X96586541Y-102069685D01*
X96518154Y-102119372D01*
X96518152Y-102119374D01*
X96518151Y-102119374D01*
X96378974Y-102258551D01*
X96378974Y-102258552D01*
X96378972Y-102258554D01*
X96358283Y-102287030D01*
X96263276Y-102417794D01*
X96173285Y-102594413D01*
X96125311Y-102645209D01*
X96057490Y-102662004D01*
X95991355Y-102639467D01*
X95952315Y-102594413D01*
X95862323Y-102417794D01*
X95849810Y-102400571D01*
X95746628Y-102258554D01*
X95607446Y-102119372D01*
X95448205Y-102003676D01*
X95425462Y-101992088D01*
X95272829Y-101914317D01*
X95085626Y-101853490D01*
X94891222Y-101822700D01*
X94891217Y-101822700D01*
X94694383Y-101822700D01*
X94694378Y-101822700D01*
X94499973Y-101853490D01*
X94312770Y-101914317D01*
X94137394Y-102003676D01*
X94046541Y-102069685D01*
X93978154Y-102119372D01*
X93978152Y-102119374D01*
X93978151Y-102119374D01*
X93838974Y-102258551D01*
X93838974Y-102258552D01*
X93838972Y-102258554D01*
X93818283Y-102287030D01*
X93723276Y-102417794D01*
X93633285Y-102594413D01*
X93585311Y-102645209D01*
X93517490Y-102662004D01*
X93451355Y-102639467D01*
X93412315Y-102594413D01*
X93322323Y-102417794D01*
X93309810Y-102400571D01*
X93206628Y-102258554D01*
X93067446Y-102119372D01*
X92908205Y-102003676D01*
X92885462Y-101992088D01*
X92732829Y-101914317D01*
X92545626Y-101853490D01*
X92351222Y-101822700D01*
X92351217Y-101822700D01*
X92154383Y-101822700D01*
X92154378Y-101822700D01*
X91959973Y-101853490D01*
X91772770Y-101914317D01*
X91597394Y-102003676D01*
X91506541Y-102069685D01*
X91438154Y-102119372D01*
X91438152Y-102119374D01*
X91438151Y-102119374D01*
X91298974Y-102258551D01*
X91298974Y-102258552D01*
X91298972Y-102258554D01*
X91278283Y-102287030D01*
X91183276Y-102417794D01*
X91093285Y-102594413D01*
X91045311Y-102645209D01*
X90977490Y-102662004D01*
X90911355Y-102639467D01*
X90872315Y-102594413D01*
X90782323Y-102417794D01*
X90769810Y-102400571D01*
X90666628Y-102258554D01*
X90527446Y-102119372D01*
X90368205Y-102003676D01*
X90345462Y-101992088D01*
X90192829Y-101914317D01*
X90005626Y-101853490D01*
X89811222Y-101822700D01*
X89811217Y-101822700D01*
X89614383Y-101822700D01*
X89614378Y-101822700D01*
X89419973Y-101853490D01*
X89232770Y-101914317D01*
X89057394Y-102003676D01*
X88966541Y-102069685D01*
X88898154Y-102119372D01*
X88898152Y-102119374D01*
X88898151Y-102119374D01*
X88758974Y-102258551D01*
X88758974Y-102258552D01*
X88758972Y-102258554D01*
X88738283Y-102287030D01*
X88643276Y-102417794D01*
X88553285Y-102594413D01*
X88505311Y-102645209D01*
X88437490Y-102662004D01*
X88371355Y-102639467D01*
X88332315Y-102594413D01*
X88242323Y-102417794D01*
X88229810Y-102400571D01*
X88126628Y-102258554D01*
X87987446Y-102119372D01*
X87828205Y-102003676D01*
X87805462Y-101992088D01*
X87652829Y-101914317D01*
X87465626Y-101853490D01*
X87271222Y-101822700D01*
X87271217Y-101822700D01*
X87074383Y-101822700D01*
X87074378Y-101822700D01*
X86879973Y-101853490D01*
X86692770Y-101914317D01*
X86517394Y-102003676D01*
X86426541Y-102069685D01*
X86358154Y-102119372D01*
X86358152Y-102119374D01*
X86358151Y-102119374D01*
X86218974Y-102258551D01*
X86218974Y-102258552D01*
X86218972Y-102258554D01*
X86198283Y-102287030D01*
X86103276Y-102417794D01*
X86013285Y-102594413D01*
X85965311Y-102645209D01*
X85897490Y-102662004D01*
X85831355Y-102639467D01*
X85792315Y-102594413D01*
X85702323Y-102417794D01*
X85689810Y-102400571D01*
X85586628Y-102258554D01*
X85447446Y-102119372D01*
X85288205Y-102003676D01*
X85265462Y-101992088D01*
X85112829Y-101914317D01*
X84925626Y-101853490D01*
X84731222Y-101822700D01*
X84731217Y-101822700D01*
X84534383Y-101822700D01*
X84534378Y-101822700D01*
X84339973Y-101853490D01*
X84152770Y-101914317D01*
X83977394Y-102003676D01*
X83886541Y-102069685D01*
X83818154Y-102119372D01*
X83818152Y-102119374D01*
X83818151Y-102119374D01*
X83678974Y-102258551D01*
X83678974Y-102258552D01*
X83678972Y-102258554D01*
X83658283Y-102287030D01*
X83563276Y-102417794D01*
X83473285Y-102594413D01*
X83425311Y-102645209D01*
X83357490Y-102662004D01*
X83291355Y-102639467D01*
X83252315Y-102594413D01*
X83162323Y-102417794D01*
X83149810Y-102400571D01*
X83046628Y-102258554D01*
X82907446Y-102119372D01*
X82748205Y-102003676D01*
X82725462Y-101992088D01*
X82572829Y-101914317D01*
X82385626Y-101853490D01*
X82191222Y-101822700D01*
X82191217Y-101822700D01*
X81994383Y-101822700D01*
X81994378Y-101822700D01*
X81799973Y-101853490D01*
X81612770Y-101914317D01*
X81437394Y-102003676D01*
X81346541Y-102069685D01*
X81278154Y-102119372D01*
X81278152Y-102119374D01*
X81278151Y-102119374D01*
X81138974Y-102258551D01*
X81138974Y-102258552D01*
X81138972Y-102258554D01*
X81118283Y-102287030D01*
X81023276Y-102417794D01*
X80933917Y-102593170D01*
X80873090Y-102780373D01*
X80842300Y-102974777D01*
X80842300Y-103171622D01*
X80873090Y-103366026D01*
X80933917Y-103553229D01*
X80978595Y-103640914D01*
X81023276Y-103728605D01*
X81138972Y-103887846D01*
X81278154Y-104027028D01*
X81437395Y-104142724D01*
X81511822Y-104180646D01*
X81612770Y-104232082D01*
X81612772Y-104232082D01*
X81612775Y-104232084D01*
X81691499Y-104257663D01*
X81799973Y-104292909D01*
X81994378Y-104323700D01*
X81994383Y-104323700D01*
X82191222Y-104323700D01*
X82385626Y-104292909D01*
X82572825Y-104232084D01*
X82748205Y-104142724D01*
X82907446Y-104027028D01*
X83046628Y-103887846D01*
X83162324Y-103728605D01*
X83207005Y-103640914D01*
X83252315Y-103551987D01*
X83300289Y-103501190D01*
X83368110Y-103484395D01*
X83434245Y-103506932D01*
X83473285Y-103551987D01*
X83563274Y-103728603D01*
X83590451Y-103766008D01*
X83678972Y-103887846D01*
X83818154Y-104027028D01*
X83977395Y-104142724D01*
X84051822Y-104180646D01*
X84152770Y-104232082D01*
X84152772Y-104232082D01*
X84152775Y-104232084D01*
X84231499Y-104257663D01*
X84339973Y-104292909D01*
X84534378Y-104323700D01*
X84534383Y-104323700D01*
X84731222Y-104323700D01*
X84925626Y-104292909D01*
X85112825Y-104232084D01*
X85288205Y-104142724D01*
X85447446Y-104027028D01*
X85586628Y-103887846D01*
X85702324Y-103728605D01*
X85747005Y-103640914D01*
X85792315Y-103551987D01*
X85840289Y-103501190D01*
X85908110Y-103484395D01*
X85974245Y-103506932D01*
X86013285Y-103551987D01*
X86103274Y-103728603D01*
X86130451Y-103766008D01*
X86218972Y-103887846D01*
X86358154Y-104027028D01*
X86517395Y-104142724D01*
X86591822Y-104180646D01*
X86692770Y-104232082D01*
X86692772Y-104232082D01*
X86692775Y-104232084D01*
X86771499Y-104257663D01*
X86879973Y-104292909D01*
X87074378Y-104323700D01*
X87074383Y-104323700D01*
X87271222Y-104323700D01*
X87465626Y-104292909D01*
X87652825Y-104232084D01*
X87828205Y-104142724D01*
X87987446Y-104027028D01*
X88126628Y-103887846D01*
X88242324Y-103728605D01*
X88287005Y-103640914D01*
X88332315Y-103551987D01*
X88380289Y-103501190D01*
X88448110Y-103484395D01*
X88514245Y-103506932D01*
X88553285Y-103551987D01*
X88643274Y-103728603D01*
X88670451Y-103766008D01*
X88758972Y-103887846D01*
X88898154Y-104027028D01*
X89057395Y-104142724D01*
X89131822Y-104180646D01*
X89232770Y-104232082D01*
X89232772Y-104232082D01*
X89232775Y-104232084D01*
X89311499Y-104257663D01*
X89419973Y-104292909D01*
X89614378Y-104323700D01*
X89614383Y-104323700D01*
X89811222Y-104323700D01*
X90005626Y-104292909D01*
X90192825Y-104232084D01*
X90368205Y-104142724D01*
X90527446Y-104027028D01*
X90666628Y-103887846D01*
X90782324Y-103728605D01*
X90827005Y-103640914D01*
X90872315Y-103551987D01*
X90920289Y-103501190D01*
X90988110Y-103484395D01*
X91054245Y-103506932D01*
X91093285Y-103551987D01*
X91183274Y-103728603D01*
X91210451Y-103766008D01*
X91298972Y-103887846D01*
X91438154Y-104027028D01*
X91519765Y-104086322D01*
X91597396Y-104142725D01*
X91765354Y-104228303D01*
X91772775Y-104232084D01*
X91823105Y-104248437D01*
X91880780Y-104287873D01*
X91892175Y-104304368D01*
X91921527Y-104355208D01*
X91921531Y-104355213D01*
X95472781Y-107906463D01*
X95506266Y-107967786D01*
X95509100Y-107994144D01*
X95509100Y-111868256D01*
X95489415Y-111935295D01*
X95472781Y-111955937D01*
X94582337Y-112846381D01*
X94521014Y-112879866D01*
X94494656Y-112882700D01*
X94052604Y-112882700D01*
X93985565Y-112863015D01*
X93939810Y-112810211D01*
X93929866Y-112741053D01*
X93958891Y-112677497D01*
X93964923Y-112671019D01*
X94009969Y-112625973D01*
X94057414Y-112578528D01*
X94159232Y-112438388D01*
X94237873Y-112284045D01*
X94291402Y-112119301D01*
X94318500Y-111948211D01*
X94318500Y-111774989D01*
X94291402Y-111603899D01*
X94237873Y-111439155D01*
X94159232Y-111284812D01*
X94057414Y-111144672D01*
X93934928Y-111022186D01*
X93794788Y-110920368D01*
X93640445Y-110841727D01*
X93475701Y-110788198D01*
X93475699Y-110788197D01*
X93475698Y-110788197D01*
X93344271Y-110767381D01*
X93304611Y-110761100D01*
X93131389Y-110761100D01*
X93091728Y-110767381D01*
X92960302Y-110788197D01*
X92795552Y-110841728D01*
X92641211Y-110920368D01*
X92561256Y-110978459D01*
X92501072Y-111022186D01*
X92501070Y-111022188D01*
X92501069Y-111022188D01*
X92378588Y-111144669D01*
X92378588Y-111144670D01*
X92378586Y-111144672D01*
X92352629Y-111180399D01*
X92276768Y-111284811D01*
X92198128Y-111439152D01*
X92144597Y-111603902D01*
X92117500Y-111774989D01*
X92117500Y-111948211D01*
X92144598Y-112119301D01*
X92198127Y-112284045D01*
X92276768Y-112438388D01*
X92378586Y-112578528D01*
X92378588Y-112578530D01*
X92471077Y-112671019D01*
X92504562Y-112732342D01*
X92499578Y-112802034D01*
X92457706Y-112857967D01*
X92392242Y-112882384D01*
X92383396Y-112882700D01*
X91546256Y-112882700D01*
X91457112Y-112906586D01*
X91457111Y-112906586D01*
X91457109Y-112906587D01*
X91457106Y-112906588D01*
X91377194Y-112952726D01*
X91377185Y-112952733D01*
X91277138Y-113052781D01*
X91215815Y-113086266D01*
X91189457Y-113089100D01*
X91113525Y-113089100D01*
X90984993Y-113123540D01*
X90973511Y-113126617D01*
X90847988Y-113199088D01*
X90847982Y-113199093D01*
X90745493Y-113301582D01*
X90745488Y-113301588D01*
X90673017Y-113427111D01*
X90673016Y-113427115D01*
X90635500Y-113567125D01*
X90635500Y-113712075D01*
X90665707Y-113824808D01*
X90673017Y-113852088D01*
X90745488Y-113977611D01*
X90745490Y-113977613D01*
X90745491Y-113977615D01*
X90847985Y-114080109D01*
X90847986Y-114080110D01*
X90847988Y-114080111D01*
X90973511Y-114152582D01*
X90973512Y-114152582D01*
X90973515Y-114152584D01*
X91113525Y-114190100D01*
X91113528Y-114190100D01*
X91258472Y-114190100D01*
X91258475Y-114190100D01*
X91398485Y-114152584D01*
X91524015Y-114080109D01*
X91626509Y-113977615D01*
X91698984Y-113852085D01*
X91736500Y-113712075D01*
X91736500Y-113707700D01*
X91737543Y-113704144D01*
X91737561Y-113704015D01*
X91737581Y-113704017D01*
X91756185Y-113640661D01*
X91808989Y-113594906D01*
X91860500Y-113583700D01*
X92208582Y-113583700D01*
X92275621Y-113603385D01*
X92321376Y-113656189D01*
X92331320Y-113725347D01*
X92308900Y-113780585D01*
X92276770Y-113824808D01*
X92198128Y-113979152D01*
X92144597Y-114143902D01*
X92117500Y-114314989D01*
X92117500Y-114488210D01*
X92134588Y-114596104D01*
X92144598Y-114659301D01*
X92198127Y-114824045D01*
X92276768Y-114978388D01*
X92378586Y-115118528D01*
X92501072Y-115241014D01*
X92641212Y-115342832D01*
X92795555Y-115421473D01*
X92960299Y-115475002D01*
X93131389Y-115502100D01*
X93131390Y-115502100D01*
X93304610Y-115502100D01*
X93304611Y-115502100D01*
X93475701Y-115475002D01*
X93640445Y-115421473D01*
X93794788Y-115342832D01*
X93934928Y-115241014D01*
X94057414Y-115118528D01*
X94159232Y-114978388D01*
X94237873Y-114824045D01*
X94291402Y-114659301D01*
X94318500Y-114488211D01*
X94318500Y-114314989D01*
X94311361Y-114269917D01*
X94300440Y-114200962D01*
X94291402Y-114143899D01*
X94237873Y-113979155D01*
X94159232Y-113824812D01*
X94137470Y-113794859D01*
X94127100Y-113780585D01*
X94103620Y-113714779D01*
X94119446Y-113646725D01*
X94169551Y-113598030D01*
X94227418Y-113583700D01*
X94737342Y-113583700D01*
X94737344Y-113583700D01*
X94826488Y-113559814D01*
X94844352Y-113549500D01*
X94906412Y-113513670D01*
X96140070Y-112280012D01*
X96186214Y-112200088D01*
X96191285Y-112181162D01*
X96210100Y-112110944D01*
X96210100Y-107751456D01*
X96186214Y-107662312D01*
X96152775Y-107604394D01*
X96140072Y-107582391D01*
X96140068Y-107582386D01*
X92890511Y-104332829D01*
X92857026Y-104271506D01*
X92862010Y-104201814D01*
X92903882Y-104145881D01*
X92905306Y-104144830D01*
X92908206Y-104142723D01*
X93067446Y-104027028D01*
X93206628Y-103887846D01*
X93322324Y-103728605D01*
X93367005Y-103640914D01*
X93412315Y-103551987D01*
X93460289Y-103501190D01*
X93528110Y-103484395D01*
X93594245Y-103506932D01*
X93633285Y-103551987D01*
X93723274Y-103728603D01*
X93750451Y-103766008D01*
X93838972Y-103887846D01*
X93978154Y-104027028D01*
X94137395Y-104142724D01*
X94211822Y-104180646D01*
X94312770Y-104232082D01*
X94312772Y-104232082D01*
X94312775Y-104232084D01*
X94391499Y-104257663D01*
X94499973Y-104292909D01*
X94694378Y-104323700D01*
X94694383Y-104323700D01*
X94891222Y-104323700D01*
X95085626Y-104292909D01*
X95272825Y-104232084D01*
X95448205Y-104142724D01*
X95607446Y-104027028D01*
X95746628Y-103887846D01*
X95862324Y-103728605D01*
X95907005Y-103640914D01*
X95952315Y-103551987D01*
X96000289Y-103501190D01*
X96068110Y-103484395D01*
X96134245Y-103506932D01*
X96173285Y-103551987D01*
X96263274Y-103728603D01*
X96290451Y-103766008D01*
X96378972Y-103887846D01*
X96518154Y-104027028D01*
X96677395Y-104142724D01*
X96751822Y-104180646D01*
X96852770Y-104232082D01*
X96852772Y-104232082D01*
X96852775Y-104232084D01*
X96931499Y-104257663D01*
X97039973Y-104292909D01*
X97234378Y-104323700D01*
X97234383Y-104323700D01*
X97431222Y-104323700D01*
X97625626Y-104292909D01*
X97812825Y-104232084D01*
X97988205Y-104142724D01*
X98147446Y-104027028D01*
X98286628Y-103887846D01*
X98402324Y-103728605D01*
X98447005Y-103640914D01*
X98492315Y-103551987D01*
X98540289Y-103501190D01*
X98608110Y-103484395D01*
X98674245Y-103506932D01*
X98713285Y-103551987D01*
X98803274Y-103728603D01*
X98830451Y-103766008D01*
X98918972Y-103887846D01*
X99058154Y-104027028D01*
X99217395Y-104142724D01*
X99291822Y-104180646D01*
X99392770Y-104232082D01*
X99392772Y-104232082D01*
X99392775Y-104232084D01*
X99471499Y-104257663D01*
X99579973Y-104292909D01*
X99774378Y-104323700D01*
X99774383Y-104323700D01*
X99971222Y-104323700D01*
X100165626Y-104292909D01*
X100352825Y-104232084D01*
X100360246Y-104228302D01*
X100428913Y-104215405D01*
X100493654Y-104241679D01*
X100504223Y-104251105D01*
X102323304Y-106070185D01*
X104113531Y-107860412D01*
X104178788Y-107925669D01*
X104178791Y-107925670D01*
X104178794Y-107925673D01*
X104258706Y-107971811D01*
X104258707Y-107971811D01*
X104258712Y-107971814D01*
X104347856Y-107995700D01*
X104453323Y-107995700D01*
X104520362Y-108015385D01*
X104566117Y-108068189D01*
X104576061Y-108137347D01*
X104560710Y-108181699D01*
X104541418Y-108215115D01*
X104503902Y-108355125D01*
X104503902Y-108500075D01*
X104541418Y-108640085D01*
X104613885Y-108765601D01*
X104630358Y-108833501D01*
X104613885Y-108889601D01*
X104541417Y-109015117D01*
X104541416Y-109015121D01*
X104503900Y-109155131D01*
X104503900Y-109300081D01*
X104541416Y-109440091D01*
X104541417Y-109440094D01*
X104613888Y-109565617D01*
X104618838Y-109572067D01*
X104616219Y-109574076D01*
X104642335Y-109621903D01*
X104637351Y-109691595D01*
X104628556Y-109710261D01*
X104568275Y-109814669D01*
X104568274Y-109814673D01*
X104530758Y-109954683D01*
X104530758Y-110099633D01*
X104568274Y-110239643D01*
X104568275Y-110239646D01*
X104640746Y-110365169D01*
X104640748Y-110365171D01*
X104640749Y-110365173D01*
X104743243Y-110467667D01*
X104743244Y-110467668D01*
X104743246Y-110467669D01*
X104868769Y-110540140D01*
X104868770Y-110540140D01*
X104868773Y-110540142D01*
X105008783Y-110577658D01*
X105008786Y-110577658D01*
X105153730Y-110577658D01*
X105153733Y-110577658D01*
X105293743Y-110540142D01*
X105419273Y-110467667D01*
X105521767Y-110365173D01*
X105594242Y-110239643D01*
X105631758Y-110099633D01*
X105631758Y-110099629D01*
X105632819Y-110091573D01*
X105635334Y-110091904D01*
X105651443Y-110037046D01*
X105668077Y-110016404D01*
X107237560Y-108446921D01*
X110151500Y-108446921D01*
X110151500Y-110196278D01*
X110166032Y-110269335D01*
X110166033Y-110269339D01*
X110166034Y-110269340D01*
X110221399Y-110352201D01*
X110304260Y-110407566D01*
X110304264Y-110407567D01*
X110377321Y-110422099D01*
X110377324Y-110422100D01*
X110377326Y-110422100D01*
X112126676Y-110422100D01*
X112126677Y-110422099D01*
X112199740Y-110407566D01*
X112282601Y-110352201D01*
X112337966Y-110269340D01*
X112352500Y-110196274D01*
X112352500Y-108446926D01*
X112352500Y-108446923D01*
X112352499Y-108446921D01*
X112337967Y-108373864D01*
X112337966Y-108373860D01*
X112321376Y-108349031D01*
X112282601Y-108290999D01*
X112199740Y-108235634D01*
X112199739Y-108235633D01*
X112199735Y-108235632D01*
X112126677Y-108221100D01*
X112126674Y-108221100D01*
X110377326Y-108221100D01*
X110377323Y-108221100D01*
X110304264Y-108235632D01*
X110304260Y-108235633D01*
X110221399Y-108290999D01*
X110166033Y-108373860D01*
X110166032Y-108373864D01*
X110151500Y-108446921D01*
X107237560Y-108446921D01*
X107331328Y-108353153D01*
X107514401Y-108170080D01*
X107722469Y-107962012D01*
X107768614Y-107882088D01*
X107768615Y-107882083D01*
X107768616Y-107882083D01*
X107769797Y-107877676D01*
X107786585Y-107815018D01*
X107792500Y-107792944D01*
X107792500Y-104380766D01*
X107812185Y-104313727D01*
X107864989Y-104267972D01*
X107878183Y-104262835D01*
X107972819Y-104232086D01*
X107972819Y-104232085D01*
X107972825Y-104232084D01*
X108148205Y-104142724D01*
X108307446Y-104027028D01*
X108446628Y-103887846D01*
X108562324Y-103728605D01*
X108607005Y-103640914D01*
X108652315Y-103551987D01*
X108700289Y-103501190D01*
X108768110Y-103484395D01*
X108834245Y-103506932D01*
X108873285Y-103551987D01*
X108963274Y-103728603D01*
X108990451Y-103766008D01*
X109078972Y-103887846D01*
X109218154Y-104027028D01*
X109377395Y-104142724D01*
X109451822Y-104180646D01*
X109552770Y-104232082D01*
X109552772Y-104232082D01*
X109552775Y-104232084D01*
X109631499Y-104257663D01*
X109739973Y-104292909D01*
X109934378Y-104323700D01*
X109934383Y-104323700D01*
X110131222Y-104323700D01*
X110325626Y-104292909D01*
X110512825Y-104232084D01*
X110688205Y-104142724D01*
X110847446Y-104027028D01*
X110986628Y-103887846D01*
X111102324Y-103728605D01*
X111147005Y-103640914D01*
X111192315Y-103551987D01*
X111240289Y-103501190D01*
X111308110Y-103484395D01*
X111374245Y-103506932D01*
X111413285Y-103551987D01*
X111503274Y-103728603D01*
X111530451Y-103766008D01*
X111618972Y-103887846D01*
X111758154Y-104027028D01*
X111917395Y-104142724D01*
X111991822Y-104180646D01*
X112092770Y-104232082D01*
X112092772Y-104232082D01*
X112092775Y-104232084D01*
X112171499Y-104257663D01*
X112279973Y-104292909D01*
X112474378Y-104323700D01*
X112474383Y-104323700D01*
X112671222Y-104323700D01*
X112865626Y-104292909D01*
X113052825Y-104232084D01*
X113228205Y-104142724D01*
X113387446Y-104027028D01*
X113526628Y-103887846D01*
X113594469Y-103794471D01*
X113649798Y-103751806D01*
X113719411Y-103745827D01*
X113781206Y-103778433D01*
X113805271Y-103811063D01*
X113829885Y-103859372D01*
X113890138Y-103942304D01*
X113890140Y-103942305D01*
X114621671Y-103210773D01*
X114637555Y-103270053D01*
X114704698Y-103386347D01*
X114799653Y-103481302D01*
X114915947Y-103548445D01*
X114975225Y-103564328D01*
X114243693Y-104295858D01*
X114326628Y-104356114D01*
X114536997Y-104463302D01*
X114761552Y-104536265D01*
X114761551Y-104536265D01*
X114994748Y-104573200D01*
X115230852Y-104573200D01*
X115464047Y-104536265D01*
X115688602Y-104463302D01*
X115898963Y-104356118D01*
X115898969Y-104356114D01*
X115981904Y-104295858D01*
X115981905Y-104295858D01*
X115250374Y-103564328D01*
X115309653Y-103548445D01*
X115425947Y-103481302D01*
X115520902Y-103386347D01*
X115588045Y-103270053D01*
X115603928Y-103210775D01*
X116335458Y-103942305D01*
X116335458Y-103942304D01*
X116395714Y-103859369D01*
X116395718Y-103859364D01*
X116420327Y-103811065D01*
X116468301Y-103760268D01*
X116536122Y-103743472D01*
X116602257Y-103766008D01*
X116631130Y-103794472D01*
X116678282Y-103859369D01*
X116698972Y-103887846D01*
X116838154Y-104027028D01*
X116997395Y-104142724D01*
X117071822Y-104180646D01*
X117172770Y-104232082D01*
X117172772Y-104232082D01*
X117172775Y-104232084D01*
X117251499Y-104257663D01*
X117359973Y-104292909D01*
X117554378Y-104323700D01*
X117554383Y-104323700D01*
X117751215Y-104323700D01*
X117751217Y-104323700D01*
X117845358Y-104308789D01*
X117914649Y-104317743D01*
X117952435Y-104343581D01*
X121494525Y-107885672D01*
X121494532Y-107885678D01*
X121601063Y-107956859D01*
X121601067Y-107956861D01*
X121601074Y-107956866D01*
X121656976Y-107980021D01*
X121656977Y-107980021D01*
X121656978Y-107980022D01*
X121715818Y-108004394D01*
X121719456Y-108005901D01*
X121719460Y-108005901D01*
X121719461Y-108005902D01*
X121845128Y-108030900D01*
X121845131Y-108030900D01*
X121973269Y-108030900D01*
X127129505Y-108030900D01*
X127196544Y-108050585D01*
X127217186Y-108067219D01*
X127346342Y-108196375D01*
X127346345Y-108196377D01*
X127518402Y-108311341D01*
X127592031Y-108341839D01*
X127646435Y-108385679D01*
X127668500Y-108451973D01*
X127651221Y-108519673D01*
X127600084Y-108567283D01*
X127544580Y-108580400D01*
X127416029Y-108580400D01*
X127416012Y-108580401D01*
X127313302Y-108590894D01*
X127146880Y-108646041D01*
X127146875Y-108646043D01*
X126997654Y-108738084D01*
X126873684Y-108862054D01*
X126781643Y-109011275D01*
X126781641Y-109011280D01*
X126726494Y-109177702D01*
X126726493Y-109177709D01*
X126716000Y-109280413D01*
X126716000Y-109630400D01*
X127700314Y-109630400D01*
X127695920Y-109634794D01*
X127643259Y-109726006D01*
X127616000Y-109827739D01*
X127616000Y-109933061D01*
X127643259Y-110034794D01*
X127695920Y-110126006D01*
X127700314Y-110130400D01*
X126716001Y-110130400D01*
X126716001Y-110480386D01*
X126726494Y-110583097D01*
X126781641Y-110749519D01*
X126781643Y-110749524D01*
X126873684Y-110898745D01*
X126997654Y-111022715D01*
X127146875Y-111114756D01*
X127146880Y-111114758D01*
X127313302Y-111169905D01*
X127313309Y-111169906D01*
X127416019Y-111180399D01*
X127765999Y-111180399D01*
X127766000Y-111180398D01*
X127766000Y-110196086D01*
X127770394Y-110200480D01*
X127861606Y-110253141D01*
X127963339Y-110280400D01*
X128068661Y-110280400D01*
X128170394Y-110253141D01*
X128261606Y-110200480D01*
X128266000Y-110196086D01*
X128266000Y-111180399D01*
X128615972Y-111180399D01*
X128615986Y-111180398D01*
X128718697Y-111169905D01*
X128885119Y-111114758D01*
X128885124Y-111114756D01*
X129034345Y-111022715D01*
X129158315Y-110898745D01*
X129250356Y-110749524D01*
X129250358Y-110749519D01*
X129305505Y-110583097D01*
X129305506Y-110583090D01*
X129315999Y-110480386D01*
X129316000Y-110480373D01*
X129316000Y-110130400D01*
X128331686Y-110130400D01*
X128336080Y-110126006D01*
X128388741Y-110034794D01*
X128416000Y-109933061D01*
X128416000Y-109827739D01*
X128388741Y-109726006D01*
X128336080Y-109634794D01*
X128331686Y-109630400D01*
X129315999Y-109630400D01*
X129315999Y-109280428D01*
X129315998Y-109280413D01*
X129305505Y-109177702D01*
X129250358Y-109011280D01*
X129250356Y-109011275D01*
X129210903Y-108947312D01*
X129158315Y-108862054D01*
X129034345Y-108738084D01*
X128885124Y-108646043D01*
X128885119Y-108646041D01*
X128718697Y-108590894D01*
X128718690Y-108590893D01*
X128615986Y-108580400D01*
X128487422Y-108580400D01*
X128420383Y-108560715D01*
X128374628Y-108507911D01*
X128364684Y-108438753D01*
X128393709Y-108375197D01*
X128439970Y-108341839D01*
X128513594Y-108311343D01*
X128513595Y-108311342D01*
X128513598Y-108311341D01*
X128685655Y-108196377D01*
X128831977Y-108050055D01*
X128946941Y-107877998D01*
X129026130Y-107686820D01*
X129066500Y-107483865D01*
X129066500Y-107301207D01*
X129086185Y-107234168D01*
X129102819Y-107213526D01*
X130229527Y-106086819D01*
X130290850Y-106053334D01*
X130317208Y-106050500D01*
X132163506Y-106050500D01*
X132230545Y-106070185D01*
X132251182Y-106086814D01*
X132330345Y-106165977D01*
X132502402Y-106280941D01*
X132684119Y-106356211D01*
X132738521Y-106400051D01*
X132760586Y-106466345D01*
X132743307Y-106534044D01*
X132692170Y-106581655D01*
X132674984Y-106588702D01*
X132500968Y-106645244D01*
X132318644Y-106738143D01*
X132274077Y-106770523D01*
X132274077Y-106770524D01*
X132953554Y-107450000D01*
X132947339Y-107450000D01*
X132845606Y-107477259D01*
X132754394Y-107529920D01*
X132679920Y-107604394D01*
X132627259Y-107695606D01*
X132600000Y-107797339D01*
X132600000Y-107803553D01*
X131920524Y-107124077D01*
X131920523Y-107124077D01*
X131888143Y-107168644D01*
X131795244Y-107350968D01*
X131732009Y-107545582D01*
X131700000Y-107747682D01*
X131700000Y-107952317D01*
X131732009Y-108154417D01*
X131795244Y-108349031D01*
X131888141Y-108531350D01*
X131888147Y-108531359D01*
X131920523Y-108575921D01*
X131920524Y-108575922D01*
X132600000Y-107896446D01*
X132600000Y-107902661D01*
X132627259Y-108004394D01*
X132679920Y-108095606D01*
X132754394Y-108170080D01*
X132845606Y-108222741D01*
X132947339Y-108250000D01*
X132953553Y-108250000D01*
X132274076Y-108929474D01*
X132318650Y-108961859D01*
X132500968Y-109054755D01*
X132695582Y-109117990D01*
X132897683Y-109150000D01*
X133102317Y-109150000D01*
X133304417Y-109117990D01*
X133499031Y-109054755D01*
X133681349Y-108961859D01*
X133725921Y-108929474D01*
X133046447Y-108250000D01*
X133052661Y-108250000D01*
X133154394Y-108222741D01*
X133245606Y-108170080D01*
X133320080Y-108095606D01*
X133372741Y-108004394D01*
X133400000Y-107902661D01*
X133400000Y-107896446D01*
X134085581Y-108582028D01*
X134119066Y-108643351D01*
X134121900Y-108669709D01*
X134121900Y-110377495D01*
X134102215Y-110444534D01*
X134101002Y-110446386D01*
X134069500Y-110493531D01*
X134069495Y-110493540D01*
X134005384Y-110648317D01*
X134005382Y-110648325D01*
X133972700Y-110812628D01*
X133972700Y-112558934D01*
X133953015Y-112625973D01*
X133936381Y-112646615D01*
X133805739Y-112777256D01*
X133805733Y-112777263D01*
X133658067Y-112969706D01*
X133536777Y-113179785D01*
X133536773Y-113179794D01*
X133443947Y-113403895D01*
X133381161Y-113638214D01*
X133349500Y-113878711D01*
X133349500Y-114025500D01*
X133329815Y-114092539D01*
X133277011Y-114138294D01*
X133225500Y-114149500D01*
X124683828Y-114149500D01*
X124519525Y-114182182D01*
X124519513Y-114182185D01*
X124474183Y-114200962D01*
X124364743Y-114246292D01*
X124364730Y-114246299D01*
X124225438Y-114339372D01*
X124225434Y-114339375D01*
X122261630Y-116303181D01*
X122200307Y-116336666D01*
X122173949Y-116339500D01*
X120629960Y-116339500D01*
X120562921Y-116319815D01*
X120557074Y-116315818D01*
X120464788Y-116248768D01*
X120310447Y-116170128D01*
X120310446Y-116170127D01*
X120310445Y-116170127D01*
X120145701Y-116116598D01*
X120145699Y-116116597D01*
X120145698Y-116116597D01*
X120014271Y-116095781D01*
X119974611Y-116089500D01*
X119801389Y-116089500D01*
X119761728Y-116095781D01*
X119630302Y-116116597D01*
X119465552Y-116170128D01*
X119311211Y-116248768D01*
X119236319Y-116303181D01*
X119171072Y-116350586D01*
X119171070Y-116350588D01*
X119171069Y-116350588D01*
X119048588Y-116473069D01*
X119048588Y-116473070D01*
X119048586Y-116473072D01*
X119015107Y-116519152D01*
X118946768Y-116613211D01*
X118868128Y-116767552D01*
X118814597Y-116932302D01*
X118787500Y-117103389D01*
X118787500Y-117276610D01*
X118812587Y-117435009D01*
X118814598Y-117447701D01*
X118868127Y-117612445D01*
X118946768Y-117766788D01*
X119048586Y-117906928D01*
X119171072Y-118029414D01*
X119311212Y-118131232D01*
X119465555Y-118209873D01*
X119630299Y-118263402D01*
X119801389Y-118290500D01*
X119801390Y-118290500D01*
X119974610Y-118290500D01*
X119974611Y-118290500D01*
X120145701Y-118263402D01*
X120310445Y-118209873D01*
X120464788Y-118131232D01*
X120557074Y-118064182D01*
X120622881Y-118040702D01*
X120629960Y-118040500D01*
X122661368Y-118040500D01*
X122661369Y-118040499D01*
X122717116Y-118029411D01*
X122825674Y-118007818D01*
X122825678Y-118007816D01*
X122825682Y-118007816D01*
X122871015Y-117989037D01*
X122980463Y-117943704D01*
X123119762Y-117850627D01*
X125083570Y-115886819D01*
X125144893Y-115853334D01*
X125171251Y-115850500D01*
X133848700Y-115850500D01*
X133915739Y-115870185D01*
X133961494Y-115922989D01*
X133972700Y-115974500D01*
X133972700Y-128933149D01*
X133953015Y-129000188D01*
X133936381Y-129020830D01*
X126277630Y-136679581D01*
X126216307Y-136713066D01*
X126189949Y-136715900D01*
X106480936Y-136715900D01*
X106413897Y-136696215D01*
X106393255Y-136679581D01*
X106326248Y-136612574D01*
X106326246Y-136612572D01*
X106167005Y-136496876D01*
X106153106Y-136489794D01*
X105991629Y-136407517D01*
X105804426Y-136346690D01*
X105610022Y-136315900D01*
X105610017Y-136315900D01*
X105413183Y-136315900D01*
X105413178Y-136315900D01*
X105218773Y-136346690D01*
X105031570Y-136407517D01*
X104856194Y-136496876D01*
X104765341Y-136562885D01*
X104696954Y-136612572D01*
X104696952Y-136612574D01*
X104696951Y-136612574D01*
X104557771Y-136751754D01*
X104489930Y-136845128D01*
X104434599Y-136887793D01*
X104364986Y-136893771D01*
X104303191Y-136861164D01*
X104279128Y-136828535D01*
X104254516Y-136780230D01*
X104194258Y-136697294D01*
X104194258Y-136697293D01*
X103462728Y-137428824D01*
X103446845Y-137369547D01*
X103379702Y-137253253D01*
X103284747Y-137158298D01*
X103168453Y-137091155D01*
X103109174Y-137075271D01*
X103840705Y-136343740D01*
X103840704Y-136343738D01*
X103757774Y-136283487D01*
X103547402Y-136176297D01*
X103322847Y-136103334D01*
X103322848Y-136103334D01*
X103089652Y-136066400D01*
X102853548Y-136066400D01*
X102620352Y-136103334D01*
X102395797Y-136176297D01*
X102185430Y-136283484D01*
X102102494Y-136343740D01*
X102834025Y-137075271D01*
X102774747Y-137091155D01*
X102658453Y-137158298D01*
X102563498Y-137253253D01*
X102496355Y-137369547D01*
X102480471Y-137428825D01*
X101748940Y-136697294D01*
X101711333Y-136700254D01*
X101691876Y-136700254D01*
X101654258Y-136697293D01*
X100922728Y-137428824D01*
X100906845Y-137369547D01*
X100839702Y-137253253D01*
X100744747Y-137158298D01*
X100628453Y-137091155D01*
X100569174Y-137075271D01*
X101300705Y-136343740D01*
X101300704Y-136343739D01*
X101217774Y-136283487D01*
X101007402Y-136176297D01*
X100782847Y-136103334D01*
X100782848Y-136103334D01*
X100549652Y-136066400D01*
X100313548Y-136066400D01*
X100080352Y-136103334D01*
X99855797Y-136176297D01*
X99645430Y-136283484D01*
X99562494Y-136343740D01*
X100294025Y-137075271D01*
X100234747Y-137091155D01*
X100118453Y-137158298D01*
X100023498Y-137253253D01*
X99956355Y-137369547D01*
X99940471Y-137428825D01*
X99178419Y-136666773D01*
X99144984Y-136605681D01*
X99142100Y-136592543D01*
X99142100Y-136541726D01*
X99127566Y-136468660D01*
X99072201Y-136385799D01*
X98989517Y-136330552D01*
X98989339Y-136330433D01*
X98989335Y-136330432D01*
X98916277Y-136315900D01*
X98916274Y-136315900D01*
X98766100Y-136315900D01*
X98699061Y-136296215D01*
X98653306Y-136243411D01*
X98642100Y-136191900D01*
X98642100Y-135658630D01*
X98661785Y-135591591D01*
X98678419Y-135570949D01*
X102804949Y-131444419D01*
X102866272Y-131410934D01*
X102892630Y-131408100D01*
X108176320Y-131408100D01*
X108285006Y-131386480D01*
X108321313Y-131379258D01*
X108457895Y-131322684D01*
X108511435Y-131286910D01*
X108511435Y-131286909D01*
X108511437Y-131286909D01*
X108546125Y-131263731D01*
X108580816Y-131240552D01*
X111894580Y-127926788D01*
X115117615Y-124703753D01*
X118538000Y-124703753D01*
X118538000Y-124916246D01*
X118571242Y-125126127D01*
X118571242Y-125126130D01*
X118636904Y-125328217D01*
X118733375Y-125517550D01*
X118772728Y-125571716D01*
X119405037Y-124939408D01*
X119422075Y-125002993D01*
X119487901Y-125117007D01*
X119580993Y-125210099D01*
X119695007Y-125275925D01*
X119758590Y-125292962D01*
X119126282Y-125925269D01*
X119126282Y-125925270D01*
X119180449Y-125964624D01*
X119369784Y-126061096D01*
X119468711Y-126093239D01*
X119526387Y-126132676D01*
X119553586Y-126197034D01*
X119541672Y-126265881D01*
X119494428Y-126317357D01*
X119468722Y-126329097D01*
X119467522Y-126329487D01*
X119465550Y-126330128D01*
X119311211Y-126408768D01*
X119231256Y-126466859D01*
X119171072Y-126510586D01*
X119171070Y-126510588D01*
X119171069Y-126510588D01*
X119048588Y-126633069D01*
X119048588Y-126633070D01*
X119048586Y-126633072D01*
X119004859Y-126693256D01*
X118946768Y-126773211D01*
X118868128Y-126927552D01*
X118814597Y-127092302D01*
X118787500Y-127263389D01*
X118787500Y-127436611D01*
X118814598Y-127607701D01*
X118868127Y-127772445D01*
X118946768Y-127926788D01*
X119048586Y-128066928D01*
X119171072Y-128189414D01*
X119311212Y-128291232D01*
X119465555Y-128369873D01*
X119630299Y-128423402D01*
X119801389Y-128450500D01*
X119801390Y-128450500D01*
X119974610Y-128450500D01*
X119974611Y-128450500D01*
X120145701Y-128423402D01*
X120310445Y-128369873D01*
X120464788Y-128291232D01*
X120604928Y-128189414D01*
X120727414Y-128066928D01*
X120829232Y-127926788D01*
X120907873Y-127772445D01*
X120961402Y-127607701D01*
X120988500Y-127436611D01*
X120988500Y-127263389D01*
X120961402Y-127092299D01*
X120907873Y-126927555D01*
X120829232Y-126773212D01*
X120727414Y-126633072D01*
X120604928Y-126510586D01*
X120464788Y-126408768D01*
X120310446Y-126330127D01*
X120307284Y-126329100D01*
X120306236Y-126328383D01*
X120305952Y-126328266D01*
X120305976Y-126328206D01*
X120249609Y-126289661D01*
X120222413Y-126225302D01*
X120234329Y-126156456D01*
X120281574Y-126104981D01*
X120307288Y-126093239D01*
X120406215Y-126061096D01*
X120595554Y-125964622D01*
X120649716Y-125925270D01*
X120649717Y-125925270D01*
X120017408Y-125292962D01*
X120080993Y-125275925D01*
X120195007Y-125210099D01*
X120288099Y-125117007D01*
X120353925Y-125002993D01*
X120370962Y-124939409D01*
X121003270Y-125571717D01*
X121003270Y-125571716D01*
X121042622Y-125517554D01*
X121139095Y-125328217D01*
X121204757Y-125126130D01*
X121204757Y-125126127D01*
X121238000Y-124916246D01*
X121238000Y-124703753D01*
X121204757Y-124493872D01*
X121204757Y-124493869D01*
X121139095Y-124291782D01*
X121042624Y-124102449D01*
X121003270Y-124048282D01*
X121003269Y-124048282D01*
X120370962Y-124680590D01*
X120353925Y-124617007D01*
X120288099Y-124502993D01*
X120195007Y-124409901D01*
X120080993Y-124344075D01*
X120017409Y-124327037D01*
X120649716Y-123694728D01*
X120595550Y-123655375D01*
X120406217Y-123558904D01*
X120307287Y-123526760D01*
X120249611Y-123487323D01*
X120222413Y-123422964D01*
X120234328Y-123354118D01*
X120281572Y-123302642D01*
X120307290Y-123290897D01*
X120310445Y-123289873D01*
X120464788Y-123211232D01*
X120604928Y-123109414D01*
X120727414Y-122986928D01*
X120829232Y-122846788D01*
X120907873Y-122692445D01*
X120961402Y-122527701D01*
X120988500Y-122356611D01*
X120988500Y-122183389D01*
X120961402Y-122012299D01*
X120907873Y-121847555D01*
X120829232Y-121693212D01*
X120727414Y-121553072D01*
X120604928Y-121430586D01*
X120464788Y-121328768D01*
X120310445Y-121250127D01*
X120145701Y-121196598D01*
X120145699Y-121196597D01*
X120145698Y-121196597D01*
X120014271Y-121175781D01*
X119974611Y-121169500D01*
X119801389Y-121169500D01*
X119761728Y-121175781D01*
X119630302Y-121196597D01*
X119465552Y-121250128D01*
X119311211Y-121328768D01*
X119231256Y-121386859D01*
X119171072Y-121430586D01*
X119171070Y-121430588D01*
X119171069Y-121430588D01*
X119048588Y-121553069D01*
X119048588Y-121553070D01*
X119048586Y-121553072D01*
X119015107Y-121599152D01*
X118946768Y-121693211D01*
X118868128Y-121847552D01*
X118814597Y-122012302D01*
X118787500Y-122183389D01*
X118787500Y-122356610D01*
X118801348Y-122444047D01*
X118814598Y-122527701D01*
X118868127Y-122692445D01*
X118946768Y-122846788D01*
X119048586Y-122986928D01*
X119171072Y-123109414D01*
X119311212Y-123211232D01*
X119465555Y-123289873D01*
X119468708Y-123290897D01*
X119469752Y-123291611D01*
X119470048Y-123291734D01*
X119470022Y-123291795D01*
X119526383Y-123330330D01*
X119553585Y-123394688D01*
X119541674Y-123463535D01*
X119494433Y-123515013D01*
X119468712Y-123526760D01*
X119369783Y-123558904D01*
X119180439Y-123655380D01*
X119126282Y-123694727D01*
X119126282Y-123694728D01*
X119758591Y-124327037D01*
X119695007Y-124344075D01*
X119580993Y-124409901D01*
X119487901Y-124502993D01*
X119422075Y-124617007D01*
X119405037Y-124680591D01*
X118772728Y-124048282D01*
X118772727Y-124048282D01*
X118733380Y-124102439D01*
X118636904Y-124291782D01*
X118571242Y-124493869D01*
X118571242Y-124493872D01*
X118538000Y-124703753D01*
X115117615Y-124703753D01*
X115210168Y-124611200D01*
X115390948Y-124430419D01*
X115390947Y-124430419D01*
X115390951Y-124430416D01*
X115473084Y-124307495D01*
X115529658Y-124170913D01*
X115543279Y-124102439D01*
X115558500Y-124025920D01*
X115558500Y-119643389D01*
X118787500Y-119643389D01*
X118787500Y-119816610D01*
X118801348Y-119904047D01*
X118814598Y-119987701D01*
X118868127Y-120152445D01*
X118946768Y-120306788D01*
X119048586Y-120446928D01*
X119171072Y-120569414D01*
X119311212Y-120671232D01*
X119465555Y-120749873D01*
X119630299Y-120803402D01*
X119801389Y-120830500D01*
X119801390Y-120830500D01*
X119974610Y-120830500D01*
X119974611Y-120830500D01*
X120145701Y-120803402D01*
X120310445Y-120749873D01*
X120464788Y-120671232D01*
X120604928Y-120569414D01*
X120727414Y-120446928D01*
X120829232Y-120306788D01*
X120907873Y-120152445D01*
X120961402Y-119987701D01*
X120988500Y-119816611D01*
X120988500Y-119643389D01*
X120961402Y-119472299D01*
X120907873Y-119307555D01*
X120829232Y-119153212D01*
X120727414Y-119013072D01*
X120604928Y-118890586D01*
X120464788Y-118788768D01*
X120310445Y-118710127D01*
X120145701Y-118656598D01*
X120145699Y-118656597D01*
X120145698Y-118656597D01*
X120014271Y-118635781D01*
X119974611Y-118629500D01*
X119801389Y-118629500D01*
X119761728Y-118635781D01*
X119630302Y-118656597D01*
X119465552Y-118710128D01*
X119311211Y-118788768D01*
X119231256Y-118846859D01*
X119171072Y-118890586D01*
X119171070Y-118890588D01*
X119171069Y-118890588D01*
X119048588Y-119013069D01*
X119048588Y-119013070D01*
X119048586Y-119013072D01*
X119015107Y-119059152D01*
X118946768Y-119153211D01*
X118868128Y-119307552D01*
X118814597Y-119472302D01*
X118787500Y-119643389D01*
X115558500Y-119643389D01*
X115558500Y-117454094D01*
X115578185Y-117387055D01*
X115594815Y-117366416D01*
X115623977Y-117337255D01*
X115738941Y-117165198D01*
X115818130Y-116974020D01*
X115858500Y-116771065D01*
X115858500Y-116564135D01*
X115818130Y-116361180D01*
X115738941Y-116170002D01*
X115623977Y-115997945D01*
X115623975Y-115997942D01*
X115477657Y-115851624D01*
X115305596Y-115736657D01*
X115123881Y-115661389D01*
X115069478Y-115617548D01*
X115047413Y-115551254D01*
X115064692Y-115483554D01*
X115115830Y-115435944D01*
X115133015Y-115428897D01*
X115307031Y-115372354D01*
X115489349Y-115279459D01*
X115533921Y-115247074D01*
X114854447Y-114567600D01*
X114860661Y-114567600D01*
X114962394Y-114540341D01*
X115053606Y-114487680D01*
X115128080Y-114413206D01*
X115180741Y-114321994D01*
X115208000Y-114220261D01*
X115208000Y-114214047D01*
X115887474Y-114893521D01*
X115919859Y-114848949D01*
X116012755Y-114666631D01*
X116075990Y-114472017D01*
X116108000Y-114269917D01*
X116108000Y-114065282D01*
X116075989Y-113863181D01*
X116075989Y-113863178D01*
X116057915Y-113807552D01*
X116047442Y-113775321D01*
X118787500Y-113775321D01*
X118787500Y-115524678D01*
X118802032Y-115597735D01*
X118802033Y-115597739D01*
X118802034Y-115597740D01*
X118857399Y-115680601D01*
X118940260Y-115735966D01*
X118940264Y-115735967D01*
X119013321Y-115750499D01*
X119013324Y-115750500D01*
X119013326Y-115750500D01*
X120762676Y-115750500D01*
X120762677Y-115750499D01*
X120835740Y-115735966D01*
X120918601Y-115680601D01*
X120973966Y-115597740D01*
X120988500Y-115524674D01*
X120988500Y-114753307D01*
X121008185Y-114686268D01*
X121009398Y-114684416D01*
X121098903Y-114550463D01*
X121163016Y-114395682D01*
X121195700Y-114231367D01*
X121195700Y-114063833D01*
X121163016Y-113899518D01*
X121113427Y-113779801D01*
X121098904Y-113744739D01*
X121074155Y-113707700D01*
X121058769Y-113684672D01*
X121005826Y-113605437D01*
X120887362Y-113486973D01*
X120748060Y-113393895D01*
X120593282Y-113329784D01*
X120593274Y-113329782D01*
X120428971Y-113297100D01*
X120428967Y-113297100D01*
X119804233Y-113297100D01*
X119804228Y-113297100D01*
X119639925Y-113329782D01*
X119639917Y-113329784D01*
X119485139Y-113393895D01*
X119345837Y-113486973D01*
X119345834Y-113486976D01*
X119319630Y-113513181D01*
X119258307Y-113546666D01*
X119231949Y-113549500D01*
X119013323Y-113549500D01*
X118940264Y-113564032D01*
X118940260Y-113564033D01*
X118857399Y-113619399D01*
X118802033Y-113702260D01*
X118802032Y-113702264D01*
X118787500Y-113775321D01*
X116047442Y-113775321D01*
X116012755Y-113668568D01*
X115919859Y-113486250D01*
X115887474Y-113441677D01*
X115887474Y-113441676D01*
X115208000Y-114121151D01*
X115208000Y-114114939D01*
X115180741Y-114013206D01*
X115128080Y-113921994D01*
X115053606Y-113847520D01*
X114962394Y-113794859D01*
X114860661Y-113767600D01*
X114854446Y-113767600D01*
X115533922Y-113088124D01*
X115533921Y-113088123D01*
X115489359Y-113055747D01*
X115489350Y-113055741D01*
X115307031Y-112962844D01*
X115112417Y-112899609D01*
X114910317Y-112867600D01*
X114705683Y-112867600D01*
X114503582Y-112899609D01*
X114308968Y-112962844D01*
X114126644Y-113055743D01*
X114082077Y-113088123D01*
X114082077Y-113088124D01*
X114761554Y-113767600D01*
X114755339Y-113767600D01*
X114653606Y-113794859D01*
X114562394Y-113847520D01*
X114487920Y-113921994D01*
X114435259Y-114013206D01*
X114408000Y-114114939D01*
X114408000Y-114121153D01*
X113728524Y-113441677D01*
X113728523Y-113441677D01*
X113696143Y-113486244D01*
X113603244Y-113668568D01*
X113540009Y-113863182D01*
X113508000Y-114065282D01*
X113508000Y-114269917D01*
X113540009Y-114472017D01*
X113603244Y-114666631D01*
X113696141Y-114848950D01*
X113696147Y-114848959D01*
X113728523Y-114893521D01*
X113728524Y-114893522D01*
X114408000Y-114214046D01*
X114408000Y-114220261D01*
X114435259Y-114321994D01*
X114487920Y-114413206D01*
X114562394Y-114487680D01*
X114653606Y-114540341D01*
X114755339Y-114567600D01*
X114761553Y-114567600D01*
X114082076Y-115247074D01*
X114126650Y-115279459D01*
X114308968Y-115372355D01*
X114482984Y-115428897D01*
X114540659Y-115468335D01*
X114567857Y-115532694D01*
X114555942Y-115601540D01*
X114508698Y-115653016D01*
X114492118Y-115661389D01*
X114310403Y-115736657D01*
X114138342Y-115851624D01*
X114138341Y-115851625D01*
X114109186Y-115880781D01*
X114047863Y-115914266D01*
X114021505Y-115917100D01*
X111739369Y-115917100D01*
X111672330Y-115897415D01*
X111626575Y-115844611D01*
X111616631Y-115775453D01*
X111645656Y-115711897D01*
X111701051Y-115675169D01*
X111770217Y-115652695D01*
X111959554Y-115556222D01*
X112013716Y-115516870D01*
X112013717Y-115516870D01*
X111381408Y-114884562D01*
X111444993Y-114867525D01*
X111559007Y-114801699D01*
X111652099Y-114708607D01*
X111717925Y-114594593D01*
X111734962Y-114531008D01*
X112367270Y-115163317D01*
X112367270Y-115163316D01*
X112406622Y-115109154D01*
X112503095Y-114919817D01*
X112568757Y-114717730D01*
X112568757Y-114717727D01*
X112602000Y-114507846D01*
X112602000Y-114295353D01*
X112568759Y-114085482D01*
X112568754Y-114085459D01*
X112503095Y-113883382D01*
X112406624Y-113694049D01*
X112367270Y-113639882D01*
X112367269Y-113639882D01*
X111734962Y-114272190D01*
X111717925Y-114208607D01*
X111652099Y-114094593D01*
X111559007Y-114001501D01*
X111444993Y-113935675D01*
X111381409Y-113918637D01*
X112013716Y-113286328D01*
X111959547Y-113246973D01*
X111959548Y-113246973D01*
X111957378Y-113245868D01*
X111957377Y-113245868D01*
X111770217Y-113150504D01*
X111671287Y-113118360D01*
X111613611Y-113078923D01*
X111586413Y-113014564D01*
X111598328Y-112945718D01*
X111645572Y-112894242D01*
X111671290Y-112882497D01*
X111674445Y-112881473D01*
X111828788Y-112802832D01*
X111968928Y-112701014D01*
X112091414Y-112578528D01*
X112193232Y-112438388D01*
X112271873Y-112284045D01*
X112325402Y-112119301D01*
X112352500Y-111948211D01*
X112352500Y-111774989D01*
X112325402Y-111603899D01*
X112271873Y-111439155D01*
X112193232Y-111284812D01*
X112091414Y-111144672D01*
X111968928Y-111022186D01*
X111828788Y-110920368D01*
X111674445Y-110841727D01*
X111509701Y-110788198D01*
X111509699Y-110788197D01*
X111509698Y-110788197D01*
X111378271Y-110767381D01*
X111338611Y-110761100D01*
X111165389Y-110761100D01*
X111125728Y-110767381D01*
X110994302Y-110788197D01*
X110829552Y-110841728D01*
X110675211Y-110920368D01*
X110595256Y-110978459D01*
X110535072Y-111022186D01*
X110535070Y-111022188D01*
X110535069Y-111022188D01*
X110412588Y-111144669D01*
X110412588Y-111144670D01*
X110412586Y-111144672D01*
X110386629Y-111180399D01*
X110310768Y-111284811D01*
X110232128Y-111439152D01*
X110178597Y-111603902D01*
X110151500Y-111774989D01*
X110151500Y-111948211D01*
X110178598Y-112119301D01*
X110232127Y-112284045D01*
X110310768Y-112438388D01*
X110412586Y-112578528D01*
X110535072Y-112701014D01*
X110675212Y-112802832D01*
X110829555Y-112881473D01*
X110832708Y-112882497D01*
X110833752Y-112883211D01*
X110834048Y-112883334D01*
X110834022Y-112883395D01*
X110890383Y-112921930D01*
X110917585Y-112986288D01*
X110905674Y-113055135D01*
X110858433Y-113106613D01*
X110832712Y-113118360D01*
X110733783Y-113150504D01*
X110544439Y-113246980D01*
X110490282Y-113286327D01*
X110490282Y-113286328D01*
X111122591Y-113918637D01*
X111059007Y-113935675D01*
X110944993Y-114001501D01*
X110851901Y-114094593D01*
X110786075Y-114208607D01*
X110769037Y-114272191D01*
X110136728Y-113639882D01*
X110136727Y-113639882D01*
X110097380Y-113694039D01*
X110000904Y-113883382D01*
X109935242Y-114085469D01*
X109935242Y-114085472D01*
X109902000Y-114295353D01*
X109902000Y-114507846D01*
X109935242Y-114717727D01*
X109935242Y-114717730D01*
X110000904Y-114919817D01*
X110097375Y-115109150D01*
X110136728Y-115163316D01*
X110769037Y-114531008D01*
X110786075Y-114594593D01*
X110851901Y-114708607D01*
X110944993Y-114801699D01*
X111059007Y-114867525D01*
X111122590Y-114884562D01*
X110490282Y-115516869D01*
X110490282Y-115516870D01*
X110544449Y-115556224D01*
X110733784Y-115652696D01*
X110832711Y-115684839D01*
X110890387Y-115724276D01*
X110917586Y-115788634D01*
X110905672Y-115857481D01*
X110858428Y-115908957D01*
X110832722Y-115920697D01*
X110831522Y-115921087D01*
X110829550Y-115921728D01*
X110675211Y-116000368D01*
X110595256Y-116058459D01*
X110535072Y-116102186D01*
X110535070Y-116102188D01*
X110535069Y-116102188D01*
X110412588Y-116224669D01*
X110412588Y-116224670D01*
X110412586Y-116224672D01*
X110368859Y-116284856D01*
X110310768Y-116364811D01*
X110232128Y-116519152D01*
X110178597Y-116683902D01*
X110151500Y-116854989D01*
X110151500Y-117028210D01*
X110173196Y-117165198D01*
X110178598Y-117199301D01*
X110232127Y-117364045D01*
X110310768Y-117518388D01*
X110412586Y-117658528D01*
X110535072Y-117781014D01*
X110675212Y-117882832D01*
X110829555Y-117961473D01*
X110994299Y-118015002D01*
X111165389Y-118042100D01*
X111165390Y-118042100D01*
X111338610Y-118042100D01*
X111338611Y-118042100D01*
X111509701Y-118015002D01*
X111674445Y-117961473D01*
X111828788Y-117882832D01*
X111968928Y-117781014D01*
X112091414Y-117658528D01*
X112193232Y-117518388D01*
X112193235Y-117518383D01*
X112209835Y-117485805D01*
X112257809Y-117435009D01*
X112320319Y-117418100D01*
X113933500Y-117418100D01*
X114000539Y-117437785D01*
X114046294Y-117490589D01*
X114057500Y-117542100D01*
X114057500Y-123589770D01*
X114037815Y-123656809D01*
X114021181Y-123677451D01*
X107827851Y-129870781D01*
X107766528Y-129904266D01*
X107740170Y-129907100D01*
X102456480Y-129907100D01*
X102311492Y-129935940D01*
X102311482Y-129935943D01*
X102174909Y-129992513D01*
X102174900Y-129992518D01*
X102167559Y-129997424D01*
X102167557Y-129997426D01*
X102051979Y-130074651D01*
X97308650Y-134817980D01*
X97308644Y-134817988D01*
X97259412Y-134891668D01*
X97259413Y-134891669D01*
X97226521Y-134940896D01*
X97226514Y-134940908D01*
X97169942Y-135077486D01*
X97169940Y-135077492D01*
X97141100Y-135222479D01*
X97141100Y-136191900D01*
X97121415Y-136258939D01*
X97068611Y-136304694D01*
X97017100Y-136315900D01*
X96866923Y-136315900D01*
X96793864Y-136330432D01*
X96793860Y-136330433D01*
X96710999Y-136385799D01*
X96655633Y-136468660D01*
X96655632Y-136468664D01*
X96641100Y-136541721D01*
X96641100Y-136691900D01*
X96621415Y-136758939D01*
X96568611Y-136804694D01*
X96517100Y-136815900D01*
X94959680Y-136815900D01*
X94814692Y-136844740D01*
X94814682Y-136844743D01*
X94678109Y-136901313D01*
X94678104Y-136901316D01*
X94662559Y-136911702D01*
X94662560Y-136911703D01*
X94555179Y-136983451D01*
X94555178Y-136983452D01*
X88725451Y-142813181D01*
X88664128Y-142846666D01*
X88637770Y-142849500D01*
X81214610Y-142849500D01*
X81190782Y-142842503D01*
X81166114Y-142839623D01*
X81152134Y-142831154D01*
X81147571Y-142829815D01*
X81135926Y-142821337D01*
X81134708Y-142820337D01*
X81095385Y-142762584D01*
X81093529Y-142692739D01*
X81129728Y-142632978D01*
X81192490Y-142602274D01*
X81213392Y-142600500D01*
X81274676Y-142600500D01*
X81274677Y-142600499D01*
X81347740Y-142585966D01*
X81430601Y-142530601D01*
X81485966Y-142447740D01*
X81500500Y-142374674D01*
X81500500Y-140825326D01*
X81500500Y-140825323D01*
X81500499Y-140825321D01*
X81485967Y-140752264D01*
X81485966Y-140752261D01*
X81485966Y-140752260D01*
X81485964Y-140752258D01*
X81485964Y-140752256D01*
X81466597Y-140723271D01*
X81445719Y-140656594D01*
X81464204Y-140589214D01*
X81496812Y-140554064D01*
X81529792Y-140530104D01*
X81680104Y-140379792D01*
X81680106Y-140379788D01*
X81680109Y-140379786D01*
X81805048Y-140207820D01*
X81805047Y-140207820D01*
X81805051Y-140207816D01*
X81901557Y-140018412D01*
X81967246Y-139816243D01*
X82000500Y-139606287D01*
X82000500Y-139393713D01*
X81967246Y-139183757D01*
X81901557Y-138981588D01*
X81805051Y-138792184D01*
X81805049Y-138792181D01*
X81805048Y-138792179D01*
X81680109Y-138620213D01*
X81529786Y-138469890D01*
X81357820Y-138344951D01*
X81168414Y-138248444D01*
X81168413Y-138248443D01*
X81168412Y-138248443D01*
X80966243Y-138182754D01*
X80966241Y-138182753D01*
X80966240Y-138182753D01*
X80804957Y-138157208D01*
X80756287Y-138149500D01*
X79243713Y-138149500D01*
X79195042Y-138157208D01*
X79033760Y-138182753D01*
X78831585Y-138248444D01*
X78642179Y-138344951D01*
X78470213Y-138469890D01*
X78319890Y-138620213D01*
X78194951Y-138792179D01*
X78098444Y-138981585D01*
X78032753Y-139183760D01*
X77999500Y-139393713D01*
X57862500Y-139393713D01*
X57862500Y-131478711D01*
X67549500Y-131478711D01*
X67549500Y-131721288D01*
X67581161Y-131961785D01*
X67643947Y-132196104D01*
X67736773Y-132420205D01*
X67736776Y-132420212D01*
X67858064Y-132630289D01*
X67858066Y-132630292D01*
X67858067Y-132630293D01*
X68005733Y-132822736D01*
X68005739Y-132822743D01*
X68177256Y-132994260D01*
X68177262Y-132994265D01*
X68369711Y-133141936D01*
X68579788Y-133263224D01*
X68803900Y-133356054D01*
X69038211Y-133418838D01*
X69218586Y-133442584D01*
X69278711Y-133450500D01*
X69278712Y-133450500D01*
X69521289Y-133450500D01*
X69569388Y-133444167D01*
X69761789Y-133418838D01*
X69996100Y-133356054D01*
X70220212Y-133263224D01*
X70430289Y-133141936D01*
X70622738Y-132994265D01*
X70794265Y-132822738D01*
X70941936Y-132630289D01*
X71063224Y-132420212D01*
X71156054Y-132196100D01*
X71218838Y-131961789D01*
X71250500Y-131721288D01*
X71250500Y-131478712D01*
X71218838Y-131238211D01*
X71156054Y-131003900D01*
X71063224Y-130779788D01*
X70941936Y-130569711D01*
X70794265Y-130377262D01*
X70794260Y-130377256D01*
X70622743Y-130205739D01*
X70622736Y-130205733D01*
X70430293Y-130058067D01*
X70430292Y-130058066D01*
X70430289Y-130058064D01*
X70220212Y-129936776D01*
X70141726Y-129904266D01*
X69996104Y-129843947D01*
X69761785Y-129781161D01*
X69521289Y-129749500D01*
X69521288Y-129749500D01*
X69278712Y-129749500D01*
X69278711Y-129749500D01*
X69038214Y-129781161D01*
X68803895Y-129843947D01*
X68579794Y-129936773D01*
X68579785Y-129936777D01*
X68369706Y-130058067D01*
X68177263Y-130205733D01*
X68177256Y-130205739D01*
X68005739Y-130377256D01*
X68005733Y-130377263D01*
X67858067Y-130569706D01*
X67736777Y-130779785D01*
X67736773Y-130779794D01*
X67643947Y-131003895D01*
X67581161Y-131238214D01*
X67549500Y-131478711D01*
X57862500Y-131478711D01*
X57862500Y-124703753D01*
X83486000Y-124703753D01*
X83486000Y-124916246D01*
X83519242Y-125126127D01*
X83519242Y-125126130D01*
X83584904Y-125328217D01*
X83681375Y-125517550D01*
X83720728Y-125571716D01*
X84353037Y-124939408D01*
X84370075Y-125002993D01*
X84435901Y-125117007D01*
X84528993Y-125210099D01*
X84643007Y-125275925D01*
X84706590Y-125292962D01*
X84074282Y-125925269D01*
X84074282Y-125925270D01*
X84128449Y-125964624D01*
X84317784Y-126061096D01*
X84416711Y-126093239D01*
X84474387Y-126132676D01*
X84501586Y-126197034D01*
X84489672Y-126265881D01*
X84442428Y-126317357D01*
X84416722Y-126329097D01*
X84415522Y-126329487D01*
X84413550Y-126330128D01*
X84259211Y-126408768D01*
X84179256Y-126466859D01*
X84119072Y-126510586D01*
X84119070Y-126510588D01*
X84119069Y-126510588D01*
X83996588Y-126633069D01*
X83996588Y-126633070D01*
X83996586Y-126633072D01*
X83952859Y-126693256D01*
X83894768Y-126773211D01*
X83816128Y-126927552D01*
X83762597Y-127092302D01*
X83735500Y-127263389D01*
X83735500Y-127436611D01*
X83762598Y-127607701D01*
X83816127Y-127772445D01*
X83894768Y-127926788D01*
X83996586Y-128066928D01*
X84119072Y-128189414D01*
X84259212Y-128291232D01*
X84413555Y-128369873D01*
X84578299Y-128423402D01*
X84749389Y-128450500D01*
X84749390Y-128450500D01*
X84922610Y-128450500D01*
X84922611Y-128450500D01*
X85093701Y-128423402D01*
X85258445Y-128369873D01*
X85412788Y-128291232D01*
X85552928Y-128189414D01*
X85675414Y-128066928D01*
X85777232Y-127926788D01*
X85855873Y-127772445D01*
X85909402Y-127607701D01*
X85936500Y-127436611D01*
X85936500Y-127263389D01*
X85909402Y-127092299D01*
X85855873Y-126927555D01*
X85777232Y-126773212D01*
X85675414Y-126633072D01*
X85552928Y-126510586D01*
X85412788Y-126408768D01*
X85258446Y-126330127D01*
X85255284Y-126329100D01*
X85254236Y-126328383D01*
X85253952Y-126328266D01*
X85253976Y-126328206D01*
X85197609Y-126289661D01*
X85170413Y-126225302D01*
X85182329Y-126156456D01*
X85229574Y-126104981D01*
X85255288Y-126093239D01*
X85354215Y-126061096D01*
X85543554Y-125964622D01*
X85597716Y-125925270D01*
X85597717Y-125925270D01*
X84965408Y-125292962D01*
X85028993Y-125275925D01*
X85143007Y-125210099D01*
X85236099Y-125117007D01*
X85301925Y-125002993D01*
X85318962Y-124939408D01*
X85951270Y-125571717D01*
X85951270Y-125571716D01*
X85990622Y-125517554D01*
X86087095Y-125328217D01*
X86152757Y-125126130D01*
X86152757Y-125126127D01*
X86186000Y-124916246D01*
X86186000Y-124703753D01*
X86152757Y-124493872D01*
X86152757Y-124493869D01*
X86087095Y-124291782D01*
X85990624Y-124102449D01*
X85951270Y-124048282D01*
X85951269Y-124048282D01*
X85318962Y-124680590D01*
X85301925Y-124617007D01*
X85236099Y-124502993D01*
X85143007Y-124409901D01*
X85028993Y-124344075D01*
X84965409Y-124327037D01*
X85597716Y-123694728D01*
X85543550Y-123655375D01*
X85354217Y-123558904D01*
X85255287Y-123526760D01*
X85197611Y-123487323D01*
X85170413Y-123422964D01*
X85182328Y-123354118D01*
X85229572Y-123302642D01*
X85255290Y-123290897D01*
X85258445Y-123289873D01*
X85412788Y-123211232D01*
X85552928Y-123109414D01*
X85675414Y-122986928D01*
X85777232Y-122846788D01*
X85855873Y-122692445D01*
X85909402Y-122527701D01*
X85936500Y-122356611D01*
X85936500Y-122183389D01*
X85909402Y-122012299D01*
X85884282Y-121934989D01*
X92117500Y-121934989D01*
X92117500Y-122108211D01*
X92144598Y-122279301D01*
X92198127Y-122444045D01*
X92276768Y-122598388D01*
X92378586Y-122738528D01*
X92501072Y-122861014D01*
X92641212Y-122962832D01*
X92795555Y-123041473D01*
X92960299Y-123095002D01*
X93131389Y-123122100D01*
X93131390Y-123122100D01*
X93304610Y-123122100D01*
X93304611Y-123122100D01*
X93475701Y-123095002D01*
X93640445Y-123041473D01*
X93794788Y-122962832D01*
X93934928Y-122861014D01*
X94057414Y-122738528D01*
X94159232Y-122598388D01*
X94237873Y-122444045D01*
X94291402Y-122279301D01*
X94318500Y-122108211D01*
X94318500Y-121934989D01*
X110151500Y-121934989D01*
X110151500Y-122108211D01*
X110178598Y-122279301D01*
X110232127Y-122444045D01*
X110310768Y-122598388D01*
X110412586Y-122738528D01*
X110535072Y-122861014D01*
X110675212Y-122962832D01*
X110829555Y-123041473D01*
X110994299Y-123095002D01*
X111165389Y-123122100D01*
X111165390Y-123122100D01*
X111338610Y-123122100D01*
X111338611Y-123122100D01*
X111509701Y-123095002D01*
X111674445Y-123041473D01*
X111828788Y-122962832D01*
X111968928Y-122861014D01*
X112091414Y-122738528D01*
X112193232Y-122598388D01*
X112271873Y-122444045D01*
X112325402Y-122279301D01*
X112352500Y-122108211D01*
X112352500Y-121934989D01*
X112325402Y-121763899D01*
X112271873Y-121599155D01*
X112193232Y-121444812D01*
X112091414Y-121304672D01*
X111968928Y-121182186D01*
X111828788Y-121080368D01*
X111674445Y-121001727D01*
X111509701Y-120948198D01*
X111509699Y-120948197D01*
X111509698Y-120948197D01*
X111378271Y-120927381D01*
X111338611Y-120921100D01*
X111165389Y-120921100D01*
X111125728Y-120927381D01*
X110994302Y-120948197D01*
X110829552Y-121001728D01*
X110675211Y-121080368D01*
X110595256Y-121138459D01*
X110535072Y-121182186D01*
X110535070Y-121182188D01*
X110535069Y-121182188D01*
X110412588Y-121304669D01*
X110412588Y-121304670D01*
X110412586Y-121304672D01*
X110368859Y-121364856D01*
X110310768Y-121444811D01*
X110232128Y-121599152D01*
X110178597Y-121763902D01*
X110165348Y-121847555D01*
X110151500Y-121934989D01*
X94318500Y-121934989D01*
X94291402Y-121763899D01*
X94237873Y-121599155D01*
X94159232Y-121444812D01*
X94057414Y-121304672D01*
X93934928Y-121182186D01*
X93794788Y-121080368D01*
X93640445Y-121001727D01*
X93475701Y-120948198D01*
X93475699Y-120948197D01*
X93475698Y-120948197D01*
X93344271Y-120927381D01*
X93304611Y-120921100D01*
X93131389Y-120921100D01*
X93091728Y-120927381D01*
X92960302Y-120948197D01*
X92795552Y-121001728D01*
X92641211Y-121080368D01*
X92561256Y-121138459D01*
X92501072Y-121182186D01*
X92501070Y-121182188D01*
X92501069Y-121182188D01*
X92378588Y-121304669D01*
X92378588Y-121304670D01*
X92378586Y-121304672D01*
X92334859Y-121364856D01*
X92276768Y-121444811D01*
X92198128Y-121599152D01*
X92144597Y-121763902D01*
X92131348Y-121847555D01*
X92117500Y-121934989D01*
X85884282Y-121934989D01*
X85855873Y-121847555D01*
X85777232Y-121693212D01*
X85675414Y-121553072D01*
X85552928Y-121430586D01*
X85412788Y-121328768D01*
X85258445Y-121250127D01*
X85093701Y-121196598D01*
X85093699Y-121196597D01*
X85093698Y-121196597D01*
X84962271Y-121175781D01*
X84922611Y-121169500D01*
X84749389Y-121169500D01*
X84709728Y-121175781D01*
X84578302Y-121196597D01*
X84413552Y-121250128D01*
X84259211Y-121328768D01*
X84179256Y-121386859D01*
X84119072Y-121430586D01*
X84119070Y-121430588D01*
X84119069Y-121430588D01*
X83996588Y-121553069D01*
X83996588Y-121553070D01*
X83996586Y-121553072D01*
X83963107Y-121599152D01*
X83894768Y-121693211D01*
X83816128Y-121847552D01*
X83762597Y-122012302D01*
X83735500Y-122183389D01*
X83735500Y-122356610D01*
X83749348Y-122444047D01*
X83762598Y-122527701D01*
X83816127Y-122692445D01*
X83894768Y-122846788D01*
X83996586Y-122986928D01*
X84119072Y-123109414D01*
X84259212Y-123211232D01*
X84413555Y-123289873D01*
X84416708Y-123290897D01*
X84417752Y-123291611D01*
X84418048Y-123291734D01*
X84418022Y-123291795D01*
X84474383Y-123330330D01*
X84501585Y-123394688D01*
X84489674Y-123463535D01*
X84442433Y-123515013D01*
X84416712Y-123526760D01*
X84317783Y-123558904D01*
X84128439Y-123655380D01*
X84074282Y-123694727D01*
X84074282Y-123694728D01*
X84706591Y-124327037D01*
X84643007Y-124344075D01*
X84528993Y-124409901D01*
X84435901Y-124502993D01*
X84370075Y-124617007D01*
X84353037Y-124680591D01*
X83720728Y-124048282D01*
X83720727Y-124048282D01*
X83681380Y-124102439D01*
X83584904Y-124291782D01*
X83519242Y-124493869D01*
X83519242Y-124493872D01*
X83486000Y-124703753D01*
X57862500Y-124703753D01*
X57862500Y-119643389D01*
X83735500Y-119643389D01*
X83735500Y-119816610D01*
X83749348Y-119904047D01*
X83762598Y-119987701D01*
X83816127Y-120152445D01*
X83894768Y-120306788D01*
X83996586Y-120446928D01*
X84119072Y-120569414D01*
X84259212Y-120671232D01*
X84413555Y-120749873D01*
X84578299Y-120803402D01*
X84749389Y-120830500D01*
X84749390Y-120830500D01*
X84922610Y-120830500D01*
X84922611Y-120830500D01*
X85093701Y-120803402D01*
X85258445Y-120749873D01*
X85412788Y-120671232D01*
X85552928Y-120569414D01*
X85675414Y-120446928D01*
X85777232Y-120306788D01*
X85855873Y-120152445D01*
X85909402Y-119987701D01*
X85936500Y-119816611D01*
X85936500Y-119643389D01*
X85909402Y-119472299D01*
X85884282Y-119394989D01*
X92117500Y-119394989D01*
X92117500Y-119568211D01*
X92144598Y-119739301D01*
X92198127Y-119904045D01*
X92276768Y-120058388D01*
X92378586Y-120198528D01*
X92501072Y-120321014D01*
X92641212Y-120422832D01*
X92795555Y-120501473D01*
X92960299Y-120555002D01*
X93131389Y-120582100D01*
X93131390Y-120582100D01*
X93304610Y-120582100D01*
X93304611Y-120582100D01*
X93475701Y-120555002D01*
X93640445Y-120501473D01*
X93794788Y-120422832D01*
X93934928Y-120321014D01*
X94057414Y-120198528D01*
X94159232Y-120058388D01*
X94237873Y-119904045D01*
X94291402Y-119739301D01*
X94318500Y-119568211D01*
X94318500Y-119394989D01*
X110151500Y-119394989D01*
X110151500Y-119568211D01*
X110178598Y-119739301D01*
X110232127Y-119904045D01*
X110310768Y-120058388D01*
X110412586Y-120198528D01*
X110535072Y-120321014D01*
X110675212Y-120422832D01*
X110829555Y-120501473D01*
X110994299Y-120555002D01*
X111165389Y-120582100D01*
X111165390Y-120582100D01*
X111338610Y-120582100D01*
X111338611Y-120582100D01*
X111509701Y-120555002D01*
X111674445Y-120501473D01*
X111828788Y-120422832D01*
X111968928Y-120321014D01*
X112091414Y-120198528D01*
X112193232Y-120058388D01*
X112271873Y-119904045D01*
X112325402Y-119739301D01*
X112352500Y-119568211D01*
X112352500Y-119394989D01*
X112325402Y-119223899D01*
X112271873Y-119059155D01*
X112193232Y-118904812D01*
X112091414Y-118764672D01*
X111968928Y-118642186D01*
X111828788Y-118540368D01*
X111674445Y-118461727D01*
X111509701Y-118408198D01*
X111509699Y-118408197D01*
X111509698Y-118408197D01*
X111378271Y-118387381D01*
X111338611Y-118381100D01*
X111165389Y-118381100D01*
X111125728Y-118387381D01*
X110994302Y-118408197D01*
X110829552Y-118461728D01*
X110675211Y-118540368D01*
X110595256Y-118598459D01*
X110535072Y-118642186D01*
X110535070Y-118642188D01*
X110535069Y-118642188D01*
X110412588Y-118764669D01*
X110412588Y-118764670D01*
X110412586Y-118764672D01*
X110368859Y-118824856D01*
X110310768Y-118904811D01*
X110232128Y-119059152D01*
X110178597Y-119223902D01*
X110165348Y-119307555D01*
X110151500Y-119394989D01*
X94318500Y-119394989D01*
X94291402Y-119223899D01*
X94237873Y-119059155D01*
X94159232Y-118904812D01*
X94057414Y-118764672D01*
X93934928Y-118642186D01*
X93794788Y-118540368D01*
X93640445Y-118461727D01*
X93475701Y-118408198D01*
X93475699Y-118408197D01*
X93475698Y-118408197D01*
X93344271Y-118387381D01*
X93304611Y-118381100D01*
X93131389Y-118381100D01*
X93091728Y-118387381D01*
X92960302Y-118408197D01*
X92795552Y-118461728D01*
X92641211Y-118540368D01*
X92561256Y-118598459D01*
X92501072Y-118642186D01*
X92501070Y-118642188D01*
X92501069Y-118642188D01*
X92378588Y-118764669D01*
X92378588Y-118764670D01*
X92378586Y-118764672D01*
X92334859Y-118824856D01*
X92276768Y-118904811D01*
X92198128Y-119059152D01*
X92144597Y-119223902D01*
X92131348Y-119307555D01*
X92117500Y-119394989D01*
X85884282Y-119394989D01*
X85855873Y-119307555D01*
X85777232Y-119153212D01*
X85675414Y-119013072D01*
X85552928Y-118890586D01*
X85412788Y-118788768D01*
X85258445Y-118710127D01*
X85093701Y-118656598D01*
X85093699Y-118656597D01*
X85093698Y-118656597D01*
X84962271Y-118635781D01*
X84922611Y-118629500D01*
X84749389Y-118629500D01*
X84709728Y-118635781D01*
X84578302Y-118656597D01*
X84413552Y-118710128D01*
X84259211Y-118788768D01*
X84179256Y-118846859D01*
X84119072Y-118890586D01*
X84119070Y-118890588D01*
X84119069Y-118890588D01*
X83996588Y-119013069D01*
X83996588Y-119013070D01*
X83996586Y-119013072D01*
X83963107Y-119059152D01*
X83894768Y-119153211D01*
X83816128Y-119307552D01*
X83762597Y-119472302D01*
X83735500Y-119643389D01*
X57862500Y-119643389D01*
X57862500Y-117103389D01*
X83735500Y-117103389D01*
X83735500Y-117276610D01*
X83760587Y-117435009D01*
X83762598Y-117447701D01*
X83816127Y-117612445D01*
X83894768Y-117766788D01*
X83996586Y-117906928D01*
X84119072Y-118029414D01*
X84259212Y-118131232D01*
X84413555Y-118209873D01*
X84578299Y-118263402D01*
X84749389Y-118290500D01*
X84749390Y-118290500D01*
X84922610Y-118290500D01*
X84922611Y-118290500D01*
X85093701Y-118263402D01*
X85258445Y-118209873D01*
X85412788Y-118131232D01*
X85552928Y-118029414D01*
X85675414Y-117906928D01*
X85777232Y-117766788D01*
X85855873Y-117612445D01*
X85909402Y-117447701D01*
X85936500Y-117276611D01*
X85936500Y-117103389D01*
X85909402Y-116932299D01*
X85884282Y-116854989D01*
X92117500Y-116854989D01*
X92117500Y-117028210D01*
X92139196Y-117165198D01*
X92144598Y-117199301D01*
X92198127Y-117364045D01*
X92276768Y-117518388D01*
X92378586Y-117658528D01*
X92501072Y-117781014D01*
X92641212Y-117882832D01*
X92795555Y-117961473D01*
X92960299Y-118015002D01*
X93131389Y-118042100D01*
X93131390Y-118042100D01*
X93304610Y-118042100D01*
X93304611Y-118042100D01*
X93475701Y-118015002D01*
X93640445Y-117961473D01*
X93794788Y-117882832D01*
X93934928Y-117781014D01*
X94057414Y-117658528D01*
X94159232Y-117518388D01*
X94237873Y-117364045D01*
X94291402Y-117199301D01*
X94318500Y-117028211D01*
X94318500Y-116854989D01*
X94291402Y-116683899D01*
X94237873Y-116519155D01*
X94159232Y-116364812D01*
X94057414Y-116224672D01*
X93934928Y-116102186D01*
X93794788Y-116000368D01*
X93640445Y-115921727D01*
X93475701Y-115868198D01*
X93475699Y-115868197D01*
X93475698Y-115868197D01*
X93344271Y-115847381D01*
X93304611Y-115841100D01*
X93131389Y-115841100D01*
X93091728Y-115847381D01*
X92960302Y-115868197D01*
X92795552Y-115921728D01*
X92641211Y-116000368D01*
X92561256Y-116058459D01*
X92501072Y-116102186D01*
X92501070Y-116102188D01*
X92501069Y-116102188D01*
X92378588Y-116224669D01*
X92378588Y-116224670D01*
X92378586Y-116224672D01*
X92334859Y-116284856D01*
X92276768Y-116364811D01*
X92198128Y-116519152D01*
X92144597Y-116683902D01*
X92117500Y-116854989D01*
X85884282Y-116854989D01*
X85855873Y-116767555D01*
X85777232Y-116613212D01*
X85675414Y-116473072D01*
X85552928Y-116350586D01*
X85412788Y-116248768D01*
X85258445Y-116170127D01*
X85093701Y-116116598D01*
X85093699Y-116116597D01*
X85093698Y-116116597D01*
X84962271Y-116095781D01*
X84922611Y-116089500D01*
X84749389Y-116089500D01*
X84709728Y-116095781D01*
X84578302Y-116116597D01*
X84413552Y-116170128D01*
X84259211Y-116248768D01*
X84184319Y-116303181D01*
X84119072Y-116350586D01*
X84119070Y-116350588D01*
X84119069Y-116350588D01*
X83996588Y-116473069D01*
X83996588Y-116473070D01*
X83996586Y-116473072D01*
X83963107Y-116519152D01*
X83894768Y-116613211D01*
X83816128Y-116767552D01*
X83762597Y-116932302D01*
X83735500Y-117103389D01*
X57862500Y-117103389D01*
X57862500Y-113878711D01*
X67549500Y-113878711D01*
X67549500Y-114121288D01*
X67581161Y-114361785D01*
X67643947Y-114596104D01*
X67709063Y-114753307D01*
X67736776Y-114820212D01*
X67858064Y-115030289D01*
X67858066Y-115030292D01*
X67858067Y-115030293D01*
X68005733Y-115222736D01*
X68005739Y-115222743D01*
X68177256Y-115394260D01*
X68177263Y-115394266D01*
X68212720Y-115421473D01*
X68369711Y-115541936D01*
X68579788Y-115663224D01*
X68803900Y-115756054D01*
X69038211Y-115818838D01*
X69207311Y-115841100D01*
X69278711Y-115850500D01*
X69278712Y-115850500D01*
X69521289Y-115850500D01*
X69592689Y-115841100D01*
X69761789Y-115818838D01*
X69996100Y-115756054D01*
X70220212Y-115663224D01*
X70430289Y-115541936D01*
X70622738Y-115394265D01*
X70794265Y-115222738D01*
X70941936Y-115030289D01*
X71063224Y-114820212D01*
X71156054Y-114596100D01*
X71218838Y-114361789D01*
X71250500Y-114121288D01*
X71250500Y-113878712D01*
X71248455Y-113863182D01*
X71238218Y-113785419D01*
X71236889Y-113775321D01*
X83735500Y-113775321D01*
X83735500Y-115524678D01*
X83750032Y-115597735D01*
X83750033Y-115597739D01*
X83750034Y-115597740D01*
X83805399Y-115680601D01*
X83888260Y-115735966D01*
X83888264Y-115735967D01*
X83961321Y-115750499D01*
X83961324Y-115750500D01*
X83961326Y-115750500D01*
X85710676Y-115750500D01*
X85710677Y-115750499D01*
X85783740Y-115735966D01*
X85866601Y-115680601D01*
X85921966Y-115597740D01*
X85936500Y-115524674D01*
X85936500Y-113775326D01*
X85936500Y-113775323D01*
X85936499Y-113775321D01*
X85921967Y-113702264D01*
X85921966Y-113702260D01*
X85899454Y-113668568D01*
X85866601Y-113619399D01*
X85788369Y-113567127D01*
X85783739Y-113564033D01*
X85783735Y-113564032D01*
X85710677Y-113549500D01*
X85710674Y-113549500D01*
X83961326Y-113549500D01*
X83961323Y-113549500D01*
X83888264Y-113564032D01*
X83888260Y-113564033D01*
X83805399Y-113619399D01*
X83750033Y-113702260D01*
X83750032Y-113702264D01*
X83735500Y-113775321D01*
X71236889Y-113775321D01*
X71227501Y-113704015D01*
X71218838Y-113638211D01*
X71156054Y-113403900D01*
X71063224Y-113179788D01*
X70941936Y-112969711D01*
X70863584Y-112867600D01*
X70794266Y-112777263D01*
X70794260Y-112777256D01*
X70622743Y-112605739D01*
X70622736Y-112605733D01*
X70430293Y-112458067D01*
X70430292Y-112458066D01*
X70430289Y-112458064D01*
X70220212Y-112336776D01*
X70220198Y-112336770D01*
X69996104Y-112243947D01*
X69761811Y-112181168D01*
X69761789Y-112181162D01*
X69761788Y-112181161D01*
X69761785Y-112181161D01*
X69521289Y-112149500D01*
X69521288Y-112149500D01*
X69278712Y-112149500D01*
X69278711Y-112149500D01*
X69038214Y-112181161D01*
X68803895Y-112243947D01*
X68579794Y-112336773D01*
X68579785Y-112336777D01*
X68369706Y-112458067D01*
X68177263Y-112605733D01*
X68177256Y-112605739D01*
X68005739Y-112777256D01*
X68005733Y-112777263D01*
X67858067Y-112969706D01*
X67736777Y-113179785D01*
X67736773Y-113179794D01*
X67643947Y-113403895D01*
X67581161Y-113638214D01*
X67549500Y-113878711D01*
X57862500Y-113878711D01*
X57862500Y-108446921D01*
X92117500Y-108446921D01*
X92117500Y-110196278D01*
X92132032Y-110269335D01*
X92132033Y-110269339D01*
X92132034Y-110269340D01*
X92187399Y-110352201D01*
X92270260Y-110407566D01*
X92270264Y-110407567D01*
X92343321Y-110422099D01*
X92343324Y-110422100D01*
X92343326Y-110422100D01*
X94092676Y-110422100D01*
X94092677Y-110422099D01*
X94165740Y-110407566D01*
X94248601Y-110352201D01*
X94303966Y-110269340D01*
X94318500Y-110196274D01*
X94318500Y-108446926D01*
X94318500Y-108446923D01*
X94318499Y-108446921D01*
X94303967Y-108373864D01*
X94303966Y-108373860D01*
X94287376Y-108349031D01*
X94248601Y-108290999D01*
X94165740Y-108235634D01*
X94165739Y-108235633D01*
X94165735Y-108235632D01*
X94092677Y-108221100D01*
X94092674Y-108221100D01*
X92343326Y-108221100D01*
X92343323Y-108221100D01*
X92270264Y-108235632D01*
X92270260Y-108235633D01*
X92187399Y-108290999D01*
X92132033Y-108373860D01*
X92132032Y-108373864D01*
X92117500Y-108446921D01*
X57862500Y-108446921D01*
X57862500Y-99153200D01*
X76662800Y-99153200D01*
X83152800Y-99153200D01*
X83152800Y-81463200D01*
X76662800Y-81463200D01*
X76662800Y-99153200D01*
X57862500Y-99153200D01*
X57862500Y-72642130D01*
X72101500Y-72642130D01*
X72101500Y-72849069D01*
X72141868Y-73052012D01*
X72141870Y-73052020D01*
X72221058Y-73243196D01*
X72336024Y-73415257D01*
X72482340Y-73561573D01*
X72482343Y-73561575D01*
X72482345Y-73561577D01*
X72539768Y-73599945D01*
X72596390Y-73637778D01*
X72641196Y-73691391D01*
X72651500Y-73740881D01*
X72651500Y-76011891D01*
X72685608Y-76139187D01*
X72705246Y-76173200D01*
X72751500Y-76253314D01*
X76510700Y-80012514D01*
X76603886Y-80105700D01*
X76718014Y-80171592D01*
X76845308Y-80205700D01*
X126690524Y-80205700D01*
X126757563Y-80225385D01*
X126778205Y-80242019D01*
X129962289Y-83426103D01*
X129989165Y-83466321D01*
X129992215Y-83473682D01*
X129992216Y-83473685D01*
X130064691Y-83599215D01*
X130167185Y-83701709D01*
X130167186Y-83701710D01*
X130167188Y-83701711D01*
X130292711Y-83774182D01*
X130292712Y-83774182D01*
X130292715Y-83774184D01*
X130432725Y-83811700D01*
X130432728Y-83811700D01*
X130577672Y-83811700D01*
X130577675Y-83811700D01*
X130717685Y-83774184D01*
X130843215Y-83701709D01*
X130945709Y-83599215D01*
X131018184Y-83473685D01*
X131055700Y-83333675D01*
X131055700Y-83188725D01*
X131018184Y-83048715D01*
X130945709Y-82923185D01*
X130843215Y-82820691D01*
X130717685Y-82748216D01*
X130717682Y-82748215D01*
X130710321Y-82745165D01*
X130670103Y-82718289D01*
X127256516Y-79304702D01*
X127256514Y-79304700D01*
X127199450Y-79271754D01*
X127142387Y-79238808D01*
X127078739Y-79221754D01*
X127015092Y-79204700D01*
X127015091Y-79204700D01*
X115927593Y-79204700D01*
X115860554Y-79185015D01*
X115814799Y-79132211D01*
X115804855Y-79063053D01*
X115833880Y-78999497D01*
X115871298Y-78970215D01*
X115898963Y-78956118D01*
X115898969Y-78956114D01*
X115981904Y-78895858D01*
X115981905Y-78895858D01*
X115250374Y-78164328D01*
X115309653Y-78148445D01*
X115425947Y-78081302D01*
X115520902Y-77986347D01*
X115588045Y-77870053D01*
X115603928Y-77810775D01*
X116365981Y-78572828D01*
X116399466Y-78634151D01*
X116402300Y-78660509D01*
X116402300Y-78697878D01*
X116416832Y-78770935D01*
X116416833Y-78770939D01*
X116416834Y-78770940D01*
X116472199Y-78853801D01*
X116535143Y-78895858D01*
X116555060Y-78909166D01*
X116555064Y-78909167D01*
X116628121Y-78923699D01*
X116628124Y-78923700D01*
X116628126Y-78923700D01*
X118677476Y-78923700D01*
X118677477Y-78923699D01*
X118750540Y-78909166D01*
X118833401Y-78853801D01*
X118888766Y-78770940D01*
X118903300Y-78697874D01*
X118903300Y-76648526D01*
X118903300Y-76648523D01*
X118903299Y-76648521D01*
X118888767Y-76575464D01*
X118888766Y-76575460D01*
X118879186Y-76561122D01*
X118833401Y-76492599D01*
X118774869Y-76453490D01*
X118750539Y-76437233D01*
X118750535Y-76437232D01*
X118677477Y-76422700D01*
X118677474Y-76422700D01*
X116628126Y-76422700D01*
X116628123Y-76422700D01*
X116555064Y-76437232D01*
X116555060Y-76437233D01*
X116472199Y-76492599D01*
X116416833Y-76575460D01*
X116416832Y-76575464D01*
X116402300Y-76648521D01*
X116402300Y-76685890D01*
X116382615Y-76752929D01*
X116365981Y-76773571D01*
X115603928Y-77535624D01*
X115588045Y-77476347D01*
X115520902Y-77360053D01*
X115425947Y-77265098D01*
X115309653Y-77197955D01*
X115250374Y-77182071D01*
X115981905Y-76450540D01*
X115981904Y-76450538D01*
X115898974Y-76390287D01*
X115688602Y-76283097D01*
X115464047Y-76210134D01*
X115464048Y-76210134D01*
X115230852Y-76173200D01*
X114994748Y-76173200D01*
X114761552Y-76210134D01*
X114536997Y-76283097D01*
X114326630Y-76390284D01*
X114243694Y-76450540D01*
X114975225Y-77182071D01*
X114915947Y-77197955D01*
X114799653Y-77265098D01*
X114704698Y-77360053D01*
X114637555Y-77476347D01*
X114621671Y-77535625D01*
X113890140Y-76804094D01*
X113829883Y-76887032D01*
X113805270Y-76935338D01*
X113757296Y-76986133D01*
X113689475Y-77002928D01*
X113623340Y-76980390D01*
X113594469Y-76951929D01*
X113526628Y-76858554D01*
X113387446Y-76719372D01*
X113228205Y-76603676D01*
X113134606Y-76555985D01*
X113134259Y-76555807D01*
X113109033Y-76531833D01*
X113083810Y-76508010D01*
X113083761Y-76507814D01*
X113083614Y-76507674D01*
X113075342Y-76473817D01*
X113067015Y-76440189D01*
X113067080Y-76439997D01*
X113067032Y-76439800D01*
X113078351Y-76406920D01*
X113089552Y-76374054D01*
X113089710Y-76373927D01*
X113089777Y-76373736D01*
X113116992Y-76352262D01*
X113144267Y-76330603D01*
X113144502Y-76330557D01*
X113144629Y-76330457D01*
X113145397Y-76330382D01*
X113190901Y-76321500D01*
X113739835Y-76321500D01*
X113739836Y-76321500D01*
X113787586Y-76308705D01*
X113835338Y-76295910D01*
X113920962Y-76246475D01*
X113990875Y-76176562D01*
X115747307Y-74420130D01*
X128997500Y-74420130D01*
X128997500Y-74627069D01*
X129037868Y-74830012D01*
X129037870Y-74830020D01*
X129117058Y-75021196D01*
X129232024Y-75193257D01*
X129378342Y-75339575D01*
X129378345Y-75339577D01*
X129550402Y-75454541D01*
X129741580Y-75533730D01*
X129944530Y-75574099D01*
X129944534Y-75574100D01*
X129944535Y-75574100D01*
X130151466Y-75574100D01*
X130151467Y-75574099D01*
X130354420Y-75533730D01*
X130545598Y-75454541D01*
X130717655Y-75339577D01*
X130863977Y-75193255D01*
X130978941Y-75021198D01*
X131058130Y-74830020D01*
X131098500Y-74627065D01*
X131098500Y-74420135D01*
X131058130Y-74217180D01*
X131058128Y-74217175D01*
X131054118Y-74207493D01*
X131036985Y-74166130D01*
X134585500Y-74166130D01*
X134585500Y-74373069D01*
X134625868Y-74576012D01*
X134625870Y-74576020D01*
X134705058Y-74767196D01*
X134820024Y-74939257D01*
X134966342Y-75085575D01*
X134966345Y-75085577D01*
X135138402Y-75200541D01*
X135329580Y-75279730D01*
X135532530Y-75320099D01*
X135532534Y-75320100D01*
X135532535Y-75320100D01*
X135739466Y-75320100D01*
X135739467Y-75320099D01*
X135942420Y-75279730D01*
X136133598Y-75200541D01*
X136305655Y-75085577D01*
X136451977Y-74939255D01*
X136566941Y-74767198D01*
X136646130Y-74576020D01*
X136686500Y-74373065D01*
X136686500Y-74166135D01*
X136646130Y-73963180D01*
X136566941Y-73772002D01*
X136451977Y-73599945D01*
X136451975Y-73599942D01*
X136305657Y-73453624D01*
X136219626Y-73396141D01*
X136133598Y-73338659D01*
X135942420Y-73259470D01*
X135942412Y-73259468D01*
X135739469Y-73219100D01*
X135739465Y-73219100D01*
X135532535Y-73219100D01*
X135532530Y-73219100D01*
X135329587Y-73259468D01*
X135329579Y-73259470D01*
X135138403Y-73338658D01*
X134966342Y-73453624D01*
X134820024Y-73599942D01*
X134705058Y-73772003D01*
X134625870Y-73963179D01*
X134625868Y-73963187D01*
X134585500Y-74166130D01*
X131036985Y-74166130D01*
X130978942Y-74026003D01*
X130863975Y-73853942D01*
X130717657Y-73707624D01*
X130556502Y-73599945D01*
X130545598Y-73592659D01*
X130354420Y-73513470D01*
X130354412Y-73513468D01*
X130151469Y-73473100D01*
X130151465Y-73473100D01*
X129944535Y-73473100D01*
X129944530Y-73473100D01*
X129741587Y-73513468D01*
X129741579Y-73513470D01*
X129550403Y-73592658D01*
X129378342Y-73707624D01*
X129232024Y-73853942D01*
X129117058Y-74026003D01*
X129037870Y-74217179D01*
X129037868Y-74217187D01*
X128997500Y-74420130D01*
X115747307Y-74420130D01*
X128253609Y-61913828D01*
X128253610Y-61913827D01*
X128303045Y-61828203D01*
X128308008Y-61809679D01*
X128344370Y-61750022D01*
X128373964Y-61731253D01*
X128373846Y-61731048D01*
X128378772Y-61728203D01*
X128380344Y-61727207D01*
X128380874Y-61726986D01*
X128380885Y-61726984D01*
X128506415Y-61654509D01*
X128608909Y-61552015D01*
X128681384Y-61426485D01*
X128718900Y-61286475D01*
X128718900Y-61141525D01*
X128681384Y-61001515D01*
X128657005Y-60959290D01*
X128608911Y-60875988D01*
X128608906Y-60875982D01*
X128506417Y-60773493D01*
X128506411Y-60773488D01*
X128380888Y-60701017D01*
X128380889Y-60701017D01*
X128369406Y-60697940D01*
X128240875Y-60663500D01*
X128095925Y-60663500D01*
X127967393Y-60697940D01*
X127955911Y-60701017D01*
X127830388Y-60773488D01*
X127830382Y-60773493D01*
X127727893Y-60875982D01*
X127727888Y-60875988D01*
X127655417Y-61001511D01*
X127655416Y-61001515D01*
X127617900Y-61141525D01*
X127617900Y-61141527D01*
X127617900Y-61225683D01*
X127612734Y-61261102D01*
X127608571Y-61275065D01*
X127603225Y-61284327D01*
X127597450Y-61305880D01*
X127580648Y-61368587D01*
X127580212Y-61370212D01*
X127580203Y-61370244D01*
X127577635Y-61379829D01*
X127577635Y-61476365D01*
X127557950Y-61543404D01*
X127541316Y-61564046D01*
X121204310Y-67901051D01*
X121142987Y-67934536D01*
X121073295Y-67929552D01*
X121017362Y-67887680D01*
X120996856Y-67845468D01*
X120959784Y-67707115D01*
X120955733Y-67700099D01*
X120887311Y-67581588D01*
X120887306Y-67581582D01*
X120784817Y-67479093D01*
X120784811Y-67479088D01*
X120659288Y-67406617D01*
X120651929Y-67403569D01*
X120611702Y-67376689D01*
X114482800Y-61247786D01*
X114449315Y-61186463D01*
X114450705Y-61128013D01*
X114469500Y-61057875D01*
X114469500Y-60912925D01*
X114431984Y-60772915D01*
X114359509Y-60647385D01*
X114257015Y-60544891D01*
X114257013Y-60544890D01*
X114257011Y-60544888D01*
X114131488Y-60472417D01*
X114131489Y-60472417D01*
X114120006Y-60469340D01*
X113991475Y-60434900D01*
X113846525Y-60434900D01*
X113717993Y-60469340D01*
X113706511Y-60472417D01*
X113580988Y-60544888D01*
X113580982Y-60544893D01*
X113478493Y-60647382D01*
X113478488Y-60647388D01*
X113406017Y-60772911D01*
X113406016Y-60772915D01*
X113368500Y-60912925D01*
X113368500Y-61057875D01*
X113405823Y-61197163D01*
X113406017Y-61197888D01*
X113479080Y-61324436D01*
X113495553Y-61392336D01*
X113494700Y-61401867D01*
X113494700Y-61533891D01*
X113528808Y-61661187D01*
X113561754Y-61718250D01*
X113594700Y-61775314D01*
X113594701Y-61775315D01*
X113594702Y-61775316D01*
X119903889Y-68084502D01*
X119930769Y-68124729D01*
X119933817Y-68132088D01*
X120006288Y-68257611D01*
X120006290Y-68257613D01*
X120006291Y-68257615D01*
X120108785Y-68360109D01*
X120108786Y-68360110D01*
X120108788Y-68360111D01*
X120234311Y-68432582D01*
X120234312Y-68432582D01*
X120234315Y-68432584D01*
X120372666Y-68469655D01*
X120432324Y-68506019D01*
X120462853Y-68568866D01*
X120454558Y-68638242D01*
X120428251Y-68677110D01*
X120106976Y-68998385D01*
X120045653Y-69031870D01*
X119975961Y-69026886D01*
X119920028Y-68985014D01*
X119911908Y-68972704D01*
X119887097Y-68929731D01*
X119871309Y-68902385D01*
X119768815Y-68799891D01*
X119768813Y-68799890D01*
X119768811Y-68799888D01*
X119643288Y-68727417D01*
X119643289Y-68727417D01*
X119631806Y-68724340D01*
X119503275Y-68689900D01*
X119385475Y-68689900D01*
X119318436Y-68670215D01*
X119297794Y-68653581D01*
X108816116Y-58171902D01*
X108816115Y-58171901D01*
X108816114Y-58171900D01*
X108746817Y-58131891D01*
X108701987Y-58106008D01*
X108618342Y-58083596D01*
X108574692Y-58071900D01*
X108574691Y-58071900D01*
X98158889Y-58071900D01*
X98111438Y-58062462D01*
X98104086Y-58059416D01*
X98069082Y-58050037D01*
X97964075Y-58021900D01*
X97819125Y-58021900D01*
X97690593Y-58056340D01*
X97679111Y-58059417D01*
X97553588Y-58131888D01*
X97553582Y-58131893D01*
X97451093Y-58234382D01*
X97451088Y-58234388D01*
X97378617Y-58359911D01*
X97378616Y-58359915D01*
X97341100Y-58499925D01*
X97341100Y-58644875D01*
X97370083Y-58753039D01*
X97378617Y-58784888D01*
X97451088Y-58910411D01*
X97451090Y-58910413D01*
X97451091Y-58910415D01*
X97553585Y-59012909D01*
X97553586Y-59012910D01*
X97553588Y-59012911D01*
X97679111Y-59085382D01*
X97679112Y-59085382D01*
X97679115Y-59085384D01*
X97819125Y-59122900D01*
X97819128Y-59122900D01*
X97964072Y-59122900D01*
X97964075Y-59122900D01*
X98104085Y-59085384D01*
X98104088Y-59085381D01*
X98111438Y-59082338D01*
X98158889Y-59072900D01*
X108250124Y-59072900D01*
X108317163Y-59092585D01*
X108337805Y-59109219D01*
X118771959Y-69543372D01*
X118771969Y-69543383D01*
X118776299Y-69547713D01*
X118776300Y-69547714D01*
X118869486Y-69640900D01*
X118977912Y-69703500D01*
X118983614Y-69706792D01*
X119103424Y-69738895D01*
X119163084Y-69775259D01*
X119193613Y-69838106D01*
X119185318Y-69907481D01*
X119159011Y-69946350D01*
X113571182Y-75534181D01*
X113509859Y-75567666D01*
X113483501Y-75570500D01*
X109119764Y-75570500D01*
X109024263Y-75596089D01*
X109024260Y-75596090D01*
X108938640Y-75645522D01*
X108938635Y-75645526D01*
X108099783Y-76484377D01*
X108038460Y-76517862D01*
X107973784Y-76514627D01*
X107785628Y-76453491D01*
X107591222Y-76422700D01*
X107591217Y-76422700D01*
X107394383Y-76422700D01*
X107394378Y-76422700D01*
X107199973Y-76453490D01*
X107012770Y-76514317D01*
X106837394Y-76603676D01*
X106746541Y-76669685D01*
X106678154Y-76719372D01*
X106678152Y-76719374D01*
X106678151Y-76719374D01*
X106538974Y-76858551D01*
X106538974Y-76858552D01*
X106538972Y-76858554D01*
X106489285Y-76926941D01*
X106423276Y-77017794D01*
X106333285Y-77194413D01*
X106285311Y-77245209D01*
X106217490Y-77262004D01*
X106151355Y-77239467D01*
X106112315Y-77194413D01*
X106022323Y-77017794D01*
X105999320Y-76986133D01*
X105906628Y-76858554D01*
X105767446Y-76719372D01*
X105608205Y-76603676D01*
X105585462Y-76592088D01*
X105432829Y-76514317D01*
X105245626Y-76453490D01*
X105051222Y-76422700D01*
X105051217Y-76422700D01*
X104854383Y-76422700D01*
X104854378Y-76422700D01*
X104659973Y-76453490D01*
X104472770Y-76514317D01*
X104297394Y-76603676D01*
X104206541Y-76669685D01*
X104138154Y-76719372D01*
X104138152Y-76719374D01*
X104138151Y-76719374D01*
X103998974Y-76858551D01*
X103998974Y-76858552D01*
X103998972Y-76858554D01*
X103949285Y-76926941D01*
X103883276Y-77017794D01*
X103793285Y-77194413D01*
X103745311Y-77245209D01*
X103677490Y-77262004D01*
X103611355Y-77239467D01*
X103572315Y-77194413D01*
X103482323Y-77017794D01*
X103459320Y-76986133D01*
X103366628Y-76858554D01*
X103227446Y-76719372D01*
X103068205Y-76603676D01*
X103045462Y-76592088D01*
X102892829Y-76514317D01*
X102705626Y-76453490D01*
X102511222Y-76422700D01*
X102511217Y-76422700D01*
X102410899Y-76422700D01*
X102343860Y-76403015D01*
X102298105Y-76350211D01*
X102288161Y-76281053D01*
X102317186Y-76217497D01*
X102323218Y-76211019D01*
X106095058Y-72439179D01*
X110079275Y-68454962D01*
X110128711Y-68369337D01*
X110154300Y-68273836D01*
X110154300Y-68174964D01*
X110154300Y-63039986D01*
X110173985Y-62972947D01*
X110190619Y-62952305D01*
X110219309Y-62923615D01*
X110291784Y-62798085D01*
X110329300Y-62658075D01*
X110329300Y-62513125D01*
X110291784Y-62373115D01*
X110219309Y-62247585D01*
X110116815Y-62145091D01*
X110116813Y-62145090D01*
X110116811Y-62145088D01*
X109991288Y-62072617D01*
X109991289Y-62072617D01*
X109965120Y-62065605D01*
X109851275Y-62035100D01*
X109706325Y-62035100D01*
X109592480Y-62065605D01*
X109566311Y-62072617D01*
X109440788Y-62145088D01*
X109440782Y-62145093D01*
X109338293Y-62247582D01*
X109338288Y-62247588D01*
X109265817Y-62373111D01*
X109265816Y-62373115D01*
X109228300Y-62513125D01*
X109228300Y-62658075D01*
X109265816Y-62798085D01*
X109265817Y-62798088D01*
X109338288Y-62923611D01*
X109338293Y-62923617D01*
X109366981Y-62952305D01*
X109400466Y-63013628D01*
X109403300Y-63039986D01*
X109403300Y-68017501D01*
X109383615Y-68084540D01*
X109366981Y-68105182D01*
X101836382Y-75635781D01*
X101775059Y-75669266D01*
X101748701Y-75672100D01*
X91238164Y-75672100D01*
X91142661Y-75697689D01*
X91057038Y-75747125D01*
X91057035Y-75747127D01*
X90319784Y-76484377D01*
X90258461Y-76517862D01*
X90193785Y-76514627D01*
X90005628Y-76453491D01*
X89811222Y-76422700D01*
X89811217Y-76422700D01*
X89614383Y-76422700D01*
X89614378Y-76422700D01*
X89419973Y-76453490D01*
X89232770Y-76514317D01*
X89057394Y-76603676D01*
X88966541Y-76669685D01*
X88898154Y-76719372D01*
X88898152Y-76719374D01*
X88898151Y-76719374D01*
X88758974Y-76858551D01*
X88758974Y-76858552D01*
X88758972Y-76858554D01*
X88709285Y-76926941D01*
X88643276Y-77017794D01*
X88553285Y-77194413D01*
X88505311Y-77245209D01*
X88437490Y-77262004D01*
X88371355Y-77239467D01*
X88332315Y-77194413D01*
X88242323Y-77017794D01*
X88219320Y-76986133D01*
X88126628Y-76858554D01*
X87987446Y-76719372D01*
X87828205Y-76603676D01*
X87805462Y-76592088D01*
X87652829Y-76514317D01*
X87583181Y-76491687D01*
X87525506Y-76452248D01*
X87498308Y-76387890D01*
X87497500Y-76373756D01*
X87497500Y-69851366D01*
X87497500Y-69851365D01*
X87497500Y-69851364D01*
X87471911Y-69755863D01*
X87422475Y-69670238D01*
X82577363Y-64825126D01*
X82577362Y-64825125D01*
X82491738Y-64775690D01*
X82443986Y-64762895D01*
X82443984Y-64762894D01*
X82443982Y-64762893D01*
X82396236Y-64750100D01*
X82396235Y-64750100D01*
X79296370Y-64750100D01*
X79229331Y-64730415D01*
X79183576Y-64677611D01*
X79181809Y-64673553D01*
X79162941Y-64628003D01*
X79162941Y-64628002D01*
X79047977Y-64455945D01*
X79047975Y-64455942D01*
X78901657Y-64309624D01*
X78815626Y-64252141D01*
X78729598Y-64194659D01*
X78538420Y-64115470D01*
X78538412Y-64115468D01*
X78335469Y-64075100D01*
X78335465Y-64075100D01*
X78128535Y-64075100D01*
X78128530Y-64075100D01*
X77925587Y-64115468D01*
X77925579Y-64115470D01*
X77734403Y-64194658D01*
X77562342Y-64309624D01*
X77416024Y-64455942D01*
X77301058Y-64628003D01*
X77221870Y-64819179D01*
X77221868Y-64819187D01*
X77181500Y-65022130D01*
X77181500Y-65229069D01*
X77221868Y-65432012D01*
X77221870Y-65432020D01*
X77301058Y-65623196D01*
X77416024Y-65795257D01*
X77562342Y-65941575D01*
X77562345Y-65941577D01*
X77734402Y-66056541D01*
X77925580Y-66135730D01*
X78128530Y-66176099D01*
X78128534Y-66176100D01*
X78128535Y-66176100D01*
X78335466Y-66176100D01*
X78335467Y-66176099D01*
X78538420Y-66135730D01*
X78729598Y-66056541D01*
X78901655Y-65941577D01*
X79047977Y-65795255D01*
X79162941Y-65623198D01*
X79181809Y-65577647D01*
X79225650Y-65523244D01*
X79291944Y-65501179D01*
X79296370Y-65501100D01*
X82139901Y-65501100D01*
X82206940Y-65520785D01*
X82227582Y-65537419D01*
X86710181Y-70020018D01*
X86743666Y-70081341D01*
X86746500Y-70107699D01*
X86746500Y-76410953D01*
X86726815Y-76477992D01*
X86678795Y-76521438D01*
X86517394Y-76603676D01*
X86426541Y-76669685D01*
X86358154Y-76719372D01*
X86358152Y-76719374D01*
X86358151Y-76719374D01*
X86218974Y-76858551D01*
X86218974Y-76858552D01*
X86218972Y-76858554D01*
X86169285Y-76926941D01*
X86103276Y-77017794D01*
X86013285Y-77194413D01*
X85965311Y-77245209D01*
X85897490Y-77262004D01*
X85831355Y-77239467D01*
X85792315Y-77194413D01*
X85702323Y-77017794D01*
X85679320Y-76986133D01*
X85586628Y-76858554D01*
X85447446Y-76719372D01*
X85288205Y-76603676D01*
X85265462Y-76592088D01*
X85112829Y-76514317D01*
X84925626Y-76453490D01*
X84731222Y-76422700D01*
X84731217Y-76422700D01*
X84534383Y-76422700D01*
X84534378Y-76422700D01*
X84339973Y-76453490D01*
X84152770Y-76514317D01*
X83977394Y-76603676D01*
X83886541Y-76669685D01*
X83818154Y-76719372D01*
X83818152Y-76719374D01*
X83818151Y-76719374D01*
X83678974Y-76858551D01*
X83678974Y-76858552D01*
X83678972Y-76858554D01*
X83629285Y-76926941D01*
X83563276Y-77017794D01*
X83473285Y-77194413D01*
X83425311Y-77245209D01*
X83357490Y-77262004D01*
X83291355Y-77239467D01*
X83252315Y-77194413D01*
X83162323Y-77017794D01*
X83139320Y-76986133D01*
X83046628Y-76858554D01*
X82907446Y-76719372D01*
X82748205Y-76603676D01*
X82725462Y-76592088D01*
X82572829Y-76514317D01*
X82385626Y-76453490D01*
X82191222Y-76422700D01*
X82191217Y-76422700D01*
X81994383Y-76422700D01*
X81994378Y-76422700D01*
X81799973Y-76453490D01*
X81612770Y-76514317D01*
X81437394Y-76603676D01*
X81346541Y-76669685D01*
X81278154Y-76719372D01*
X81278152Y-76719374D01*
X81278151Y-76719374D01*
X81138974Y-76858551D01*
X81138974Y-76858552D01*
X81138972Y-76858554D01*
X81089285Y-76926941D01*
X81023276Y-77017794D01*
X80933917Y-77193170D01*
X80873090Y-77380373D01*
X80842300Y-77574777D01*
X80842300Y-77771622D01*
X80873090Y-77966026D01*
X80933917Y-78153229D01*
X81023275Y-78328603D01*
X81023276Y-78328605D01*
X81138972Y-78487846D01*
X81278154Y-78627028D01*
X81437395Y-78742724D01*
X81520255Y-78784943D01*
X81612770Y-78832082D01*
X81612772Y-78832082D01*
X81612775Y-78832084D01*
X81679610Y-78853800D01*
X81799973Y-78892909D01*
X81994378Y-78923700D01*
X81994383Y-78923700D01*
X82191222Y-78923700D01*
X82385626Y-78892909D01*
X82572825Y-78832084D01*
X82748205Y-78742724D01*
X82907446Y-78627028D01*
X83046628Y-78487846D01*
X83162324Y-78328605D01*
X83251684Y-78153225D01*
X83252315Y-78151987D01*
X83300289Y-78101190D01*
X83368110Y-78084395D01*
X83434245Y-78106932D01*
X83473285Y-78151987D01*
X83563274Y-78328603D01*
X83598034Y-78376446D01*
X83678972Y-78487846D01*
X83818154Y-78627028D01*
X83977395Y-78742724D01*
X84060255Y-78784943D01*
X84152770Y-78832082D01*
X84152772Y-78832082D01*
X84152775Y-78832084D01*
X84219610Y-78853800D01*
X84339973Y-78892909D01*
X84534378Y-78923700D01*
X84534383Y-78923700D01*
X84731222Y-78923700D01*
X84925626Y-78892909D01*
X85112825Y-78832084D01*
X85288205Y-78742724D01*
X85447446Y-78627028D01*
X85586628Y-78487846D01*
X85702324Y-78328605D01*
X85791684Y-78153225D01*
X85792315Y-78151987D01*
X85840289Y-78101190D01*
X85908110Y-78084395D01*
X85974245Y-78106932D01*
X86013285Y-78151987D01*
X86103274Y-78328603D01*
X86138034Y-78376446D01*
X86218972Y-78487846D01*
X86358154Y-78627028D01*
X86517395Y-78742724D01*
X86600255Y-78784943D01*
X86692770Y-78832082D01*
X86692772Y-78832082D01*
X86692775Y-78832084D01*
X86759610Y-78853800D01*
X86879973Y-78892909D01*
X87074378Y-78923700D01*
X87074383Y-78923700D01*
X87271222Y-78923700D01*
X87465626Y-78892909D01*
X87652825Y-78832084D01*
X87828205Y-78742724D01*
X87987446Y-78627028D01*
X88126628Y-78487846D01*
X88242324Y-78328605D01*
X88331684Y-78153225D01*
X88332315Y-78151987D01*
X88380289Y-78101190D01*
X88448110Y-78084395D01*
X88514245Y-78106932D01*
X88553285Y-78151987D01*
X88643274Y-78328603D01*
X88678034Y-78376446D01*
X88758972Y-78487846D01*
X88898154Y-78627028D01*
X89057395Y-78742724D01*
X89140255Y-78784943D01*
X89232770Y-78832082D01*
X89232772Y-78832082D01*
X89232775Y-78832084D01*
X89299610Y-78853800D01*
X89419973Y-78892909D01*
X89614378Y-78923700D01*
X89614383Y-78923700D01*
X89811222Y-78923700D01*
X90005626Y-78892909D01*
X90192825Y-78832084D01*
X90368205Y-78742724D01*
X90527446Y-78627028D01*
X90666628Y-78487846D01*
X90782324Y-78328605D01*
X90871684Y-78153225D01*
X90872315Y-78151987D01*
X90920289Y-78101190D01*
X90988110Y-78084395D01*
X91054245Y-78106932D01*
X91093285Y-78151987D01*
X91183274Y-78328603D01*
X91218034Y-78376446D01*
X91298972Y-78487846D01*
X91438154Y-78627028D01*
X91597395Y-78742724D01*
X91680255Y-78784943D01*
X91772770Y-78832082D01*
X91772772Y-78832082D01*
X91772775Y-78832084D01*
X91839610Y-78853800D01*
X91959973Y-78892909D01*
X92154378Y-78923700D01*
X92154383Y-78923700D01*
X92351222Y-78923700D01*
X92545626Y-78892909D01*
X92732825Y-78832084D01*
X92908205Y-78742724D01*
X93067446Y-78627028D01*
X93206628Y-78487846D01*
X93322324Y-78328605D01*
X93411684Y-78153225D01*
X93412315Y-78151987D01*
X93460289Y-78101190D01*
X93528110Y-78084395D01*
X93594245Y-78106932D01*
X93633285Y-78151987D01*
X93723274Y-78328603D01*
X93758034Y-78376446D01*
X93838972Y-78487846D01*
X93978154Y-78627028D01*
X94137395Y-78742724D01*
X94220255Y-78784943D01*
X94312770Y-78832082D01*
X94312772Y-78832082D01*
X94312775Y-78832084D01*
X94379610Y-78853800D01*
X94499973Y-78892909D01*
X94694378Y-78923700D01*
X94694383Y-78923700D01*
X94891222Y-78923700D01*
X95085626Y-78892909D01*
X95272825Y-78832084D01*
X95448205Y-78742724D01*
X95607446Y-78627028D01*
X95746628Y-78487846D01*
X95862324Y-78328605D01*
X95951684Y-78153225D01*
X95952315Y-78151987D01*
X96000289Y-78101190D01*
X96068110Y-78084395D01*
X96134245Y-78106932D01*
X96173285Y-78151987D01*
X96263274Y-78328603D01*
X96298034Y-78376446D01*
X96378972Y-78487846D01*
X96518154Y-78627028D01*
X96677395Y-78742724D01*
X96760255Y-78784943D01*
X96852770Y-78832082D01*
X96852772Y-78832082D01*
X96852775Y-78832084D01*
X96919610Y-78853800D01*
X97039973Y-78892909D01*
X97234378Y-78923700D01*
X97234383Y-78923700D01*
X97431222Y-78923700D01*
X97625626Y-78892909D01*
X97812825Y-78832084D01*
X97988205Y-78742724D01*
X98147446Y-78627028D01*
X98286628Y-78487846D01*
X98402324Y-78328605D01*
X98491684Y-78153225D01*
X98492315Y-78151987D01*
X98540289Y-78101190D01*
X98608110Y-78084395D01*
X98674245Y-78106932D01*
X98713285Y-78151987D01*
X98803274Y-78328603D01*
X98838034Y-78376446D01*
X98918972Y-78487846D01*
X99058154Y-78627028D01*
X99217395Y-78742724D01*
X99300255Y-78784943D01*
X99392770Y-78832082D01*
X99392772Y-78832082D01*
X99392775Y-78832084D01*
X99459610Y-78853800D01*
X99579973Y-78892909D01*
X99774378Y-78923700D01*
X99774383Y-78923700D01*
X99971222Y-78923700D01*
X100165626Y-78892909D01*
X100352825Y-78832084D01*
X100528205Y-78742724D01*
X100687446Y-78627028D01*
X100826628Y-78487846D01*
X100942324Y-78328605D01*
X101031684Y-78153225D01*
X101032315Y-78151987D01*
X101080289Y-78101190D01*
X101148110Y-78084395D01*
X101214245Y-78106932D01*
X101253285Y-78151987D01*
X101343274Y-78328603D01*
X101378034Y-78376446D01*
X101458972Y-78487846D01*
X101598154Y-78627028D01*
X101757395Y-78742724D01*
X101840255Y-78784943D01*
X101932770Y-78832082D01*
X101932772Y-78832082D01*
X101932775Y-78832084D01*
X101999610Y-78853800D01*
X102119973Y-78892909D01*
X102314378Y-78923700D01*
X102314383Y-78923700D01*
X102511222Y-78923700D01*
X102705626Y-78892909D01*
X102892825Y-78832084D01*
X103068205Y-78742724D01*
X103227446Y-78627028D01*
X103366628Y-78487846D01*
X103482324Y-78328605D01*
X103571684Y-78153225D01*
X103572315Y-78151987D01*
X103620289Y-78101190D01*
X103688110Y-78084395D01*
X103754245Y-78106932D01*
X103793285Y-78151987D01*
X103883274Y-78328603D01*
X103918034Y-78376446D01*
X103998972Y-78487846D01*
X104138154Y-78627028D01*
X104297395Y-78742724D01*
X104380255Y-78784943D01*
X104472770Y-78832082D01*
X104472772Y-78832082D01*
X104472775Y-78832084D01*
X104539610Y-78853800D01*
X104659973Y-78892909D01*
X104854378Y-78923700D01*
X104854383Y-78923700D01*
X105051222Y-78923700D01*
X105245626Y-78892909D01*
X105432825Y-78832084D01*
X105608205Y-78742724D01*
X105767446Y-78627028D01*
X105906628Y-78487846D01*
X106022324Y-78328605D01*
X106111684Y-78153225D01*
X106112315Y-78151987D01*
X106160289Y-78101190D01*
X106228110Y-78084395D01*
X106294245Y-78106932D01*
X106333285Y-78151987D01*
X106423274Y-78328603D01*
X106458034Y-78376446D01*
X106538972Y-78487846D01*
X106678154Y-78627028D01*
X106837395Y-78742724D01*
X106920255Y-78784943D01*
X107012770Y-78832082D01*
X107012772Y-78832082D01*
X107012775Y-78832084D01*
X107079610Y-78853800D01*
X107199973Y-78892909D01*
X107394378Y-78923700D01*
X107394383Y-78923700D01*
X107591222Y-78923700D01*
X107785626Y-78892909D01*
X107972825Y-78832084D01*
X108148205Y-78742724D01*
X108307446Y-78627028D01*
X108446628Y-78487846D01*
X108562324Y-78328605D01*
X108651684Y-78153225D01*
X108652315Y-78151987D01*
X108700289Y-78101190D01*
X108768110Y-78084395D01*
X108834245Y-78106932D01*
X108873285Y-78151987D01*
X108963274Y-78328603D01*
X108998034Y-78376446D01*
X109078972Y-78487846D01*
X109218154Y-78627028D01*
X109377395Y-78742724D01*
X109460255Y-78784943D01*
X109552770Y-78832082D01*
X109552772Y-78832082D01*
X109552775Y-78832084D01*
X109619610Y-78853800D01*
X109739973Y-78892909D01*
X109934378Y-78923700D01*
X109934383Y-78923700D01*
X110131222Y-78923700D01*
X110325626Y-78892909D01*
X110512825Y-78832084D01*
X110688205Y-78742724D01*
X110847446Y-78627028D01*
X110986628Y-78487846D01*
X111102324Y-78328605D01*
X111191684Y-78153225D01*
X111192315Y-78151987D01*
X111240289Y-78101190D01*
X111308110Y-78084395D01*
X111374245Y-78106932D01*
X111413285Y-78151987D01*
X111503274Y-78328603D01*
X111538034Y-78376446D01*
X111618972Y-78487846D01*
X111758154Y-78627028D01*
X111917395Y-78742724D01*
X112000255Y-78784943D01*
X112092770Y-78832082D01*
X112092772Y-78832082D01*
X112092775Y-78832084D01*
X112159610Y-78853800D01*
X112279973Y-78892909D01*
X112474378Y-78923700D01*
X112474383Y-78923700D01*
X112671222Y-78923700D01*
X112865626Y-78892909D01*
X113052825Y-78832084D01*
X113228205Y-78742724D01*
X113387446Y-78627028D01*
X113526628Y-78487846D01*
X113594469Y-78394471D01*
X113649798Y-78351806D01*
X113719411Y-78345827D01*
X113781206Y-78378433D01*
X113805271Y-78411063D01*
X113829885Y-78459372D01*
X113890138Y-78542304D01*
X113890140Y-78542305D01*
X114621671Y-77810774D01*
X114637555Y-77870053D01*
X114704698Y-77986347D01*
X114799653Y-78081302D01*
X114915947Y-78148445D01*
X114975225Y-78164328D01*
X114243693Y-78895858D01*
X114326628Y-78956114D01*
X114354302Y-78970215D01*
X114405098Y-79018190D01*
X114421893Y-79086011D01*
X114399356Y-79152146D01*
X114344640Y-79195597D01*
X114298007Y-79204700D01*
X77169876Y-79204700D01*
X77102837Y-79185015D01*
X77082195Y-79168381D01*
X73688819Y-75775005D01*
X73655334Y-75713682D01*
X73652500Y-75687324D01*
X73652500Y-73740881D01*
X73672185Y-73673842D01*
X73707610Y-73637778D01*
X73821655Y-73561577D01*
X73967977Y-73415255D01*
X74082941Y-73243198D01*
X74162130Y-73052020D01*
X74202500Y-72849065D01*
X74202500Y-72642135D01*
X74202499Y-72642130D01*
X77181500Y-72642130D01*
X77181500Y-72849069D01*
X77221868Y-73052012D01*
X77221870Y-73052020D01*
X77301058Y-73243196D01*
X77416024Y-73415257D01*
X77562342Y-73561575D01*
X77562345Y-73561577D01*
X77734402Y-73676541D01*
X77925580Y-73755730D01*
X78128530Y-73796099D01*
X78128534Y-73796100D01*
X78128535Y-73796100D01*
X78335466Y-73796100D01*
X78335467Y-73796099D01*
X78538420Y-73755730D01*
X78729598Y-73676541D01*
X78901655Y-73561577D01*
X79047977Y-73415255D01*
X79162941Y-73243198D01*
X79242130Y-73052020D01*
X79282500Y-72849065D01*
X79282500Y-72642135D01*
X79242130Y-72439180D01*
X79162941Y-72248002D01*
X79047977Y-72075945D01*
X79047975Y-72075942D01*
X78901657Y-71929624D01*
X78815626Y-71872141D01*
X78729598Y-71814659D01*
X78538420Y-71735470D01*
X78538412Y-71735468D01*
X78335469Y-71695100D01*
X78335465Y-71695100D01*
X78128535Y-71695100D01*
X78128530Y-71695100D01*
X77925587Y-71735468D01*
X77925579Y-71735470D01*
X77734403Y-71814658D01*
X77562342Y-71929624D01*
X77416024Y-72075942D01*
X77301058Y-72248003D01*
X77221870Y-72439179D01*
X77221868Y-72439187D01*
X77181500Y-72642130D01*
X74202499Y-72642130D01*
X74162130Y-72439180D01*
X74082941Y-72248002D01*
X73967977Y-72075945D01*
X73967975Y-72075942D01*
X73821657Y-71929624D01*
X73735626Y-71872141D01*
X73649598Y-71814659D01*
X73458420Y-71735470D01*
X73458412Y-71735468D01*
X73255469Y-71695100D01*
X73255465Y-71695100D01*
X73048535Y-71695100D01*
X73048530Y-71695100D01*
X72845587Y-71735468D01*
X72845579Y-71735470D01*
X72654403Y-71814658D01*
X72482342Y-71929624D01*
X72336024Y-72075942D01*
X72221058Y-72248003D01*
X72141870Y-72439179D01*
X72141868Y-72439187D01*
X72101500Y-72642130D01*
X57862500Y-72642130D01*
X57862500Y-71226764D01*
X57862919Y-71216582D01*
X57912321Y-70616984D01*
X57970252Y-69913868D01*
X57970599Y-69910314D01*
X58118571Y-68594395D01*
X58119035Y-68590762D01*
X58131129Y-68506019D01*
X58306107Y-67279880D01*
X58306679Y-67276262D01*
X58311238Y-67249945D01*
X58532692Y-65971515D01*
X58533355Y-65967995D01*
X58726366Y-65022130D01*
X72101500Y-65022130D01*
X72101500Y-65229069D01*
X72141868Y-65432012D01*
X72141870Y-65432020D01*
X72221058Y-65623196D01*
X72336024Y-65795257D01*
X72482342Y-65941575D01*
X72482345Y-65941577D01*
X72654402Y-66056541D01*
X72845580Y-66135730D01*
X73048530Y-66176099D01*
X73048534Y-66176100D01*
X73048535Y-66176100D01*
X73255466Y-66176100D01*
X73255467Y-66176099D01*
X73458420Y-66135730D01*
X73649598Y-66056541D01*
X73821655Y-65941577D01*
X73967977Y-65795255D01*
X74082941Y-65623198D01*
X74162130Y-65432020D01*
X74202500Y-65229065D01*
X74202500Y-65022135D01*
X74162130Y-64819180D01*
X74082941Y-64628002D01*
X73967977Y-64455945D01*
X73967975Y-64455942D01*
X73821657Y-64309624D01*
X73735626Y-64252141D01*
X73649598Y-64194659D01*
X73458420Y-64115470D01*
X73458412Y-64115468D01*
X73255469Y-64075100D01*
X73255465Y-64075100D01*
X73048535Y-64075100D01*
X73048530Y-64075100D01*
X72845587Y-64115468D01*
X72845579Y-64115470D01*
X72654403Y-64194658D01*
X72482342Y-64309624D01*
X72336024Y-64455942D01*
X72221058Y-64628003D01*
X72141870Y-64819179D01*
X72141868Y-64819187D01*
X72101500Y-65022130D01*
X58726366Y-65022130D01*
X58798117Y-64670506D01*
X58798903Y-64666931D01*
X58808062Y-64628003D01*
X59102147Y-63377996D01*
X59103041Y-63374435D01*
X59188124Y-63055672D01*
X59189050Y-63052395D01*
X60107684Y-59970795D01*
X60108783Y-59967307D01*
X60243072Y-59562591D01*
X60244243Y-59559230D01*
X60338311Y-59301651D01*
X65001748Y-59301651D01*
X65021191Y-59399392D01*
X65048721Y-59440594D01*
X65062580Y-59461336D01*
X66370263Y-60769019D01*
X66370266Y-60769021D01*
X66432208Y-60810409D01*
X66529949Y-60829852D01*
X66627690Y-60810409D01*
X66689632Y-60769021D01*
X67997319Y-59461334D01*
X68038707Y-59399392D01*
X68058150Y-59301651D01*
X68038707Y-59203910D01*
X67997319Y-59141968D01*
X67997317Y-59141965D01*
X67454592Y-58599240D01*
X67421107Y-58537917D01*
X67426091Y-58468225D01*
X67467963Y-58412292D01*
X67533427Y-58387875D01*
X67601700Y-58402727D01*
X67615158Y-58411241D01*
X67693591Y-58468225D01*
X67723006Y-58489596D01*
X67817841Y-58537917D01*
X67884360Y-58571811D01*
X67884363Y-58571812D01*
X67968780Y-58599240D01*
X68056591Y-58627771D01*
X68139429Y-58640891D01*
X68235449Y-58656100D01*
X68235454Y-58656100D01*
X68416551Y-58656100D01*
X68503259Y-58642365D01*
X68595409Y-58627771D01*
X68767639Y-58571811D01*
X68928994Y-58489596D01*
X69075501Y-58383153D01*
X69203553Y-58255101D01*
X69309996Y-58108594D01*
X69392211Y-57947239D01*
X69448171Y-57775009D01*
X69464084Y-57674541D01*
X69476500Y-57596151D01*
X69476500Y-57415048D01*
X69459160Y-57305575D01*
X69448171Y-57236191D01*
X69420191Y-57150076D01*
X69392212Y-57063963D01*
X69392211Y-57063960D01*
X69353097Y-56987196D01*
X69309996Y-56902606D01*
X69269644Y-56847066D01*
X69203558Y-56756105D01*
X69203554Y-56756100D01*
X69075499Y-56628045D01*
X69075494Y-56628041D01*
X68928997Y-56521606D01*
X68928996Y-56521605D01*
X68928994Y-56521604D01*
X68854600Y-56483698D01*
X68767639Y-56439388D01*
X68767636Y-56439387D01*
X68603723Y-56386130D01*
X87341500Y-56386130D01*
X87341500Y-56593069D01*
X87381868Y-56796012D01*
X87381870Y-56796020D01*
X87461058Y-56987196D01*
X87576024Y-57159257D01*
X87722342Y-57305575D01*
X87722345Y-57305577D01*
X87894402Y-57420541D01*
X88085580Y-57499730D01*
X88243103Y-57531063D01*
X88288530Y-57540099D01*
X88288534Y-57540100D01*
X88288535Y-57540100D01*
X88495466Y-57540100D01*
X88495467Y-57540099D01*
X88698420Y-57499730D01*
X88889598Y-57420541D01*
X89061655Y-57305577D01*
X89207977Y-57159255D01*
X89322941Y-56987198D01*
X89402130Y-56796020D01*
X89442500Y-56593065D01*
X89442500Y-56386135D01*
X89402130Y-56183180D01*
X89322941Y-55992002D01*
X89207977Y-55819945D01*
X89207975Y-55819942D01*
X89061657Y-55673624D01*
X88975626Y-55616141D01*
X88889598Y-55558659D01*
X88698420Y-55479470D01*
X88698412Y-55479468D01*
X88495469Y-55439100D01*
X88495465Y-55439100D01*
X88288535Y-55439100D01*
X88288530Y-55439100D01*
X88085587Y-55479468D01*
X88085579Y-55479470D01*
X87894403Y-55558658D01*
X87722342Y-55673624D01*
X87576024Y-55819942D01*
X87461058Y-55992003D01*
X87381870Y-56183179D01*
X87381868Y-56183187D01*
X87341500Y-56386130D01*
X68603723Y-56386130D01*
X68595410Y-56383429D01*
X68416551Y-56355100D01*
X68416546Y-56355100D01*
X68235454Y-56355100D01*
X68235449Y-56355100D01*
X68056589Y-56383429D01*
X67884363Y-56439387D01*
X67884360Y-56439388D01*
X67723002Y-56521606D01*
X67576505Y-56628041D01*
X67576500Y-56628045D01*
X67448445Y-56756100D01*
X67448441Y-56756105D01*
X67342006Y-56902602D01*
X67259788Y-57063960D01*
X67259787Y-57063963D01*
X67203829Y-57236189D01*
X67175500Y-57415048D01*
X67175500Y-57596151D01*
X67203829Y-57775010D01*
X67259787Y-57947236D01*
X67259788Y-57947239D01*
X67297831Y-58021900D01*
X67340686Y-58106008D01*
X67342006Y-58108597D01*
X67420358Y-58216441D01*
X67443838Y-58282248D01*
X67428012Y-58350301D01*
X67377906Y-58398996D01*
X67309428Y-58412871D01*
X67244319Y-58387522D01*
X67232359Y-58377007D01*
X66689634Y-57834282D01*
X66668892Y-57820423D01*
X66627690Y-57792893D01*
X66529949Y-57773450D01*
X66432208Y-57792893D01*
X66370263Y-57834282D01*
X65062580Y-59141965D01*
X65033934Y-59184838D01*
X65021191Y-59203910D01*
X65001748Y-59301651D01*
X60338311Y-59301651D01*
X60698529Y-58315298D01*
X60699800Y-58311971D01*
X61190892Y-57082166D01*
X61192275Y-57078846D01*
X61719749Y-55864224D01*
X61721261Y-55860882D01*
X61740507Y-55819945D01*
X62284643Y-54662528D01*
X62286210Y-54659320D01*
X62885035Y-53478228D01*
X62886741Y-53474986D01*
X62938649Y-53379746D01*
X63310404Y-52697651D01*
X71351748Y-52697651D01*
X71371191Y-52795392D01*
X71398721Y-52836594D01*
X71412580Y-52857336D01*
X72720263Y-54165019D01*
X72720266Y-54165021D01*
X72782208Y-54206409D01*
X72879949Y-54225852D01*
X72977690Y-54206409D01*
X73039632Y-54165021D01*
X74347319Y-52857334D01*
X74388707Y-52795392D01*
X74408150Y-52697651D01*
X74388707Y-52599910D01*
X74347319Y-52537968D01*
X74347317Y-52537965D01*
X74295204Y-52485852D01*
X74261719Y-52424529D01*
X74266703Y-52354837D01*
X74308575Y-52298904D01*
X74374039Y-52274487D01*
X74402283Y-52275698D01*
X74425999Y-52279454D01*
X74426000Y-52279454D01*
X74426000Y-51276877D01*
X74502306Y-51320933D01*
X74616756Y-51351600D01*
X74735244Y-51351600D01*
X74849694Y-51320933D01*
X74926000Y-51276877D01*
X74926000Y-52279454D01*
X75003834Y-52267126D01*
X75003837Y-52267126D01*
X75213410Y-52199032D01*
X75409760Y-52098986D01*
X75588041Y-51969457D01*
X75743857Y-51813641D01*
X75873386Y-51635360D01*
X75973432Y-51439010D01*
X76041526Y-51229438D01*
X76041526Y-51229435D01*
X76053855Y-51151600D01*
X75051278Y-51151600D01*
X75095333Y-51075294D01*
X75126000Y-50960844D01*
X75126000Y-50842356D01*
X75095333Y-50727906D01*
X75051278Y-50651600D01*
X76053855Y-50651600D01*
X76041526Y-50573764D01*
X76041526Y-50573761D01*
X75973432Y-50364189D01*
X75873386Y-50167839D01*
X75743857Y-49989558D01*
X75588041Y-49833742D01*
X75409760Y-49704213D01*
X75213410Y-49604167D01*
X75003836Y-49536073D01*
X74926000Y-49523744D01*
X74926000Y-50526322D01*
X74849694Y-50482267D01*
X74735244Y-50451600D01*
X74616756Y-50451600D01*
X74502306Y-50482267D01*
X74426000Y-50526322D01*
X74426000Y-49523744D01*
X74348164Y-49536073D01*
X74348161Y-49536073D01*
X74138589Y-49604167D01*
X73942239Y-49704213D01*
X73763958Y-49833742D01*
X73608142Y-49989558D01*
X73478613Y-50167839D01*
X73378567Y-50364189D01*
X73310473Y-50573761D01*
X73310473Y-50573764D01*
X73298145Y-50651600D01*
X74300722Y-50651600D01*
X74256667Y-50727906D01*
X74226000Y-50842356D01*
X74226000Y-50960844D01*
X74256667Y-51075294D01*
X74300722Y-51151600D01*
X73298145Y-51151600D01*
X73301901Y-51175316D01*
X73292947Y-51244609D01*
X73247950Y-51298061D01*
X73181199Y-51318701D01*
X73113885Y-51299976D01*
X73091747Y-51282395D01*
X73039634Y-51230282D01*
X73018892Y-51216423D01*
X72977690Y-51188893D01*
X72879949Y-51169450D01*
X72782208Y-51188893D01*
X72720263Y-51230282D01*
X71412580Y-52537965D01*
X71385591Y-52578358D01*
X71371191Y-52599910D01*
X71351748Y-52697651D01*
X63310404Y-52697651D01*
X63520452Y-52312256D01*
X63522194Y-52309169D01*
X64190236Y-51165816D01*
X64192134Y-51162677D01*
X64893904Y-50039734D01*
X64895862Y-50036702D01*
X65630762Y-48935128D01*
X65632795Y-48932176D01*
X65750861Y-48766130D01*
X87341500Y-48766130D01*
X87341500Y-48973069D01*
X87381868Y-49176012D01*
X87381870Y-49176020D01*
X87461058Y-49367196D01*
X87576024Y-49539257D01*
X87722342Y-49685575D01*
X87722345Y-49685577D01*
X87894402Y-49800541D01*
X88085580Y-49879730D01*
X88288530Y-49920099D01*
X88288534Y-49920100D01*
X88288535Y-49920100D01*
X88495466Y-49920100D01*
X88495467Y-49920099D01*
X88698420Y-49879730D01*
X88889598Y-49800541D01*
X88988339Y-49734565D01*
X90150100Y-49734565D01*
X90150100Y-68019835D01*
X90175690Y-68115338D01*
X90175691Y-68115339D01*
X90175691Y-68115340D01*
X90225126Y-68200963D01*
X92072381Y-70048218D01*
X92105866Y-70109541D01*
X92108700Y-70135899D01*
X92108700Y-70176475D01*
X92146216Y-70316485D01*
X92146217Y-70316488D01*
X92218688Y-70442011D01*
X92218690Y-70442013D01*
X92218691Y-70442015D01*
X92321185Y-70544509D01*
X92321186Y-70544510D01*
X92321188Y-70544511D01*
X92446711Y-70616982D01*
X92446712Y-70616982D01*
X92446715Y-70616984D01*
X92586725Y-70654500D01*
X92586728Y-70654500D01*
X92731672Y-70654500D01*
X92731675Y-70654500D01*
X92871685Y-70616984D01*
X92997215Y-70544509D01*
X93099709Y-70442015D01*
X93172184Y-70316485D01*
X93209700Y-70176475D01*
X93209700Y-70031525D01*
X93172184Y-69891515D01*
X93149003Y-69851365D01*
X93099711Y-69765988D01*
X93099706Y-69765982D01*
X92997217Y-69663493D01*
X92997211Y-69663488D01*
X92871688Y-69591017D01*
X92871689Y-69591017D01*
X92860206Y-69587940D01*
X92731675Y-69553500D01*
X92731672Y-69553500D01*
X92691099Y-69553500D01*
X92624060Y-69533815D01*
X92603418Y-69517181D01*
X90937419Y-67851182D01*
X90918279Y-67816130D01*
X99025500Y-67816130D01*
X99025500Y-68023069D01*
X99065868Y-68226012D01*
X99065870Y-68226020D01*
X99145058Y-68417196D01*
X99260024Y-68589257D01*
X99406342Y-68735575D01*
X99406345Y-68735577D01*
X99578402Y-68850541D01*
X99769580Y-68929730D01*
X99972530Y-68970099D01*
X99972534Y-68970100D01*
X99972535Y-68970100D01*
X100179466Y-68970100D01*
X100179467Y-68970099D01*
X100382420Y-68929730D01*
X100573598Y-68850541D01*
X100745655Y-68735577D01*
X100891977Y-68589255D01*
X101006941Y-68417198D01*
X101086130Y-68226020D01*
X101126500Y-68023065D01*
X101126500Y-67816135D01*
X101086130Y-67613180D01*
X101006941Y-67422002D01*
X100891977Y-67249945D01*
X100891975Y-67249942D01*
X100745657Y-67103624D01*
X100659626Y-67046141D01*
X100573598Y-66988659D01*
X100503045Y-66959435D01*
X100382420Y-66909470D01*
X100382412Y-66909468D01*
X100179469Y-66869100D01*
X100179465Y-66869100D01*
X99972535Y-66869100D01*
X99972530Y-66869100D01*
X99769587Y-66909468D01*
X99769579Y-66909470D01*
X99578403Y-66988658D01*
X99406342Y-67103624D01*
X99260024Y-67249942D01*
X99145058Y-67422003D01*
X99065870Y-67613179D01*
X99065868Y-67613187D01*
X99025500Y-67816130D01*
X90918279Y-67816130D01*
X90903934Y-67789859D01*
X90901100Y-67763501D01*
X90901100Y-60959282D01*
X98776000Y-60959282D01*
X98776000Y-61163917D01*
X98808009Y-61366017D01*
X98871244Y-61560631D01*
X98964141Y-61742950D01*
X98964147Y-61742959D01*
X98996523Y-61787521D01*
X98996524Y-61787522D01*
X99676000Y-61108046D01*
X99676000Y-61114261D01*
X99703259Y-61215994D01*
X99755920Y-61307206D01*
X99830394Y-61381680D01*
X99921606Y-61434341D01*
X100023339Y-61461600D01*
X100029553Y-61461600D01*
X99350076Y-62141074D01*
X99394650Y-62173459D01*
X99576968Y-62266355D01*
X99771582Y-62329590D01*
X99973683Y-62361600D01*
X100178317Y-62361600D01*
X100380417Y-62329590D01*
X100575031Y-62266355D01*
X100757349Y-62173459D01*
X100801921Y-62141074D01*
X100122447Y-61461600D01*
X100128661Y-61461600D01*
X100230394Y-61434341D01*
X100321606Y-61381680D01*
X100396080Y-61307206D01*
X100448741Y-61215994D01*
X100476000Y-61114261D01*
X100476000Y-61108047D01*
X101155474Y-61787521D01*
X101187859Y-61742949D01*
X101280755Y-61560631D01*
X101343990Y-61366017D01*
X101376000Y-61163917D01*
X101376000Y-60959290D01*
X101375998Y-60959274D01*
X101375817Y-60958130D01*
X106645500Y-60958130D01*
X106645500Y-61165069D01*
X106685868Y-61368012D01*
X106685870Y-61368020D01*
X106762084Y-61552017D01*
X106765059Y-61559198D01*
X106822541Y-61645226D01*
X106880024Y-61731257D01*
X107026342Y-61877575D01*
X107198405Y-61992543D01*
X107268952Y-62021764D01*
X107323356Y-62065605D01*
X107345421Y-62131899D01*
X107345500Y-62136325D01*
X107345500Y-66844874D01*
X107325815Y-66911913D01*
X107273011Y-66957668D01*
X107268954Y-66959435D01*
X107198401Y-66988659D01*
X107198395Y-66988662D01*
X107026344Y-67103622D01*
X106880024Y-67249942D01*
X106765058Y-67422003D01*
X106685870Y-67613179D01*
X106685868Y-67613187D01*
X106645500Y-67816130D01*
X106645500Y-68023069D01*
X106685868Y-68226012D01*
X106685870Y-68226020D01*
X106765058Y-68417196D01*
X106880024Y-68589257D01*
X107026342Y-68735575D01*
X107026345Y-68735577D01*
X107198402Y-68850541D01*
X107389580Y-68929730D01*
X107592530Y-68970099D01*
X107592534Y-68970100D01*
X107592535Y-68970100D01*
X107799466Y-68970100D01*
X107799467Y-68970099D01*
X108002420Y-68929730D01*
X108193598Y-68850541D01*
X108365655Y-68735577D01*
X108511977Y-68589255D01*
X108626941Y-68417198D01*
X108706130Y-68226020D01*
X108746500Y-68023065D01*
X108746500Y-67816135D01*
X108706130Y-67613180D01*
X108626941Y-67422002D01*
X108511977Y-67249945D01*
X108511975Y-67249942D01*
X108365655Y-67103622D01*
X108193604Y-66988662D01*
X108193598Y-66988659D01*
X108123046Y-66959435D01*
X108068643Y-66915593D01*
X108046579Y-66849299D01*
X108046500Y-66844874D01*
X108046500Y-62136325D01*
X108066185Y-62069286D01*
X108118989Y-62023531D01*
X108123048Y-62021764D01*
X108193594Y-61992543D01*
X108193595Y-61992542D01*
X108193598Y-61992541D01*
X108365655Y-61877577D01*
X108511977Y-61731255D01*
X108626941Y-61559198D01*
X108706130Y-61368020D01*
X108746500Y-61165065D01*
X108746500Y-60958135D01*
X108706130Y-60755180D01*
X108626941Y-60564002D01*
X108511977Y-60391945D01*
X108511975Y-60391942D01*
X108365657Y-60245624D01*
X108279626Y-60188141D01*
X108193598Y-60130659D01*
X108084710Y-60085556D01*
X108002420Y-60051470D01*
X108002412Y-60051468D01*
X107799469Y-60011100D01*
X107799465Y-60011100D01*
X107592535Y-60011100D01*
X107592530Y-60011100D01*
X107389587Y-60051468D01*
X107389579Y-60051470D01*
X107198403Y-60130658D01*
X107026342Y-60245624D01*
X106880024Y-60391942D01*
X106765058Y-60564003D01*
X106685870Y-60755179D01*
X106685868Y-60755187D01*
X106645500Y-60958130D01*
X101375817Y-60958130D01*
X101343990Y-60757182D01*
X101280755Y-60562568D01*
X101187859Y-60380250D01*
X101155474Y-60335677D01*
X101155474Y-60335676D01*
X100476000Y-61015151D01*
X100476000Y-61008939D01*
X100448741Y-60907206D01*
X100396080Y-60815994D01*
X100321606Y-60741520D01*
X100230394Y-60688859D01*
X100128661Y-60661600D01*
X100122446Y-60661600D01*
X100801922Y-59982124D01*
X100801921Y-59982123D01*
X100757359Y-59949747D01*
X100757350Y-59949741D01*
X100575031Y-59856844D01*
X100380417Y-59793609D01*
X100178317Y-59761600D01*
X99973683Y-59761600D01*
X99771582Y-59793609D01*
X99576968Y-59856844D01*
X99394644Y-59949743D01*
X99350077Y-59982123D01*
X99350077Y-59982124D01*
X100029554Y-60661600D01*
X100023339Y-60661600D01*
X99921606Y-60688859D01*
X99830394Y-60741520D01*
X99755920Y-60815994D01*
X99703259Y-60907206D01*
X99676000Y-61008939D01*
X99676000Y-61015153D01*
X98996524Y-60335677D01*
X98996523Y-60335677D01*
X98964143Y-60380244D01*
X98871244Y-60562568D01*
X98808009Y-60757182D01*
X98776000Y-60959282D01*
X90901100Y-60959282D01*
X90901100Y-56640130D01*
X91659500Y-56640130D01*
X91659500Y-56847069D01*
X91699868Y-57050012D01*
X91699870Y-57050020D01*
X91779058Y-57241196D01*
X91894024Y-57413257D01*
X92040342Y-57559575D01*
X92040345Y-57559577D01*
X92212402Y-57674541D01*
X92403580Y-57753730D01*
X92600467Y-57792893D01*
X92606530Y-57794099D01*
X92606534Y-57794100D01*
X92606535Y-57794100D01*
X92813466Y-57794100D01*
X92813467Y-57794099D01*
X93016420Y-57753730D01*
X93207598Y-57674541D01*
X93379655Y-57559577D01*
X93525977Y-57413255D01*
X93640941Y-57241198D01*
X93720130Y-57050020D01*
X93760500Y-56847065D01*
X93760500Y-56640135D01*
X93760499Y-56640130D01*
X115281500Y-56640130D01*
X115281500Y-56847069D01*
X115321868Y-57050012D01*
X115321870Y-57050020D01*
X115401058Y-57241196D01*
X115516024Y-57413257D01*
X115662342Y-57559575D01*
X115662345Y-57559577D01*
X115834402Y-57674541D01*
X116025580Y-57753730D01*
X116222467Y-57792893D01*
X116228530Y-57794099D01*
X116228534Y-57794100D01*
X116228535Y-57794100D01*
X116435466Y-57794100D01*
X116435467Y-57794099D01*
X116638420Y-57753730D01*
X116829598Y-57674541D01*
X117001655Y-57559577D01*
X117147977Y-57413255D01*
X117262941Y-57241198D01*
X117342130Y-57050020D01*
X117382500Y-56847065D01*
X117382500Y-56640135D01*
X117342130Y-56437180D01*
X117342128Y-56437175D01*
X117338118Y-56427493D01*
X117320985Y-56386130D01*
X120361500Y-56386130D01*
X120361500Y-56593069D01*
X120401868Y-56796012D01*
X120401870Y-56796020D01*
X120481058Y-56987196D01*
X120596024Y-57159257D01*
X120742342Y-57305575D01*
X120742345Y-57305577D01*
X120914402Y-57420541D01*
X121105580Y-57499730D01*
X121263103Y-57531063D01*
X121308530Y-57540099D01*
X121308534Y-57540100D01*
X121308535Y-57540100D01*
X121515466Y-57540100D01*
X121515467Y-57540099D01*
X121718420Y-57499730D01*
X121909598Y-57420541D01*
X122081655Y-57305577D01*
X122227977Y-57159255D01*
X122342941Y-56987198D01*
X122422130Y-56796020D01*
X122462500Y-56593065D01*
X122462500Y-56386135D01*
X122422130Y-56183180D01*
X122342941Y-55992002D01*
X122227977Y-55819945D01*
X122227975Y-55819942D01*
X122081657Y-55673624D01*
X121995626Y-55616141D01*
X121909598Y-55558659D01*
X121718420Y-55479470D01*
X121718412Y-55479468D01*
X121515469Y-55439100D01*
X121515465Y-55439100D01*
X121308535Y-55439100D01*
X121308530Y-55439100D01*
X121105587Y-55479468D01*
X121105579Y-55479470D01*
X120914403Y-55558658D01*
X120742342Y-55673624D01*
X120596024Y-55819942D01*
X120481058Y-55992003D01*
X120401870Y-56183179D01*
X120401868Y-56183187D01*
X120361500Y-56386130D01*
X117320985Y-56386130D01*
X117262942Y-56246003D01*
X117147975Y-56073942D01*
X117001657Y-55927624D01*
X116840502Y-55819945D01*
X116829598Y-55812659D01*
X116638420Y-55733470D01*
X116638412Y-55733468D01*
X116435469Y-55693100D01*
X116435465Y-55693100D01*
X116228535Y-55693100D01*
X116228530Y-55693100D01*
X116025587Y-55733468D01*
X116025579Y-55733470D01*
X115834403Y-55812658D01*
X115662342Y-55927624D01*
X115516024Y-56073942D01*
X115401058Y-56246003D01*
X115321871Y-56437177D01*
X115321868Y-56437187D01*
X115281500Y-56640130D01*
X93760499Y-56640130D01*
X93720130Y-56437180D01*
X93716117Y-56427493D01*
X93640941Y-56246003D01*
X93640941Y-56246002D01*
X93525977Y-56073945D01*
X93525975Y-56073942D01*
X93379657Y-55927624D01*
X93218502Y-55819945D01*
X93207598Y-55812659D01*
X93016420Y-55733470D01*
X93016412Y-55733468D01*
X92813469Y-55693100D01*
X92813465Y-55693100D01*
X92606535Y-55693100D01*
X92606530Y-55693100D01*
X92403587Y-55733468D01*
X92403579Y-55733470D01*
X92212403Y-55812658D01*
X92040342Y-55927624D01*
X91894024Y-56073942D01*
X91779058Y-56246003D01*
X91699871Y-56437177D01*
X91699868Y-56437187D01*
X91659500Y-56640130D01*
X90901100Y-56640130D01*
X90901100Y-51493149D01*
X128603348Y-51493149D01*
X128622791Y-51590890D01*
X128650321Y-51632092D01*
X128664180Y-51652834D01*
X129971863Y-52960517D01*
X129971866Y-52960519D01*
X130033808Y-53001907D01*
X130131549Y-53021350D01*
X130229290Y-53001907D01*
X130291232Y-52960519D01*
X130833959Y-52417792D01*
X130895282Y-52384307D01*
X130964973Y-52389291D01*
X131020907Y-52431162D01*
X131045324Y-52496627D01*
X131030472Y-52564900D01*
X131021959Y-52578358D01*
X130943603Y-52686206D01*
X130861388Y-52847560D01*
X130861387Y-52847563D01*
X130805429Y-53019789D01*
X130777100Y-53198648D01*
X130777100Y-53379751D01*
X130805429Y-53558610D01*
X130861387Y-53730836D01*
X130861388Y-53730839D01*
X130943606Y-53892197D01*
X131050041Y-54038694D01*
X131050045Y-54038699D01*
X131178100Y-54166754D01*
X131178105Y-54166758D01*
X131324601Y-54273193D01*
X131324603Y-54273194D01*
X131324606Y-54273196D01*
X131359394Y-54290921D01*
X131410190Y-54338894D01*
X131427100Y-54401406D01*
X131427100Y-64765323D01*
X131407415Y-64832362D01*
X131390781Y-64853004D01*
X130397862Y-65845922D01*
X130336539Y-65879407D01*
X130285990Y-65879858D01*
X130151469Y-65853100D01*
X130151465Y-65853100D01*
X129944535Y-65853100D01*
X129944530Y-65853100D01*
X129741587Y-65893468D01*
X129741579Y-65893470D01*
X129550403Y-65972658D01*
X129378342Y-66087624D01*
X129232024Y-66233942D01*
X129117058Y-66406003D01*
X129037870Y-66597179D01*
X129037868Y-66597187D01*
X128997500Y-66800130D01*
X128997500Y-67007069D01*
X129037868Y-67210012D01*
X129037870Y-67210020D01*
X129065308Y-67276262D01*
X129117059Y-67401198D01*
X129160074Y-67465575D01*
X129232024Y-67573257D01*
X129378342Y-67719575D01*
X129378345Y-67719577D01*
X129550402Y-67834541D01*
X129741580Y-67913730D01*
X129944530Y-67954099D01*
X129944534Y-67954100D01*
X129944535Y-67954100D01*
X130151466Y-67954100D01*
X130151467Y-67954099D01*
X130354420Y-67913730D01*
X130545598Y-67834541D01*
X130717655Y-67719577D01*
X130863977Y-67573255D01*
X130978941Y-67401198D01*
X131058130Y-67210020D01*
X131098500Y-67007065D01*
X131098500Y-66800135D01*
X131071740Y-66665606D01*
X131072447Y-66657701D01*
X131069673Y-66650263D01*
X131075517Y-66623398D01*
X131077967Y-66596018D01*
X131083215Y-66588008D01*
X131084525Y-66581990D01*
X131105672Y-66553740D01*
X131113282Y-66546130D01*
X134585500Y-66546130D01*
X134585500Y-66753069D01*
X134625868Y-66956012D01*
X134625870Y-66956020D01*
X134705058Y-67147196D01*
X134820024Y-67319257D01*
X134966342Y-67465575D01*
X134966345Y-67465577D01*
X135138402Y-67580541D01*
X135329580Y-67659730D01*
X135532530Y-67700099D01*
X135532534Y-67700100D01*
X135532535Y-67700100D01*
X135739466Y-67700100D01*
X135739467Y-67700099D01*
X135942420Y-67659730D01*
X136133598Y-67580541D01*
X136305655Y-67465577D01*
X136451977Y-67319255D01*
X136566941Y-67147198D01*
X136646130Y-66956020D01*
X136686500Y-66753065D01*
X136686500Y-66546135D01*
X136646130Y-66343180D01*
X136566941Y-66152002D01*
X136451977Y-65979945D01*
X136451975Y-65979942D01*
X136305657Y-65833624D01*
X136219626Y-65776141D01*
X136133598Y-65718659D01*
X135942420Y-65639470D01*
X135942412Y-65639468D01*
X135739469Y-65599100D01*
X135739465Y-65599100D01*
X135532535Y-65599100D01*
X135532530Y-65599100D01*
X135329587Y-65639468D01*
X135329579Y-65639470D01*
X135138403Y-65718658D01*
X134966342Y-65833624D01*
X134820024Y-65979942D01*
X134705058Y-66152003D01*
X134625870Y-66343179D01*
X134625868Y-66343187D01*
X134585500Y-66546130D01*
X131113282Y-66546130D01*
X132328100Y-65331314D01*
X132393992Y-65217186D01*
X132428100Y-65089892D01*
X132428100Y-64958107D01*
X132428100Y-57690749D01*
X134800948Y-57690749D01*
X134820391Y-57788490D01*
X134847921Y-57829692D01*
X134861780Y-57850434D01*
X136169463Y-59158117D01*
X136169466Y-59158119D01*
X136231408Y-59199507D01*
X136329149Y-59218950D01*
X136426890Y-59199507D01*
X136488832Y-59158119D01*
X136540946Y-59106005D01*
X136602269Y-59072519D01*
X136671961Y-59077503D01*
X136727894Y-59119374D01*
X136752312Y-59184838D01*
X136751101Y-59213083D01*
X136747345Y-59236800D01*
X137749922Y-59236800D01*
X137705867Y-59313106D01*
X137675200Y-59427556D01*
X137675200Y-59546044D01*
X137705867Y-59660494D01*
X137749922Y-59736800D01*
X136747345Y-59736800D01*
X136759673Y-59814635D01*
X136759673Y-59814638D01*
X136827767Y-60024210D01*
X136927813Y-60220560D01*
X137057342Y-60398841D01*
X137213158Y-60554657D01*
X137391439Y-60684186D01*
X137587789Y-60784232D01*
X137797363Y-60852326D01*
X137875199Y-60864654D01*
X137875200Y-60864654D01*
X137875200Y-59862077D01*
X137951506Y-59906133D01*
X138065956Y-59936800D01*
X138184444Y-59936800D01*
X138298894Y-59906133D01*
X138375200Y-59862077D01*
X138375200Y-60864654D01*
X138453034Y-60852326D01*
X138453037Y-60852326D01*
X138662610Y-60784232D01*
X138858960Y-60684186D01*
X139037241Y-60554657D01*
X139193057Y-60398841D01*
X139322586Y-60220560D01*
X139422632Y-60024210D01*
X139490726Y-59814638D01*
X139490726Y-59814635D01*
X139503055Y-59736800D01*
X138500478Y-59736800D01*
X138544533Y-59660494D01*
X138575200Y-59546044D01*
X138575200Y-59427556D01*
X138544533Y-59313106D01*
X138500478Y-59236800D01*
X139503055Y-59236800D01*
X139490726Y-59158964D01*
X139490726Y-59158961D01*
X139422632Y-58949389D01*
X139322586Y-58753039D01*
X139193057Y-58574758D01*
X139037241Y-58418942D01*
X138858960Y-58289413D01*
X138662610Y-58189367D01*
X138453036Y-58121273D01*
X138375200Y-58108944D01*
X138375200Y-59111522D01*
X138298894Y-59067467D01*
X138184444Y-59036800D01*
X138065956Y-59036800D01*
X137951506Y-59067467D01*
X137875200Y-59111522D01*
X137875200Y-58138251D01*
X137789228Y-58106586D01*
X137786078Y-58104248D01*
X137782190Y-58103746D01*
X137758253Y-58083596D01*
X137733123Y-58064944D01*
X137731737Y-58061274D01*
X137728738Y-58058750D01*
X137719496Y-58028863D01*
X137708438Y-57999581D01*
X137709256Y-57995744D01*
X137708098Y-57991999D01*
X137716481Y-57961860D01*
X137723010Y-57931247D01*
X137725772Y-57928461D01*
X137726823Y-57924685D01*
X137744405Y-57902546D01*
X137796517Y-57850434D01*
X137796519Y-57850432D01*
X137837907Y-57788490D01*
X137857350Y-57690749D01*
X137837907Y-57593008D01*
X137796519Y-57531066D01*
X137796517Y-57531063D01*
X136488834Y-56223380D01*
X136468092Y-56209521D01*
X136426890Y-56181991D01*
X136329149Y-56162548D01*
X136231408Y-56181991D01*
X136169463Y-56223380D01*
X134861780Y-57531063D01*
X134820391Y-57593008D01*
X134800948Y-57690749D01*
X132428100Y-57690749D01*
X132428100Y-54401406D01*
X132447785Y-54334367D01*
X132495805Y-54290921D01*
X132530594Y-54273196D01*
X132677101Y-54166753D01*
X132805153Y-54038701D01*
X132911596Y-53892194D01*
X132993811Y-53730839D01*
X133049771Y-53558609D01*
X133064365Y-53466459D01*
X133078100Y-53379751D01*
X133078100Y-53198648D01*
X133061619Y-53094597D01*
X133049771Y-53019791D01*
X132996987Y-52857336D01*
X132993812Y-52847563D01*
X132993811Y-52847560D01*
X132942249Y-52746366D01*
X132911596Y-52686206D01*
X132848899Y-52599910D01*
X132805158Y-52539705D01*
X132805154Y-52539700D01*
X132677099Y-52411645D01*
X132677094Y-52411641D01*
X132530597Y-52305206D01*
X132530596Y-52305205D01*
X132530594Y-52305204D01*
X132470309Y-52274487D01*
X132369239Y-52222988D01*
X132369236Y-52222987D01*
X132197010Y-52167029D01*
X132018151Y-52138700D01*
X132018146Y-52138700D01*
X131837054Y-52138700D01*
X131837049Y-52138700D01*
X131658189Y-52167029D01*
X131485963Y-52222987D01*
X131485960Y-52222988D01*
X131324606Y-52305203D01*
X131216758Y-52383559D01*
X131150951Y-52407038D01*
X131082897Y-52391212D01*
X131034203Y-52341106D01*
X131020328Y-52272628D01*
X131045678Y-52207519D01*
X131056192Y-52195559D01*
X131598917Y-51652834D01*
X131598919Y-51652832D01*
X131640307Y-51590890D01*
X131659750Y-51493149D01*
X131640307Y-51395408D01*
X131598919Y-51333466D01*
X131598917Y-51333463D01*
X130291234Y-50025780D01*
X130270492Y-50011921D01*
X130229290Y-49984391D01*
X130131549Y-49964948D01*
X130033808Y-49984391D01*
X129971863Y-50025780D01*
X128664180Y-51333463D01*
X128622791Y-51395408D01*
X128614118Y-51439010D01*
X128603348Y-51493149D01*
X90901100Y-51493149D01*
X90901100Y-49990899D01*
X90920785Y-49923860D01*
X90937419Y-49903218D01*
X91305219Y-49535419D01*
X91366542Y-49501934D01*
X91392900Y-49499100D01*
X91645630Y-49499100D01*
X91712669Y-49518785D01*
X91758424Y-49571589D01*
X91760191Y-49575647D01*
X91779059Y-49621198D01*
X91822073Y-49685574D01*
X91894024Y-49793257D01*
X92040342Y-49939575D01*
X92040345Y-49939577D01*
X92212402Y-50054541D01*
X92403580Y-50133730D01*
X92575059Y-50167839D01*
X92606530Y-50174099D01*
X92606534Y-50174100D01*
X92606535Y-50174100D01*
X92813466Y-50174100D01*
X92813467Y-50174099D01*
X93016420Y-50133730D01*
X93207598Y-50054541D01*
X93379655Y-49939577D01*
X93525977Y-49793255D01*
X93640941Y-49621198D01*
X93720130Y-49430020D01*
X93760500Y-49227065D01*
X93760500Y-49020135D01*
X93760499Y-49020130D01*
X115281500Y-49020130D01*
X115281500Y-49227069D01*
X115321868Y-49430012D01*
X115321870Y-49430020D01*
X115401059Y-49621198D01*
X115444073Y-49685574D01*
X115516024Y-49793257D01*
X115662342Y-49939575D01*
X115662345Y-49939577D01*
X115834402Y-50054541D01*
X116025580Y-50133730D01*
X116197059Y-50167839D01*
X116228530Y-50174099D01*
X116228534Y-50174100D01*
X116228535Y-50174100D01*
X116435466Y-50174100D01*
X116435467Y-50174099D01*
X116638420Y-50133730D01*
X116829598Y-50054541D01*
X117001655Y-49939577D01*
X117147977Y-49793255D01*
X117262941Y-49621198D01*
X117342130Y-49430020D01*
X117382500Y-49227065D01*
X117382500Y-49020135D01*
X117342130Y-48817180D01*
X117342128Y-48817175D01*
X117338118Y-48807493D01*
X117320985Y-48766130D01*
X120361500Y-48766130D01*
X120361500Y-48973069D01*
X120401868Y-49176012D01*
X120401870Y-49176020D01*
X120481058Y-49367196D01*
X120596024Y-49539257D01*
X120742342Y-49685575D01*
X120742345Y-49685577D01*
X120914402Y-49800541D01*
X121105580Y-49879730D01*
X121308530Y-49920099D01*
X121308534Y-49920100D01*
X121308535Y-49920100D01*
X121515466Y-49920100D01*
X121515467Y-49920099D01*
X121718420Y-49879730D01*
X121909598Y-49800541D01*
X122081655Y-49685577D01*
X122227977Y-49539255D01*
X122342941Y-49367198D01*
X122422130Y-49176020D01*
X122462500Y-48973065D01*
X122462500Y-48766135D01*
X122422130Y-48563180D01*
X122342941Y-48372002D01*
X122227977Y-48199945D01*
X122227975Y-48199942D01*
X122081657Y-48053624D01*
X121995626Y-47996141D01*
X121909598Y-47938659D01*
X121718420Y-47859470D01*
X121718412Y-47859468D01*
X121515469Y-47819100D01*
X121515465Y-47819100D01*
X121308535Y-47819100D01*
X121308530Y-47819100D01*
X121105587Y-47859468D01*
X121105579Y-47859470D01*
X120914403Y-47938658D01*
X120742342Y-48053624D01*
X120596024Y-48199942D01*
X120481058Y-48372003D01*
X120401870Y-48563179D01*
X120401868Y-48563187D01*
X120361500Y-48766130D01*
X117320985Y-48766130D01*
X117262942Y-48626003D01*
X117147975Y-48453942D01*
X117001657Y-48307624D01*
X116840502Y-48199945D01*
X116829598Y-48192659D01*
X116638420Y-48113470D01*
X116638412Y-48113468D01*
X116435469Y-48073100D01*
X116435465Y-48073100D01*
X116228535Y-48073100D01*
X116228530Y-48073100D01*
X116025587Y-48113468D01*
X116025579Y-48113470D01*
X115834403Y-48192658D01*
X115662342Y-48307624D01*
X115516024Y-48453942D01*
X115401058Y-48626003D01*
X115321870Y-48817179D01*
X115321868Y-48817187D01*
X115281500Y-49020130D01*
X93760499Y-49020130D01*
X93720130Y-48817180D01*
X93640941Y-48626002D01*
X93525977Y-48453945D01*
X93525975Y-48453942D01*
X93379657Y-48307624D01*
X93218502Y-48199945D01*
X93207598Y-48192659D01*
X93016420Y-48113470D01*
X93016412Y-48113468D01*
X92813469Y-48073100D01*
X92813465Y-48073100D01*
X92606535Y-48073100D01*
X92606530Y-48073100D01*
X92403587Y-48113468D01*
X92403579Y-48113470D01*
X92212403Y-48192658D01*
X92040342Y-48307624D01*
X91894024Y-48453942D01*
X91779058Y-48626003D01*
X91760191Y-48671553D01*
X91716350Y-48725956D01*
X91650056Y-48748021D01*
X91645630Y-48748100D01*
X91136564Y-48748100D01*
X91041063Y-48773689D01*
X91041060Y-48773690D01*
X90955440Y-48823122D01*
X90955435Y-48823126D01*
X90295038Y-49483525D01*
X90225126Y-49553436D01*
X90175691Y-49639059D01*
X90175691Y-49639060D01*
X90175690Y-49639062D01*
X90150100Y-49734565D01*
X88988339Y-49734565D01*
X89061655Y-49685577D01*
X89061658Y-49685574D01*
X89108476Y-49638757D01*
X89207974Y-49539258D01*
X89207975Y-49539257D01*
X89207977Y-49539255D01*
X89322941Y-49367198D01*
X89402130Y-49176020D01*
X89442500Y-48973065D01*
X89442500Y-48766135D01*
X89402130Y-48563180D01*
X89322941Y-48372002D01*
X89207977Y-48199945D01*
X89207975Y-48199942D01*
X89061657Y-48053624D01*
X88975626Y-47996141D01*
X88889598Y-47938659D01*
X88698420Y-47859470D01*
X88698412Y-47859468D01*
X88495469Y-47819100D01*
X88495465Y-47819100D01*
X88288535Y-47819100D01*
X88288530Y-47819100D01*
X88085587Y-47859468D01*
X88085579Y-47859470D01*
X87894403Y-47938658D01*
X87722342Y-48053624D01*
X87576024Y-48199942D01*
X87461058Y-48372003D01*
X87381870Y-48563179D01*
X87381868Y-48563187D01*
X87341500Y-48766130D01*
X65750861Y-48766130D01*
X66400173Y-47852946D01*
X66402290Y-47850060D01*
X67201442Y-46794167D01*
X67203672Y-46791309D01*
X68033913Y-45759659D01*
X68036193Y-45756911D01*
X68516177Y-45195555D01*
X68529839Y-45181896D01*
X68646853Y-45081902D01*
X93099500Y-45081902D01*
X93099500Y-45318097D01*
X93136446Y-45551368D01*
X93209433Y-45775996D01*
X93316657Y-45986433D01*
X93455483Y-46177510D01*
X93622490Y-46344517D01*
X93813567Y-46483343D01*
X93912991Y-46534002D01*
X94024003Y-46590566D01*
X94024005Y-46590566D01*
X94024008Y-46590568D01*
X94144412Y-46629689D01*
X94248631Y-46663553D01*
X94481903Y-46700500D01*
X94481908Y-46700500D01*
X94718097Y-46700500D01*
X94951368Y-46663553D01*
X95175992Y-46590568D01*
X95386433Y-46483343D01*
X95577510Y-46344517D01*
X95744517Y-46177510D01*
X95883343Y-45986433D01*
X95990568Y-45775992D01*
X96063553Y-45551368D01*
X96100500Y-45318097D01*
X96100500Y-45081902D01*
X112699500Y-45081902D01*
X112699500Y-45318097D01*
X112736446Y-45551368D01*
X112809433Y-45775996D01*
X112916657Y-45986433D01*
X113055483Y-46177510D01*
X113222490Y-46344517D01*
X113413567Y-46483343D01*
X113512991Y-46534002D01*
X113624003Y-46590566D01*
X113624005Y-46590566D01*
X113624008Y-46590568D01*
X113744412Y-46629689D01*
X113848631Y-46663553D01*
X114081903Y-46700500D01*
X114081908Y-46700500D01*
X114318097Y-46700500D01*
X114551368Y-46663553D01*
X114775992Y-46590568D01*
X114986433Y-46483343D01*
X115177510Y-46344517D01*
X115344517Y-46177510D01*
X115483343Y-45986433D01*
X115590568Y-45775992D01*
X115663553Y-45551368D01*
X115700500Y-45318097D01*
X115700500Y-45081902D01*
X115663553Y-44848631D01*
X115590566Y-44624003D01*
X115483342Y-44413566D01*
X115344517Y-44222490D01*
X115177510Y-44055483D01*
X114986433Y-43916657D01*
X114775996Y-43809433D01*
X114551368Y-43736446D01*
X114318097Y-43699500D01*
X114318092Y-43699500D01*
X114081908Y-43699500D01*
X114081903Y-43699500D01*
X113848631Y-43736446D01*
X113624003Y-43809433D01*
X113413566Y-43916657D01*
X113304550Y-43995862D01*
X113222490Y-44055483D01*
X113222488Y-44055485D01*
X113222487Y-44055485D01*
X113055485Y-44222487D01*
X113055485Y-44222488D01*
X113055483Y-44222490D01*
X112995862Y-44304550D01*
X112916657Y-44413566D01*
X112809433Y-44624003D01*
X112736446Y-44848631D01*
X112699500Y-45081902D01*
X96100500Y-45081902D01*
X96063553Y-44848631D01*
X95990566Y-44624003D01*
X95883342Y-44413566D01*
X95744517Y-44222490D01*
X95577510Y-44055483D01*
X95386433Y-43916657D01*
X95175996Y-43809433D01*
X94951368Y-43736446D01*
X94718097Y-43699500D01*
X94718092Y-43699500D01*
X94481908Y-43699500D01*
X94481903Y-43699500D01*
X94248631Y-43736446D01*
X94024003Y-43809433D01*
X93813566Y-43916657D01*
X93704550Y-43995862D01*
X93622490Y-44055483D01*
X93622488Y-44055485D01*
X93622487Y-44055485D01*
X93455485Y-44222487D01*
X93455485Y-44222488D01*
X93455483Y-44222490D01*
X93395862Y-44304550D01*
X93316657Y-44413566D01*
X93209433Y-44624003D01*
X93136446Y-44848631D01*
X93099500Y-45081902D01*
X68646853Y-45081902D01*
X77126427Y-37835721D01*
X80840700Y-37835721D01*
X80840700Y-39685078D01*
X80855232Y-39758135D01*
X80855233Y-39758139D01*
X80855234Y-39758140D01*
X80910599Y-39841001D01*
X80972814Y-39882571D01*
X80993460Y-39896366D01*
X80993464Y-39896367D01*
X81066521Y-39910899D01*
X81066524Y-39910900D01*
X81066526Y-39910900D01*
X82915876Y-39910900D01*
X82915877Y-39910899D01*
X82988940Y-39896366D01*
X83071801Y-39841001D01*
X83127166Y-39758140D01*
X83141700Y-39685074D01*
X83141700Y-38917531D01*
X83161385Y-38850492D01*
X83214189Y-38804737D01*
X83283347Y-38794793D01*
X83346903Y-38823818D01*
X83384677Y-38882596D01*
X83388173Y-38898133D01*
X83409029Y-39029810D01*
X83464987Y-39202036D01*
X83464988Y-39202039D01*
X83547206Y-39363397D01*
X83653641Y-39509894D01*
X83653645Y-39509899D01*
X83781700Y-39637954D01*
X83781705Y-39637958D01*
X83846561Y-39685078D01*
X83928206Y-39744396D01*
X84033684Y-39798140D01*
X84089560Y-39826611D01*
X84089563Y-39826612D01*
X84175676Y-39854591D01*
X84261791Y-39882571D01*
X84344629Y-39895691D01*
X84440649Y-39910900D01*
X84440654Y-39910900D01*
X84621751Y-39910900D01*
X84713510Y-39896366D01*
X84800609Y-39882571D01*
X84972839Y-39826611D01*
X85134194Y-39744396D01*
X85280701Y-39637953D01*
X85408753Y-39509901D01*
X85515196Y-39363394D01*
X85597411Y-39202039D01*
X85653371Y-39029809D01*
X85671154Y-38917531D01*
X85681700Y-38850951D01*
X85681700Y-38669848D01*
X85665219Y-38565797D01*
X85653371Y-38490991D01*
X85597411Y-38318761D01*
X85597411Y-38318760D01*
X85548612Y-38222989D01*
X85515196Y-38157406D01*
X85420192Y-38026643D01*
X85408758Y-38010905D01*
X85408754Y-38010900D01*
X85280699Y-37882845D01*
X85280694Y-37882841D01*
X85215838Y-37835721D01*
X91249700Y-37835721D01*
X91249700Y-39685078D01*
X91264232Y-39758135D01*
X91264233Y-39758139D01*
X91264234Y-39758140D01*
X91319599Y-39841001D01*
X91381814Y-39882571D01*
X91402460Y-39896366D01*
X91402464Y-39896367D01*
X91475521Y-39910899D01*
X91475524Y-39910900D01*
X91475526Y-39910900D01*
X93324876Y-39910900D01*
X93324877Y-39910899D01*
X93397940Y-39896366D01*
X93480801Y-39841001D01*
X93536166Y-39758140D01*
X93550700Y-39685074D01*
X93550700Y-39611372D01*
X93570385Y-39544333D01*
X93623189Y-39498578D01*
X93692347Y-39488634D01*
X93755903Y-39517659D01*
X93775019Y-39538488D01*
X93789132Y-39557913D01*
X94498061Y-38848984D01*
X94520867Y-38934094D01*
X94580110Y-39036706D01*
X94663894Y-39120490D01*
X94766506Y-39179733D01*
X94851614Y-39202537D01*
X94142685Y-39911465D01*
X94142685Y-39911466D01*
X94206443Y-39957788D01*
X94402789Y-40057832D01*
X94612364Y-40125926D01*
X94830019Y-40160400D01*
X95050381Y-40160400D01*
X95268035Y-40125926D01*
X95477610Y-40057832D01*
X95673960Y-39957786D01*
X95737713Y-39911466D01*
X95737714Y-39911466D01*
X95028785Y-39202538D01*
X95113894Y-39179733D01*
X95216506Y-39120490D01*
X95300290Y-39036706D01*
X95359533Y-38934094D01*
X95382337Y-38848985D01*
X96091266Y-39557914D01*
X96091266Y-39557913D01*
X96137586Y-39494160D01*
X96237632Y-39297810D01*
X96305726Y-39088235D01*
X96340200Y-38870581D01*
X96340200Y-38650218D01*
X96305726Y-38432564D01*
X96237632Y-38222989D01*
X96137588Y-38026643D01*
X96091266Y-37962885D01*
X96091265Y-37962885D01*
X95382337Y-38671813D01*
X95359533Y-38586706D01*
X95300290Y-38484094D01*
X95216506Y-38400310D01*
X95113894Y-38341067D01*
X95028783Y-38318261D01*
X95511325Y-37835721D01*
X108780700Y-37835721D01*
X108780700Y-39685078D01*
X108795232Y-39758135D01*
X108795233Y-39758139D01*
X108795234Y-39758140D01*
X108850599Y-39841001D01*
X108912814Y-39882571D01*
X108933460Y-39896366D01*
X108933464Y-39896367D01*
X109006521Y-39910899D01*
X109006524Y-39910900D01*
X109006526Y-39910900D01*
X110855876Y-39910900D01*
X110855877Y-39910899D01*
X110928940Y-39896366D01*
X111011801Y-39841001D01*
X111067166Y-39758140D01*
X111081700Y-39685074D01*
X111081700Y-38917531D01*
X111101385Y-38850492D01*
X111154189Y-38804737D01*
X111223347Y-38794793D01*
X111286903Y-38823818D01*
X111324677Y-38882596D01*
X111328173Y-38898133D01*
X111349029Y-39029810D01*
X111404987Y-39202036D01*
X111404988Y-39202039D01*
X111487206Y-39363397D01*
X111593641Y-39509894D01*
X111593645Y-39509899D01*
X111721700Y-39637954D01*
X111721705Y-39637958D01*
X111786561Y-39685078D01*
X111868206Y-39744396D01*
X111973684Y-39798140D01*
X112029560Y-39826611D01*
X112029563Y-39826612D01*
X112115676Y-39854591D01*
X112201791Y-39882571D01*
X112284629Y-39895691D01*
X112380649Y-39910900D01*
X112380654Y-39910900D01*
X112561751Y-39910900D01*
X112653510Y-39896366D01*
X112740609Y-39882571D01*
X112912839Y-39826611D01*
X113074194Y-39744396D01*
X113220701Y-39637953D01*
X113348753Y-39509901D01*
X113455196Y-39363394D01*
X113537411Y-39202039D01*
X113593371Y-39029809D01*
X113611154Y-38917531D01*
X113621700Y-38850951D01*
X113621700Y-38669848D01*
X113605219Y-38565797D01*
X113593371Y-38490991D01*
X113537411Y-38318761D01*
X113537411Y-38318760D01*
X113488612Y-38222989D01*
X113455196Y-38157406D01*
X113360192Y-38026643D01*
X113348758Y-38010905D01*
X113348754Y-38010900D01*
X113220699Y-37882845D01*
X113220694Y-37882841D01*
X113155838Y-37835721D01*
X119194700Y-37835721D01*
X119194700Y-39685078D01*
X119209232Y-39758135D01*
X119209233Y-39758139D01*
X119209234Y-39758140D01*
X119264599Y-39841001D01*
X119326814Y-39882571D01*
X119347460Y-39896366D01*
X119347464Y-39896367D01*
X119420521Y-39910899D01*
X119420524Y-39910900D01*
X119420526Y-39910900D01*
X121269876Y-39910900D01*
X121269877Y-39910899D01*
X121342940Y-39896366D01*
X121425801Y-39841001D01*
X121481166Y-39758140D01*
X121495700Y-39685074D01*
X121495700Y-39611372D01*
X121515385Y-39544333D01*
X121568189Y-39498578D01*
X121637347Y-39488634D01*
X121700903Y-39517659D01*
X121720019Y-39538488D01*
X121734132Y-39557913D01*
X122443061Y-38848984D01*
X122465867Y-38934094D01*
X122525110Y-39036706D01*
X122608894Y-39120490D01*
X122711506Y-39179733D01*
X122796614Y-39202537D01*
X122087685Y-39911465D01*
X122087685Y-39911466D01*
X122151443Y-39957788D01*
X122347789Y-40057832D01*
X122557364Y-40125926D01*
X122775019Y-40160400D01*
X122995381Y-40160400D01*
X123213035Y-40125926D01*
X123422610Y-40057832D01*
X123618960Y-39957786D01*
X123682713Y-39911466D01*
X123682714Y-39911466D01*
X122973785Y-39202538D01*
X123058894Y-39179733D01*
X123161506Y-39120490D01*
X123245290Y-39036706D01*
X123304533Y-38934094D01*
X123327337Y-38848985D01*
X124036266Y-39557914D01*
X124036266Y-39557913D01*
X124082586Y-39494160D01*
X124182632Y-39297810D01*
X124250726Y-39088235D01*
X124285200Y-38870581D01*
X124285200Y-38650218D01*
X124250726Y-38432564D01*
X124182632Y-38222989D01*
X124082588Y-38026643D01*
X124036266Y-37962885D01*
X124036265Y-37962885D01*
X123327337Y-38671813D01*
X123304533Y-38586706D01*
X123245290Y-38484094D01*
X123161506Y-38400310D01*
X123058894Y-38341067D01*
X122973783Y-38318261D01*
X123682713Y-37609332D01*
X123618956Y-37563011D01*
X123422610Y-37462967D01*
X123213035Y-37394873D01*
X122995381Y-37360400D01*
X122775019Y-37360400D01*
X122557364Y-37394873D01*
X122347789Y-37462967D01*
X122151433Y-37563016D01*
X122087685Y-37609331D01*
X122087685Y-37609332D01*
X122796614Y-38318261D01*
X122711506Y-38341067D01*
X122608894Y-38400310D01*
X122525110Y-38484094D01*
X122465867Y-38586706D01*
X122443061Y-38671814D01*
X121734132Y-37962885D01*
X121734131Y-37962885D01*
X121720019Y-37982310D01*
X121664690Y-38024977D01*
X121595076Y-38030957D01*
X121533281Y-37998351D01*
X121498923Y-37937513D01*
X121495700Y-37909426D01*
X121495700Y-37835723D01*
X121495699Y-37835721D01*
X121481167Y-37762664D01*
X121481166Y-37762660D01*
X121456324Y-37725481D01*
X121425801Y-37679799D01*
X121342940Y-37624434D01*
X121342939Y-37624433D01*
X121342935Y-37624432D01*
X121269877Y-37609900D01*
X121269874Y-37609900D01*
X119420526Y-37609900D01*
X119420523Y-37609900D01*
X119347464Y-37624432D01*
X119347460Y-37624433D01*
X119264599Y-37679799D01*
X119209233Y-37762660D01*
X119209232Y-37762664D01*
X119194700Y-37835721D01*
X113155838Y-37835721D01*
X113074197Y-37776406D01*
X113074196Y-37776405D01*
X113074194Y-37776404D01*
X112974253Y-37725481D01*
X112912839Y-37694188D01*
X112912836Y-37694187D01*
X112740610Y-37638229D01*
X112561751Y-37609900D01*
X112561746Y-37609900D01*
X112380654Y-37609900D01*
X112380649Y-37609900D01*
X112201789Y-37638229D01*
X112029563Y-37694187D01*
X112029560Y-37694188D01*
X111868202Y-37776406D01*
X111721705Y-37882841D01*
X111721700Y-37882845D01*
X111593645Y-38010900D01*
X111593641Y-38010905D01*
X111487206Y-38157402D01*
X111404988Y-38318760D01*
X111404987Y-38318763D01*
X111349029Y-38490989D01*
X111328173Y-38622666D01*
X111298244Y-38685801D01*
X111238932Y-38722732D01*
X111169069Y-38721734D01*
X111110837Y-38683124D01*
X111082723Y-38619160D01*
X111081700Y-38603268D01*
X111081700Y-37835723D01*
X111081699Y-37835721D01*
X111067167Y-37762664D01*
X111067166Y-37762660D01*
X111042324Y-37725481D01*
X111011801Y-37679799D01*
X110928940Y-37624434D01*
X110928939Y-37624433D01*
X110928935Y-37624432D01*
X110855877Y-37609900D01*
X110855874Y-37609900D01*
X109006526Y-37609900D01*
X109006523Y-37609900D01*
X108933464Y-37624432D01*
X108933460Y-37624433D01*
X108850599Y-37679799D01*
X108795233Y-37762660D01*
X108795232Y-37762664D01*
X108780700Y-37835721D01*
X95511325Y-37835721D01*
X95605093Y-37741953D01*
X95737713Y-37609332D01*
X95673956Y-37563011D01*
X95477610Y-37462967D01*
X95268035Y-37394873D01*
X95050381Y-37360400D01*
X94830019Y-37360400D01*
X94612364Y-37394873D01*
X94402789Y-37462967D01*
X94206433Y-37563016D01*
X94142685Y-37609331D01*
X94142685Y-37609332D01*
X94851614Y-38318261D01*
X94766506Y-38341067D01*
X94663894Y-38400310D01*
X94580110Y-38484094D01*
X94520867Y-38586706D01*
X94498061Y-38671814D01*
X93789132Y-37962885D01*
X93789131Y-37962885D01*
X93775019Y-37982310D01*
X93719690Y-38024977D01*
X93650076Y-38030957D01*
X93588281Y-37998351D01*
X93553923Y-37937513D01*
X93550700Y-37909426D01*
X93550700Y-37835723D01*
X93550699Y-37835721D01*
X93536167Y-37762664D01*
X93536166Y-37762660D01*
X93511324Y-37725481D01*
X93480801Y-37679799D01*
X93397940Y-37624434D01*
X93397939Y-37624433D01*
X93397935Y-37624432D01*
X93324877Y-37609900D01*
X93324874Y-37609900D01*
X91475526Y-37609900D01*
X91475523Y-37609900D01*
X91402464Y-37624432D01*
X91402460Y-37624433D01*
X91319599Y-37679799D01*
X91264233Y-37762660D01*
X91264232Y-37762664D01*
X91249700Y-37835721D01*
X85215838Y-37835721D01*
X85134197Y-37776406D01*
X85134196Y-37776405D01*
X85134194Y-37776404D01*
X85034253Y-37725481D01*
X84972839Y-37694188D01*
X84972836Y-37694187D01*
X84800610Y-37638229D01*
X84621751Y-37609900D01*
X84621746Y-37609900D01*
X84440654Y-37609900D01*
X84440649Y-37609900D01*
X84261789Y-37638229D01*
X84089563Y-37694187D01*
X84089560Y-37694188D01*
X83928202Y-37776406D01*
X83781705Y-37882841D01*
X83781700Y-37882845D01*
X83653645Y-38010900D01*
X83653641Y-38010905D01*
X83547206Y-38157402D01*
X83464988Y-38318760D01*
X83464987Y-38318763D01*
X83409029Y-38490989D01*
X83388173Y-38622666D01*
X83358244Y-38685801D01*
X83298932Y-38722732D01*
X83229069Y-38721734D01*
X83170837Y-38683124D01*
X83142723Y-38619160D01*
X83141700Y-38603268D01*
X83141700Y-37835723D01*
X83141699Y-37835721D01*
X83127167Y-37762664D01*
X83127166Y-37762660D01*
X83102324Y-37725481D01*
X83071801Y-37679799D01*
X82988940Y-37624434D01*
X82988939Y-37624433D01*
X82988935Y-37624432D01*
X82915877Y-37609900D01*
X82915874Y-37609900D01*
X81066526Y-37609900D01*
X81066523Y-37609900D01*
X80993464Y-37624432D01*
X80993460Y-37624433D01*
X80910599Y-37679799D01*
X80855233Y-37762660D01*
X80855232Y-37762664D01*
X80840700Y-37835721D01*
X77126427Y-37835721D01*
X78958088Y-36270483D01*
X78972171Y-36260077D01*
X79018187Y-36230862D01*
X79021215Y-36229003D01*
X80159828Y-35552827D01*
X80162943Y-35551039D01*
X81321125Y-34909085D01*
X81324320Y-34907375D01*
X82501183Y-34300139D01*
X82504350Y-34298566D01*
X83698688Y-33726668D01*
X83701983Y-33725150D01*
X84912826Y-33189054D01*
X84916147Y-33187642D01*
X86142415Y-32687825D01*
X86145796Y-32686506D01*
X87386375Y-32223423D01*
X87389735Y-32222225D01*
X88643629Y-31796249D01*
X88647050Y-31795143D01*
X89912979Y-31406709D01*
X89916518Y-31405682D01*
X91193386Y-31055119D01*
X91196924Y-31054203D01*
X92483789Y-30741775D01*
X92487273Y-30740985D01*
X93782815Y-30467012D01*
X93786387Y-30466312D01*
X95089516Y-30231025D01*
X95093080Y-30230436D01*
X96402656Y-30034041D01*
X96406224Y-30033561D01*
X97721042Y-29876237D01*
X97724672Y-29875858D01*
X99043577Y-29757745D01*
X99047226Y-29757474D01*
X100369023Y-29678676D01*
X100372674Y-29678512D01*
X101696242Y-29639096D01*
X101699933Y-29639042D01*
X103024067Y-29639042D01*
X103027757Y-29639096D01*
G37*
%TD.AperFunction*%
%TD*%
M02*
