%TF.GenerationSoftware,KiCad,Pcbnew,10.0.3*%
%TF.CreationDate,2026-08-23T20:33:26+05:30*%
%TF.ProjectId,schema,73636865-6d61-42e6-9b69-6361645f7063,rev?*%
%TF.SameCoordinates,Original*%
%TF.FileFunction,Legend,Top*%
%TF.FilePolarity,Positive*%
%FSLAX46Y46*%
G04 Gerber Fmt 4.6, Leading zero omitted, Abs format (unit mm)*
G04 Created by KiCad (PCBNEW 10.0.3) date 2026-08-23 20:33:26*
%MOMM*%
%LPD*%
G01*
G04 APERTURE LIST*
%ADD10C,0.100000*%
%ADD11C,0.200000*%
%ADD12C,0.150000*%
%ADD13C,0.120000*%
%ADD14C,0.127000*%
G04 APERTURE END LIST*
D10*
X59385200Y-80721200D02*
X65481200Y-80721200D01*
X65481200Y-101244400D01*
X59385200Y-101244400D01*
X59385200Y-80721200D01*
X139598400Y-80721200D02*
X145694400Y-80721200D01*
X145694400Y-101244400D01*
X139598400Y-101244400D01*
X139598400Y-80721200D01*
D11*
G36*
X63061268Y-83204395D02*
G01*
X64189303Y-83438868D01*
X64253902Y-83457874D01*
X64300729Y-83482574D01*
X64333651Y-83512141D01*
X64357149Y-83549586D01*
X64372328Y-83598127D01*
X64377889Y-83660885D01*
X64377889Y-84136884D01*
X64374228Y-84238610D01*
X64364425Y-84317318D01*
X64344362Y-84388072D01*
X64312768Y-84445912D01*
X64276605Y-84487922D01*
X64231710Y-84522299D01*
X64180382Y-84547209D01*
X64123358Y-84561500D01*
X64063329Y-84564762D01*
X63998153Y-84556646D01*
X63913002Y-84530408D01*
X63838937Y-84489974D01*
X63774253Y-84434869D01*
X63718020Y-84363461D01*
X63670165Y-84273080D01*
X63631953Y-84356372D01*
X63585809Y-84416446D01*
X63531846Y-84457770D01*
X63468621Y-84482731D01*
X63393345Y-84491332D01*
X63302244Y-84481175D01*
X63220634Y-84457155D01*
X63144830Y-84420356D01*
X63073907Y-84370166D01*
X63011650Y-84309586D01*
X62961923Y-84242328D01*
X62923881Y-84167658D01*
X62899694Y-84091519D01*
X62883215Y-84004260D01*
X62874550Y-83911074D01*
X62872389Y-83833443D01*
X63105873Y-83833443D01*
X63113522Y-83936119D01*
X63134285Y-84015628D01*
X63165905Y-84076746D01*
X63207646Y-84123117D01*
X63260392Y-84156930D01*
X63326516Y-84178649D01*
X63398837Y-84183878D01*
X63450889Y-84168732D01*
X63489181Y-84135601D01*
X63514783Y-84088194D01*
X63532687Y-84017339D01*
X63539107Y-83922744D01*
X63762397Y-83922744D01*
X63768398Y-84027614D01*
X63783555Y-84097958D01*
X63813922Y-84156697D01*
X63864338Y-84206585D01*
X63909299Y-84234479D01*
X63959135Y-84251006D01*
X64014961Y-84256639D01*
X64055511Y-84249444D01*
X64085215Y-84231995D01*
X64106780Y-84203928D01*
X64125053Y-84155156D01*
X64138233Y-84080810D01*
X64143416Y-83972203D01*
X64143416Y-83732967D01*
X63762397Y-83653741D01*
X63762397Y-83922744D01*
X63539107Y-83922744D01*
X63539648Y-83914775D01*
X63539648Y-83607487D01*
X63105873Y-83517270D01*
X63105873Y-83833443D01*
X62872389Y-83833443D01*
X62871400Y-83797905D01*
X62871400Y-83348926D01*
X62877654Y-83284838D01*
X62893609Y-83243102D01*
X62917012Y-83217035D01*
X62949290Y-83201944D01*
X62995506Y-83196560D01*
X63061268Y-83204395D01*
G37*
G36*
X63007779Y-85396169D02*
G01*
X63033882Y-85401573D01*
X62980246Y-85343848D01*
X62933681Y-85282596D01*
X62895653Y-85217333D01*
X62869201Y-85150339D01*
X62853446Y-85079313D01*
X62847952Y-84998847D01*
X62853023Y-84933260D01*
X62867446Y-84876847D01*
X62890542Y-84828030D01*
X62922866Y-84785287D01*
X62961780Y-84752695D01*
X63008145Y-84729295D01*
X63069212Y-84715669D01*
X63152965Y-84714788D01*
X63266340Y-84731310D01*
X63821474Y-84846715D01*
X63898522Y-84873022D01*
X63948785Y-84910920D01*
X63980480Y-84961435D01*
X63991009Y-85019638D01*
X63985782Y-85059904D01*
X63971308Y-85090388D01*
X63947778Y-85113519D01*
X63917454Y-85127497D01*
X63876276Y-85132547D01*
X63820191Y-85126067D01*
X63371853Y-85032919D01*
X63278250Y-85017883D01*
X63209279Y-85014967D01*
X63149204Y-85025588D01*
X63107246Y-85050230D01*
X63087855Y-85074655D01*
X63075342Y-85107971D01*
X63070702Y-85153087D01*
X63080688Y-85220179D01*
X63112376Y-85290565D01*
X63160553Y-85353124D01*
X63221186Y-85401756D01*
X63298652Y-85433301D01*
X63480846Y-85478510D01*
X63821474Y-85549310D01*
X63897554Y-85575561D01*
X63948236Y-85614339D01*
X63980390Y-85665823D01*
X63991009Y-85724249D01*
X63985831Y-85763838D01*
X63971511Y-85793645D01*
X63948236Y-85816114D01*
X63918315Y-85829543D01*
X63877058Y-85834277D01*
X63820191Y-85827563D01*
X63008328Y-85658853D01*
X62934961Y-85633779D01*
X62886604Y-85597303D01*
X62855966Y-85549193D01*
X62845937Y-85495454D01*
X62850974Y-85459259D01*
X62865158Y-85431099D01*
X62888710Y-85408992D01*
X62918545Y-85395469D01*
X62957201Y-85390530D01*
X63007779Y-85396169D01*
G37*
G36*
X63828709Y-86403579D02*
G01*
X63020327Y-86235510D01*
X62965842Y-86219285D01*
X62923714Y-86196962D01*
X62891641Y-86169015D01*
X62858689Y-86116612D01*
X62847952Y-86058922D01*
X62853330Y-86020222D01*
X62868364Y-85990664D01*
X62893198Y-85967972D01*
X62924694Y-85954429D01*
X62966312Y-85949709D01*
X63021609Y-85956157D01*
X63821748Y-86122486D01*
X63897776Y-86148566D01*
X63948327Y-86186967D01*
X63980437Y-86237845D01*
X63991009Y-86295319D01*
X63985876Y-86334215D01*
X63971496Y-86364436D01*
X63947869Y-86388101D01*
X63917615Y-86403058D01*
X63878912Y-86408837D01*
X63828709Y-86403579D01*
G37*
G36*
X64114107Y-86325178D02*
G01*
X64123745Y-86271936D01*
X64151201Y-86232671D01*
X64177859Y-86215945D01*
X64211772Y-86208841D01*
X64255890Y-86212795D01*
X64311215Y-86234711D01*
X64356091Y-86275810D01*
X64385954Y-86328583D01*
X64395475Y-86382422D01*
X64386261Y-86432399D01*
X64359388Y-86471632D01*
X64333318Y-86488733D01*
X64299499Y-86496095D01*
X64254699Y-86492148D01*
X64195213Y-86469321D01*
X64151385Y-86429866D01*
X64123225Y-86378852D01*
X64114107Y-86325178D01*
G37*
G36*
X63021609Y-86524754D02*
G01*
X64234824Y-86776996D01*
X64311923Y-86803031D01*
X64363418Y-86840835D01*
X64396274Y-86891468D01*
X64407199Y-86950470D01*
X64401926Y-86990692D01*
X64387312Y-87021145D01*
X64363510Y-87044259D01*
X64332884Y-87058123D01*
X64290971Y-87063061D01*
X64233542Y-87056349D01*
X63020327Y-86804107D01*
X62965124Y-86787762D01*
X62922904Y-86765541D01*
X62891183Y-86737978D01*
X62858654Y-86686004D01*
X62847952Y-86627520D01*
X62853330Y-86588819D01*
X62868364Y-86559262D01*
X62893198Y-86536570D01*
X62924694Y-86523026D01*
X62966312Y-86518306D01*
X63021609Y-86524754D01*
G37*
G36*
X63429464Y-87115059D02*
G01*
X63558986Y-87150622D01*
X63668596Y-87198031D01*
X63761023Y-87256486D01*
X63838418Y-87325902D01*
X63903541Y-87408623D01*
X63948860Y-87495614D01*
X63975962Y-87588146D01*
X63985147Y-87687961D01*
X63979942Y-87766507D01*
X63965635Y-87829647D01*
X63943656Y-87880211D01*
X63893595Y-87947943D01*
X63821840Y-88009446D01*
X64229970Y-88094351D01*
X64309716Y-88120243D01*
X64362227Y-88155900D01*
X64387279Y-88187184D01*
X64402115Y-88222373D01*
X64407199Y-88262787D01*
X64402013Y-88303095D01*
X64387966Y-88331981D01*
X64365525Y-88352454D01*
X64336555Y-88364251D01*
X64297214Y-88368122D01*
X64243800Y-88361613D01*
X63010068Y-88105158D01*
X62936921Y-88079989D01*
X62888619Y-88043151D01*
X62858012Y-87994520D01*
X62847952Y-87939836D01*
X62852987Y-87903703D01*
X62867167Y-87875571D01*
X62890725Y-87853466D01*
X62920583Y-87840037D01*
X62959857Y-87835191D01*
X63011900Y-87841101D01*
X63030493Y-87844948D01*
X62975532Y-87781779D01*
X62931117Y-87720567D01*
X62895061Y-87656518D01*
X62869201Y-87590783D01*
X62866242Y-87577960D01*
X63070702Y-87577960D01*
X63080008Y-87647645D01*
X63108620Y-87716354D01*
X63155235Y-87778045D01*
X63225033Y-87834965D01*
X63310336Y-87878629D01*
X63421495Y-87911168D01*
X63528322Y-87923742D01*
X63611364Y-87915382D01*
X63661838Y-87898529D01*
X63701542Y-87875196D01*
X63732356Y-87845589D01*
X63763477Y-87790127D01*
X63774121Y-87723407D01*
X63763576Y-87651397D01*
X63731165Y-87581532D01*
X63680053Y-87519843D01*
X63607517Y-87464937D01*
X63522065Y-87423216D01*
X63420213Y-87393679D01*
X63311611Y-87380451D01*
X63228788Y-87388092D01*
X63178752Y-87404504D01*
X63139959Y-87427508D01*
X63110361Y-87456877D01*
X63080826Y-87511973D01*
X63070702Y-87577960D01*
X62866242Y-87577960D01*
X62853335Y-87522032D01*
X62847952Y-87448725D01*
X62852926Y-87383910D01*
X62867289Y-87326145D01*
X62890634Y-87274244D01*
X62922997Y-87227479D01*
X62963385Y-87187365D01*
X63012633Y-87153436D01*
X63096942Y-87117738D01*
X63198654Y-87098756D01*
X63307328Y-87097901D01*
X63429464Y-87115059D01*
G37*
G36*
X63011351Y-88921418D02*
G01*
X64232809Y-89175308D01*
X64311148Y-89200953D01*
X64362868Y-89236583D01*
X64387655Y-89267775D01*
X64402236Y-89302268D01*
X64407199Y-89341271D01*
X64401882Y-89382101D01*
X64387454Y-89411408D01*
X64364334Y-89432221D01*
X64334605Y-89444306D01*
X64295284Y-89448312D01*
X64243067Y-89442022D01*
X63822481Y-89354644D01*
X63891353Y-89444570D01*
X63941733Y-89532056D01*
X63965316Y-89593255D01*
X63980015Y-89662316D01*
X63985147Y-89740608D01*
X63977171Y-89830057D01*
X63954661Y-89904823D01*
X63918652Y-89967754D01*
X63868959Y-90020117D01*
X63805753Y-90060292D01*
X63726311Y-90088380D01*
X63642026Y-90101237D01*
X63543586Y-90100374D01*
X63428182Y-90083434D01*
X63305144Y-90049711D01*
X63195082Y-90003200D01*
X63095161Y-89943072D01*
X63011076Y-89872866D01*
X62941627Y-89791249D01*
X62890542Y-89701316D01*
X62858594Y-89604088D01*
X62847952Y-89502472D01*
X62849518Y-89478383D01*
X63070702Y-89478383D01*
X63080050Y-89542953D01*
X63109066Y-89607266D01*
X63161285Y-89673289D01*
X63226878Y-89726572D01*
X63312159Y-89769655D01*
X63421495Y-89801516D01*
X63527541Y-89815097D01*
X63609990Y-89809760D01*
X63681576Y-89786238D01*
X63731440Y-89748119D01*
X63754713Y-89714392D01*
X63769060Y-89674218D01*
X63774121Y-89625845D01*
X63763526Y-89550914D01*
X63731165Y-89478933D01*
X63679835Y-89415118D01*
X63606509Y-89357575D01*
X63519235Y-89313666D01*
X63412062Y-89282287D01*
X63302056Y-89269163D01*
X63220075Y-89277769D01*
X63158812Y-89303261D01*
X63110468Y-89346559D01*
X63081193Y-89403423D01*
X63070702Y-89478383D01*
X62849518Y-89478383D01*
X62851985Y-89440454D01*
X62863523Y-89385876D01*
X62882249Y-89336262D01*
X62904555Y-89298865D01*
X62956854Y-89242445D01*
X63031318Y-89190146D01*
X63010618Y-89185841D01*
X62938109Y-89160624D01*
X62889260Y-89122827D01*
X62858115Y-89073156D01*
X62847952Y-89018321D01*
X62852991Y-88980756D01*
X62866918Y-88952672D01*
X62889626Y-88931676D01*
X62918679Y-88919290D01*
X62958016Y-88915057D01*
X63011351Y-88921418D01*
G37*
G36*
X62815621Y-90437891D02*
G01*
X62877170Y-90475260D01*
X63744262Y-90319281D01*
X63815002Y-90309045D01*
X63854172Y-90310946D01*
X63889203Y-90322653D01*
X63922132Y-90343278D01*
X63950282Y-90370893D01*
X63972233Y-90404094D01*
X63986490Y-90440483D01*
X63991009Y-90474986D01*
X63986036Y-90513388D01*
X63972702Y-90540144D01*
X63951533Y-90558425D01*
X63907296Y-90576456D01*
X63839700Y-90589200D01*
X63159087Y-90676211D01*
X63792439Y-91024715D01*
X63915080Y-91097530D01*
X63954445Y-91129287D01*
X63975255Y-91155324D01*
X63986725Y-91185332D01*
X63991009Y-91226674D01*
X63986606Y-91257178D01*
X63973515Y-91284376D01*
X63953069Y-91306196D01*
X63926529Y-91320005D01*
X63896495Y-91325715D01*
X63864247Y-91323119D01*
X63808376Y-91298389D01*
X63735378Y-91261203D01*
X62779808Y-90705704D01*
X62661439Y-90632659D01*
X62581422Y-90573812D01*
X62517368Y-90508801D01*
X62470505Y-90433312D01*
X62449912Y-90377789D01*
X62436575Y-90310195D01*
X62431762Y-90228148D01*
X62439815Y-90115810D01*
X62458965Y-90051285D01*
X62481626Y-90022237D01*
X62513321Y-90008585D01*
X62558708Y-90010436D01*
X62602682Y-90027139D01*
X62634270Y-90055407D01*
X62653799Y-90094220D01*
X62660923Y-90147273D01*
X62654695Y-90189954D01*
X62648650Y-90233002D01*
X62652505Y-90276854D01*
X62662755Y-90308839D01*
X62681069Y-90336891D01*
X62711939Y-90367000D01*
X62815621Y-90437891D01*
G37*
G36*
X60806058Y-87983905D02*
G01*
X60718063Y-87957977D01*
X60636490Y-87918173D01*
X60560319Y-87863829D01*
X60493864Y-87797876D01*
X60437005Y-87719301D01*
X60389593Y-87626516D01*
X60355941Y-87527613D01*
X60335141Y-87418917D01*
X60327952Y-87298895D01*
X60334087Y-87187900D01*
X60351146Y-87095594D01*
X60377541Y-87019059D01*
X60412308Y-86955795D01*
X60457334Y-86902076D01*
X60511132Y-86858820D01*
X60574790Y-86825369D01*
X60643434Y-86803919D01*
X60708924Y-86796869D01*
X60772627Y-86803296D01*
X60824346Y-86823400D01*
X60868889Y-86861456D01*
X60899071Y-86911486D01*
X60909006Y-86967336D01*
X60900781Y-87011172D01*
X60877407Y-87042715D01*
X60840924Y-87064578D01*
X60784717Y-87080359D01*
X60716775Y-87096433D01*
X60665740Y-87115622D01*
X60623002Y-87144638D01*
X60587338Y-87189719D01*
X60565218Y-87248101D01*
X60556563Y-87337089D01*
X60563880Y-87422779D01*
X60584876Y-87497521D01*
X60618937Y-87563319D01*
X60665765Y-87619932D01*
X60717242Y-87657112D01*
X60774550Y-87677716D01*
X60822784Y-87682346D01*
X60861661Y-87675591D01*
X60893710Y-87658757D01*
X60933283Y-87618023D01*
X60963869Y-87559472D01*
X61015984Y-87381968D01*
X61059331Y-87238901D01*
X61105011Y-87134398D01*
X61144080Y-87074639D01*
X61190449Y-87027952D01*
X61244687Y-86992798D01*
X61305228Y-86971585D01*
X61377370Y-86964978D01*
X61464506Y-86975304D01*
X61544568Y-86999267D01*
X61618133Y-87036557D01*
X61686248Y-87087869D01*
X61744921Y-87150054D01*
X61794548Y-87223994D01*
X61835175Y-87311260D01*
X61863527Y-87403730D01*
X61881112Y-87505476D01*
X61887199Y-87617815D01*
X61877794Y-87747581D01*
X61852577Y-87845786D01*
X61810952Y-87930336D01*
X61760528Y-87991690D01*
X61700250Y-88037197D01*
X61639811Y-88062765D01*
X61576888Y-88072560D01*
X61516438Y-88067436D01*
X61464740Y-88047502D01*
X61416787Y-88008543D01*
X61383190Y-87957863D01*
X61372457Y-87903854D01*
X61379852Y-87856993D01*
X61398927Y-87829574D01*
X61430359Y-87810007D01*
X61484839Y-87788633D01*
X61562949Y-87759416D01*
X61617188Y-87721038D01*
X61641138Y-87687078D01*
X61657865Y-87633574D01*
X61664449Y-87552603D01*
X61658373Y-87477805D01*
X61641064Y-87413455D01*
X61613250Y-87357697D01*
X61574816Y-87309261D01*
X61534196Y-87278475D01*
X61490518Y-87262167D01*
X61448478Y-87259669D01*
X61414497Y-87269861D01*
X61385355Y-87290990D01*
X61359268Y-87323350D01*
X61322814Y-87400287D01*
X61283980Y-87534284D01*
X61251856Y-87649015D01*
X61218217Y-87746043D01*
X61177003Y-87833662D01*
X61130565Y-87900191D01*
X61072319Y-87951263D01*
X60999681Y-87984180D01*
X60946496Y-87994293D01*
X60882742Y-87994835D01*
X60806058Y-87983905D01*
G37*
G36*
X60901129Y-88210593D02*
G01*
X61021397Y-88244756D01*
X61131481Y-88294673D01*
X61230820Y-88360193D01*
X61313747Y-88438197D01*
X61380794Y-88529439D01*
X61430434Y-88633652D01*
X61460732Y-88746415D01*
X61471009Y-88867575D01*
X61462468Y-88973124D01*
X61438679Y-89059361D01*
X61401308Y-89129984D01*
X61349584Y-89190794D01*
X61289959Y-89235557D01*
X61221240Y-89265813D01*
X61147160Y-89282458D01*
X61072560Y-89286097D01*
X60996384Y-89276713D01*
X60929291Y-89255017D01*
X60885055Y-89225211D01*
X60857898Y-89187869D01*
X60834942Y-89115291D01*
X60826208Y-89013388D01*
X60826208Y-89004687D01*
X60990339Y-89004687D01*
X61083494Y-89009617D01*
X61151652Y-88998186D01*
X61201273Y-88974096D01*
X61239540Y-88935816D01*
X61263162Y-88885265D01*
X61271707Y-88818391D01*
X61263796Y-88753617D01*
X61240204Y-88693749D01*
X61199716Y-88637132D01*
X61147416Y-88590147D01*
X61078743Y-88549266D01*
X60990339Y-88515041D01*
X60990339Y-89004687D01*
X60826208Y-89004687D01*
X60826208Y-88480603D01*
X60736078Y-88472133D01*
X60660977Y-88483351D01*
X60596452Y-88513086D01*
X60552076Y-88556624D01*
X60524958Y-88612773D01*
X60515531Y-88680913D01*
X60518534Y-88728735D01*
X60527254Y-88772321D01*
X60542116Y-88814479D01*
X60564166Y-88858142D01*
X60618021Y-88939200D01*
X60696331Y-89038668D01*
X60710483Y-89067055D01*
X60715566Y-89104430D01*
X60709000Y-89143715D01*
X60691111Y-89170009D01*
X60663178Y-89184033D01*
X60622509Y-89182924D01*
X60583960Y-89168591D01*
X60533208Y-89135113D01*
X60485027Y-89089740D01*
X60435846Y-89026486D01*
X60394219Y-88953162D01*
X60358635Y-88862446D01*
X60335901Y-88763819D01*
X60327952Y-88651237D01*
X60335241Y-88543197D01*
X60355527Y-88454072D01*
X60387119Y-88380611D01*
X60429317Y-88320187D01*
X60482466Y-88270951D01*
X60561592Y-88225970D01*
X60655052Y-88199645D01*
X60766664Y-88193337D01*
X60901129Y-88210593D01*
G37*
G36*
X60734067Y-89751521D02*
G01*
X60500418Y-89702978D01*
X60445195Y-89686589D01*
X60402944Y-89664219D01*
X60371183Y-89636391D01*
X60338588Y-89584111D01*
X60327952Y-89526482D01*
X60333180Y-89488331D01*
X60347850Y-89458816D01*
X60372099Y-89435806D01*
X60403042Y-89421985D01*
X60444878Y-89417091D01*
X60501609Y-89423716D01*
X61280225Y-89585558D01*
X61356536Y-89608312D01*
X61409156Y-89637512D01*
X61443773Y-89672063D01*
X61464031Y-89712490D01*
X61471009Y-89760863D01*
X61465189Y-89804865D01*
X61449872Y-89833923D01*
X61425763Y-89852363D01*
X61376405Y-89864988D01*
X61305229Y-89860881D01*
X61376101Y-89923290D01*
X61426587Y-89982239D01*
X61450873Y-90025086D01*
X61465802Y-90074083D01*
X61471009Y-90130708D01*
X61459775Y-90214415D01*
X61426221Y-90290992D01*
X61391693Y-90331114D01*
X61352956Y-90349353D01*
X61306786Y-90348786D01*
X61259335Y-90330145D01*
X61220782Y-90295572D01*
X61194770Y-90252062D01*
X61186893Y-90212132D01*
X61205853Y-90142981D01*
X61220392Y-90090229D01*
X61224812Y-90045803D01*
X61216670Y-89989694D01*
X61192938Y-89942305D01*
X61155010Y-89902144D01*
X61098050Y-89864178D01*
X61031247Y-89833038D01*
X60947474Y-89803911D01*
X60734067Y-89751521D01*
G37*
G36*
X61293230Y-90685383D02*
G01*
X60675998Y-90732370D01*
X61250091Y-91011356D01*
X61375571Y-91076202D01*
X61407459Y-91100238D01*
X61440143Y-91137294D01*
X61462956Y-91182626D01*
X61471009Y-91240059D01*
X61462405Y-91296392D01*
X61439868Y-91331375D01*
X61406863Y-91355153D01*
X61372640Y-91367096D01*
X61248992Y-91380743D01*
X60675998Y-91420951D01*
X61294330Y-91727140D01*
X61393065Y-91776874D01*
X61421631Y-91797599D01*
X61447378Y-91825875D01*
X61464730Y-91860775D01*
X61471009Y-91907483D01*
X61461838Y-91953254D01*
X61435105Y-91987717D01*
X61396390Y-92007373D01*
X61350658Y-92007317D01*
X61302924Y-91991126D01*
X61219774Y-91948974D01*
X60549786Y-91586090D01*
X60426413Y-91515290D01*
X60390823Y-91487393D01*
X60358086Y-91449802D01*
X60335824Y-91404638D01*
X60327952Y-91347404D01*
X60336892Y-91290108D01*
X60360467Y-91254164D01*
X60396150Y-91230188D01*
X60439510Y-91216978D01*
X60559952Y-91204705D01*
X61093654Y-91162390D01*
X60558853Y-90902546D01*
X60453145Y-90846867D01*
X60386479Y-90801063D01*
X60354558Y-90765581D01*
X60334956Y-90720812D01*
X60327952Y-90663859D01*
X60332915Y-90620851D01*
X60346362Y-90589304D01*
X60368316Y-90564421D01*
X60398569Y-90546257D01*
X60478345Y-90525282D01*
X60550793Y-90515299D01*
X61220782Y-90433050D01*
X61308551Y-90424548D01*
X61351849Y-90427097D01*
X61394554Y-90444447D01*
X61434464Y-90479945D01*
X61462058Y-90526000D01*
X61471009Y-90575566D01*
X61465481Y-90619840D01*
X61451467Y-90646771D01*
X61430159Y-90661936D01*
X61382298Y-90674746D01*
X61293230Y-90685383D01*
G37*
G36*
X61308709Y-92499253D02*
G01*
X60500327Y-92331183D01*
X60445842Y-92314959D01*
X60403714Y-92292635D01*
X60371641Y-92264688D01*
X60338689Y-92212286D01*
X60327952Y-92154596D01*
X60333330Y-92115895D01*
X60348364Y-92086338D01*
X60373198Y-92063646D01*
X60404694Y-92050102D01*
X60446312Y-92045382D01*
X60501609Y-92051831D01*
X61301748Y-92218160D01*
X61377776Y-92244240D01*
X61428327Y-92282640D01*
X61460437Y-92333519D01*
X61471009Y-92390992D01*
X61465876Y-92429888D01*
X61451496Y-92460110D01*
X61427869Y-92483774D01*
X61397615Y-92498731D01*
X61358912Y-92504511D01*
X61308709Y-92499253D01*
G37*
G36*
X61594107Y-92420851D02*
G01*
X61603745Y-92367610D01*
X61631201Y-92328344D01*
X61657859Y-92311618D01*
X61691772Y-92304515D01*
X61735890Y-92308469D01*
X61791215Y-92330384D01*
X61836091Y-92371483D01*
X61865954Y-92424257D01*
X61875475Y-92478095D01*
X61866261Y-92528073D01*
X61839388Y-92567305D01*
X61813318Y-92584406D01*
X61779499Y-92591769D01*
X61734699Y-92587821D01*
X61675213Y-92564995D01*
X61631385Y-92525540D01*
X61603225Y-92474526D01*
X61594107Y-92420851D01*
G37*
G36*
X61312190Y-93043487D02*
G01*
X61288468Y-93038541D01*
X61369189Y-93128509D01*
X61424938Y-93219891D01*
X61450398Y-93285109D01*
X61465785Y-93354071D01*
X61471009Y-93427620D01*
X61465191Y-93498933D01*
X61448646Y-93560025D01*
X61422099Y-93612725D01*
X61385007Y-93657662D01*
X61339437Y-93690712D01*
X61283888Y-93712743D01*
X61230881Y-93723933D01*
X61172422Y-93724833D01*
X61020289Y-93701294D01*
X60500235Y-93593217D01*
X60423169Y-93566880D01*
X60371641Y-93528279D01*
X60338744Y-93477236D01*
X60327952Y-93419743D01*
X60333341Y-93380340D01*
X60348372Y-93350313D01*
X60373107Y-93327328D01*
X60404644Y-93313476D01*
X60446233Y-93308550D01*
X60501426Y-93314871D01*
X60967258Y-93411775D01*
X61060211Y-93426023D01*
X61127982Y-93426969D01*
X61176452Y-93418369D01*
X61214465Y-93395889D01*
X61238757Y-93354768D01*
X61248259Y-93286387D01*
X61237554Y-93216012D01*
X61204112Y-93145336D01*
X61152414Y-93083429D01*
X61082937Y-93032771D01*
X61006605Y-93003125D01*
X60850296Y-92964444D01*
X60500143Y-92891629D01*
X60444995Y-92875349D01*
X60402804Y-92853189D01*
X60371092Y-92825683D01*
X60338638Y-92773703D01*
X60327952Y-92715133D01*
X60333283Y-92677144D01*
X60348281Y-92647717D01*
X60373198Y-92624733D01*
X60404735Y-92610892D01*
X60446350Y-92605992D01*
X60501609Y-92612368D01*
X61309900Y-92780437D01*
X61383157Y-92805099D01*
X61430800Y-92840246D01*
X61460898Y-92887448D01*
X61471009Y-92943561D01*
X61466318Y-92978529D01*
X61452965Y-93006759D01*
X61431028Y-93028662D01*
X61399110Y-93043487D01*
X61361357Y-93048789D01*
X61312190Y-93043487D01*
G37*
G36*
X60327952Y-94036884D02*
G01*
X60332907Y-93996533D01*
X60347005Y-93963454D01*
X60370267Y-93935950D01*
X60400545Y-93917541D01*
X60438857Y-93909802D01*
X60488420Y-93914335D01*
X60547280Y-93937298D01*
X60598329Y-93980922D01*
X60633221Y-94037668D01*
X60644491Y-94098525D01*
X60639120Y-94139337D01*
X60623856Y-94172257D01*
X60598512Y-94199183D01*
X60566268Y-94217513D01*
X60529775Y-94225170D01*
X60487137Y-94221715D01*
X60440257Y-94206753D01*
X60401801Y-94183651D01*
X60370359Y-94152197D01*
X60338242Y-94095450D01*
X60327952Y-94036884D01*
G37*
G36*
X60909464Y-94566280D02*
G01*
X61038986Y-94601843D01*
X61148596Y-94649252D01*
X61241023Y-94707707D01*
X61318418Y-94777123D01*
X61383541Y-94859844D01*
X61428860Y-94946836D01*
X61455962Y-95039367D01*
X61465147Y-95139182D01*
X61459942Y-95217728D01*
X61445635Y-95280868D01*
X61423656Y-95331432D01*
X61373595Y-95399164D01*
X61301840Y-95460667D01*
X61709970Y-95545572D01*
X61789716Y-95571465D01*
X61842227Y-95607121D01*
X61867279Y-95638406D01*
X61882115Y-95673594D01*
X61887199Y-95714008D01*
X61882013Y-95754316D01*
X61867966Y-95783203D01*
X61845525Y-95803675D01*
X61816555Y-95815472D01*
X61777214Y-95819343D01*
X61723800Y-95812835D01*
X60490068Y-95556380D01*
X60416921Y-95531210D01*
X60368619Y-95494372D01*
X60338012Y-95445741D01*
X60327952Y-95391058D01*
X60332987Y-95354924D01*
X60347167Y-95326792D01*
X60370725Y-95304687D01*
X60400583Y-95291258D01*
X60439857Y-95286412D01*
X60491900Y-95292322D01*
X60510493Y-95296169D01*
X60455532Y-95233000D01*
X60411117Y-95171789D01*
X60375061Y-95107739D01*
X60349201Y-95042004D01*
X60346242Y-95029181D01*
X60550702Y-95029181D01*
X60560008Y-95098866D01*
X60588620Y-95167575D01*
X60635235Y-95229266D01*
X60705033Y-95286186D01*
X60790336Y-95329850D01*
X60901495Y-95362390D01*
X61008322Y-95374963D01*
X61091364Y-95366603D01*
X61141838Y-95349750D01*
X61181542Y-95326417D01*
X61212356Y-95296810D01*
X61243477Y-95241348D01*
X61254121Y-95174628D01*
X61243576Y-95102618D01*
X61211165Y-95032753D01*
X61160053Y-94971064D01*
X61087517Y-94916158D01*
X61002065Y-94874437D01*
X60900213Y-94844900D01*
X60791611Y-94831672D01*
X60708788Y-94839313D01*
X60658752Y-94855725D01*
X60619959Y-94878729D01*
X60590361Y-94908098D01*
X60560826Y-94963194D01*
X60550702Y-95029181D01*
X60346242Y-95029181D01*
X60333335Y-94973253D01*
X60327952Y-94899946D01*
X60332926Y-94835131D01*
X60347289Y-94777367D01*
X60370634Y-94725465D01*
X60402997Y-94678700D01*
X60443385Y-94638586D01*
X60492633Y-94604657D01*
X60576942Y-94568959D01*
X60678654Y-94549977D01*
X60787328Y-94549122D01*
X60909464Y-94566280D01*
G37*
G36*
X60901129Y-95888122D02*
G01*
X61021397Y-95922286D01*
X61131481Y-95972203D01*
X61230820Y-96037722D01*
X61313747Y-96115726D01*
X61380794Y-96206969D01*
X61430434Y-96311182D01*
X61460732Y-96423944D01*
X61471009Y-96545105D01*
X61462468Y-96650653D01*
X61438679Y-96736891D01*
X61401308Y-96807514D01*
X61349584Y-96868324D01*
X61289959Y-96913087D01*
X61221240Y-96943343D01*
X61147160Y-96959988D01*
X61072560Y-96963627D01*
X60996384Y-96954242D01*
X60929291Y-96932546D01*
X60885055Y-96902741D01*
X60857898Y-96865399D01*
X60834942Y-96792821D01*
X60826208Y-96690918D01*
X60826208Y-96682217D01*
X60990339Y-96682217D01*
X61083494Y-96687146D01*
X61151652Y-96675716D01*
X61201273Y-96651626D01*
X61239540Y-96613345D01*
X61263162Y-96562795D01*
X61271707Y-96495921D01*
X61263796Y-96431147D01*
X61240204Y-96371279D01*
X61199716Y-96314662D01*
X61147416Y-96267677D01*
X61078743Y-96226796D01*
X60990339Y-96192571D01*
X60990339Y-96682217D01*
X60826208Y-96682217D01*
X60826208Y-96158133D01*
X60736078Y-96149663D01*
X60660977Y-96160881D01*
X60596452Y-96190615D01*
X60552076Y-96234153D01*
X60524958Y-96290302D01*
X60515531Y-96358443D01*
X60518534Y-96406265D01*
X60527254Y-96449850D01*
X60542116Y-96492009D01*
X60564166Y-96535671D01*
X60618021Y-96616729D01*
X60696331Y-96716197D01*
X60710483Y-96744585D01*
X60715566Y-96781960D01*
X60709000Y-96821245D01*
X60691111Y-96847539D01*
X60663178Y-96861562D01*
X60622509Y-96860453D01*
X60583960Y-96846121D01*
X60533208Y-96812643D01*
X60485027Y-96767269D01*
X60435846Y-96704016D01*
X60394219Y-96630691D01*
X60358635Y-96539976D01*
X60335901Y-96441349D01*
X60327952Y-96328767D01*
X60335241Y-96220727D01*
X60355527Y-96131602D01*
X60387119Y-96058141D01*
X60429317Y-95997716D01*
X60482466Y-95948481D01*
X60561592Y-95903500D01*
X60655052Y-95877174D01*
X60766664Y-95870866D01*
X60901129Y-95888122D01*
G37*
G36*
X61294330Y-97440866D02*
G01*
X60668030Y-97529251D01*
X61323089Y-97901294D01*
X61396382Y-97946803D01*
X61437120Y-97980612D01*
X61462203Y-98019774D01*
X61471009Y-98071562D01*
X61461470Y-98119809D01*
X61434006Y-98155001D01*
X61394417Y-98174960D01*
X61348551Y-98174968D01*
X61305046Y-98159398D01*
X61258609Y-98134577D01*
X61209333Y-98104718D01*
X60543558Y-97703732D01*
X60470651Y-97659952D01*
X60394905Y-97604905D01*
X60366606Y-97574491D01*
X60345629Y-97540792D01*
X60332521Y-97503188D01*
X60327952Y-97459276D01*
X60335626Y-97405138D01*
X60355796Y-97370249D01*
X60385509Y-97345139D01*
X60416338Y-97330682D01*
X60544473Y-97301556D01*
X61203288Y-97177816D01*
X61252472Y-97169390D01*
X61303031Y-97163803D01*
X61347819Y-97166642D01*
X61376198Y-97176606D01*
X61405796Y-97195951D01*
X61431774Y-97221827D01*
X61452782Y-97253654D01*
X61466549Y-97288788D01*
X61471009Y-97323812D01*
X61465502Y-97368130D01*
X61451437Y-97395649D01*
X61429976Y-97411648D01*
X61381979Y-97426410D01*
X61294330Y-97440866D01*
G37*
G36*
X142723082Y-97734944D02*
G01*
X142844769Y-97768717D01*
X142951127Y-97815287D01*
X143044097Y-97874233D01*
X143125167Y-97945787D01*
X143196857Y-98035772D01*
X143247267Y-98132884D01*
X143277757Y-98238738D01*
X143288199Y-98355565D01*
X143282337Y-98475091D01*
X143276475Y-98594709D01*
X143281039Y-98620346D01*
X143293356Y-98636496D01*
X143314394Y-98645634D01*
X143454803Y-98665876D01*
X143594205Y-98685842D01*
X143612093Y-98695011D01*
X143617744Y-98711763D01*
X143614172Y-98894395D01*
X143610600Y-99077119D01*
X143603293Y-99097273D01*
X143580924Y-99100017D01*
X143239564Y-99025554D01*
X142898113Y-98951090D01*
X142572279Y-98889921D01*
X142222537Y-98837609D01*
X142208249Y-98835685D01*
X142193571Y-98827210D01*
X142184710Y-98800606D01*
X142177797Y-98697481D01*
X142174452Y-98453751D01*
X142176332Y-98316456D01*
X142502714Y-98316456D01*
X142509926Y-98459051D01*
X142521124Y-98488738D01*
X142557208Y-98500349D01*
X142757795Y-98544975D01*
X142851584Y-98562011D01*
X142945282Y-98578956D01*
X142952731Y-98573128D01*
X142961148Y-98532688D01*
X142965798Y-98402734D01*
X142956288Y-98320446D01*
X142929819Y-98255990D01*
X142887176Y-98205173D01*
X142826045Y-98165927D01*
X142741400Y-98138677D01*
X142661262Y-98129792D01*
X142603164Y-98137989D01*
X142560915Y-98159414D01*
X142530384Y-98193711D01*
X142510328Y-98244055D01*
X142502714Y-98316456D01*
X142176332Y-98316456D01*
X142178573Y-98152874D01*
X142192080Y-98036334D01*
X142222814Y-97941562D01*
X142269152Y-97864372D01*
X142331347Y-97801805D01*
X142408567Y-97755208D01*
X142497344Y-97727736D01*
X142600856Y-97720039D01*
X142723082Y-97734944D01*
G37*
G36*
X142971935Y-96961183D02*
G01*
X142994276Y-96970713D01*
X143007158Y-96987090D01*
X143011869Y-97012565D01*
X143009396Y-97067703D01*
X143006831Y-97121833D01*
X143014660Y-97198017D01*
X143033484Y-97240627D01*
X143069312Y-97269316D01*
X143141104Y-97293017D01*
X143274918Y-97319304D01*
X143408641Y-97345590D01*
X143497393Y-97360062D01*
X143584954Y-97374258D01*
X143603572Y-97385694D01*
X143612615Y-97413093D01*
X143616736Y-97561287D01*
X143610600Y-97712321D01*
X143599852Y-97735158D01*
X143576619Y-97738424D01*
X143330148Y-97686126D01*
X143083584Y-97633827D01*
X142920390Y-97605515D01*
X142789328Y-97593428D01*
X142685255Y-97594260D01*
X142669868Y-97592978D01*
X142657073Y-97586634D01*
X142649260Y-97573652D01*
X142627369Y-97407781D01*
X142596503Y-97237879D01*
X142606709Y-97227743D01*
X142661350Y-97228354D01*
X142717018Y-97230570D01*
X142726196Y-97223774D01*
X142721765Y-97221799D01*
X142673073Y-97130626D01*
X142642332Y-97057523D01*
X142625294Y-96992482D01*
X142619951Y-96934072D01*
X142623993Y-96898640D01*
X142632574Y-96885089D01*
X142644589Y-96883055D01*
X142728761Y-96906594D01*
X142812841Y-96931049D01*
X142891884Y-96946528D01*
X142971935Y-96961183D01*
G37*
G36*
X143107856Y-95891124D02*
G01*
X143221488Y-95923829D01*
X143321631Y-95971113D01*
X143410094Y-96032920D01*
X143488142Y-96110027D01*
X143552245Y-96199113D01*
X143597430Y-96294086D01*
X143624732Y-96396320D01*
X143634047Y-96507624D01*
X143624117Y-96616034D01*
X143596237Y-96705314D01*
X143551799Y-96779287D01*
X143490157Y-96840557D01*
X143415882Y-96885536D01*
X143331474Y-96912039D01*
X143234105Y-96919661D01*
X143120221Y-96905953D01*
X143004223Y-96872941D01*
X142902219Y-96825834D01*
X142812366Y-96764805D01*
X142733340Y-96689249D01*
X142668302Y-96601513D01*
X142622291Y-96506742D01*
X142594357Y-96403424D01*
X142590141Y-96353293D01*
X142901318Y-96353293D01*
X142908213Y-96403563D01*
X142929086Y-96450989D01*
X142965707Y-96496999D01*
X143008557Y-96532733D01*
X143055987Y-96558511D01*
X143108864Y-96574852D01*
X143164318Y-96580607D01*
X143211721Y-96574241D01*
X143253120Y-96556808D01*
X143288881Y-96527052D01*
X143310044Y-96488986D01*
X143317508Y-96439846D01*
X143310650Y-96390293D01*
X143289812Y-96343198D01*
X143253120Y-96297147D01*
X143210313Y-96262056D01*
X143162528Y-96236482D01*
X143108864Y-96220028D01*
X143054852Y-96214592D01*
X143007196Y-96221170D01*
X142964150Y-96239079D01*
X142929327Y-96267707D01*
X142908646Y-96304834D01*
X142901318Y-96353293D01*
X142590141Y-96353293D01*
X142584780Y-96289545D01*
X142594935Y-96177972D01*
X142623284Y-96087280D01*
X142668201Y-96013235D01*
X142730226Y-95952948D01*
X142804988Y-95909232D01*
X142890741Y-95883574D01*
X142990463Y-95876651D01*
X143107856Y-95891124D01*
G37*
G36*
X142365968Y-95188804D02*
G01*
X142428567Y-95209956D01*
X142475029Y-95242484D01*
X142508538Y-95286778D01*
X142530003Y-95345469D01*
X142537885Y-95423002D01*
X142532611Y-95478283D01*
X142518247Y-95520483D01*
X142495936Y-95552604D01*
X142462306Y-95577542D01*
X142420231Y-95588637D01*
X142365968Y-95584660D01*
X142317044Y-95567806D01*
X142274454Y-95538977D01*
X142237100Y-95496733D01*
X142203261Y-95426943D01*
X142192037Y-95351103D01*
X142197430Y-95300059D01*
X142212610Y-95258426D01*
X142237100Y-95224158D01*
X142272696Y-95197416D01*
X142314627Y-95185514D01*
X142365968Y-95188804D01*
G37*
G36*
X143394078Y-95410546D02*
G01*
X143533119Y-95448604D01*
X143637299Y-95495029D01*
X143713548Y-95548116D01*
X143765537Y-95603183D01*
X143809773Y-95671210D01*
X143846103Y-95754281D01*
X143873741Y-95855037D01*
X143882954Y-95916725D01*
X143886105Y-95982807D01*
X143876152Y-95997515D01*
X143831732Y-96003694D01*
X143708236Y-95986104D01*
X143648862Y-95969417D01*
X143620729Y-95953828D01*
X143610600Y-95939667D01*
X143583317Y-95863538D01*
X143562239Y-95829300D01*
X143524795Y-95803263D01*
X143448117Y-95776635D01*
X143164368Y-95714537D01*
X142898148Y-95668770D01*
X142671791Y-95648225D01*
X142657411Y-95646210D01*
X142638235Y-95635382D01*
X142631674Y-95612871D01*
X142625812Y-95456341D01*
X142608227Y-95277281D01*
X142614372Y-95262493D01*
X142634971Y-95258688D01*
X142718419Y-95272276D01*
X143036598Y-95336174D01*
X143394078Y-95410546D01*
G37*
G36*
X143052901Y-94233143D02*
G01*
X143116599Y-94255016D01*
X143153356Y-94284902D01*
X143170962Y-94322810D01*
X143192853Y-94534844D01*
X143223719Y-94894064D01*
X143266049Y-94887142D01*
X143300377Y-94866628D01*
X143328774Y-94830683D01*
X143350692Y-94774908D01*
X143358541Y-94704654D01*
X143347443Y-94615299D01*
X143311646Y-94515426D01*
X143264752Y-94429606D01*
X143286240Y-94412476D01*
X143367334Y-94380238D01*
X143452410Y-94356875D01*
X143485028Y-94355050D01*
X143508109Y-94374834D01*
X143563730Y-94452873D01*
X143604740Y-94544887D01*
X143630692Y-94653549D01*
X143639909Y-94782231D01*
X143629818Y-94900427D01*
X143601745Y-94996290D01*
X143557579Y-95074236D01*
X143497210Y-95137421D01*
X143422254Y-95185219D01*
X143335188Y-95213613D01*
X143232620Y-95221956D01*
X143110237Y-95207214D01*
X142995371Y-95174605D01*
X142893643Y-95127998D01*
X142803351Y-95067511D01*
X142723265Y-94992524D01*
X142654354Y-94902545D01*
X142606095Y-94807027D01*
X142577072Y-94704550D01*
X142575529Y-94687160D01*
X142830976Y-94687160D01*
X142836695Y-94727002D01*
X142854151Y-94765074D01*
X142885107Y-94802564D01*
X142939644Y-94842521D01*
X143002710Y-94865121D01*
X143023398Y-94862432D01*
X143030278Y-94842864D01*
X143025487Y-94758009D01*
X143006831Y-94607475D01*
X142998834Y-94578568D01*
X142990436Y-94570931D01*
X142949011Y-94567441D01*
X142912415Y-94574513D01*
X142879062Y-94591905D01*
X142852304Y-94617691D01*
X142836485Y-94648849D01*
X142830976Y-94687160D01*
X142575529Y-94687160D01*
X142567194Y-94593187D01*
X142576731Y-94499909D01*
X142603914Y-94421179D01*
X142648163Y-94353952D01*
X142710992Y-94296341D01*
X142785117Y-94253728D01*
X142865402Y-94228885D01*
X142953842Y-94221561D01*
X143052901Y-94233143D01*
G37*
G36*
X142936489Y-93412853D02*
G01*
X142918904Y-93469731D01*
X142905197Y-93523784D01*
X142901318Y-93562788D01*
X142907597Y-93620289D01*
X142925882Y-93671061D01*
X142956365Y-93716661D01*
X142996567Y-93754242D01*
X143044922Y-93782057D01*
X143103002Y-93800283D01*
X143164969Y-93805880D01*
X143213255Y-93796176D01*
X143251746Y-93773081D01*
X143280813Y-93738256D01*
X143299122Y-93692671D01*
X143305784Y-93632946D01*
X143301126Y-93587467D01*
X143285268Y-93529449D01*
X143264752Y-93473028D01*
X143281167Y-93462934D01*
X143392521Y-93455443D01*
X143499561Y-93459038D01*
X143547493Y-93464694D01*
X143566727Y-93477169D01*
X143588575Y-93516017D01*
X143612889Y-93602538D01*
X143629479Y-93698350D01*
X143634047Y-93762273D01*
X143623687Y-93870085D01*
X143594516Y-93959060D01*
X143547754Y-94033047D01*
X143482372Y-94094565D01*
X143404275Y-94139462D01*
X143317015Y-94165700D01*
X143218020Y-94173005D01*
X143104101Y-94159229D01*
X142995913Y-94127717D01*
X142897741Y-94080572D01*
X142808177Y-94017389D01*
X142726288Y-93936937D01*
X142658130Y-93844501D01*
X142610774Y-93748724D01*
X142582565Y-93648350D01*
X142573056Y-93541722D01*
X142581011Y-93444037D01*
X142603434Y-93362045D01*
X142639093Y-93292869D01*
X142654706Y-93275293D01*
X142667028Y-93272536D01*
X142788844Y-93328040D01*
X142914874Y-93390780D01*
X142932519Y-93404357D01*
X142936489Y-93412853D01*
G37*
G36*
X143310639Y-92610149D02*
G01*
X143403512Y-92637077D01*
X143494920Y-92663638D01*
X143532198Y-92677377D01*
X143555645Y-92715204D01*
X143596148Y-92813557D01*
X143620164Y-92913776D01*
X143628185Y-93016996D01*
X143619826Y-93115785D01*
X143598269Y-93182950D01*
X143566852Y-93227161D01*
X143525850Y-93254165D01*
X143472402Y-93265800D01*
X143401222Y-93259530D01*
X143197341Y-93212085D01*
X142993367Y-93164641D01*
X142968006Y-93165179D01*
X142953866Y-93177727D01*
X142948213Y-93206315D01*
X142948213Y-93219321D01*
X142949220Y-93232602D01*
X142941534Y-93260555D01*
X142921468Y-93264934D01*
X142871185Y-93252019D01*
X142820901Y-93238922D01*
X142755139Y-93227839D01*
X142689468Y-93216665D01*
X142675504Y-93202587D01*
X142666845Y-93147880D01*
X142660364Y-93117110D01*
X142646420Y-93104466D01*
X142523963Y-93074974D01*
X142398392Y-93052900D01*
X142316748Y-93031652D01*
X142286372Y-93016683D01*
X142279964Y-93006280D01*
X142292238Y-92931542D01*
X142307533Y-92855613D01*
X142326859Y-92705221D01*
X142332906Y-92686833D01*
X142344261Y-92683880D01*
X142468276Y-92716120D01*
X142593206Y-92748635D01*
X142624645Y-92750787D01*
X142638827Y-92743970D01*
X142643398Y-92730042D01*
X142640375Y-92623246D01*
X142637261Y-92515261D01*
X142641563Y-92499004D01*
X142652557Y-92496393D01*
X142722899Y-92516085D01*
X142793149Y-92535594D01*
X142864499Y-92549516D01*
X142935757Y-92563254D01*
X142951282Y-92573174D01*
X142957097Y-92596868D01*
X142955632Y-92663730D01*
X142954075Y-92730500D01*
X142954075Y-92805696D01*
X142961966Y-92817225D01*
X142999687Y-92830151D01*
X143073235Y-92845446D01*
X143146874Y-92859735D01*
X143227539Y-92870541D01*
X143267041Y-92865688D01*
X143290174Y-92849007D01*
X143305540Y-92818862D01*
X143311646Y-92768693D01*
X143299923Y-92694688D01*
X143288107Y-92626544D01*
X143293564Y-92612043D01*
X143310639Y-92610149D01*
G37*
G36*
X143622323Y-91118039D02*
G01*
X143617927Y-91294535D01*
X143613530Y-91470939D01*
X143612065Y-91722265D01*
X143610600Y-91973499D01*
X143603884Y-92001816D01*
X143587152Y-92009678D01*
X143393712Y-91989619D01*
X143337658Y-91989894D01*
X142940702Y-91661907D01*
X142583284Y-91371534D01*
X142519109Y-91328607D01*
X142507476Y-91331732D01*
X142502714Y-91351230D01*
X142505645Y-91563904D01*
X142508576Y-91777495D01*
X142502870Y-91792680D01*
X142485037Y-91794622D01*
X142337484Y-91741408D01*
X142234683Y-91701933D01*
X142178573Y-91685720D01*
X142166897Y-91677502D01*
X142162178Y-91655312D01*
X142168315Y-91241137D01*
X142174452Y-90826871D01*
X142180162Y-90811095D01*
X142198265Y-90804797D01*
X142289292Y-90810974D01*
X142435120Y-90836030D01*
X142453903Y-90843693D01*
X142481282Y-90863690D01*
X142894083Y-91215125D01*
X143226627Y-91489648D01*
X143276017Y-91525070D01*
X143280193Y-91522948D01*
X143282337Y-91509316D01*
X143274552Y-91194975D01*
X143262828Y-91096423D01*
X143253028Y-91001169D01*
X143257536Y-90992078D01*
X143274094Y-90991460D01*
X143436588Y-91032428D01*
X143600250Y-91088363D01*
X143616990Y-91100339D01*
X143622323Y-91118039D01*
G37*
G36*
X143599928Y-89567161D02*
G01*
X143610600Y-89588834D01*
X143615953Y-89635502D01*
X143618843Y-89777054D01*
X143616108Y-89907681D01*
X143610600Y-89959778D01*
X143595980Y-89983943D01*
X143564071Y-89993117D01*
X143431336Y-90002357D01*
X143404336Y-90012993D01*
X143401581Y-90052773D01*
X143399574Y-90280622D01*
X143404414Y-90433474D01*
X143411664Y-90464537D01*
X143438147Y-90484932D01*
X143519650Y-90525170D01*
X143590847Y-90564546D01*
X143610600Y-90590108D01*
X143615902Y-90644676D01*
X143618843Y-90820368D01*
X143612742Y-90926489D01*
X143601194Y-90961887D01*
X143589076Y-90967463D01*
X143504963Y-90925044D01*
X142933284Y-90604763D01*
X142185076Y-90182528D01*
X142153711Y-90161034D01*
X142146608Y-90146532D01*
X142151055Y-90074817D01*
X142650450Y-90074817D01*
X142847188Y-90186833D01*
X142989555Y-90262257D01*
X143030553Y-90279065D01*
X143044660Y-90271728D01*
X143053726Y-90223835D01*
X143055832Y-90121986D01*
X143050218Y-90063739D01*
X143039346Y-90045324D01*
X143025058Y-90040378D01*
X142977574Y-90038307D01*
X142839952Y-90048072D01*
X142704957Y-90063833D01*
X142650450Y-90074817D01*
X142151055Y-90074817D01*
X142151737Y-90063826D01*
X142156866Y-89980203D01*
X142153294Y-89899786D01*
X142149722Y-89820377D01*
X142156664Y-89805105D01*
X142183244Y-89792258D01*
X142352026Y-89758382D01*
X142922109Y-89659176D01*
X143497351Y-89567285D01*
X143584954Y-89558426D01*
X143599928Y-89567161D01*
G37*
G36*
X143377500Y-88210022D02*
G01*
X143394238Y-88217679D01*
X143420640Y-88240064D01*
X143503335Y-88337777D01*
X143565943Y-88439301D01*
X143610132Y-88545492D01*
X143636749Y-88657553D01*
X143645770Y-88776971D01*
X143636050Y-88901692D01*
X143608581Y-89007305D01*
X143564874Y-89097164D01*
X143505003Y-89173827D01*
X143427601Y-89238865D01*
X143342359Y-89286964D01*
X143248429Y-89319478D01*
X143144051Y-89336294D01*
X143027080Y-89336302D01*
X142895090Y-89317450D01*
X142773383Y-89284600D01*
X142660569Y-89238867D01*
X142555655Y-89180225D01*
X142457855Y-89108256D01*
X142366610Y-89022160D01*
X142282417Y-88920279D01*
X142219084Y-88816357D01*
X142174714Y-88709581D01*
X142148202Y-88598840D01*
X142139281Y-88482781D01*
X142148805Y-88351496D01*
X142175411Y-88242730D01*
X142217123Y-88152522D01*
X142273363Y-88077761D01*
X142344994Y-88016399D01*
X142367559Y-88005530D01*
X142385294Y-88004767D01*
X142415643Y-88021105D01*
X142531107Y-88104693D01*
X142643172Y-88193367D01*
X142672707Y-88221838D01*
X142680950Y-88243636D01*
X142639551Y-88285036D01*
X142594191Y-88330629D01*
X142561790Y-88375161D01*
X142530775Y-88448964D01*
X142520299Y-88530866D01*
X142527259Y-88601989D01*
X142547849Y-88668024D01*
X142582468Y-88730311D01*
X142632590Y-88789794D01*
X142706877Y-88850050D01*
X142792035Y-88894832D01*
X142889961Y-88924433D01*
X142992690Y-88935834D01*
X143078109Y-88925966D01*
X143150354Y-88897413D01*
X143200186Y-88860214D01*
X143235239Y-88813906D01*
X143256991Y-88756759D01*
X143264752Y-88685655D01*
X143255045Y-88599583D01*
X143225093Y-88512090D01*
X143194875Y-88455723D01*
X143152003Y-88392563D01*
X143112344Y-88335227D01*
X143123610Y-88317550D01*
X143252112Y-88257009D01*
X143355749Y-88215119D01*
X143377500Y-88210022D01*
G37*
G36*
X143377500Y-86902835D02*
G01*
X143394238Y-86910491D01*
X143420640Y-86932877D01*
X143503335Y-87030590D01*
X143565943Y-87132113D01*
X143610132Y-87238304D01*
X143636749Y-87350366D01*
X143645770Y-87469783D01*
X143636050Y-87594504D01*
X143608581Y-87700117D01*
X143564874Y-87789976D01*
X143505003Y-87866639D01*
X143427601Y-87931677D01*
X143342359Y-87979776D01*
X143248429Y-88012290D01*
X143144051Y-88029106D01*
X143027080Y-88029114D01*
X142895090Y-88010262D01*
X142773383Y-87977412D01*
X142660569Y-87931679D01*
X142555655Y-87873037D01*
X142457855Y-87801069D01*
X142366610Y-87714973D01*
X142282417Y-87613091D01*
X142219084Y-87509170D01*
X142174714Y-87402394D01*
X142148202Y-87291653D01*
X142139281Y-87175593D01*
X142148805Y-87044309D01*
X142175411Y-86935542D01*
X142217123Y-86845334D01*
X142273363Y-86770574D01*
X142344994Y-86709211D01*
X142367559Y-86698342D01*
X142385294Y-86697579D01*
X142415643Y-86713917D01*
X142531107Y-86797505D01*
X142643172Y-86886179D01*
X142672707Y-86914650D01*
X142680950Y-86936449D01*
X142639551Y-86977848D01*
X142594191Y-87023442D01*
X142561790Y-87067973D01*
X142530775Y-87141776D01*
X142520299Y-87223678D01*
X142527259Y-87294801D01*
X142547849Y-87360836D01*
X142582468Y-87423123D01*
X142632590Y-87482606D01*
X142706877Y-87542863D01*
X142792035Y-87587644D01*
X142889961Y-87617245D01*
X142992690Y-87628646D01*
X143078109Y-87618778D01*
X143150354Y-87590226D01*
X143200186Y-87553027D01*
X143235239Y-87506719D01*
X143256991Y-87449571D01*
X143264752Y-87378467D01*
X143255045Y-87292395D01*
X143225093Y-87204902D01*
X143194875Y-87148535D01*
X143152003Y-87085376D01*
X143112344Y-87028040D01*
X143123610Y-87010363D01*
X143252112Y-86949821D01*
X143355749Y-86907931D01*
X143377500Y-86902835D01*
G37*
G36*
X143578817Y-85463115D02*
G01*
X143597428Y-85469677D01*
X143605470Y-85477678D01*
X143610600Y-85506804D01*
X143616736Y-85680460D01*
X143614510Y-85822465D01*
X143610600Y-85864100D01*
X143600151Y-85883048D01*
X143582939Y-85885899D01*
X143339582Y-85827739D01*
X143096316Y-85769670D01*
X143062593Y-85769310D01*
X143050154Y-85782126D01*
X143044995Y-85835028D01*
X143042002Y-86023011D01*
X143044934Y-86212167D01*
X143050154Y-86269299D01*
X143062420Y-86287434D01*
X143096316Y-86300990D01*
X143335552Y-86345686D01*
X143574787Y-86390383D01*
X143599308Y-86402395D01*
X143610600Y-86424913D01*
X143616736Y-86614598D01*
X143610600Y-86785781D01*
X143599985Y-86805363D01*
X143578817Y-86808130D01*
X143245151Y-86728262D01*
X142910294Y-86648120D01*
X142553547Y-86584006D01*
X142196708Y-86519893D01*
X142179658Y-86510878D01*
X142174177Y-86494064D01*
X142177291Y-86401007D01*
X142180313Y-86307951D01*
X142177291Y-86210498D01*
X142174177Y-86113137D01*
X142178618Y-86101439D01*
X142192587Y-86099947D01*
X142422297Y-86158749D01*
X142651916Y-86217550D01*
X142682389Y-86218045D01*
X142693865Y-86207109D01*
X142698836Y-86159873D01*
X142702016Y-85952394D01*
X142699058Y-85758809D01*
X142693865Y-85702076D01*
X142681296Y-85681989D01*
X142651916Y-85669286D01*
X142429441Y-85630085D01*
X142205867Y-85590518D01*
X142181497Y-85578677D01*
X142174177Y-85558827D01*
X142177291Y-85470808D01*
X142180313Y-85381782D01*
X142177291Y-85292389D01*
X142174177Y-85201989D01*
X142180638Y-85181189D01*
X142198723Y-85178083D01*
X142554005Y-85261614D01*
X142910294Y-85345145D01*
X143245060Y-85404313D01*
X143578817Y-85463115D01*
G37*
G36*
X142901135Y-83621860D02*
G01*
X143058425Y-83658379D01*
X143107673Y-83675715D01*
X143190377Y-83730702D01*
X143354053Y-83865400D01*
X143493822Y-83992476D01*
X143587061Y-84085219D01*
X143602005Y-84110272D01*
X143613807Y-84160215D01*
X143618843Y-84249075D01*
X143616124Y-84353334D01*
X143610600Y-84395712D01*
X143602817Y-84413535D01*
X143590175Y-84426579D01*
X143510435Y-84474490D01*
X143359182Y-84549860D01*
X143194484Y-84619979D01*
X143116924Y-84641818D01*
X143038332Y-84643104D01*
X142905348Y-84622950D01*
X142785272Y-84597030D01*
X142664097Y-84570835D01*
X142644705Y-84558657D01*
X142637536Y-84530168D01*
X142640650Y-84376936D01*
X142643673Y-84223704D01*
X142650662Y-84208636D01*
X142675363Y-84207310D01*
X142761733Y-84229292D01*
X142849111Y-84251457D01*
X143022860Y-84281498D01*
X143063857Y-84277719D01*
X143152644Y-84250266D01*
X143219811Y-84221366D01*
X143246761Y-84201709D01*
X143253028Y-84188076D01*
X143237622Y-84160308D01*
X143154659Y-84087417D01*
X143068121Y-84024627D01*
X143028996Y-84004161D01*
X142853050Y-83959556D01*
X142763565Y-83947008D01*
X142675088Y-83934551D01*
X142650318Y-83923490D01*
X142643398Y-83906983D01*
X142644405Y-83835633D01*
X142645413Y-83764100D01*
X142641291Y-83690553D01*
X142637170Y-83617005D01*
X142643690Y-83597783D01*
X142663823Y-83589528D01*
X142736339Y-83593086D01*
X142901135Y-83621860D01*
G37*
G36*
X143556286Y-83137709D02*
G01*
X143574378Y-83145409D01*
X143592190Y-83162164D01*
X143604764Y-83183196D01*
X143608584Y-83202647D01*
X143609592Y-83347178D01*
X143610600Y-83491709D01*
X143606499Y-83512354D01*
X143596299Y-83521143D01*
X143577901Y-83521018D01*
X143566727Y-83517721D01*
X143094026Y-83405338D01*
X142790768Y-83342324D01*
X142767480Y-83341695D01*
X142762191Y-83349376D01*
X142774465Y-83412574D01*
X142786646Y-83476779D01*
X142782561Y-83492998D01*
X142771314Y-83500546D01*
X142748911Y-83499952D01*
X142643947Y-83479252D01*
X142537885Y-83458186D01*
X142520460Y-83448838D01*
X142506836Y-83426679D01*
X142458629Y-83323450D01*
X142401959Y-83235062D01*
X142336934Y-83159874D01*
X142319295Y-83138550D01*
X142315135Y-83126169D01*
X142317242Y-83114628D01*
X142343254Y-83006734D01*
X142362030Y-82893436D01*
X142369194Y-82884672D01*
X142384561Y-82884002D01*
X142406085Y-82890505D01*
X142528374Y-82923272D01*
X142847554Y-82993362D01*
X143201920Y-83065535D01*
X143556286Y-83137709D01*
G37*
D12*
X130676190Y-110304819D02*
X130676190Y-109304819D01*
X130676190Y-109304819D02*
X131009523Y-110019104D01*
X131009523Y-110019104D02*
X131342856Y-109304819D01*
X131342856Y-109304819D02*
X131342856Y-110304819D01*
X131961904Y-110304819D02*
X131866666Y-110257200D01*
X131866666Y-110257200D02*
X131819047Y-110209580D01*
X131819047Y-110209580D02*
X131771428Y-110114342D01*
X131771428Y-110114342D02*
X131771428Y-109828628D01*
X131771428Y-109828628D02*
X131819047Y-109733390D01*
X131819047Y-109733390D02*
X131866666Y-109685771D01*
X131866666Y-109685771D02*
X131961904Y-109638152D01*
X131961904Y-109638152D02*
X132104761Y-109638152D01*
X132104761Y-109638152D02*
X132199999Y-109685771D01*
X132199999Y-109685771D02*
X132247618Y-109733390D01*
X132247618Y-109733390D02*
X132295237Y-109828628D01*
X132295237Y-109828628D02*
X132295237Y-110114342D01*
X132295237Y-110114342D02*
X132247618Y-110209580D01*
X132247618Y-110209580D02*
X132199999Y-110257200D01*
X132199999Y-110257200D02*
X132104761Y-110304819D01*
X132104761Y-110304819D02*
X131961904Y-110304819D01*
X132580952Y-109638152D02*
X132961904Y-109638152D01*
X132723809Y-109304819D02*
X132723809Y-110161961D01*
X132723809Y-110161961D02*
X132771428Y-110257200D01*
X132771428Y-110257200D02*
X132866666Y-110304819D01*
X132866666Y-110304819D02*
X132961904Y-110304819D01*
X133438095Y-110304819D02*
X133342857Y-110257200D01*
X133342857Y-110257200D02*
X133295238Y-110209580D01*
X133295238Y-110209580D02*
X133247619Y-110114342D01*
X133247619Y-110114342D02*
X133247619Y-109828628D01*
X133247619Y-109828628D02*
X133295238Y-109733390D01*
X133295238Y-109733390D02*
X133342857Y-109685771D01*
X133342857Y-109685771D02*
X133438095Y-109638152D01*
X133438095Y-109638152D02*
X133580952Y-109638152D01*
X133580952Y-109638152D02*
X133676190Y-109685771D01*
X133676190Y-109685771D02*
X133723809Y-109733390D01*
X133723809Y-109733390D02*
X133771428Y-109828628D01*
X133771428Y-109828628D02*
X133771428Y-110114342D01*
X133771428Y-110114342D02*
X133723809Y-110209580D01*
X133723809Y-110209580D02*
X133676190Y-110257200D01*
X133676190Y-110257200D02*
X133580952Y-110304819D01*
X133580952Y-110304819D02*
X133438095Y-110304819D01*
X134200000Y-110304819D02*
X134200000Y-109638152D01*
X134200000Y-109828628D02*
X134247619Y-109733390D01*
X134247619Y-109733390D02*
X134295238Y-109685771D01*
X134295238Y-109685771D02*
X134390476Y-109638152D01*
X134390476Y-109638152D02*
X134485714Y-109638152D01*
X135580953Y-110304819D02*
X135580953Y-109638152D01*
X135580953Y-109733390D02*
X135628572Y-109685771D01*
X135628572Y-109685771D02*
X135723810Y-109638152D01*
X135723810Y-109638152D02*
X135866667Y-109638152D01*
X135866667Y-109638152D02*
X135961905Y-109685771D01*
X135961905Y-109685771D02*
X136009524Y-109781009D01*
X136009524Y-109781009D02*
X136009524Y-110304819D01*
X136009524Y-109781009D02*
X136057143Y-109685771D01*
X136057143Y-109685771D02*
X136152381Y-109638152D01*
X136152381Y-109638152D02*
X136295238Y-109638152D01*
X136295238Y-109638152D02*
X136390477Y-109685771D01*
X136390477Y-109685771D02*
X136438096Y-109781009D01*
X136438096Y-109781009D02*
X136438096Y-110304819D01*
X137057143Y-110304819D02*
X136961905Y-110257200D01*
X136961905Y-110257200D02*
X136914286Y-110209580D01*
X136914286Y-110209580D02*
X136866667Y-110114342D01*
X136866667Y-110114342D02*
X136866667Y-109828628D01*
X136866667Y-109828628D02*
X136914286Y-109733390D01*
X136914286Y-109733390D02*
X136961905Y-109685771D01*
X136961905Y-109685771D02*
X137057143Y-109638152D01*
X137057143Y-109638152D02*
X137200000Y-109638152D01*
X137200000Y-109638152D02*
X137295238Y-109685771D01*
X137295238Y-109685771D02*
X137342857Y-109733390D01*
X137342857Y-109733390D02*
X137390476Y-109828628D01*
X137390476Y-109828628D02*
X137390476Y-110114342D01*
X137390476Y-110114342D02*
X137342857Y-110209580D01*
X137342857Y-110209580D02*
X137295238Y-110257200D01*
X137295238Y-110257200D02*
X137200000Y-110304819D01*
X137200000Y-110304819D02*
X137057143Y-110304819D01*
X138247619Y-109638152D02*
X138247619Y-110304819D01*
X137819048Y-109638152D02*
X137819048Y-110161961D01*
X137819048Y-110161961D02*
X137866667Y-110257200D01*
X137866667Y-110257200D02*
X137961905Y-110304819D01*
X137961905Y-110304819D02*
X138104762Y-110304819D01*
X138104762Y-110304819D02*
X138200000Y-110257200D01*
X138200000Y-110257200D02*
X138247619Y-110209580D01*
X138723810Y-109638152D02*
X138723810Y-110304819D01*
X138723810Y-109733390D02*
X138771429Y-109685771D01*
X138771429Y-109685771D02*
X138866667Y-109638152D01*
X138866667Y-109638152D02*
X139009524Y-109638152D01*
X139009524Y-109638152D02*
X139104762Y-109685771D01*
X139104762Y-109685771D02*
X139152381Y-109781009D01*
X139152381Y-109781009D02*
X139152381Y-110304819D01*
X139485715Y-109638152D02*
X139866667Y-109638152D01*
X139628572Y-109304819D02*
X139628572Y-110161961D01*
X139628572Y-110161961D02*
X139676191Y-110257200D01*
X139676191Y-110257200D02*
X139771429Y-110304819D01*
X139771429Y-110304819D02*
X139866667Y-110304819D01*
X130676190Y-127904819D02*
X130676190Y-126904819D01*
X130676190Y-126904819D02*
X131009523Y-127619104D01*
X131009523Y-127619104D02*
X131342856Y-126904819D01*
X131342856Y-126904819D02*
X131342856Y-127904819D01*
X131961904Y-127904819D02*
X131866666Y-127857200D01*
X131866666Y-127857200D02*
X131819047Y-127809580D01*
X131819047Y-127809580D02*
X131771428Y-127714342D01*
X131771428Y-127714342D02*
X131771428Y-127428628D01*
X131771428Y-127428628D02*
X131819047Y-127333390D01*
X131819047Y-127333390D02*
X131866666Y-127285771D01*
X131866666Y-127285771D02*
X131961904Y-127238152D01*
X131961904Y-127238152D02*
X132104761Y-127238152D01*
X132104761Y-127238152D02*
X132199999Y-127285771D01*
X132199999Y-127285771D02*
X132247618Y-127333390D01*
X132247618Y-127333390D02*
X132295237Y-127428628D01*
X132295237Y-127428628D02*
X132295237Y-127714342D01*
X132295237Y-127714342D02*
X132247618Y-127809580D01*
X132247618Y-127809580D02*
X132199999Y-127857200D01*
X132199999Y-127857200D02*
X132104761Y-127904819D01*
X132104761Y-127904819D02*
X131961904Y-127904819D01*
X132580952Y-127238152D02*
X132961904Y-127238152D01*
X132723809Y-126904819D02*
X132723809Y-127761961D01*
X132723809Y-127761961D02*
X132771428Y-127857200D01*
X132771428Y-127857200D02*
X132866666Y-127904819D01*
X132866666Y-127904819D02*
X132961904Y-127904819D01*
X133438095Y-127904819D02*
X133342857Y-127857200D01*
X133342857Y-127857200D02*
X133295238Y-127809580D01*
X133295238Y-127809580D02*
X133247619Y-127714342D01*
X133247619Y-127714342D02*
X133247619Y-127428628D01*
X133247619Y-127428628D02*
X133295238Y-127333390D01*
X133295238Y-127333390D02*
X133342857Y-127285771D01*
X133342857Y-127285771D02*
X133438095Y-127238152D01*
X133438095Y-127238152D02*
X133580952Y-127238152D01*
X133580952Y-127238152D02*
X133676190Y-127285771D01*
X133676190Y-127285771D02*
X133723809Y-127333390D01*
X133723809Y-127333390D02*
X133771428Y-127428628D01*
X133771428Y-127428628D02*
X133771428Y-127714342D01*
X133771428Y-127714342D02*
X133723809Y-127809580D01*
X133723809Y-127809580D02*
X133676190Y-127857200D01*
X133676190Y-127857200D02*
X133580952Y-127904819D01*
X133580952Y-127904819D02*
X133438095Y-127904819D01*
X134200000Y-127904819D02*
X134200000Y-127238152D01*
X134200000Y-127428628D02*
X134247619Y-127333390D01*
X134247619Y-127333390D02*
X134295238Y-127285771D01*
X134295238Y-127285771D02*
X134390476Y-127238152D01*
X134390476Y-127238152D02*
X134485714Y-127238152D01*
X135580953Y-127904819D02*
X135580953Y-127238152D01*
X135580953Y-127333390D02*
X135628572Y-127285771D01*
X135628572Y-127285771D02*
X135723810Y-127238152D01*
X135723810Y-127238152D02*
X135866667Y-127238152D01*
X135866667Y-127238152D02*
X135961905Y-127285771D01*
X135961905Y-127285771D02*
X136009524Y-127381009D01*
X136009524Y-127381009D02*
X136009524Y-127904819D01*
X136009524Y-127381009D02*
X136057143Y-127285771D01*
X136057143Y-127285771D02*
X136152381Y-127238152D01*
X136152381Y-127238152D02*
X136295238Y-127238152D01*
X136295238Y-127238152D02*
X136390477Y-127285771D01*
X136390477Y-127285771D02*
X136438096Y-127381009D01*
X136438096Y-127381009D02*
X136438096Y-127904819D01*
X137057143Y-127904819D02*
X136961905Y-127857200D01*
X136961905Y-127857200D02*
X136914286Y-127809580D01*
X136914286Y-127809580D02*
X136866667Y-127714342D01*
X136866667Y-127714342D02*
X136866667Y-127428628D01*
X136866667Y-127428628D02*
X136914286Y-127333390D01*
X136914286Y-127333390D02*
X136961905Y-127285771D01*
X136961905Y-127285771D02*
X137057143Y-127238152D01*
X137057143Y-127238152D02*
X137200000Y-127238152D01*
X137200000Y-127238152D02*
X137295238Y-127285771D01*
X137295238Y-127285771D02*
X137342857Y-127333390D01*
X137342857Y-127333390D02*
X137390476Y-127428628D01*
X137390476Y-127428628D02*
X137390476Y-127714342D01*
X137390476Y-127714342D02*
X137342857Y-127809580D01*
X137342857Y-127809580D02*
X137295238Y-127857200D01*
X137295238Y-127857200D02*
X137200000Y-127904819D01*
X137200000Y-127904819D02*
X137057143Y-127904819D01*
X138247619Y-127238152D02*
X138247619Y-127904819D01*
X137819048Y-127238152D02*
X137819048Y-127761961D01*
X137819048Y-127761961D02*
X137866667Y-127857200D01*
X137866667Y-127857200D02*
X137961905Y-127904819D01*
X137961905Y-127904819D02*
X138104762Y-127904819D01*
X138104762Y-127904819D02*
X138200000Y-127857200D01*
X138200000Y-127857200D02*
X138247619Y-127809580D01*
X138723810Y-127238152D02*
X138723810Y-127904819D01*
X138723810Y-127333390D02*
X138771429Y-127285771D01*
X138771429Y-127285771D02*
X138866667Y-127238152D01*
X138866667Y-127238152D02*
X139009524Y-127238152D01*
X139009524Y-127238152D02*
X139104762Y-127285771D01*
X139104762Y-127285771D02*
X139152381Y-127381009D01*
X139152381Y-127381009D02*
X139152381Y-127904819D01*
X139485715Y-127238152D02*
X139866667Y-127238152D01*
X139628572Y-126904819D02*
X139628572Y-127761961D01*
X139628572Y-127761961D02*
X139676191Y-127857200D01*
X139676191Y-127857200D02*
X139771429Y-127904819D01*
X139771429Y-127904819D02*
X139866667Y-127904819D01*
X106866665Y-42204819D02*
X106866665Y-41204819D01*
X106866665Y-41204819D02*
X107199998Y-41919104D01*
X107199998Y-41919104D02*
X107533331Y-41204819D01*
X107533331Y-41204819D02*
X107533331Y-42204819D01*
X108152379Y-42204819D02*
X108057141Y-42157200D01*
X108057141Y-42157200D02*
X108009522Y-42109580D01*
X108009522Y-42109580D02*
X107961903Y-42014342D01*
X107961903Y-42014342D02*
X107961903Y-41728628D01*
X107961903Y-41728628D02*
X108009522Y-41633390D01*
X108009522Y-41633390D02*
X108057141Y-41585771D01*
X108057141Y-41585771D02*
X108152379Y-41538152D01*
X108152379Y-41538152D02*
X108295236Y-41538152D01*
X108295236Y-41538152D02*
X108390474Y-41585771D01*
X108390474Y-41585771D02*
X108438093Y-41633390D01*
X108438093Y-41633390D02*
X108485712Y-41728628D01*
X108485712Y-41728628D02*
X108485712Y-42014342D01*
X108485712Y-42014342D02*
X108438093Y-42109580D01*
X108438093Y-42109580D02*
X108390474Y-42157200D01*
X108390474Y-42157200D02*
X108295236Y-42204819D01*
X108295236Y-42204819D02*
X108152379Y-42204819D01*
X108771427Y-41538152D02*
X109152379Y-41538152D01*
X108914284Y-41204819D02*
X108914284Y-42061961D01*
X108914284Y-42061961D02*
X108961903Y-42157200D01*
X108961903Y-42157200D02*
X109057141Y-42204819D01*
X109057141Y-42204819D02*
X109152379Y-42204819D01*
X109628570Y-42204819D02*
X109533332Y-42157200D01*
X109533332Y-42157200D02*
X109485713Y-42109580D01*
X109485713Y-42109580D02*
X109438094Y-42014342D01*
X109438094Y-42014342D02*
X109438094Y-41728628D01*
X109438094Y-41728628D02*
X109485713Y-41633390D01*
X109485713Y-41633390D02*
X109533332Y-41585771D01*
X109533332Y-41585771D02*
X109628570Y-41538152D01*
X109628570Y-41538152D02*
X109771427Y-41538152D01*
X109771427Y-41538152D02*
X109866665Y-41585771D01*
X109866665Y-41585771D02*
X109914284Y-41633390D01*
X109914284Y-41633390D02*
X109961903Y-41728628D01*
X109961903Y-41728628D02*
X109961903Y-42014342D01*
X109961903Y-42014342D02*
X109914284Y-42109580D01*
X109914284Y-42109580D02*
X109866665Y-42157200D01*
X109866665Y-42157200D02*
X109771427Y-42204819D01*
X109771427Y-42204819D02*
X109628570Y-42204819D01*
X110390475Y-42204819D02*
X110390475Y-41538152D01*
X110390475Y-41728628D02*
X110438094Y-41633390D01*
X110438094Y-41633390D02*
X110485713Y-41585771D01*
X110485713Y-41585771D02*
X110580951Y-41538152D01*
X110580951Y-41538152D02*
X110676189Y-41538152D01*
X111771428Y-42204819D02*
X111771428Y-41538152D01*
X111771428Y-41633390D02*
X111819047Y-41585771D01*
X111819047Y-41585771D02*
X111914285Y-41538152D01*
X111914285Y-41538152D02*
X112057142Y-41538152D01*
X112057142Y-41538152D02*
X112152380Y-41585771D01*
X112152380Y-41585771D02*
X112199999Y-41681009D01*
X112199999Y-41681009D02*
X112199999Y-42204819D01*
X112199999Y-41681009D02*
X112247618Y-41585771D01*
X112247618Y-41585771D02*
X112342856Y-41538152D01*
X112342856Y-41538152D02*
X112485713Y-41538152D01*
X112485713Y-41538152D02*
X112580952Y-41585771D01*
X112580952Y-41585771D02*
X112628571Y-41681009D01*
X112628571Y-41681009D02*
X112628571Y-42204819D01*
X113247618Y-42204819D02*
X113152380Y-42157200D01*
X113152380Y-42157200D02*
X113104761Y-42109580D01*
X113104761Y-42109580D02*
X113057142Y-42014342D01*
X113057142Y-42014342D02*
X113057142Y-41728628D01*
X113057142Y-41728628D02*
X113104761Y-41633390D01*
X113104761Y-41633390D02*
X113152380Y-41585771D01*
X113152380Y-41585771D02*
X113247618Y-41538152D01*
X113247618Y-41538152D02*
X113390475Y-41538152D01*
X113390475Y-41538152D02*
X113485713Y-41585771D01*
X113485713Y-41585771D02*
X113533332Y-41633390D01*
X113533332Y-41633390D02*
X113580951Y-41728628D01*
X113580951Y-41728628D02*
X113580951Y-42014342D01*
X113580951Y-42014342D02*
X113533332Y-42109580D01*
X113533332Y-42109580D02*
X113485713Y-42157200D01*
X113485713Y-42157200D02*
X113390475Y-42204819D01*
X113390475Y-42204819D02*
X113247618Y-42204819D01*
X114438094Y-41538152D02*
X114438094Y-42204819D01*
X114009523Y-41538152D02*
X114009523Y-42061961D01*
X114009523Y-42061961D02*
X114057142Y-42157200D01*
X114057142Y-42157200D02*
X114152380Y-42204819D01*
X114152380Y-42204819D02*
X114295237Y-42204819D01*
X114295237Y-42204819D02*
X114390475Y-42157200D01*
X114390475Y-42157200D02*
X114438094Y-42109580D01*
X114914285Y-41538152D02*
X114914285Y-42204819D01*
X114914285Y-41633390D02*
X114961904Y-41585771D01*
X114961904Y-41585771D02*
X115057142Y-41538152D01*
X115057142Y-41538152D02*
X115199999Y-41538152D01*
X115199999Y-41538152D02*
X115295237Y-41585771D01*
X115295237Y-41585771D02*
X115342856Y-41681009D01*
X115342856Y-41681009D02*
X115342856Y-42204819D01*
X115676190Y-41538152D02*
X116057142Y-41538152D01*
X115819047Y-41204819D02*
X115819047Y-42061961D01*
X115819047Y-42061961D02*
X115866666Y-42157200D01*
X115866666Y-42157200D02*
X115961904Y-42204819D01*
X115961904Y-42204819D02*
X116057142Y-42204819D01*
X117152381Y-41823866D02*
X117914286Y-41823866D01*
X119152381Y-42204819D02*
X119152381Y-41204819D01*
X119152381Y-41585771D02*
X119247619Y-41538152D01*
X119247619Y-41538152D02*
X119438095Y-41538152D01*
X119438095Y-41538152D02*
X119533333Y-41585771D01*
X119533333Y-41585771D02*
X119580952Y-41633390D01*
X119580952Y-41633390D02*
X119628571Y-41728628D01*
X119628571Y-41728628D02*
X119628571Y-42014342D01*
X119628571Y-42014342D02*
X119580952Y-42109580D01*
X119580952Y-42109580D02*
X119533333Y-42157200D01*
X119533333Y-42157200D02*
X119438095Y-42204819D01*
X119438095Y-42204819D02*
X119247619Y-42204819D01*
X119247619Y-42204819D02*
X119152381Y-42157200D01*
X120485714Y-42204819D02*
X120485714Y-41681009D01*
X120485714Y-41681009D02*
X120438095Y-41585771D01*
X120438095Y-41585771D02*
X120342857Y-41538152D01*
X120342857Y-41538152D02*
X120152381Y-41538152D01*
X120152381Y-41538152D02*
X120057143Y-41585771D01*
X120485714Y-42157200D02*
X120390476Y-42204819D01*
X120390476Y-42204819D02*
X120152381Y-42204819D01*
X120152381Y-42204819D02*
X120057143Y-42157200D01*
X120057143Y-42157200D02*
X120009524Y-42061961D01*
X120009524Y-42061961D02*
X120009524Y-41966723D01*
X120009524Y-41966723D02*
X120057143Y-41871485D01*
X120057143Y-41871485D02*
X120152381Y-41823866D01*
X120152381Y-41823866D02*
X120390476Y-41823866D01*
X120390476Y-41823866D02*
X120485714Y-41776247D01*
X121104762Y-42204819D02*
X121009524Y-42157200D01*
X121009524Y-42157200D02*
X120961905Y-42061961D01*
X120961905Y-42061961D02*
X120961905Y-41204819D01*
X121628572Y-42204819D02*
X121533334Y-42157200D01*
X121533334Y-42157200D02*
X121485715Y-42061961D01*
X121485715Y-42061961D02*
X121485715Y-41204819D01*
X87266665Y-42204819D02*
X87266665Y-41204819D01*
X87266665Y-41204819D02*
X87599998Y-41919104D01*
X87599998Y-41919104D02*
X87933331Y-41204819D01*
X87933331Y-41204819D02*
X87933331Y-42204819D01*
X88552379Y-42204819D02*
X88457141Y-42157200D01*
X88457141Y-42157200D02*
X88409522Y-42109580D01*
X88409522Y-42109580D02*
X88361903Y-42014342D01*
X88361903Y-42014342D02*
X88361903Y-41728628D01*
X88361903Y-41728628D02*
X88409522Y-41633390D01*
X88409522Y-41633390D02*
X88457141Y-41585771D01*
X88457141Y-41585771D02*
X88552379Y-41538152D01*
X88552379Y-41538152D02*
X88695236Y-41538152D01*
X88695236Y-41538152D02*
X88790474Y-41585771D01*
X88790474Y-41585771D02*
X88838093Y-41633390D01*
X88838093Y-41633390D02*
X88885712Y-41728628D01*
X88885712Y-41728628D02*
X88885712Y-42014342D01*
X88885712Y-42014342D02*
X88838093Y-42109580D01*
X88838093Y-42109580D02*
X88790474Y-42157200D01*
X88790474Y-42157200D02*
X88695236Y-42204819D01*
X88695236Y-42204819D02*
X88552379Y-42204819D01*
X89171427Y-41538152D02*
X89552379Y-41538152D01*
X89314284Y-41204819D02*
X89314284Y-42061961D01*
X89314284Y-42061961D02*
X89361903Y-42157200D01*
X89361903Y-42157200D02*
X89457141Y-42204819D01*
X89457141Y-42204819D02*
X89552379Y-42204819D01*
X90028570Y-42204819D02*
X89933332Y-42157200D01*
X89933332Y-42157200D02*
X89885713Y-42109580D01*
X89885713Y-42109580D02*
X89838094Y-42014342D01*
X89838094Y-42014342D02*
X89838094Y-41728628D01*
X89838094Y-41728628D02*
X89885713Y-41633390D01*
X89885713Y-41633390D02*
X89933332Y-41585771D01*
X89933332Y-41585771D02*
X90028570Y-41538152D01*
X90028570Y-41538152D02*
X90171427Y-41538152D01*
X90171427Y-41538152D02*
X90266665Y-41585771D01*
X90266665Y-41585771D02*
X90314284Y-41633390D01*
X90314284Y-41633390D02*
X90361903Y-41728628D01*
X90361903Y-41728628D02*
X90361903Y-42014342D01*
X90361903Y-42014342D02*
X90314284Y-42109580D01*
X90314284Y-42109580D02*
X90266665Y-42157200D01*
X90266665Y-42157200D02*
X90171427Y-42204819D01*
X90171427Y-42204819D02*
X90028570Y-42204819D01*
X90790475Y-42204819D02*
X90790475Y-41538152D01*
X90790475Y-41728628D02*
X90838094Y-41633390D01*
X90838094Y-41633390D02*
X90885713Y-41585771D01*
X90885713Y-41585771D02*
X90980951Y-41538152D01*
X90980951Y-41538152D02*
X91076189Y-41538152D01*
X92171428Y-42204819D02*
X92171428Y-41538152D01*
X92171428Y-41633390D02*
X92219047Y-41585771D01*
X92219047Y-41585771D02*
X92314285Y-41538152D01*
X92314285Y-41538152D02*
X92457142Y-41538152D01*
X92457142Y-41538152D02*
X92552380Y-41585771D01*
X92552380Y-41585771D02*
X92599999Y-41681009D01*
X92599999Y-41681009D02*
X92599999Y-42204819D01*
X92599999Y-41681009D02*
X92647618Y-41585771D01*
X92647618Y-41585771D02*
X92742856Y-41538152D01*
X92742856Y-41538152D02*
X92885713Y-41538152D01*
X92885713Y-41538152D02*
X92980952Y-41585771D01*
X92980952Y-41585771D02*
X93028571Y-41681009D01*
X93028571Y-41681009D02*
X93028571Y-42204819D01*
X93647618Y-42204819D02*
X93552380Y-42157200D01*
X93552380Y-42157200D02*
X93504761Y-42109580D01*
X93504761Y-42109580D02*
X93457142Y-42014342D01*
X93457142Y-42014342D02*
X93457142Y-41728628D01*
X93457142Y-41728628D02*
X93504761Y-41633390D01*
X93504761Y-41633390D02*
X93552380Y-41585771D01*
X93552380Y-41585771D02*
X93647618Y-41538152D01*
X93647618Y-41538152D02*
X93790475Y-41538152D01*
X93790475Y-41538152D02*
X93885713Y-41585771D01*
X93885713Y-41585771D02*
X93933332Y-41633390D01*
X93933332Y-41633390D02*
X93980951Y-41728628D01*
X93980951Y-41728628D02*
X93980951Y-42014342D01*
X93980951Y-42014342D02*
X93933332Y-42109580D01*
X93933332Y-42109580D02*
X93885713Y-42157200D01*
X93885713Y-42157200D02*
X93790475Y-42204819D01*
X93790475Y-42204819D02*
X93647618Y-42204819D01*
X94838094Y-41538152D02*
X94838094Y-42204819D01*
X94409523Y-41538152D02*
X94409523Y-42061961D01*
X94409523Y-42061961D02*
X94457142Y-42157200D01*
X94457142Y-42157200D02*
X94552380Y-42204819D01*
X94552380Y-42204819D02*
X94695237Y-42204819D01*
X94695237Y-42204819D02*
X94790475Y-42157200D01*
X94790475Y-42157200D02*
X94838094Y-42109580D01*
X95314285Y-41538152D02*
X95314285Y-42204819D01*
X95314285Y-41633390D02*
X95361904Y-41585771D01*
X95361904Y-41585771D02*
X95457142Y-41538152D01*
X95457142Y-41538152D02*
X95599999Y-41538152D01*
X95599999Y-41538152D02*
X95695237Y-41585771D01*
X95695237Y-41585771D02*
X95742856Y-41681009D01*
X95742856Y-41681009D02*
X95742856Y-42204819D01*
X96076190Y-41538152D02*
X96457142Y-41538152D01*
X96219047Y-41204819D02*
X96219047Y-42061961D01*
X96219047Y-42061961D02*
X96266666Y-42157200D01*
X96266666Y-42157200D02*
X96361904Y-42204819D01*
X96361904Y-42204819D02*
X96457142Y-42204819D01*
X97552381Y-41823866D02*
X98314286Y-41823866D01*
X99552381Y-42204819D02*
X99552381Y-41204819D01*
X99552381Y-41585771D02*
X99647619Y-41538152D01*
X99647619Y-41538152D02*
X99838095Y-41538152D01*
X99838095Y-41538152D02*
X99933333Y-41585771D01*
X99933333Y-41585771D02*
X99980952Y-41633390D01*
X99980952Y-41633390D02*
X100028571Y-41728628D01*
X100028571Y-41728628D02*
X100028571Y-42014342D01*
X100028571Y-42014342D02*
X99980952Y-42109580D01*
X99980952Y-42109580D02*
X99933333Y-42157200D01*
X99933333Y-42157200D02*
X99838095Y-42204819D01*
X99838095Y-42204819D02*
X99647619Y-42204819D01*
X99647619Y-42204819D02*
X99552381Y-42157200D01*
X100885714Y-42204819D02*
X100885714Y-41681009D01*
X100885714Y-41681009D02*
X100838095Y-41585771D01*
X100838095Y-41585771D02*
X100742857Y-41538152D01*
X100742857Y-41538152D02*
X100552381Y-41538152D01*
X100552381Y-41538152D02*
X100457143Y-41585771D01*
X100885714Y-42157200D02*
X100790476Y-42204819D01*
X100790476Y-42204819D02*
X100552381Y-42204819D01*
X100552381Y-42204819D02*
X100457143Y-42157200D01*
X100457143Y-42157200D02*
X100409524Y-42061961D01*
X100409524Y-42061961D02*
X100409524Y-41966723D01*
X100409524Y-41966723D02*
X100457143Y-41871485D01*
X100457143Y-41871485D02*
X100552381Y-41823866D01*
X100552381Y-41823866D02*
X100790476Y-41823866D01*
X100790476Y-41823866D02*
X100885714Y-41776247D01*
X101504762Y-42204819D02*
X101409524Y-42157200D01*
X101409524Y-42157200D02*
X101361905Y-42061961D01*
X101361905Y-42061961D02*
X101361905Y-41204819D01*
X102028572Y-42204819D02*
X101933334Y-42157200D01*
X101933334Y-42157200D02*
X101885715Y-42061961D01*
X101885715Y-42061961D02*
X101885715Y-41204819D01*
X91082019Y-51677866D02*
X90605828Y-52011199D01*
X91082019Y-52249294D02*
X90082019Y-52249294D01*
X90082019Y-52249294D02*
X90082019Y-51868342D01*
X90082019Y-51868342D02*
X90129638Y-51773104D01*
X90129638Y-51773104D02*
X90177257Y-51725485D01*
X90177257Y-51725485D02*
X90272495Y-51677866D01*
X90272495Y-51677866D02*
X90415352Y-51677866D01*
X90415352Y-51677866D02*
X90510590Y-51725485D01*
X90510590Y-51725485D02*
X90558209Y-51773104D01*
X90558209Y-51773104D02*
X90605828Y-51868342D01*
X90605828Y-51868342D02*
X90605828Y-52249294D01*
X90510590Y-51106437D02*
X90462971Y-51201675D01*
X90462971Y-51201675D02*
X90415352Y-51249294D01*
X90415352Y-51249294D02*
X90320114Y-51296913D01*
X90320114Y-51296913D02*
X90272495Y-51296913D01*
X90272495Y-51296913D02*
X90177257Y-51249294D01*
X90177257Y-51249294D02*
X90129638Y-51201675D01*
X90129638Y-51201675D02*
X90082019Y-51106437D01*
X90082019Y-51106437D02*
X90082019Y-50915961D01*
X90082019Y-50915961D02*
X90129638Y-50820723D01*
X90129638Y-50820723D02*
X90177257Y-50773104D01*
X90177257Y-50773104D02*
X90272495Y-50725485D01*
X90272495Y-50725485D02*
X90320114Y-50725485D01*
X90320114Y-50725485D02*
X90415352Y-50773104D01*
X90415352Y-50773104D02*
X90462971Y-50820723D01*
X90462971Y-50820723D02*
X90510590Y-50915961D01*
X90510590Y-50915961D02*
X90510590Y-51106437D01*
X90510590Y-51106437D02*
X90558209Y-51201675D01*
X90558209Y-51201675D02*
X90605828Y-51249294D01*
X90605828Y-51249294D02*
X90701066Y-51296913D01*
X90701066Y-51296913D02*
X90891542Y-51296913D01*
X90891542Y-51296913D02*
X90986780Y-51249294D01*
X90986780Y-51249294D02*
X91034400Y-51201675D01*
X91034400Y-51201675D02*
X91082019Y-51106437D01*
X91082019Y-51106437D02*
X91082019Y-50915961D01*
X91082019Y-50915961D02*
X91034400Y-50820723D01*
X91034400Y-50820723D02*
X90986780Y-50773104D01*
X90986780Y-50773104D02*
X90891542Y-50725485D01*
X90891542Y-50725485D02*
X90701066Y-50725485D01*
X90701066Y-50725485D02*
X90605828Y-50773104D01*
X90605828Y-50773104D02*
X90558209Y-50820723D01*
X90558209Y-50820723D02*
X90510590Y-50915961D01*
X86476819Y-52846266D02*
X86000628Y-53179599D01*
X86476819Y-53417694D02*
X85476819Y-53417694D01*
X85476819Y-53417694D02*
X85476819Y-53036742D01*
X85476819Y-53036742D02*
X85524438Y-52941504D01*
X85524438Y-52941504D02*
X85572057Y-52893885D01*
X85572057Y-52893885D02*
X85667295Y-52846266D01*
X85667295Y-52846266D02*
X85810152Y-52846266D01*
X85810152Y-52846266D02*
X85905390Y-52893885D01*
X85905390Y-52893885D02*
X85953009Y-52941504D01*
X85953009Y-52941504D02*
X86000628Y-53036742D01*
X86000628Y-53036742D02*
X86000628Y-53417694D01*
X85572057Y-52465313D02*
X85524438Y-52417694D01*
X85524438Y-52417694D02*
X85476819Y-52322456D01*
X85476819Y-52322456D02*
X85476819Y-52084361D01*
X85476819Y-52084361D02*
X85524438Y-51989123D01*
X85524438Y-51989123D02*
X85572057Y-51941504D01*
X85572057Y-51941504D02*
X85667295Y-51893885D01*
X85667295Y-51893885D02*
X85762533Y-51893885D01*
X85762533Y-51893885D02*
X85905390Y-51941504D01*
X85905390Y-51941504D02*
X86476819Y-52512932D01*
X86476819Y-52512932D02*
X86476819Y-51893885D01*
X123975580Y-108797066D02*
X124023200Y-108844685D01*
X124023200Y-108844685D02*
X124070819Y-108987542D01*
X124070819Y-108987542D02*
X124070819Y-109082780D01*
X124070819Y-109082780D02*
X124023200Y-109225637D01*
X124023200Y-109225637D02*
X123927961Y-109320875D01*
X123927961Y-109320875D02*
X123832723Y-109368494D01*
X123832723Y-109368494D02*
X123642247Y-109416113D01*
X123642247Y-109416113D02*
X123499390Y-109416113D01*
X123499390Y-109416113D02*
X123308914Y-109368494D01*
X123308914Y-109368494D02*
X123213676Y-109320875D01*
X123213676Y-109320875D02*
X123118438Y-109225637D01*
X123118438Y-109225637D02*
X123070819Y-109082780D01*
X123070819Y-109082780D02*
X123070819Y-108987542D01*
X123070819Y-108987542D02*
X123118438Y-108844685D01*
X123118438Y-108844685D02*
X123166057Y-108797066D01*
X123166057Y-108416113D02*
X123118438Y-108368494D01*
X123118438Y-108368494D02*
X123070819Y-108273256D01*
X123070819Y-108273256D02*
X123070819Y-108035161D01*
X123070819Y-108035161D02*
X123118438Y-107939923D01*
X123118438Y-107939923D02*
X123166057Y-107892304D01*
X123166057Y-107892304D02*
X123261295Y-107844685D01*
X123261295Y-107844685D02*
X123356533Y-107844685D01*
X123356533Y-107844685D02*
X123499390Y-107892304D01*
X123499390Y-107892304D02*
X124070819Y-108463732D01*
X124070819Y-108463732D02*
X124070819Y-107844685D01*
X110442476Y-106396419D02*
X110442476Y-107110704D01*
X110442476Y-107110704D02*
X110394857Y-107253561D01*
X110394857Y-107253561D02*
X110299619Y-107348800D01*
X110299619Y-107348800D02*
X110156762Y-107396419D01*
X110156762Y-107396419D02*
X110061524Y-107396419D01*
X111442476Y-107396419D02*
X110871048Y-107396419D01*
X111156762Y-107396419D02*
X111156762Y-106396419D01*
X111156762Y-106396419D02*
X111061524Y-106539276D01*
X111061524Y-106539276D02*
X110966286Y-106634514D01*
X110966286Y-106634514D02*
X110871048Y-106682133D01*
X112299619Y-106729752D02*
X112299619Y-107396419D01*
X112061524Y-106348800D02*
X111823429Y-107063085D01*
X111823429Y-107063085D02*
X112442476Y-107063085D01*
X128931009Y-92023809D02*
X128931009Y-91690476D01*
X129454819Y-91547619D02*
X129454819Y-92023809D01*
X129454819Y-92023809D02*
X128454819Y-92023809D01*
X128454819Y-92023809D02*
X128454819Y-91547619D01*
X129407200Y-91166666D02*
X129454819Y-91071428D01*
X129454819Y-91071428D02*
X129454819Y-90880952D01*
X129454819Y-90880952D02*
X129407200Y-90785714D01*
X129407200Y-90785714D02*
X129311961Y-90738095D01*
X129311961Y-90738095D02*
X129264342Y-90738095D01*
X129264342Y-90738095D02*
X129169104Y-90785714D01*
X129169104Y-90785714D02*
X129121485Y-90880952D01*
X129121485Y-90880952D02*
X129121485Y-91023809D01*
X129121485Y-91023809D02*
X129073866Y-91119047D01*
X129073866Y-91119047D02*
X128978628Y-91166666D01*
X128978628Y-91166666D02*
X128931009Y-91166666D01*
X128931009Y-91166666D02*
X128835771Y-91119047D01*
X128835771Y-91119047D02*
X128788152Y-91023809D01*
X128788152Y-91023809D02*
X128788152Y-90880952D01*
X128788152Y-90880952D02*
X128835771Y-90785714D01*
X128788152Y-90309523D02*
X129788152Y-90309523D01*
X128835771Y-90309523D02*
X128788152Y-90214285D01*
X128788152Y-90214285D02*
X128788152Y-90023809D01*
X128788152Y-90023809D02*
X128835771Y-89928571D01*
X128835771Y-89928571D02*
X128883390Y-89880952D01*
X128883390Y-89880952D02*
X128978628Y-89833333D01*
X128978628Y-89833333D02*
X129264342Y-89833333D01*
X129264342Y-89833333D02*
X129359580Y-89880952D01*
X129359580Y-89880952D02*
X129407200Y-89928571D01*
X129407200Y-89928571D02*
X129454819Y-90023809D01*
X129454819Y-90023809D02*
X129454819Y-90214285D01*
X129454819Y-90214285D02*
X129407200Y-90309523D01*
X128454819Y-89499999D02*
X128454819Y-88880952D01*
X128454819Y-88880952D02*
X128835771Y-89214285D01*
X128835771Y-89214285D02*
X128835771Y-89071428D01*
X128835771Y-89071428D02*
X128883390Y-88976190D01*
X128883390Y-88976190D02*
X128931009Y-88928571D01*
X128931009Y-88928571D02*
X129026247Y-88880952D01*
X129026247Y-88880952D02*
X129264342Y-88880952D01*
X129264342Y-88880952D02*
X129359580Y-88928571D01*
X129359580Y-88928571D02*
X129407200Y-88976190D01*
X129407200Y-88976190D02*
X129454819Y-89071428D01*
X129454819Y-89071428D02*
X129454819Y-89357142D01*
X129454819Y-89357142D02*
X129407200Y-89452380D01*
X129407200Y-89452380D02*
X129359580Y-89499999D01*
X128550057Y-88499999D02*
X128502438Y-88452380D01*
X128502438Y-88452380D02*
X128454819Y-88357142D01*
X128454819Y-88357142D02*
X128454819Y-88119047D01*
X128454819Y-88119047D02*
X128502438Y-88023809D01*
X128502438Y-88023809D02*
X128550057Y-87976190D01*
X128550057Y-87976190D02*
X128645295Y-87928571D01*
X128645295Y-87928571D02*
X128740533Y-87928571D01*
X128740533Y-87928571D02*
X128883390Y-87976190D01*
X128883390Y-87976190D02*
X129454819Y-88547618D01*
X129454819Y-88547618D02*
X129454819Y-87928571D01*
D10*
X98380951Y-149666609D02*
X98523808Y-149714228D01*
X98523808Y-149714228D02*
X98571427Y-149761847D01*
X98571427Y-149761847D02*
X98619046Y-149857085D01*
X98619046Y-149857085D02*
X98619046Y-149999942D01*
X98619046Y-149999942D02*
X98571427Y-150095180D01*
X98571427Y-150095180D02*
X98523808Y-150142800D01*
X98523808Y-150142800D02*
X98428570Y-150190419D01*
X98428570Y-150190419D02*
X98047618Y-150190419D01*
X98047618Y-150190419D02*
X98047618Y-149190419D01*
X98047618Y-149190419D02*
X98380951Y-149190419D01*
X98380951Y-149190419D02*
X98476189Y-149238038D01*
X98476189Y-149238038D02*
X98523808Y-149285657D01*
X98523808Y-149285657D02*
X98571427Y-149380895D01*
X98571427Y-149380895D02*
X98571427Y-149476133D01*
X98571427Y-149476133D02*
X98523808Y-149571371D01*
X98523808Y-149571371D02*
X98476189Y-149618990D01*
X98476189Y-149618990D02*
X98380951Y-149666609D01*
X98380951Y-149666609D02*
X98047618Y-149666609D01*
X99190475Y-150190419D02*
X99095237Y-150142800D01*
X99095237Y-150142800D02*
X99047618Y-150095180D01*
X99047618Y-150095180D02*
X98999999Y-149999942D01*
X98999999Y-149999942D02*
X98999999Y-149714228D01*
X98999999Y-149714228D02*
X99047618Y-149618990D01*
X99047618Y-149618990D02*
X99095237Y-149571371D01*
X99095237Y-149571371D02*
X99190475Y-149523752D01*
X99190475Y-149523752D02*
X99333332Y-149523752D01*
X99333332Y-149523752D02*
X99428570Y-149571371D01*
X99428570Y-149571371D02*
X99476189Y-149618990D01*
X99476189Y-149618990D02*
X99523808Y-149714228D01*
X99523808Y-149714228D02*
X99523808Y-149999942D01*
X99523808Y-149999942D02*
X99476189Y-150095180D01*
X99476189Y-150095180D02*
X99428570Y-150142800D01*
X99428570Y-150142800D02*
X99333332Y-150190419D01*
X99333332Y-150190419D02*
X99190475Y-150190419D01*
X100095237Y-150190419D02*
X99999999Y-150142800D01*
X99999999Y-150142800D02*
X99952380Y-150095180D01*
X99952380Y-150095180D02*
X99904761Y-149999942D01*
X99904761Y-149999942D02*
X99904761Y-149714228D01*
X99904761Y-149714228D02*
X99952380Y-149618990D01*
X99952380Y-149618990D02*
X99999999Y-149571371D01*
X99999999Y-149571371D02*
X100095237Y-149523752D01*
X100095237Y-149523752D02*
X100238094Y-149523752D01*
X100238094Y-149523752D02*
X100333332Y-149571371D01*
X100333332Y-149571371D02*
X100380951Y-149618990D01*
X100380951Y-149618990D02*
X100428570Y-149714228D01*
X100428570Y-149714228D02*
X100428570Y-149999942D01*
X100428570Y-149999942D02*
X100380951Y-150095180D01*
X100380951Y-150095180D02*
X100333332Y-150142800D01*
X100333332Y-150142800D02*
X100238094Y-150190419D01*
X100238094Y-150190419D02*
X100095237Y-150190419D01*
X100809523Y-150142800D02*
X100904761Y-150190419D01*
X100904761Y-150190419D02*
X101095237Y-150190419D01*
X101095237Y-150190419D02*
X101190475Y-150142800D01*
X101190475Y-150142800D02*
X101238094Y-150047561D01*
X101238094Y-150047561D02*
X101238094Y-149999942D01*
X101238094Y-149999942D02*
X101190475Y-149904704D01*
X101190475Y-149904704D02*
X101095237Y-149857085D01*
X101095237Y-149857085D02*
X100952380Y-149857085D01*
X100952380Y-149857085D02*
X100857142Y-149809466D01*
X100857142Y-149809466D02*
X100809523Y-149714228D01*
X100809523Y-149714228D02*
X100809523Y-149666609D01*
X100809523Y-149666609D02*
X100857142Y-149571371D01*
X100857142Y-149571371D02*
X100952380Y-149523752D01*
X100952380Y-149523752D02*
X101095237Y-149523752D01*
X101095237Y-149523752D02*
X101190475Y-149571371D01*
X101523809Y-149523752D02*
X101904761Y-149523752D01*
X101666666Y-149190419D02*
X101666666Y-150047561D01*
X101666666Y-150047561D02*
X101714285Y-150142800D01*
X101714285Y-150142800D02*
X101809523Y-150190419D01*
X101809523Y-150190419D02*
X101904761Y-150190419D01*
X103428571Y-150142800D02*
X103333333Y-150190419D01*
X103333333Y-150190419D02*
X103142857Y-150190419D01*
X103142857Y-150190419D02*
X103047619Y-150142800D01*
X103047619Y-150142800D02*
X103000000Y-150095180D01*
X103000000Y-150095180D02*
X102952381Y-149999942D01*
X102952381Y-149999942D02*
X102952381Y-149714228D01*
X102952381Y-149714228D02*
X103000000Y-149618990D01*
X103000000Y-149618990D02*
X103047619Y-149571371D01*
X103047619Y-149571371D02*
X103142857Y-149523752D01*
X103142857Y-149523752D02*
X103333333Y-149523752D01*
X103333333Y-149523752D02*
X103428571Y-149571371D01*
X104000000Y-150190419D02*
X103904762Y-150142800D01*
X103904762Y-150142800D02*
X103857143Y-150095180D01*
X103857143Y-150095180D02*
X103809524Y-149999942D01*
X103809524Y-149999942D02*
X103809524Y-149714228D01*
X103809524Y-149714228D02*
X103857143Y-149618990D01*
X103857143Y-149618990D02*
X103904762Y-149571371D01*
X103904762Y-149571371D02*
X104000000Y-149523752D01*
X104000000Y-149523752D02*
X104142857Y-149523752D01*
X104142857Y-149523752D02*
X104238095Y-149571371D01*
X104238095Y-149571371D02*
X104285714Y-149618990D01*
X104285714Y-149618990D02*
X104333333Y-149714228D01*
X104333333Y-149714228D02*
X104333333Y-149999942D01*
X104333333Y-149999942D02*
X104285714Y-150095180D01*
X104285714Y-150095180D02*
X104238095Y-150142800D01*
X104238095Y-150142800D02*
X104142857Y-150190419D01*
X104142857Y-150190419D02*
X104000000Y-150190419D01*
X104761905Y-149523752D02*
X104761905Y-150190419D01*
X104761905Y-149618990D02*
X104809524Y-149571371D01*
X104809524Y-149571371D02*
X104904762Y-149523752D01*
X104904762Y-149523752D02*
X105047619Y-149523752D01*
X105047619Y-149523752D02*
X105142857Y-149571371D01*
X105142857Y-149571371D02*
X105190476Y-149666609D01*
X105190476Y-149666609D02*
X105190476Y-150190419D01*
X105571429Y-149523752D02*
X105809524Y-150190419D01*
X105809524Y-150190419D02*
X106047619Y-149523752D01*
X97430933Y-140710544D02*
X98130933Y-140477211D01*
X98130933Y-140477211D02*
X97430933Y-140243877D01*
X98130933Y-140010544D02*
X97430933Y-140010544D01*
X98130933Y-139677211D02*
X97430933Y-139677211D01*
X97430933Y-139677211D02*
X98130933Y-139277211D01*
X98130933Y-139277211D02*
X97430933Y-139277211D01*
X101233922Y-139882266D02*
X101167255Y-139848933D01*
X101167255Y-139848933D02*
X101067255Y-139848933D01*
X101067255Y-139848933D02*
X100967255Y-139882266D01*
X100967255Y-139882266D02*
X100900589Y-139948933D01*
X100900589Y-139948933D02*
X100867255Y-140015600D01*
X100867255Y-140015600D02*
X100833922Y-140148933D01*
X100833922Y-140148933D02*
X100833922Y-140248933D01*
X100833922Y-140248933D02*
X100867255Y-140382266D01*
X100867255Y-140382266D02*
X100900589Y-140448933D01*
X100900589Y-140448933D02*
X100967255Y-140515600D01*
X100967255Y-140515600D02*
X101067255Y-140548933D01*
X101067255Y-140548933D02*
X101133922Y-140548933D01*
X101133922Y-140548933D02*
X101233922Y-140515600D01*
X101233922Y-140515600D02*
X101267255Y-140482266D01*
X101267255Y-140482266D02*
X101267255Y-140248933D01*
X101267255Y-140248933D02*
X101133922Y-140248933D01*
X101567255Y-140548933D02*
X101567255Y-139848933D01*
X101567255Y-139848933D02*
X101967255Y-140548933D01*
X101967255Y-140548933D02*
X101967255Y-139848933D01*
X102300588Y-140548933D02*
X102300588Y-139848933D01*
X102300588Y-139848933D02*
X102467255Y-139848933D01*
X102467255Y-139848933D02*
X102567255Y-139882266D01*
X102567255Y-139882266D02*
X102633922Y-139948933D01*
X102633922Y-139948933D02*
X102667255Y-140015600D01*
X102667255Y-140015600D02*
X102700588Y-140148933D01*
X102700588Y-140148933D02*
X102700588Y-140248933D01*
X102700588Y-140248933D02*
X102667255Y-140382266D01*
X102667255Y-140382266D02*
X102633922Y-140448933D01*
X102633922Y-140448933D02*
X102567255Y-140515600D01*
X102567255Y-140515600D02*
X102467255Y-140548933D01*
X102467255Y-140548933D02*
X102300588Y-140548933D01*
X105304933Y-139947011D02*
X105304933Y-140280344D01*
X105304933Y-140280344D02*
X105638266Y-140313677D01*
X105638266Y-140313677D02*
X105604933Y-140280344D01*
X105604933Y-140280344D02*
X105571600Y-140213677D01*
X105571600Y-140213677D02*
X105571600Y-140047011D01*
X105571600Y-140047011D02*
X105604933Y-139980344D01*
X105604933Y-139980344D02*
X105638266Y-139947011D01*
X105638266Y-139947011D02*
X105704933Y-139913677D01*
X105704933Y-139913677D02*
X105871600Y-139913677D01*
X105871600Y-139913677D02*
X105938266Y-139947011D01*
X105938266Y-139947011D02*
X105971600Y-139980344D01*
X105971600Y-139980344D02*
X106004933Y-140047011D01*
X106004933Y-140047011D02*
X106004933Y-140213677D01*
X106004933Y-140213677D02*
X105971600Y-140280344D01*
X105971600Y-140280344D02*
X105938266Y-140313677D01*
X105304933Y-139713677D02*
X106004933Y-139480344D01*
X106004933Y-139480344D02*
X105304933Y-139247010D01*
D12*
X76316819Y-69102266D02*
X75840628Y-69435599D01*
X76316819Y-69673694D02*
X75316819Y-69673694D01*
X75316819Y-69673694D02*
X75316819Y-69292742D01*
X75316819Y-69292742D02*
X75364438Y-69197504D01*
X75364438Y-69197504D02*
X75412057Y-69149885D01*
X75412057Y-69149885D02*
X75507295Y-69102266D01*
X75507295Y-69102266D02*
X75650152Y-69102266D01*
X75650152Y-69102266D02*
X75745390Y-69149885D01*
X75745390Y-69149885D02*
X75793009Y-69197504D01*
X75793009Y-69197504D02*
X75840628Y-69292742D01*
X75840628Y-69292742D02*
X75840628Y-69673694D01*
X75316819Y-68768932D02*
X75316819Y-68102266D01*
X75316819Y-68102266D02*
X76316819Y-68530837D01*
X82523105Y-35255219D02*
X82523105Y-34255219D01*
X82523105Y-34255219D02*
X82761200Y-34255219D01*
X82761200Y-34255219D02*
X82904057Y-34302838D01*
X82904057Y-34302838D02*
X82999295Y-34398076D01*
X82999295Y-34398076D02*
X83046914Y-34493314D01*
X83046914Y-34493314D02*
X83094533Y-34683790D01*
X83094533Y-34683790D02*
X83094533Y-34826647D01*
X83094533Y-34826647D02*
X83046914Y-35017123D01*
X83046914Y-35017123D02*
X82999295Y-35112361D01*
X82999295Y-35112361D02*
X82904057Y-35207600D01*
X82904057Y-35207600D02*
X82761200Y-35255219D01*
X82761200Y-35255219D02*
X82523105Y-35255219D01*
X83475486Y-34350457D02*
X83523105Y-34302838D01*
X83523105Y-34302838D02*
X83618343Y-34255219D01*
X83618343Y-34255219D02*
X83856438Y-34255219D01*
X83856438Y-34255219D02*
X83951676Y-34302838D01*
X83951676Y-34302838D02*
X83999295Y-34350457D01*
X83999295Y-34350457D02*
X84046914Y-34445695D01*
X84046914Y-34445695D02*
X84046914Y-34540933D01*
X84046914Y-34540933D02*
X83999295Y-34683790D01*
X83999295Y-34683790D02*
X83427867Y-35255219D01*
X83427867Y-35255219D02*
X84046914Y-35255219D01*
X135442380Y-106715866D02*
X135490000Y-106763485D01*
X135490000Y-106763485D02*
X135537619Y-106906342D01*
X135537619Y-106906342D02*
X135537619Y-107001580D01*
X135537619Y-107001580D02*
X135490000Y-107144437D01*
X135490000Y-107144437D02*
X135394761Y-107239675D01*
X135394761Y-107239675D02*
X135299523Y-107287294D01*
X135299523Y-107287294D02*
X135109047Y-107334913D01*
X135109047Y-107334913D02*
X134966190Y-107334913D01*
X134966190Y-107334913D02*
X134775714Y-107287294D01*
X134775714Y-107287294D02*
X134680476Y-107239675D01*
X134680476Y-107239675D02*
X134585238Y-107144437D01*
X134585238Y-107144437D02*
X134537619Y-107001580D01*
X134537619Y-107001580D02*
X134537619Y-106906342D01*
X134537619Y-106906342D02*
X134585238Y-106763485D01*
X134585238Y-106763485D02*
X134632857Y-106715866D01*
X135537619Y-105763485D02*
X135537619Y-106334913D01*
X135537619Y-106049199D02*
X134537619Y-106049199D01*
X134537619Y-106049199D02*
X134680476Y-106144437D01*
X134680476Y-106144437D02*
X134775714Y-106239675D01*
X134775714Y-106239675D02*
X134823333Y-106334913D01*
X102466876Y-50000819D02*
X102466876Y-50715104D01*
X102466876Y-50715104D02*
X102419257Y-50857961D01*
X102419257Y-50857961D02*
X102324019Y-50953200D01*
X102324019Y-50953200D02*
X102181162Y-51000819D01*
X102181162Y-51000819D02*
X102085924Y-51000819D01*
X103466876Y-51000819D02*
X102895448Y-51000819D01*
X103181162Y-51000819D02*
X103181162Y-50000819D01*
X103181162Y-50000819D02*
X103085924Y-50143676D01*
X103085924Y-50143676D02*
X102990686Y-50238914D01*
X102990686Y-50238914D02*
X102895448Y-50286533D01*
X104371638Y-50000819D02*
X103895448Y-50000819D01*
X103895448Y-50000819D02*
X103847829Y-50477009D01*
X103847829Y-50477009D02*
X103895448Y-50429390D01*
X103895448Y-50429390D02*
X103990686Y-50381771D01*
X103990686Y-50381771D02*
X104228781Y-50381771D01*
X104228781Y-50381771D02*
X104324019Y-50429390D01*
X104324019Y-50429390D02*
X104371638Y-50477009D01*
X104371638Y-50477009D02*
X104419257Y-50572247D01*
X104419257Y-50572247D02*
X104419257Y-50810342D01*
X104419257Y-50810342D02*
X104371638Y-50905580D01*
X104371638Y-50905580D02*
X104324019Y-50953200D01*
X104324019Y-50953200D02*
X104228781Y-51000819D01*
X104228781Y-51000819D02*
X103990686Y-51000819D01*
X103990686Y-51000819D02*
X103895448Y-50953200D01*
X103895448Y-50953200D02*
X103847829Y-50905580D01*
X60928570Y-139692609D02*
X61071427Y-139740228D01*
X61071427Y-139740228D02*
X61119046Y-139787847D01*
X61119046Y-139787847D02*
X61166665Y-139883085D01*
X61166665Y-139883085D02*
X61166665Y-140025942D01*
X61166665Y-140025942D02*
X61119046Y-140121180D01*
X61119046Y-140121180D02*
X61071427Y-140168800D01*
X61071427Y-140168800D02*
X60976189Y-140216419D01*
X60976189Y-140216419D02*
X60595237Y-140216419D01*
X60595237Y-140216419D02*
X60595237Y-139216419D01*
X60595237Y-139216419D02*
X60928570Y-139216419D01*
X60928570Y-139216419D02*
X61023808Y-139264038D01*
X61023808Y-139264038D02*
X61071427Y-139311657D01*
X61071427Y-139311657D02*
X61119046Y-139406895D01*
X61119046Y-139406895D02*
X61119046Y-139502133D01*
X61119046Y-139502133D02*
X61071427Y-139597371D01*
X61071427Y-139597371D02*
X61023808Y-139644990D01*
X61023808Y-139644990D02*
X60928570Y-139692609D01*
X60928570Y-139692609D02*
X60595237Y-139692609D01*
X62023808Y-140216419D02*
X62023808Y-139692609D01*
X62023808Y-139692609D02*
X61976189Y-139597371D01*
X61976189Y-139597371D02*
X61880951Y-139549752D01*
X61880951Y-139549752D02*
X61690475Y-139549752D01*
X61690475Y-139549752D02*
X61595237Y-139597371D01*
X62023808Y-140168800D02*
X61928570Y-140216419D01*
X61928570Y-140216419D02*
X61690475Y-140216419D01*
X61690475Y-140216419D02*
X61595237Y-140168800D01*
X61595237Y-140168800D02*
X61547618Y-140073561D01*
X61547618Y-140073561D02*
X61547618Y-139978323D01*
X61547618Y-139978323D02*
X61595237Y-139883085D01*
X61595237Y-139883085D02*
X61690475Y-139835466D01*
X61690475Y-139835466D02*
X61928570Y-139835466D01*
X61928570Y-139835466D02*
X62023808Y-139787847D01*
X62357142Y-139549752D02*
X62738094Y-139549752D01*
X62499999Y-139216419D02*
X62499999Y-140073561D01*
X62499999Y-140073561D02*
X62547618Y-140168800D01*
X62547618Y-140168800D02*
X62642856Y-140216419D01*
X62642856Y-140216419D02*
X62738094Y-140216419D01*
X62928571Y-139549752D02*
X63309523Y-139549752D01*
X63071428Y-139216419D02*
X63071428Y-140073561D01*
X63071428Y-140073561D02*
X63119047Y-140168800D01*
X63119047Y-140168800D02*
X63214285Y-140216419D01*
X63214285Y-140216419D02*
X63309523Y-140216419D01*
X64023809Y-140168800D02*
X63928571Y-140216419D01*
X63928571Y-140216419D02*
X63738095Y-140216419D01*
X63738095Y-140216419D02*
X63642857Y-140168800D01*
X63642857Y-140168800D02*
X63595238Y-140073561D01*
X63595238Y-140073561D02*
X63595238Y-139692609D01*
X63595238Y-139692609D02*
X63642857Y-139597371D01*
X63642857Y-139597371D02*
X63738095Y-139549752D01*
X63738095Y-139549752D02*
X63928571Y-139549752D01*
X63928571Y-139549752D02*
X64023809Y-139597371D01*
X64023809Y-139597371D02*
X64071428Y-139692609D01*
X64071428Y-139692609D02*
X64071428Y-139787847D01*
X64071428Y-139787847D02*
X63595238Y-139883085D01*
X64500000Y-140216419D02*
X64500000Y-139549752D01*
X64500000Y-139740228D02*
X64547619Y-139644990D01*
X64547619Y-139644990D02*
X64595238Y-139597371D01*
X64595238Y-139597371D02*
X64690476Y-139549752D01*
X64690476Y-139549752D02*
X64785714Y-139549752D01*
X65023810Y-139549752D02*
X65261905Y-140216419D01*
X65500000Y-139549752D02*
X65261905Y-140216419D01*
X65261905Y-140216419D02*
X65166667Y-140454514D01*
X65166667Y-140454514D02*
X65119048Y-140502133D01*
X65119048Y-140502133D02*
X65023810Y-140549752D01*
X117097980Y-115838266D02*
X117145600Y-115885885D01*
X117145600Y-115885885D02*
X117193219Y-116028742D01*
X117193219Y-116028742D02*
X117193219Y-116123980D01*
X117193219Y-116123980D02*
X117145600Y-116266837D01*
X117145600Y-116266837D02*
X117050361Y-116362075D01*
X117050361Y-116362075D02*
X116955123Y-116409694D01*
X116955123Y-116409694D02*
X116764647Y-116457313D01*
X116764647Y-116457313D02*
X116621790Y-116457313D01*
X116621790Y-116457313D02*
X116431314Y-116409694D01*
X116431314Y-116409694D02*
X116336076Y-116362075D01*
X116336076Y-116362075D02*
X116240838Y-116266837D01*
X116240838Y-116266837D02*
X116193219Y-116123980D01*
X116193219Y-116123980D02*
X116193219Y-116028742D01*
X116193219Y-116028742D02*
X116240838Y-115885885D01*
X116240838Y-115885885D02*
X116288457Y-115838266D01*
X116193219Y-115504932D02*
X116193219Y-114885885D01*
X116193219Y-114885885D02*
X116574171Y-115219218D01*
X116574171Y-115219218D02*
X116574171Y-115076361D01*
X116574171Y-115076361D02*
X116621790Y-114981123D01*
X116621790Y-114981123D02*
X116669409Y-114933504D01*
X116669409Y-114933504D02*
X116764647Y-114885885D01*
X116764647Y-114885885D02*
X117002742Y-114885885D01*
X117002742Y-114885885D02*
X117097980Y-114933504D01*
X117097980Y-114933504D02*
X117145600Y-114981123D01*
X117145600Y-114981123D02*
X117193219Y-115076361D01*
X117193219Y-115076361D02*
X117193219Y-115362075D01*
X117193219Y-115362075D02*
X117145600Y-115457313D01*
X117145600Y-115457313D02*
X117097980Y-115504932D01*
X128132819Y-70880266D02*
X127656628Y-71213599D01*
X128132819Y-71451694D02*
X127132819Y-71451694D01*
X127132819Y-71451694D02*
X127132819Y-71070742D01*
X127132819Y-71070742D02*
X127180438Y-70975504D01*
X127180438Y-70975504D02*
X127228057Y-70927885D01*
X127228057Y-70927885D02*
X127323295Y-70880266D01*
X127323295Y-70880266D02*
X127466152Y-70880266D01*
X127466152Y-70880266D02*
X127561390Y-70927885D01*
X127561390Y-70927885D02*
X127609009Y-70975504D01*
X127609009Y-70975504D02*
X127656628Y-71070742D01*
X127656628Y-71070742D02*
X127656628Y-71451694D01*
X127466152Y-70023123D02*
X128132819Y-70023123D01*
X127085200Y-70261218D02*
X127799485Y-70499313D01*
X127799485Y-70499313D02*
X127799485Y-69880266D01*
X86885714Y-128854819D02*
X86885714Y-127854819D01*
X86885714Y-127854819D02*
X87219047Y-128569104D01*
X87219047Y-128569104D02*
X87552380Y-127854819D01*
X87552380Y-127854819D02*
X87552380Y-128854819D01*
X88171428Y-128854819D02*
X88076190Y-128807200D01*
X88076190Y-128807200D02*
X88028571Y-128759580D01*
X88028571Y-128759580D02*
X87980952Y-128664342D01*
X87980952Y-128664342D02*
X87980952Y-128378628D01*
X87980952Y-128378628D02*
X88028571Y-128283390D01*
X88028571Y-128283390D02*
X88076190Y-128235771D01*
X88076190Y-128235771D02*
X88171428Y-128188152D01*
X88171428Y-128188152D02*
X88314285Y-128188152D01*
X88314285Y-128188152D02*
X88409523Y-128235771D01*
X88409523Y-128235771D02*
X88457142Y-128283390D01*
X88457142Y-128283390D02*
X88504761Y-128378628D01*
X88504761Y-128378628D02*
X88504761Y-128664342D01*
X88504761Y-128664342D02*
X88457142Y-128759580D01*
X88457142Y-128759580D02*
X88409523Y-128807200D01*
X88409523Y-128807200D02*
X88314285Y-128854819D01*
X88314285Y-128854819D02*
X88171428Y-128854819D01*
X88790476Y-128188152D02*
X89171428Y-128188152D01*
X88933333Y-127854819D02*
X88933333Y-128711961D01*
X88933333Y-128711961D02*
X88980952Y-128807200D01*
X88980952Y-128807200D02*
X89076190Y-128854819D01*
X89076190Y-128854819D02*
X89171428Y-128854819D01*
X89647619Y-128854819D02*
X89552381Y-128807200D01*
X89552381Y-128807200D02*
X89504762Y-128759580D01*
X89504762Y-128759580D02*
X89457143Y-128664342D01*
X89457143Y-128664342D02*
X89457143Y-128378628D01*
X89457143Y-128378628D02*
X89504762Y-128283390D01*
X89504762Y-128283390D02*
X89552381Y-128235771D01*
X89552381Y-128235771D02*
X89647619Y-128188152D01*
X89647619Y-128188152D02*
X89790476Y-128188152D01*
X89790476Y-128188152D02*
X89885714Y-128235771D01*
X89885714Y-128235771D02*
X89933333Y-128283390D01*
X89933333Y-128283390D02*
X89980952Y-128378628D01*
X89980952Y-128378628D02*
X89980952Y-128664342D01*
X89980952Y-128664342D02*
X89933333Y-128759580D01*
X89933333Y-128759580D02*
X89885714Y-128807200D01*
X89885714Y-128807200D02*
X89790476Y-128854819D01*
X89790476Y-128854819D02*
X89647619Y-128854819D01*
X90409524Y-128854819D02*
X90409524Y-128188152D01*
X90409524Y-128378628D02*
X90457143Y-128283390D01*
X90457143Y-128283390D02*
X90504762Y-128235771D01*
X90504762Y-128235771D02*
X90600000Y-128188152D01*
X90600000Y-128188152D02*
X90695238Y-128188152D01*
X92123810Y-128331009D02*
X92266667Y-128378628D01*
X92266667Y-128378628D02*
X92314286Y-128426247D01*
X92314286Y-128426247D02*
X92361905Y-128521485D01*
X92361905Y-128521485D02*
X92361905Y-128664342D01*
X92361905Y-128664342D02*
X92314286Y-128759580D01*
X92314286Y-128759580D02*
X92266667Y-128807200D01*
X92266667Y-128807200D02*
X92171429Y-128854819D01*
X92171429Y-128854819D02*
X91790477Y-128854819D01*
X91790477Y-128854819D02*
X91790477Y-127854819D01*
X91790477Y-127854819D02*
X92123810Y-127854819D01*
X92123810Y-127854819D02*
X92219048Y-127902438D01*
X92219048Y-127902438D02*
X92266667Y-127950057D01*
X92266667Y-127950057D02*
X92314286Y-128045295D01*
X92314286Y-128045295D02*
X92314286Y-128140533D01*
X92314286Y-128140533D02*
X92266667Y-128235771D01*
X92266667Y-128235771D02*
X92219048Y-128283390D01*
X92219048Y-128283390D02*
X92123810Y-128331009D01*
X92123810Y-128331009D02*
X91790477Y-128331009D01*
X71299437Y-49455775D02*
X71198422Y-49489447D01*
X71198422Y-49489447D02*
X71063735Y-49489447D01*
X71063735Y-49489447D02*
X70861704Y-49489447D01*
X70861704Y-49489447D02*
X70760689Y-49523119D01*
X70760689Y-49523119D02*
X70693346Y-49590462D01*
X70895376Y-49725149D02*
X70794361Y-49758821D01*
X70794361Y-49758821D02*
X70659674Y-49758821D01*
X70659674Y-49758821D02*
X70491315Y-49657806D01*
X70491315Y-49657806D02*
X70255613Y-49422103D01*
X70255613Y-49422103D02*
X70154598Y-49253745D01*
X70154598Y-49253745D02*
X70154598Y-49119058D01*
X70154598Y-49119058D02*
X70188269Y-49018042D01*
X70188269Y-49018042D02*
X70322956Y-48883355D01*
X70322956Y-48883355D02*
X70423972Y-48849684D01*
X70423972Y-48849684D02*
X70558659Y-48849684D01*
X70558659Y-48849684D02*
X70727017Y-48950699D01*
X70727017Y-48950699D02*
X70962720Y-49186401D01*
X70962720Y-49186401D02*
X71063735Y-49354760D01*
X71063735Y-49354760D02*
X71063735Y-49489447D01*
X71063735Y-49489447D02*
X71030063Y-49590462D01*
X71030063Y-49590462D02*
X70895376Y-49725149D01*
X71871857Y-48748668D02*
X71467796Y-49152729D01*
X71669826Y-48950699D02*
X70962720Y-48243592D01*
X70962720Y-48243592D02*
X70996391Y-48411951D01*
X70996391Y-48411951D02*
X70996391Y-48546638D01*
X70996391Y-48546638D02*
X70962720Y-48647653D01*
X64427525Y-56447000D02*
X63720419Y-55739893D01*
X63720419Y-55739893D02*
X63888777Y-55571534D01*
X63888777Y-55571534D02*
X64023464Y-55504191D01*
X64023464Y-55504191D02*
X64158151Y-55504191D01*
X64158151Y-55504191D02*
X64259167Y-55537863D01*
X64259167Y-55537863D02*
X64427525Y-55638878D01*
X64427525Y-55638878D02*
X64528541Y-55739893D01*
X64528541Y-55739893D02*
X64629556Y-55908252D01*
X64629556Y-55908252D02*
X64663228Y-56009267D01*
X64663228Y-56009267D02*
X64663228Y-56143954D01*
X64663228Y-56143954D02*
X64595884Y-56278641D01*
X64595884Y-56278641D02*
X64427525Y-56447000D01*
X65505021Y-55369504D02*
X65100960Y-55773565D01*
X65302991Y-55571534D02*
X64595884Y-54864428D01*
X64595884Y-54864428D02*
X64629556Y-55032786D01*
X64629556Y-55032786D02*
X64629556Y-55167473D01*
X64629556Y-55167473D02*
X64595884Y-55268489D01*
X132986199Y-49390725D02*
X133693306Y-48683619D01*
X133693306Y-48683619D02*
X133861665Y-48851977D01*
X133861665Y-48851977D02*
X133929008Y-48986664D01*
X133929008Y-48986664D02*
X133929008Y-49121351D01*
X133929008Y-49121351D02*
X133895336Y-49222367D01*
X133895336Y-49222367D02*
X133794321Y-49390725D01*
X133794321Y-49390725D02*
X133693306Y-49491741D01*
X133693306Y-49491741D02*
X133524947Y-49592756D01*
X133524947Y-49592756D02*
X133423932Y-49626428D01*
X133423932Y-49626428D02*
X133289245Y-49626428D01*
X133289245Y-49626428D02*
X133154558Y-49559084D01*
X133154558Y-49559084D02*
X132986199Y-49390725D01*
X134467756Y-49929473D02*
X133996352Y-50400878D01*
X134568771Y-49491741D02*
X133895336Y-49828458D01*
X133895336Y-49828458D02*
X134333069Y-50266191D01*
X84086800Y-143690285D02*
X84134419Y-143547428D01*
X84134419Y-143547428D02*
X84134419Y-143309333D01*
X84134419Y-143309333D02*
X84086800Y-143214095D01*
X84086800Y-143214095D02*
X84039180Y-143166476D01*
X84039180Y-143166476D02*
X83943942Y-143118857D01*
X83943942Y-143118857D02*
X83848704Y-143118857D01*
X83848704Y-143118857D02*
X83753466Y-143166476D01*
X83753466Y-143166476D02*
X83705847Y-143214095D01*
X83705847Y-143214095D02*
X83658228Y-143309333D01*
X83658228Y-143309333D02*
X83610609Y-143499809D01*
X83610609Y-143499809D02*
X83562990Y-143595047D01*
X83562990Y-143595047D02*
X83515371Y-143642666D01*
X83515371Y-143642666D02*
X83420133Y-143690285D01*
X83420133Y-143690285D02*
X83324895Y-143690285D01*
X83324895Y-143690285D02*
X83229657Y-143642666D01*
X83229657Y-143642666D02*
X83182038Y-143595047D01*
X83182038Y-143595047D02*
X83134419Y-143499809D01*
X83134419Y-143499809D02*
X83134419Y-143261714D01*
X83134419Y-143261714D02*
X83182038Y-143118857D01*
X83467752Y-142785523D02*
X84134419Y-142595047D01*
X84134419Y-142595047D02*
X83658228Y-142404571D01*
X83658228Y-142404571D02*
X84134419Y-142214095D01*
X84134419Y-142214095D02*
X83467752Y-142023619D01*
X84134419Y-141642666D02*
X83467752Y-141642666D01*
X83134419Y-141642666D02*
X83182038Y-141690285D01*
X83182038Y-141690285D02*
X83229657Y-141642666D01*
X83229657Y-141642666D02*
X83182038Y-141595047D01*
X83182038Y-141595047D02*
X83134419Y-141642666D01*
X83134419Y-141642666D02*
X83229657Y-141642666D01*
X83467752Y-141309333D02*
X83467752Y-140928381D01*
X83134419Y-141166476D02*
X83991561Y-141166476D01*
X83991561Y-141166476D02*
X84086800Y-141118857D01*
X84086800Y-141118857D02*
X84134419Y-141023619D01*
X84134419Y-141023619D02*
X84134419Y-140928381D01*
X84086800Y-140166476D02*
X84134419Y-140261714D01*
X84134419Y-140261714D02*
X84134419Y-140452190D01*
X84134419Y-140452190D02*
X84086800Y-140547428D01*
X84086800Y-140547428D02*
X84039180Y-140595047D01*
X84039180Y-140595047D02*
X83943942Y-140642666D01*
X83943942Y-140642666D02*
X83658228Y-140642666D01*
X83658228Y-140642666D02*
X83562990Y-140595047D01*
X83562990Y-140595047D02*
X83515371Y-140547428D01*
X83515371Y-140547428D02*
X83467752Y-140452190D01*
X83467752Y-140452190D02*
X83467752Y-140261714D01*
X83467752Y-140261714D02*
X83515371Y-140166476D01*
X84134419Y-139737904D02*
X83134419Y-139737904D01*
X84134419Y-139309333D02*
X83610609Y-139309333D01*
X83610609Y-139309333D02*
X83515371Y-139356952D01*
X83515371Y-139356952D02*
X83467752Y-139452190D01*
X83467752Y-139452190D02*
X83467752Y-139595047D01*
X83467752Y-139595047D02*
X83515371Y-139690285D01*
X83515371Y-139690285D02*
X83562990Y-139737904D01*
X110463105Y-35255219D02*
X110463105Y-34255219D01*
X110463105Y-34255219D02*
X110701200Y-34255219D01*
X110701200Y-34255219D02*
X110844057Y-34302838D01*
X110844057Y-34302838D02*
X110939295Y-34398076D01*
X110939295Y-34398076D02*
X110986914Y-34493314D01*
X110986914Y-34493314D02*
X111034533Y-34683790D01*
X111034533Y-34683790D02*
X111034533Y-34826647D01*
X111034533Y-34826647D02*
X110986914Y-35017123D01*
X110986914Y-35017123D02*
X110939295Y-35112361D01*
X110939295Y-35112361D02*
X110844057Y-35207600D01*
X110844057Y-35207600D02*
X110701200Y-35255219D01*
X110701200Y-35255219D02*
X110463105Y-35255219D01*
X111367867Y-34255219D02*
X111986914Y-34255219D01*
X111986914Y-34255219D02*
X111653581Y-34636171D01*
X111653581Y-34636171D02*
X111796438Y-34636171D01*
X111796438Y-34636171D02*
X111891676Y-34683790D01*
X111891676Y-34683790D02*
X111939295Y-34731409D01*
X111939295Y-34731409D02*
X111986914Y-34826647D01*
X111986914Y-34826647D02*
X111986914Y-35064742D01*
X111986914Y-35064742D02*
X111939295Y-35159980D01*
X111939295Y-35159980D02*
X111891676Y-35207600D01*
X111891676Y-35207600D02*
X111796438Y-35255219D01*
X111796438Y-35255219D02*
X111510724Y-35255219D01*
X111510724Y-35255219D02*
X111415486Y-35207600D01*
X111415486Y-35207600D02*
X111367867Y-35159980D01*
X93574961Y-35350457D02*
X93479723Y-35302838D01*
X93479723Y-35302838D02*
X93384485Y-35207600D01*
X93384485Y-35207600D02*
X93241628Y-35064742D01*
X93241628Y-35064742D02*
X93146390Y-35017123D01*
X93146390Y-35017123D02*
X93051152Y-35017123D01*
X93098771Y-35255219D02*
X93003533Y-35207600D01*
X93003533Y-35207600D02*
X92908295Y-35112361D01*
X92908295Y-35112361D02*
X92860676Y-34921885D01*
X92860676Y-34921885D02*
X92860676Y-34588552D01*
X92860676Y-34588552D02*
X92908295Y-34398076D01*
X92908295Y-34398076D02*
X93003533Y-34302838D01*
X93003533Y-34302838D02*
X93098771Y-34255219D01*
X93098771Y-34255219D02*
X93289247Y-34255219D01*
X93289247Y-34255219D02*
X93384485Y-34302838D01*
X93384485Y-34302838D02*
X93479723Y-34398076D01*
X93479723Y-34398076D02*
X93527342Y-34588552D01*
X93527342Y-34588552D02*
X93527342Y-34921885D01*
X93527342Y-34921885D02*
X93479723Y-35112361D01*
X93479723Y-35112361D02*
X93384485Y-35207600D01*
X93384485Y-35207600D02*
X93289247Y-35255219D01*
X93289247Y-35255219D02*
X93098771Y-35255219D01*
X93908295Y-34350457D02*
X93955914Y-34302838D01*
X93955914Y-34302838D02*
X94051152Y-34255219D01*
X94051152Y-34255219D02*
X94289247Y-34255219D01*
X94289247Y-34255219D02*
X94384485Y-34302838D01*
X94384485Y-34302838D02*
X94432104Y-34350457D01*
X94432104Y-34350457D02*
X94479723Y-34445695D01*
X94479723Y-34445695D02*
X94479723Y-34540933D01*
X94479723Y-34540933D02*
X94432104Y-34683790D01*
X94432104Y-34683790D02*
X93860676Y-35255219D01*
X93860676Y-35255219D02*
X94479723Y-35255219D01*
X103719333Y-66004419D02*
X103386000Y-65528228D01*
X103147905Y-66004419D02*
X103147905Y-65004419D01*
X103147905Y-65004419D02*
X103528857Y-65004419D01*
X103528857Y-65004419D02*
X103624095Y-65052038D01*
X103624095Y-65052038D02*
X103671714Y-65099657D01*
X103671714Y-65099657D02*
X103719333Y-65194895D01*
X103719333Y-65194895D02*
X103719333Y-65337752D01*
X103719333Y-65337752D02*
X103671714Y-65432990D01*
X103671714Y-65432990D02*
X103624095Y-65480609D01*
X103624095Y-65480609D02*
X103528857Y-65528228D01*
X103528857Y-65528228D02*
X103147905Y-65528228D01*
X104624095Y-65004419D02*
X104147905Y-65004419D01*
X104147905Y-65004419D02*
X104100286Y-65480609D01*
X104100286Y-65480609D02*
X104147905Y-65432990D01*
X104147905Y-65432990D02*
X104243143Y-65385371D01*
X104243143Y-65385371D02*
X104481238Y-65385371D01*
X104481238Y-65385371D02*
X104576476Y-65432990D01*
X104576476Y-65432990D02*
X104624095Y-65480609D01*
X104624095Y-65480609D02*
X104671714Y-65575847D01*
X104671714Y-65575847D02*
X104671714Y-65813942D01*
X104671714Y-65813942D02*
X104624095Y-65909180D01*
X104624095Y-65909180D02*
X104576476Y-65956800D01*
X104576476Y-65956800D02*
X104481238Y-66004419D01*
X104481238Y-66004419D02*
X104243143Y-66004419D01*
X104243143Y-66004419D02*
X104147905Y-65956800D01*
X104147905Y-65956800D02*
X104100286Y-65909180D01*
X139571024Y-56110237D02*
X139537352Y-56009222D01*
X139537352Y-56009222D02*
X139537352Y-55874535D01*
X139537352Y-55874535D02*
X139537352Y-55672504D01*
X139537352Y-55672504D02*
X139503680Y-55571489D01*
X139503680Y-55571489D02*
X139436337Y-55504146D01*
X139301650Y-55706176D02*
X139267978Y-55605161D01*
X139267978Y-55605161D02*
X139267978Y-55470474D01*
X139267978Y-55470474D02*
X139368993Y-55302115D01*
X139368993Y-55302115D02*
X139604696Y-55066413D01*
X139604696Y-55066413D02*
X139773054Y-54965398D01*
X139773054Y-54965398D02*
X139907741Y-54965398D01*
X139907741Y-54965398D02*
X140008757Y-54999069D01*
X140008757Y-54999069D02*
X140143444Y-55133756D01*
X140143444Y-55133756D02*
X140177115Y-55234772D01*
X140177115Y-55234772D02*
X140177115Y-55369459D01*
X140177115Y-55369459D02*
X140076100Y-55537817D01*
X140076100Y-55537817D02*
X139840398Y-55773520D01*
X139840398Y-55773520D02*
X139672039Y-55874535D01*
X139672039Y-55874535D02*
X139537352Y-55874535D01*
X139537352Y-55874535D02*
X139436337Y-55840863D01*
X139436337Y-55840863D02*
X139301650Y-55706176D01*
X140682192Y-56143909D02*
X140210787Y-56615313D01*
X140783207Y-55706176D02*
X140109772Y-56042894D01*
X140109772Y-56042894D02*
X140547505Y-56480626D01*
X133161904Y-145454819D02*
X133733332Y-145454819D01*
X133447618Y-146454819D02*
X133447618Y-145454819D01*
X134495237Y-146454819D02*
X134495237Y-145931009D01*
X134495237Y-145931009D02*
X134447618Y-145835771D01*
X134447618Y-145835771D02*
X134352380Y-145788152D01*
X134352380Y-145788152D02*
X134161904Y-145788152D01*
X134161904Y-145788152D02*
X134066666Y-145835771D01*
X134495237Y-146407200D02*
X134399999Y-146454819D01*
X134399999Y-146454819D02*
X134161904Y-146454819D01*
X134161904Y-146454819D02*
X134066666Y-146407200D01*
X134066666Y-146407200D02*
X134019047Y-146311961D01*
X134019047Y-146311961D02*
X134019047Y-146216723D01*
X134019047Y-146216723D02*
X134066666Y-146121485D01*
X134066666Y-146121485D02*
X134161904Y-146073866D01*
X134161904Y-146073866D02*
X134399999Y-146073866D01*
X134399999Y-146073866D02*
X134495237Y-146026247D01*
X135399999Y-146407200D02*
X135304761Y-146454819D01*
X135304761Y-146454819D02*
X135114285Y-146454819D01*
X135114285Y-146454819D02*
X135019047Y-146407200D01*
X135019047Y-146407200D02*
X134971428Y-146359580D01*
X134971428Y-146359580D02*
X134923809Y-146264342D01*
X134923809Y-146264342D02*
X134923809Y-145978628D01*
X134923809Y-145978628D02*
X134971428Y-145883390D01*
X134971428Y-145883390D02*
X135019047Y-145835771D01*
X135019047Y-145835771D02*
X135114285Y-145788152D01*
X135114285Y-145788152D02*
X135304761Y-145788152D01*
X135304761Y-145788152D02*
X135399999Y-145835771D01*
X135685714Y-145788152D02*
X136066666Y-145788152D01*
X135828571Y-145454819D02*
X135828571Y-146311961D01*
X135828571Y-146311961D02*
X135876190Y-146407200D01*
X135876190Y-146407200D02*
X135971428Y-146454819D01*
X135971428Y-146454819D02*
X136066666Y-146454819D01*
X137114286Y-146407200D02*
X137257143Y-146454819D01*
X137257143Y-146454819D02*
X137495238Y-146454819D01*
X137495238Y-146454819D02*
X137590476Y-146407200D01*
X137590476Y-146407200D02*
X137638095Y-146359580D01*
X137638095Y-146359580D02*
X137685714Y-146264342D01*
X137685714Y-146264342D02*
X137685714Y-146169104D01*
X137685714Y-146169104D02*
X137638095Y-146073866D01*
X137638095Y-146073866D02*
X137590476Y-146026247D01*
X137590476Y-146026247D02*
X137495238Y-145978628D01*
X137495238Y-145978628D02*
X137304762Y-145931009D01*
X137304762Y-145931009D02*
X137209524Y-145883390D01*
X137209524Y-145883390D02*
X137161905Y-145835771D01*
X137161905Y-145835771D02*
X137114286Y-145740533D01*
X137114286Y-145740533D02*
X137114286Y-145645295D01*
X137114286Y-145645295D02*
X137161905Y-145550057D01*
X137161905Y-145550057D02*
X137209524Y-145502438D01*
X137209524Y-145502438D02*
X137304762Y-145454819D01*
X137304762Y-145454819D02*
X137542857Y-145454819D01*
X137542857Y-145454819D02*
X137685714Y-145502438D01*
X138019048Y-145788152D02*
X138209524Y-146454819D01*
X138209524Y-146454819D02*
X138400000Y-145978628D01*
X138400000Y-145978628D02*
X138590476Y-146454819D01*
X138590476Y-146454819D02*
X138780952Y-145788152D01*
X139161905Y-146454819D02*
X139161905Y-145788152D01*
X139161905Y-145454819D02*
X139114286Y-145502438D01*
X139114286Y-145502438D02*
X139161905Y-145550057D01*
X139161905Y-145550057D02*
X139209524Y-145502438D01*
X139209524Y-145502438D02*
X139161905Y-145454819D01*
X139161905Y-145454819D02*
X139161905Y-145550057D01*
X139495238Y-145788152D02*
X139876190Y-145788152D01*
X139638095Y-145454819D02*
X139638095Y-146311961D01*
X139638095Y-146311961D02*
X139685714Y-146407200D01*
X139685714Y-146407200D02*
X139780952Y-146454819D01*
X139780952Y-146454819D02*
X139876190Y-146454819D01*
X140638095Y-146407200D02*
X140542857Y-146454819D01*
X140542857Y-146454819D02*
X140352381Y-146454819D01*
X140352381Y-146454819D02*
X140257143Y-146407200D01*
X140257143Y-146407200D02*
X140209524Y-146359580D01*
X140209524Y-146359580D02*
X140161905Y-146264342D01*
X140161905Y-146264342D02*
X140161905Y-145978628D01*
X140161905Y-145978628D02*
X140209524Y-145883390D01*
X140209524Y-145883390D02*
X140257143Y-145835771D01*
X140257143Y-145835771D02*
X140352381Y-145788152D01*
X140352381Y-145788152D02*
X140542857Y-145788152D01*
X140542857Y-145788152D02*
X140638095Y-145835771D01*
X141066667Y-146454819D02*
X141066667Y-145454819D01*
X141495238Y-146454819D02*
X141495238Y-145931009D01*
X141495238Y-145931009D02*
X141447619Y-145835771D01*
X141447619Y-145835771D02*
X141352381Y-145788152D01*
X141352381Y-145788152D02*
X141209524Y-145788152D01*
X141209524Y-145788152D02*
X141114286Y-145835771D01*
X141114286Y-145835771D02*
X141066667Y-145883390D01*
X71236819Y-69102266D02*
X70760628Y-69435599D01*
X71236819Y-69673694D02*
X70236819Y-69673694D01*
X70236819Y-69673694D02*
X70236819Y-69292742D01*
X70236819Y-69292742D02*
X70284438Y-69197504D01*
X70284438Y-69197504D02*
X70332057Y-69149885D01*
X70332057Y-69149885D02*
X70427295Y-69102266D01*
X70427295Y-69102266D02*
X70570152Y-69102266D01*
X70570152Y-69102266D02*
X70665390Y-69149885D01*
X70665390Y-69149885D02*
X70713009Y-69197504D01*
X70713009Y-69197504D02*
X70760628Y-69292742D01*
X70760628Y-69292742D02*
X70760628Y-69673694D01*
X71236819Y-68149885D02*
X71236819Y-68721313D01*
X71236819Y-68435599D02*
X70236819Y-68435599D01*
X70236819Y-68435599D02*
X70379676Y-68530837D01*
X70379676Y-68530837D02*
X70474914Y-68626075D01*
X70474914Y-68626075D02*
X70522533Y-68721313D01*
X119496819Y-52846266D02*
X119020628Y-53179599D01*
X119496819Y-53417694D02*
X118496819Y-53417694D01*
X118496819Y-53417694D02*
X118496819Y-53036742D01*
X118496819Y-53036742D02*
X118544438Y-52941504D01*
X118544438Y-52941504D02*
X118592057Y-52893885D01*
X118592057Y-52893885D02*
X118687295Y-52846266D01*
X118687295Y-52846266D02*
X118830152Y-52846266D01*
X118830152Y-52846266D02*
X118925390Y-52893885D01*
X118925390Y-52893885D02*
X118973009Y-52941504D01*
X118973009Y-52941504D02*
X119020628Y-53036742D01*
X119020628Y-53036742D02*
X119020628Y-53417694D01*
X119496819Y-52370075D02*
X119496819Y-52179599D01*
X119496819Y-52179599D02*
X119449200Y-52084361D01*
X119449200Y-52084361D02*
X119401580Y-52036742D01*
X119401580Y-52036742D02*
X119258723Y-51941504D01*
X119258723Y-51941504D02*
X119068247Y-51893885D01*
X119068247Y-51893885D02*
X118687295Y-51893885D01*
X118687295Y-51893885D02*
X118592057Y-51941504D01*
X118592057Y-51941504D02*
X118544438Y-51989123D01*
X118544438Y-51989123D02*
X118496819Y-52084361D01*
X118496819Y-52084361D02*
X118496819Y-52274837D01*
X118496819Y-52274837D02*
X118544438Y-52370075D01*
X118544438Y-52370075D02*
X118592057Y-52417694D01*
X118592057Y-52417694D02*
X118687295Y-52465313D01*
X118687295Y-52465313D02*
X118925390Y-52465313D01*
X118925390Y-52465313D02*
X119020628Y-52417694D01*
X119020628Y-52417694D02*
X119068247Y-52370075D01*
X119068247Y-52370075D02*
X119115866Y-52274837D01*
X119115866Y-52274837D02*
X119115866Y-52084361D01*
X119115866Y-52084361D02*
X119068247Y-51989123D01*
X119068247Y-51989123D02*
X119020628Y-51941504D01*
X119020628Y-51941504D02*
X118925390Y-51893885D01*
X64876190Y-110304819D02*
X64876190Y-109304819D01*
X64876190Y-109304819D02*
X65209523Y-110019104D01*
X65209523Y-110019104D02*
X65542856Y-109304819D01*
X65542856Y-109304819D02*
X65542856Y-110304819D01*
X66161904Y-110304819D02*
X66066666Y-110257200D01*
X66066666Y-110257200D02*
X66019047Y-110209580D01*
X66019047Y-110209580D02*
X65971428Y-110114342D01*
X65971428Y-110114342D02*
X65971428Y-109828628D01*
X65971428Y-109828628D02*
X66019047Y-109733390D01*
X66019047Y-109733390D02*
X66066666Y-109685771D01*
X66066666Y-109685771D02*
X66161904Y-109638152D01*
X66161904Y-109638152D02*
X66304761Y-109638152D01*
X66304761Y-109638152D02*
X66399999Y-109685771D01*
X66399999Y-109685771D02*
X66447618Y-109733390D01*
X66447618Y-109733390D02*
X66495237Y-109828628D01*
X66495237Y-109828628D02*
X66495237Y-110114342D01*
X66495237Y-110114342D02*
X66447618Y-110209580D01*
X66447618Y-110209580D02*
X66399999Y-110257200D01*
X66399999Y-110257200D02*
X66304761Y-110304819D01*
X66304761Y-110304819D02*
X66161904Y-110304819D01*
X66780952Y-109638152D02*
X67161904Y-109638152D01*
X66923809Y-109304819D02*
X66923809Y-110161961D01*
X66923809Y-110161961D02*
X66971428Y-110257200D01*
X66971428Y-110257200D02*
X67066666Y-110304819D01*
X67066666Y-110304819D02*
X67161904Y-110304819D01*
X67638095Y-110304819D02*
X67542857Y-110257200D01*
X67542857Y-110257200D02*
X67495238Y-110209580D01*
X67495238Y-110209580D02*
X67447619Y-110114342D01*
X67447619Y-110114342D02*
X67447619Y-109828628D01*
X67447619Y-109828628D02*
X67495238Y-109733390D01*
X67495238Y-109733390D02*
X67542857Y-109685771D01*
X67542857Y-109685771D02*
X67638095Y-109638152D01*
X67638095Y-109638152D02*
X67780952Y-109638152D01*
X67780952Y-109638152D02*
X67876190Y-109685771D01*
X67876190Y-109685771D02*
X67923809Y-109733390D01*
X67923809Y-109733390D02*
X67971428Y-109828628D01*
X67971428Y-109828628D02*
X67971428Y-110114342D01*
X67971428Y-110114342D02*
X67923809Y-110209580D01*
X67923809Y-110209580D02*
X67876190Y-110257200D01*
X67876190Y-110257200D02*
X67780952Y-110304819D01*
X67780952Y-110304819D02*
X67638095Y-110304819D01*
X68400000Y-110304819D02*
X68400000Y-109638152D01*
X68400000Y-109828628D02*
X68447619Y-109733390D01*
X68447619Y-109733390D02*
X68495238Y-109685771D01*
X68495238Y-109685771D02*
X68590476Y-109638152D01*
X68590476Y-109638152D02*
X68685714Y-109638152D01*
X69780953Y-110304819D02*
X69780953Y-109638152D01*
X69780953Y-109733390D02*
X69828572Y-109685771D01*
X69828572Y-109685771D02*
X69923810Y-109638152D01*
X69923810Y-109638152D02*
X70066667Y-109638152D01*
X70066667Y-109638152D02*
X70161905Y-109685771D01*
X70161905Y-109685771D02*
X70209524Y-109781009D01*
X70209524Y-109781009D02*
X70209524Y-110304819D01*
X70209524Y-109781009D02*
X70257143Y-109685771D01*
X70257143Y-109685771D02*
X70352381Y-109638152D01*
X70352381Y-109638152D02*
X70495238Y-109638152D01*
X70495238Y-109638152D02*
X70590477Y-109685771D01*
X70590477Y-109685771D02*
X70638096Y-109781009D01*
X70638096Y-109781009D02*
X70638096Y-110304819D01*
X71257143Y-110304819D02*
X71161905Y-110257200D01*
X71161905Y-110257200D02*
X71114286Y-110209580D01*
X71114286Y-110209580D02*
X71066667Y-110114342D01*
X71066667Y-110114342D02*
X71066667Y-109828628D01*
X71066667Y-109828628D02*
X71114286Y-109733390D01*
X71114286Y-109733390D02*
X71161905Y-109685771D01*
X71161905Y-109685771D02*
X71257143Y-109638152D01*
X71257143Y-109638152D02*
X71400000Y-109638152D01*
X71400000Y-109638152D02*
X71495238Y-109685771D01*
X71495238Y-109685771D02*
X71542857Y-109733390D01*
X71542857Y-109733390D02*
X71590476Y-109828628D01*
X71590476Y-109828628D02*
X71590476Y-110114342D01*
X71590476Y-110114342D02*
X71542857Y-110209580D01*
X71542857Y-110209580D02*
X71495238Y-110257200D01*
X71495238Y-110257200D02*
X71400000Y-110304819D01*
X71400000Y-110304819D02*
X71257143Y-110304819D01*
X72447619Y-109638152D02*
X72447619Y-110304819D01*
X72019048Y-109638152D02*
X72019048Y-110161961D01*
X72019048Y-110161961D02*
X72066667Y-110257200D01*
X72066667Y-110257200D02*
X72161905Y-110304819D01*
X72161905Y-110304819D02*
X72304762Y-110304819D01*
X72304762Y-110304819D02*
X72400000Y-110257200D01*
X72400000Y-110257200D02*
X72447619Y-110209580D01*
X72923810Y-109638152D02*
X72923810Y-110304819D01*
X72923810Y-109733390D02*
X72971429Y-109685771D01*
X72971429Y-109685771D02*
X73066667Y-109638152D01*
X73066667Y-109638152D02*
X73209524Y-109638152D01*
X73209524Y-109638152D02*
X73304762Y-109685771D01*
X73304762Y-109685771D02*
X73352381Y-109781009D01*
X73352381Y-109781009D02*
X73352381Y-110304819D01*
X73685715Y-109638152D02*
X74066667Y-109638152D01*
X73828572Y-109304819D02*
X73828572Y-110161961D01*
X73828572Y-110161961D02*
X73876191Y-110257200D01*
X73876191Y-110257200D02*
X73971429Y-110304819D01*
X73971429Y-110304819D02*
X74066667Y-110304819D01*
X121519961Y-35350457D02*
X121424723Y-35302838D01*
X121424723Y-35302838D02*
X121329485Y-35207600D01*
X121329485Y-35207600D02*
X121186628Y-35064742D01*
X121186628Y-35064742D02*
X121091390Y-35017123D01*
X121091390Y-35017123D02*
X120996152Y-35017123D01*
X121043771Y-35255219D02*
X120948533Y-35207600D01*
X120948533Y-35207600D02*
X120853295Y-35112361D01*
X120853295Y-35112361D02*
X120805676Y-34921885D01*
X120805676Y-34921885D02*
X120805676Y-34588552D01*
X120805676Y-34588552D02*
X120853295Y-34398076D01*
X120853295Y-34398076D02*
X120948533Y-34302838D01*
X120948533Y-34302838D02*
X121043771Y-34255219D01*
X121043771Y-34255219D02*
X121234247Y-34255219D01*
X121234247Y-34255219D02*
X121329485Y-34302838D01*
X121329485Y-34302838D02*
X121424723Y-34398076D01*
X121424723Y-34398076D02*
X121472342Y-34588552D01*
X121472342Y-34588552D02*
X121472342Y-34921885D01*
X121472342Y-34921885D02*
X121424723Y-35112361D01*
X121424723Y-35112361D02*
X121329485Y-35207600D01*
X121329485Y-35207600D02*
X121234247Y-35255219D01*
X121234247Y-35255219D02*
X121043771Y-35255219D01*
X121805676Y-34255219D02*
X122424723Y-34255219D01*
X122424723Y-34255219D02*
X122091390Y-34636171D01*
X122091390Y-34636171D02*
X122234247Y-34636171D01*
X122234247Y-34636171D02*
X122329485Y-34683790D01*
X122329485Y-34683790D02*
X122377104Y-34731409D01*
X122377104Y-34731409D02*
X122424723Y-34826647D01*
X122424723Y-34826647D02*
X122424723Y-35064742D01*
X122424723Y-35064742D02*
X122377104Y-35159980D01*
X122377104Y-35159980D02*
X122329485Y-35207600D01*
X122329485Y-35207600D02*
X122234247Y-35255219D01*
X122234247Y-35255219D02*
X121948533Y-35255219D01*
X121948533Y-35255219D02*
X121853295Y-35207600D01*
X121853295Y-35207600D02*
X121805676Y-35159980D01*
X117157142Y-130654819D02*
X117157142Y-129654819D01*
X117157142Y-129654819D02*
X117490475Y-130369104D01*
X117490475Y-130369104D02*
X117823808Y-129654819D01*
X117823808Y-129654819D02*
X117823808Y-130654819D01*
X118442856Y-130654819D02*
X118347618Y-130607200D01*
X118347618Y-130607200D02*
X118299999Y-130559580D01*
X118299999Y-130559580D02*
X118252380Y-130464342D01*
X118252380Y-130464342D02*
X118252380Y-130178628D01*
X118252380Y-130178628D02*
X118299999Y-130083390D01*
X118299999Y-130083390D02*
X118347618Y-130035771D01*
X118347618Y-130035771D02*
X118442856Y-129988152D01*
X118442856Y-129988152D02*
X118585713Y-129988152D01*
X118585713Y-129988152D02*
X118680951Y-130035771D01*
X118680951Y-130035771D02*
X118728570Y-130083390D01*
X118728570Y-130083390D02*
X118776189Y-130178628D01*
X118776189Y-130178628D02*
X118776189Y-130464342D01*
X118776189Y-130464342D02*
X118728570Y-130559580D01*
X118728570Y-130559580D02*
X118680951Y-130607200D01*
X118680951Y-130607200D02*
X118585713Y-130654819D01*
X118585713Y-130654819D02*
X118442856Y-130654819D01*
X119061904Y-129988152D02*
X119442856Y-129988152D01*
X119204761Y-129654819D02*
X119204761Y-130511961D01*
X119204761Y-130511961D02*
X119252380Y-130607200D01*
X119252380Y-130607200D02*
X119347618Y-130654819D01*
X119347618Y-130654819D02*
X119442856Y-130654819D01*
X119919047Y-130654819D02*
X119823809Y-130607200D01*
X119823809Y-130607200D02*
X119776190Y-130559580D01*
X119776190Y-130559580D02*
X119728571Y-130464342D01*
X119728571Y-130464342D02*
X119728571Y-130178628D01*
X119728571Y-130178628D02*
X119776190Y-130083390D01*
X119776190Y-130083390D02*
X119823809Y-130035771D01*
X119823809Y-130035771D02*
X119919047Y-129988152D01*
X119919047Y-129988152D02*
X120061904Y-129988152D01*
X120061904Y-129988152D02*
X120157142Y-130035771D01*
X120157142Y-130035771D02*
X120204761Y-130083390D01*
X120204761Y-130083390D02*
X120252380Y-130178628D01*
X120252380Y-130178628D02*
X120252380Y-130464342D01*
X120252380Y-130464342D02*
X120204761Y-130559580D01*
X120204761Y-130559580D02*
X120157142Y-130607200D01*
X120157142Y-130607200D02*
X120061904Y-130654819D01*
X120061904Y-130654819D02*
X119919047Y-130654819D01*
X120680952Y-130654819D02*
X120680952Y-129988152D01*
X120680952Y-130178628D02*
X120728571Y-130083390D01*
X120728571Y-130083390D02*
X120776190Y-130035771D01*
X120776190Y-130035771D02*
X120871428Y-129988152D01*
X120871428Y-129988152D02*
X120966666Y-129988152D01*
X122014286Y-130369104D02*
X122490476Y-130369104D01*
X121919048Y-130654819D02*
X122252381Y-129654819D01*
X122252381Y-129654819D02*
X122585714Y-130654819D01*
X109815333Y-61516419D02*
X109482000Y-61040228D01*
X109243905Y-61516419D02*
X109243905Y-60516419D01*
X109243905Y-60516419D02*
X109624857Y-60516419D01*
X109624857Y-60516419D02*
X109720095Y-60564038D01*
X109720095Y-60564038D02*
X109767714Y-60611657D01*
X109767714Y-60611657D02*
X109815333Y-60706895D01*
X109815333Y-60706895D02*
X109815333Y-60849752D01*
X109815333Y-60849752D02*
X109767714Y-60944990D01*
X109767714Y-60944990D02*
X109720095Y-60992609D01*
X109720095Y-60992609D02*
X109624857Y-61040228D01*
X109624857Y-61040228D02*
X109243905Y-61040228D01*
X110672476Y-60516419D02*
X110482000Y-60516419D01*
X110482000Y-60516419D02*
X110386762Y-60564038D01*
X110386762Y-60564038D02*
X110339143Y-60611657D01*
X110339143Y-60611657D02*
X110243905Y-60754514D01*
X110243905Y-60754514D02*
X110196286Y-60944990D01*
X110196286Y-60944990D02*
X110196286Y-61325942D01*
X110196286Y-61325942D02*
X110243905Y-61421180D01*
X110243905Y-61421180D02*
X110291524Y-61468800D01*
X110291524Y-61468800D02*
X110386762Y-61516419D01*
X110386762Y-61516419D02*
X110577238Y-61516419D01*
X110577238Y-61516419D02*
X110672476Y-61468800D01*
X110672476Y-61468800D02*
X110720095Y-61421180D01*
X110720095Y-61421180D02*
X110767714Y-61325942D01*
X110767714Y-61325942D02*
X110767714Y-61087847D01*
X110767714Y-61087847D02*
X110720095Y-60992609D01*
X110720095Y-60992609D02*
X110672476Y-60944990D01*
X110672476Y-60944990D02*
X110577238Y-60897371D01*
X110577238Y-60897371D02*
X110386762Y-60897371D01*
X110386762Y-60897371D02*
X110291524Y-60944990D01*
X110291524Y-60944990D02*
X110243905Y-60992609D01*
X110243905Y-60992609D02*
X110196286Y-61087847D01*
X133720819Y-71102457D02*
X133244628Y-71435790D01*
X133720819Y-71673885D02*
X132720819Y-71673885D01*
X132720819Y-71673885D02*
X132720819Y-71292933D01*
X132720819Y-71292933D02*
X132768438Y-71197695D01*
X132768438Y-71197695D02*
X132816057Y-71150076D01*
X132816057Y-71150076D02*
X132911295Y-71102457D01*
X132911295Y-71102457D02*
X133054152Y-71102457D01*
X133054152Y-71102457D02*
X133149390Y-71150076D01*
X133149390Y-71150076D02*
X133197009Y-71197695D01*
X133197009Y-71197695D02*
X133244628Y-71292933D01*
X133244628Y-71292933D02*
X133244628Y-71673885D01*
X133720819Y-70150076D02*
X133720819Y-70721504D01*
X133720819Y-70435790D02*
X132720819Y-70435790D01*
X132720819Y-70435790D02*
X132863676Y-70531028D01*
X132863676Y-70531028D02*
X132958914Y-70626266D01*
X132958914Y-70626266D02*
X133006533Y-70721504D01*
X132720819Y-69531028D02*
X132720819Y-69435790D01*
X132720819Y-69435790D02*
X132768438Y-69340552D01*
X132768438Y-69340552D02*
X132816057Y-69292933D01*
X132816057Y-69292933D02*
X132911295Y-69245314D01*
X132911295Y-69245314D02*
X133101771Y-69197695D01*
X133101771Y-69197695D02*
X133339866Y-69197695D01*
X133339866Y-69197695D02*
X133530342Y-69245314D01*
X133530342Y-69245314D02*
X133625580Y-69292933D01*
X133625580Y-69292933D02*
X133673200Y-69340552D01*
X133673200Y-69340552D02*
X133720819Y-69435790D01*
X133720819Y-69435790D02*
X133720819Y-69531028D01*
X133720819Y-69531028D02*
X133673200Y-69626266D01*
X133673200Y-69626266D02*
X133625580Y-69673885D01*
X133625580Y-69673885D02*
X133530342Y-69721504D01*
X133530342Y-69721504D02*
X133339866Y-69769123D01*
X133339866Y-69769123D02*
X133101771Y-69769123D01*
X133101771Y-69769123D02*
X132911295Y-69721504D01*
X132911295Y-69721504D02*
X132816057Y-69673885D01*
X132816057Y-69673885D02*
X132768438Y-69626266D01*
X132768438Y-69626266D02*
X132720819Y-69531028D01*
X92884666Y-106396419D02*
X92884666Y-107110704D01*
X92884666Y-107110704D02*
X92837047Y-107253561D01*
X92837047Y-107253561D02*
X92741809Y-107348800D01*
X92741809Y-107348800D02*
X92598952Y-107396419D01*
X92598952Y-107396419D02*
X92503714Y-107396419D01*
X93884666Y-107396419D02*
X93313238Y-107396419D01*
X93598952Y-107396419D02*
X93598952Y-106396419D01*
X93598952Y-106396419D02*
X93503714Y-106539276D01*
X93503714Y-106539276D02*
X93408476Y-106634514D01*
X93408476Y-106634514D02*
X93313238Y-106682133D01*
X64876190Y-127904819D02*
X64876190Y-126904819D01*
X64876190Y-126904819D02*
X65209523Y-127619104D01*
X65209523Y-127619104D02*
X65542856Y-126904819D01*
X65542856Y-126904819D02*
X65542856Y-127904819D01*
X66161904Y-127904819D02*
X66066666Y-127857200D01*
X66066666Y-127857200D02*
X66019047Y-127809580D01*
X66019047Y-127809580D02*
X65971428Y-127714342D01*
X65971428Y-127714342D02*
X65971428Y-127428628D01*
X65971428Y-127428628D02*
X66019047Y-127333390D01*
X66019047Y-127333390D02*
X66066666Y-127285771D01*
X66066666Y-127285771D02*
X66161904Y-127238152D01*
X66161904Y-127238152D02*
X66304761Y-127238152D01*
X66304761Y-127238152D02*
X66399999Y-127285771D01*
X66399999Y-127285771D02*
X66447618Y-127333390D01*
X66447618Y-127333390D02*
X66495237Y-127428628D01*
X66495237Y-127428628D02*
X66495237Y-127714342D01*
X66495237Y-127714342D02*
X66447618Y-127809580D01*
X66447618Y-127809580D02*
X66399999Y-127857200D01*
X66399999Y-127857200D02*
X66304761Y-127904819D01*
X66304761Y-127904819D02*
X66161904Y-127904819D01*
X66780952Y-127238152D02*
X67161904Y-127238152D01*
X66923809Y-126904819D02*
X66923809Y-127761961D01*
X66923809Y-127761961D02*
X66971428Y-127857200D01*
X66971428Y-127857200D02*
X67066666Y-127904819D01*
X67066666Y-127904819D02*
X67161904Y-127904819D01*
X67638095Y-127904819D02*
X67542857Y-127857200D01*
X67542857Y-127857200D02*
X67495238Y-127809580D01*
X67495238Y-127809580D02*
X67447619Y-127714342D01*
X67447619Y-127714342D02*
X67447619Y-127428628D01*
X67447619Y-127428628D02*
X67495238Y-127333390D01*
X67495238Y-127333390D02*
X67542857Y-127285771D01*
X67542857Y-127285771D02*
X67638095Y-127238152D01*
X67638095Y-127238152D02*
X67780952Y-127238152D01*
X67780952Y-127238152D02*
X67876190Y-127285771D01*
X67876190Y-127285771D02*
X67923809Y-127333390D01*
X67923809Y-127333390D02*
X67971428Y-127428628D01*
X67971428Y-127428628D02*
X67971428Y-127714342D01*
X67971428Y-127714342D02*
X67923809Y-127809580D01*
X67923809Y-127809580D02*
X67876190Y-127857200D01*
X67876190Y-127857200D02*
X67780952Y-127904819D01*
X67780952Y-127904819D02*
X67638095Y-127904819D01*
X68400000Y-127904819D02*
X68400000Y-127238152D01*
X68400000Y-127428628D02*
X68447619Y-127333390D01*
X68447619Y-127333390D02*
X68495238Y-127285771D01*
X68495238Y-127285771D02*
X68590476Y-127238152D01*
X68590476Y-127238152D02*
X68685714Y-127238152D01*
X69780953Y-127904819D02*
X69780953Y-127238152D01*
X69780953Y-127333390D02*
X69828572Y-127285771D01*
X69828572Y-127285771D02*
X69923810Y-127238152D01*
X69923810Y-127238152D02*
X70066667Y-127238152D01*
X70066667Y-127238152D02*
X70161905Y-127285771D01*
X70161905Y-127285771D02*
X70209524Y-127381009D01*
X70209524Y-127381009D02*
X70209524Y-127904819D01*
X70209524Y-127381009D02*
X70257143Y-127285771D01*
X70257143Y-127285771D02*
X70352381Y-127238152D01*
X70352381Y-127238152D02*
X70495238Y-127238152D01*
X70495238Y-127238152D02*
X70590477Y-127285771D01*
X70590477Y-127285771D02*
X70638096Y-127381009D01*
X70638096Y-127381009D02*
X70638096Y-127904819D01*
X71257143Y-127904819D02*
X71161905Y-127857200D01*
X71161905Y-127857200D02*
X71114286Y-127809580D01*
X71114286Y-127809580D02*
X71066667Y-127714342D01*
X71066667Y-127714342D02*
X71066667Y-127428628D01*
X71066667Y-127428628D02*
X71114286Y-127333390D01*
X71114286Y-127333390D02*
X71161905Y-127285771D01*
X71161905Y-127285771D02*
X71257143Y-127238152D01*
X71257143Y-127238152D02*
X71400000Y-127238152D01*
X71400000Y-127238152D02*
X71495238Y-127285771D01*
X71495238Y-127285771D02*
X71542857Y-127333390D01*
X71542857Y-127333390D02*
X71590476Y-127428628D01*
X71590476Y-127428628D02*
X71590476Y-127714342D01*
X71590476Y-127714342D02*
X71542857Y-127809580D01*
X71542857Y-127809580D02*
X71495238Y-127857200D01*
X71495238Y-127857200D02*
X71400000Y-127904819D01*
X71400000Y-127904819D02*
X71257143Y-127904819D01*
X72447619Y-127238152D02*
X72447619Y-127904819D01*
X72019048Y-127238152D02*
X72019048Y-127761961D01*
X72019048Y-127761961D02*
X72066667Y-127857200D01*
X72066667Y-127857200D02*
X72161905Y-127904819D01*
X72161905Y-127904819D02*
X72304762Y-127904819D01*
X72304762Y-127904819D02*
X72400000Y-127857200D01*
X72400000Y-127857200D02*
X72447619Y-127809580D01*
X72923810Y-127238152D02*
X72923810Y-127904819D01*
X72923810Y-127333390D02*
X72971429Y-127285771D01*
X72971429Y-127285771D02*
X73066667Y-127238152D01*
X73066667Y-127238152D02*
X73209524Y-127238152D01*
X73209524Y-127238152D02*
X73304762Y-127285771D01*
X73304762Y-127285771D02*
X73352381Y-127381009D01*
X73352381Y-127381009D02*
X73352381Y-127904819D01*
X73685715Y-127238152D02*
X74066667Y-127238152D01*
X73828572Y-126904819D02*
X73828572Y-127761961D01*
X73828572Y-127761961D02*
X73876191Y-127857200D01*
X73876191Y-127857200D02*
X73971429Y-127904819D01*
X73971429Y-127904819D02*
X74066667Y-127904819D01*
X114416819Y-53100266D02*
X113940628Y-53433599D01*
X114416819Y-53671694D02*
X113416819Y-53671694D01*
X113416819Y-53671694D02*
X113416819Y-53290742D01*
X113416819Y-53290742D02*
X113464438Y-53195504D01*
X113464438Y-53195504D02*
X113512057Y-53147885D01*
X113512057Y-53147885D02*
X113607295Y-53100266D01*
X113607295Y-53100266D02*
X113750152Y-53100266D01*
X113750152Y-53100266D02*
X113845390Y-53147885D01*
X113845390Y-53147885D02*
X113893009Y-53195504D01*
X113893009Y-53195504D02*
X113940628Y-53290742D01*
X113940628Y-53290742D02*
X113940628Y-53671694D01*
X113416819Y-52766932D02*
X113416819Y-52147885D01*
X113416819Y-52147885D02*
X113797771Y-52481218D01*
X113797771Y-52481218D02*
X113797771Y-52338361D01*
X113797771Y-52338361D02*
X113845390Y-52243123D01*
X113845390Y-52243123D02*
X113893009Y-52195504D01*
X113893009Y-52195504D02*
X113988247Y-52147885D01*
X113988247Y-52147885D02*
X114226342Y-52147885D01*
X114226342Y-52147885D02*
X114321580Y-52195504D01*
X114321580Y-52195504D02*
X114369200Y-52243123D01*
X114369200Y-52243123D02*
X114416819Y-52338361D01*
X114416819Y-52338361D02*
X114416819Y-52624075D01*
X114416819Y-52624075D02*
X114369200Y-52719313D01*
X114369200Y-52719313D02*
X114321580Y-52766932D01*
%TO.C,R8*%
D13*
X94080000Y-56203600D02*
X94080000Y-49663600D01*
X94080000Y-49663600D02*
X93750000Y-49663600D01*
X93750000Y-56203600D02*
X94080000Y-56203600D01*
X91670000Y-56203600D02*
X91340000Y-56203600D01*
X91340000Y-56203600D02*
X91340000Y-49663600D01*
X91340000Y-49663600D02*
X91670000Y-49663600D01*
%TO.C,R2*%
X87022000Y-49409600D02*
X87352000Y-49409600D01*
X87022000Y-55949600D02*
X87022000Y-49409600D01*
X87352000Y-55949600D02*
X87022000Y-55949600D01*
X89432000Y-55949600D02*
X89762000Y-55949600D01*
X89762000Y-49409600D02*
X89432000Y-49409600D01*
X89762000Y-55949600D02*
X89762000Y-49409600D01*
%TO.C,C2*%
X124786000Y-108590400D02*
X131246000Y-108590400D01*
X124786000Y-108630400D02*
X131246000Y-108630400D01*
X124787000Y-108550400D02*
X131245000Y-108550400D01*
X124788000Y-108510400D02*
X131244000Y-108510400D01*
X124790000Y-108470400D02*
X131242000Y-108470400D01*
X124792000Y-108430400D02*
X131240000Y-108430400D01*
X124795000Y-108390400D02*
X126976000Y-108390400D01*
X124798000Y-108350400D02*
X126976000Y-108350400D01*
X124802000Y-108310400D02*
X126976000Y-108310400D01*
X124806000Y-108270400D02*
X126976000Y-108270400D01*
X124811000Y-108230400D02*
X126976000Y-108230400D01*
X124816000Y-108190400D02*
X126976000Y-108190400D01*
X124821000Y-108150400D02*
X126976000Y-108150400D01*
X124828000Y-108110400D02*
X126976000Y-108110400D01*
X124834000Y-108070400D02*
X126976000Y-108070400D01*
X124842000Y-108030400D02*
X126976000Y-108030400D01*
X124849000Y-107990400D02*
X126976000Y-107990400D01*
X124857000Y-107950400D02*
X126976000Y-107950400D01*
X124866000Y-107910400D02*
X126976000Y-107910400D01*
X124876000Y-107870400D02*
X126976000Y-107870400D01*
X124885000Y-107830400D02*
X126976000Y-107830400D01*
X124896000Y-107790400D02*
X126976000Y-107790400D01*
X124907000Y-107750400D02*
X126976000Y-107750400D01*
X124918000Y-107710400D02*
X126976000Y-107710400D01*
X124930000Y-107670400D02*
X126976000Y-107670400D01*
X124943000Y-107630400D02*
X126976000Y-107630400D01*
X124956000Y-107590400D02*
X126976000Y-107590400D01*
X124969000Y-107550400D02*
X126976000Y-107550400D01*
X124984000Y-107510400D02*
X126976000Y-107510400D01*
X124999000Y-107470400D02*
X126976000Y-107470400D01*
X125014000Y-107430400D02*
X126976000Y-107430400D01*
X125030000Y-107390400D02*
X126976000Y-107390400D01*
X125047000Y-107350400D02*
X126976000Y-107350400D01*
X125064000Y-107310400D02*
X126976000Y-107310400D01*
X125082000Y-107270400D02*
X126976000Y-107270400D01*
X125101000Y-107230400D02*
X126976000Y-107230400D01*
X125120000Y-107190400D02*
X126976000Y-107190400D01*
X125140000Y-107150400D02*
X126976000Y-107150400D01*
X125161000Y-107110400D02*
X126976000Y-107110400D01*
X125182000Y-107070400D02*
X126976000Y-107070400D01*
X125204000Y-107030400D02*
X126976000Y-107030400D01*
X125227000Y-106990400D02*
X126976000Y-106990400D01*
X125251000Y-106950400D02*
X126976000Y-106950400D01*
X125275000Y-106910400D02*
X126976000Y-106910400D01*
X125300000Y-106870400D02*
X126976000Y-106870400D01*
X125326000Y-106830400D02*
X126976000Y-106830400D01*
X125353000Y-106790400D02*
X126976000Y-106790400D01*
X125380000Y-106750400D02*
X126976000Y-106750400D01*
X125409000Y-106710400D02*
X126976000Y-106710400D01*
X125439000Y-106670400D02*
X126976000Y-106670400D01*
X125469000Y-106630400D02*
X126976000Y-106630400D01*
X125500000Y-106590400D02*
X126976000Y-106590400D01*
X125533000Y-106550400D02*
X126976000Y-106550400D01*
X125566000Y-106510400D02*
X126976000Y-106510400D01*
X125601000Y-106470400D02*
X126976000Y-106470400D01*
X125637000Y-106430400D02*
X126976000Y-106430400D01*
X125674000Y-106390400D02*
X126976000Y-106390400D01*
X125712000Y-106350400D02*
X126976000Y-106350400D01*
X125752000Y-106310400D02*
X130280000Y-106310400D01*
X125793000Y-106270400D02*
X130239000Y-106270400D01*
X125835000Y-106230400D02*
X130197000Y-106230400D01*
X125862000Y-111815641D02*
X126492000Y-111815641D01*
X125879000Y-106190400D02*
X130153000Y-106190400D01*
X125925000Y-106150400D02*
X130107000Y-106150400D01*
X125972000Y-106110400D02*
X130060000Y-106110400D01*
X126021000Y-106070400D02*
X130011000Y-106070400D01*
X126073000Y-106030400D02*
X129959000Y-106030400D01*
X126126000Y-105990400D02*
X129906000Y-105990400D01*
X126177000Y-112130641D02*
X126177000Y-111500641D01*
X126182000Y-105950400D02*
X129850000Y-105950400D01*
X126241000Y-105910400D02*
X129791000Y-105910400D01*
X126302000Y-105870400D02*
X129730000Y-105870400D01*
X126367000Y-105830400D02*
X129665000Y-105830400D01*
X126435000Y-105790400D02*
X129597000Y-105790400D01*
X126507000Y-105750400D02*
X129525000Y-105750400D01*
X126584000Y-105710400D02*
X129448000Y-105710400D01*
X126666000Y-105670400D02*
X129366000Y-105670400D01*
X126755000Y-105630400D02*
X129277000Y-105630400D01*
X126851000Y-105590400D02*
X129181000Y-105590400D01*
X126958000Y-105550400D02*
X129074000Y-105550400D01*
X127077000Y-105510400D02*
X128955000Y-105510400D01*
X127215000Y-105470400D02*
X128817000Y-105470400D01*
X127383000Y-105430400D02*
X128649000Y-105430400D01*
X127614000Y-105390400D02*
X128418000Y-105390400D01*
X129056000Y-106350400D02*
X130320000Y-106350400D01*
X129056000Y-106390400D02*
X130358000Y-106390400D01*
X129056000Y-106430400D02*
X130395000Y-106430400D01*
X129056000Y-106470400D02*
X130431000Y-106470400D01*
X129056000Y-106510400D02*
X130466000Y-106510400D01*
X129056000Y-106550400D02*
X130499000Y-106550400D01*
X129056000Y-106590400D02*
X130532000Y-106590400D01*
X129056000Y-106630400D02*
X130563000Y-106630400D01*
X129056000Y-106670400D02*
X130593000Y-106670400D01*
X129056000Y-106710400D02*
X130623000Y-106710400D01*
X129056000Y-106750400D02*
X130652000Y-106750400D01*
X129056000Y-106790400D02*
X130679000Y-106790400D01*
X129056000Y-106830400D02*
X130706000Y-106830400D01*
X129056000Y-106870400D02*
X130732000Y-106870400D01*
X129056000Y-106910400D02*
X130757000Y-106910400D01*
X129056000Y-106950400D02*
X130781000Y-106950400D01*
X129056000Y-106990400D02*
X130805000Y-106990400D01*
X129056000Y-107030400D02*
X130828000Y-107030400D01*
X129056000Y-107070400D02*
X130850000Y-107070400D01*
X129056000Y-107110400D02*
X130871000Y-107110400D01*
X129056000Y-107150400D02*
X130892000Y-107150400D01*
X129056000Y-107190400D02*
X130912000Y-107190400D01*
X129056000Y-107230400D02*
X130931000Y-107230400D01*
X129056000Y-107270400D02*
X130950000Y-107270400D01*
X129056000Y-107310400D02*
X130968000Y-107310400D01*
X129056000Y-107350400D02*
X130985000Y-107350400D01*
X129056000Y-107390400D02*
X131002000Y-107390400D01*
X129056000Y-107430400D02*
X131018000Y-107430400D01*
X129056000Y-107470400D02*
X131033000Y-107470400D01*
X129056000Y-107510400D02*
X131048000Y-107510400D01*
X129056000Y-107550400D02*
X131063000Y-107550400D01*
X129056000Y-107590400D02*
X131076000Y-107590400D01*
X129056000Y-107630400D02*
X131089000Y-107630400D01*
X129056000Y-107670400D02*
X131102000Y-107670400D01*
X129056000Y-107710400D02*
X131114000Y-107710400D01*
X129056000Y-107750400D02*
X131125000Y-107750400D01*
X129056000Y-107790400D02*
X131136000Y-107790400D01*
X129056000Y-107830400D02*
X131147000Y-107830400D01*
X129056000Y-107870400D02*
X131156000Y-107870400D01*
X129056000Y-107910400D02*
X131166000Y-107910400D01*
X129056000Y-107950400D02*
X131175000Y-107950400D01*
X129056000Y-107990400D02*
X131183000Y-107990400D01*
X129056000Y-108030400D02*
X131190000Y-108030400D01*
X129056000Y-108070400D02*
X131198000Y-108070400D01*
X129056000Y-108110400D02*
X131204000Y-108110400D01*
X129056000Y-108150400D02*
X131211000Y-108150400D01*
X129056000Y-108190400D02*
X131216000Y-108190400D01*
X129056000Y-108230400D02*
X131221000Y-108230400D01*
X129056000Y-108270400D02*
X131226000Y-108270400D01*
X129056000Y-108310400D02*
X131230000Y-108310400D01*
X129056000Y-108350400D02*
X131234000Y-108350400D01*
X129056000Y-108390400D02*
X131237000Y-108390400D01*
X131286000Y-108630400D02*
G75*
G02*
X124746000Y-108630400I-3270000J0D01*
G01*
X124746000Y-108630400D02*
G75*
G02*
X131286000Y-108630400I3270000J0D01*
G01*
%TO.C,J14*%
X109872000Y-107941600D02*
X111252000Y-107941600D01*
X109872000Y-109321600D02*
X109872000Y-107941600D01*
X109872000Y-110591600D02*
X109872000Y-123401600D01*
X109872000Y-110591600D02*
X112632000Y-110591600D01*
X109872000Y-123401600D02*
X112632000Y-123401600D01*
X112632000Y-110591600D02*
X112632000Y-123401600D01*
%TO.C,Esp32*%
D14*
X76662800Y-76093200D02*
X76662800Y-81463200D01*
X76662800Y-76093200D02*
X127612800Y-76093200D01*
X76662800Y-76093200D02*
X127612800Y-76093200D01*
X76662800Y-81463200D02*
X76662800Y-99153200D01*
X76662800Y-99153200D02*
X76662800Y-104603200D01*
X76662800Y-104603200D02*
X76662800Y-76093200D01*
X127612800Y-76093200D02*
X127612800Y-87162200D01*
X127612800Y-76093200D02*
X127612800Y-104603200D01*
X127612800Y-87162200D02*
X127612800Y-93873200D01*
X127612800Y-93873200D02*
X127612800Y-104603200D01*
X127612800Y-104603200D02*
X76662800Y-104603200D01*
X127612800Y-104603200D02*
X76662800Y-104603200D01*
D11*
X117752800Y-75523200D02*
G75*
G02*
X117552800Y-75523200I-100000J0D01*
G01*
X117552800Y-75523200D02*
G75*
G02*
X117752800Y-75523200I100000J0D01*
G01*
%TO.C,Boost conv*%
D10*
X96201781Y-135435155D02*
X107201781Y-135435155D01*
X107201781Y-148435155D01*
X96201781Y-148435155D01*
X96201781Y-135435155D01*
X99161600Y-135839200D02*
X104267000Y-135839200D01*
X104267000Y-139369800D01*
X99161600Y-139369800D01*
X99161600Y-135839200D01*
%TO.C,R7*%
D13*
X76862000Y-65665600D02*
X77192000Y-65665600D01*
X76862000Y-72205600D02*
X76862000Y-65665600D01*
X77192000Y-72205600D02*
X76862000Y-72205600D01*
X79272000Y-72205600D02*
X79602000Y-72205600D01*
X79602000Y-65665600D02*
X79272000Y-65665600D01*
X79602000Y-72205600D02*
X79602000Y-65665600D01*
%TO.C,D2*%
X80701200Y-37215400D02*
X80701200Y-40305400D01*
X80701200Y-37215570D02*
G75*
G02*
X86251200Y-38760400I2560000J-1544830D01*
G01*
X86251200Y-38760400D02*
G75*
G02*
X80701200Y-40305230I-2990000J0D01*
G01*
X85761200Y-38760400D02*
G75*
G02*
X80761200Y-38760400I-2500000J0D01*
G01*
X80761200Y-38760400D02*
G75*
G02*
X85761200Y-38760400I2500000J0D01*
G01*
%TO.C,C1*%
X132080000Y-107365000D02*
X132080000Y-105835000D01*
X133920000Y-105835000D02*
X133920000Y-107365000D01*
%TO.C,J15*%
D14*
X102986000Y-54737600D02*
X104786000Y-54737600D01*
X104786000Y-51637600D02*
X102986000Y-51637600D01*
D11*
X101676000Y-52237600D02*
G75*
G02*
X101476000Y-52237600I-100000J0D01*
G01*
X101476000Y-52237600D02*
G75*
G02*
X101676000Y-52237600I100000J0D01*
G01*
%TO.C,Battery*%
D13*
X64016000Y-140761600D02*
X74756000Y-140761600D01*
X64016000Y-144381600D02*
X65256000Y-144381600D01*
X64016000Y-145381600D02*
X65256000Y-145381600D01*
X64016000Y-146681600D02*
X65256000Y-146681600D01*
X64016000Y-148801600D02*
X64016000Y-140761600D01*
X66836000Y-148801600D02*
X64016000Y-148801600D01*
X69016000Y-144381600D02*
X70324000Y-144381600D01*
X69016000Y-145381600D02*
X70324000Y-145381600D01*
X69016000Y-146681600D02*
X71593000Y-146681600D01*
X72679000Y-146681600D02*
X74756000Y-146681600D01*
X73948000Y-144381600D02*
X74756000Y-144381600D01*
X73948000Y-145381600D02*
X74756000Y-145381600D01*
X74756000Y-140761600D02*
X74756000Y-148801600D01*
X74756000Y-148801600D02*
X67436000Y-148801600D01*
X67136000Y-148801600D02*
X67576000Y-149411600D01*
X66696000Y-149411600D01*
X67136000Y-148801600D01*
G36*
X67576000Y-149411600D02*
G01*
X66696000Y-149411600D01*
X67136000Y-148801600D01*
X67576000Y-149411600D01*
G37*
%TO.C,C3*%
X113888000Y-116182600D02*
X113888000Y-114652600D01*
X115728000Y-114652600D02*
X115728000Y-116182600D01*
%TO.C,R4*%
X128678000Y-67443600D02*
X129008000Y-67443600D01*
X128678000Y-73983600D02*
X128678000Y-67443600D01*
X129008000Y-73983600D02*
X128678000Y-73983600D01*
X131088000Y-73983600D02*
X131418000Y-73983600D01*
X131418000Y-67443600D02*
X131088000Y-67443600D01*
X131418000Y-73983600D02*
X131418000Y-67443600D01*
%TO.C,Motor B*%
X83506000Y-115920000D02*
X83506000Y-128680000D01*
X83506000Y-115920000D02*
X86166000Y-115920000D01*
X83506000Y-128680000D02*
X86166000Y-128680000D01*
X84836000Y-113320000D02*
X86166000Y-113320000D01*
X86166000Y-113320000D02*
X86166000Y-114650000D01*
X86166000Y-115920000D02*
X86166000Y-128680000D01*
%TO.C,Q1*%
X70875301Y-52517339D02*
X73060261Y-54702299D01*
X70875421Y-52517459D02*
G75*
G02*
X75892225Y-49685375I2902554J717834D01*
G01*
X75892224Y-49685376D02*
G75*
G02*
X73060141Y-54702180I-2114248J-2114251D01*
G01*
X76277975Y-51799625D02*
G75*
G02*
X71277975Y-51799625I-2500000J0D01*
G01*
X71277975Y-51799625D02*
G75*
G02*
X76277975Y-51799625I2500000J0D01*
G01*
%TO.C,D1*%
X64525301Y-59121339D02*
X66710261Y-61306299D01*
X64525421Y-59121459D02*
G75*
G02*
X69542225Y-56289375I2902554J717834D01*
G01*
X69542224Y-56289376D02*
G75*
G02*
X66710141Y-61306180I-2114248J-2114251D01*
G01*
X69927975Y-58403625D02*
G75*
G02*
X64927975Y-58403625I-2500000J0D01*
G01*
X64927975Y-58403625D02*
G75*
G02*
X69927975Y-58403625I2500000J0D01*
G01*
%TO.C,D4*%
X130311861Y-49488501D02*
X128126901Y-51673461D01*
X130311741Y-49488621D02*
G75*
G02*
X133143825Y-54505425I717834J-2902554D01*
G01*
X133143824Y-54505424D02*
G75*
G02*
X128127020Y-51673341I-2114251J2114248D01*
G01*
X133529575Y-52391175D02*
G75*
G02*
X128529575Y-52391175I-2500000J0D01*
G01*
X128529575Y-52391175D02*
G75*
G02*
X133529575Y-52391175I2500000J0D01*
G01*
%TO.C,Switch*%
X82260000Y-139190000D02*
X82260000Y-148010000D01*
X81950000Y-139190000D02*
X82260000Y-139190000D01*
X77740000Y-139190000D02*
X78050000Y-139190000D01*
X82960000Y-141100000D02*
X82460000Y-141600000D01*
X82460000Y-141600000D02*
X82960000Y-142100000D01*
X82960000Y-142100000D02*
X82960000Y-141100000D01*
X82260000Y-148010000D02*
X81950000Y-148010000D01*
X77740000Y-148010000D02*
X77740000Y-139190000D01*
X77740000Y-148010000D02*
X78050000Y-148010000D01*
%TO.C,D3*%
X108641200Y-37215400D02*
X108641200Y-40305400D01*
X108641200Y-37215570D02*
G75*
G02*
X114191200Y-38760400I2560000J-1544830D01*
G01*
X114191200Y-38760400D02*
G75*
G02*
X108641200Y-40305230I-2990000J0D01*
G01*
X113701200Y-38760400D02*
G75*
G02*
X108701200Y-38760400I-2500000J0D01*
G01*
X108701200Y-38760400D02*
G75*
G02*
X113701200Y-38760400I2500000J0D01*
G01*
%TO.C,Q2*%
X91110200Y-37215400D02*
X91110200Y-40305400D01*
X91110200Y-37215570D02*
G75*
G02*
X96660200Y-38760400I2560000J-1544830D01*
G01*
X96660200Y-38760400D02*
G75*
G02*
X91110200Y-40305230I-2990000J0D01*
G01*
X96170200Y-38760400D02*
G75*
G02*
X91170200Y-38760400I-2500000J0D01*
G01*
X91170200Y-38760400D02*
G75*
G02*
X96170200Y-38760400I2500000J0D01*
G01*
%TO.C,R5*%
X100616000Y-66549600D02*
X107156000Y-66549600D01*
X100616000Y-66879600D02*
X100616000Y-66549600D01*
X100616000Y-68959600D02*
X100616000Y-69289600D01*
X100616000Y-69289600D02*
X107156000Y-69289600D01*
X107156000Y-66549600D02*
X107156000Y-66879600D01*
X107156000Y-69289600D02*
X107156000Y-68959600D01*
%TO.C,Q4*%
X136509461Y-55686101D02*
X134324501Y-57871061D01*
X136509341Y-55686221D02*
G75*
G02*
X139341425Y-60703025I717834J-2902554D01*
G01*
X139341424Y-60703024D02*
G75*
G02*
X134324620Y-57870941I-2114251J2114248D01*
G01*
X139727175Y-58588775D02*
G75*
G02*
X134727175Y-58588775I-2500000J0D01*
G01*
X134727175Y-58588775D02*
G75*
G02*
X139727175Y-58588775I2500000J0D01*
G01*
%TO.C,Tact Switch*%
X133710800Y-138645200D02*
X133710800Y-140145200D01*
X134960800Y-142645200D02*
X139460800Y-142645200D01*
X139460800Y-136145200D02*
X134960800Y-136145200D01*
X140710800Y-140145200D02*
X140710800Y-138645200D01*
%TO.C,R1*%
X71782000Y-65665600D02*
X72112000Y-65665600D01*
X71782000Y-72205600D02*
X71782000Y-65665600D01*
X72112000Y-72205600D02*
X71782000Y-72205600D01*
X74192000Y-72205600D02*
X74522000Y-72205600D01*
X74522000Y-65665600D02*
X74192000Y-65665600D01*
X74522000Y-72205600D02*
X74522000Y-65665600D01*
%TO.C,R9*%
X120042000Y-49409600D02*
X120372000Y-49409600D01*
X120042000Y-55949600D02*
X120042000Y-49409600D01*
X120372000Y-55949600D02*
X120042000Y-55949600D01*
X122452000Y-55949600D02*
X122782000Y-55949600D01*
X122782000Y-49409600D02*
X122452000Y-49409600D01*
X122782000Y-55949600D02*
X122782000Y-49409600D01*
%TO.C,Q3*%
X119055200Y-37215400D02*
X119055200Y-40305400D01*
X119055200Y-37215570D02*
G75*
G02*
X124605200Y-38760400I2560000J-1544830D01*
G01*
X124605200Y-38760400D02*
G75*
G02*
X119055200Y-40305230I-2990000J0D01*
G01*
X124115200Y-38760400D02*
G75*
G02*
X119115200Y-38760400I-2500000J0D01*
G01*
X119115200Y-38760400D02*
G75*
G02*
X124115200Y-38760400I2500000J0D01*
G01*
%TO.C,Motor A*%
X118558000Y-115920000D02*
X118558000Y-128680000D01*
X118558000Y-115920000D02*
X121218000Y-115920000D01*
X118558000Y-128680000D02*
X121218000Y-128680000D01*
X119888000Y-113320000D02*
X121218000Y-113320000D01*
X121218000Y-113320000D02*
X121218000Y-114650000D01*
X121218000Y-115920000D02*
X121218000Y-128680000D01*
%TO.C,R6*%
X100616000Y-59691600D02*
X107156000Y-59691600D01*
X100616000Y-60021600D02*
X100616000Y-59691600D01*
X100616000Y-62101600D02*
X100616000Y-62431600D01*
X100616000Y-62431600D02*
X107156000Y-62431600D01*
X107156000Y-59691600D02*
X107156000Y-60021600D01*
X107156000Y-62431600D02*
X107156000Y-62101600D01*
%TO.C,R10*%
X134266000Y-67189600D02*
X134596000Y-67189600D01*
X134266000Y-73729600D02*
X134266000Y-67189600D01*
X134596000Y-73729600D02*
X134266000Y-73729600D01*
X136676000Y-73729600D02*
X137006000Y-73729600D01*
X137006000Y-67189600D02*
X136676000Y-67189600D01*
X137006000Y-73729600D02*
X137006000Y-67189600D01*
%TO.C,J1*%
X91838000Y-107941600D02*
X93218000Y-107941600D01*
X91838000Y-109321600D02*
X91838000Y-107941600D01*
X91838000Y-110591600D02*
X91838000Y-123401600D01*
X91838000Y-110591600D02*
X94598000Y-110591600D01*
X91838000Y-123401600D02*
X94598000Y-123401600D01*
X94598000Y-110591600D02*
X94598000Y-123401600D01*
%TO.C,R3*%
X114962000Y-49663600D02*
X115292000Y-49663600D01*
X114962000Y-56203600D02*
X114962000Y-49663600D01*
X115292000Y-56203600D02*
X114962000Y-56203600D01*
X117372000Y-56203600D02*
X117702000Y-56203600D01*
X117702000Y-49663600D02*
X117372000Y-49663600D01*
X117702000Y-56203600D02*
X117702000Y-49663600D01*
%TD*%
M02*
