M48
; DRILL file KiCad 10.0.3 date 2026-07-15T11:01:55
; FORMAT={-:-/ absolute / metric / decimal}
; #@! TF.CreationDate,2026-07-15T11:01:55+05:30
; #@! TF.GenerationSoftware,Kicad,Pcbnew,10.0.3
; #@! TF.FileFunction,Plated,1,2,PTH
FMAT,2
METRIC
; #@! TA.AperFunction,Plated,PTH,ViaDrill
T1C0.300
; #@! TA.AperFunction,Plated,PTH,ComponentDrill
T2C0.800
; #@! TA.AperFunction,Plated,PTH,ComponentDrill
T3C0.900
; #@! TA.AperFunction,Plated,PTH,ComponentDrill
T4C1.000
; #@! TA.AperFunction,Plated,PTH,ComponentDrill
T5C1.020
; #@! TA.AperFunction,Plated,PTH,ComponentDrill
T6C1.100
; #@! TA.AperFunction,Plated,PTH,ComponentDrill
T7C1.300
; #@! TA.AperFunction,Plated,PTH,ComponentDrill
T8C1.500
%
G90
G05
T1
X91.186Y-113.64
X92.659Y-70.104
X97.892Y-58.572
X104.999Y-107.63
X105.054Y-109.228
X105.054Y-108.428
X105.081Y-110.027
X109.779Y-62.586
X113.919Y-60.985
X119.431Y-69.24
X120.447Y-67.92
X128.168Y-61.214
X130.505Y-83.261
T2
X67.124Y-134.68
X69.124Y-134.68
X71.124Y-134.68
X73.152Y-65.126
X73.152Y-72.746
X78.232Y-65.126
X78.232Y-72.746
X88.392Y-48.87
X88.392Y-56.49
X92.71Y-49.124
X92.71Y-56.744
X100.076Y-61.062
X100.076Y-67.92
X107.696Y-61.062
X107.696Y-67.92
X114.808Y-114.168
X114.808Y-116.668
X116.332Y-49.124
X116.332Y-56.744
X121.412Y-48.87
X121.412Y-56.49
X128.016Y-107.38
X128.016Y-109.88
X130.048Y-66.904
X130.048Y-74.524
X133.096Y-106.629
X133.096Y-109.129
X135.636Y-66.65
X135.636Y-74.27
T3
X66.53Y-59.302
X68.326Y-57.506
X72.88Y-52.698
X74.676Y-50.902
X81.991Y-38.76
X84.531Y-38.76
X92.4Y-38.76
X94.94Y-38.76
X109.931Y-38.76
X112.471Y-38.76
X120.345Y-38.76
X122.885Y-38.76
X130.132Y-51.493
X131.928Y-53.289
X136.329Y-57.691
X138.125Y-59.487
T4
X84.836Y-114.65
X84.836Y-117.19
X84.836Y-119.73
X84.836Y-122.27
X84.836Y-124.81
X84.836Y-127.35
X93.218Y-109.322
X93.218Y-111.862
X93.218Y-114.402
X93.218Y-116.942
X93.218Y-119.482
X93.218Y-122.022
X111.252Y-109.322
X111.252Y-111.862
X111.252Y-114.402
X111.252Y-116.942
X111.252Y-119.482
X111.252Y-122.022
X119.888Y-114.65
X119.888Y-117.19
X119.888Y-119.73
X119.888Y-122.27
X119.888Y-124.81
X119.888Y-127.35
T5
X82.093Y-77.673
X82.093Y-103.073
X84.633Y-77.673
X84.633Y-103.073
X87.173Y-77.673
X87.173Y-103.073
X89.713Y-77.673
X89.713Y-103.073
X92.253Y-77.673
X92.253Y-103.073
X94.793Y-77.673
X94.793Y-103.073
X97.333Y-77.673
X97.333Y-103.073
X97.892Y-137.566
X99.873Y-77.673
X99.873Y-103.073
X100.432Y-137.566
X102.413Y-77.673
X102.413Y-103.073
X102.972Y-137.566
X104.953Y-77.673
X104.953Y-103.073
X105.512Y-137.566
X107.493Y-77.673
X107.493Y-103.073
X110.033Y-77.673
X110.033Y-103.073
X112.573Y-77.673
X112.573Y-103.073
X115.113Y-77.673
X115.113Y-103.073
X117.653Y-77.673
X117.653Y-103.073
T6
X133.961Y-137.145
X133.961Y-141.645
X140.461Y-137.145
X140.461Y-141.645
T7
X67.136Y-144.882
X72.136Y-144.882
T8
X65.024Y-134.68
X73.224Y-134.68
M30
