ISO-10303-21;
HEADER;
/* Generated by software containing ST-Developer
 * from STEP Tools, Inc. (www.steptools.com) 
 */

FILE_DESCRIPTION(
/* description */ (''),
/* implementation_level */ '2;1');

FILE_NAME(
/* name */ 'Motor mount GA12 N20.stp',
/* time_stamp */ '2025-11-16T21:15:15+07:00',
/* author */ ('quang'),
/* organization */ (''),
/* preprocessor_version */ 'ST-DEVELOPER v20',
/* originating_system */ 'Autodesk Inventor 2024',
/* authorisation */ '');

FILE_SCHEMA (('AUTOMOTIVE_DESIGN { 1 0 10303 214 3 1 1 }'));
ENDSEC;

DATA;
#10=MECHANICAL_DESIGN_GEOMETRIC_PRESENTATION_REPRESENTATION('',(#672,#673,
#674,#675,#676,#677,#678,#679,#680,#681,#682,#683,#684,#685,#686,#687,#688,
#689,#690,#691,#692,#693,#694,#695,#696,#697,#698,#699,#700,#701,#702,#703,
#704,#705,#706),#1204);
#11=SHAPE_REPRESENTATION_RELATIONSHIP('SRR','None',#1211,#12);
#12=ADVANCED_BREP_SHAPE_REPRESENTATION('',(#13),#1203);
#13=MANIFOLD_SOLID_BREP('Solid1',#741);
#14=CIRCLE('',#768,4.25);
#15=CIRCLE('',#769,4.25);
#16=CIRCLE('',#772,1.);
#17=CIRCLE('',#773,1.);
#18=CIRCLE('',#780,4.25);
#19=CIRCLE('',#781,4.25);
#20=CIRCLE('',#784,1.);
#21=CIRCLE('',#785,1.);
#22=CIRCLE('',#797,2.);
#23=CIRCLE('',#798,2.);
#24=CIRCLE('',#801,2.);
#25=CIRCLE('',#802,2.);
#26=CIRCLE('',#806,1.);
#27=CIRCLE('',#807,1.);
#28=CIRCLE('',#810,1.);
#29=CIRCLE('',#811,1.);
#30=CYLINDRICAL_SURFACE('',#767,4.25);
#31=CYLINDRICAL_SURFACE('',#771,1.);
#32=CYLINDRICAL_SURFACE('',#779,4.25);
#33=CYLINDRICAL_SURFACE('',#783,1.);
#34=CYLINDRICAL_SURFACE('',#796,2.);
#35=CYLINDRICAL_SURFACE('',#800,2.);
#36=CYLINDRICAL_SURFACE('',#805,1.);
#37=CYLINDRICAL_SURFACE('',#809,1.);
#38=FACE_OUTER_BOUND('',#72,.T.);
#39=FACE_OUTER_BOUND('',#73,.T.);
#40=FACE_OUTER_BOUND('',#74,.T.);
#41=FACE_OUTER_BOUND('',#75,.T.);
#42=FACE_OUTER_BOUND('',#76,.T.);
#43=FACE_OUTER_BOUND('',#77,.T.);
#44=FACE_OUTER_BOUND('',#78,.T.);
#45=FACE_OUTER_BOUND('',#79,.T.);
#46=FACE_OUTER_BOUND('',#80,.T.);
#47=FACE_OUTER_BOUND('',#81,.T.);
#48=FACE_OUTER_BOUND('',#82,.T.);
#49=FACE_OUTER_BOUND('',#83,.T.);
#50=FACE_OUTER_BOUND('',#84,.T.);
#51=FACE_OUTER_BOUND('',#85,.T.);
#52=FACE_OUTER_BOUND('',#86,.T.);
#53=FACE_OUTER_BOUND('',#87,.T.);
#54=FACE_OUTER_BOUND('',#88,.T.);
#55=FACE_OUTER_BOUND('',#89,.T.);
#56=FACE_OUTER_BOUND('',#90,.T.);
#57=FACE_OUTER_BOUND('',#91,.T.);
#58=FACE_OUTER_BOUND('',#92,.T.);
#59=FACE_OUTER_BOUND('',#93,.T.);
#60=FACE_OUTER_BOUND('',#94,.T.);
#61=FACE_OUTER_BOUND('',#95,.T.);
#62=FACE_OUTER_BOUND('',#96,.T.);
#63=FACE_OUTER_BOUND('',#97,.T.);
#64=FACE_OUTER_BOUND('',#98,.T.);
#65=FACE_OUTER_BOUND('',#99,.T.);
#66=FACE_OUTER_BOUND('',#100,.T.);
#67=FACE_OUTER_BOUND('',#101,.T.);
#68=FACE_OUTER_BOUND('',#102,.T.);
#69=FACE_OUTER_BOUND('',#103,.T.);
#70=FACE_OUTER_BOUND('',#104,.T.);
#71=FACE_OUTER_BOUND('',#105,.T.);
#72=EDGE_LOOP('',(#442,#443,#444,#445));
#73=EDGE_LOOP('',(#446,#447,#448,#449));
#74=EDGE_LOOP('',(#450,#451,#452,#453));
#75=EDGE_LOOP('',(#454,#455,#456,#457));
#76=EDGE_LOOP('',(#458,#459,#460,#461));
#77=EDGE_LOOP('',(#462,#463,#464,#465));
#78=EDGE_LOOP('',(#466,#467,#468,#469,#470,#471,#472,#473));
#79=EDGE_LOOP('',(#474,#475,#476,#477,#478,#479,#480,#481,#482,#483));
#80=EDGE_LOOP('',(#484,#485,#486,#487));
#81=EDGE_LOOP('',(#488,#489,#490,#491));
#82=EDGE_LOOP('',(#492,#493,#494,#495));
#83=EDGE_LOOP('',(#496,#497,#498,#499));
#84=EDGE_LOOP('',(#500,#501,#502,#503));
#85=EDGE_LOOP('',(#504,#505,#506,#507));
#86=EDGE_LOOP('',(#508,#509,#510,#511,#512,#513,#514,#515));
#87=EDGE_LOOP('',(#516,#517,#518,#519));
#88=EDGE_LOOP('',(#520,#521,#522,#523));
#89=EDGE_LOOP('',(#524,#525,#526,#527,#528,#529));
#90=EDGE_LOOP('',(#530,#531,#532,#533));
#91=EDGE_LOOP('',(#534,#535,#536,#537));
#92=EDGE_LOOP('',(#538,#539,#540,#541,#542,#543));
#93=EDGE_LOOP('',(#544,#545,#546,#547,#548,#549,#550,#551,#552,#553,#554,
#555,#556));
#94=EDGE_LOOP('',(#557,#558,#559,#560,#561,#562,#563,#564,#565,#566));
#95=EDGE_LOOP('',(#567,#568,#569,#570,#571,#572,#573,#574));
#96=EDGE_LOOP('',(#575,#576,#577,#578));
#97=EDGE_LOOP('',(#579,#580,#581,#582));
#98=EDGE_LOOP('',(#583,#584,#585,#586));
#99=EDGE_LOOP('',(#587,#588,#589,#590,#591,#592,#593,#594));
#100=EDGE_LOOP('',(#595,#596,#597,#598,#599,#600,#601,#602,#603,#604,#605,
#606,#607));
#101=EDGE_LOOP('',(#608,#609,#610,#611));
#102=EDGE_LOOP('',(#612,#613,#614,#615));
#103=EDGE_LOOP('',(#616,#617,#618,#619));
#104=EDGE_LOOP('',(#620,#621,#622,#623,#624,#625,#626,#627,#628,#629,#630,
#631,#632,#633));
#105=EDGE_LOOP('',(#634,#635,#636,#637,#638,#639,#640,#641,#642,#643,#644,
#645));
#106=LINE('',#1006,#192);
#107=LINE('',#1008,#193);
#108=LINE('',#1010,#194);
#109=LINE('',#1011,#195);
#110=LINE('',#1015,#196);
#111=LINE('',#1017,#197);
#112=LINE('',#1019,#198);
#113=LINE('',#1020,#199);
#114=LINE('',#1023,#200);
#115=LINE('',#1025,#201);
#116=LINE('',#1026,#202);
#117=LINE('',#1032,#203);
#118=LINE('',#1035,#204);
#119=LINE('',#1038,#205);
#120=LINE('',#1040,#206);
#121=LINE('',#1041,#207);
#122=LINE('',#1046,#208);
#123=LINE('',#1047,#209);
#124=LINE('',#1049,#210);
#125=LINE('',#1050,#211);
#126=LINE('',#1051,#212);
#127=LINE('',#1053,#213);
#128=LINE('',#1055,#214);
#129=LINE('',#1057,#215);
#130=LINE('',#1058,#216);
#131=LINE('',#1062,#217);
#132=LINE('',#1064,#218);
#133=LINE('',#1066,#219);
#134=LINE('',#1067,#220);
#135=LINE('',#1071,#221);
#136=LINE('',#1073,#222);
#137=LINE('',#1075,#223);
#138=LINE('',#1076,#224);
#139=LINE('',#1079,#225);
#140=LINE('',#1081,#226);
#141=LINE('',#1082,#227);
#142=LINE('',#1088,#228);
#143=LINE('',#1091,#229);
#144=LINE('',#1094,#230);
#145=LINE('',#1096,#231);
#146=LINE('',#1097,#232);
#147=LINE('',#1102,#233);
#148=LINE('',#1103,#234);
#149=LINE('',#1106,#235);
#150=LINE('',#1108,#236);
#151=LINE('',#1109,#237);
#152=LINE('',#1112,#238);
#153=LINE('',#1114,#239);
#154=LINE('',#1115,#240);
#155=LINE('',#1117,#241);
#156=LINE('',#1120,#242);
#157=LINE('',#1122,#243);
#158=LINE('',#1123,#244);
#159=LINE('',#1126,#245);
#160=LINE('',#1128,#246);
#161=LINE('',#1129,#247);
#162=LINE('',#1131,#248);
#163=LINE('',#1132,#249);
#164=LINE('',#1133,#250);
#165=LINE('',#1134,#251);
#166=LINE('',#1137,#252);
#167=LINE('',#1138,#253);
#168=LINE('',#1140,#254);
#169=LINE('',#1142,#255);
#170=LINE('',#1143,#256);
#171=LINE('',#1146,#257);
#172=LINE('',#1148,#258);
#173=LINE('',#1149,#259);
#174=LINE('',#1152,#260);
#175=LINE('',#1154,#261);
#176=LINE('',#1155,#262);
#177=LINE('',#1161,#263);
#178=LINE('',#1164,#264);
#179=LINE('',#1166,#265);
#180=LINE('',#1167,#266);
#181=LINE('',#1173,#267);
#182=LINE('',#1176,#268);
#183=LINE('',#1177,#269);
#184=LINE('',#1179,#270);
#185=LINE('',#1180,#271);
#186=LINE('',#1182,#272);
#187=LINE('',#1183,#273);
#188=LINE('',#1189,#274);
#189=LINE('',#1192,#275);
#190=LINE('',#1194,#276);
#191=LINE('',#1195,#277);
#192=VECTOR('',#818,10.);
#193=VECTOR('',#819,10.);
#194=VECTOR('',#820,10.);
#195=VECTOR('',#821,10.);
#196=VECTOR('',#824,10.);
#197=VECTOR('',#825,10.);
#198=VECTOR('',#826,10.);
#199=VECTOR('',#827,10.);
#200=VECTOR('',#830,10.);
#201=VECTOR('',#831,10.);
#202=VECTOR('',#832,10.);
#203=VECTOR('',#837,10.);
#204=VECTOR('',#840,10.);
#205=VECTOR('',#843,10.);
#206=VECTOR('',#844,10.);
#207=VECTOR('',#845,10.);
#208=VECTOR('',#854,10.);
#209=VECTOR('',#855,10.);
#210=VECTOR('',#858,10.);
#211=VECTOR('',#859,10.);
#212=VECTOR('',#860,10.);
#213=VECTOR('',#861,10.);
#214=VECTOR('',#862,10.);
#215=VECTOR('',#863,10.);
#216=VECTOR('',#864,10.);
#217=VECTOR('',#867,10.);
#218=VECTOR('',#868,10.);
#219=VECTOR('',#869,10.);
#220=VECTOR('',#870,10.);
#221=VECTOR('',#873,10.);
#222=VECTOR('',#874,10.);
#223=VECTOR('',#875,10.);
#224=VECTOR('',#876,10.);
#225=VECTOR('',#879,10.);
#226=VECTOR('',#880,10.);
#227=VECTOR('',#881,10.);
#228=VECTOR('',#886,10.);
#229=VECTOR('',#889,10.);
#230=VECTOR('',#892,10.);
#231=VECTOR('',#893,10.);
#232=VECTOR('',#894,10.);
#233=VECTOR('',#903,10.);
#234=VECTOR('',#904,10.);
#235=VECTOR('',#907,10.);
#236=VECTOR('',#908,10.);
#237=VECTOR('',#909,10.);
#238=VECTOR('',#912,10.);
#239=VECTOR('',#913,10.);
#240=VECTOR('',#914,10.);
#241=VECTOR('',#917,10.);
#242=VECTOR('',#920,10.);
#243=VECTOR('',#921,10.);
#244=VECTOR('',#922,10.);
#245=VECTOR('',#925,10.);
#246=VECTOR('',#926,10.);
#247=VECTOR('',#927,10.);
#248=VECTOR('',#930,10.);
#249=VECTOR('',#931,10.);
#250=VECTOR('',#932,10.);
#251=VECTOR('',#933,10.);
#252=VECTOR('',#936,10.);
#253=VECTOR('',#937,10.);
#254=VECTOR('',#938,10.);
#255=VECTOR('',#939,10.);
#256=VECTOR('',#940,10.);
#257=VECTOR('',#943,10.);
#258=VECTOR('',#944,10.);
#259=VECTOR('',#945,10.);
#260=VECTOR('',#948,10.);
#261=VECTOR('',#949,10.);
#262=VECTOR('',#950,10.);
#263=VECTOR('',#957,10.);
#264=VECTOR('',#960,10.);
#265=VECTOR('',#961,10.);
#266=VECTOR('',#962,10.);
#267=VECTOR('',#969,10.);
#268=VECTOR('',#972,10.);
#269=VECTOR('',#973,10.);
#270=VECTOR('',#974,10.);
#271=VECTOR('',#975,10.);
#272=VECTOR('',#978,10.);
#273=VECTOR('',#979,10.);
#274=VECTOR('',#986,10.);
#275=VECTOR('',#989,10.);
#276=VECTOR('',#990,10.);
#277=VECTOR('',#991,10.);
#278=VERTEX_POINT('',#1004);
#279=VERTEX_POINT('',#1005);
#280=VERTEX_POINT('',#1007);
#281=VERTEX_POINT('',#1009);
#282=VERTEX_POINT('',#1013);
#283=VERTEX_POINT('',#1014);
#284=VERTEX_POINT('',#1016);
#285=VERTEX_POINT('',#1018);
#286=VERTEX_POINT('',#1022);
#287=VERTEX_POINT('',#1024);
#288=VERTEX_POINT('',#1028);
#289=VERTEX_POINT('',#1029);
#290=VERTEX_POINT('',#1031);
#291=VERTEX_POINT('',#1033);
#292=VERTEX_POINT('',#1037);
#293=VERTEX_POINT('',#1039);
#294=VERTEX_POINT('',#1052);
#295=VERTEX_POINT('',#1054);
#296=VERTEX_POINT('',#1056);
#297=VERTEX_POINT('',#1060);
#298=VERTEX_POINT('',#1061);
#299=VERTEX_POINT('',#1063);
#300=VERTEX_POINT('',#1065);
#301=VERTEX_POINT('',#1069);
#302=VERTEX_POINT('',#1070);
#303=VERTEX_POINT('',#1072);
#304=VERTEX_POINT('',#1074);
#305=VERTEX_POINT('',#1078);
#306=VERTEX_POINT('',#1080);
#307=VERTEX_POINT('',#1084);
#308=VERTEX_POINT('',#1085);
#309=VERTEX_POINT('',#1087);
#310=VERTEX_POINT('',#1089);
#311=VERTEX_POINT('',#1093);
#312=VERTEX_POINT('',#1095);
#313=VERTEX_POINT('',#1105);
#314=VERTEX_POINT('',#1107);
#315=VERTEX_POINT('',#1111);
#316=VERTEX_POINT('',#1113);
#317=VERTEX_POINT('',#1119);
#318=VERTEX_POINT('',#1121);
#319=VERTEX_POINT('',#1125);
#320=VERTEX_POINT('',#1127);
#321=VERTEX_POINT('',#1136);
#322=VERTEX_POINT('',#1139);
#323=VERTEX_POINT('',#1141);
#324=VERTEX_POINT('',#1145);
#325=VERTEX_POINT('',#1147);
#326=VERTEX_POINT('',#1151);
#327=VERTEX_POINT('',#1153);
#328=VERTEX_POINT('',#1157);
#329=VERTEX_POINT('',#1159);
#330=VERTEX_POINT('',#1163);
#331=VERTEX_POINT('',#1165);
#332=VERTEX_POINT('',#1169);
#333=VERTEX_POINT('',#1171);
#334=VERTEX_POINT('',#1175);
#335=VERTEX_POINT('',#1178);
#336=VERTEX_POINT('',#1185);
#337=VERTEX_POINT('',#1187);
#338=VERTEX_POINT('',#1191);
#339=VERTEX_POINT('',#1193);
#340=EDGE_CURVE('',#278,#279,#106,.T.);
#341=EDGE_CURVE('',#279,#280,#107,.T.);
#342=EDGE_CURVE('',#281,#280,#108,.T.);
#343=EDGE_CURVE('',#281,#278,#109,.T.);
#344=EDGE_CURVE('',#282,#283,#110,.T.);
#345=EDGE_CURVE('',#283,#284,#111,.T.);
#346=EDGE_CURVE('',#284,#285,#112,.T.);
#347=EDGE_CURVE('',#285,#282,#113,.T.);
#348=EDGE_CURVE('',#286,#281,#114,.T.);
#349=EDGE_CURVE('',#280,#287,#115,.T.);
#350=EDGE_CURVE('',#286,#287,#116,.T.);
#351=EDGE_CURVE('',#288,#289,#14,.T.);
#352=EDGE_CURVE('',#290,#289,#117,.T.);
#353=EDGE_CURVE('',#290,#291,#15,.T.);
#354=EDGE_CURVE('',#288,#291,#118,.T.);
#355=EDGE_CURVE('',#284,#292,#119,.T.);
#356=EDGE_CURVE('',#292,#293,#120,.T.);
#357=EDGE_CURVE('',#293,#285,#121,.T.);
#358=EDGE_CURVE('',#292,#286,#16,.T.);
#359=EDGE_CURVE('',#287,#293,#17,.T.);
#360=EDGE_CURVE('',#291,#279,#122,.T.);
#361=EDGE_CURVE('',#282,#290,#123,.T.);
#362=EDGE_CURVE('',#279,#280,#124,.T.);
#363=EDGE_CURVE('',#280,#285,#125,.T.);
#364=EDGE_CURVE('',#285,#282,#126,.T.);
#365=EDGE_CURVE('',#289,#294,#127,.T.);
#366=EDGE_CURVE('',#295,#294,#128,.T.);
#367=EDGE_CURVE('',#296,#295,#129,.T.);
#368=EDGE_CURVE('',#291,#296,#130,.T.);
#369=EDGE_CURVE('',#297,#298,#131,.T.);
#370=EDGE_CURVE('',#299,#298,#132,.T.);
#371=EDGE_CURVE('',#299,#300,#133,.T.);
#372=EDGE_CURVE('',#300,#297,#134,.T.);
#373=EDGE_CURVE('',#301,#302,#135,.T.);
#374=EDGE_CURVE('',#302,#303,#136,.T.);
#375=EDGE_CURVE('',#304,#303,#137,.T.);
#376=EDGE_CURVE('',#301,#304,#138,.T.);
#377=EDGE_CURVE('',#305,#299,#139,.T.);
#378=EDGE_CURVE('',#305,#306,#140,.T.);
#379=EDGE_CURVE('',#300,#306,#141,.T.);
#380=EDGE_CURVE('',#307,#308,#18,.T.);
#381=EDGE_CURVE('',#309,#307,#142,.T.);
#382=EDGE_CURVE('',#310,#309,#19,.T.);
#383=EDGE_CURVE('',#308,#310,#143,.T.);
#384=EDGE_CURVE('',#304,#311,#144,.T.);
#385=EDGE_CURVE('',#312,#303,#145,.T.);
#386=EDGE_CURVE('',#311,#312,#146,.T.);
#387=EDGE_CURVE('',#311,#305,#20,.T.);
#388=EDGE_CURVE('',#306,#312,#21,.T.);
#389=EDGE_CURVE('',#310,#302,#147,.T.);
#390=EDGE_CURVE('',#297,#309,#148,.T.);
#391=EDGE_CURVE('',#283,#313,#149,.T.);
#392=EDGE_CURVE('',#282,#314,#150,.T.);
#393=EDGE_CURVE('',#313,#314,#151,.T.);
#394=EDGE_CURVE('',#315,#278,#152,.T.);
#395=EDGE_CURVE('',#316,#315,#153,.T.);
#396=EDGE_CURVE('',#316,#279,#154,.T.);
#397=EDGE_CURVE('',#314,#316,#155,.T.);
#398=EDGE_CURVE('',#298,#317,#156,.T.);
#399=EDGE_CURVE('',#297,#318,#157,.T.);
#400=EDGE_CURVE('',#317,#318,#158,.T.);
#401=EDGE_CURVE('',#319,#301,#159,.T.);
#402=EDGE_CURVE('',#320,#319,#160,.T.);
#403=EDGE_CURVE('',#320,#302,#161,.T.);
#404=EDGE_CURVE('',#318,#320,#162,.T.);
#405=EDGE_CURVE('',#300,#297,#163,.T.);
#406=EDGE_CURVE('',#303,#300,#164,.T.);
#407=EDGE_CURVE('',#302,#303,#165,.T.);
#408=EDGE_CURVE('',#321,#317,#166,.T.);
#409=EDGE_CURVE('',#307,#321,#167,.T.);
#410=EDGE_CURVE('',#308,#322,#168,.T.);
#411=EDGE_CURVE('',#323,#322,#169,.T.);
#412=EDGE_CURVE('',#319,#323,#170,.T.);
#413=EDGE_CURVE('',#324,#309,#171,.T.);
#414=EDGE_CURVE('',#324,#325,#172,.T.);
#415=EDGE_CURVE('',#322,#325,#173,.T.);
#416=EDGE_CURVE('',#326,#323,#174,.T.);
#417=EDGE_CURVE('',#327,#326,#175,.T.);
#418=EDGE_CURVE('',#321,#327,#176,.T.);
#419=EDGE_CURVE('',#327,#328,#22,.T.);
#420=EDGE_CURVE('',#329,#326,#23,.T.);
#421=EDGE_CURVE('',#328,#329,#177,.T.);
#422=EDGE_CURVE('',#328,#330,#178,.T.);
#423=EDGE_CURVE('',#331,#329,#179,.T.);
#424=EDGE_CURVE('',#330,#331,#180,.T.);
#425=EDGE_CURVE('',#330,#332,#24,.T.);
#426=EDGE_CURVE('',#333,#331,#25,.T.);
#427=EDGE_CURVE('',#332,#333,#181,.T.);
#428=EDGE_CURVE('',#334,#315,#182,.T.);
#429=EDGE_CURVE('',#332,#334,#183,.T.);
#430=EDGE_CURVE('',#335,#333,#184,.T.);
#431=EDGE_CURVE('',#313,#335,#185,.T.);
#432=EDGE_CURVE('',#294,#335,#186,.T.);
#433=EDGE_CURVE('',#334,#288,#187,.T.);
#434=EDGE_CURVE('',#296,#336,#26,.T.);
#435=EDGE_CURVE('',#337,#295,#27,.T.);
#436=EDGE_CURVE('',#336,#337,#188,.T.);
#437=EDGE_CURVE('',#336,#338,#189,.T.);
#438=EDGE_CURVE('',#339,#337,#190,.T.);
#439=EDGE_CURVE('',#338,#339,#191,.T.);
#440=EDGE_CURVE('',#338,#324,#28,.T.);
#441=EDGE_CURVE('',#325,#339,#29,.T.);
#442=ORIENTED_EDGE('',*,*,#340,.T.);
#443=ORIENTED_EDGE('',*,*,#341,.T.);
#444=ORIENTED_EDGE('',*,*,#342,.F.);
#445=ORIENTED_EDGE('',*,*,#343,.T.);
#446=ORIENTED_EDGE('',*,*,#344,.T.);
#447=ORIENTED_EDGE('',*,*,#345,.T.);
#448=ORIENTED_EDGE('',*,*,#346,.T.);
#449=ORIENTED_EDGE('',*,*,#347,.T.);
#450=ORIENTED_EDGE('',*,*,#348,.T.);
#451=ORIENTED_EDGE('',*,*,#342,.T.);
#452=ORIENTED_EDGE('',*,*,#349,.T.);
#453=ORIENTED_EDGE('',*,*,#350,.F.);
#454=ORIENTED_EDGE('',*,*,#351,.T.);
#455=ORIENTED_EDGE('',*,*,#352,.F.);
#456=ORIENTED_EDGE('',*,*,#353,.T.);
#457=ORIENTED_EDGE('',*,*,#354,.F.);
#458=ORIENTED_EDGE('',*,*,#355,.T.);
#459=ORIENTED_EDGE('',*,*,#356,.T.);
#460=ORIENTED_EDGE('',*,*,#357,.T.);
#461=ORIENTED_EDGE('',*,*,#346,.F.);
#462=ORIENTED_EDGE('',*,*,#358,.T.);
#463=ORIENTED_EDGE('',*,*,#350,.T.);
#464=ORIENTED_EDGE('',*,*,#359,.T.);
#465=ORIENTED_EDGE('',*,*,#356,.F.);
#466=ORIENTED_EDGE('',*,*,#359,.F.);
#467=ORIENTED_EDGE('',*,*,#349,.F.);
#468=ORIENTED_EDGE('',*,*,#341,.F.);
#469=ORIENTED_EDGE('',*,*,#360,.F.);
#470=ORIENTED_EDGE('',*,*,#353,.F.);
#471=ORIENTED_EDGE('',*,*,#361,.F.);
#472=ORIENTED_EDGE('',*,*,#347,.F.);
#473=ORIENTED_EDGE('',*,*,#357,.F.);
#474=ORIENTED_EDGE('',*,*,#360,.T.);
#475=ORIENTED_EDGE('',*,*,#362,.T.);
#476=ORIENTED_EDGE('',*,*,#363,.T.);
#477=ORIENTED_EDGE('',*,*,#364,.T.);
#478=ORIENTED_EDGE('',*,*,#361,.T.);
#479=ORIENTED_EDGE('',*,*,#352,.T.);
#480=ORIENTED_EDGE('',*,*,#365,.T.);
#481=ORIENTED_EDGE('',*,*,#366,.F.);
#482=ORIENTED_EDGE('',*,*,#367,.F.);
#483=ORIENTED_EDGE('',*,*,#368,.F.);
#484=ORIENTED_EDGE('',*,*,#369,.T.);
#485=ORIENTED_EDGE('',*,*,#370,.F.);
#486=ORIENTED_EDGE('',*,*,#371,.T.);
#487=ORIENTED_EDGE('',*,*,#372,.T.);
#488=ORIENTED_EDGE('',*,*,#373,.T.);
#489=ORIENTED_EDGE('',*,*,#374,.T.);
#490=ORIENTED_EDGE('',*,*,#375,.F.);
#491=ORIENTED_EDGE('',*,*,#376,.F.);
#492=ORIENTED_EDGE('',*,*,#377,.F.);
#493=ORIENTED_EDGE('',*,*,#378,.T.);
#494=ORIENTED_EDGE('',*,*,#379,.F.);
#495=ORIENTED_EDGE('',*,*,#371,.F.);
#496=ORIENTED_EDGE('',*,*,#380,.F.);
#497=ORIENTED_EDGE('',*,*,#381,.F.);
#498=ORIENTED_EDGE('',*,*,#382,.F.);
#499=ORIENTED_EDGE('',*,*,#383,.F.);
#500=ORIENTED_EDGE('',*,*,#384,.F.);
#501=ORIENTED_EDGE('',*,*,#375,.T.);
#502=ORIENTED_EDGE('',*,*,#385,.F.);
#503=ORIENTED_EDGE('',*,*,#386,.F.);
#504=ORIENTED_EDGE('',*,*,#387,.F.);
#505=ORIENTED_EDGE('',*,*,#386,.T.);
#506=ORIENTED_EDGE('',*,*,#388,.F.);
#507=ORIENTED_EDGE('',*,*,#378,.F.);
#508=ORIENTED_EDGE('',*,*,#388,.T.);
#509=ORIENTED_EDGE('',*,*,#385,.T.);
#510=ORIENTED_EDGE('',*,*,#374,.F.);
#511=ORIENTED_EDGE('',*,*,#389,.F.);
#512=ORIENTED_EDGE('',*,*,#382,.T.);
#513=ORIENTED_EDGE('',*,*,#390,.F.);
#514=ORIENTED_EDGE('',*,*,#372,.F.);
#515=ORIENTED_EDGE('',*,*,#379,.T.);
#516=ORIENTED_EDGE('',*,*,#391,.F.);
#517=ORIENTED_EDGE('',*,*,#344,.F.);
#518=ORIENTED_EDGE('',*,*,#392,.T.);
#519=ORIENTED_EDGE('',*,*,#393,.F.);
#520=ORIENTED_EDGE('',*,*,#394,.F.);
#521=ORIENTED_EDGE('',*,*,#395,.F.);
#522=ORIENTED_EDGE('',*,*,#396,.T.);
#523=ORIENTED_EDGE('',*,*,#340,.F.);
#524=ORIENTED_EDGE('',*,*,#396,.F.);
#525=ORIENTED_EDGE('',*,*,#397,.F.);
#526=ORIENTED_EDGE('',*,*,#392,.F.);
#527=ORIENTED_EDGE('',*,*,#364,.F.);
#528=ORIENTED_EDGE('',*,*,#363,.F.);
#529=ORIENTED_EDGE('',*,*,#362,.F.);
#530=ORIENTED_EDGE('',*,*,#398,.F.);
#531=ORIENTED_EDGE('',*,*,#369,.F.);
#532=ORIENTED_EDGE('',*,*,#399,.T.);
#533=ORIENTED_EDGE('',*,*,#400,.F.);
#534=ORIENTED_EDGE('',*,*,#401,.F.);
#535=ORIENTED_EDGE('',*,*,#402,.F.);
#536=ORIENTED_EDGE('',*,*,#403,.T.);
#537=ORIENTED_EDGE('',*,*,#373,.F.);
#538=ORIENTED_EDGE('',*,*,#403,.F.);
#539=ORIENTED_EDGE('',*,*,#404,.F.);
#540=ORIENTED_EDGE('',*,*,#399,.F.);
#541=ORIENTED_EDGE('',*,*,#405,.F.);
#542=ORIENTED_EDGE('',*,*,#406,.F.);
#543=ORIENTED_EDGE('',*,*,#407,.F.);
#544=ORIENTED_EDGE('',*,*,#398,.T.);
#545=ORIENTED_EDGE('',*,*,#408,.F.);
#546=ORIENTED_EDGE('',*,*,#409,.F.);
#547=ORIENTED_EDGE('',*,*,#380,.T.);
#548=ORIENTED_EDGE('',*,*,#410,.T.);
#549=ORIENTED_EDGE('',*,*,#411,.F.);
#550=ORIENTED_EDGE('',*,*,#412,.F.);
#551=ORIENTED_EDGE('',*,*,#401,.T.);
#552=ORIENTED_EDGE('',*,*,#376,.T.);
#553=ORIENTED_EDGE('',*,*,#384,.T.);
#554=ORIENTED_EDGE('',*,*,#387,.T.);
#555=ORIENTED_EDGE('',*,*,#377,.T.);
#556=ORIENTED_EDGE('',*,*,#370,.T.);
#557=ORIENTED_EDGE('',*,*,#390,.T.);
#558=ORIENTED_EDGE('',*,*,#413,.F.);
#559=ORIENTED_EDGE('',*,*,#414,.T.);
#560=ORIENTED_EDGE('',*,*,#415,.F.);
#561=ORIENTED_EDGE('',*,*,#410,.F.);
#562=ORIENTED_EDGE('',*,*,#383,.T.);
#563=ORIENTED_EDGE('',*,*,#389,.T.);
#564=ORIENTED_EDGE('',*,*,#407,.T.);
#565=ORIENTED_EDGE('',*,*,#406,.T.);
#566=ORIENTED_EDGE('',*,*,#405,.T.);
#567=ORIENTED_EDGE('',*,*,#402,.T.);
#568=ORIENTED_EDGE('',*,*,#412,.T.);
#569=ORIENTED_EDGE('',*,*,#416,.F.);
#570=ORIENTED_EDGE('',*,*,#417,.F.);
#571=ORIENTED_EDGE('',*,*,#418,.F.);
#572=ORIENTED_EDGE('',*,*,#408,.T.);
#573=ORIENTED_EDGE('',*,*,#400,.T.);
#574=ORIENTED_EDGE('',*,*,#404,.T.);
#575=ORIENTED_EDGE('',*,*,#419,.F.);
#576=ORIENTED_EDGE('',*,*,#417,.T.);
#577=ORIENTED_EDGE('',*,*,#420,.F.);
#578=ORIENTED_EDGE('',*,*,#421,.F.);
#579=ORIENTED_EDGE('',*,*,#422,.F.);
#580=ORIENTED_EDGE('',*,*,#421,.T.);
#581=ORIENTED_EDGE('',*,*,#423,.F.);
#582=ORIENTED_EDGE('',*,*,#424,.F.);
#583=ORIENTED_EDGE('',*,*,#425,.F.);
#584=ORIENTED_EDGE('',*,*,#424,.T.);
#585=ORIENTED_EDGE('',*,*,#426,.F.);
#586=ORIENTED_EDGE('',*,*,#427,.F.);
#587=ORIENTED_EDGE('',*,*,#395,.T.);
#588=ORIENTED_EDGE('',*,*,#428,.F.);
#589=ORIENTED_EDGE('',*,*,#429,.F.);
#590=ORIENTED_EDGE('',*,*,#427,.T.);
#591=ORIENTED_EDGE('',*,*,#430,.F.);
#592=ORIENTED_EDGE('',*,*,#431,.F.);
#593=ORIENTED_EDGE('',*,*,#393,.T.);
#594=ORIENTED_EDGE('',*,*,#397,.T.);
#595=ORIENTED_EDGE('',*,*,#394,.T.);
#596=ORIENTED_EDGE('',*,*,#343,.F.);
#597=ORIENTED_EDGE('',*,*,#348,.F.);
#598=ORIENTED_EDGE('',*,*,#358,.F.);
#599=ORIENTED_EDGE('',*,*,#355,.F.);
#600=ORIENTED_EDGE('',*,*,#345,.F.);
#601=ORIENTED_EDGE('',*,*,#391,.T.);
#602=ORIENTED_EDGE('',*,*,#431,.T.);
#603=ORIENTED_EDGE('',*,*,#432,.F.);
#604=ORIENTED_EDGE('',*,*,#365,.F.);
#605=ORIENTED_EDGE('',*,*,#351,.F.);
#606=ORIENTED_EDGE('',*,*,#433,.F.);
#607=ORIENTED_EDGE('',*,*,#428,.T.);
#608=ORIENTED_EDGE('',*,*,#434,.F.);
#609=ORIENTED_EDGE('',*,*,#367,.T.);
#610=ORIENTED_EDGE('',*,*,#435,.F.);
#611=ORIENTED_EDGE('',*,*,#436,.F.);
#612=ORIENTED_EDGE('',*,*,#437,.F.);
#613=ORIENTED_EDGE('',*,*,#436,.T.);
#614=ORIENTED_EDGE('',*,*,#438,.F.);
#615=ORIENTED_EDGE('',*,*,#439,.F.);
#616=ORIENTED_EDGE('',*,*,#440,.F.);
#617=ORIENTED_EDGE('',*,*,#439,.T.);
#618=ORIENTED_EDGE('',*,*,#441,.F.);
#619=ORIENTED_EDGE('',*,*,#414,.F.);
#620=ORIENTED_EDGE('',*,*,#409,.T.);
#621=ORIENTED_EDGE('',*,*,#418,.T.);
#622=ORIENTED_EDGE('',*,*,#419,.T.);
#623=ORIENTED_EDGE('',*,*,#422,.T.);
#624=ORIENTED_EDGE('',*,*,#425,.T.);
#625=ORIENTED_EDGE('',*,*,#429,.T.);
#626=ORIENTED_EDGE('',*,*,#433,.T.);
#627=ORIENTED_EDGE('',*,*,#354,.T.);
#628=ORIENTED_EDGE('',*,*,#368,.T.);
#629=ORIENTED_EDGE('',*,*,#434,.T.);
#630=ORIENTED_EDGE('',*,*,#437,.T.);
#631=ORIENTED_EDGE('',*,*,#440,.T.);
#632=ORIENTED_EDGE('',*,*,#413,.T.);
#633=ORIENTED_EDGE('',*,*,#381,.T.);
#634=ORIENTED_EDGE('',*,*,#411,.T.);
#635=ORIENTED_EDGE('',*,*,#415,.T.);
#636=ORIENTED_EDGE('',*,*,#441,.T.);
#637=ORIENTED_EDGE('',*,*,#438,.T.);
#638=ORIENTED_EDGE('',*,*,#435,.T.);
#639=ORIENTED_EDGE('',*,*,#366,.T.);
#640=ORIENTED_EDGE('',*,*,#432,.T.);
#641=ORIENTED_EDGE('',*,*,#430,.T.);
#642=ORIENTED_EDGE('',*,*,#426,.T.);
#643=ORIENTED_EDGE('',*,*,#423,.T.);
#644=ORIENTED_EDGE('',*,*,#420,.T.);
#645=ORIENTED_EDGE('',*,*,#416,.T.);
#646=PLANE('',#764);
#647=PLANE('',#765);
#648=PLANE('',#766);
#649=PLANE('',#770);
#650=PLANE('',#774);
#651=PLANE('',#775);
#652=PLANE('',#776);
#653=PLANE('',#777);
#654=PLANE('',#778);
#655=PLANE('',#782);
#656=PLANE('',#786);
#657=PLANE('',#787);
#658=PLANE('',#788);
#659=PLANE('',#789);
#660=PLANE('',#790);
#661=PLANE('',#791);
#662=PLANE('',#792);
#663=PLANE('',#793);
#664=PLANE('',#794);
#665=PLANE('',#795);
#666=PLANE('',#799);
#667=PLANE('',#803);
#668=PLANE('',#804);
#669=PLANE('',#808);
#670=PLANE('',#812);
#671=PLANE('',#813);
#672=STYLED_ITEM('',(#1221),#707);
#673=STYLED_ITEM('',(#1221),#708);
#674=STYLED_ITEM('',(#1221),#709);
#675=STYLED_ITEM('',(#1221),#710);
#676=STYLED_ITEM('',(#1221),#711);
#677=STYLED_ITEM('',(#1221),#712);
#678=STYLED_ITEM('',(#1221),#713);
#679=STYLED_ITEM('',(#1221),#714);
#680=STYLED_ITEM('',(#1221),#715);
#681=STYLED_ITEM('',(#1221),#716);
#682=STYLED_ITEM('',(#1221),#717);
#683=STYLED_ITEM('',(#1221),#718);
#684=STYLED_ITEM('',(#1221),#719);
#685=STYLED_ITEM('',(#1221),#720);
#686=STYLED_ITEM('',(#1221),#721);
#687=STYLED_ITEM('',(#1221),#722);
#688=STYLED_ITEM('',(#1221),#723);
#689=STYLED_ITEM('',(#1221),#724);
#690=STYLED_ITEM('',(#1221),#725);
#691=STYLED_ITEM('',(#1221),#726);
#692=STYLED_ITEM('',(#1221),#727);
#693=STYLED_ITEM('',(#1221),#728);
#694=STYLED_ITEM('',(#1221),#729);
#695=STYLED_ITEM('',(#1221),#730);
#696=STYLED_ITEM('',(#1221),#731);
#697=STYLED_ITEM('',(#1221),#732);
#698=STYLED_ITEM('',(#1221),#733);
#699=STYLED_ITEM('',(#1221),#734);
#700=STYLED_ITEM('',(#1221),#735);
#701=STYLED_ITEM('',(#1221),#736);
#702=STYLED_ITEM('',(#1221),#737);
#703=STYLED_ITEM('',(#1221),#738);
#704=STYLED_ITEM('',(#1221),#739);
#705=STYLED_ITEM('',(#1221),#740);
#706=STYLED_ITEM('',(#1220),#13);
#707=ADVANCED_FACE('',(#38),#646,.F.);
#708=ADVANCED_FACE('',(#39),#647,.F.);
#709=ADVANCED_FACE('',(#40),#648,.F.);
#710=ADVANCED_FACE('',(#41),#30,.T.);
#711=ADVANCED_FACE('',(#42),#649,.F.);
#712=ADVANCED_FACE('',(#43),#31,.F.);
#713=ADVANCED_FACE('',(#44),#650,.T.);
#714=ADVANCED_FACE('',(#45),#651,.T.);
#715=ADVANCED_FACE('',(#46),#652,.T.);
#716=ADVANCED_FACE('',(#47),#653,.T.);
#717=ADVANCED_FACE('',(#48),#654,.T.);
#718=ADVANCED_FACE('',(#49),#32,.T.);
#719=ADVANCED_FACE('',(#50),#655,.T.);
#720=ADVANCED_FACE('',(#51),#33,.F.);
#721=ADVANCED_FACE('',(#52),#656,.F.);
#722=ADVANCED_FACE('',(#53),#657,.F.);
#723=ADVANCED_FACE('',(#54),#658,.F.);
#724=ADVANCED_FACE('',(#55),#659,.F.);
#725=ADVANCED_FACE('',(#56),#660,.F.);
#726=ADVANCED_FACE('',(#57),#661,.F.);
#727=ADVANCED_FACE('',(#58),#662,.F.);
#728=ADVANCED_FACE('',(#59),#663,.T.);
#729=ADVANCED_FACE('',(#60),#664,.T.);
#730=ADVANCED_FACE('',(#61),#665,.T.);
#731=ADVANCED_FACE('',(#62),#34,.F.);
#732=ADVANCED_FACE('',(#63),#666,.T.);
#733=ADVANCED_FACE('',(#64),#35,.F.);
#734=ADVANCED_FACE('',(#65),#667,.T.);
#735=ADVANCED_FACE('',(#66),#668,.T.);
#736=ADVANCED_FACE('',(#67),#36,.T.);
#737=ADVANCED_FACE('',(#68),#669,.T.);
#738=ADVANCED_FACE('',(#69),#37,.T.);
#739=ADVANCED_FACE('',(#70),#670,.T.);
#740=ADVANCED_FACE('',(#71),#671,.F.);
#741=CLOSED_SHELL('',(#707,#708,#709,#710,#711,#712,#713,#714,#715,#716,
#717,#718,#719,#720,#721,#722,#723,#724,#725,#726,#727,#728,#729,#730,#731,
#732,#733,#734,#735,#736,#737,#738,#739,#740));
#742=DERIVED_UNIT_ELEMENT(#745,1.);
#743=DERIVED_UNIT_ELEMENT(#1206,-3.);
#744=DIMENSIONAL_EXPONENTS(0.,1.,0.,0.,0.,0.,0.);
#745=(
CONVERSION_BASED_UNIT('gram',#747)
MASS_UNIT()
NAMED_UNIT(#744)
);
#746=(
MASS_UNIT()
NAMED_UNIT(*)
SI_UNIT(.KILO.,.GRAM.)
);
#747=MASS_MEASURE_WITH_UNIT(MASS_MEASURE(0.001),#746);
#748=DERIVED_UNIT((#742,#743));
#749=MEASURE_REPRESENTATION_ITEM('density measure',
POSITIVE_RATIO_MEASURE(1.),#748);
#750=PROPERTY_DEFINITION_REPRESENTATION(#755,#752);
#751=PROPERTY_DEFINITION_REPRESENTATION(#756,#753);
#752=REPRESENTATION('material name',(#754),#1203);
#753=REPRESENTATION('density',(#749),#1203);
#754=DESCRIPTIVE_REPRESENTATION_ITEM('Generic','Generic');
#755=PROPERTY_DEFINITION('material property','material name',#1213);
#756=PROPERTY_DEFINITION('material property','density of part',#1213);
#757=DATE_TIME_ROLE('creation_date');
#758=APPLIED_DATE_AND_TIME_ASSIGNMENT(#759,#757,(#1213));
#759=DATE_AND_TIME(#760,#761);
#760=CALENDAR_DATE(2025,16,11);
#761=LOCAL_TIME(0,0,0.,#762);
#762=COORDINATED_UNIVERSAL_TIME_OFFSET(0,0,.BEHIND.);
#763=AXIS2_PLACEMENT_3D('',#1002,#814,#815);
#764=AXIS2_PLACEMENT_3D('',#1003,#816,#817);
#765=AXIS2_PLACEMENT_3D('',#1012,#822,#823);
#766=AXIS2_PLACEMENT_3D('',#1021,#828,#829);
#767=AXIS2_PLACEMENT_3D('',#1027,#833,#834);
#768=AXIS2_PLACEMENT_3D('',#1030,#835,#836);
#769=AXIS2_PLACEMENT_3D('',#1034,#838,#839);
#770=AXIS2_PLACEMENT_3D('',#1036,#841,#842);
#771=AXIS2_PLACEMENT_3D('',#1042,#846,#847);
#772=AXIS2_PLACEMENT_3D('',#1043,#848,#849);
#773=AXIS2_PLACEMENT_3D('',#1044,#850,#851);
#774=AXIS2_PLACEMENT_3D('',#1045,#852,#853);
#775=AXIS2_PLACEMENT_3D('',#1048,#856,#857);
#776=AXIS2_PLACEMENT_3D('',#1059,#865,#866);
#777=AXIS2_PLACEMENT_3D('',#1068,#871,#872);
#778=AXIS2_PLACEMENT_3D('',#1077,#877,#878);
#779=AXIS2_PLACEMENT_3D('',#1083,#882,#883);
#780=AXIS2_PLACEMENT_3D('',#1086,#884,#885);
#781=AXIS2_PLACEMENT_3D('',#1090,#887,#888);
#782=AXIS2_PLACEMENT_3D('',#1092,#890,#891);
#783=AXIS2_PLACEMENT_3D('',#1098,#895,#896);
#784=AXIS2_PLACEMENT_3D('',#1099,#897,#898);
#785=AXIS2_PLACEMENT_3D('',#1100,#899,#900);
#786=AXIS2_PLACEMENT_3D('',#1101,#901,#902);
#787=AXIS2_PLACEMENT_3D('',#1104,#905,#906);
#788=AXIS2_PLACEMENT_3D('',#1110,#910,#911);
#789=AXIS2_PLACEMENT_3D('',#1116,#915,#916);
#790=AXIS2_PLACEMENT_3D('',#1118,#918,#919);
#791=AXIS2_PLACEMENT_3D('',#1124,#923,#924);
#792=AXIS2_PLACEMENT_3D('',#1130,#928,#929);
#793=AXIS2_PLACEMENT_3D('',#1135,#934,#935);
#794=AXIS2_PLACEMENT_3D('',#1144,#941,#942);
#795=AXIS2_PLACEMENT_3D('',#1150,#946,#947);
#796=AXIS2_PLACEMENT_3D('',#1156,#951,#952);
#797=AXIS2_PLACEMENT_3D('',#1158,#953,#954);
#798=AXIS2_PLACEMENT_3D('',#1160,#955,#956);
#799=AXIS2_PLACEMENT_3D('',#1162,#958,#959);
#800=AXIS2_PLACEMENT_3D('',#1168,#963,#964);
#801=AXIS2_PLACEMENT_3D('',#1170,#965,#966);
#802=AXIS2_PLACEMENT_3D('',#1172,#967,#968);
#803=AXIS2_PLACEMENT_3D('',#1174,#970,#971);
#804=AXIS2_PLACEMENT_3D('',#1181,#976,#977);
#805=AXIS2_PLACEMENT_3D('',#1184,#980,#981);
#806=AXIS2_PLACEMENT_3D('',#1186,#982,#983);
#807=AXIS2_PLACEMENT_3D('',#1188,#984,#985);
#808=AXIS2_PLACEMENT_3D('',#1190,#987,#988);
#809=AXIS2_PLACEMENT_3D('',#1196,#992,#993);
#810=AXIS2_PLACEMENT_3D('',#1197,#994,#995);
#811=AXIS2_PLACEMENT_3D('',#1198,#996,#997);
#812=AXIS2_PLACEMENT_3D('',#1199,#998,#999);
#813=AXIS2_PLACEMENT_3D('',#1200,#1000,#1001);
#814=DIRECTION('axis',(0.,0.,1.));
#815=DIRECTION('refdir',(1.,0.,0.));
#816=DIRECTION('center_axis',(-1.63268091856641E-16,0.,-1.));
#817=DIRECTION('ref_axis',(-1.,0.,1.63268091856641E-16));
#818=DIRECTION('',(-6.16297582197938E-32,1.,-1.11022302462516E-16));
#819=DIRECTION('',(-1.,0.,0.));
#820=DIRECTION('',(0.,1.,0.));
#821=DIRECTION('',(1.,0.,-1.63268091856641E-16));
#822=DIRECTION('center_axis',(-1.11022302462516E-16,0.,-1.));
#823=DIRECTION('ref_axis',(-1.,0.,1.11022302462516E-16));
#824=DIRECTION('',(0.,-1.,1.11022302462516E-16));
#825=DIRECTION('',(1.,0.,-1.11022302462516E-16));
#826=DIRECTION('',(0.,1.,0.));
#827=DIRECTION('',(-1.,0.,0.));
#828=DIRECTION('center_axis',(1.,0.,0.));
#829=DIRECTION('ref_axis',(0.,0.,-1.));
#830=DIRECTION('',(0.,0.,1.));
#831=DIRECTION('',(0.,0.,-1.));
#832=DIRECTION('',(0.,1.,0.));
#833=DIRECTION('center_axis',(0.,-1.,0.));
#834=DIRECTION('ref_axis',(1.,0.,0.));
#835=DIRECTION('center_axis',(0.,1.,0.));
#836=DIRECTION('ref_axis',(1.,0.,0.));
#837=DIRECTION('',(0.,-1.,0.));
#838=DIRECTION('center_axis',(0.,-1.,0.));
#839=DIRECTION('ref_axis',(1.,0.,0.));
#840=DIRECTION('',(0.,1.,-1.11022302462516E-16));
#841=DIRECTION('center_axis',(-1.,0.,0.));
#842=DIRECTION('ref_axis',(0.,0.,1.));
#843=DIRECTION('',(0.,0.,-1.));
#844=DIRECTION('',(0.,1.,0.));
#845=DIRECTION('',(0.,0.,1.));
#846=DIRECTION('center_axis',(0.,-1.,0.));
#847=DIRECTION('ref_axis',(-1.,0.,0.));
#848=DIRECTION('center_axis',(0.,-1.,0.));
#849=DIRECTION('ref_axis',(-1.,0.,0.));
#850=DIRECTION('center_axis',(0.,1.,0.));
#851=DIRECTION('ref_axis',(-1.,0.,0.));
#852=DIRECTION('center_axis',(0.,1.,0.));
#853=DIRECTION('ref_axis',(0.,0.,1.));
#854=DIRECTION('',(-1.,0.,0.));
#855=DIRECTION('',(-1.,0.,0.));
#856=DIRECTION('center_axis',(0.,-1.11022302462516E-16,-1.));
#857=DIRECTION('ref_axis',(0.,-1.,1.11022302462516E-16));
#858=DIRECTION('',(-1.,0.,0.));
#859=DIRECTION('',(-1.,0.,0.));
#860=DIRECTION('',(-1.,0.,0.));
#861=DIRECTION('',(-1.,0.,0.));
#862=DIRECTION('',(0.,-1.,1.11022302462516E-16));
#863=DIRECTION('',(-1.,0.,0.));
#864=DIRECTION('',(0.,1.,-1.11022302462516E-16));
#865=DIRECTION('center_axis',(1.63268091856641E-16,0.,-1.));
#866=DIRECTION('ref_axis',(-1.,0.,-1.63268091856641E-16));
#867=DIRECTION('',(-6.16297582197937E-32,-1.,1.11022302462516E-16));
#868=DIRECTION('',(1.,0.,1.63268091856641E-16));
#869=DIRECTION('',(0.,1.,0.));
#870=DIRECTION('',(1.,0.,0.));
#871=DIRECTION('center_axis',(1.11022302462516E-16,0.,-1.));
#872=DIRECTION('ref_axis',(-1.,0.,-1.11022302462516E-16));
#873=DIRECTION('',(0.,1.,-1.11022302462516E-16));
#874=DIRECTION('',(1.,0.,0.));
#875=DIRECTION('',(0.,1.,0.));
#876=DIRECTION('',(1.,0.,1.11022302462516E-16));
#877=DIRECTION('center_axis',(-1.,0.,0.));
#878=DIRECTION('ref_axis',(0.,0.,1.));
#879=DIRECTION('',(0.,0.,-1.));
#880=DIRECTION('',(0.,1.,0.));
#881=DIRECTION('',(0.,0.,1.));
#882=DIRECTION('center_axis',(0.,1.,0.));
#883=DIRECTION('ref_axis',(1.,0.,0.));
#884=DIRECTION('center_axis',(0.,-1.,0.));
#885=DIRECTION('ref_axis',(1.,0.,0.));
#886=DIRECTION('',(0.,-1.,1.11022302462516E-16));
#887=DIRECTION('center_axis',(0.,1.,0.));
#888=DIRECTION('ref_axis',(1.,0.,0.));
#889=DIRECTION('',(0.,1.,0.));
#890=DIRECTION('center_axis',(1.,0.,0.));
#891=DIRECTION('ref_axis',(0.,0.,-1.));
#892=DIRECTION('',(0.,0.,1.));
#893=DIRECTION('',(0.,0.,-1.));
#894=DIRECTION('',(0.,1.,0.));
#895=DIRECTION('center_axis',(0.,1.,0.));
#896=DIRECTION('ref_axis',(-1.,0.,0.));
#897=DIRECTION('center_axis',(0.,1.,0.));
#898=DIRECTION('ref_axis',(-1.,0.,0.));
#899=DIRECTION('center_axis',(0.,-1.,0.));
#900=DIRECTION('ref_axis',(-1.,0.,0.));
#901=DIRECTION('center_axis',(0.,-1.,0.));
#902=DIRECTION('ref_axis',(0.,0.,-1.));
#903=DIRECTION('',(1.,0.,0.));
#904=DIRECTION('',(1.,0.,0.));
#905=DIRECTION('center_axis',(-1.,0.,0.));
#906=DIRECTION('ref_axis',(0.,0.,1.));
#907=DIRECTION('',(0.,0.,1.));
#908=DIRECTION('',(0.,0.,1.));
#909=DIRECTION('',(0.,1.,0.));
#910=DIRECTION('center_axis',(1.,0.,-5.55111512307194E-16));
#911=DIRECTION('ref_axis',(-5.55111512307194E-16,0.,-1.));
#912=DIRECTION('',(-5.55111512307194E-16,0.,-1.));
#913=DIRECTION('',(0.,-1.,0.));
#914=DIRECTION('',(-5.55111512307194E-16,0.,-1.));
#915=DIRECTION('center_axis',(0.,1.,0.));
#916=DIRECTION('ref_axis',(0.,0.,1.));
#917=DIRECTION('',(1.,0.,0.));
#918=DIRECTION('center_axis',(1.,0.,5.55111512307193E-16));
#919=DIRECTION('ref_axis',(5.55111512307193E-16,0.,-1.));
#920=DIRECTION('',(5.55111512307193E-16,0.,-1.));
#921=DIRECTION('',(5.55111512307193E-16,0.,-1.));
#922=DIRECTION('',(-1.77235905989844E-31,1.,3.19279824072111E-16));
#923=DIRECTION('center_axis',(-1.,0.,0.));
#924=DIRECTION('ref_axis',(0.,0.,1.));
#925=DIRECTION('',(0.,0.,1.));
#926=DIRECTION('',(0.,-1.,-3.19279824072111E-16));
#927=DIRECTION('',(0.,0.,1.));
#928=DIRECTION('center_axis',(0.,1.,0.));
#929=DIRECTION('ref_axis',(0.,0.,1.));
#930=DIRECTION('',(-1.,0.,0.));
#931=DIRECTION('',(1.,0.,0.));
#932=DIRECTION('',(1.,0.,0.));
#933=DIRECTION('',(1.,0.,0.));
#934=DIRECTION('center_axis',(0.,-1.,0.));
#935=DIRECTION('ref_axis',(0.,0.,1.));
#936=DIRECTION('',(-1.,0.,0.));
#937=DIRECTION('',(0.,0.,-1.));
#938=DIRECTION('',(-1.,0.,0.));
#939=DIRECTION('',(0.,0.,1.));
#940=DIRECTION('',(-1.,0.,0.));
#941=DIRECTION('center_axis',(0.,1.11022302462516E-16,1.));
#942=DIRECTION('ref_axis',(0.,1.,-1.11022302462516E-16));
#943=DIRECTION('',(0.,-1.,1.11022302462516E-16));
#944=DIRECTION('',(-1.,0.,0.));
#945=DIRECTION('',(0.,1.,-1.11022302462516E-16));
#946=DIRECTION('center_axis',(0.,3.19279824072111E-16,-1.));
#947=DIRECTION('ref_axis',(0.,-1.,-3.19279824072111E-16));
#948=DIRECTION('',(0.,-1.,-3.19279824072111E-16));
#949=DIRECTION('',(-1.,0.,0.));
#950=DIRECTION('',(0.,1.,3.19279824072111E-16));
#951=DIRECTION('center_axis',(-1.,0.,0.));
#952=DIRECTION('ref_axis',(0.,-1.,5.55111512312578E-16));
#953=DIRECTION('center_axis',(-1.,0.,0.));
#954=DIRECTION('ref_axis',(0.,-1.,5.55111512312578E-16));
#955=DIRECTION('center_axis',(1.,0.,0.));
#956=DIRECTION('ref_axis',(0.,-1.,5.55111512312578E-16));
#957=DIRECTION('',(-1.,0.,0.));
#958=DIRECTION('center_axis',(0.,-1.,6.93889390393247E-17));
#959=DIRECTION('ref_axis',(0.,6.93889390393247E-17,1.));
#960=DIRECTION('',(0.,-6.93889390393247E-17,-1.));
#961=DIRECTION('',(0.,6.93889390393247E-17,1.));
#962=DIRECTION('',(-1.,0.,0.));
#963=DIRECTION('center_axis',(-1.,0.,0.));
#964=DIRECTION('ref_axis',(0.,1.38777878078145E-16,1.));
#965=DIRECTION('center_axis',(-1.,0.,0.));
#966=DIRECTION('ref_axis',(0.,1.38777878078145E-16,1.));
#967=DIRECTION('center_axis',(1.,0.,0.));
#968=DIRECTION('ref_axis',(0.,1.38777878078145E-16,1.));
#969=DIRECTION('',(-1.,0.,0.));
#970=DIRECTION('center_axis',(0.,0.,1.));
#971=DIRECTION('ref_axis',(0.,1.,0.));
#972=DIRECTION('',(-1.,0.,0.));
#973=DIRECTION('',(0.,-1.,0.));
#974=DIRECTION('',(0.,1.,0.));
#975=DIRECTION('',(-1.,0.,0.));
#976=DIRECTION('center_axis',(0.,-1.,0.));
#977=DIRECTION('ref_axis',(0.,0.,1.));
#978=DIRECTION('',(0.,0.,1.));
#979=DIRECTION('',(0.,0.,-1.));
#980=DIRECTION('center_axis',(-1.,0.,0.));
#981=DIRECTION('ref_axis',(0.,-5.55111512312578E-16,-1.));
#982=DIRECTION('center_axis',(1.,0.,0.));
#983=DIRECTION('ref_axis',(0.,-5.55111512312578E-16,-1.));
#984=DIRECTION('center_axis',(-1.,0.,0.));
#985=DIRECTION('ref_axis',(0.,-5.55111512312578E-16,-1.));
#986=DIRECTION('',(-1.,0.,0.));
#987=DIRECTION('center_axis',(0.,1.,-8.5401771125012E-17));
#988=DIRECTION('ref_axis',(0.,-8.5401771125012E-17,-1.));
#989=DIRECTION('',(0.,8.5401771125012E-17,1.));
#990=DIRECTION('',(0.,-8.5401771125012E-17,-1.));
#991=DIRECTION('',(-1.,0.,0.));
#992=DIRECTION('center_axis',(-1.,0.,0.));
#993=DIRECTION('ref_axis',(0.,1.,0.));
#994=DIRECTION('center_axis',(1.,0.,0.));
#995=DIRECTION('ref_axis',(0.,1.,0.));
#996=DIRECTION('center_axis',(-1.,0.,0.));
#997=DIRECTION('ref_axis',(0.,1.,0.));
#998=DIRECTION('center_axis',(1.,0.,0.));
#999=DIRECTION('ref_axis',(0.,0.,-1.));
#1000=DIRECTION('center_axis',(1.,0.,0.));
#1001=DIRECTION('ref_axis',(0.,0.,-1.));
#1002=CARTESIAN_POINT('',(0.,0.,0.));
#1003=CARTESIAN_POINT('Origin',(0.,-5.5,-7.5));
#1004=CARTESIAN_POINT('',(-2.5,-5.5,-7.5));
#1005=CARTESIAN_POINT('',(-2.5,-2.5,-7.5));
#1006=CARTESIAN_POINT('',(-2.5,-0.5,-7.5));
#1007=CARTESIAN_POINT('',(-3.25,-2.5,-7.5));
#1008=CARTESIAN_POINT('',(-2.125,-2.5,-7.5));
#1009=CARTESIAN_POINT('',(-3.25,-5.5,-7.5));
#1010=CARTESIAN_POINT('',(-3.25,-5.5,-7.5));
#1011=CARTESIAN_POINT('',(-8.5,-5.5,-7.5));
#1012=CARTESIAN_POINT('Origin',(-5.25,-5.5,-7.5));
#1013=CARTESIAN_POINT('',(-6.,-2.5,-7.5));
#1014=CARTESIAN_POINT('',(-6.,-5.5,-7.5));
#1015=CARTESIAN_POINT('',(-6.,-0.5,-7.5));
#1016=CARTESIAN_POINT('',(-5.25,-5.5,-7.5));
#1017=CARTESIAN_POINT('',(-8.5,-5.5,-7.5));
#1018=CARTESIAN_POINT('',(-5.25,-2.5,-7.5));
#1019=CARTESIAN_POINT('',(-5.25,-5.5,-7.5));
#1020=CARTESIAN_POINT('',(-2.125,-2.5,-7.5));
#1021=CARTESIAN_POINT('Origin',(-3.25,-5.5,-7.5));
#1022=CARTESIAN_POINT('',(-3.25,-5.5,-9.));
#1023=CARTESIAN_POINT('',(-3.25,-5.5,-9.));
#1024=CARTESIAN_POINT('',(-3.25,-2.5,-9.));
#1025=CARTESIAN_POINT('',(-3.25,-2.5,-9.));
#1026=CARTESIAN_POINT('',(-3.25,-5.5,-9.));
#1027=CARTESIAN_POINT('Origin',(-4.25,-5.5,-7.5));
#1028=CARTESIAN_POINT('',(0.,-5.5,-7.5));
#1029=CARTESIAN_POINT('',(-8.5,-5.5,-7.5));
#1030=CARTESIAN_POINT('Origin',(-4.25,-5.5,-7.5));
#1031=CARTESIAN_POINT('',(-8.5,-2.5,-7.5));
#1032=CARTESIAN_POINT('',(-8.5,-5.5,-7.5));
#1033=CARTESIAN_POINT('',(0.,-2.5,-7.5));
#1034=CARTESIAN_POINT('Origin',(-4.25,-2.5,-7.5));
#1035=CARTESIAN_POINT('',(0.,-5.5,-7.5));
#1036=CARTESIAN_POINT('Origin',(-5.25,-5.5,-9.));
#1037=CARTESIAN_POINT('',(-5.25,-5.5,-9.));
#1038=CARTESIAN_POINT('',(-5.25,-5.5,-7.5));
#1039=CARTESIAN_POINT('',(-5.25,-2.5,-9.));
#1040=CARTESIAN_POINT('',(-5.25,-5.5,-9.));
#1041=CARTESIAN_POINT('',(-5.25,-2.5,-7.5));
#1042=CARTESIAN_POINT('Origin',(-4.25,-5.5,-9.));
#1043=CARTESIAN_POINT('Origin',(-4.25,-5.5,-9.));
#1044=CARTESIAN_POINT('Origin',(-4.25,-2.5,-9.));
#1045=CARTESIAN_POINT('Origin',(-4.25,-2.5,-9.625));
#1046=CARTESIAN_POINT('',(-2.125,-2.5,-7.5));
#1047=CARTESIAN_POINT('',(-2.125,-2.5,-7.5));
#1048=CARTESIAN_POINT('Origin',(0.,4.5,-7.5));
#1049=CARTESIAN_POINT('',(-2.125,-2.5,-7.5));
#1050=CARTESIAN_POINT('',(-2.125,-2.5,-7.5));
#1051=CARTESIAN_POINT('',(-2.125,-2.5,-7.5));
#1052=CARTESIAN_POINT('',(-11.5,-5.5,-7.5));
#1053=CARTESIAN_POINT('',(0.,-5.5,-7.5));
#1054=CARTESIAN_POINT('',(-11.5,4.5,-7.5));
#1055=CARTESIAN_POINT('',(-11.5,-5.5,-7.5));
#1056=CARTESIAN_POINT('',(0.,4.5,-7.5));
#1057=CARTESIAN_POINT('',(0.,4.5,-7.5));
#1058=CARTESIAN_POINT('',(0.,-5.5,-7.5));
#1059=CARTESIAN_POINT('Origin',(0.,-5.5,7.5));
#1060=CARTESIAN_POINT('',(-2.5,-2.5,7.5));
#1061=CARTESIAN_POINT('',(-2.5,-5.5,7.5));
#1062=CARTESIAN_POINT('',(-2.5,-5.5,7.5));
#1063=CARTESIAN_POINT('',(-3.25,-5.5,7.5));
#1064=CARTESIAN_POINT('',(-8.5,-5.5,7.5));
#1065=CARTESIAN_POINT('',(-3.25,-2.5,7.5));
#1066=CARTESIAN_POINT('',(-3.25,-5.5,7.5));
#1067=CARTESIAN_POINT('',(-2.125,-2.5,7.5));
#1068=CARTESIAN_POINT('Origin',(-5.25,-5.5,7.5));
#1069=CARTESIAN_POINT('',(-6.,-5.5,7.5));
#1070=CARTESIAN_POINT('',(-6.,-2.5,7.5));
#1071=CARTESIAN_POINT('',(-6.,-5.5,7.5));
#1072=CARTESIAN_POINT('',(-5.25,-2.5,7.5));
#1073=CARTESIAN_POINT('',(-2.125,-2.5,7.5));
#1074=CARTESIAN_POINT('',(-5.25,-5.5,7.5));
#1075=CARTESIAN_POINT('',(-5.25,-5.5,7.5));
#1076=CARTESIAN_POINT('',(-8.5,-5.5,7.5));
#1077=CARTESIAN_POINT('Origin',(-3.25,-5.5,7.5));
#1078=CARTESIAN_POINT('',(-3.25,-5.5,9.));
#1079=CARTESIAN_POINT('',(-3.25,-5.5,9.));
#1080=CARTESIAN_POINT('',(-3.25,-2.5,9.));
#1081=CARTESIAN_POINT('',(-3.25,-5.5,9.));
#1082=CARTESIAN_POINT('',(-3.25,-2.5,9.));
#1083=CARTESIAN_POINT('Origin',(-4.25,-5.5,7.5));
#1084=CARTESIAN_POINT('',(0.,-5.5,7.5));
#1085=CARTESIAN_POINT('',(-8.5,-5.5,7.5));
#1086=CARTESIAN_POINT('Origin',(-4.25,-5.5,7.5));
#1087=CARTESIAN_POINT('',(0.,-2.5,7.5));
#1088=CARTESIAN_POINT('',(0.,4.5,7.5));
#1089=CARTESIAN_POINT('',(-8.5,-2.5,7.5));
#1090=CARTESIAN_POINT('Origin',(-4.25,-2.5,7.5));
#1091=CARTESIAN_POINT('',(-8.5,-5.5,7.5));
#1092=CARTESIAN_POINT('Origin',(-5.25,-5.5,9.));
#1093=CARTESIAN_POINT('',(-5.25,-5.5,9.));
#1094=CARTESIAN_POINT('',(-5.25,-5.5,7.5));
#1095=CARTESIAN_POINT('',(-5.25,-2.5,9.));
#1096=CARTESIAN_POINT('',(-5.25,-2.5,7.5));
#1097=CARTESIAN_POINT('',(-5.25,-5.5,9.));
#1098=CARTESIAN_POINT('Origin',(-4.25,-5.5,9.));
#1099=CARTESIAN_POINT('Origin',(-4.25,-5.5,9.));
#1100=CARTESIAN_POINT('Origin',(-4.25,-2.5,9.));
#1101=CARTESIAN_POINT('Origin',(-4.25,-2.5,9.625));
#1102=CARTESIAN_POINT('',(-2.125,-2.5,7.5));
#1103=CARTESIAN_POINT('',(-2.125,-2.5,7.5));
#1104=CARTESIAN_POINT('Origin',(-6.,-5.5,-7.5));
#1105=CARTESIAN_POINT('',(-6.,-5.5,-5.99999999998545));
#1106=CARTESIAN_POINT('',(-6.,-5.5,-7.5));
#1107=CARTESIAN_POINT('',(-6.,-2.5,-5.99999999998545));
#1108=CARTESIAN_POINT('',(-6.,-2.5,-5.99999999998545));
#1109=CARTESIAN_POINT('',(-6.,-5.5,-5.99999999998545));
#1110=CARTESIAN_POINT('Origin',(-2.5,-5.5,-5.99999999998545));
#1111=CARTESIAN_POINT('',(-2.5,-5.5,-5.99999999998545));
#1112=CARTESIAN_POINT('',(-2.5,-5.5,-6.74999999999272));
#1113=CARTESIAN_POINT('',(-2.5,-2.5,-5.99999999998545));
#1114=CARTESIAN_POINT('',(-2.5,-5.5,-5.99999999998545));
#1115=CARTESIAN_POINT('',(-2.5,-2.5,-7.5));
#1116=CARTESIAN_POINT('Origin',(-4.25,-2.5,-6.74999999999272));
#1117=CARTESIAN_POINT('',(-2.125,-2.5,-5.99999999998545));
#1118=CARTESIAN_POINT('Origin',(-2.5,-5.5,7.5));
#1119=CARTESIAN_POINT('',(-2.5,-5.5,5.99999999998545));
#1120=CARTESIAN_POINT('',(-2.5,-5.5,6.74999999999272));
#1121=CARTESIAN_POINT('',(-2.5,-2.5,5.99999999998545));
#1122=CARTESIAN_POINT('',(-2.5,-2.5,5.99999999998545));
#1123=CARTESIAN_POINT('',(-2.5,-1.75000000000727,5.99999999998545));
#1124=CARTESIAN_POINT('Origin',(-6.,-5.5,5.99999999998545));
#1125=CARTESIAN_POINT('',(-6.,-5.5,5.99999999998545));
#1126=CARTESIAN_POINT('',(-6.,-5.5,5.99999999998545));
#1127=CARTESIAN_POINT('',(-6.,-2.5,5.99999999998545));
#1128=CARTESIAN_POINT('',(-6.,-1.75000000000728,5.99999999998545));
#1129=CARTESIAN_POINT('',(-6.,-2.5,7.5));
#1130=CARTESIAN_POINT('Origin',(-4.25,-2.5,6.74999999999272));
#1131=CARTESIAN_POINT('',(-2.125,-2.5,5.99999999998545));
#1132=CARTESIAN_POINT('',(-2.125,-2.5,7.5));
#1133=CARTESIAN_POINT('',(-2.125,-2.5,7.5));
#1134=CARTESIAN_POINT('',(-2.125,-2.5,7.5));
#1135=CARTESIAN_POINT('Origin',(0.,-5.5,5.99999999998545));
#1136=CARTESIAN_POINT('',(0.,-5.5,5.99999999998545));
#1137=CARTESIAN_POINT('',(0.,-5.5,5.99999999998545));
#1138=CARTESIAN_POINT('',(0.,-5.5,7.5));
#1139=CARTESIAN_POINT('',(-11.5,-5.5,7.5));
#1140=CARTESIAN_POINT('',(0.,-5.5,7.5));
#1141=CARTESIAN_POINT('',(-11.5,-5.5,5.99999999998545));
#1142=CARTESIAN_POINT('',(-11.5,-5.5,7.5));
#1143=CARTESIAN_POINT('',(0.,-5.5,5.99999999998545));
#1144=CARTESIAN_POINT('Origin',(0.,-5.5,7.5));
#1145=CARTESIAN_POINT('',(0.,4.5,7.5));
#1146=CARTESIAN_POINT('',(0.,4.5,7.5));
#1147=CARTESIAN_POINT('',(-11.5,4.5,7.5));
#1148=CARTESIAN_POINT('',(0.,4.5,7.5));
#1149=CARTESIAN_POINT('',(-11.5,4.5,7.5));
#1150=CARTESIAN_POINT('Origin',(0.,1.99999999998545,5.99999999998545));
#1151=CARTESIAN_POINT('',(-11.5,1.99999999998545,5.99999999998545));
#1152=CARTESIAN_POINT('',(-11.5,-7.47727272729191,5.99999999998545));
#1153=CARTESIAN_POINT('',(0.,1.99999999998545,5.99999999998545));
#1154=CARTESIAN_POINT('',(0.,1.99999999998545,5.99999999998545));
#1155=CARTESIAN_POINT('',(0.,-7.47727272729191,5.99999999998545));
#1156=CARTESIAN_POINT('Origin',(0.,1.99999999998545,3.99999999998545));
#1157=CARTESIAN_POINT('',(0.,3.99999999998545,3.99999999998545));
#1158=CARTESIAN_POINT('Origin',(0.,1.99999999998545,3.99999999998545));
#1159=CARTESIAN_POINT('',(-11.5,3.99999999998545,3.99999999998545));
#1160=CARTESIAN_POINT('Origin',(-11.5,1.99999999998545,3.99999999998545));
#1161=CARTESIAN_POINT('',(0.,3.99999999998545,3.99999999998545));
#1162=CARTESIAN_POINT('Origin',(0.,3.99999999998545,-3.99999999998545));
#1163=CARTESIAN_POINT('',(0.,3.99999999998545,-3.99999999998545));
#1164=CARTESIAN_POINT('',(0.,3.99999999998545,3.99999999998545));
#1165=CARTESIAN_POINT('',(-11.5,3.99999999998545,-3.99999999998545));
#1166=CARTESIAN_POINT('',(-11.5,3.99999999998545,3.99999999998545));
#1167=CARTESIAN_POINT('',(0.,3.99999999998545,-3.99999999998545));
#1168=CARTESIAN_POINT('Origin',(0.,1.99999999998545,-3.99999999998545));
#1169=CARTESIAN_POINT('',(0.,1.99999999998545,-5.99999999998545));
#1170=CARTESIAN_POINT('Origin',(0.,1.99999999998545,-3.99999999998545));
#1171=CARTESIAN_POINT('',(-11.5,1.99999999998545,-5.99999999998545));
#1172=CARTESIAN_POINT('Origin',(-11.5,1.99999999998545,-3.99999999998545));
#1173=CARTESIAN_POINT('',(0.,1.99999999998545,-5.99999999998545));
#1174=CARTESIAN_POINT('Origin',(0.,-5.5,-5.99999999998545));
#1175=CARTESIAN_POINT('',(0.,-5.5,-5.99999999998545));
#1176=CARTESIAN_POINT('',(0.,-5.5,-5.99999999998545));
#1177=CARTESIAN_POINT('',(0.,1.99999999998545,-5.99999999998545));
#1178=CARTESIAN_POINT('',(-11.5,-5.5,-5.99999999998545));
#1179=CARTESIAN_POINT('',(-11.5,1.99999999998545,-5.99999999998545));
#1180=CARTESIAN_POINT('',(0.,-5.5,-5.99999999998545));
#1181=CARTESIAN_POINT('Origin',(0.,-5.5,-7.5));
#1182=CARTESIAN_POINT('',(-11.5,-5.5,7.5));
#1183=CARTESIAN_POINT('',(0.,-5.5,7.5));
#1184=CARTESIAN_POINT('Origin',(0.,4.5,-6.5));
#1185=CARTESIAN_POINT('',(0.,5.5,-6.5));
#1186=CARTESIAN_POINT('Origin',(0.,4.5,-6.5));
#1187=CARTESIAN_POINT('',(-11.5,5.5,-6.5));
#1188=CARTESIAN_POINT('Origin',(-11.5,4.5,-6.5));
#1189=CARTESIAN_POINT('',(0.,5.5,-6.5));
#1190=CARTESIAN_POINT('Origin',(0.,5.5,6.5));
#1191=CARTESIAN_POINT('',(0.,5.5,6.5));
#1192=CARTESIAN_POINT('',(0.,5.5,-6.5));
#1193=CARTESIAN_POINT('',(-11.5,5.5,6.5));
#1194=CARTESIAN_POINT('',(-11.5,5.5,-6.5));
#1195=CARTESIAN_POINT('',(0.,5.5,6.5));
#1196=CARTESIAN_POINT('Origin',(0.,4.5,6.5));
#1197=CARTESIAN_POINT('Origin',(0.,4.5,6.5));
#1198=CARTESIAN_POINT('Origin',(-11.5,4.5,6.5));
#1199=CARTESIAN_POINT('Origin',(0.,5.55111512312578E-16,5.55111512312578E-16));
#1200=CARTESIAN_POINT('Origin',(-11.5,5.55111512312578E-16,5.55111512312578E-16));
#1201=UNCERTAINTY_MEASURE_WITH_UNIT(LENGTH_MEASURE(0.01),#1205,
'DISTANCE_ACCURACY_VALUE',
'Maximum model space distance between geometric entities at asserted c
onnectivities');
#1202=UNCERTAINTY_MEASURE_WITH_UNIT(LENGTH_MEASURE(0.01),#1205,
'DISTANCE_ACCURACY_VALUE',
'Maximum model space distance between geometric entities at asserted c
onnectivities');
#1203=(
GEOMETRIC_REPRESENTATION_CONTEXT(3)
GLOBAL_UNCERTAINTY_ASSIGNED_CONTEXT((#1201))
GLOBAL_UNIT_ASSIGNED_CONTEXT((#1205,#1207,#1208))
REPRESENTATION_CONTEXT('','3D')
);
#1204=(
GEOMETRIC_REPRESENTATION_CONTEXT(3)
GLOBAL_UNCERTAINTY_ASSIGNED_CONTEXT((#1202))
GLOBAL_UNIT_ASSIGNED_CONTEXT((#1205,#1207,#1208))
REPRESENTATION_CONTEXT('','3D')
);
#1205=(
LENGTH_UNIT()
NAMED_UNIT(*)
SI_UNIT(.MILLI.,.METRE.)
);
#1206=(
LENGTH_UNIT()
NAMED_UNIT(*)
SI_UNIT(.CENTI.,.METRE.)
);
#1207=(
NAMED_UNIT(*)
PLANE_ANGLE_UNIT()
SI_UNIT($,.RADIAN.)
);
#1208=(
NAMED_UNIT(*)
SI_UNIT($,.STERADIAN.)
SOLID_ANGLE_UNIT()
);
#1209=SHAPE_DEFINITION_REPRESENTATION(#1210,#1211);
#1210=PRODUCT_DEFINITION_SHAPE('',$,#1213);
#1211=SHAPE_REPRESENTATION('',(#763),#1203);
#1212=PRODUCT_DEFINITION_CONTEXT('part definition',#1217,'design');
#1213=PRODUCT_DEFINITION('Motor mount GA12 N20','Motor mount GA12 N20',
#1214,#1212);
#1214=PRODUCT_DEFINITION_FORMATION('',$,#1219);
#1215=PRODUCT_RELATED_PRODUCT_CATEGORY('Motor mount GA12 N20',
'Motor mount GA12 N20',(#1219));
#1216=APPLICATION_PROTOCOL_DEFINITION('international standard',
'automotive_design',2009,#1217);
#1217=APPLICATION_CONTEXT(
'Core Data for Automotive Mechanical Design Process');
#1218=PRODUCT_CONTEXT('part definition',#1217,'mechanical');
#1219=PRODUCT('Motor mount GA12 N20','Motor mount GA12 N20',$,(#1218));
#1220=PRESENTATION_STYLE_ASSIGNMENT((#1222));
#1221=PRESENTATION_STYLE_ASSIGNMENT((#1223));
#1222=SURFACE_STYLE_USAGE(.BOTH.,#1228);
#1223=SURFACE_STYLE_USAGE(.BOTH.,#1229);
#1224=SURFACE_STYLE_RENDERING_WITH_PROPERTIES($,#1236,(#1226));
#1225=SURFACE_STYLE_RENDERING_WITH_PROPERTIES($,#1237,(#1227));
#1226=SURFACE_STYLE_TRANSPARENT(0.);
#1227=SURFACE_STYLE_TRANSPARENT(0.);
#1228=SURFACE_SIDE_STYLE('',(#1230,#1224));
#1229=SURFACE_SIDE_STYLE('',(#1231,#1225));
#1230=SURFACE_STYLE_FILL_AREA(#1232);
#1231=SURFACE_STYLE_FILL_AREA(#1233);
#1232=FILL_AREA_STYLE('',(#1234));
#1233=FILL_AREA_STYLE('',(#1235));
#1234=FILL_AREA_STYLE_COLOUR('',#1236);
#1235=FILL_AREA_STYLE_COLOUR('',#1237);
#1236=COLOUR_RGB('',0.749019607843137,0.749019607843137,0.749019607843137);
#1237=COLOUR_RGB('',0.0196078431372549,0.0196078431372549,0.0196078431372549);
ENDSEC;
END-ISO-10303-21;
